%MOMM*%
%FSLAX33Y33*%
%ADD10C,0.200000*%
%ADD129C,0.080000*%
%ADD131C,5.100000*%
%ADD132C,1.500000*%
%ADD133R,1.500000X1.500000*%
%ADD134R,0.900000X1.000000*%
%ADD135C,0.736600*%
%ADD136R,1.400000X2.100000*%
%ADD137R,2.100000X1.400000*%
%ADD138R,0.700000X0.425000*%
%ADD139R,0.889000X0.990600*%
%ADD140R,0.250000X0.350000*%
%ADD141R,0.600000X0.350000*%
%ADD142R,1.000000X0.900000*%
%ADD143R,0.990600X0.609600*%
%ADD144C,1.300000*%
%ADD145R,1.300000X1.300000*%
%ADD146C,0.900000*%
%ADD147R,1.750000X2.500000*%
%ADD148R,2.641600X2.108200*%
%ADD149R,1.320800X1.016000*%
%ADD150R,1.600200X1.701800*%
%ADD151R,1.100000X3.300000*%
%ADD152R,2.500000X1.750000*%
%ADD153R,0.425000X0.700000*%
%ADD154R,0.812800X1.117600*%
%ADD155R,1.016000X1.320800*%
%ADD156R,1.550000X1.200000*%
%ADD157R,0.450000X0.450000*%
%ADD158R,0.900000X0.900000*%
%ADD159C,1.400000*%
%ADD160R,1.400000X1.150000*%
%ADD161R,0.927100X0.355600*%
%ADD162R,0.355600X0.927100*%
%ADD163R,3.550000X3.550000*%
%ADD164R,0.330000X0.800000*%
%ADD165R,1.600000X1.000000*%
%ADD166R,1.200000X1.350000*%
%ADD167R,1.350000X1.200000*%
%ADD168C,2.200000*%
%ADD169R,2.000000X1.200000*%
%ADD170R,2.108200X2.641600*%
%ADD171R,1.800000X1.800000*%
%ADD172R,1.550000X4.000000*%
%ADD173C,3.000000*%
G90*G71*G01*D02*G54D10*X000000Y000000D02*X065000Y000000D01*X065000Y077000D01*
X000000Y077000D01*X000000Y000000D01*D02*G54D129*X022500Y086000D02*
X002500Y086000D01*X002500Y082000D01*X022500Y082000D01*X022500Y084000D02*
X062500Y084000D01*X029513Y083388D02*X029513Y082867D01*X029539Y082770D01*
X029591Y082697D01*X029674Y082661D01*X029721Y082661D01*X029804Y082697D01*
X029851Y082770D01*X029877Y082867D01*X029877Y083364D01*X029539Y083364D02*
X029539Y082830D01*X029570Y082770D01*X029570Y083388D02*X029570Y082830D01*
X029591Y082733D01*X029617Y082697D01*X029674Y082661D01*X029440Y083388D02*
X029643Y083388D01*X029804Y083388D02*X029960Y083388D01*X029461Y083388D02*
X029513Y083364D01*X029487Y083388D02*X029513Y083327D01*X029591Y083388D02*
X029570Y083327D01*X029617Y083388D02*X029570Y083364D01*X029825Y083388D02*
X029877Y083364D01*X029934Y083388D02*X029877Y083364D01*X030718Y083291D02*
X030760Y083388D01*X030760Y083182D01*X030718Y083291D01*X030646Y083364D01*
X030531Y083388D01*X030422Y083388D01*X030313Y083364D01*X030240Y083291D01*
X030240Y083182D01*X030276Y083121D01*X030386Y083048D01*X030609Y082976D01*
X030682Y082939D01*X030718Y082867D01*X030718Y082770D01*X030682Y082697D01*
X030276Y083182D02*X030313Y083121D01*X030386Y083085D01*X030609Y083012D01*
X030682Y082976D01*X030718Y082903D01*X030313Y083364D02*X030276Y083291D01*
X030276Y083218D01*X030313Y083145D01*X030386Y083121D01*X030609Y083048D01*
X030718Y082976D01*X030760Y082903D01*X030760Y082806D01*X030718Y082733D01*
X030682Y082697D01*X030573Y082661D01*X030458Y082661D01*X030349Y082697D01*
X030276Y082770D01*X030240Y082867D01*X030240Y082661D01*X030276Y082770D01*
X031108Y083388D02*X031108Y082697D01*X031108Y083388D02*X031274Y082661D01*
X031134Y083388D02*X031274Y082770D01*X031154Y083388D02*X031295Y082770D01*
X031440Y083388D02*X031274Y082661D01*X031440Y083388D02*X031440Y082661D01*
X031461Y083364D02*X031461Y082697D01*X031487Y083388D02*X031487Y082661D01*
X031040Y083388D02*X031154Y083388D01*X031440Y083388D02*X031560Y083388D01*
X031040Y082661D02*X031180Y082661D01*X031368Y082661D02*X031560Y082661D01*
X031061Y083388D02*X031108Y083364D01*X031508Y083388D02*X031487Y083327D01*
X031534Y083388D02*X031487Y083364D01*X031108Y082697D02*X031061Y082661D01*
X031108Y082697D02*X031154Y082661D01*X031440Y082697D02*X031394Y082661D01*
X031440Y082733D02*X031414Y082661D01*X031487Y082733D02*X031508Y082661D01*
X031487Y082697D02*X031534Y082661D01*X026708Y085388D02*X026708Y084697D01*
X026708Y085388D02*X026874Y084661D01*X026734Y085388D02*X026874Y084770D01*
X026754Y085388D02*X026895Y084770D01*X027040Y085388D02*X026874Y084661D01*
X027040Y085388D02*X027040Y084661D01*X027061Y085364D02*X027061Y084697D01*
X027087Y085388D02*X027087Y084661D01*X026640Y085388D02*X026754Y085388D01*
X027040Y085388D02*X027160Y085388D01*X026640Y084661D02*X026780Y084661D01*
X026968Y084661D02*X027160Y084661D01*X026661Y085388D02*X026708Y085364D01*
X027108Y085388D02*X027087Y085327D01*X027134Y085388D02*X027087Y085364D01*
X026708Y084697D02*X026661Y084661D01*X026708Y084697D02*X026754Y084661D01*
X027040Y084697D02*X026994Y084661D01*X027040Y084733D02*X027014Y084661D01*
X027087Y084733D02*X027108Y084661D01*X027087Y084697D02*X027134Y084661D01*
X027664Y085388D02*X027570Y085364D01*X027502Y085291D01*X027471Y085218D01*
X027440Y085085D01*X027440Y084976D01*X027471Y084830D01*X027502Y084770D01*
X027570Y084697D01*X027664Y084661D01*X027731Y084661D01*X027830Y084697D01*
X027892Y084770D01*X027924Y084830D01*X027960Y084976D01*X027960Y085085D01*
X027924Y085218D01*X027892Y085291D01*X027830Y085364D01*X027731Y085388D01*
X027664Y085388D01*X027534Y085291D02*X027502Y085218D01*X027471Y085121D01*
X027471Y084939D01*X027502Y084830D01*X027534Y084770D01*X027861Y084770D02*
X027892Y084830D01*X027924Y084939D01*X027924Y085121D01*X027892Y085218D01*
X027861Y085291D01*X027664Y085388D02*X027601Y085364D01*X027534Y085255D01*
X027502Y085121D01*X027502Y084939D01*X027534Y084806D01*X027601Y084697D01*
X027664Y084661D01*X027731Y084661D02*X027794Y084697D01*X027861Y084806D01*
X027892Y084939D01*X027892Y085121D01*X027861Y085255D01*X027794Y085364D01*
X027731Y085388D01*X028328Y085388D02*X028328Y084661D01*X028360Y085364D02*
X028360Y084697D01*X028391Y085388D02*X028391Y084661D01*X028240Y085388D02*
X028542Y085388D01*X028635Y085364D01*X028698Y085291D01*X028729Y085218D01*
X028760Y085121D01*X028760Y084939D01*X028729Y084830D01*X028698Y084770D01*
X028635Y084697D01*X028542Y084661D01*X028240Y084661D01*X028666Y085291D02*
X028698Y085218D01*X028729Y085121D01*X028729Y084939D01*X028698Y084830D01*
X028666Y084770D01*X028542Y085388D02*X028604Y085364D01*X028666Y085255D01*
X028698Y085121D01*X028698Y084939D01*X028666Y084806D01*X028604Y084697D01*
X028542Y084661D01*X028266Y085388D02*X028328Y085364D01*X028297Y085388D02*
X028328Y085327D01*X028422Y085388D02*X028391Y085327D01*X028453Y085388D02*
X028391Y085364D01*X028328Y084697D02*X028266Y084661D01*X028328Y084733D02*
X028297Y084661D01*X028391Y084733D02*X028422Y084661D01*X028391Y084697D02*
X028453Y084661D01*X029134Y085388D02*X029134Y084661D01*X029165Y085364D02*
X029165Y084697D01*X029201Y085388D02*X029201Y084661D01*X029040Y085388D02*
X029560Y085388D01*X029560Y085182D01*X029201Y085048D02*X029394Y085048D01*
X029394Y085182D02*X029394Y084903D01*X029040Y084661D02*X029560Y084661D01*
X029560Y084867D01*X029071Y085388D02*X029134Y085364D01*X029102Y085388D02*
X029134Y085327D01*X029232Y085388D02*X029201Y085327D01*X029264Y085388D02*
X029201Y085364D01*X029394Y085388D02*X029560Y085364D01*X029461Y085388D02*
X029560Y085327D01*X029492Y085388D02*X029560Y085291D01*X029524Y085388D02*
X029560Y085182D01*X029394Y085182D02*X029362Y085048D01*X029394Y084903D01*
X029394Y085121D02*X029331Y085048D01*X029394Y084976D01*X029394Y085085D02*
X029264Y085048D01*X029394Y085012D01*X029134Y084697D02*X029071Y084661D01*
X029134Y084733D02*X029102Y084661D01*X029201Y084733D02*X029232Y084661D01*
X029201Y084697D02*X029264Y084661D01*X029394Y084661D02*X029560Y084697D01*
X029461Y084661D02*X029560Y084733D01*X029492Y084661D02*X029560Y084770D01*
X029524Y084661D02*X029560Y084867D01*X029944Y085388D02*X029944Y084661D01*
X029975Y085364D02*X029975Y084697D01*X030012Y085388D02*X030012Y084661D01*
X029840Y085388D02*X030116Y085388D01*X029840Y084661D02*X030360Y084661D01*
X030360Y084867D01*X029871Y085388D02*X029944Y085364D01*X029908Y085388D02*
X029944Y085327D01*X030048Y085388D02*X030012Y085327D01*X030079Y085388D02*
X030012Y085364D01*X029944Y084697D02*X029871Y084661D01*X029944Y084733D02*
X029908Y084661D01*X030012Y084733D02*X030048Y084661D01*X030012Y084697D02*
X030079Y084661D01*X030183Y084661D02*X030360Y084697D01*X030251Y084661D02*
X030360Y084733D01*X030287Y084661D02*X030360Y084770D01*X030324Y084661D02*
X030360Y084867D01*X031513Y085388D02*X031513Y084697D01*X031513Y085388D02*
X031877Y084661D01*X031544Y085388D02*X031851Y084770D01*X031565Y085388D02*
X031877Y084770D01*X031877Y085364D02*X031877Y084661D01*X031440Y085388D02*
X031565Y085388D01*X031804Y085388D02*X031960Y085388D01*X031440Y084661D02*
X031591Y084661D01*X031461Y085388D02*X031513Y085364D01*X031830Y085388D02*
X031877Y085364D01*X031934Y085388D02*X031877Y085364D01*X031513Y084697D02*
X031461Y084661D01*X031513Y084697D02*X031565Y084661D01*X032500Y085388D02*
X032297Y084697D01*X032469Y085291D02*X032640Y084661D01*X032500Y085291D02*
X032672Y084661D01*X032500Y085388D02*X032698Y084661D01*X032354Y084867D02*
X032614Y084867D01*X032240Y084661D02*X032412Y084661D01*X032557Y084661D02*
X032760Y084661D01*X032297Y084697D02*X032266Y084661D01*X032297Y084697D02*
X032354Y084661D01*X032640Y084697D02*X032583Y084661D01*X032640Y084733D02*
X032614Y084661D01*X032672Y084733D02*X032729Y084661D01*X033108Y085388D02*
X033108Y084697D01*X033108Y085388D02*X033274Y084661D01*X033134Y085388D02*
X033274Y084770D01*X033154Y085388D02*X033295Y084770D01*X033440Y085388D02*
X033274Y084661D01*X033440Y085388D02*X033440Y084661D01*X033461Y085364D02*
X033461Y084697D01*X033487Y085388D02*X033487Y084661D01*X033040Y085388D02*
X033154Y085388D01*X033440Y085388D02*X033560Y085388D01*X033040Y084661D02*
X033180Y084661D01*X033368Y084661D02*X033560Y084661D01*X033061Y085388D02*
X033108Y085364D01*X033508Y085388D02*X033487Y085327D01*X033534Y085388D02*
X033487Y085364D01*X033108Y084697D02*X033061Y084661D01*X033108Y084697D02*
X033154Y084661D01*X033440Y084697D02*X033394Y084661D01*X033440Y084733D02*
X033414Y084661D01*X033487Y084733D02*X033508Y084661D01*X033487Y084697D02*
X033534Y084661D01*X033934Y085388D02*X033934Y084661D01*X033965Y085364D02*
X033965Y084697D01*X034001Y085388D02*X034001Y084661D01*X033840Y085388D02*
X034360Y085388D01*X034360Y085182D01*X034001Y085048D02*X034194Y085048D01*
X034194Y085182D02*X034194Y084903D01*X033840Y084661D02*X034360Y084661D01*
X034360Y084867D01*X033871Y085388D02*X033934Y085364D01*X033902Y085388D02*
X033934Y085327D01*X034032Y085388D02*X034001Y085327D01*X034064Y085388D02*
X034001Y085364D01*X034194Y085388D02*X034360Y085364D01*X034261Y085388D02*
X034360Y085327D01*X034292Y085388D02*X034360Y085291D01*X034324Y085388D02*
X034360Y085182D01*X034194Y085182D02*X034162Y085048D01*X034194Y084903D01*
X034194Y085121D02*X034131Y085048D01*X034194Y084976D01*X034194Y085085D02*
X034064Y085048D01*X034194Y085012D01*X033934Y084697D02*X033871Y084661D01*
X033934Y084733D02*X033902Y084661D01*X034001Y084733D02*X034032Y084661D01*
X034001Y084697D02*X034064Y084661D01*X034194Y084661D02*X034360Y084697D01*
X034261Y084661D02*X034360Y084733D01*X034292Y084661D02*X034360Y084770D01*
X034324Y084661D02*X034360Y084867D01*X040744Y085388D02*X040744Y084661D01*
X040775Y085364D02*X040775Y084697D01*X040812Y085388D02*X040812Y084661D01*
X040640Y085388D02*X040916Y085388D01*X040640Y084661D02*X041160Y084661D01*
X041160Y084867D01*X040671Y085388D02*X040744Y085364D01*X040708Y085388D02*
X040744Y085327D01*X040848Y085388D02*X040812Y085327D01*X040879Y085388D02*
X040812Y085364D01*X040744Y084697D02*X040671Y084661D01*X040744Y084733D02*
X040708Y084661D01*X040812Y084733D02*X040848Y084661D01*X040812Y084697D02*
X040879Y084661D01*X040983Y084661D02*X041160Y084697D01*X041051Y084661D02*
X041160Y084733D01*X041087Y084661D02*X041160Y084770D01*X041124Y084661D02*
X041160Y084867D01*X041700Y085388D02*X041497Y084697D01*X041669Y085291D02*
X041840Y084661D01*X041700Y085291D02*X041872Y084661D01*X041700Y085388D02*
X041898Y084661D01*X041554Y084867D02*X041814Y084867D01*X041440Y084661D02*
X041612Y084661D01*X041757Y084661D02*X041960Y084661D01*X041497Y084697D02*
X041466Y084661D01*X041497Y084697D02*X041554Y084661D01*X041840Y084697D02*
X041783Y084661D01*X041840Y084733D02*X041814Y084661D01*X041872Y084733D02*
X041929Y084661D01*X042292Y085388D02*X042469Y085012D01*X042469Y084661D01*
X042318Y085388D02*X042495Y085012D01*X042495Y084697D01*X042339Y085388D02*
X042526Y085012D01*X042526Y084661D01*X042677Y085364D02*X042526Y085012D01*
X042240Y085388D02*X042422Y085388D01*X042599Y085388D02*X042760Y085388D01*
X042396Y084661D02*X042599Y084661D01*X042266Y085388D02*X042318Y085364D01*
X042396Y085388D02*X042339Y085364D01*X042630Y085388D02*X042677Y085364D01*
X042729Y085388D02*X042677Y085364D01*X042469Y084697D02*X042422Y084661D01*
X042469Y084733D02*X042443Y084661D01*X042526Y084733D02*X042547Y084661D01*
X042526Y084697D02*X042573Y084661D01*X043134Y085388D02*X043134Y084661D01*
X043165Y085364D02*X043165Y084697D01*X043201Y085388D02*X043201Y084661D01*
X043040Y085388D02*X043560Y085388D01*X043560Y085182D01*X043201Y085048D02*
X043394Y085048D01*X043394Y085182D02*X043394Y084903D01*X043040Y084661D02*
X043560Y084661D01*X043560Y084867D01*X043071Y085388D02*X043134Y085364D01*
X043102Y085388D02*X043134Y085327D01*X043232Y085388D02*X043201Y085327D01*
X043264Y085388D02*X043201Y085364D01*X043394Y085388D02*X043560Y085364D01*
X043461Y085388D02*X043560Y085327D01*X043492Y085388D02*X043560Y085291D01*
X043524Y085388D02*X043560Y085182D01*X043394Y085182D02*X043362Y085048D01*
X043394Y084903D01*X043394Y085121D02*X043331Y085048D01*X043394Y084976D01*
X043394Y085085D02*X043264Y085048D01*X043394Y085012D01*X043134Y084697D02*
X043071Y084661D01*X043134Y084733D02*X043102Y084661D01*X043201Y084733D02*
X043232Y084661D01*X043201Y084697D02*X043264Y084661D01*X043394Y084661D02*
X043560Y084697D01*X043461Y084661D02*X043560Y084733D01*X043492Y084661D02*
X043560Y084770D01*X043524Y084661D02*X043560Y084867D01*X043923Y085388D02*
X043923Y084661D01*X043954Y085364D02*X043954Y084697D01*X043980Y085388D02*
X043980Y084661D01*X043840Y085388D02*X044183Y085388D01*X044272Y085364D01*
X044298Y085327D01*X044329Y085255D01*X044329Y085182D01*X044298Y085121D01*
X044272Y085085D01*X044183Y085048D01*X043980Y085048D01*X044272Y085327D02*
X044298Y085255D01*X044298Y085182D01*X044272Y085121D01*X044183Y085388D02*
X044240Y085364D01*X044272Y085291D01*X044272Y085145D01*X044240Y085085D01*
X044183Y085048D01*X044095Y085048D02*X044157Y085012D01*X044183Y084939D01*
X044240Y084733D01*X044272Y084661D01*X044329Y084661D01*X044360Y084733D01*
X044360Y084806D01*X044240Y084806D02*X044272Y084733D01*X044298Y084697D01*
X044329Y084697D01*X044157Y085012D02*X044183Y084976D01*X044272Y084770D01*
X044298Y084733D01*X044329Y084733D01*X044360Y084770D01*X043840Y084661D02*
X044069Y084661D01*X043866Y085388D02*X043923Y085364D01*X043897Y085388D02*
X043923Y085327D01*X044012Y085388D02*X043980Y085327D01*X044038Y085388D02*
X043980Y085364D01*X043923Y084697D02*X043866Y084661D01*X043923Y084733D02*
X043897Y084661D01*X043980Y084733D02*X044012Y084661D01*X043980Y084697D02*
X044038Y084661D01*X045513Y085388D02*X045513Y084697D01*X045513Y085388D02*
X045877Y084661D01*X045544Y085388D02*X045851Y084770D01*X045565Y085388D02*
X045877Y084770D01*X045877Y085364D02*X045877Y084661D01*X045440Y085388D02*
X045565Y085388D01*X045804Y085388D02*X045960Y085388D01*X045440Y084661D02*
X045591Y084661D01*X045461Y085388D02*X045513Y085364D01*X045830Y085388D02*
X045877Y085364D01*X045934Y085388D02*X045877Y085364D01*X045513Y084697D02*
X045461Y084661D01*X045513Y084697D02*X045565Y084661D01*X046500Y085388D02*
X046297Y084697D01*X046469Y085291D02*X046640Y084661D01*X046500Y085291D02*
X046672Y084661D01*X046500Y085388D02*X046698Y084661D01*X046354Y084867D02*
X046614Y084867D01*X046240Y084661D02*X046412Y084661D01*X046557Y084661D02*
X046760Y084661D01*X046297Y084697D02*X046266Y084661D01*X046297Y084697D02*
X046354Y084661D01*X046640Y084697D02*X046583Y084661D01*X046640Y084733D02*
X046614Y084661D01*X046672Y084733D02*X046729Y084661D01*X047108Y085388D02*
X047108Y084697D01*X047108Y085388D02*X047274Y084661D01*X047134Y085388D02*
X047274Y084770D01*X047154Y085388D02*X047295Y084770D01*X047440Y085388D02*
X047274Y084661D01*X047440Y085388D02*X047440Y084661D01*X047461Y085364D02*
X047461Y084697D01*X047487Y085388D02*X047487Y084661D01*X047040Y085388D02*
X047154Y085388D01*X047440Y085388D02*X047560Y085388D01*X047040Y084661D02*
X047180Y084661D01*X047368Y084661D02*X047560Y084661D01*X047061Y085388D02*
X047108Y085364D01*X047508Y085388D02*X047487Y085327D01*X047534Y085388D02*
X047487Y085364D01*X047108Y084697D02*X047061Y084661D01*X047108Y084697D02*
X047154Y084661D01*X047440Y084697D02*X047394Y084661D01*X047440Y084733D02*
X047414Y084661D01*X047487Y084733D02*X047508Y084661D01*X047487Y084697D02*
X047534Y084661D01*X047934Y085388D02*X047934Y084661D01*X047965Y085364D02*
X047965Y084697D01*X048001Y085388D02*X048001Y084661D01*X047840Y085388D02*
X048360Y085388D01*X048360Y085182D01*X048001Y085048D02*X048194Y085048D01*
X048194Y085182D02*X048194Y084903D01*X047840Y084661D02*X048360Y084661D01*
X048360Y084867D01*X047871Y085388D02*X047934Y085364D01*X047902Y085388D02*
X047934Y085327D01*X048032Y085388D02*X048001Y085327D01*X048064Y085388D02*
X048001Y085364D01*X048194Y085388D02*X048360Y085364D01*X048261Y085388D02*
X048360Y085327D01*X048292Y085388D02*X048360Y085291D01*X048324Y085388D02*
X048360Y085182D01*X048194Y085182D02*X048162Y085048D01*X048194Y084903D01*
X048194Y085121D02*X048131Y085048D01*X048194Y084976D01*X048194Y085085D02*
X048064Y085048D01*X048194Y085012D01*X047934Y084697D02*X047871Y084661D01*
X047934Y084733D02*X047902Y084661D01*X048001Y084733D02*X048032Y084661D01*
X048001Y084697D02*X048064Y084661D01*X048194Y084661D02*X048360Y084697D01*
X048261Y084661D02*X048360Y084733D01*X048292Y084661D02*X048360Y084770D01*
X048324Y084661D02*X048360Y084867D01*X038500Y086000D02*X038500Y082000D01*
X022500Y086000D02*X062500Y086000D01*X062500Y082000D02*X022500Y082000D01*
X022500Y086000D02*X022500Y082000D01*X062500Y086000D02*X062500Y082000D01*
X050500Y086000D02*X050500Y082000D01*X055128Y085388D02*X055128Y084661D01*
X055160Y085364D02*X055160Y084697D01*X055191Y085388D02*X055191Y084661D01*
X055040Y085388D02*X055342Y085388D01*X055435Y085364D01*X055498Y085291D01*
X055529Y085218D01*X055560Y085121D01*X055560Y084939D01*X055529Y084830D01*
X055498Y084770D01*X055435Y084697D01*X055342Y084661D01*X055040Y084661D01*
X055466Y085291D02*X055498Y085218D01*X055529Y085121D01*X055529Y084939D01*
X055498Y084830D01*X055466Y084770D01*X055342Y085388D02*X055404Y085364D01*
X055466Y085255D01*X055498Y085121D01*X055498Y084939D01*X055466Y084806D01*
X055404Y084697D01*X055342Y084661D01*X055066Y085388D02*X055128Y085364D01*
X055097Y085388D02*X055128Y085327D01*X055222Y085388D02*X055191Y085327D01*
X055253Y085388D02*X055191Y085364D01*X055128Y084697D02*X055066Y084661D01*
X055128Y084733D02*X055097Y084661D01*X055191Y084733D02*X055222Y084661D01*
X055191Y084697D02*X055253Y084661D01*X056100Y085388D02*X055897Y084697D01*
X056069Y085291D02*X056240Y084661D01*X056100Y085291D02*X056272Y084661D01*
X056100Y085388D02*X056298Y084661D01*X055954Y084867D02*X056214Y084867D01*
X055840Y084661D02*X056012Y084661D01*X056157Y084661D02*X056360Y084661D01*
X055897Y084697D02*X055866Y084661D01*X055897Y084697D02*X055954Y084661D01*
X056240Y084697D02*X056183Y084661D01*X056240Y084733D02*X056214Y084661D01*
X056272Y084733D02*X056329Y084661D01*X056640Y085388D02*X056640Y085182D01*
X056864Y085388D02*X056864Y084661D01*X056900Y085364D02*X056900Y084697D01*
X056931Y085388D02*X056931Y084661D01*X057160Y085388D02*X057160Y085182D01*
X056640Y085388D02*X057160Y085388D01*X056770Y084661D02*X057025Y084661D01*
X056671Y085388D02*X056640Y085182D01*X056702Y085388D02*X056640Y085291D01*
X056734Y085388D02*X056640Y085327D01*X056801Y085388D02*X056640Y085364D01*
X056994Y085388D02*X057160Y085364D01*X057061Y085388D02*X057160Y085327D01*
X057092Y085388D02*X057160Y085291D01*X057124Y085388D02*X057160Y085182D01*
X056864Y084697D02*X056801Y084661D01*X056864Y084733D02*X056832Y084661D01*
X056931Y084733D02*X056962Y084661D01*X056931Y084697D02*X056994Y084661D01*
X057534Y085388D02*X057534Y084661D01*X057565Y085364D02*X057565Y084697D01*
X057601Y085388D02*X057601Y084661D01*X057440Y085388D02*X057960Y085388D01*
X057960Y085182D01*X057601Y085048D02*X057794Y085048D01*X057794Y085182D02*
X057794Y084903D01*X057440Y084661D02*X057960Y084661D01*X057960Y084867D01*
X057471Y085388D02*X057534Y085364D01*X057502Y085388D02*X057534Y085327D01*
X057632Y085388D02*X057601Y085327D01*X057664Y085388D02*X057601Y085364D01*
X057794Y085388D02*X057960Y085364D01*X057861Y085388D02*X057960Y085327D01*
X057892Y085388D02*X057960Y085291D01*X057924Y085388D02*X057960Y085182D01*
X057794Y085182D02*X057762Y085048D01*X057794Y084903D01*X057794Y085121D02*
X057731Y085048D01*X057794Y084976D01*X057794Y085085D02*X057664Y085048D01*
X057794Y085012D01*X057534Y084697D02*X057471Y084661D01*X057534Y084733D02*
X057502Y084661D01*X057601Y084733D02*X057632Y084661D01*X057601Y084697D02*
X057664Y084661D01*X057794Y084661D02*X057960Y084697D01*X057861Y084661D02*
X057960Y084733D01*X057892Y084661D02*X057960Y084770D01*X057924Y084661D02*
X057960Y084867D01*X052676Y083255D02*X052676Y083218D01*X052713Y083218D01*
X052713Y083255D01*X052676Y083255D01*X052676Y083291D02*X052713Y083291D01*
X052749Y083255D01*X052749Y083218D01*X052713Y083182D01*X052676Y083182D01*
X052640Y083218D01*X052640Y083255D01*X052676Y083327D01*X052713Y083364D01*
X052822Y083388D01*X052973Y083388D01*X053082Y083364D01*X053118Y083327D01*
X053160Y083255D01*X053160Y083182D01*X053118Y083121D01*X053009Y083048D01*
X052822Y082976D01*X052749Y082939D01*X052676Y082867D01*X052640Y082770D01*
X052640Y082661D01*X053082Y083327D02*X053118Y083255D01*X053118Y083182D01*
X053082Y083121D01*X052973Y083388D02*X053046Y083364D01*X053082Y083255D01*
X053082Y083182D01*X053046Y083121D01*X052973Y083048D01*X052822Y082976D01*
X052640Y082733D02*X052676Y082770D01*X052749Y082770D01*X052931Y082733D01*
X053082Y082733D01*X053160Y082770D01*X052749Y082770D02*X052931Y082697D01*
X053082Y082697D01*X053118Y082733D01*X052749Y082770D02*X052931Y082661D01*
X053082Y082661D01*X053118Y082697D01*X053160Y082770D01*X053160Y082830D01*
X053658Y083388D02*X053549Y083364D01*X053476Y083255D01*X053440Y083085D01*
X053440Y082976D01*X053476Y082806D01*X053549Y082697D01*X053658Y082661D01*
X053736Y082661D01*X053846Y082697D01*X053918Y082806D01*X053960Y082976D01*
X053960Y083085D01*X053918Y083255D01*X053846Y083364D01*X053736Y083388D01*
X053658Y083388D01*X053549Y083327D02*X053513Y083255D01*X053476Y083121D01*
X053476Y082939D01*X053513Y082806D01*X053549Y082733D01*X053846Y082733D02*
X053882Y082806D01*X053918Y082939D01*X053918Y083121D01*X053882Y083255D01*
X053846Y083327D01*X053658Y083388D02*X053586Y083364D01*X053549Y083291D01*
X053513Y083121D01*X053513Y082939D01*X053549Y082770D01*X053586Y082697D01*
X053658Y082661D01*X053736Y082661D02*X053809Y082697D01*X053846Y082770D01*
X053882Y082939D01*X053882Y083121D01*X053846Y083291D01*X053809Y083364D01*
X053736Y083388D01*X054474Y083327D02*X054474Y082661D01*X054495Y083327D02*
X054495Y082697D01*X054510Y083388D02*X054510Y082661D01*X054510Y083388D02*
X054458Y083291D01*X054427Y083255D01*X054412Y082661D02*X054578Y082661D01*
X054474Y082697D02*X054443Y082661D01*X054474Y082733D02*X054458Y082661D01*
X054510Y082733D02*X054526Y082661D01*X054510Y082697D02*X054542Y082661D01*
X055446Y083291D02*X055446Y083255D01*X055482Y083255D01*X055482Y083291D01*
X055446Y083291D01*X055482Y083327D02*X055446Y083327D01*X055409Y083291D01*
X055409Y083255D01*X055446Y083218D01*X055482Y083218D01*X055518Y083255D01*
X055518Y083291D01*X055482Y083364D01*X055409Y083388D01*X055300Y083388D01*
X055186Y083364D01*X055113Y083291D01*X055076Y083218D01*X055040Y083085D01*
X055040Y082867D01*X055076Y082770D01*X055149Y082697D01*X055258Y082661D01*
X055336Y082661D01*X055446Y082697D01*X055518Y082770D01*X055560Y082867D01*
X055560Y082903D01*X055518Y083012D01*X055446Y083085D01*X055336Y083121D01*
X055258Y083121D01*X055186Y083085D01*X055149Y083048D01*X055113Y082976D01*
X055149Y083291D02*X055113Y083218D01*X055076Y083085D01*X055076Y082867D01*
X055113Y082770D01*X055149Y082733D01*X055482Y082770D02*X055518Y082830D01*
X055518Y082939D01*X055482Y083012D01*X055300Y083388D02*X055222Y083364D01*
X055186Y083327D01*X055149Y083255D01*X055113Y083121D01*X055113Y082867D01*
X055149Y082770D01*X055186Y082697D01*X055258Y082661D01*X055336Y082661D02*
X055409Y082697D01*X055446Y082733D01*X055482Y082830D01*X055482Y082939D01*
X055446Y083048D01*X055409Y083085D01*X055336Y083121D01*X055840Y083012D02*
X056360Y083012D01*X056360Y082976D01*X055840Y083012D02*X055840Y082976D01*
X056360Y082976D01*X056858Y083388D02*X056749Y083364D01*X056676Y083255D01*
X056640Y083085D01*X056640Y082976D01*X056676Y082806D01*X056749Y082697D01*
X056858Y082661D01*X056936Y082661D01*X057046Y082697D01*X057118Y082806D01*
X057160Y082976D01*X057160Y083085D01*X057118Y083255D01*X057046Y083364D01*
X056936Y083388D01*X056858Y083388D01*X056749Y083327D02*X056713Y083255D01*
X056676Y083121D01*X056676Y082939D01*X056713Y082806D01*X056749Y082733D01*
X057046Y082733D02*X057082Y082806D01*X057118Y082939D01*X057118Y083121D01*
X057082Y083255D01*X057046Y083327D01*X056858Y083388D02*X056786Y083364D01*
X056749Y083291D01*X056713Y083121D01*X056713Y082939D01*X056749Y082770D01*
X056786Y082697D01*X056858Y082661D01*X056936Y082661D02*X057009Y082697D01*
X057046Y082770D01*X057082Y082939D01*X057082Y083121D01*X057046Y083291D01*
X057009Y083364D01*X056936Y083388D01*X057513Y082806D02*X057513Y082770D01*
X057549Y082770D01*X057549Y082806D01*X057513Y082806D01*X057882Y083085D02*
X057846Y083012D01*X057809Y082976D01*X057736Y082939D01*X057658Y082939D01*
X057549Y082976D01*X057476Y083048D01*X057440Y083145D01*X057440Y083182D01*
X057476Y083291D01*X057549Y083364D01*X057658Y083388D01*X057736Y083388D01*
X057846Y083364D01*X057918Y083291D01*X057960Y083182D01*X057960Y082976D01*
X057918Y082830D01*X057882Y082770D01*X057809Y082697D01*X057695Y082661D01*
X057586Y082661D01*X057513Y082697D01*X057476Y082770D01*X057476Y082806D01*
X057513Y082830D01*X057549Y082830D01*X057586Y082806D01*X057586Y082770D01*
X057549Y082733D01*X057513Y082733D01*X057513Y083048D02*X057476Y083121D01*
X057476Y083218D01*X057513Y083291D01*X057846Y083327D02*X057882Y083291D01*
X057918Y083182D01*X057918Y082976D01*X057882Y082830D01*X057846Y082770D01*
X057658Y082939D02*X057586Y082976D01*X057549Y083012D01*X057513Y083121D01*
X057513Y083218D01*X057549Y083327D01*X057586Y083364D01*X057658Y083388D01*
X057736Y083388D02*X057809Y083364D01*X057846Y083291D01*X057882Y083182D01*
X057882Y082939D01*X057846Y082806D01*X057809Y082733D01*X057773Y082697D01*
X057695Y082661D01*X058240Y083012D02*X058760Y083012D01*X058760Y082976D01*
X058240Y083012D02*X058240Y082976D01*X058760Y082976D01*X059258Y083388D02*
X059149Y083364D01*X059076Y083255D01*X059040Y083085D01*X059040Y082976D01*
X059076Y082806D01*X059149Y082697D01*X059258Y082661D01*X059336Y082661D01*
X059446Y082697D01*X059518Y082806D01*X059560Y082976D01*X059560Y083085D01*
X059518Y083255D01*X059446Y083364D01*X059336Y083388D01*X059258Y083388D01*
X059149Y083327D02*X059113Y083255D01*X059076Y083121D01*X059076Y082939D01*
X059113Y082806D01*X059149Y082733D01*X059446Y082733D02*X059482Y082806D01*
X059518Y082939D01*X059518Y083121D01*X059482Y083255D01*X059446Y083327D01*
X059258Y083388D02*X059186Y083364D01*X059149Y083291D01*X059113Y083121D01*
X059113Y082939D01*X059149Y082770D01*X059186Y082697D01*X059258Y082661D01*
X059336Y082661D02*X059409Y082697D01*X059446Y082770D01*X059482Y082939D01*
X059482Y083121D01*X059446Y083291D01*X059409Y083364D01*X059336Y083388D01*
X059913Y082806D02*X059913Y082770D01*X059949Y082770D01*X059949Y082806D01*
X059913Y082806D01*X060282Y083085D02*X060246Y083012D01*X060209Y082976D01*
X060136Y082939D01*X060058Y082939D01*X059949Y082976D01*X059876Y083048D01*
X059840Y083145D01*X059840Y083182D01*X059876Y083291D01*X059949Y083364D01*
X060058Y083388D01*X060136Y083388D01*X060246Y083364D01*X060318Y083291D01*
X060360Y083182D01*X060360Y082976D01*X060318Y082830D01*X060282Y082770D01*
X060209Y082697D01*X060095Y082661D01*X059986Y082661D01*X059913Y082697D01*
X059876Y082770D01*X059876Y082806D01*X059913Y082830D01*X059949Y082830D01*
X059986Y082806D01*X059986Y082770D01*X059949Y082733D01*X059913Y082733D01*
X059913Y083048D02*X059876Y083121D01*X059876Y083218D01*X059913Y083291D01*
X060246Y083327D02*X060282Y083291D01*X060318Y083182D01*X060318Y082976D01*
X060282Y082830D01*X060246Y082770D01*X060058Y082939D02*X059986Y082976D01*
X059949Y083012D01*X059913Y083121D01*X059913Y083218D01*X059949Y083327D01*
X059986Y083364D01*X060058Y083388D01*X060136Y083388D02*X060209Y083364D01*
X060246Y083291D01*X060282Y083182D01*X060282Y082939D01*X060246Y082806D01*
X060209Y082733D01*X060173Y082697D01*X060095Y082661D01*X042708Y083388D02*
X042708Y082697D01*X042708Y083388D02*X042874Y082661D01*X042734Y083388D02*
X042874Y082770D01*X042754Y083388D02*X042895Y082770D01*X043040Y083388D02*
X042874Y082661D01*X043040Y083388D02*X043040Y082661D01*X043061Y083364D02*
X043061Y082697D01*X043087Y083388D02*X043087Y082661D01*X042640Y083388D02*
X042754Y083388D01*X043040Y083388D02*X043160Y083388D01*X042640Y082661D02*
X042780Y082661D01*X042968Y082661D02*X043160Y082661D01*X042661Y083388D02*
X042708Y083364D01*X043108Y083388D02*X043087Y083327D01*X043134Y083388D02*
X043087Y083364D01*X042708Y082697D02*X042661Y082661D01*X042708Y082697D02*
X042754Y082661D01*X043040Y082697D02*X042994Y082661D01*X043040Y082733D02*
X043014Y082661D01*X043087Y082733D02*X043108Y082661D01*X043087Y082697D02*
X043134Y082661D01*X043700Y083388D02*X043497Y082697D01*X043669Y083291D02*
X043840Y082661D01*X043700Y083291D02*X043872Y082661D01*X043700Y083388D02*
X043898Y082661D01*X043554Y082867D02*X043814Y082867D01*X043440Y082661D02*
X043612Y082661D01*X043757Y082661D02*X043960Y082661D01*X043497Y082697D02*
X043466Y082661D01*X043497Y082697D02*X043554Y082661D01*X043840Y082697D02*
X043783Y082661D01*X043840Y082733D02*X043814Y082661D01*X043872Y082733D02*
X043929Y082661D01*X044718Y083291D02*X044760Y083388D01*X044760Y083182D01*
X044718Y083291D01*X044646Y083364D01*X044531Y083388D01*X044422Y083388D01*
X044313Y083364D01*X044240Y083291D01*X044240Y083182D01*X044276Y083121D01*
X044386Y083048D01*X044609Y082976D01*X044682Y082939D01*X044718Y082867D01*
X044718Y082770D01*X044682Y082697D01*X044276Y083182D02*X044313Y083121D01*
X044386Y083085D01*X044609Y083012D01*X044682Y082976D01*X044718Y082903D01*
X044313Y083364D02*X044276Y083291D01*X044276Y083218D01*X044313Y083145D01*
X044386Y083121D01*X044609Y083048D01*X044718Y082976D01*X044760Y082903D01*
X044760Y082806D01*X044718Y082733D01*X044682Y082697D01*X044573Y082661D01*
X044458Y082661D01*X044349Y082697D01*X044276Y082770D01*X044240Y082867D01*
X044240Y082661D01*X044276Y082770D01*X045118Y083388D02*X045118Y082661D01*
X045149Y083364D02*X045149Y082697D01*X045175Y083388D02*X045175Y082661D01*
X045477Y083364D02*X045175Y082976D01*X045258Y083048D02*X045446Y082661D01*
X045284Y083048D02*X045477Y082661D01*X045284Y083121D02*X045503Y082661D01*
X045040Y083388D02*X045258Y083388D01*X045394Y083388D02*X045560Y083388D01*
X045040Y082661D02*X045258Y082661D01*X045368Y082661D02*X045560Y082661D01*
X045066Y083388D02*X045118Y083364D01*X045092Y083388D02*X045118Y083327D01*
X045201Y083388D02*X045175Y083327D01*X045227Y083388D02*X045175Y083364D01*
X045446Y083388D02*X045477Y083364D01*X045529Y083388D02*X045477Y083364D01*
X045118Y082697D02*X045066Y082661D01*X045118Y082733D02*X045092Y082661D01*
X045175Y082733D02*X045201Y082661D01*X045175Y082697D02*X045227Y082661D01*
X045446Y082733D02*X045394Y082661D01*X045446Y082733D02*X045529Y082661D01*
X046074Y083327D02*X046074Y082661D01*X046095Y083327D02*X046095Y082697D01*
X046110Y083388D02*X046110Y082661D01*X046110Y083388D02*X046058Y083291D01*
X046027Y083255D01*X046012Y082661D02*X046178Y082661D01*X046074Y082697D02*
X046043Y082661D01*X046074Y082733D02*X046058Y082661D01*X046110Y082733D02*
X046126Y082661D01*X046110Y082697D02*X046142Y082661D01*X000000Y000000D02*D02*
G54D131*X003000Y003000D03*X062000Y003000D03*X003000Y074000D03*X062000Y074000D03*
D02*G54D132*X003000Y011460D03*X003000Y008920D03*X003000Y014000D03*
X003000Y016540D03*X003000Y027920D03*X003000Y025380D03*X003000Y033000D03*
X003000Y030460D03*X003000Y035540D03*X043000Y034460D03*X043000Y037000D03*
X003000Y038080D03*D02*G54D133*X003000Y019080D03*X003000Y040620D03*
X043000Y039540D03*D02*G54D134*X008000Y011250D03*X008000Y012750D03*
X015000Y018250D03*X015000Y016750D03*X013000Y018250D03*X013000Y016750D03*
X029250Y018250D03*X029250Y016750D03*X027875Y018250D03*X027875Y016750D03*
X029000Y023250D03*X029000Y024750D03*X021000Y032250D03*X021000Y033750D03*
X048000Y053250D03*X019000Y057500D03*X048000Y054750D03*X019000Y059000D03*D02*
G54D135*X010821Y008595D02*X012014Y008595D01*X010821Y009865D02*X012014Y009865D01*
X010821Y011135D02*X012014Y011135D01*X015986Y011135D02*X017179Y011135D01*
X015986Y009865D02*X017179Y009865D01*X015986Y008595D02*X017179Y008595D01*
X010821Y012405D02*X012014Y012405D01*X015986Y012405D02*X017179Y012405D01*
X036135Y035014D02*X036135Y033821D01*X034865Y035014D02*X034865Y033821D01*
X033595Y035014D02*X033595Y033821D01*X037405Y035014D02*X037405Y033821D01*
X033595Y040179D02*X033595Y038986D01*X034865Y040179D02*X034865Y038986D01*
X036135Y040179D02*X036135Y038986D01*X037405Y040179D02*X037405Y038986D01*D02*
G54D136*X010950Y035500D03*X007050Y035500D03*X015050Y035500D03*X018950Y035500D03*
X015050Y038500D03*X018950Y038500D03*D02*G54D137*X011500Y046050D03*
X014500Y046050D03*X023500Y046050D03*X020500Y046050D03*X032500Y046050D03*
X035500Y046050D03*X047500Y046050D03*X044500Y046050D03*X053500Y046050D03*
X050500Y046050D03*X011500Y049950D03*X014500Y049950D03*X023500Y049950D03*
X020500Y049950D03*X032500Y049950D03*X035500Y049950D03*X047500Y049950D03*
X044500Y049950D03*X053500Y049950D03*X050500Y049950D03*X032500Y060050D03*
X035500Y060050D03*X011500Y065050D03*X014500Y065050D03*X017500Y065050D03*
X026500Y065050D03*X032500Y063950D03*X035500Y063950D03*X011500Y068950D03*
X014500Y068950D03*X017500Y068950D03*X026500Y068950D03*D02*G54D138*
X011500Y053975D03*X011500Y053325D03*X011500Y052675D03*X011500Y052025D03*
X014500Y052025D03*X014500Y052675D03*X014500Y053325D03*X014500Y053975D03*
X020500Y053975D03*X020500Y053325D03*X020500Y052675D03*X020500Y052025D03*
X023500Y052025D03*X023500Y052675D03*X023500Y053325D03*X023500Y053975D03*D02*
G54D139*X032500Y065825D03*X011500Y070825D03*X031550Y068175D03*X033450Y068175D03*
X010550Y073175D03*X012450Y073175D03*D02*G54D140*X023175Y064850D03*
X022825Y064850D03*X021175Y064850D03*X020825Y064850D03*X029825Y067350D03*
X030175Y067350D03*X009175Y072350D03*X008825Y072350D03*D02*G54D141*
X023000Y064200D03*X021000Y064200D03*X030000Y066700D03*X009000Y071700D03*D02*
G54D142*X013250Y014000D03*X014750Y014000D03*X029000Y027000D03*X030500Y027000D03*
X052250Y059000D03*X053750Y059000D03*D02*G54D143*X016550Y017500D03*
X018450Y016850D03*X018450Y018150D03*X022450Y016850D03*X022450Y018150D03*
X020550Y017500D03*X026200Y016850D03*X026200Y018150D03*X024300Y017500D03*D02*
G54D144*X015270Y020690D03*X012730Y020690D03*X012730Y028310D03*X061000Y038000D03*
X061000Y049000D03*X061000Y067250D03*D02*G54D145*X015270Y028310D03*
X061000Y036000D03*X061000Y047000D03*X061000Y065250D03*D02*G54D146*
X015000Y033000D03*X019000Y033000D03*X028000Y037000D03*X057000Y036000D03*
X057000Y038000D03*X057000Y047000D03*X057000Y049000D03*D02*G54D147*
X013000Y053000D03*X022000Y053000D03*D02*G54D148*X013000Y056326D03*
X022000Y056326D03*X013000Y060674D03*X022000Y060674D03*D02*G54D149*
X022500Y007860D03*X022500Y011140D03*D02*G54D150*X019650Y013500D03*
X022350Y013500D03*D02*G54D151*X024000Y021100D03*X020000Y021100D03*
X024000Y027900D03*X020000Y027900D03*D02*G54D152*X022000Y037000D03*D02*G54D153*
X021025Y035500D03*X021675Y035500D03*X022325Y035500D03*X022975Y035500D03*
X022975Y038500D03*X022325Y038500D03*X021675Y038500D03*X021025Y038500D03*D02*
G54D154*X022950Y066705D03*X022000Y066705D03*X021050Y066705D03*X022000Y069295D03*
X022950Y069295D03*X021050Y069295D03*D02*G54D155*X024360Y011000D03*
X027640Y011000D03*D02*G54D156*X027000Y023325D03*X027000Y025175D03*D02*G54D157*
X029250Y036750D03*X029250Y036250D03*X029750Y036250D03*X030750Y036250D03*
X030750Y036750D03*X030250Y036250D03*X029750Y037750D03*X029250Y037750D03*
X029250Y037250D03*X030750Y037250D03*X030750Y037750D03*X030250Y037750D03*D02*
G54D158*X033000Y005750D03*X033000Y004250D03*X036000Y005750D03*X036000Y004250D03*
X039000Y005750D03*X039000Y004250D03*X042000Y005750D03*X042000Y004250D03*
X036250Y055000D03*X036250Y057000D03*X037750Y055000D03*X037750Y057000D03*D02*
G54D159*X033000Y008000D03*X036000Y008000D03*X039000Y008000D03*X042000Y008000D03*
D02*G54D160*X036350Y011575D03*X038650Y011575D03*X036350Y013425D03*
X038650Y013425D03*D02*G54D161*X033268Y019500D03*X038232Y019500D03*
X033268Y023000D03*X033268Y022500D03*X033268Y022000D03*X033268Y021500D03*
X033268Y021000D03*X033268Y020500D03*X033268Y020000D03*X038232Y023000D03*
X038232Y022500D03*X038232Y022000D03*X038232Y021500D03*X038232Y021000D03*
X038232Y020500D03*X038232Y020000D03*X048532Y061250D03*X048532Y061750D03*
X048532Y062250D03*X048532Y062750D03*X045468Y062750D03*X045468Y062250D03*
X045468Y061750D03*X045468Y061250D03*D02*G54D162*X034000Y018768D03*
X034500Y018768D03*X035000Y018768D03*X035500Y018768D03*X036000Y018768D03*
X036500Y018768D03*X037000Y018768D03*X037500Y018768D03*X036000Y023732D03*
X035500Y023732D03*X035000Y023732D03*X034500Y023732D03*X034000Y023732D03*
X037500Y023732D03*X037000Y023732D03*X036500Y023732D03*X046250Y060468D03*
X046750Y060468D03*X047250Y060468D03*X047750Y060468D03*X047750Y063532D03*
X047250Y063532D03*X046750Y063532D03*X046250Y063532D03*D02*G54D163*
X035750Y021250D03*D02*G54D164*X034800Y054950D03*X034800Y057050D03*
X034400Y057050D03*X034000Y057050D03*X034400Y054950D03*X034000Y054950D03*
X033600Y054950D03*X033200Y054950D03*X033600Y057050D03*X033200Y057050D03*D02*
G54D165*X034000Y056000D03*D02*G54D166*X041925Y057000D03*X040075Y057000D03*
X041925Y059000D03*X040075Y059000D03*X040075Y055000D03*X041925Y055000D03*
X041925Y063000D03*X040075Y063000D03*X041925Y061000D03*X040075Y061000D03*
X052075Y061000D03*X053925Y061000D03*X052075Y063000D03*X053925Y063000D03*
X041925Y067000D03*X040075Y067000D03*X040075Y065000D03*X041925Y065000D03*D02*
G54D167*X052000Y066925D03*X052000Y065075D03*X054000Y066925D03*X054000Y065075D03*
X042000Y070925D03*X042000Y069075D03*X040000Y070925D03*X040000Y069075D03*
X048000Y070925D03*X048000Y069075D03*X044000Y070925D03*X044000Y069075D03*
X052000Y070925D03*X052000Y069075D03*X050000Y070925D03*X050000Y069075D03*
X054000Y070925D03*X054000Y069075D03*D02*G54D168*X046460Y011460D03*
X051540Y011460D03*X049000Y014000D03*X046460Y016540D03*X051540Y016540D03*D02*
G54D169*X045000Y023250D03*X045000Y025750D03*D02*G54D170*X046826Y034500D03*
X051174Y034500D03*X046826Y039500D03*X051174Y039500D03*D02*G54D171*
X047000Y062000D03*D02*G54D172*X053975Y054000D03*X051025Y054000D03*D02*G54D173*
X057000Y074000D03*X057000Y003000D03*X008000Y003000D03*X057000Y074000D03*
X057000Y003000D03*X008000Y003000D03*
G36*X032700Y001850D02*X032703Y001821D01*X032711Y001793D01*X032725Y001767D01*
X032744Y001744D01*X032767Y001725D01*X032793Y001711D01*X032821Y001703D01*
X032850Y001700D01*X033150Y001700D01*X033179Y001703D01*X033207Y001711D01*
X033233Y001725D01*X033256Y001744D01*X033275Y001767D01*X033289Y001793D01*
X033297Y001821D01*X033300Y001850D01*X033300Y002150D01*X033297Y002179D01*
X033289Y002207D01*X033275Y002233D01*X033256Y002256D01*X033233Y002275D01*
X033207Y002289D01*X033179Y002297D01*X033150Y002300D01*X032850Y002300D01*
X032821Y002297D01*X032793Y002289D01*X032767Y002275D01*X032744Y002256D01*
X032725Y002233D01*X032711Y002207D01*X032703Y002179D01*X032700Y002150D01*
X032700Y001850D01*G37*G36*X035700Y001850D02*X035703Y001821D01*X035711Y001793D01*
X035725Y001767D01*X035744Y001744D01*X035767Y001725D01*X035793Y001711D01*
X035821Y001703D01*X035850Y001700D01*X036150Y001700D01*X036179Y001703D01*
X036207Y001711D01*X036233Y001725D01*X036256Y001744D01*X036275Y001767D01*
X036289Y001793D01*X036297Y001821D01*X036300Y001850D01*X036300Y002150D01*
X036297Y002179D01*X036289Y002207D01*X036275Y002233D01*X036256Y002256D01*
X036233Y002275D01*X036207Y002289D01*X036179Y002297D01*X036150Y002300D01*
X035850Y002300D01*X035821Y002297D01*X035793Y002289D01*X035767Y002275D01*
X035744Y002256D01*X035725Y002233D01*X035711Y002207D01*X035703Y002179D01*
X035700Y002150D01*X035700Y001850D01*G37*G36*X038700Y001850D02*X038703Y001821D01*
X038711Y001793D01*X038725Y001767D01*X038744Y001744D01*X038767Y001725D01*
X038793Y001711D01*X038821Y001703D01*X038850Y001700D01*X039150Y001700D01*
X039179Y001703D01*X039207Y001711D01*X039233Y001725D01*X039256Y001744D01*
X039275Y001767D01*X039289Y001793D01*X039297Y001821D01*X039300Y001850D01*
X039300Y002150D01*X039297Y002179D01*X039289Y002207D01*X039275Y002233D01*
X039256Y002256D01*X039233Y002275D01*X039207Y002289D01*X039179Y002297D01*
X039150Y002300D01*X038850Y002300D01*X038821Y002297D01*X038793Y002289D01*
X038767Y002275D01*X038744Y002256D01*X038725Y002233D01*X038711Y002207D01*
X038703Y002179D01*X038700Y002150D01*X038700Y001850D01*G37*G36*X041700Y001850D02*
X041703Y001821D01*X041711Y001793D01*X041725Y001767D01*X041744Y001744D01*
X041767Y001725D01*X041793Y001711D01*X041821Y001703D01*X041850Y001700D01*
X042150Y001700D01*X042179Y001703D01*X042207Y001711D01*X042233Y001725D01*
X042256Y001744D01*X042275Y001767D01*X042289Y001793D01*X042297Y001821D01*
X042300Y001850D01*X042300Y002150D01*X042297Y002179D01*X042289Y002207D01*
X042275Y002233D01*X042256Y002256D01*X042233Y002275D01*X042207Y002289D01*
X042179Y002297D01*X042150Y002300D01*X041850Y002300D01*X041821Y002297D01*
X041793Y002289D01*X041767Y002275D01*X041744Y002256D01*X041725Y002233D01*
X041711Y002207D01*X041703Y002179D01*X041700Y002150D01*X041700Y001850D01*G37*G36*
X032700Y002850D02*X032703Y002821D01*X032711Y002793D01*X032725Y002767D01*
X032744Y002744D01*X032767Y002725D01*X032793Y002711D01*X032821Y002703D01*
X032850Y002700D01*X033150Y002700D01*X033179Y002703D01*X033207Y002711D01*
X033233Y002725D01*X033256Y002744D01*X033275Y002767D01*X033289Y002793D01*
X033297Y002821D01*X033300Y002850D01*X033300Y003150D01*X033297Y003179D01*
X033289Y003207D01*X033275Y003233D01*X033256Y003256D01*X033233Y003275D01*
X033207Y003289D01*X033179Y003297D01*X033150Y003300D01*X032850Y003300D01*
X032821Y003297D01*X032793Y003289D01*X032767Y003275D01*X032744Y003256D01*
X032725Y003233D01*X032711Y003207D01*X032703Y003179D01*X032700Y003150D01*
X032700Y002850D01*G37*G36*X035700Y002850D02*X035703Y002821D01*X035711Y002793D01*
X035725Y002767D01*X035744Y002744D01*X035767Y002725D01*X035793Y002711D01*
X035821Y002703D01*X035850Y002700D01*X036150Y002700D01*X036179Y002703D01*
X036207Y002711D01*X036233Y002725D01*X036256Y002744D01*X036275Y002767D01*
X036289Y002793D01*X036297Y002821D01*X036300Y002850D01*X036300Y003150D01*
X036297Y003179D01*X036289Y003207D01*X036275Y003233D01*X036256Y003256D01*
X036233Y003275D01*X036207Y003289D01*X036179Y003297D01*X036150Y003300D01*
X035850Y003300D01*X035821Y003297D01*X035793Y003289D01*X035767Y003275D01*
X035744Y003256D01*X035725Y003233D01*X035711Y003207D01*X035703Y003179D01*
X035700Y003150D01*X035700Y002850D01*G37*G36*X038700Y002850D02*X038703Y002821D01*
X038711Y002793D01*X038725Y002767D01*X038744Y002744D01*X038767Y002725D01*
X038793Y002711D01*X038821Y002703D01*X038850Y002700D01*X039150Y002700D01*
X039179Y002703D01*X039207Y002711D01*X039233Y002725D01*X039256Y002744D01*
X039275Y002767D01*X039289Y002793D01*X039297Y002821D01*X039300Y002850D01*
X039300Y003150D01*X039297Y003179D01*X039289Y003207D01*X039275Y003233D01*
X039256Y003256D01*X039233Y003275D01*X039207Y003289D01*X039179Y003297D01*
X039150Y003300D01*X038850Y003300D01*X038821Y003297D01*X038793Y003289D01*
X038767Y003275D01*X038744Y003256D01*X038725Y003233D01*X038711Y003207D01*
X038703Y003179D01*X038700Y003150D01*X038700Y002850D01*G37*G36*X041700Y002850D02*
X041703Y002821D01*X041711Y002793D01*X041725Y002767D01*X041744Y002744D01*
X041767Y002725D01*X041793Y002711D01*X041821Y002703D01*X041850Y002700D01*
X042150Y002700D01*X042179Y002703D01*X042207Y002711D01*X042233Y002725D01*
X042256Y002744D01*X042275Y002767D01*X042289Y002793D01*X042297Y002821D01*
X042300Y002850D01*X042300Y003150D01*X042297Y003179D01*X042289Y003207D01*
X042275Y003233D01*X042256Y003256D01*X042233Y003275D01*X042207Y003289D01*
X042179Y003297D01*X042150Y003300D01*X041850Y003300D01*X041821Y003297D01*
X041793Y003289D01*X041767Y003275D01*X041744Y003256D01*X041725Y003233D01*
X041711Y003207D01*X041703Y003179D01*X041700Y003150D01*X041700Y002850D01*G37*G36*
X007700Y007850D02*X007703Y007821D01*X007711Y007793D01*X007725Y007767D01*
X007744Y007744D01*X007767Y007725D01*X007793Y007711D01*X007821Y007703D01*
X007850Y007700D01*X008150Y007700D01*X008179Y007703D01*X008207Y007711D01*
X008233Y007725D01*X008256Y007744D01*X008275Y007767D01*X008289Y007793D01*
X008297Y007821D01*X008300Y007850D01*X008300Y008150D01*X008297Y008179D01*
X008289Y008207D01*X008275Y008233D01*X008256Y008256D01*X008233Y008275D01*
X008207Y008289D01*X008179Y008297D01*X008150Y008300D01*X007850Y008300D01*
X007821Y008297D01*X007793Y008289D01*X007767Y008275D01*X007744Y008256D01*
X007725Y008233D01*X007711Y008207D01*X007703Y008179D01*X007700Y008150D01*
X007700Y007850D01*G37*G36*X007700Y008850D02*X007703Y008821D01*X007711Y008793D01*
X007725Y008767D01*X007744Y008744D01*X007767Y008725D01*X007793Y008711D01*
X007821Y008703D01*X007850Y008700D01*X008150Y008700D01*X008179Y008703D01*
X008207Y008711D01*X008233Y008725D01*X008256Y008744D01*X008275Y008767D01*
X008289Y008793D01*X008297Y008821D01*X008300Y008850D01*X008300Y009150D01*
X008297Y009179D01*X008289Y009207D01*X008275Y009233D01*X008256Y009256D01*
X008233Y009275D01*X008207Y009289D01*X008179Y009297D01*X008150Y009300D01*
X007850Y009300D01*X007821Y009297D01*X007793Y009289D01*X007767Y009275D01*
X007744Y009256D01*X007725Y009233D01*X007711Y009207D01*X007703Y009179D01*
X007700Y009150D01*X007700Y008850D01*
G37*G36*X007700Y009850D02*X007703Y009821D01*
X007711Y009793D01*X007725Y009767D01*X007744Y009744D01*X007767Y009725D01*
X007793Y009711D01*X007821Y009703D01*X007850Y009700D01*X008150Y009700D01*
X008179Y009703D01*X008207Y009711D01*X008233Y009725D01*X008256Y009744D01*
X008275Y009767D01*X008289Y009793D01*X008297Y009821D01*X008300Y009850D01*
X008300Y010150D01*X008297Y010179D01*X008289Y010207D01*X008275Y010233D01*
X008256Y010256D01*X008233Y010275D01*X008207Y010289D01*X008179Y010297D01*
X008150Y010300D01*X007850Y010300D01*X007821Y010297D01*X007793Y010289D01*
X007767Y010275D01*X007744Y010256D01*X007725Y010233D01*X007711Y010207D01*
X007703Y010179D01*X007700Y010150D01*X007700Y009850D01*G37*G36*X008700Y009850D02*
X008703Y009821D01*X008711Y009793D01*X008725Y009767D01*X008744Y009744D01*
X008767Y009725D01*X008793Y009711D01*X008821Y009703D01*X008850Y009700D01*
X009150Y009700D01*X009179Y009703D01*X009207Y009711D01*X009233Y009725D01*
X009256Y009744D01*X009275Y009767D01*X009289Y009793D01*X009297Y009821D01*
X009300Y009850D01*X009300Y010150D01*X009297Y010179D01*X009289Y010207D01*
X009275Y010233D01*X009256Y010256D01*X009233Y010275D01*X009207Y010289D01*
X009179Y010297D01*X009150Y010300D01*X008850Y010300D01*X008821Y010297D01*
X008793Y010289D01*X008767Y010275D01*X008744Y010256D01*X008725Y010233D01*
X008711Y010207D01*X008703Y010179D01*X008700Y010150D01*X008700Y009850D01*G37*G36*
X008700Y007850D02*X008703Y007821D01*X008711Y007793D01*X008725Y007767D01*
X008744Y007744D01*X008767Y007725D01*X008793Y007711D01*X008821Y007703D01*
X008850Y007700D01*X009150Y007700D01*X009179Y007703D01*X009207Y007711D01*
X009233Y007725D01*X009256Y007744D01*X009275Y007767D01*X009289Y007793D01*
X009297Y007821D01*X009300Y007850D01*X009300Y008150D01*X009297Y008179D01*
X009289Y008207D01*X009275Y008233D01*X009256Y008256D01*X009233Y008275D01*
X009207Y008289D01*X009179Y008297D01*X009150Y008300D01*X008850Y008300D01*
X008821Y008297D01*X008793Y008289D01*X008767Y008275D01*X008744Y008256D01*
X008725Y008233D01*X008711Y008207D01*X008703Y008179D01*X008700Y008150D01*
X008700Y007850D01*G37*G36*X008700Y008850D02*X008703Y008821D01*X008711Y008793D01*
X008725Y008767D01*X008744Y008744D01*X008767Y008725D01*X008793Y008711D01*
X008821Y008703D01*X008850Y008700D01*X009150Y008700D01*X009179Y008703D01*
X009207Y008711D01*X009233Y008725D01*X009256Y008744D01*X009275Y008767D01*
X009289Y008793D01*X009297Y008821D01*X009300Y008850D01*X009300Y009150D01*
X009297Y009179D01*X009289Y009207D01*X009275Y009233D01*X009256Y009256D01*
X009233Y009275D01*X009207Y009289D01*X009179Y009297D01*X009150Y009300D01*
X008850Y009300D01*X008821Y009297D01*X008793Y009289D01*X008767Y009275D01*
X008744Y009256D01*X008725Y009233D01*X008711Y009207D01*X008703Y009179D01*
X008700Y009150D01*X008700Y008850D01*G37*G36*X008700Y010850D02*X008703Y010821D01*
X008711Y010793D01*X008725Y010767D01*X008744Y010744D01*X008767Y010725D01*
X008793Y010711D01*X008821Y010703D01*X008850Y010700D01*X009150Y010700D01*
X009179Y010703D01*X009207Y010711D01*X009233Y010725D01*X009256Y010744D01*
X009275Y010767D01*X009289Y010793D01*X009297Y010821D01*X009300Y010850D01*
X009300Y011150D01*X009297Y011179D01*X009289Y011207D01*X009275Y011233D01*
X009256Y011256D01*X009233Y011275D01*X009207Y011289D01*X009179Y011297D01*
X009150Y011300D01*X008850Y011300D01*X008821Y011297D01*X008793Y011289D01*
X008767Y011275D01*X008744Y011256D01*X008725Y011233D01*X008711Y011207D01*
X008703Y011179D01*X008700Y011150D01*X008700Y010850D01*G37*G36*X020700Y010850D02*
X020703Y010821D01*X020711Y010793D01*X020725Y010767D01*X020744Y010744D01*
X020767Y010725D01*X020793Y010711D01*X020821Y010703D01*X020850Y010700D01*
X021150Y010700D01*X021179Y010703D01*X021207Y010711D01*X021233Y010725D01*
X021256Y010744D01*X021275Y010767D01*X021289Y010793D01*X021297Y010821D01*
X021300Y010850D01*X021300Y011150D01*X021297Y011179D01*X021289Y011207D01*
X021275Y011233D01*X021256Y011256D01*X021233Y011275D01*X021207Y011289D01*
X021179Y011297D01*X021150Y011300D01*X020850Y011300D01*X020821Y011297D01*
X020793Y011289D01*X020767Y011275D01*X020744Y011256D01*X020725Y011233D01*
X020711Y011207D01*X020703Y011179D01*X020700Y011150D01*X020700Y010850D01*G37*G36*
X019700Y010850D02*X019703Y010821D01*X019711Y010793D01*X019725Y010767D01*
X019744Y010744D01*X019767Y010725D01*X019793Y010711D01*X019821Y010703D01*
X019850Y010700D01*X020150Y010700D01*X020179Y010703D01*X020207Y010711D01*
X020233Y010725D01*X020256Y010744D01*X020275Y010767D01*X020289Y010793D01*
X020297Y010821D01*X020300Y010850D01*X020300Y011150D01*X020297Y011179D01*
X020289Y011207D01*X020275Y011233D01*X020256Y011256D01*X020233Y011275D01*
X020207Y011289D01*X020179Y011297D01*X020150Y011300D01*X019850Y011300D01*
X019821Y011297D01*X019793Y011289D01*X019767Y011275D01*X019744Y011256D01*
X019725Y011233D01*X019711Y011207D01*X019703Y011179D01*X019700Y011150D01*
X019700Y010850D01*G37*G36*X018700Y009850D02*X018703Y009821D01*X018711Y009793D01*
X018725Y009767D01*X018744Y009744D01*X018767Y009725D01*X018793Y009711D01*
X018821Y009703D01*X018850Y009700D01*X019150Y009700D01*X019179Y009703D01*
X019207Y009711D01*X019233Y009725D01*X019256Y009744D01*X019275Y009767D01*
X019289Y009793D01*X019297Y009821D01*X019300Y009850D01*X019300Y010150D01*
X019297Y010179D01*X019289Y010207D01*X019275Y010233D01*X019256Y010256D01*
X019233Y010275D01*X019207Y010289D01*X019179Y010297D01*X019150Y010300D01*
X018850Y010300D01*X018821Y010297D01*X018793Y010289D01*X018767Y010275D01*
X018744Y010256D01*X018725Y010233D01*X018711Y010207D01*X018703Y010179D01*
X018700Y010150D01*X018700Y009850D01*G37*G36*X018700Y010850D02*X018703Y010821D01*
X018711Y010793D01*X018725Y010767D01*X018744Y010744D01*X018767Y010725D01*
X018793Y010711D01*X018821Y010703D01*X018850Y010700D01*X019150Y010700D01*
X019179Y010703D01*X019207Y010711D01*X019233Y010725D01*X019256Y010744D01*
X019275Y010767D01*X019289Y010793D01*X019297Y010821D01*X019300Y010850D01*
X019300Y011150D01*X019297Y011179D01*X019289Y011207D01*X019275Y011233D01*
X019256Y011256D01*X019233Y011275D01*X019207Y011289D01*X019179Y011297D01*
X019150Y011300D01*X018850Y011300D01*X018821Y011297D01*X018793Y011289D01*
X018767Y011275D01*X018744Y011256D01*X018725Y011233D01*X018711Y011207D01*
X018703Y011179D01*X018700Y011150D01*X018700Y010850D01*G37*G36*X007700Y014850D02*
X007703Y014821D01*X007711Y014793D01*X007725Y014767D01*X007744Y014744D01*
X007767Y014725D01*X007793Y014711D01*X007821Y014703D01*X007850Y014700D01*
X008150Y014700D01*X008179Y014703D01*X008207Y014711D01*X008233Y014725D01*
X008256Y014744D01*X008275Y014767D01*X008289Y014793D01*X008297Y014821D01*
X008300Y014850D01*X008300Y015150D01*X008297Y015179D01*X008289Y015207D01*
X008275Y015233D01*X008256Y015256D01*X008233Y015275D01*X008207Y015289D01*
X008179Y015297D01*X008150Y015300D01*X007850Y015300D01*X007821Y015297D01*
X007793Y015289D01*X007767Y015275D01*X007744Y015256D01*X007725Y015233D01*
X007711Y015207D01*X007703Y015179D01*X007700Y015150D01*X007700Y014850D01*
G37*G36*
X007700Y013850D02*X007703Y013821D01*X007711Y013793D01*X007725Y013767D01*
X007744Y013744D01*X007767Y013725D01*X007793Y013711D01*X007821Y013703D01*
X007850Y013700D01*X008150Y013700D01*X008179Y013703D01*X008207Y013711D01*
X008233Y013725D01*X008256Y013744D01*X008275Y013767D01*X008289Y013793D01*
X008297Y013821D01*X008300Y013850D01*X008300Y014150D01*X008297Y014179D01*
X008289Y014207D01*X008275Y014233D01*X008256Y014256D01*X008233Y014275D01*
X008207Y014289D01*X008179Y014297D01*X008150Y014300D01*X007850Y014300D01*
X007821Y014297D01*X007793Y014289D01*X007767Y014275D01*X007744Y014256D01*
X007725Y014233D01*X007711Y014207D01*X007703Y014179D01*X007700Y014150D01*
X007700Y013850D01*G37*G36*X010700Y013850D02*X010703Y013821D01*X010711Y013793D01*
X010725Y013767D01*X010744Y013744D01*X010767Y013725D01*X010793Y013711D01*
X010821Y013703D01*X010850Y013700D01*X011150Y013700D01*X011179Y013703D01*
X011207Y013711D01*X011233Y013725D01*X011256Y013744D01*X011275Y013767D01*
X011289Y013793D01*X011297Y013821D01*X011300Y013850D01*X011300Y014150D01*
X011297Y014179D01*X011289Y014207D01*X011275Y014233D01*X011256Y014256D01*
X011233Y014275D01*X011207Y014289D01*X011179Y014297D01*X011150Y014300D01*
X010850Y014300D01*X010821Y014297D01*X010793Y014289D01*X010767Y014275D01*
X010744Y014256D01*X010725Y014233D01*X010711Y014207D01*X010703Y014179D01*
X010700Y014150D01*X010700Y013850D01*G37*G36*X008700Y011850D02*X008703Y011821D01*
X008711Y011793D01*X008725Y011767D01*X008744Y011744D01*X008767Y011725D01*
X008793Y011711D01*X008821Y011703D01*X008850Y011700D01*X009150Y011700D01*
X009179Y011703D01*X009207Y011711D01*X009233Y011725D01*X009256Y011744D01*
X009275Y011767D01*X009289Y011793D01*X009297Y011821D01*X009300Y011850D01*
X009300Y012150D01*X009297Y012179D01*X009289Y012207D01*X009275Y012233D01*
X009256Y012256D01*X009233Y012275D01*X009207Y012289D01*X009179Y012297D01*
X009150Y012300D01*X008850Y012300D01*X008821Y012297D01*X008793Y012289D01*
X008767Y012275D01*X008744Y012256D01*X008725Y012233D01*X008711Y012207D01*
X008703Y012179D01*X008700Y012150D01*X008700Y011850D01*G37*G36*X011700Y013850D02*
X011703Y013821D01*X011711Y013793D01*X011725Y013767D01*X011744Y013744D01*
X011767Y013725D01*X011793Y013711D01*X011821Y013703D01*X011850Y013700D01*
X012150Y013700D01*X012179Y013703D01*X012207Y013711D01*X012233Y013725D01*
X012256Y013744D01*X012275Y013767D01*X012289Y013793D01*X012297Y013821D01*
X012300Y013850D01*X012300Y014150D01*X012297Y014179D01*X012289Y014207D01*
X012275Y014233D01*X012256Y014256D01*X012233Y014275D01*X012207Y014289D01*
X012179Y014297D01*X012150Y014300D01*X011850Y014300D01*X011821Y014297D01*
X011793Y014289D01*X011767Y014275D01*X011744Y014256D01*X011725Y014233D01*
X011711Y014207D01*X011703Y014179D01*X011700Y014150D01*X011700Y013850D01*G37*G36*
X016700Y014850D02*X016703Y014821D01*X016711Y014793D01*X016725Y014767D01*
X016744Y014744D01*X016767Y014725D01*X016793Y014711D01*X016821Y014703D01*
X016850Y014700D01*X017150Y014700D01*X017179Y014703D01*X017207Y014711D01*
X017233Y014725D01*X017256Y014744D01*X017275Y014767D01*X017289Y014793D01*
X017297Y014821D01*X017300Y014850D01*X017300Y015150D01*X017297Y015179D01*
X017289Y015207D01*X017275Y015233D01*X017256Y015256D01*X017233Y015275D01*
X017207Y015289D01*X017179Y015297D01*X017150Y015300D01*X016850Y015300D01*
X016821Y015297D01*X016793Y015289D01*X016767Y015275D01*X016744Y015256D01*
X016725Y015233D01*X016711Y015207D01*X016703Y015179D01*X016700Y015150D01*
X016700Y014850D01*G37*G36*X021700Y014850D02*X021703Y014821D01*X021711Y014793D01*
X021725Y014767D01*X021744Y014744D01*X021767Y014725D01*X021793Y014711D01*
X021821Y014703D01*X021850Y014700D01*X022150Y014700D01*X022179Y014703D01*
X022207Y014711D01*X022233Y014725D01*X022256Y014744D01*X022275Y014767D01*
X022289Y014793D01*X022297Y014821D01*X022300Y014850D01*X022300Y015150D01*
X022297Y015179D01*X022289Y015207D01*X022275Y015233D01*X022256Y015256D01*
X022233Y015275D01*X022207Y015289D01*X022179Y015297D01*X022150Y015300D01*
X021850Y015300D01*X021821Y015297D01*X021793Y015289D01*X021767Y015275D01*
X021744Y015256D01*X021725Y015233D01*X021711Y015207D01*X021703Y015179D01*
X021700Y015150D01*X021700Y014850D01*G37*G36*X020700Y014850D02*X020703Y014821D01*
X020711Y014793D01*X020725Y014767D01*X020744Y014744D01*X020767Y014725D01*
X020793Y014711D01*X020821Y014703D01*X020850Y014700D01*X021150Y014700D01*
X021179Y014703D01*X021207Y014711D01*X021233Y014725D01*X021256Y014744D01*
X021275Y014767D01*X021289Y014793D01*X021297Y014821D01*X021300Y014850D01*
X021300Y015150D01*X021297Y015179D01*X021289Y015207D01*X021275Y015233D01*
X021256Y015256D01*X021233Y015275D01*X021207Y015289D01*X021179Y015297D01*
X021150Y015300D01*X020850Y015300D01*X020821Y015297D01*X020793Y015289D01*
X020767Y015275D01*X020744Y015256D01*X020725Y015233D01*X020711Y015207D01*
X020703Y015179D01*X020700Y015150D01*X020700Y014850D01*G37*G36*X017700Y014850D02*
X017703Y014821D01*X017711Y014793D01*X017725Y014767D01*X017744Y014744D01*
X017767Y014725D01*X017793Y014711D01*X017821Y014703D01*X017850Y014700D01*
X018150Y014700D01*X018179Y014703D01*X018207Y014711D01*X018233Y014725D01*
X018256Y014744D01*X018275Y014767D01*X018289Y014793D01*X018297Y014821D01*
X018300Y014850D01*X018300Y015150D01*X018297Y015179D01*X018289Y015207D01*
X018275Y015233D01*X018256Y015256D01*X018233Y015275D01*X018207Y015289D01*
X018179Y015297D01*X018150Y015300D01*X017850Y015300D01*X017821Y015297D01*
X017793Y015289D01*X017767Y015275D01*X017744Y015256D01*X017725Y015233D01*
X017711Y015207D01*X017703Y015179D01*X017700Y015150D01*X017700Y014850D01*G37*G36*
X026700Y013850D02*X026703Y013821D01*X026711Y013793D01*X026725Y013767D01*
X026744Y013744D01*X026767Y013725D01*X026793Y013711D01*X026821Y013703D01*
X026850Y013700D01*X027150Y013700D01*X027179Y013703D01*X027207Y013711D01*
X027233Y013725D01*X027256Y013744D01*X027275Y013767D01*X027289Y013793D01*
X027297Y013821D01*X027300Y013850D01*X027300Y014150D01*X027297Y014179D01*
X027289Y014207D01*X027275Y014233D01*X027256Y014256D01*X027233Y014275D01*
X027207Y014289D01*X027179Y014297D01*X027150Y014300D01*X026850Y014300D01*
X026821Y014297D01*X026793Y014289D01*X026767Y014275D01*X026744Y014256D01*
X026725Y014233D01*X026711Y014207D01*X026703Y014179D01*X026700Y014150D01*
X026700Y013850D01*G37*G36*X026700Y012850D02*X026703Y012821D01*X026711Y012793D01*
X026725Y012767D01*X026744Y012744D01*X026767Y012725D01*X026793Y012711D01*
X026821Y012703D01*X026850Y012700D01*X027150Y012700D01*X027179Y012703D01*
X027207Y012711D01*X027233Y012725D01*X027256Y012744D01*X027275Y012767D01*
X027289Y012793D01*X027297Y012821D01*X027300Y012850D01*X027300Y013150D01*
X027297Y013179D01*X027289Y013207D01*X027275Y013233D01*X027256Y013256D01*
X027233Y013275D01*X027207Y013289D01*X027179Y013297D01*X027150Y013300D01*
X026850Y013300D01*X026821Y013297D01*X026793Y013289D01*X026767Y013275D01*
X026744Y013256D01*X026725Y013233D01*X026711Y013207D01*X026703Y013179D01*
X026700Y013150D01*X026700Y012850D01*
G37*G36*X027700Y013850D02*X027703Y013821D01*
X027711Y013793D01*X027725Y013767D01*X027744Y013744D01*X027767Y013725D01*
X027793Y013711D01*X027821Y013703D01*X027850Y013700D01*X028150Y013700D01*
X028179Y013703D01*X028207Y013711D01*X028233Y013725D01*X028256Y013744D01*
X028275Y013767D01*X028289Y013793D01*X028297Y013821D01*X028300Y013850D01*
X028300Y014150D01*X028297Y014179D01*X028289Y014207D01*X028275Y014233D01*
X028256Y014256D01*X028233Y014275D01*X028207Y014289D01*X028179Y014297D01*
X028150Y014300D01*X027850Y014300D01*X027821Y014297D01*X027793Y014289D01*
X027767Y014275D01*X027744Y014256D01*X027725Y014233D01*X027711Y014207D01*
X027703Y014179D01*X027700Y014150D01*X027700Y013850D01*G37*G36*X027700Y012850D02*
X027703Y012821D01*X027711Y012793D01*X027725Y012767D01*X027744Y012744D01*
X027767Y012725D01*X027793Y012711D01*X027821Y012703D01*X027850Y012700D01*
X028150Y012700D01*X028179Y012703D01*X028207Y012711D01*X028233Y012725D01*
X028256Y012744D01*X028275Y012767D01*X028289Y012793D01*X028297Y012821D01*
X028300Y012850D01*X028300Y013150D01*X028297Y013179D01*X028289Y013207D01*
X028275Y013233D01*X028256Y013256D01*X028233Y013275D01*X028207Y013289D01*
X028179Y013297D01*X028150Y013300D01*X027850Y013300D01*X027821Y013297D01*
X027793Y013289D01*X027767Y013275D01*X027744Y013256D01*X027725Y013233D01*
X027711Y013207D01*X027703Y013179D01*X027700Y013150D01*X027700Y012850D01*G37*G36*
X035700Y014850D02*X035703Y014821D01*X035711Y014793D01*X035725Y014767D01*
X035744Y014744D01*X035767Y014725D01*X035793Y014711D01*X035821Y014703D01*
X035850Y014700D01*X036150Y014700D01*X036179Y014703D01*X036207Y014711D01*
X036233Y014725D01*X036256Y014744D01*X036275Y014767D01*X036289Y014793D01*
X036297Y014821D01*X036300Y014850D01*X036300Y015150D01*X036297Y015179D01*
X036289Y015207D01*X036275Y015233D01*X036256Y015256D01*X036233Y015275D01*
X036207Y015289D01*X036179Y015297D01*X036150Y015300D01*X035850Y015300D01*
X035821Y015297D01*X035793Y015289D01*X035767Y015275D01*X035744Y015256D01*
X035725Y015233D01*X035711Y015207D01*X035703Y015179D01*X035700Y015150D01*
X035700Y014850D01*G37*G36*X034700Y012850D02*X034703Y012821D01*X034711Y012793D01*
X034725Y012767D01*X034744Y012744D01*X034767Y012725D01*X034793Y012711D01*
X034821Y012703D01*X034850Y012700D01*X035150Y012700D01*X035179Y012703D01*
X035207Y012711D01*X035233Y012725D01*X035256Y012744D01*X035275Y012767D01*
X035289Y012793D01*X035297Y012821D01*X035300Y012850D01*X035300Y013150D01*
X035297Y013179D01*X035289Y013207D01*X035275Y013233D01*X035256Y013256D01*
X035233Y013275D01*X035207Y013289D01*X035179Y013297D01*X035150Y013300D01*
X034850Y013300D01*X034821Y013297D01*X034793Y013289D01*X034767Y013275D01*
X034744Y013256D01*X034725Y013233D01*X034711Y013207D01*X034703Y013179D01*
X034700Y013150D01*X034700Y012850D01*G37*G36*X034700Y011850D02*X034703Y011821D01*
X034711Y011793D01*X034725Y011767D01*X034744Y011744D01*X034767Y011725D01*
X034793Y011711D01*X034821Y011703D01*X034850Y011700D01*X035150Y011700D01*
X035179Y011703D01*X035207Y011711D01*X035233Y011725D01*X035256Y011744D01*
X035275Y011767D01*X035289Y011793D01*X035297Y011821D01*X035300Y011850D01*
X035300Y012150D01*X035297Y012179D01*X035289Y012207D01*X035275Y012233D01*
X035256Y012256D01*X035233Y012275D01*X035207Y012289D01*X035179Y012297D01*
X035150Y012300D01*X034850Y012300D01*X034821Y012297D01*X034793Y012289D01*
X034767Y012275D01*X034744Y012256D01*X034725Y012233D01*X034711Y012207D01*
X034703Y012179D01*X034700Y012150D01*X034700Y011850D01*G37*G36*X039700Y011850D02*
X039703Y011821D01*X039711Y011793D01*X039725Y011767D01*X039744Y011744D01*
X039767Y011725D01*X039793Y011711D01*X039821Y011703D01*X039850Y011700D01*
X040150Y011700D01*X040179Y011703D01*X040207Y011711D01*X040233Y011725D01*
X040256Y011744D01*X040275Y011767D01*X040289Y011793D01*X040297Y011821D01*
X040300Y011850D01*X040300Y012150D01*X040297Y012179D01*X040289Y012207D01*
X040275Y012233D01*X040256Y012256D01*X040233Y012275D01*X040207Y012289D01*
X040179Y012297D01*X040150Y012300D01*X039850Y012300D01*X039821Y012297D01*
X039793Y012289D01*X039767Y012275D01*X039744Y012256D01*X039725Y012233D01*
X039711Y012207D01*X039703Y012179D01*X039700Y012150D01*X039700Y011850D01*G37*G36*
X039700Y012850D02*X039703Y012821D01*X039711Y012793D01*X039725Y012767D01*
X039744Y012744D01*X039767Y012725D01*X039793Y012711D01*X039821Y012703D01*
X039850Y012700D01*X040150Y012700D01*X040179Y012703D01*X040207Y012711D01*
X040233Y012725D01*X040256Y012744D01*X040275Y012767D01*X040289Y012793D01*
X040297Y012821D01*X040300Y012850D01*X040300Y013150D01*X040297Y013179D01*
X040289Y013207D01*X040275Y013233D01*X040256Y013256D01*X040233Y013275D01*
X040207Y013289D01*X040179Y013297D01*X040150Y013300D01*X039850Y013300D01*
X039821Y013297D01*X039793Y013289D01*X039767Y013275D01*X039744Y013256D01*
X039725Y013233D01*X039711Y013207D01*X039703Y013179D01*X039700Y013150D01*
X039700Y012850D01*G37*G36*X007700Y016850D02*X007703Y016821D01*X007711Y016793D01*
X007725Y016767D01*X007744Y016744D01*X007767Y016725D01*X007793Y016711D01*
X007821Y016703D01*X007850Y016700D01*X008150Y016700D01*X008179Y016703D01*
X008207Y016711D01*X008233Y016725D01*X008256Y016744D01*X008275Y016767D01*
X008289Y016793D01*X008297Y016821D01*X008300Y016850D01*X008300Y017150D01*
X008297Y017179D01*X008289Y017207D01*X008275Y017233D01*X008256Y017256D01*
X008233Y017275D01*X008207Y017289D01*X008179Y017297D01*X008150Y017300D01*
X007850Y017300D01*X007821Y017297D01*X007793Y017289D01*X007767Y017275D01*
X007744Y017256D01*X007725Y017233D01*X007711Y017207D01*X007703Y017179D01*
X007700Y017150D01*X007700Y016850D01*G37*G36*X007700Y017850D02*X007703Y017821D01*
X007711Y017793D01*X007725Y017767D01*X007744Y017744D01*X007767Y017725D01*
X007793Y017711D01*X007821Y017703D01*X007850Y017700D01*X008150Y017700D01*
X008179Y017703D01*X008207Y017711D01*X008233Y017725D01*X008256Y017744D01*
X008275Y017767D01*X008289Y017793D01*X008297Y017821D01*X008300Y017850D01*
X008300Y018150D01*X008297Y018179D01*X008289Y018207D01*X008275Y018233D01*
X008256Y018256D01*X008233Y018275D01*X008207Y018289D01*X008179Y018297D01*
X008150Y018300D01*X007850Y018300D01*X007821Y018297D01*X007793Y018289D01*
X007767Y018275D01*X007744Y018256D01*X007725Y018233D01*X007711Y018207D01*
X007703Y018179D01*X007700Y018150D01*X007700Y017850D01*G37*G36*X006700Y015850D02*
X006703Y015821D01*X006711Y015793D01*X006725Y015767D01*X006744Y015744D01*
X006767Y015725D01*X006793Y015711D01*X006821Y015703D01*X006850Y015700D01*
X007150Y015700D01*X007179Y015703D01*X007207Y015711D01*X007233Y015725D01*
X007256Y015744D01*X007275Y015767D01*X007289Y015793D01*X007297Y015821D01*
X007300Y015850D01*X007300Y016150D01*X007297Y016179D01*X007289Y016207D01*
X007275Y016233D01*X007256Y016256D01*X007233Y016275D01*X007207Y016289D01*
X007179Y016297D01*X007150Y016300D01*X006850Y016300D01*X006821Y016297D01*
X006793Y016289D01*X006767Y016275D01*X006744Y016256D01*X006725Y016233D01*
X006711Y016207D01*X006703Y016179D01*X006700Y016150D01*X006700Y015850D01*
G37*G36*
X007700Y015850D02*X007703Y015821D01*X007711Y015793D01*X007725Y015767D01*
X007744Y015744D01*X007767Y015725D01*X007793Y015711D01*X007821Y015703D01*
X007850Y015700D01*X008150Y015700D01*X008179Y015703D01*X008207Y015711D01*
X008233Y015725D01*X008256Y015744D01*X008275Y015767D01*X008289Y015793D01*
X008297Y015821D01*X008300Y015850D01*X008300Y016150D01*X008297Y016179D01*
X008289Y016207D01*X008275Y016233D01*X008256Y016256D01*X008233Y016275D01*
X008207Y016289D01*X008179Y016297D01*X008150Y016300D01*X007850Y016300D01*
X007821Y016297D01*X007793Y016289D01*X007767Y016275D01*X007744Y016256D01*
X007725Y016233D01*X007711Y016207D01*X007703Y016179D01*X007700Y016150D01*
X007700Y015850D01*G37*G36*X032700Y016850D02*X032703Y016821D01*X032711Y016793D01*
X032725Y016767D01*X032744Y016744D01*X032767Y016725D01*X032793Y016711D01*
X032821Y016703D01*X032850Y016700D01*X033150Y016700D01*X033179Y016703D01*
X033207Y016711D01*X033233Y016725D01*X033256Y016744D01*X033275Y016767D01*
X033289Y016793D01*X033297Y016821D01*X033300Y016850D01*X033300Y017150D01*
X033297Y017179D01*X033289Y017207D01*X033275Y017233D01*X033256Y017256D01*
X033233Y017275D01*X033207Y017289D01*X033179Y017297D01*X033150Y017300D01*
X032850Y017300D01*X032821Y017297D01*X032793Y017289D01*X032767Y017275D01*
X032744Y017256D01*X032725Y017233D01*X032711Y017207D01*X032703Y017179D01*
X032700Y017150D01*X032700Y016850D01*G37*G36*X033700Y016850D02*X033703Y016821D01*
X033711Y016793D01*X033725Y016767D01*X033744Y016744D01*X033767Y016725D01*
X033793Y016711D01*X033821Y016703D01*X033850Y016700D01*X034150Y016700D01*
X034179Y016703D01*X034207Y016711D01*X034233Y016725D01*X034256Y016744D01*
X034275Y016767D01*X034289Y016793D01*X034297Y016821D01*X034300Y016850D01*
X034300Y017150D01*X034297Y017179D01*X034289Y017207D01*X034275Y017233D01*
X034256Y017256D01*X034233Y017275D01*X034207Y017289D01*X034179Y017297D01*
X034150Y017300D01*X033850Y017300D01*X033821Y017297D01*X033793Y017289D01*
X033767Y017275D01*X033744Y017256D01*X033725Y017233D01*X033711Y017207D01*
X033703Y017179D01*X033700Y017150D01*X033700Y016850D01*G37*G36*X035700Y015850D02*
X035703Y015821D01*X035711Y015793D01*X035725Y015767D01*X035744Y015744D01*
X035767Y015725D01*X035793Y015711D01*X035821Y015703D01*X035850Y015700D01*
X036150Y015700D01*X036179Y015703D01*X036207Y015711D01*X036233Y015725D01*
X036256Y015744D01*X036275Y015767D01*X036289Y015793D01*X036297Y015821D01*
X036300Y015850D01*X036300Y016150D01*X036297Y016179D01*X036289Y016207D01*
X036275Y016233D01*X036256Y016256D01*X036233Y016275D01*X036207Y016289D01*
X036179Y016297D01*X036150Y016300D01*X035850Y016300D01*X035821Y016297D01*
X035793Y016289D01*X035767Y016275D01*X035744Y016256D01*X035725Y016233D01*
X035711Y016207D01*X035703Y016179D01*X035700Y016150D01*X035700Y015850D01*G37*G36*
X038700Y016850D02*X038703Y016821D01*X038711Y016793D01*X038725Y016767D01*
X038744Y016744D01*X038767Y016725D01*X038793Y016711D01*X038821Y016703D01*
X038850Y016700D01*X039150Y016700D01*X039179Y016703D01*X039207Y016711D01*
X039233Y016725D01*X039256Y016744D01*X039275Y016767D01*X039289Y016793D01*
X039297Y016821D01*X039300Y016850D01*X039300Y017150D01*X039297Y017179D01*
X039289Y017207D01*X039275Y017233D01*X039256Y017256D01*X039233Y017275D01*
X039207Y017289D01*X039179Y017297D01*X039150Y017300D01*X038850Y017300D01*
X038821Y017297D01*X038793Y017289D01*X038767Y017275D01*X038744Y017256D01*
X038725Y017233D01*X038711Y017207D01*X038703Y017179D01*X038700Y017150D01*
X038700Y016850D01*G37*G36*X038700Y015850D02*X038703Y015821D01*X038711Y015793D01*
X038725Y015767D01*X038744Y015744D01*X038767Y015725D01*X038793Y015711D01*
X038821Y015703D01*X038850Y015700D01*X039150Y015700D01*X039179Y015703D01*
X039207Y015711D01*X039233Y015725D01*X039256Y015744D01*X039275Y015767D01*
X039289Y015793D01*X039297Y015821D01*X039300Y015850D01*X039300Y016150D01*
X039297Y016179D01*X039289Y016207D01*X039275Y016233D01*X039256Y016256D01*
X039233Y016275D01*X039207Y016289D01*X039179Y016297D01*X039150Y016300D01*
X038850Y016300D01*X038821Y016297D01*X038793Y016289D01*X038767Y016275D01*
X038744Y016256D01*X038725Y016233D01*X038711Y016207D01*X038703Y016179D01*
X038700Y016150D01*X038700Y015850D01*G37*G36*X040700Y019100D02*X040703Y019071D01*
X040711Y019043D01*X040725Y019017D01*X040744Y018994D01*X040767Y018975D01*
X040793Y018961D01*X040821Y018953D01*X040850Y018950D01*X041150Y018950D01*
X041179Y018953D01*X041207Y018961D01*X041233Y018975D01*X041256Y018994D01*
X041275Y019017D01*X041289Y019043D01*X041297Y019071D01*X041300Y019100D01*
X041300Y019400D01*X041297Y019429D01*X041289Y019457D01*X041275Y019483D01*
X041256Y019506D01*X041233Y019525D01*X041207Y019539D01*X041179Y019547D01*
X041150Y019550D01*X040850Y019550D01*X040821Y019547D01*X040793Y019539D01*
X040767Y019525D01*X040744Y019506D01*X040725Y019483D01*X040711Y019457D01*
X040703Y019429D01*X040700Y019400D01*X040700Y019100D01*G37*G36*X040700Y018100D02*
X040703Y018071D01*X040711Y018043D01*X040725Y018017D01*X040744Y017994D01*
X040767Y017975D01*X040793Y017961D01*X040821Y017953D01*X040850Y017950D01*
X041150Y017950D01*X041179Y017953D01*X041207Y017961D01*X041233Y017975D01*
X041256Y017994D01*X041275Y018017D01*X041289Y018043D01*X041297Y018071D01*
X041300Y018100D01*X041300Y018400D01*X041297Y018429D01*X041289Y018457D01*
X041275Y018483D01*X041256Y018506D01*X041233Y018525D01*X041207Y018539D01*
X041179Y018547D01*X041150Y018550D01*X040850Y018550D01*X040821Y018547D01*
X040793Y018539D01*X040767Y018525D01*X040744Y018506D01*X040725Y018483D01*
X040711Y018457D01*X040703Y018429D01*X040700Y018400D01*X040700Y018100D01*G37*G36*
X039700Y016850D02*X039703Y016821D01*X039711Y016793D01*X039725Y016767D01*
X039744Y016744D01*X039767Y016725D01*X039793Y016711D01*X039821Y016703D01*
X039850Y016700D01*X040150Y016700D01*X040179Y016703D01*X040207Y016711D01*
X040233Y016725D01*X040256Y016744D01*X040275Y016767D01*X040289Y016793D01*
X040297Y016821D01*X040300Y016850D01*X040300Y017150D01*X040297Y017179D01*
X040289Y017207D01*X040275Y017233D01*X040256Y017256D01*X040233Y017275D01*
X040207Y017289D01*X040179Y017297D01*X040150Y017300D01*X039850Y017300D01*
X039821Y017297D01*X039793Y017289D01*X039767Y017275D01*X039744Y017256D01*
X039725Y017233D01*X039711Y017207D01*X039703Y017179D01*X039700Y017150D01*
X039700Y016850D01*G37*G36*X039700Y015850D02*X039703Y015821D01*X039711Y015793D01*
X039725Y015767D01*X039744Y015744D01*X039767Y015725D01*X039793Y015711D01*
X039821Y015703D01*X039850Y015700D01*X040150Y015700D01*X040179Y015703D01*
X040207Y015711D01*X040233Y015725D01*X040256Y015744D01*X040275Y015767D01*
X040289Y015793D01*X040297Y015821D01*X040300Y015850D01*X040300Y016150D01*
X040297Y016179D01*X040289Y016207D01*X040275Y016233D01*X040256Y016256D01*
X040233Y016275D01*X040207Y016289D01*X040179Y016297D01*X040150Y016300D01*
X039850Y016300D01*X039821Y016297D01*X039793Y016289D01*X039767Y016275D01*
X039744Y016256D01*X039725Y016233D01*X039711Y016207D01*X039703Y016179D01*
X039700Y016150D01*X039700Y015850D01*
G37*G36*X041700Y019100D02*X041703Y019071D01*
X041711Y019043D01*X041725Y019017D01*X041744Y018994D01*X041767Y018975D01*
X041793Y018961D01*X041821Y018953D01*X041850Y018950D01*X042150Y018950D01*
X042179Y018953D01*X042207Y018961D01*X042233Y018975D01*X042256Y018994D01*
X042275Y019017D01*X042289Y019043D01*X042297Y019071D01*X042300Y019100D01*
X042300Y019400D01*X042297Y019429D01*X042289Y019457D01*X042275Y019483D01*
X042256Y019506D01*X042233Y019525D01*X042207Y019539D01*X042179Y019547D01*
X042150Y019550D01*X041850Y019550D01*X041821Y019547D01*X041793Y019539D01*
X041767Y019525D01*X041744Y019506D01*X041725Y019483D01*X041711Y019457D01*
X041703Y019429D01*X041700Y019400D01*X041700Y019100D01*G37*G36*X046700Y019600D02*
X046703Y019571D01*X046711Y019543D01*X046725Y019517D01*X046744Y019494D01*
X046767Y019475D01*X046793Y019461D01*X046821Y019453D01*X046850Y019450D01*
X047150Y019450D01*X047179Y019453D01*X047207Y019461D01*X047233Y019475D01*
X047256Y019494D01*X047275Y019517D01*X047289Y019543D01*X047297Y019571D01*
X047300Y019600D01*X047300Y019900D01*X047297Y019929D01*X047289Y019957D01*
X047275Y019983D01*X047256Y020006D01*X047233Y020025D01*X047207Y020039D01*
X047179Y020047D01*X047150Y020050D01*X046850Y020050D01*X046821Y020047D01*
X046793Y020039D01*X046767Y020025D01*X046744Y020006D01*X046725Y019983D01*
X046711Y019957D01*X046703Y019929D01*X046700Y019900D01*X046700Y019600D01*G37*G36*
X043700Y019600D02*X043703Y019571D01*X043711Y019543D01*X043725Y019517D01*
X043744Y019494D01*X043767Y019475D01*X043793Y019461D01*X043821Y019453D01*
X043850Y019450D01*X044150Y019450D01*X044179Y019453D01*X044207Y019461D01*
X044233Y019475D01*X044256Y019494D01*X044275Y019517D01*X044289Y019543D01*
X044297Y019571D01*X044300Y019600D01*X044300Y019900D01*X044297Y019929D01*
X044289Y019957D01*X044275Y019983D01*X044256Y020006D01*X044233Y020025D01*
X044207Y020039D01*X044179Y020047D01*X044150Y020050D01*X043850Y020050D01*
X043821Y020047D01*X043793Y020039D01*X043767Y020025D01*X043744Y020006D01*
X043725Y019983D01*X043711Y019957D01*X043703Y019929D01*X043700Y019900D01*
X043700Y019600D01*G37*G36*X042700Y019100D02*X042703Y019071D01*X042711Y019043D01*
X042725Y019017D01*X042744Y018994D01*X042767Y018975D01*X042793Y018961D01*
X042821Y018953D01*X042850Y018950D01*X043150Y018950D01*X043179Y018953D01*
X043207Y018961D01*X043233Y018975D01*X043256Y018994D01*X043275Y019017D01*
X043289Y019043D01*X043297Y019071D01*X043300Y019100D01*X043300Y019400D01*
X043297Y019429D01*X043289Y019457D01*X043275Y019483D01*X043256Y019506D01*
X043233Y019525D01*X043207Y019539D01*X043179Y019547D01*X043150Y019550D01*
X042850Y019550D01*X042821Y019547D01*X042793Y019539D01*X042767Y019525D01*
X042744Y019506D01*X042725Y019483D01*X042711Y019457D01*X042703Y019429D01*
X042700Y019400D01*X042700Y019100D01*G37*G36*X045700Y019600D02*X045703Y019571D01*
X045711Y019543D01*X045725Y019517D01*X045744Y019494D01*X045767Y019475D01*
X045793Y019461D01*X045821Y019453D01*X045850Y019450D01*X046150Y019450D01*
X046179Y019453D01*X046207Y019461D01*X046233Y019475D01*X046256Y019494D01*
X046275Y019517D01*X046289Y019543D01*X046297Y019571D01*X046300Y019600D01*
X046300Y019900D01*X046297Y019929D01*X046289Y019957D01*X046275Y019983D01*
X046256Y020006D01*X046233Y020025D01*X046207Y020039D01*X046179Y020047D01*
X046150Y020050D01*X045850Y020050D01*X045821Y020047D01*X045793Y020039D01*
X045767Y020025D01*X045744Y020006D01*X045725Y019983D01*X045711Y019957D01*
X045703Y019929D01*X045700Y019900D01*X045700Y019600D01*G37*G36*X044700Y019600D02*
X044703Y019571D01*X044711Y019543D01*X044725Y019517D01*X044744Y019494D01*
X044767Y019475D01*X044793Y019461D01*X044821Y019453D01*X044850Y019450D01*
X045150Y019450D01*X045179Y019453D01*X045207Y019461D01*X045233Y019475D01*
X045256Y019494D01*X045275Y019517D01*X045289Y019543D01*X045297Y019571D01*
X045300Y019600D01*X045300Y019900D01*X045297Y019929D01*X045289Y019957D01*
X045275Y019983D01*X045256Y020006D01*X045233Y020025D01*X045207Y020039D01*
X045179Y020047D01*X045150Y020050D01*X044850Y020050D01*X044821Y020047D01*
X044793Y020039D01*X044767Y020025D01*X044744Y020006D01*X044725Y019983D01*
X044711Y019957D01*X044703Y019929D01*X044700Y019900D01*X044700Y019600D01*G37*G36*
X048700Y019600D02*X048703Y019571D01*X048711Y019543D01*X048725Y019517D01*
X048744Y019494D01*X048767Y019475D01*X048793Y019461D01*X048821Y019453D01*
X048850Y019450D01*X049150Y019450D01*X049179Y019453D01*X049207Y019461D01*
X049233Y019475D01*X049256Y019494D01*X049275Y019517D01*X049289Y019543D01*
X049297Y019571D01*X049300Y019600D01*X049300Y019900D01*X049297Y019929D01*
X049289Y019957D01*X049275Y019983D01*X049256Y020006D01*X049233Y020025D01*
X049207Y020039D01*X049179Y020047D01*X049150Y020050D01*X048850Y020050D01*
X048821Y020047D01*X048793Y020039D01*X048767Y020025D01*X048744Y020006D01*
X048725Y019983D01*X048711Y019957D01*X048703Y019929D01*X048700Y019900D01*
X048700Y019600D01*G37*G36*X047700Y019600D02*X047703Y019571D01*X047711Y019543D01*
X047725Y019517D01*X047744Y019494D01*X047767Y019475D01*X047793Y019461D01*
X047821Y019453D01*X047850Y019450D01*X048150Y019450D01*X048179Y019453D01*
X048207Y019461D01*X048233Y019475D01*X048256Y019494D01*X048275Y019517D01*
X048289Y019543D01*X048297Y019571D01*X048300Y019600D01*X048300Y019900D01*
X048297Y019929D01*X048289Y019957D01*X048275Y019983D01*X048256Y020006D01*
X048233Y020025D01*X048207Y020039D01*X048179Y020047D01*X048150Y020050D01*
X047850Y020050D01*X047821Y020047D01*X047793Y020039D01*X047767Y020025D01*
X047744Y020006D01*X047725Y019983D01*X047711Y019957D01*X047703Y019929D01*
X047700Y019900D01*X047700Y019600D01*G37*G36*X049700Y019600D02*X049703Y019571D01*
X049711Y019543D01*X049725Y019517D01*X049744Y019494D01*X049767Y019475D01*
X049793Y019461D01*X049821Y019453D01*X049850Y019450D01*X050150Y019450D01*
X050179Y019453D01*X050207Y019461D01*X050233Y019475D01*X050256Y019494D01*
X050275Y019517D01*X050289Y019543D01*X050297Y019571D01*X050300Y019600D01*
X050300Y019900D01*X050297Y019929D01*X050289Y019957D01*X050275Y019983D01*
X050256Y020006D01*X050233Y020025D01*X050207Y020039D01*X050179Y020047D01*
X050150Y020050D01*X049850Y020050D01*X049821Y020047D01*X049793Y020039D01*
X049767Y020025D01*X049744Y020006D01*X049725Y019983D01*X049711Y019957D01*
X049703Y019929D01*X049700Y019900D01*X049700Y019600D01*G37*G36*X050700Y019600D02*
X050703Y019571D01*X050711Y019543D01*X050725Y019517D01*X050744Y019494D01*
X050767Y019475D01*X050793Y019461D01*X050821Y019453D01*X050850Y019450D01*
X051150Y019450D01*X051179Y019453D01*X051207Y019461D01*X051233Y019475D01*
X051256Y019494D01*X051275Y019517D01*X051289Y019543D01*X051297Y019571D01*
X051300Y019600D01*X051300Y019900D01*X051297Y019929D01*X051289Y019957D01*
X051275Y019983D01*X051256Y020006D01*X051233Y020025D01*X051207Y020039D01*
X051179Y020047D01*X051150Y020050D01*X050850Y020050D01*X050821Y020047D01*
X050793Y020039D01*X050767Y020025D01*X050744Y020006D01*X050725Y019983D01*
X050711Y019957D01*X050703Y019929D01*X050700Y019900D01*X050700Y019600D01*
G37*G36*
X053700Y019600D02*X053703Y019571D01*X053711Y019543D01*X053725Y019517D01*
X053744Y019494D01*X053767Y019475D01*X053793Y019461D01*X053821Y019453D01*
X053850Y019450D01*X054150Y019450D01*X054179Y019453D01*X054207Y019461D01*
X054233Y019475D01*X054256Y019494D01*X054275Y019517D01*X054289Y019543D01*
X054297Y019571D01*X054300Y019600D01*X054300Y019900D01*X054297Y019929D01*
X054289Y019957D01*X054275Y019983D01*X054256Y020006D01*X054233Y020025D01*
X054207Y020039D01*X054179Y020047D01*X054150Y020050D01*X053850Y020050D01*
X053821Y020047D01*X053793Y020039D01*X053767Y020025D01*X053744Y020006D01*
X053725Y019983D01*X053711Y019957D01*X053703Y019929D01*X053700Y019900D01*
X053700Y019600D01*G37*G36*X052700Y019600D02*X052703Y019571D01*X052711Y019543D01*
X052725Y019517D01*X052744Y019494D01*X052767Y019475D01*X052793Y019461D01*
X052821Y019453D01*X052850Y019450D01*X053150Y019450D01*X053179Y019453D01*
X053207Y019461D01*X053233Y019475D01*X053256Y019494D01*X053275Y019517D01*
X053289Y019543D01*X053297Y019571D01*X053300Y019600D01*X053300Y019900D01*
X053297Y019929D01*X053289Y019957D01*X053275Y019983D01*X053256Y020006D01*
X053233Y020025D01*X053207Y020039D01*X053179Y020047D01*X053150Y020050D01*
X052850Y020050D01*X052821Y020047D01*X052793Y020039D01*X052767Y020025D01*
X052744Y020006D01*X052725Y019983D01*X052711Y019957D01*X052703Y019929D01*
X052700Y019900D01*X052700Y019600D01*G37*G36*X051700Y019600D02*X051703Y019571D01*
X051711Y019543D01*X051725Y019517D01*X051744Y019494D01*X051767Y019475D01*
X051793Y019461D01*X051821Y019453D01*X051850Y019450D01*X052150Y019450D01*
X052179Y019453D01*X052207Y019461D01*X052233Y019475D01*X052256Y019494D01*
X052275Y019517D01*X052289Y019543D01*X052297Y019571D01*X052300Y019600D01*
X052300Y019900D01*X052297Y019929D01*X052289Y019957D01*X052275Y019983D01*
X052256Y020006D01*X052233Y020025D01*X052207Y020039D01*X052179Y020047D01*
X052150Y020050D01*X051850Y020050D01*X051821Y020047D01*X051793Y020039D01*
X051767Y020025D01*X051744Y020006D01*X051725Y019983D01*X051711Y019957D01*
X051703Y019929D01*X051700Y019900D01*X051700Y019600D01*G37*G36*X029950Y023975D02*
X029953Y023946D01*X029961Y023918D01*X029975Y023892D01*X029994Y023869D01*
X030017Y023850D01*X030043Y023836D01*X030071Y023828D01*X030100Y023825D01*
X030400Y023825D01*X030429Y023828D01*X030457Y023836D01*X030483Y023850D01*
X030506Y023869D01*X030525Y023892D01*X030539Y023918D01*X030547Y023946D01*
X030550Y023975D01*X030550Y024275D01*X030547Y024304D01*X030539Y024332D01*
X030525Y024358D01*X030506Y024381D01*X030483Y024400D01*X030457Y024414D01*
X030429Y024422D01*X030400Y024425D01*X030100Y024425D01*X030071Y024422D01*
X030043Y024414D01*X030017Y024400D01*X029994Y024381D01*X029975Y024358D01*
X029961Y024332D01*X029953Y024304D01*X029950Y024275D01*X029950Y023975D01*G37*G36*
X029950Y022975D02*X029953Y022946D01*X029961Y022918D01*X029975Y022892D01*
X029994Y022869D01*X030017Y022850D01*X030043Y022836D01*X030071Y022828D01*
X030100Y022825D01*X030400Y022825D01*X030429Y022828D01*X030457Y022836D01*
X030483Y022850D01*X030506Y022869D01*X030525Y022892D01*X030539Y022918D01*
X030547Y022946D01*X030550Y022975D01*X030550Y023275D01*X030547Y023304D01*
X030539Y023332D01*X030525Y023358D01*X030506Y023381D01*X030483Y023400D01*
X030457Y023414D01*X030429Y023422D01*X030400Y023425D01*X030100Y023425D01*
X030071Y023422D01*X030043Y023414D01*X030017Y023400D01*X029994Y023381D01*
X029975Y023358D01*X029961Y023332D01*X029953Y023304D01*X029950Y023275D01*
X029950Y022975D01*G37*G36*X028700Y020850D02*X028703Y020821D01*X028711Y020793D01*
X028725Y020767D01*X028744Y020744D01*X028767Y020725D01*X028793Y020711D01*
X028821Y020703D01*X028850Y020700D01*X029150Y020700D01*X029179Y020703D01*
X029207Y020711D01*X029233Y020725D01*X029256Y020744D01*X029275Y020767D01*
X029289Y020793D01*X029297Y020821D01*X029300Y020850D01*X029300Y021150D01*
X029297Y021179D01*X029289Y021207D01*X029275Y021233D01*X029256Y021256D01*
X029233Y021275D01*X029207Y021289D01*X029179Y021297D01*X029150Y021300D01*
X028850Y021300D01*X028821Y021297D01*X028793Y021289D01*X028767Y021275D01*
X028744Y021256D01*X028725Y021233D01*X028711Y021207D01*X028703Y021179D01*
X028700Y021150D01*X028700Y020850D01*G37*G36*X029700Y020850D02*X029703Y020821D01*
X029711Y020793D01*X029725Y020767D01*X029744Y020744D01*X029767Y020725D01*
X029793Y020711D01*X029821Y020703D01*X029850Y020700D01*X030150Y020700D01*
X030179Y020703D01*X030207Y020711D01*X030233Y020725D01*X030256Y020744D01*
X030275Y020767D01*X030289Y020793D01*X030297Y020821D01*X030300Y020850D01*
X030300Y021150D01*X030297Y021179D01*X030289Y021207D01*X030275Y021233D01*
X030256Y021256D01*X030233Y021275D01*X030207Y021289D01*X030179Y021297D01*
X030150Y021300D01*X029850Y021300D01*X029821Y021297D01*X029793Y021289D01*
X029767Y021275D01*X029744Y021256D01*X029725Y021233D01*X029711Y021207D01*
X029703Y021179D01*X029700Y021150D01*X029700Y020850D01*G37*G36*X029700Y021850D02*
X029703Y021821D01*X029711Y021793D01*X029725Y021767D01*X029744Y021744D01*
X029767Y021725D01*X029793Y021711D01*X029821Y021703D01*X029850Y021700D01*
X030150Y021700D01*X030179Y021703D01*X030207Y021711D01*X030233Y021725D01*
X030256Y021744D01*X030275Y021767D01*X030289Y021793D01*X030297Y021821D01*
X030300Y021850D01*X030300Y022150D01*X030297Y022179D01*X030289Y022207D01*
X030275Y022233D01*X030256Y022256D01*X030233Y022275D01*X030207Y022289D01*
X030179Y022297D01*X030150Y022300D01*X029850Y022300D01*X029821Y022297D01*
X029793Y022289D01*X029767Y022275D01*X029744Y022256D01*X029725Y022233D01*
X029711Y022207D01*X029703Y022179D01*X029700Y022150D01*X029700Y021850D01*G37*G36*
X028700Y021850D02*X028703Y021821D01*X028711Y021793D01*X028725Y021767D01*
X028744Y021744D01*X028767Y021725D01*X028793Y021711D01*X028821Y021703D01*
X028850Y021700D01*X029150Y021700D01*X029179Y021703D01*X029207Y021711D01*
X029233Y021725D01*X029256Y021744D01*X029275Y021767D01*X029289Y021793D01*
X029297Y021821D01*X029300Y021850D01*X029300Y022150D01*X029297Y022179D01*
X029289Y022207D01*X029275Y022233D01*X029256Y022256D01*X029233Y022275D01*
X029207Y022289D01*X029179Y022297D01*X029150Y022300D01*X028850Y022300D01*
X028821Y022297D01*X028793Y022289D01*X028767Y022275D01*X028744Y022256D01*
X028725Y022233D01*X028711Y022207D01*X028703Y022179D01*X028700Y022150D01*
X028700Y021850D01*G37*G36*X041700Y021100D02*X041703Y021071D01*X041711Y021043D01*
X041725Y021017D01*X041744Y020994D01*X041767Y020975D01*X041793Y020961D01*
X041821Y020953D01*X041850Y020950D01*X042150Y020950D01*X042179Y020953D01*
X042207Y020961D01*X042233Y020975D01*X042256Y020994D01*X042275Y021017D01*
X042289Y021043D01*X042297Y021071D01*X042300Y021100D01*X042300Y021400D01*
X042297Y021429D01*X042289Y021457D01*X042275Y021483D01*X042256Y021506D01*
X042233Y021525D01*X042207Y021539D01*X042179Y021547D01*X042150Y021550D01*
X041850Y021550D01*X041821Y021547D01*X041793Y021539D01*X041767Y021525D01*
X041744Y021506D01*X041725Y021483D01*X041711Y021457D01*X041703Y021429D01*
X041700Y021400D01*X041700Y021100D01*
G37*G36*X041700Y020100D02*X041703Y020071D01*
X041711Y020043D01*X041725Y020017D01*X041744Y019994D01*X041767Y019975D01*
X041793Y019961D01*X041821Y019953D01*X041850Y019950D01*X042150Y019950D01*
X042179Y019953D01*X042207Y019961D01*X042233Y019975D01*X042256Y019994D01*
X042275Y020017D01*X042289Y020043D01*X042297Y020071D01*X042300Y020100D01*
X042300Y020400D01*X042297Y020429D01*X042289Y020457D01*X042275Y020483D01*
X042256Y020506D01*X042233Y020525D01*X042207Y020539D01*X042179Y020547D01*
X042150Y020550D01*X041850Y020550D01*X041821Y020547D01*X041793Y020539D01*
X041767Y020525D01*X041744Y020506D01*X041725Y020483D01*X041711Y020457D01*
X041703Y020429D01*X041700Y020400D01*X041700Y020100D01*G37*G36*X040700Y021100D02*
X040703Y021071D01*X040711Y021043D01*X040725Y021017D01*X040744Y020994D01*
X040767Y020975D01*X040793Y020961D01*X040821Y020953D01*X040850Y020950D01*
X041150Y020950D01*X041179Y020953D01*X041207Y020961D01*X041233Y020975D01*
X041256Y020994D01*X041275Y021017D01*X041289Y021043D01*X041297Y021071D01*
X041300Y021100D01*X041300Y021400D01*X041297Y021429D01*X041289Y021457D01*
X041275Y021483D01*X041256Y021506D01*X041233Y021525D01*X041207Y021539D01*
X041179Y021547D01*X041150Y021550D01*X040850Y021550D01*X040821Y021547D01*
X040793Y021539D01*X040767Y021525D01*X040744Y021506D01*X040725Y021483D01*
X040711Y021457D01*X040703Y021429D01*X040700Y021400D01*X040700Y021100D01*G37*G36*
X040700Y020100D02*X040703Y020071D01*X040711Y020043D01*X040725Y020017D01*
X040744Y019994D01*X040767Y019975D01*X040793Y019961D01*X040821Y019953D01*
X040850Y019950D01*X041150Y019950D01*X041179Y019953D01*X041207Y019961D01*
X041233Y019975D01*X041256Y019994D01*X041275Y020017D01*X041289Y020043D01*
X041297Y020071D01*X041300Y020100D01*X041300Y020400D01*X041297Y020429D01*
X041289Y020457D01*X041275Y020483D01*X041256Y020506D01*X041233Y020525D01*
X041207Y020539D01*X041179Y020547D01*X041150Y020550D01*X040850Y020550D01*
X040821Y020547D01*X040793Y020539D01*X040767Y020525D01*X040744Y020506D01*
X040725Y020483D01*X040711Y020457D01*X040703Y020429D01*X040700Y020400D01*
X040700Y020100D01*G37*G36*X042700Y021100D02*X042703Y021071D01*X042711Y021043D01*
X042725Y021017D01*X042744Y020994D01*X042767Y020975D01*X042793Y020961D01*
X042821Y020953D01*X042850Y020950D01*X043150Y020950D01*X043179Y020953D01*
X043207Y020961D01*X043233Y020975D01*X043256Y020994D01*X043275Y021017D01*
X043289Y021043D01*X043297Y021071D01*X043300Y021100D01*X043300Y021400D01*
X043297Y021429D01*X043289Y021457D01*X043275Y021483D01*X043256Y021506D01*
X043233Y021525D01*X043207Y021539D01*X043179Y021547D01*X043150Y021550D01*
X042850Y021550D01*X042821Y021547D01*X042793Y021539D01*X042767Y021525D01*
X042744Y021506D01*X042725Y021483D01*X042711Y021457D01*X042703Y021429D01*
X042700Y021400D01*X042700Y021100D01*G37*G36*X042700Y020100D02*X042703Y020071D01*
X042711Y020043D01*X042725Y020017D01*X042744Y019994D01*X042767Y019975D01*
X042793Y019961D01*X042821Y019953D01*X042850Y019950D01*X043150Y019950D01*
X043179Y019953D01*X043207Y019961D01*X043233Y019975D01*X043256Y019994D01*
X043275Y020017D01*X043289Y020043D01*X043297Y020071D01*X043300Y020100D01*
X043300Y020400D01*X043297Y020429D01*X043289Y020457D01*X043275Y020483D01*
X043256Y020506D01*X043233Y020525D01*X043207Y020539D01*X043179Y020547D01*
X043150Y020550D01*X042850Y020550D01*X042821Y020547D01*X042793Y020539D01*
X042767Y020525D01*X042744Y020506D01*X042725Y020483D01*X042711Y020457D01*
X042703Y020429D01*X042700Y020400D01*X042700Y020100D01*G37*G36*X046700Y020600D02*
X046703Y020571D01*X046711Y020543D01*X046725Y020517D01*X046744Y020494D01*
X046767Y020475D01*X046793Y020461D01*X046821Y020453D01*X046850Y020450D01*
X047150Y020450D01*X047179Y020453D01*X047207Y020461D01*X047233Y020475D01*
X047256Y020494D01*X047275Y020517D01*X047289Y020543D01*X047297Y020571D01*
X047300Y020600D01*X047300Y020900D01*X047297Y020929D01*X047289Y020957D01*
X047275Y020983D01*X047256Y021006D01*X047233Y021025D01*X047207Y021039D01*
X047179Y021047D01*X047150Y021050D01*X046850Y021050D01*X046821Y021047D01*
X046793Y021039D01*X046767Y021025D01*X046744Y021006D01*X046725Y020983D01*
X046711Y020957D01*X046703Y020929D01*X046700Y020900D01*X046700Y020600D01*G37*G36*
X042700Y022850D02*X042703Y022821D01*X042711Y022793D01*X042725Y022767D01*
X042744Y022744D01*X042767Y022725D01*X042793Y022711D01*X042821Y022703D01*
X042850Y022700D01*X043150Y022700D01*X043179Y022703D01*X043207Y022711D01*
X043233Y022725D01*X043256Y022744D01*X043275Y022767D01*X043289Y022793D01*
X043297Y022821D01*X043300Y022850D01*X043300Y023150D01*X043297Y023179D01*
X043289Y023207D01*X043275Y023233D01*X043256Y023256D01*X043233Y023275D01*
X043207Y023289D01*X043179Y023297D01*X043150Y023300D01*X042850Y023300D01*
X042821Y023297D01*X042793Y023289D01*X042767Y023275D01*X042744Y023256D01*
X042725Y023233D01*X042711Y023207D01*X042703Y023179D01*X042700Y023150D01*
X042700Y022850D01*G37*G36*X042700Y023850D02*X042703Y023821D01*X042711Y023793D01*
X042725Y023767D01*X042744Y023744D01*X042767Y023725D01*X042793Y023711D01*
X042821Y023703D01*X042850Y023700D01*X043150Y023700D01*X043179Y023703D01*
X043207Y023711D01*X043233Y023725D01*X043256Y023744D01*X043275Y023767D01*
X043289Y023793D01*X043297Y023821D01*X043300Y023850D01*X043300Y024150D01*
X043297Y024179D01*X043289Y024207D01*X043275Y024233D01*X043256Y024256D01*
X043233Y024275D01*X043207Y024289D01*X043179Y024297D01*X043150Y024300D01*
X042850Y024300D01*X042821Y024297D01*X042793Y024289D01*X042767Y024275D01*
X042744Y024256D01*X042725Y024233D01*X042711Y024207D01*X042703Y024179D01*
X042700Y024150D01*X042700Y023850D01*G37*G36*X043700Y020600D02*X043703Y020571D01*
X043711Y020543D01*X043725Y020517D01*X043744Y020494D01*X043767Y020475D01*
X043793Y020461D01*X043821Y020453D01*X043850Y020450D01*X044150Y020450D01*
X044179Y020453D01*X044207Y020461D01*X044233Y020475D01*X044256Y020494D01*
X044275Y020517D01*X044289Y020543D01*X044297Y020571D01*X044300Y020600D01*
X044300Y020900D01*X044297Y020929D01*X044289Y020957D01*X044275Y020983D01*
X044256Y021006D01*X044233Y021025D01*X044207Y021039D01*X044179Y021047D01*
X044150Y021050D01*X043850Y021050D01*X043821Y021047D01*X043793Y021039D01*
X043767Y021025D01*X043744Y021006D01*X043725Y020983D01*X043711Y020957D01*
X043703Y020929D01*X043700Y020900D01*X043700Y020600D01*G37*G36*X053700Y020600D02*
X053703Y020571D01*X053711Y020543D01*X053725Y020517D01*X053744Y020494D01*
X053767Y020475D01*X053793Y020461D01*X053821Y020453D01*X053850Y020450D01*
X054150Y020450D01*X054179Y020453D01*X054207Y020461D01*X054233Y020475D01*
X054256Y020494D01*X054275Y020517D01*X054289Y020543D01*X054297Y020571D01*
X054300Y020600D01*X054300Y020900D01*X054297Y020929D01*X054289Y020957D01*
X054275Y020983D01*X054256Y021006D01*X054233Y021025D01*X054207Y021039D01*
X054179Y021047D01*X054150Y021050D01*X053850Y021050D01*X053821Y021047D01*
X053793Y021039D01*X053767Y021025D01*X053744Y021006D01*X053725Y020983D01*
X053711Y020957D01*X053703Y020929D01*X053700Y020900D01*X053700Y020600D01*
G37*G36*
X029700Y025850D02*X029703Y025821D01*X029711Y025793D01*X029725Y025767D01*
X029744Y025744D01*X029767Y025725D01*X029793Y025711D01*X029821Y025703D01*
X029850Y025700D01*X030150Y025700D01*X030179Y025703D01*X030207Y025711D01*
X030233Y025725D01*X030256Y025744D01*X030275Y025767D01*X030289Y025793D01*
X030297Y025821D01*X030300Y025850D01*X030300Y026150D01*X030297Y026179D01*
X030289Y026207D01*X030275Y026233D01*X030256Y026256D01*X030233Y026275D01*
X030207Y026289D01*X030179Y026297D01*X030150Y026300D01*X029850Y026300D01*
X029821Y026297D01*X029793Y026289D01*X029767Y026275D01*X029744Y026256D01*
X029725Y026233D01*X029711Y026207D01*X029703Y026179D01*X029700Y026150D01*
X029700Y025850D01*G37*G36*X028700Y025850D02*X028703Y025821D01*X028711Y025793D01*
X028725Y025767D01*X028744Y025744D01*X028767Y025725D01*X028793Y025711D01*
X028821Y025703D01*X028850Y025700D01*X029150Y025700D01*X029179Y025703D01*
X029207Y025711D01*X029233Y025725D01*X029256Y025744D01*X029275Y025767D01*
X029289Y025793D01*X029297Y025821D01*X029300Y025850D01*X029300Y026150D01*
X029297Y026179D01*X029289Y026207D01*X029275Y026233D01*X029256Y026256D01*
X029233Y026275D01*X029207Y026289D01*X029179Y026297D01*X029150Y026300D01*
X028850Y026300D01*X028821Y026297D01*X028793Y026289D01*X028767Y026275D01*
X028744Y026256D01*X028725Y026233D01*X028711Y026207D01*X028703Y026179D01*
X028700Y026150D01*X028700Y025850D01*G37*G36*X035700Y026850D02*X035703Y026821D01*
X035711Y026793D01*X035725Y026767D01*X035744Y026744D01*X035767Y026725D01*
X035793Y026711D01*X035821Y026703D01*X035850Y026700D01*X036150Y026700D01*
X036179Y026703D01*X036207Y026711D01*X036233Y026725D01*X036256Y026744D01*
X036275Y026767D01*X036289Y026793D01*X036297Y026821D01*X036300Y026850D01*
X036300Y027150D01*X036297Y027179D01*X036289Y027207D01*X036275Y027233D01*
X036256Y027256D01*X036233Y027275D01*X036207Y027289D01*X036179Y027297D01*
X036150Y027300D01*X035850Y027300D01*X035821Y027297D01*X035793Y027289D01*
X035767Y027275D01*X035744Y027256D01*X035725Y027233D01*X035711Y027207D01*
X035703Y027179D01*X035700Y027150D01*X035700Y026850D01*G37*G36*X035700Y025850D02*
X035703Y025821D01*X035711Y025793D01*X035725Y025767D01*X035744Y025744D01*
X035767Y025725D01*X035793Y025711D01*X035821Y025703D01*X035850Y025700D01*
X036150Y025700D01*X036179Y025703D01*X036207Y025711D01*X036233Y025725D01*
X036256Y025744D01*X036275Y025767D01*X036289Y025793D01*X036297Y025821D01*
X036300Y025850D01*X036300Y026150D01*X036297Y026179D01*X036289Y026207D01*
X036275Y026233D01*X036256Y026256D01*X036233Y026275D01*X036207Y026289D01*
X036179Y026297D01*X036150Y026300D01*X035850Y026300D01*X035821Y026297D01*
X035793Y026289D01*X035767Y026275D01*X035744Y026256D01*X035725Y026233D01*
X035711Y026207D01*X035703Y026179D01*X035700Y026150D01*X035700Y025850D01*G37*G36*
X036700Y026850D02*X036703Y026821D01*X036711Y026793D01*X036725Y026767D01*
X036744Y026744D01*X036767Y026725D01*X036793Y026711D01*X036821Y026703D01*
X036850Y026700D01*X037150Y026700D01*X037179Y026703D01*X037207Y026711D01*
X037233Y026725D01*X037256Y026744D01*X037275Y026767D01*X037289Y026793D01*
X037297Y026821D01*X037300Y026850D01*X037300Y027150D01*X037297Y027179D01*
X037289Y027207D01*X037275Y027233D01*X037256Y027256D01*X037233Y027275D01*
X037207Y027289D01*X037179Y027297D01*X037150Y027300D01*X036850Y027300D01*
X036821Y027297D01*X036793Y027289D01*X036767Y027275D01*X036744Y027256D01*
X036725Y027233D01*X036711Y027207D01*X036703Y027179D01*X036700Y027150D01*
X036700Y026850D01*G37*G36*X036700Y025850D02*X036703Y025821D01*X036711Y025793D01*
X036725Y025767D01*X036744Y025744D01*X036767Y025725D01*X036793Y025711D01*
X036821Y025703D01*X036850Y025700D01*X037150Y025700D01*X037179Y025703D01*
X037207Y025711D01*X037233Y025725D01*X037256Y025744D01*X037275Y025767D01*
X037289Y025793D01*X037297Y025821D01*X037300Y025850D01*X037300Y026150D01*
X037297Y026179D01*X037289Y026207D01*X037275Y026233D01*X037256Y026256D01*
X037233Y026275D01*X037207Y026289D01*X037179Y026297D01*X037150Y026300D01*
X036850Y026300D01*X036821Y026297D01*X036793Y026289D01*X036767Y026275D01*
X036744Y026256D01*X036725Y026233D01*X036711Y026207D01*X036703Y026179D01*
X036700Y026150D01*X036700Y025850D01*G37*G36*X038700Y025850D02*X038703Y025821D01*
X038711Y025793D01*X038725Y025767D01*X038744Y025744D01*X038767Y025725D01*
X038793Y025711D01*X038821Y025703D01*X038850Y025700D01*X039150Y025700D01*
X039179Y025703D01*X039207Y025711D01*X039233Y025725D01*X039256Y025744D01*
X039275Y025767D01*X039289Y025793D01*X039297Y025821D01*X039300Y025850D01*
X039300Y026150D01*X039297Y026179D01*X039289Y026207D01*X039275Y026233D01*
X039256Y026256D01*X039233Y026275D01*X039207Y026289D01*X039179Y026297D01*
X039150Y026300D01*X038850Y026300D01*X038821Y026297D01*X038793Y026289D01*
X038767Y026275D01*X038744Y026256D01*X038725Y026233D01*X038711Y026207D01*
X038703Y026179D01*X038700Y026150D01*X038700Y025850D01*G37*G36*X037700Y025850D02*
X037703Y025821D01*X037711Y025793D01*X037725Y025767D01*X037744Y025744D01*
X037767Y025725D01*X037793Y025711D01*X037821Y025703D01*X037850Y025700D01*
X038150Y025700D01*X038179Y025703D01*X038207Y025711D01*X038233Y025725D01*
X038256Y025744D01*X038275Y025767D01*X038289Y025793D01*X038297Y025821D01*
X038300Y025850D01*X038300Y026150D01*X038297Y026179D01*X038289Y026207D01*
X038275Y026233D01*X038256Y026256D01*X038233Y026275D01*X038207Y026289D01*
X038179Y026297D01*X038150Y026300D01*X037850Y026300D01*X037821Y026297D01*
X037793Y026289D01*X037767Y026275D01*X037744Y026256D01*X037725Y026233D01*
X037711Y026207D01*X037703Y026179D01*X037700Y026150D01*X037700Y025850D01*G37*G36*
X038700Y026850D02*X038703Y026821D01*X038711Y026793D01*X038725Y026767D01*
X038744Y026744D01*X038767Y026725D01*X038793Y026711D01*X038821Y026703D01*
X038850Y026700D01*X039150Y026700D01*X039179Y026703D01*X039207Y026711D01*
X039233Y026725D01*X039256Y026744D01*X039275Y026767D01*X039289Y026793D01*
X039297Y026821D01*X039300Y026850D01*X039300Y027150D01*X039297Y027179D01*
X039289Y027207D01*X039275Y027233D01*X039256Y027256D01*X039233Y027275D01*
X039207Y027289D01*X039179Y027297D01*X039150Y027300D01*X038850Y027300D01*
X038821Y027297D01*X038793Y027289D01*X038767Y027275D01*X038744Y027256D01*
X038725Y027233D01*X038711Y027207D01*X038703Y027179D01*X038700Y027150D01*
X038700Y026850D01*G37*G36*X037700Y026850D02*X037703Y026821D01*X037711Y026793D01*
X037725Y026767D01*X037744Y026744D01*X037767Y026725D01*X037793Y026711D01*
X037821Y026703D01*X037850Y026700D01*X038150Y026700D01*X038179Y026703D01*
X038207Y026711D01*X038233Y026725D01*X038256Y026744D01*X038275Y026767D01*
X038289Y026793D01*X038297Y026821D01*X038300Y026850D01*X038300Y027150D01*
X038297Y027179D01*X038289Y027207D01*X038275Y027233D01*X038256Y027256D01*
X038233Y027275D01*X038207Y027289D01*X038179Y027297D01*X038150Y027300D01*
X037850Y027300D01*X037821Y027297D01*X037793Y027289D01*X037767Y027275D01*
X037744Y027256D01*X037725Y027233D01*X037711Y027207D01*X037703Y027179D01*
X037700Y027150D01*X037700Y026850D01*
G37*G36*X042700Y025850D02*X042703Y025821D01*
X042711Y025793D01*X042725Y025767D01*X042744Y025744D01*X042767Y025725D01*
X042793Y025711D01*X042821Y025703D01*X042850Y025700D01*X043150Y025700D01*
X043179Y025703D01*X043207Y025711D01*X043233Y025725D01*X043256Y025744D01*
X043275Y025767D01*X043289Y025793D01*X043297Y025821D01*X043300Y025850D01*
X043300Y026150D01*X043297Y026179D01*X043289Y026207D01*X043275Y026233D01*
X043256Y026256D01*X043233Y026275D01*X043207Y026289D01*X043179Y026297D01*
X043150Y026300D01*X042850Y026300D01*X042821Y026297D01*X042793Y026289D01*
X042767Y026275D01*X042744Y026256D01*X042725Y026233D01*X042711Y026207D01*
X042703Y026179D01*X042700Y026150D01*X042700Y025850D01*G37*G36*X042700Y024850D02*
X042703Y024821D01*X042711Y024793D01*X042725Y024767D01*X042744Y024744D01*
X042767Y024725D01*X042793Y024711D01*X042821Y024703D01*X042850Y024700D01*
X043150Y024700D01*X043179Y024703D01*X043207Y024711D01*X043233Y024725D01*
X043256Y024744D01*X043275Y024767D01*X043289Y024793D01*X043297Y024821D01*
X043300Y024850D01*X043300Y025150D01*X043297Y025179D01*X043289Y025207D01*
X043275Y025233D01*X043256Y025256D01*X043233Y025275D01*X043207Y025289D01*
X043179Y025297D01*X043150Y025300D01*X042850Y025300D01*X042821Y025297D01*
X042793Y025289D01*X042767Y025275D01*X042744Y025256D01*X042725Y025233D01*
X042711Y025207D01*X042703Y025179D01*X042700Y025150D01*X042700Y024850D01*G37*G36*
X037700Y029850D02*X037703Y029821D01*X037711Y029793D01*X037725Y029767D01*
X037744Y029744D01*X037767Y029725D01*X037793Y029711D01*X037821Y029703D01*
X037850Y029700D01*X038150Y029700D01*X038179Y029703D01*X038207Y029711D01*
X038233Y029725D01*X038256Y029744D01*X038275Y029767D01*X038289Y029793D01*
X038297Y029821D01*X038300Y029850D01*X038300Y030150D01*X038297Y030179D01*
X038289Y030207D01*X038275Y030233D01*X038256Y030256D01*X038233Y030275D01*
X038207Y030289D01*X038179Y030297D01*X038150Y030300D01*X037850Y030300D01*
X037821Y030297D01*X037793Y030289D01*X037767Y030275D01*X037744Y030256D01*
X037725Y030233D01*X037711Y030207D01*X037703Y030179D01*X037700Y030150D01*
X037700Y029850D01*G37*G36*X037700Y028850D02*X037703Y028821D01*X037711Y028793D01*
X037725Y028767D01*X037744Y028744D01*X037767Y028725D01*X037793Y028711D01*
X037821Y028703D01*X037850Y028700D01*X038150Y028700D01*X038179Y028703D01*
X038207Y028711D01*X038233Y028725D01*X038256Y028744D01*X038275Y028767D01*
X038289Y028793D01*X038297Y028821D01*X038300Y028850D01*X038300Y029150D01*
X038297Y029179D01*X038289Y029207D01*X038275Y029233D01*X038256Y029256D01*
X038233Y029275D01*X038207Y029289D01*X038179Y029297D01*X038150Y029300D01*
X037850Y029300D01*X037821Y029297D01*X037793Y029289D01*X037767Y029275D01*
X037744Y029256D01*X037725Y029233D01*X037711Y029207D01*X037703Y029179D01*
X037700Y029150D01*X037700Y028850D01*G37*G36*X036700Y031850D02*X036703Y031821D01*
X036711Y031793D01*X036725Y031767D01*X036744Y031744D01*X036767Y031725D01*
X036793Y031711D01*X036821Y031703D01*X036850Y031700D01*X037150Y031700D01*
X037179Y031703D01*X037207Y031711D01*X037233Y031725D01*X037256Y031744D01*
X037275Y031767D01*X037289Y031793D01*X037297Y031821D01*X037300Y031850D01*
X037300Y032150D01*X037297Y032179D01*X037289Y032207D01*X037275Y032233D01*
X037256Y032256D01*X037233Y032275D01*X037207Y032289D01*X037179Y032297D01*
X037150Y032300D01*X036850Y032300D01*X036821Y032297D01*X036793Y032289D01*
X036767Y032275D01*X036744Y032256D01*X036725Y032233D01*X036711Y032207D01*
X036703Y032179D01*X036700Y032150D01*X036700Y031850D01*G37*G36*X036700Y030850D02*
X036703Y030821D01*X036711Y030793D01*X036725Y030767D01*X036744Y030744D01*
X036767Y030725D01*X036793Y030711D01*X036821Y030703D01*X036850Y030700D01*
X037150Y030700D01*X037179Y030703D01*X037207Y030711D01*X037233Y030725D01*
X037256Y030744D01*X037275Y030767D01*X037289Y030793D01*X037297Y030821D01*
X037300Y030850D01*X037300Y031150D01*X037297Y031179D01*X037289Y031207D01*
X037275Y031233D01*X037256Y031256D01*X037233Y031275D01*X037207Y031289D01*
X037179Y031297D01*X037150Y031300D01*X036850Y031300D01*X036821Y031297D01*
X036793Y031289D01*X036767Y031275D01*X036744Y031256D01*X036725Y031233D01*
X036711Y031207D01*X036703Y031179D01*X036700Y031150D01*X036700Y030850D01*G37*G36*
X036700Y029850D02*X036703Y029821D01*X036711Y029793D01*X036725Y029767D01*
X036744Y029744D01*X036767Y029725D01*X036793Y029711D01*X036821Y029703D01*
X036850Y029700D01*X037150Y029700D01*X037179Y029703D01*X037207Y029711D01*
X037233Y029725D01*X037256Y029744D01*X037275Y029767D01*X037289Y029793D01*
X037297Y029821D01*X037300Y029850D01*X037300Y030150D01*X037297Y030179D01*
X037289Y030207D01*X037275Y030233D01*X037256Y030256D01*X037233Y030275D01*
X037207Y030289D01*X037179Y030297D01*X037150Y030300D01*X036850Y030300D01*
X036821Y030297D01*X036793Y030289D01*X036767Y030275D01*X036744Y030256D01*
X036725Y030233D01*X036711Y030207D01*X036703Y030179D01*X036700Y030150D01*
X036700Y029850D01*G37*G36*X036700Y028850D02*X036703Y028821D01*X036711Y028793D01*
X036725Y028767D01*X036744Y028744D01*X036767Y028725D01*X036793Y028711D01*
X036821Y028703D01*X036850Y028700D01*X037150Y028700D01*X037179Y028703D01*
X037207Y028711D01*X037233Y028725D01*X037256Y028744D01*X037275Y028767D01*
X037289Y028793D01*X037297Y028821D01*X037300Y028850D01*X037300Y029150D01*
X037297Y029179D01*X037289Y029207D01*X037275Y029233D01*X037256Y029256D01*
X037233Y029275D01*X037207Y029289D01*X037179Y029297D01*X037150Y029300D01*
X036850Y029300D01*X036821Y029297D01*X036793Y029289D01*X036767Y029275D01*
X036744Y029256D01*X036725Y029233D01*X036711Y029207D01*X036703Y029179D01*
X036700Y029150D01*X036700Y028850D01*G37*G36*X021700Y033850D02*X021703Y033821D01*
X021711Y033793D01*X021725Y033767D01*X021744Y033744D01*X021767Y033725D01*
X021793Y033711D01*X021821Y033703D01*X021850Y033700D01*X022150Y033700D01*
X022179Y033703D01*X022207Y033711D01*X022233Y033725D01*X022256Y033744D01*
X022275Y033767D01*X022289Y033793D01*X022297Y033821D01*X022300Y033850D01*
X022300Y034150D01*X022297Y034179D01*X022289Y034207D01*X022275Y034233D01*
X022256Y034256D01*X022233Y034275D01*X022207Y034289D01*X022179Y034297D01*
X022150Y034300D01*X021850Y034300D01*X021821Y034297D01*X021793Y034289D01*
X021767Y034275D01*X021744Y034256D01*X021725Y034233D01*X021711Y034207D01*
X021703Y034179D01*X021700Y034150D01*X021700Y033850D01*G37*G36*X022700Y033850D02*
X022703Y033821D01*X022711Y033793D01*X022725Y033767D01*X022744Y033744D01*
X022767Y033725D01*X022793Y033711D01*X022821Y033703D01*X022850Y033700D01*
X023150Y033700D01*X023179Y033703D01*X023207Y033711D01*X023233Y033725D01*
X023256Y033744D01*X023275Y033767D01*X023289Y033793D01*X023297Y033821D01*
X023300Y033850D01*X023300Y034150D01*X023297Y034179D01*X023289Y034207D01*
X023275Y034233D01*X023256Y034256D01*X023233Y034275D01*X023207Y034289D01*
X023179Y034297D01*X023150Y034300D01*X022850Y034300D01*X022821Y034297D01*
X022793Y034289D01*X022767Y034275D01*X022744Y034256D01*X022725Y034233D01*
X022711Y034207D01*X022703Y034179D01*X022700Y034150D01*X022700Y033850D01*
G37*G36*
X029700Y033850D02*X029703Y033821D01*X029711Y033793D01*X029725Y033767D01*
X029744Y033744D01*X029767Y033725D01*X029793Y033711D01*X029821Y033703D01*
X029850Y033700D01*X030150Y033700D01*X030179Y033703D01*X030207Y033711D01*
X030233Y033725D01*X030256Y033744D01*X030275Y033767D01*X030289Y033793D01*
X030297Y033821D01*X030300Y033850D01*X030300Y034150D01*X030297Y034179D01*
X030289Y034207D01*X030275Y034233D01*X030256Y034256D01*X030233Y034275D01*
X030207Y034289D01*X030179Y034297D01*X030150Y034300D01*X029850Y034300D01*
X029821Y034297D01*X029793Y034289D01*X029767Y034275D01*X029744Y034256D01*
X029725Y034233D01*X029711Y034207D01*X029703Y034179D01*X029700Y034150D01*
X029700Y033850D01*G37*G36*X029700Y032850D02*X029703Y032821D01*X029711Y032793D01*
X029725Y032767D01*X029744Y032744D01*X029767Y032725D01*X029793Y032711D01*
X029821Y032703D01*X029850Y032700D01*X030150Y032700D01*X030179Y032703D01*
X030207Y032711D01*X030233Y032725D01*X030256Y032744D01*X030275Y032767D01*
X030289Y032793D01*X030297Y032821D01*X030300Y032850D01*X030300Y033150D01*
X030297Y033179D01*X030289Y033207D01*X030275Y033233D01*X030256Y033256D01*
X030233Y033275D01*X030207Y033289D01*X030179Y033297D01*X030150Y033300D01*
X029850Y033300D01*X029821Y033297D01*X029793Y033289D01*X029767Y033275D01*
X029744Y033256D01*X029725Y033233D01*X029711Y033207D01*X029703Y033179D01*
X029700Y033150D01*X029700Y032850D01*G37*G36*X028700Y032850D02*X028703Y032821D01*
X028711Y032793D01*X028725Y032767D01*X028744Y032744D01*X028767Y032725D01*
X028793Y032711D01*X028821Y032703D01*X028850Y032700D01*X029150Y032700D01*
X029179Y032703D01*X029207Y032711D01*X029233Y032725D01*X029256Y032744D01*
X029275Y032767D01*X029289Y032793D01*X029297Y032821D01*X029300Y032850D01*
X029300Y033150D01*X029297Y033179D01*X029289Y033207D01*X029275Y033233D01*
X029256Y033256D01*X029233Y033275D01*X029207Y033289D01*X029179Y033297D01*
X029150Y033300D01*X028850Y033300D01*X028821Y033297D01*X028793Y033289D01*
X028767Y033275D01*X028744Y033256D01*X028725Y033233D01*X028711Y033207D01*
X028703Y033179D01*X028700Y033150D01*X028700Y032850D01*G37*G36*X028700Y033850D02*
X028703Y033821D01*X028711Y033793D01*X028725Y033767D01*X028744Y033744D01*
X028767Y033725D01*X028793Y033711D01*X028821Y033703D01*X028850Y033700D01*
X029150Y033700D01*X029179Y033703D01*X029207Y033711D01*X029233Y033725D01*
X029256Y033744D01*X029275Y033767D01*X029289Y033793D01*X029297Y033821D01*
X029300Y033850D01*X029300Y034150D01*X029297Y034179D01*X029289Y034207D01*
X029275Y034233D01*X029256Y034256D01*X029233Y034275D01*X029207Y034289D01*
X029179Y034297D01*X029150Y034300D01*X028850Y034300D01*X028821Y034297D01*
X028793Y034289D01*X028767Y034275D01*X028744Y034256D01*X028725Y034233D01*
X028711Y034207D01*X028703Y034179D01*X028700Y034150D01*X028700Y033850D01*G37*G36*
X006700Y040850D02*X006703Y040821D01*X006711Y040793D01*X006725Y040767D01*
X006744Y040744D01*X006767Y040725D01*X006793Y040711D01*X006821Y040703D01*
X006850Y040700D01*X007150Y040700D01*X007179Y040703D01*X007207Y040711D01*
X007233Y040725D01*X007256Y040744D01*X007275Y040767D01*X007289Y040793D01*
X007297Y040821D01*X007300Y040850D01*X007300Y041150D01*X007297Y041179D01*
X007289Y041207D01*X007275Y041233D01*X007256Y041256D01*X007233Y041275D01*
X007207Y041289D01*X007179Y041297D01*X007150Y041300D01*X006850Y041300D01*
X006821Y041297D01*X006793Y041289D01*X006767Y041275D01*X006744Y041256D01*
X006725Y041233D01*X006711Y041207D01*X006703Y041179D01*X006700Y041150D01*
X006700Y040850D01*G37*G36*X005700Y040850D02*X005703Y040821D01*X005711Y040793D01*
X005725Y040767D01*X005744Y040744D01*X005767Y040725D01*X005793Y040711D01*
X005821Y040703D01*X005850Y040700D01*X006150Y040700D01*X006179Y040703D01*
X006207Y040711D01*X006233Y040725D01*X006256Y040744D01*X006275Y040767D01*
X006289Y040793D01*X006297Y040821D01*X006300Y040850D01*X006300Y041150D01*
X006297Y041179D01*X006289Y041207D01*X006275Y041233D01*X006256Y041256D01*
X006233Y041275D01*X006207Y041289D01*X006179Y041297D01*X006150Y041300D01*
X005850Y041300D01*X005821Y041297D01*X005793Y041289D01*X005767Y041275D01*
X005744Y041256D01*X005725Y041233D01*X005711Y041207D01*X005703Y041179D01*
X005700Y041150D01*X005700Y040850D01*G37*G36*X020700Y039850D02*X020703Y039821D01*
X020711Y039793D01*X020725Y039767D01*X020744Y039744D01*X020767Y039725D01*
X020793Y039711D01*X020821Y039703D01*X020850Y039700D01*X021150Y039700D01*
X021179Y039703D01*X021207Y039711D01*X021233Y039725D01*X021256Y039744D01*
X021275Y039767D01*X021289Y039793D01*X021297Y039821D01*X021300Y039850D01*
X021300Y040150D01*X021297Y040179D01*X021289Y040207D01*X021275Y040233D01*
X021256Y040256D01*X021233Y040275D01*X021207Y040289D01*X021179Y040297D01*
X021150Y040300D01*X020850Y040300D01*X020821Y040297D01*X020793Y040289D01*
X020767Y040275D01*X020744Y040256D01*X020725Y040233D01*X020711Y040207D01*
X020703Y040179D01*X020700Y040150D01*X020700Y039850D01*G37*G36*X020700Y040850D02*
X020703Y040821D01*X020711Y040793D01*X020725Y040767D01*X020744Y040744D01*
X020767Y040725D01*X020793Y040711D01*X020821Y040703D01*X020850Y040700D01*
X021150Y040700D01*X021179Y040703D01*X021207Y040711D01*X021233Y040725D01*
X021256Y040744D01*X021275Y040767D01*X021289Y040793D01*X021297Y040821D01*
X021300Y040850D01*X021300Y041150D01*X021297Y041179D01*X021289Y041207D01*
X021275Y041233D01*X021256Y041256D01*X021233Y041275D01*X021207Y041289D01*
X021179Y041297D01*X021150Y041300D01*X020850Y041300D01*X020821Y041297D01*
X020793Y041289D01*X020767Y041275D01*X020744Y041256D01*X020725Y041233D01*
X020711Y041207D01*X020703Y041179D01*X020700Y041150D01*X020700Y040850D01*G37*G36*
X029700Y040850D02*X029703Y040821D01*X029711Y040793D01*X029725Y040767D01*
X029744Y040744D01*X029767Y040725D01*X029793Y040711D01*X029821Y040703D01*
X029850Y040700D01*X030150Y040700D01*X030179Y040703D01*X030207Y040711D01*
X030233Y040725D01*X030256Y040744D01*X030275Y040767D01*X030289Y040793D01*
X030297Y040821D01*X030300Y040850D01*X030300Y041150D01*X030297Y041179D01*
X030289Y041207D01*X030275Y041233D01*X030256Y041256D01*X030233Y041275D01*
X030207Y041289D01*X030179Y041297D01*X030150Y041300D01*X029850Y041300D01*
X029821Y041297D01*X029793Y041289D01*X029767Y041275D01*X029744Y041256D01*
X029725Y041233D01*X029711Y041207D01*X029703Y041179D01*X029700Y041150D01*
X029700Y040850D01*G37*G36*X029700Y039850D02*X029703Y039821D01*X029711Y039793D01*
X029725Y039767D01*X029744Y039744D01*X029767Y039725D01*X029793Y039711D01*
X029821Y039703D01*X029850Y039700D01*X030150Y039700D01*X030179Y039703D01*
X030207Y039711D01*X030233Y039725D01*X030256Y039744D01*X030275Y039767D01*
X030289Y039793D01*X030297Y039821D01*X030300Y039850D01*X030300Y040150D01*
X030297Y040179D01*X030289Y040207D01*X030275Y040233D01*X030256Y040256D01*
X030233Y040275D01*X030207Y040289D01*X030179Y040297D01*X030150Y040300D01*
X029850Y040300D01*X029821Y040297D01*X029793Y040289D01*X029767Y040275D01*
X029744Y040256D01*X029725Y040233D01*X029711Y040207D01*X029703Y040179D01*
X029700Y040150D01*X029700Y039850D01*
G37*G36*X028700Y040850D02*X028703Y040821D01*
X028711Y040793D01*X028725Y040767D01*X028744Y040744D01*X028767Y040725D01*
X028793Y040711D01*X028821Y040703D01*X028850Y040700D01*X029150Y040700D01*
X029179Y040703D01*X029207Y040711D01*X029233Y040725D01*X029256Y040744D01*
X029275Y040767D01*X029289Y040793D01*X029297Y040821D01*X029300Y040850D01*
X029300Y041150D01*X029297Y041179D01*X029289Y041207D01*X029275Y041233D01*
X029256Y041256D01*X029233Y041275D01*X029207Y041289D01*X029179Y041297D01*
X029150Y041300D01*X028850Y041300D01*X028821Y041297D01*X028793Y041289D01*
X028767Y041275D01*X028744Y041256D01*X028725Y041233D01*X028711Y041207D01*
X028703Y041179D01*X028700Y041150D01*X028700Y040850D01*G37*G36*X028700Y039850D02*
X028703Y039821D01*X028711Y039793D01*X028725Y039767D01*X028744Y039744D01*
X028767Y039725D01*X028793Y039711D01*X028821Y039703D01*X028850Y039700D01*
X029150Y039700D01*X029179Y039703D01*X029207Y039711D01*X029233Y039725D01*
X029256Y039744D01*X029275Y039767D01*X029289Y039793D01*X029297Y039821D01*
X029300Y039850D01*X029300Y040150D01*X029297Y040179D01*X029289Y040207D01*
X029275Y040233D01*X029256Y040256D01*X029233Y040275D01*X029207Y040289D01*
X029179Y040297D01*X029150Y040300D01*X028850Y040300D01*X028821Y040297D01*
X028793Y040289D01*X028767Y040275D01*X028744Y040256D01*X028725Y040233D01*
X028711Y040207D01*X028703Y040179D01*X028700Y040150D01*X028700Y039850D01*G37*G36*
X027700Y040850D02*X027703Y040821D01*X027711Y040793D01*X027725Y040767D01*
X027744Y040744D01*X027767Y040725D01*X027793Y040711D01*X027821Y040703D01*
X027850Y040700D01*X028150Y040700D01*X028179Y040703D01*X028207Y040711D01*
X028233Y040725D01*X028256Y040744D01*X028275Y040767D01*X028289Y040793D01*
X028297Y040821D01*X028300Y040850D01*X028300Y041150D01*X028297Y041179D01*
X028289Y041207D01*X028275Y041233D01*X028256Y041256D01*X028233Y041275D01*
X028207Y041289D01*X028179Y041297D01*X028150Y041300D01*X027850Y041300D01*
X027821Y041297D01*X027793Y041289D01*X027767Y041275D01*X027744Y041256D01*
X027725Y041233D01*X027711Y041207D01*X027703Y041179D01*X027700Y041150D01*
X027700Y040850D01*G37*G36*X027700Y039850D02*X027703Y039821D01*X027711Y039793D01*
X027725Y039767D01*X027744Y039744D01*X027767Y039725D01*X027793Y039711D01*
X027821Y039703D01*X027850Y039700D01*X028150Y039700D01*X028179Y039703D01*
X028207Y039711D01*X028233Y039725D01*X028256Y039744D01*X028275Y039767D01*
X028289Y039793D01*X028297Y039821D01*X028300Y039850D01*X028300Y040150D01*
X028297Y040179D01*X028289Y040207D01*X028275Y040233D01*X028256Y040256D01*
X028233Y040275D01*X028207Y040289D01*X028179Y040297D01*X028150Y040300D01*
X027850Y040300D01*X027821Y040297D01*X027793Y040289D01*X027767Y040275D01*
X027744Y040256D01*X027725Y040233D01*X027711Y040207D01*X027703Y040179D01*
X027700Y040150D01*X027700Y039850D01*G37*G36*X030700Y040850D02*X030703Y040821D01*
X030711Y040793D01*X030725Y040767D01*X030744Y040744D01*X030767Y040725D01*
X030793Y040711D01*X030821Y040703D01*X030850Y040700D01*X031150Y040700D01*
X031179Y040703D01*X031207Y040711D01*X031233Y040725D01*X031256Y040744D01*
X031275Y040767D01*X031289Y040793D01*X031297Y040821D01*X031300Y040850D01*
X031300Y041150D01*X031297Y041179D01*X031289Y041207D01*X031275Y041233D01*
X031256Y041256D01*X031233Y041275D01*X031207Y041289D01*X031179Y041297D01*
X031150Y041300D01*X030850Y041300D01*X030821Y041297D01*X030793Y041289D01*
X030767Y041275D01*X030744Y041256D01*X030725Y041233D01*X030711Y041207D01*
X030703Y041179D01*X030700Y041150D01*X030700Y040850D01*G37*G36*X030700Y039850D02*
X030703Y039821D01*X030711Y039793D01*X030725Y039767D01*X030744Y039744D01*
X030767Y039725D01*X030793Y039711D01*X030821Y039703D01*X030850Y039700D01*
X031150Y039700D01*X031179Y039703D01*X031207Y039711D01*X031233Y039725D01*
X031256Y039744D01*X031275Y039767D01*X031289Y039793D01*X031297Y039821D01*
X031300Y039850D01*X031300Y040150D01*X031297Y040179D01*X031289Y040207D01*
X031275Y040233D01*X031256Y040256D01*X031233Y040275D01*X031207Y040289D01*
X031179Y040297D01*X031150Y040300D01*X030850Y040300D01*X030821Y040297D01*
X030793Y040289D01*X030767Y040275D01*X030744Y040256D01*X030725Y040233D01*
X030711Y040207D01*X030703Y040179D01*X030700Y040150D01*X030700Y039850D01*G37*G36*
X035700Y042850D02*X035703Y042821D01*X035711Y042793D01*X035725Y042767D01*
X035744Y042744D01*X035767Y042725D01*X035793Y042711D01*X035821Y042703D01*
X035850Y042700D01*X036150Y042700D01*X036179Y042703D01*X036207Y042711D01*
X036233Y042725D01*X036256Y042744D01*X036275Y042767D01*X036289Y042793D01*
X036297Y042821D01*X036300Y042850D01*X036300Y043150D01*X036297Y043179D01*
X036289Y043207D01*X036275Y043233D01*X036256Y043256D01*X036233Y043275D01*
X036207Y043289D01*X036179Y043297D01*X036150Y043300D01*X035850Y043300D01*
X035821Y043297D01*X035793Y043289D01*X035767Y043275D01*X035744Y043256D01*
X035725Y043233D01*X035711Y043207D01*X035703Y043179D01*X035700Y043150D01*
X035700Y042850D01*G37*G36*X035700Y041850D02*X035703Y041821D01*X035711Y041793D01*
X035725Y041767D01*X035744Y041744D01*X035767Y041725D01*X035793Y041711D01*
X035821Y041703D01*X035850Y041700D01*X036150Y041700D01*X036179Y041703D01*
X036207Y041711D01*X036233Y041725D01*X036256Y041744D01*X036275Y041767D01*
X036289Y041793D01*X036297Y041821D01*X036300Y041850D01*X036300Y042150D01*
X036297Y042179D01*X036289Y042207D01*X036275Y042233D01*X036256Y042256D01*
X036233Y042275D01*X036207Y042289D01*X036179Y042297D01*X036150Y042300D01*
X035850Y042300D01*X035821Y042297D01*X035793Y042289D01*X035767Y042275D01*
X035744Y042256D01*X035725Y042233D01*X035711Y042207D01*X035703Y042179D01*
X035700Y042150D01*X035700Y041850D01*G37*G36*X034700Y042850D02*X034703Y042821D01*
X034711Y042793D01*X034725Y042767D01*X034744Y042744D01*X034767Y042725D01*
X034793Y042711D01*X034821Y042703D01*X034850Y042700D01*X035150Y042700D01*
X035179Y042703D01*X035207Y042711D01*X035233Y042725D01*X035256Y042744D01*
X035275Y042767D01*X035289Y042793D01*X035297Y042821D01*X035300Y042850D01*
X035300Y043150D01*X035297Y043179D01*X035289Y043207D01*X035275Y043233D01*
X035256Y043256D01*X035233Y043275D01*X035207Y043289D01*X035179Y043297D01*
X035150Y043300D01*X034850Y043300D01*X034821Y043297D01*X034793Y043289D01*
X034767Y043275D01*X034744Y043256D01*X034725Y043233D01*X034711Y043207D01*
X034703Y043179D01*X034700Y043150D01*X034700Y042850D01*G37*G36*X034700Y041850D02*
X034703Y041821D01*X034711Y041793D01*X034725Y041767D01*X034744Y041744D01*
X034767Y041725D01*X034793Y041711D01*X034821Y041703D01*X034850Y041700D01*
X035150Y041700D01*X035179Y041703D01*X035207Y041711D01*X035233Y041725D01*
X035256Y041744D01*X035275Y041767D01*X035289Y041793D01*X035297Y041821D01*
X035300Y041850D01*X035300Y042150D01*X035297Y042179D01*X035289Y042207D01*
X035275Y042233D01*X035256Y042256D01*X035233Y042275D01*X035207Y042289D01*
X035179Y042297D01*X035150Y042300D01*X034850Y042300D01*X034821Y042297D01*
X034793Y042289D01*X034767Y042275D01*X034744Y042256D01*X034725Y042233D01*
X034711Y042207D01*X034703Y042179D01*X034700Y042150D01*X034700Y041850D01*
G37*G36*
X036700Y042850D02*X036703Y042821D01*X036711Y042793D01*X036725Y042767D01*
X036744Y042744D01*X036767Y042725D01*X036793Y042711D01*X036821Y042703D01*
X036850Y042700D01*X037150Y042700D01*X037179Y042703D01*X037207Y042711D01*
X037233Y042725D01*X037256Y042744D01*X037275Y042767D01*X037289Y042793D01*
X037297Y042821D01*X037300Y042850D01*X037300Y043150D01*X037297Y043179D01*
X037289Y043207D01*X037275Y043233D01*X037256Y043256D01*X037233Y043275D01*
X037207Y043289D01*X037179Y043297D01*X037150Y043300D01*X036850Y043300D01*
X036821Y043297D01*X036793Y043289D01*X036767Y043275D01*X036744Y043256D01*
X036725Y043233D01*X036711Y043207D01*X036703Y043179D01*X036700Y043150D01*
X036700Y042850D01*G37*G36*X036700Y041850D02*X036703Y041821D01*X036711Y041793D01*
X036725Y041767D01*X036744Y041744D01*X036767Y041725D01*X036793Y041711D01*
X036821Y041703D01*X036850Y041700D01*X037150Y041700D01*X037179Y041703D01*
X037207Y041711D01*X037233Y041725D01*X037256Y041744D01*X037275Y041767D01*
X037289Y041793D01*X037297Y041821D01*X037300Y041850D01*X037300Y042150D01*
X037297Y042179D01*X037289Y042207D01*X037275Y042233D01*X037256Y042256D01*
X037233Y042275D01*X037207Y042289D01*X037179Y042297D01*X037150Y042300D01*
X036850Y042300D01*X036821Y042297D01*X036793Y042289D01*X036767Y042275D01*
X036744Y042256D01*X036725Y042233D01*X036711Y042207D01*X036703Y042179D01*
X036700Y042150D01*X036700Y041850D01*G37*G36*X009700Y052850D02*X009703Y052821D01*
X009711Y052793D01*X009725Y052767D01*X009744Y052744D01*X009767Y052725D01*
X009793Y052711D01*X009821Y052703D01*X009850Y052700D01*X010150Y052700D01*
X010179Y052703D01*X010207Y052711D01*X010233Y052725D01*X010256Y052744D01*
X010275Y052767D01*X010289Y052793D01*X010297Y052821D01*X010300Y052850D01*
X010300Y053150D01*X010297Y053179D01*X010289Y053207D01*X010275Y053233D01*
X010256Y053256D01*X010233Y053275D01*X010207Y053289D01*X010179Y053297D01*
X010150Y053300D01*X009850Y053300D01*X009821Y053297D01*X009793Y053289D01*
X009767Y053275D01*X009744Y053256D01*X009725Y053233D01*X009711Y053207D01*
X009703Y053179D01*X009700Y053150D01*X009700Y052850D01*G37*G36*X009700Y053850D02*
X009703Y053821D01*X009711Y053793D01*X009725Y053767D01*X009744Y053744D01*
X009767Y053725D01*X009793Y053711D01*X009821Y053703D01*X009850Y053700D01*
X010150Y053700D01*X010179Y053703D01*X010207Y053711D01*X010233Y053725D01*
X010256Y053744D01*X010275Y053767D01*X010289Y053793D01*X010297Y053821D01*
X010300Y053850D01*X010300Y054150D01*X010297Y054179D01*X010289Y054207D01*
X010275Y054233D01*X010256Y054256D01*X010233Y054275D01*X010207Y054289D01*
X010179Y054297D01*X010150Y054300D01*X009850Y054300D01*X009821Y054297D01*
X009793Y054289D01*X009767Y054275D01*X009744Y054256D01*X009725Y054233D01*
X009711Y054207D01*X009703Y054179D01*X009700Y054150D01*X009700Y053850D01*G37*G36*
X008700Y051850D02*X008703Y051821D01*X008711Y051793D01*X008725Y051767D01*
X008744Y051744D01*X008767Y051725D01*X008793Y051711D01*X008821Y051703D01*
X008850Y051700D01*X009150Y051700D01*X009179Y051703D01*X009207Y051711D01*
X009233Y051725D01*X009256Y051744D01*X009275Y051767D01*X009289Y051793D01*
X009297Y051821D01*X009300Y051850D01*X009300Y052150D01*X009297Y052179D01*
X009289Y052207D01*X009275Y052233D01*X009256Y052256D01*X009233Y052275D01*
X009207Y052289D01*X009179Y052297D01*X009150Y052300D01*X008850Y052300D01*
X008821Y052297D01*X008793Y052289D01*X008767Y052275D01*X008744Y052256D01*
X008725Y052233D01*X008711Y052207D01*X008703Y052179D01*X008700Y052150D01*
X008700Y051850D01*G37*G36*X009700Y051850D02*X009703Y051821D01*X009711Y051793D01*
X009725Y051767D01*X009744Y051744D01*X009767Y051725D01*X009793Y051711D01*
X009821Y051703D01*X009850Y051700D01*X010150Y051700D01*X010179Y051703D01*
X010207Y051711D01*X010233Y051725D01*X010256Y051744D01*X010275Y051767D01*
X010289Y051793D01*X010297Y051821D01*X010300Y051850D01*X010300Y052150D01*
X010297Y052179D01*X010289Y052207D01*X010275Y052233D01*X010256Y052256D01*
X010233Y052275D01*X010207Y052289D01*X010179Y052297D01*X010150Y052300D01*
X009850Y052300D01*X009821Y052297D01*X009793Y052289D01*X009767Y052275D01*
X009744Y052256D01*X009725Y052233D01*X009711Y052207D01*X009703Y052179D01*
X009700Y052150D01*X009700Y051850D01*G37*G36*X018700Y052850D02*X018703Y052821D01*
X018711Y052793D01*X018725Y052767D01*X018744Y052744D01*X018767Y052725D01*
X018793Y052711D01*X018821Y052703D01*X018850Y052700D01*X019150Y052700D01*
X019179Y052703D01*X019207Y052711D01*X019233Y052725D01*X019256Y052744D01*
X019275Y052767D01*X019289Y052793D01*X019297Y052821D01*X019300Y052850D01*
X019300Y053150D01*X019297Y053179D01*X019289Y053207D01*X019275Y053233D01*
X019256Y053256D01*X019233Y053275D01*X019207Y053289D01*X019179Y053297D01*
X019150Y053300D01*X018850Y053300D01*X018821Y053297D01*X018793Y053289D01*
X018767Y053275D01*X018744Y053256D01*X018725Y053233D01*X018711Y053207D01*
X018703Y053179D01*X018700Y053150D01*X018700Y052850D01*G37*G36*X018700Y053850D02*
X018703Y053821D01*X018711Y053793D01*X018725Y053767D01*X018744Y053744D01*
X018767Y053725D01*X018793Y053711D01*X018821Y053703D01*X018850Y053700D01*
X019150Y053700D01*X019179Y053703D01*X019207Y053711D01*X019233Y053725D01*
X019256Y053744D01*X019275Y053767D01*X019289Y053793D01*X019297Y053821D01*
X019300Y053850D01*X019300Y054150D01*X019297Y054179D01*X019289Y054207D01*
X019275Y054233D01*X019256Y054256D01*X019233Y054275D01*X019207Y054289D01*
X019179Y054297D01*X019150Y054300D01*X018850Y054300D01*X018821Y054297D01*
X018793Y054289D01*X018767Y054275D01*X018744Y054256D01*X018725Y054233D01*
X018711Y054207D01*X018703Y054179D01*X018700Y054150D01*X018700Y053850D01*G37*G36*
X017700Y051850D02*X017703Y051821D01*X017711Y051793D01*X017725Y051767D01*
X017744Y051744D01*X017767Y051725D01*X017793Y051711D01*X017821Y051703D01*
X017850Y051700D01*X018150Y051700D01*X018179Y051703D01*X018207Y051711D01*
X018233Y051725D01*X018256Y051744D01*X018275Y051767D01*X018289Y051793D01*
X018297Y051821D01*X018300Y051850D01*X018300Y052150D01*X018297Y052179D01*
X018289Y052207D01*X018275Y052233D01*X018256Y052256D01*X018233Y052275D01*
X018207Y052289D01*X018179Y052297D01*X018150Y052300D01*X017850Y052300D01*
X017821Y052297D01*X017793Y052289D01*X017767Y052275D01*X017744Y052256D01*
X017725Y052233D01*X017711Y052207D01*X017703Y052179D01*X017700Y052150D01*
X017700Y051850D01*G37*G36*X018700Y051850D02*X018703Y051821D01*X018711Y051793D01*
X018725Y051767D01*X018744Y051744D01*X018767Y051725D01*X018793Y051711D01*
X018821Y051703D01*X018850Y051700D01*X019150Y051700D01*X019179Y051703D01*
X019207Y051711D01*X019233Y051725D01*X019256Y051744D01*X019275Y051767D01*
X019289Y051793D01*X019297Y051821D01*X019300Y051850D01*X019300Y052150D01*
X019297Y052179D01*X019289Y052207D01*X019275Y052233D01*X019256Y052256D01*
X019233Y052275D01*X019207Y052289D01*X019179Y052297D01*X019150Y052300D01*
X018850Y052300D01*X018821Y052297D01*X018793Y052289D01*X018767Y052275D01*
X018744Y052256D01*X018725Y052233D01*X018711Y052207D01*X018703Y052179D01*
X018700Y052150D01*X018700Y051850D01*
G37*G36*X033700Y051850D02*X033703Y051821D01*
X033711Y051793D01*X033725Y051767D01*X033744Y051744D01*X033767Y051725D01*
X033793Y051711D01*X033821Y051703D01*X033850Y051700D01*X034150Y051700D01*
X034179Y051703D01*X034207Y051711D01*X034233Y051725D01*X034256Y051744D01*
X034275Y051767D01*X034289Y051793D01*X034297Y051821D01*X034300Y051850D01*
X034300Y052150D01*X034297Y052179D01*X034289Y052207D01*X034275Y052233D01*
X034256Y052256D01*X034233Y052275D01*X034207Y052289D01*X034179Y052297D01*
X034150Y052300D01*X033850Y052300D01*X033821Y052297D01*X033793Y052289D01*
X033767Y052275D01*X033744Y052256D01*X033725Y052233D01*X033711Y052207D01*
X033703Y052179D01*X033700Y052150D01*X033700Y051850D01*G37*G36*X034700Y051850D02*
X034703Y051821D01*X034711Y051793D01*X034725Y051767D01*X034744Y051744D01*
X034767Y051725D01*X034793Y051711D01*X034821Y051703D01*X034850Y051700D01*
X035150Y051700D01*X035179Y051703D01*X035207Y051711D01*X035233Y051725D01*
X035256Y051744D01*X035275Y051767D01*X035289Y051793D01*X035297Y051821D01*
X035300Y051850D01*X035300Y052150D01*X035297Y052179D01*X035289Y052207D01*
X035275Y052233D01*X035256Y052256D01*X035233Y052275D01*X035207Y052289D01*
X035179Y052297D01*X035150Y052300D01*X034850Y052300D01*X034821Y052297D01*
X034793Y052289D01*X034767Y052275D01*X034744Y052256D01*X034725Y052233D01*
X034711Y052207D01*X034703Y052179D01*X034700Y052150D01*X034700Y051850D01*G37*G36*
X034700Y052850D02*X034703Y052821D01*X034711Y052793D01*X034725Y052767D01*
X034744Y052744D01*X034767Y052725D01*X034793Y052711D01*X034821Y052703D01*
X034850Y052700D01*X035150Y052700D01*X035179Y052703D01*X035207Y052711D01*
X035233Y052725D01*X035256Y052744D01*X035275Y052767D01*X035289Y052793D01*
X035297Y052821D01*X035300Y052850D01*X035300Y053150D01*X035297Y053179D01*
X035289Y053207D01*X035275Y053233D01*X035256Y053256D01*X035233Y053275D01*
X035207Y053289D01*X035179Y053297D01*X035150Y053300D01*X034850Y053300D01*
X034821Y053297D01*X034793Y053289D01*X034767Y053275D01*X034744Y053256D01*
X034725Y053233D01*X034711Y053207D01*X034703Y053179D01*X034700Y053150D01*
X034700Y052850D01*G37*G36*X033700Y052850D02*X033703Y052821D01*X033711Y052793D01*
X033725Y052767D01*X033744Y052744D01*X033767Y052725D01*X033793Y052711D01*
X033821Y052703D01*X033850Y052700D01*X034150Y052700D01*X034179Y052703D01*
X034207Y052711D01*X034233Y052725D01*X034256Y052744D01*X034275Y052767D01*
X034289Y052793D01*X034297Y052821D01*X034300Y052850D01*X034300Y053150D01*
X034297Y053179D01*X034289Y053207D01*X034275Y053233D01*X034256Y053256D01*
X034233Y053275D01*X034207Y053289D01*X034179Y053297D01*X034150Y053300D01*
X033850Y053300D01*X033821Y053297D01*X033793Y053289D01*X033767Y053275D01*
X033744Y053256D01*X033725Y053233D01*X033711Y053207D01*X033703Y053179D01*
X033700Y053150D01*X033700Y052850D01*G37*G36*X035700Y051850D02*X035703Y051821D01*
X035711Y051793D01*X035725Y051767D01*X035744Y051744D01*X035767Y051725D01*
X035793Y051711D01*X035821Y051703D01*X035850Y051700D01*X036150Y051700D01*
X036179Y051703D01*X036207Y051711D01*X036233Y051725D01*X036256Y051744D01*
X036275Y051767D01*X036289Y051793D01*X036297Y051821D01*X036300Y051850D01*
X036300Y052150D01*X036297Y052179D01*X036289Y052207D01*X036275Y052233D01*
X036256Y052256D01*X036233Y052275D01*X036207Y052289D01*X036179Y052297D01*
X036150Y052300D01*X035850Y052300D01*X035821Y052297D01*X035793Y052289D01*
X035767Y052275D01*X035744Y052256D01*X035725Y052233D01*X035711Y052207D01*
X035703Y052179D01*X035700Y052150D01*X035700Y051850D01*G37*G36*X035700Y052850D02*
X035703Y052821D01*X035711Y052793D01*X035725Y052767D01*X035744Y052744D01*
X035767Y052725D01*X035793Y052711D01*X035821Y052703D01*X035850Y052700D01*
X036150Y052700D01*X036179Y052703D01*X036207Y052711D01*X036233Y052725D01*
X036256Y052744D01*X036275Y052767D01*X036289Y052793D01*X036297Y052821D01*
X036300Y052850D01*X036300Y053150D01*X036297Y053179D01*X036289Y053207D01*
X036275Y053233D01*X036256Y053256D01*X036233Y053275D01*X036207Y053289D01*
X036179Y053297D01*X036150Y053300D01*X035850Y053300D01*X035821Y053297D01*
X035793Y053289D01*X035767Y053275D01*X035744Y053256D01*X035725Y053233D01*
X035711Y053207D01*X035703Y053179D01*X035700Y053150D01*X035700Y052850D01*G37*G36*
X046700Y053850D02*X046703Y053821D01*X046711Y053793D01*X046725Y053767D01*
X046744Y053744D01*X046767Y053725D01*X046793Y053711D01*X046821Y053703D01*
X046850Y053700D01*X047150Y053700D01*X047179Y053703D01*X047207Y053711D01*
X047233Y053725D01*X047256Y053744D01*X047275Y053767D01*X047289Y053793D01*
X047297Y053821D01*X047300Y053850D01*X047300Y054150D01*X047297Y054179D01*
X047289Y054207D01*X047275Y054233D01*X047256Y054256D01*X047233Y054275D01*
X047207Y054289D01*X047179Y054297D01*X047150Y054300D01*X046850Y054300D01*
X046821Y054297D01*X046793Y054289D01*X046767Y054275D01*X046744Y054256D01*
X046725Y054233D01*X046711Y054207D01*X046703Y054179D01*X046700Y054150D01*
X046700Y053850D01*G37*G36*X017700Y057850D02*X017703Y057821D01*X017711Y057793D01*
X017725Y057767D01*X017744Y057744D01*X017767Y057725D01*X017793Y057711D01*
X017821Y057703D01*X017850Y057700D01*X018150Y057700D01*X018179Y057703D01*
X018207Y057711D01*X018233Y057725D01*X018256Y057744D01*X018275Y057767D01*
X018289Y057793D01*X018297Y057821D01*X018300Y057850D01*X018300Y058150D01*
X018297Y058179D01*X018289Y058207D01*X018275Y058233D01*X018256Y058256D01*
X018233Y058275D01*X018207Y058289D01*X018179Y058297D01*X018150Y058300D01*
X017850Y058300D01*X017821Y058297D01*X017793Y058289D01*X017767Y058275D01*
X017744Y058256D01*X017725Y058233D01*X017711Y058207D01*X017703Y058179D01*
X017700Y058150D01*X017700Y057850D01*G37*G36*X031700Y056850D02*X031703Y056821D01*
X031711Y056793D01*X031725Y056767D01*X031744Y056744D01*X031767Y056725D01*
X031793Y056711D01*X031821Y056703D01*X031850Y056700D01*X032150Y056700D01*
X032179Y056703D01*X032207Y056711D01*X032233Y056725D01*X032256Y056744D01*
X032275Y056767D01*X032289Y056793D01*X032297Y056821D01*X032300Y056850D01*
X032300Y057150D01*X032297Y057179D01*X032289Y057207D01*X032275Y057233D01*
X032256Y057256D01*X032233Y057275D01*X032207Y057289D01*X032179Y057297D01*
X032150Y057300D01*X031850Y057300D01*X031821Y057297D01*X031793Y057289D01*
X031767Y057275D01*X031744Y057256D01*X031725Y057233D01*X031711Y057207D01*
X031703Y057179D01*X031700Y057150D01*X031700Y056850D01*G37*G36*X031700Y055850D02*
X031703Y055821D01*X031711Y055793D01*X031725Y055767D01*X031744Y055744D01*
X031767Y055725D01*X031793Y055711D01*X031821Y055703D01*X031850Y055700D01*
X032150Y055700D01*X032179Y055703D01*X032207Y055711D01*X032233Y055725D01*
X032256Y055744D01*X032275Y055767D01*X032289Y055793D01*X032297Y055821D01*
X032300Y055850D01*X032300Y056150D01*X032297Y056179D01*X032289Y056207D01*
X032275Y056233D01*X032256Y056256D01*X032233Y056275D01*X032207Y056289D01*
X032179Y056297D01*X032150Y056300D01*X031850Y056300D01*X031821Y056297D01*
X031793Y056289D01*X031767Y056275D01*X031744Y056256D01*X031725Y056233D01*
X031711Y056207D01*X031703Y056179D01*X031700Y056150D01*X031700Y055850D01*
G37*G36*
X030700Y055850D02*X030703Y055821D01*X030711Y055793D01*X030725Y055767D01*
X030744Y055744D01*X030767Y055725D01*X030793Y055711D01*X030821Y055703D01*
X030850Y055700D01*X031150Y055700D01*X031179Y055703D01*X031207Y055711D01*
X031233Y055725D01*X031256Y055744D01*X031275Y055767D01*X031289Y055793D01*
X031297Y055821D01*X031300Y055850D01*X031300Y056150D01*X031297Y056179D01*
X031289Y056207D01*X031275Y056233D01*X031256Y056256D01*X031233Y056275D01*
X031207Y056289D01*X031179Y056297D01*X031150Y056300D01*X030850Y056300D01*
X030821Y056297D01*X030793Y056289D01*X030767Y056275D01*X030744Y056256D01*
X030725Y056233D01*X030711Y056207D01*X030703Y056179D01*X030700Y056150D01*
X030700Y055850D01*G37*G36*X030700Y056850D02*X030703Y056821D01*X030711Y056793D01*
X030725Y056767D01*X030744Y056744D01*X030767Y056725D01*X030793Y056711D01*
X030821Y056703D01*X030850Y056700D01*X031150Y056700D01*X031179Y056703D01*
X031207Y056711D01*X031233Y056725D01*X031256Y056744D01*X031275Y056767D01*
X031289Y056793D01*X031297Y056821D01*X031300Y056850D01*X031300Y057150D01*
X031297Y057179D01*X031289Y057207D01*X031275Y057233D01*X031256Y057256D01*
X031233Y057275D01*X031207Y057289D01*X031179Y057297D01*X031150Y057300D01*
X030850Y057300D01*X030821Y057297D01*X030793Y057289D01*X030767Y057275D01*
X030744Y057256D01*X030725Y057233D01*X030711Y057207D01*X030703Y057179D01*
X030700Y057150D01*X030700Y056850D01*G37*G36*X037700Y055850D02*X037703Y055821D01*
X037711Y055793D01*X037725Y055767D01*X037744Y055744D01*X037767Y055725D01*
X037793Y055711D01*X037821Y055703D01*X037850Y055700D01*X038150Y055700D01*
X038179Y055703D01*X038207Y055711D01*X038233Y055725D01*X038256Y055744D01*
X038275Y055767D01*X038289Y055793D01*X038297Y055821D01*X038300Y055850D01*
X038300Y056150D01*X038297Y056179D01*X038289Y056207D01*X038275Y056233D01*
X038256Y056256D01*X038233Y056275D01*X038207Y056289D01*X038179Y056297D01*
X038150Y056300D01*X037850Y056300D01*X037821Y056297D01*X037793Y056289D01*
X037767Y056275D01*X037744Y056256D01*X037725Y056233D01*X037711Y056207D01*
X037703Y056179D01*X037700Y056150D01*X037700Y055850D01*G37*G36*X036700Y055850D02*
X036703Y055821D01*X036711Y055793D01*X036725Y055767D01*X036744Y055744D01*
X036767Y055725D01*X036793Y055711D01*X036821Y055703D01*X036850Y055700D01*
X037150Y055700D01*X037179Y055703D01*X037207Y055711D01*X037233Y055725D01*
X037256Y055744D01*X037275Y055767D01*X037289Y055793D01*X037297Y055821D01*
X037300Y055850D01*X037300Y056150D01*X037297Y056179D01*X037289Y056207D01*
X037275Y056233D01*X037256Y056256D01*X037233Y056275D01*X037207Y056289D01*
X037179Y056297D01*X037150Y056300D01*X036850Y056300D01*X036821Y056297D01*
X036793Y056289D01*X036767Y056275D01*X036744Y056256D01*X036725Y056233D01*
X036711Y056207D01*X036703Y056179D01*X036700Y056150D01*X036700Y055850D01*G37*G36*
X037700Y057850D02*X037703Y057821D01*X037711Y057793D01*X037725Y057767D01*
X037744Y057744D01*X037767Y057725D01*X037793Y057711D01*X037821Y057703D01*
X037850Y057700D01*X038150Y057700D01*X038179Y057703D01*X038207Y057711D01*
X038233Y057725D01*X038256Y057744D01*X038275Y057767D01*X038289Y057793D01*
X038297Y057821D01*X038300Y057850D01*X038300Y058150D01*X038297Y058179D01*
X038289Y058207D01*X038275Y058233D01*X038256Y058256D01*X038233Y058275D01*
X038207Y058289D01*X038179Y058297D01*X038150Y058300D01*X037850Y058300D01*
X037821Y058297D01*X037793Y058289D01*X037767Y058275D01*X037744Y058256D01*
X037725Y058233D01*X037711Y058207D01*X037703Y058179D01*X037700Y058150D01*
X037700Y057850D01*G37*G36*X036700Y057850D02*X036703Y057821D01*X036711Y057793D01*
X036725Y057767D01*X036744Y057744D01*X036767Y057725D01*X036793Y057711D01*
X036821Y057703D01*X036850Y057700D01*X037150Y057700D01*X037179Y057703D01*
X037207Y057711D01*X037233Y057725D01*X037256Y057744D01*X037275Y057767D01*
X037289Y057793D01*X037297Y057821D01*X037300Y057850D01*X037300Y058150D01*
X037297Y058179D01*X037289Y058207D01*X037275Y058233D01*X037256Y058256D01*
X037233Y058275D01*X037207Y058289D01*X037179Y058297D01*X037150Y058300D01*
X036850Y058300D01*X036821Y058297D01*X036793Y058289D01*X036767Y058275D01*
X036744Y058256D01*X036725Y058233D01*X036711Y058207D01*X036703Y058179D01*
X036700Y058150D01*X036700Y057850D01*G37*G36*X046700Y054850D02*X046703Y054821D01*
X046711Y054793D01*X046725Y054767D01*X046744Y054744D01*X046767Y054725D01*
X046793Y054711D01*X046821Y054703D01*X046850Y054700D01*X047150Y054700D01*
X047179Y054703D01*X047207Y054711D01*X047233Y054725D01*X047256Y054744D01*
X047275Y054767D01*X047289Y054793D01*X047297Y054821D01*X047300Y054850D01*
X047300Y055150D01*X047297Y055179D01*X047289Y055207D01*X047275Y055233D01*
X047256Y055256D01*X047233Y055275D01*X047207Y055289D01*X047179Y055297D01*
X047150Y055300D01*X046850Y055300D01*X046821Y055297D01*X046793Y055289D01*
X046767Y055275D01*X046744Y055256D01*X046725Y055233D01*X046711Y055207D01*
X046703Y055179D01*X046700Y055150D01*X046700Y054850D01*G37*G36*X017700Y058850D02*
X017703Y058821D01*X017711Y058793D01*X017725Y058767D01*X017744Y058744D01*
X017767Y058725D01*X017793Y058711D01*X017821Y058703D01*X017850Y058700D01*
X018150Y058700D01*X018179Y058703D01*X018207Y058711D01*X018233Y058725D01*
X018256Y058744D01*X018275Y058767D01*X018289Y058793D01*X018297Y058821D01*
X018300Y058850D01*X018300Y059150D01*X018297Y059179D01*X018289Y059207D01*
X018275Y059233D01*X018256Y059256D01*X018233Y059275D01*X018207Y059289D01*
X018179Y059297D01*X018150Y059300D01*X017850Y059300D01*X017821Y059297D01*
X017793Y059289D01*X017767Y059275D01*X017744Y059256D01*X017725Y059233D01*
X017711Y059207D01*X017703Y059179D01*X017700Y059150D01*X017700Y058850D01*G37*G36*
X021700Y062850D02*X021703Y062821D01*X021711Y062793D01*X021725Y062767D01*
X021744Y062744D01*X021767Y062725D01*X021793Y062711D01*X021821Y062703D01*
X021850Y062700D01*X022150Y062700D01*X022179Y062703D01*X022207Y062711D01*
X022233Y062725D01*X022256Y062744D01*X022275Y062767D01*X022289Y062793D01*
X022297Y062821D01*X022300Y062850D01*X022300Y063150D01*X022297Y063179D01*
X022289Y063207D01*X022275Y063233D01*X022256Y063256D01*X022233Y063275D01*
X022207Y063289D01*X022179Y063297D01*X022150Y063300D01*X021850Y063300D01*
X021821Y063297D01*X021793Y063289D01*X021767Y063275D01*X021744Y063256D01*
X021725Y063233D01*X021711Y063207D01*X021703Y063179D01*X021700Y063150D01*
X021700Y062850D01*G37*G36*X020700Y062850D02*X020703Y062821D01*X020711Y062793D01*
X020725Y062767D01*X020744Y062744D01*X020767Y062725D01*X020793Y062711D01*
X020821Y062703D01*X020850Y062700D01*X021150Y062700D01*X021179Y062703D01*
X021207Y062711D01*X021233Y062725D01*X021256Y062744D01*X021275Y062767D01*
X021289Y062793D01*X021297Y062821D01*X021300Y062850D01*X021300Y063150D01*
X021297Y063179D01*X021289Y063207D01*X021275Y063233D01*X021256Y063256D01*
X021233Y063275D01*X021207Y063289D01*X021179Y063297D01*X021150Y063300D01*
X020850Y063300D01*X020821Y063297D01*X020793Y063289D01*X020767Y063275D01*
X020744Y063256D01*X020725Y063233D01*X020711Y063207D01*X020703Y063179D01*
X020700Y063150D01*X020700Y062850D01*
G37*G36*X021700Y063850D02*X021703Y063821D01*
X021711Y063793D01*X021725Y063767D01*X021744Y063744D01*X021767Y063725D01*
X021793Y063711D01*X021821Y063703D01*X021850Y063700D01*X022150Y063700D01*
X022179Y063703D01*X022207Y063711D01*X022233Y063725D01*X022256Y063744D01*
X022275Y063767D01*X022289Y063793D01*X022297Y063821D01*X022300Y063850D01*
X022300Y064150D01*X022297Y064179D01*X022289Y064207D01*X022275Y064233D01*
X022256Y064256D01*X022233Y064275D01*X022207Y064289D01*X022179Y064297D01*
X022150Y064300D01*X021850Y064300D01*X021821Y064297D01*X021793Y064289D01*
X021767Y064275D01*X021744Y064256D01*X021725Y064233D01*X021711Y064207D01*
X021703Y064179D01*X021700Y064150D01*X021700Y063850D01*G37*G36*X021700Y064850D02*
X021703Y064821D01*X021711Y064793D01*X021725Y064767D01*X021744Y064744D01*
X021767Y064725D01*X021793Y064711D01*X021821Y064703D01*X021850Y064700D01*
X022150Y064700D01*X022179Y064703D01*X022207Y064711D01*X022233Y064725D01*
X022256Y064744D01*X022275Y064767D01*X022289Y064793D01*X022297Y064821D01*
X022300Y064850D01*X022300Y065150D01*X022297Y065179D01*X022289Y065207D01*
X022275Y065233D01*X022256Y065256D01*X022233Y065275D01*X022207Y065289D01*
X022179Y065297D01*X022150Y065300D01*X021850Y065300D01*X021821Y065297D01*
X021793Y065289D01*X021767Y065275D01*X021744Y065256D01*X021725Y065233D01*
X021711Y065207D01*X021703Y065179D01*X021700Y065150D01*X021700Y064850D01*G37*G36*
X049700Y065850D02*X049703Y065821D01*X049711Y065793D01*X049725Y065767D01*
X049744Y065744D01*X049767Y065725D01*X049793Y065711D01*X049821Y065703D01*
X049850Y065700D01*X050150Y065700D01*X050179Y065703D01*X050207Y065711D01*
X050233Y065725D01*X050256Y065744D01*X050275Y065767D01*X050289Y065793D01*
X050297Y065821D01*X050300Y065850D01*X050300Y066150D01*X050297Y066179D01*
X050289Y066207D01*X050275Y066233D01*X050256Y066256D01*X050233Y066275D01*
X050207Y066289D01*X050179Y066297D01*X050150Y066300D01*X049850Y066300D01*
X049821Y066297D01*X049793Y066289D01*X049767Y066275D01*X049744Y066256D01*
X049725Y066233D01*X049711Y066207D01*X049703Y066179D01*X049700Y066150D01*
X049700Y065850D01*G37*G36*X049700Y064850D02*X049703Y064821D01*X049711Y064793D01*
X049725Y064767D01*X049744Y064744D01*X049767Y064725D01*X049793Y064711D01*
X049821Y064703D01*X049850Y064700D01*X050150Y064700D01*X050179Y064703D01*
X050207Y064711D01*X050233Y064725D01*X050256Y064744D01*X050275Y064767D01*
X050289Y064793D01*X050297Y064821D01*X050300Y064850D01*X050300Y065150D01*
X050297Y065179D01*X050289Y065207D01*X050275Y065233D01*X050256Y065256D01*
X050233Y065275D01*X050207Y065289D01*X050179Y065297D01*X050150Y065300D01*
X049850Y065300D01*X049821Y065297D01*X049793Y065289D01*X049767Y065275D01*
X049744Y065256D01*X049725Y065233D01*X049711Y065207D01*X049703Y065179D01*
X049700Y065150D01*X049700Y064850D01*G37*G36*X021700Y070850D02*X021703Y070821D01*
X021711Y070793D01*X021725Y070767D01*X021744Y070744D01*X021767Y070725D01*
X021793Y070711D01*X021821Y070703D01*X021850Y070700D01*X022150Y070700D01*
X022179Y070703D01*X022207Y070711D01*X022233Y070725D01*X022256Y070744D01*
X022275Y070767D01*X022289Y070793D01*X022297Y070821D01*X022300Y070850D01*
X022300Y071150D01*X022297Y071179D01*X022289Y071207D01*X022275Y071233D01*
X022256Y071256D01*X022233Y071275D01*X022207Y071289D01*X022179Y071297D01*
X022150Y071300D01*X021850Y071300D01*X021821Y071297D01*X021793Y071289D01*
X021767Y071275D01*X021744Y071256D01*X021725Y071233D01*X021711Y071207D01*
X021703Y071179D01*X021700Y071150D01*X021700Y070850D01*G37*G36*X020700Y070850D02*
X020703Y070821D01*X020711Y070793D01*X020725Y070767D01*X020744Y070744D01*
X020767Y070725D01*X020793Y070711D01*X020821Y070703D01*X020850Y070700D01*
X021150Y070700D01*X021179Y070703D01*X021207Y070711D01*X021233Y070725D01*
X021256Y070744D01*X021275Y070767D01*X021289Y070793D01*X021297Y070821D01*
X021300Y070850D01*X021300Y071150D01*X021297Y071179D01*X021289Y071207D01*
X021275Y071233D01*X021256Y071256D01*X021233Y071275D01*X021207Y071289D01*
X021179Y071297D01*X021150Y071300D01*X020850Y071300D01*X020821Y071297D01*
X020793Y071289D01*X020767Y071275D01*X020744Y071256D01*X020725Y071233D01*
X020711Y071207D01*X020703Y071179D01*X020700Y071150D01*X020700Y070850D01*G37*G36*
X023700Y070850D02*X023703Y070821D01*X023711Y070793D01*X023725Y070767D01*
X023744Y070744D01*X023767Y070725D01*X023793Y070711D01*X023821Y070703D01*
X023850Y070700D01*X024150Y070700D01*X024179Y070703D01*X024207Y070711D01*
X024233Y070725D01*X024256Y070744D01*X024275Y070767D01*X024289Y070793D01*
X024297Y070821D01*X024300Y070850D01*X024300Y071150D01*X024297Y071179D01*
X024289Y071207D01*X024275Y071233D01*X024256Y071256D01*X024233Y071275D01*
X024207Y071289D01*X024179Y071297D01*X024150Y071300D01*X023850Y071300D01*
X023821Y071297D01*X023793Y071289D01*X023767Y071275D01*X023744Y071256D01*
X023725Y071233D01*X023711Y071207D01*X023703Y071179D01*X023700Y071150D01*
X023700Y070850D01*G37*G36*X022700Y070850D02*X022703Y070821D01*X022711Y070793D01*
X022725Y070767D01*X022744Y070744D01*X022767Y070725D01*X022793Y070711D01*
X022821Y070703D01*X022850Y070700D01*X023150Y070700D01*X023179Y070703D01*
X023207Y070711D01*X023233Y070725D01*X023256Y070744D01*X023275Y070767D01*
X023289Y070793D01*X023297Y070821D01*X023300Y070850D01*X023300Y071150D01*
X023297Y071179D01*X023289Y071207D01*X023275Y071233D01*X023256Y071256D01*
X023233Y071275D01*X023207Y071289D01*X023179Y071297D01*X023150Y071300D01*
X022850Y071300D01*X022821Y071297D01*X022793Y071289D01*X022767Y071275D01*
X022744Y071256D01*X022725Y071233D01*X022711Y071207D01*X022703Y071179D01*
X022700Y071150D01*X022700Y070850D01*G37*G36*X030700Y069850D02*X030703Y069821D01*
X030711Y069793D01*X030725Y069767D01*X030744Y069744D01*X030767Y069725D01*
X030793Y069711D01*X030821Y069703D01*X030850Y069700D01*X031150Y069700D01*
X031179Y069703D01*X031207Y069711D01*X031233Y069725D01*X031256Y069744D01*
X031275Y069767D01*X031289Y069793D01*X031297Y069821D01*X031300Y069850D01*
X031300Y070150D01*X031297Y070179D01*X031289Y070207D01*X031275Y070233D01*
X031256Y070256D01*X031233Y070275D01*X031207Y070289D01*X031179Y070297D01*
X031150Y070300D01*X030850Y070300D01*X030821Y070297D01*X030793Y070289D01*
X030767Y070275D01*X030744Y070256D01*X030725Y070233D01*X030711Y070207D01*
X030703Y070179D01*X030700Y070150D01*X030700Y069850D01*G37*G36*X031700Y069850D02*
X031703Y069821D01*X031711Y069793D01*X031725Y069767D01*X031744Y069744D01*
X031767Y069725D01*X031793Y069711D01*X031821Y069703D01*X031850Y069700D01*
X032150Y069700D01*X032179Y069703D01*X032207Y069711D01*X032233Y069725D01*
X032256Y069744D01*X032275Y069767D01*X032289Y069793D01*X032297Y069821D01*
X032300Y069850D01*X032300Y070150D01*X032297Y070179D01*X032289Y070207D01*
X032275Y070233D01*X032256Y070256D01*X032233Y070275D01*X032207Y070289D01*
X032179Y070297D01*X032150Y070300D01*X031850Y070300D01*X031821Y070297D01*
X031793Y070289D01*X031767Y070275D01*X031744Y070256D01*X031725Y070233D01*
X031711Y070207D01*X031703Y070179D01*X031700Y070150D01*X031700Y069850D01*
G37*G36*
X033700Y069850D02*X033703Y069821D01*X033711Y069793D01*X033725Y069767D01*
X033744Y069744D01*X033767Y069725D01*X033793Y069711D01*X033821Y069703D01*
X033850Y069700D01*X034150Y069700D01*X034179Y069703D01*X034207Y069711D01*
X034233Y069725D01*X034256Y069744D01*X034275Y069767D01*X034289Y069793D01*
X034297Y069821D01*X034300Y069850D01*X034300Y070150D01*X034297Y070179D01*
X034289Y070207D01*X034275Y070233D01*X034256Y070256D01*X034233Y070275D01*
X034207Y070289D01*X034179Y070297D01*X034150Y070300D01*X033850Y070300D01*
X033821Y070297D01*X033793Y070289D01*X033767Y070275D01*X033744Y070256D01*
X033725Y070233D01*X033711Y070207D01*X033703Y070179D01*X033700Y070150D01*
X033700Y069850D01*G37*G36*X032700Y069850D02*X032703Y069821D01*X032711Y069793D01*
X032725Y069767D01*X032744Y069744D01*X032767Y069725D01*X032793Y069711D01*
X032821Y069703D01*X032850Y069700D01*X033150Y069700D01*X033179Y069703D01*
X033207Y069711D01*X033233Y069725D01*X033256Y069744D01*X033275Y069767D01*
X033289Y069793D01*X033297Y069821D01*X033300Y069850D01*X033300Y070150D01*
X033297Y070179D01*X033289Y070207D01*X033275Y070233D01*X033256Y070256D01*
X033233Y070275D01*X033207Y070289D01*X033179Y070297D01*X033150Y070300D01*
X032850Y070300D01*X032821Y070297D01*X032793Y070289D01*X032767Y070275D01*
X032744Y070256D01*X032725Y070233D01*X032711Y070207D01*X032703Y070179D01*
X032700Y070150D01*X032700Y069850D01*G37*G36*X009700Y074850D02*X009703Y074821D01*
X009711Y074793D01*X009725Y074767D01*X009744Y074744D01*X009767Y074725D01*
X009793Y074711D01*X009821Y074703D01*X009850Y074700D01*X010150Y074700D01*
X010179Y074703D01*X010207Y074711D01*X010233Y074725D01*X010256Y074744D01*
X010275Y074767D01*X010289Y074793D01*X010297Y074821D01*X010300Y074850D01*
X010300Y075150D01*X010297Y075179D01*X010289Y075207D01*X010275Y075233D01*
X010256Y075256D01*X010233Y075275D01*X010207Y075289D01*X010179Y075297D01*
X010150Y075300D01*X009850Y075300D01*X009821Y075297D01*X009793Y075289D01*
X009767Y075275D01*X009744Y075256D01*X009725Y075233D01*X009711Y075207D01*
X009703Y075179D01*X009700Y075150D01*X009700Y074850D01*G37*G36*X010700Y074850D02*
X010703Y074821D01*X010711Y074793D01*X010725Y074767D01*X010744Y074744D01*
X010767Y074725D01*X010793Y074711D01*X010821Y074703D01*X010850Y074700D01*
X011150Y074700D01*X011179Y074703D01*X011207Y074711D01*X011233Y074725D01*
X011256Y074744D01*X011275Y074767D01*X011289Y074793D01*X011297Y074821D01*
X011300Y074850D01*X011300Y075150D01*X011297Y075179D01*X011289Y075207D01*
X011275Y075233D01*X011256Y075256D01*X011233Y075275D01*X011207Y075289D01*
X011179Y075297D01*X011150Y075300D01*X010850Y075300D01*X010821Y075297D01*
X010793Y075289D01*X010767Y075275D01*X010744Y075256D01*X010725Y075233D01*
X010711Y075207D01*X010703Y075179D01*X010700Y075150D01*X010700Y074850D01*G37*G36*
X012700Y074850D02*X012703Y074821D01*X012711Y074793D01*X012725Y074767D01*
X012744Y074744D01*X012767Y074725D01*X012793Y074711D01*X012821Y074703D01*
X012850Y074700D01*X013150Y074700D01*X013179Y074703D01*X013207Y074711D01*
X013233Y074725D01*X013256Y074744D01*X013275Y074767D01*X013289Y074793D01*
X013297Y074821D01*X013300Y074850D01*X013300Y075150D01*X013297Y075179D01*
X013289Y075207D01*X013275Y075233D01*X013256Y075256D01*X013233Y075275D01*
X013207Y075289D01*X013179Y075297D01*X013150Y075300D01*X012850Y075300D01*
X012821Y075297D01*X012793Y075289D01*X012767Y075275D01*X012744Y075256D01*
X012725Y075233D01*X012711Y075207D01*X012703Y075179D01*X012700Y075150D01*
X012700Y074850D01*G37*G36*X011700Y074850D02*X011703Y074821D01*X011711Y074793D01*
X011725Y074767D01*X011744Y074744D01*X011767Y074725D01*X011793Y074711D01*
X011821Y074703D01*X011850Y074700D01*X012150Y074700D01*X012179Y074703D01*
X012207Y074711D01*X012233Y074725D01*X012256Y074744D01*X012275Y074767D01*
X012289Y074793D01*X012297Y074821D01*X012300Y074850D01*X012300Y075150D01*
X012297Y075179D01*X012289Y075207D01*X012275Y075233D01*X012256Y075256D01*
X012233Y075275D01*X012207Y075289D01*X012179Y075297D01*X012150Y075300D01*
X011850Y075300D01*X011821Y075297D01*X011793Y075289D01*X011767Y075275D01*
X011744Y075256D01*X011725Y075233D01*X011711Y075207D01*X011703Y075179D01*
X011700Y075150D01*X011700Y074850D01*G37*G36*X017716Y083296D02*X017716Y083394D01*
X017740Y083394D01*X017740Y083543D01*X017765Y083543D01*X017765Y083567D01*
X018259Y083567D01*X018259Y083493D01*X018259Y083444D01*X018234Y083444D01*
X018234Y083394D01*X018259Y083394D01*X018259Y083370D01*X018308Y083370D01*
X018308Y083345D01*X018382Y083345D01*X018382Y083320D01*X020456Y083320D01*
X020456Y083296D01*X020407Y083296D01*X020407Y083271D01*X020382Y083271D01*
X020382Y083246D01*X020333Y083246D01*X020333Y083222D01*X020308Y083222D01*
X020308Y083197D01*X020259Y083197D01*X020259Y083172D01*X020234Y083172D01*
X020234Y083148D01*X020185Y083148D01*X020185Y083123D01*X020160Y083123D01*
X020160Y083098D01*X018135Y083098D01*X018135Y083123D01*X017963Y083123D01*
X017963Y083148D01*X017889Y083148D01*X017889Y083172D01*X017815Y083172D01*
X017815Y083197D01*X017790Y083197D01*X017790Y083222D01*X017765Y083222D01*
X017765Y083246D01*X017740Y083246D01*X017740Y083296D01*X017716Y083296D01*G37*G36*
X017765Y083567D02*X017765Y083666D01*X017790Y083666D01*X017790Y083789D01*
X017815Y083789D01*X017815Y083913D01*X017839Y083913D01*X017839Y084036D01*
X017864Y084036D01*X017864Y084135D01*X017889Y084135D01*X017889Y084184D01*
X017913Y084184D01*X017913Y084209D01*X017938Y084209D01*X017938Y084234D01*
X017987Y084234D01*X017987Y084259D01*X018086Y084259D01*X018086Y084283D01*
X019691Y084283D01*X019691Y084259D01*X019740Y084259D01*X019740Y084234D01*
X019790Y084234D01*X019790Y084184D01*X019814Y084184D01*X019814Y084012D01*
X019790Y084012D01*X019790Y083839D01*X019765Y083839D01*X019765Y083814D01*
X019271Y083814D01*X019271Y083888D01*X019296Y083888D01*X019296Y084036D01*
X019271Y084036D01*X019271Y084061D01*X018456Y084061D01*X018456Y084036D01*
X018407Y084036D01*X018407Y084012D01*X018382Y084012D01*X018382Y083987D01*
X018358Y083987D01*X018358Y083962D01*X018333Y083962D01*X018333Y083888D01*
X018308Y083888D01*X018308Y083814D01*X019765Y083814D01*X019765Y083765D01*
X019765Y083715D01*X019740Y083715D01*X019740Y083666D01*X019716Y083666D01*
X019716Y083641D01*X019691Y083641D01*X019691Y083617D01*X019641Y083617D01*
X019641Y083592D01*X019543Y083592D01*X019543Y083567D01*X017765Y083567D01*G37*G36*
X003100Y083731D02*X003125Y083731D01*X003125Y083657D01*X003149Y083657D01*
X003149Y083607D01*X003174Y083607D01*X003174Y083558D01*X003199Y083558D01*
X003199Y083508D01*X003224Y083508D01*X003224Y083484D01*X003248Y083484D01*
X003248Y083434D01*X003273Y083434D01*X003273Y083410D01*X003298Y083410D01*
X003298Y083385D01*X003322Y083385D01*X003322Y083360D01*X003347Y083360D01*
X003347Y083336D01*X003372Y083336D01*X003372Y083311D01*X003396Y083311D01*
X003396Y083286D01*X003446Y083286D01*X003446Y083262D01*X003470Y083262D01*
X003470Y083237D01*X003495Y083237D01*X003495Y083212D01*X003544Y083212D01*
X003544Y083188D01*X003569Y083188D01*X003569Y083163D01*X003618Y083163D01*
X003618Y083138D01*X003643Y083138D01*X003643Y083114D01*X003692Y083114D01*
X003692Y083089D01*X003717Y083089D01*X003717Y083064D01*X003767Y083064D01*
X003767Y083039D01*X003816Y083039D01*X003816Y083015D01*X003866Y083015D01*
X003866Y082990D01*X003914Y082990D01*X003914Y082965D01*X003964Y082965D01*
X003964Y082940D01*X004013Y082940D01*X004013Y082916D01*X004062Y082916D01*
X004062Y082891D01*X004112Y082891D01*X004112Y082866D01*X004162Y082866D01*
X004162Y082842D01*X004235Y082842D01*X004235Y082817D01*X004260Y082817D01*
X004260Y082792D01*X004335Y082792D01*X004335Y082768D01*X004384Y082768D01*
X004384Y082743D01*X004433Y082743D01*X004433Y082718D01*X004482Y082718D01*
X004482Y082694D01*X004532Y082694D01*X004532Y082743D01*X004508Y082743D01*
X004508Y083016D01*X004532Y083016D01*X004532Y083113D01*X004556Y083113D01*
X004556Y083188D01*X004582Y083188D01*X004582Y083262D01*X004606Y083262D01*
X004606Y083311D01*X004632Y083311D01*X004632Y083385D01*X004656Y083385D01*
X004656Y083434D01*X004680Y083434D01*X004680Y083459D01*X004706Y083459D01*
X004706Y083509D01*X004730Y083509D01*X004730Y083558D01*X004754Y083558D01*
X004754Y083607D01*X004779Y083607D01*X004779Y083657D01*X004804Y083657D01*
X004804Y083682D01*X004828Y083682D01*X004828Y083731D01*X004852Y083731D01*
X004852Y083756D01*X004878Y083756D01*X004878Y083804D01*X004902Y083804D01*
X004902Y083830D01*X004927Y083830D01*X004927Y083879D01*X004952Y083879D01*
X004952Y083904D01*X004976Y083904D01*X004976Y083953D01*X005000Y083953D01*
X005000Y084002D01*X005025Y084002D01*X005025Y084027D01*X005051Y084027D01*
X005051Y084076D01*X005075Y084076D01*X005075Y084101D01*X005100Y084101D01*
X005100Y084150D01*X005125Y084150D01*X005125Y084175D01*X005150Y084175D01*
X005150Y084224D01*X005174Y084224D01*X005174Y084274D01*X005198Y084274D01*
X005198Y084298D01*X005224Y084298D01*X005224Y084348D01*X005248Y084348D01*
X005248Y084398D01*X005273Y084398D01*X005273Y084446D01*X005298Y084446D01*
X005298Y084472D01*X004606Y084472D01*X004606Y084447D01*X004581Y084447D01*
X004581Y084471D01*X004557Y084471D01*X004557Y084446D01*X004360Y084446D01*
X004360Y084422D01*X004188Y084422D01*X004188Y084398D01*X004088Y084398D01*
X004088Y084373D01*X003988Y084373D01*X003988Y084348D01*X003915Y084348D01*
X003915Y084323D01*X003866Y084323D01*X003866Y084300D01*X003790Y084300D01*
X003790Y084273D01*X003742Y084273D01*X003742Y084249D01*X003692Y084249D01*
X003692Y084224D01*X003667Y084224D01*X003667Y084200D01*X003618Y084200D01*
X003618Y084175D01*X003592Y084175D01*X003592Y084150D01*X003569Y084150D01*
X003569Y084126D01*X003544Y084126D01*X003544Y084102D01*X003520Y084102D01*
X003520Y084076D01*X003495Y084076D01*X003495Y084125D01*X003520Y084125D01*
X003520Y084150D01*X003545Y084150D01*X003545Y084200D01*X003569Y084200D01*
X003569Y084224D01*X003593Y084224D01*X003593Y084250D01*X003618Y084250D01*
X003618Y084274D01*X003644Y084274D01*X003644Y084298D01*X003668Y084298D01*
X003668Y084324D01*X003693Y084324D01*X003693Y084347D01*X003742Y084347D01*
X003742Y084372D01*X003767Y084372D01*X003767Y084397D01*X003791Y084397D01*
X003791Y084421D01*X003841Y084421D01*X003841Y084446D01*X003866Y084446D01*
X003866Y084471D01*X003915Y084471D01*X003915Y084496D01*X003964Y084496D01*
X003964Y084521D01*X004014Y084521D01*X004014Y084545D01*X004088Y084545D01*
X004088Y084570D01*X004137Y084570D01*X004137Y084595D01*X004211Y084595D01*
X004211Y084620D01*X004286Y084620D01*X004286Y084644D01*X004360Y084644D01*
X004360Y084669D01*X004458Y084669D01*X004458Y084693D01*X004557Y084693D01*
X004557Y084718D01*X004680Y084718D01*X004680Y084743D01*X004828Y084743D01*
X004828Y084767D01*X005050Y084767D01*X005050Y084792D01*X005693Y084792D01*
X005693Y084817D01*X005889Y084817D01*X005889Y084841D01*X005989Y084841D01*
X005989Y084866D01*X006063Y084866D01*X006063Y084891D01*X006138Y084891D01*
X006138Y084916D01*X006285Y084916D01*X006285Y084891D01*X006310Y084891D01*
X006310Y084866D01*X006334Y084866D01*X006334Y084792D01*X006310Y084792D01*
X006310Y084718D01*X006285Y084718D01*X006285Y084669D01*X006260Y084669D01*
X006260Y084619D01*X006235Y084619D01*X006235Y084595D01*X006211Y084595D01*
X006211Y084546D01*X006186Y084546D01*X006186Y084521D01*X006161Y084521D01*
X006161Y084472D01*X006136Y084472D01*X006136Y084447D01*X006112Y084447D01*
X006112Y084398D01*X006088Y084398D01*X006088Y084372D01*X006062Y084372D01*
X006062Y084323D01*X006038Y084323D01*X006038Y084299D01*X006013Y084299D01*
X006013Y084274D01*X005989Y084274D01*X005989Y084249D01*X005964Y084249D01*
X005964Y084200D01*X005939Y084200D01*X005939Y084176D01*X005915Y084176D01*
X005915Y084151D01*X005890Y084151D01*X005890Y084101D01*X005865Y084101D01*
X005865Y084077D01*X005840Y084077D01*X005840Y084052D01*X005816Y084052D01*
X005816Y084002D01*X005791Y084002D01*X005791Y083978D01*X005766Y083978D01*
X005766Y083953D01*X005742Y083953D01*X005742Y083928D01*X005717Y083928D01*
X005717Y083879D01*X005692Y083879D01*X005692Y083854D01*X005668Y083854D01*
X005668Y083829D01*X005643Y083829D01*X005643Y083805D01*X005618Y083805D01*
X005618Y083755D01*X005594Y083755D01*X005594Y083731D01*X005569Y083731D01*
X005569Y083706D01*X005544Y083706D01*X005544Y083657D01*X005520Y083657D01*
X005520Y083632D01*X005495Y083632D01*X005495Y083608D01*X005470Y083608D01*
X005470Y083558D01*X005445Y083558D01*X005445Y083533D01*X005421Y083533D01*
X005421Y083508D01*X005396Y083508D01*X005396Y083459D01*X005371Y083459D01*
X005371Y083434D01*X005346Y083434D01*X005346Y083385D01*X005322Y083385D01*
X005322Y083360D01*X005297Y083360D01*X005297Y083311D01*X005273Y083311D01*
X005273Y083286D01*X005248Y083286D01*X005248Y083237D01*X005223Y083237D01*
X005223Y083188D01*X005199Y083188D01*X005199Y083138D01*X005174Y083138D01*
X005174Y083089D01*X005150Y083089D01*X005150Y083040D01*X005125Y083040D01*
X005125Y082990D01*X005100Y082990D01*X005100Y082916D01*X005075Y082916D01*
X005075Y082743D01*X005100Y082743D01*X005100Y082694D01*X005125Y082694D01*
X005125Y082669D01*X005346Y082669D01*X005346Y082694D01*X005421Y082694D01*
X005421Y082719D01*X005470Y082719D01*X005470Y082742D01*X005495Y082742D01*
X005495Y082769D01*X005520Y082769D01*X005520Y082793D01*X005544Y082793D01*
X005544Y082817D01*X005570Y082817D01*X005570Y082842D01*X005594Y082842D01*
X005594Y082866D01*X005619Y082866D01*X005619Y082916D01*X005643Y082916D01*
X005643Y082941D01*X005668Y082941D01*X005668Y082966D01*X005716Y082966D01*
X005716Y082990D01*X005766Y082990D01*X005766Y083014D01*X005865Y083014D01*
X005865Y082990D01*X005914Y082990D01*X005914Y082940D01*X005939Y082940D01*
X005939Y082744D01*X005915Y082744D01*X005915Y082694D01*X005890Y082694D01*
X005890Y082669D01*X005865Y082669D01*X005865Y082645D01*X005840Y082645D01*
X005840Y082620D01*X005815Y082620D01*X005815Y082595D01*X005791Y082595D01*
X005791Y082570D01*X005766Y082570D01*X005766Y082546D01*X005717Y082546D01*
X005717Y082520D01*X005692Y082520D01*X005692Y082496D01*X005643Y082496D01*
X005643Y082471D01*X005594Y082471D01*X005594Y082447D01*X005519Y082447D01*
X005519Y082422D01*X005446Y082422D01*X005446Y082398D01*X005347Y082398D01*
X005347Y082373D01*X005445Y082373D01*X005445Y082347D01*X005618Y082347D01*
X005618Y082324D01*X005840Y082324D01*X005840Y082348D01*X006014Y082348D01*
X006014Y082372D01*X006087Y082372D01*X006087Y082398D01*X006162Y082398D01*
X006162Y082422D01*X006211Y082422D01*X006211Y082447D01*X006260Y082447D01*
X006260Y082472D01*X006285Y082472D01*X006285Y082497D01*X006334Y082497D01*
X006334Y082520D01*X006359Y082520D01*X006359Y082546D01*X006409Y082546D01*
X006409Y082570D01*X006432Y082570D01*X006432Y082595D01*X006458Y082595D01*
X006458Y082619D01*X006483Y082619D01*X006483Y082644D01*X006507Y082644D01*
X006507Y082669D01*X006532Y082669D01*X006532Y082693D01*X006557Y082693D01*
X006557Y082718D01*X006581Y082718D01*X006581Y082768D01*X006606Y082768D01*
X006606Y082793D01*X006631Y082793D01*X006631Y082817D01*X006655Y082817D01*
X006655Y082866D01*X006680Y082866D01*X006680Y082916D01*X006705Y082916D01*
X006705Y082965D01*X006729Y082965D01*X006729Y082990D01*X006754Y082990D01*
X006754Y083064D01*X006778Y083064D01*X006778Y083114D01*X006803Y083114D01*
X006803Y083163D01*X006828Y083163D01*X006828Y083212D01*X006852Y083212D01*
X006852Y083286D01*X006878Y083286D01*X006878Y083336D01*X006902Y083336D01*
X006902Y083409D01*X006927Y083409D01*X006927Y083482D01*X006952Y083482D01*
X006952Y083532D01*X006976Y083532D01*X006976Y083608D01*X007001Y083608D01*
X007001Y083682D01*X007025Y083682D01*X007025Y083730D01*X007050Y083730D01*
X007050Y083805D01*X007075Y083805D01*X007075Y083879D01*X007100Y083879D01*
X007100Y083978D01*X007124Y083978D01*X007124Y084052D01*X007148Y084052D01*
X007148Y084151D01*X007174Y084151D01*X007174Y084274D01*X007199Y084274D01*
X007199Y084421D01*X007223Y084421D01*X007223Y084966D01*X007198Y084966D01*
X007198Y085064D01*X007174Y085064D01*X007174Y085162D01*X007149Y085162D01*
X007149Y085211D01*X007124Y085211D01*X007124Y085286D01*X007100Y085286D01*
X007100Y085311D01*X007075Y085311D01*X007075Y085360D01*X007050Y085360D01*
X007050Y085385D01*X007026Y085385D01*X007026Y085410D01*X007001Y085410D01*
X007001Y085459D01*X006976Y085459D01*X006976Y085484D01*X006951Y085484D01*
X006951Y085508D01*X006901Y085508D01*X006901Y085533D01*X006876Y085533D01*
X006876Y085557D01*X006853Y085557D01*X006853Y085582D01*X006805Y085582D01*
X006805Y085607D01*X006755Y085607D01*X006755Y085631D01*X006681Y085631D01*
X006681Y085657D01*X006630Y085657D01*X006630Y085533D01*X006605Y085533D01*
X006605Y085484D01*X006581Y085484D01*X006581Y085434D01*X006556Y085434D01*
X006556Y085384D01*X006532Y085384D01*X006532Y085361D01*X006507Y085361D01*
X006507Y085336D01*X006482Y085336D01*X006482Y085310D01*X006458Y085310D01*
X006458Y085286D01*X006434Y085286D01*X006434Y085261D01*X006384Y085261D01*
X006384Y085236D01*X006334Y085236D01*X006334Y085212D01*X006236Y085212D01*
X006236Y085187D01*X006062Y085187D01*X006062Y085212D01*X005988Y085212D01*
X005988Y085236D01*X005939Y085236D01*X005939Y085262D01*X005915Y085262D01*
X005915Y085286D01*X005890Y085286D01*X005890Y085311D01*X005865Y085311D01*
X005865Y085336D01*X005841Y085336D01*X005841Y085385D01*X005816Y085385D01*
X005816Y085582D01*X005840Y085582D01*X005840Y085632D01*X005866Y085632D01*
X005866Y085681D01*X005717Y085681D01*X005717Y085656D01*X005594Y085656D01*
X005594Y085632D01*X005495Y085632D01*X005495Y085607D01*X005396Y085607D01*
X005396Y085582D01*X005322Y085582D01*X005322Y085558D01*X005223Y085558D01*
X005223Y085533D01*X005149Y085533D01*X005149Y085508D01*X005075Y085508D01*
X005075Y085484D01*X005026Y085484D01*X005026Y085459D01*X004952Y085459D01*
X004952Y085434D01*X004902Y085434D01*X004902Y085410D01*X004828Y085410D01*
X004828Y085385D01*X004779Y085385D01*X004779Y085360D01*X004730Y085360D01*
X004730Y085336D01*X004680Y085336D01*X004680Y085311D01*X004630Y085311D01*
X004630Y085286D01*X004557Y085286D01*X004557Y085261D01*X004507Y085261D01*
X004507Y085237D01*X004458Y085237D01*X004458Y085212D01*X004433Y085212D01*
X004433Y085187D01*X004384Y085187D01*X004384Y085163D01*X004334Y085163D01*
X004334Y085138D01*X004285Y085138D01*X004285Y085113D01*X004236Y085113D01*
X004236Y085089D01*X004186Y085089D01*X004186Y085064D01*X004162Y085064D01*
X004162Y085039D01*X004112Y085039D01*X004112Y085015D01*X004063Y085015D01*
X004063Y084990D01*X004013Y084990D01*X004013Y084965D01*X003989Y084965D01*
X003989Y084940D01*X003939Y084940D01*X003939Y084916D01*X003890Y084916D01*
X003890Y084891D01*X003865Y084891D01*X003865Y084866D01*X003816Y084866D01*
X003816Y084842D01*X003791Y084842D01*X003791Y084817D01*X003742Y084817D01*
X003742Y084792D01*X003692Y084792D01*X003692Y084768D01*X003668Y084768D01*
X003668Y084743D01*X003618Y084743D01*X003618Y084718D01*X003594Y084718D01*
X003594Y084694D01*X003569Y084694D01*X003569Y084669D01*X003520Y084669D01*
X003520Y084644D01*X003495Y084644D01*X003495Y084620D01*X003470Y084620D01*
X003470Y084595D01*X003446Y084595D01*X003446Y084570D01*X003421Y084570D01*
X003421Y084546D01*X003396Y084546D01*X003396Y084521D01*X003372Y084521D01*
X003372Y084496D01*X003347Y084496D01*X003347Y084471D01*X003322Y084471D01*
X003322Y084447D01*X003298Y084447D01*X003298Y084398D01*X003273Y084398D01*
X003273Y084373D01*X003248Y084373D01*X003248Y084323D01*X003223Y084323D01*
X003223Y084298D01*X003199Y084298D01*X003199Y084249D01*X003174Y084249D01*
X003174Y084200D01*X003149Y084200D01*X003149Y084126D01*X003125Y084126D01*
X003125Y084027D01*X003100Y084027D01*X003100Y083731D01*G37*G36*X007840Y083098D02*
X008408Y083098D01*X008408Y083148D01*X008433Y083148D01*X008433Y083271D01*
X008457Y083271D01*X008457Y083394D01*X008482Y083394D01*X008482Y083518D01*
X008507Y083518D01*X008507Y083641D01*X008532Y083641D01*X008532Y083789D01*
X008556Y083789D01*X008556Y083913D01*X008581Y083913D01*X008581Y084036D01*
X008606Y084036D01*X008606Y084160D01*X008630Y084160D01*X008630Y084283D01*
X008655Y084283D01*X008655Y084407D01*X008680Y084407D01*X008680Y084555D01*
X008704Y084555D01*X008704Y084678D01*X008729Y084678D01*X008729Y084802D01*
X008754Y084802D01*X008754Y084925D01*X008778Y084925D01*X008778Y084975D01*
X008186Y084975D01*X008186Y084974D01*X008186Y084876D01*X008161Y084876D01*
X008161Y084752D01*X008137Y084752D01*X008137Y084629D01*X008112Y084629D01*
X008112Y084481D01*X008087Y084481D01*X008087Y084357D01*X008062Y084357D01*
X008062Y084234D01*X008038Y084234D01*X008038Y084110D01*X008013Y084110D01*
X008013Y083987D01*X007988Y083987D01*X007988Y083839D01*X007964Y083839D01*
X007964Y083715D01*X007939Y083715D01*X007939Y083592D01*X007914Y083592D01*
X007914Y083469D01*X007890Y083469D01*X007890Y083345D01*X007865Y083345D01*
X007865Y083197D01*X007840Y083197D01*X007840Y083098D01*
G37*G36*X008606Y083123D02*
X008606Y083197D01*X008630Y083197D01*X008630Y083320D01*X008655Y083320D01*
X008655Y083444D01*X008680Y083444D01*X008680Y083592D01*X008704Y083592D01*
X008704Y083691D01*X008729Y083691D01*X008729Y083839D01*X008754Y083839D01*
X008754Y083962D01*X008778Y083962D01*X008778Y084086D01*X008803Y084086D01*
X008803Y084184D01*X008828Y084184D01*X008828Y084283D01*X010260Y084283D01*
X010260Y084259D01*X010408Y084259D01*X010408Y084234D01*X010482Y084234D01*
X010482Y084209D01*X010556Y084209D01*X010556Y084184D01*X010605Y084184D01*
X010605Y084160D01*X010630Y084160D01*X010630Y084135D01*X010679Y084135D01*
X010679Y084086D01*X010704Y084086D01*X010704Y083913D01*X010679Y083913D01*
X010679Y083765D01*X010655Y083765D01*X010655Y083592D01*X010630Y083592D01*
X010630Y083444D01*X010605Y083444D01*X010605Y083296D01*X010581Y083296D01*
X010581Y083123D01*X010038Y083123D01*X010038Y083172D01*X010062Y083172D01*
X010062Y083296D01*X010087Y083296D01*X010087Y083469D01*X010112Y083469D01*
X010112Y083592D01*X010136Y083592D01*X010136Y083740D01*X010161Y083740D01*
X010161Y083864D01*X010186Y083864D01*X010186Y084012D01*X010161Y084012D01*
X010161Y084036D01*X010112Y084036D01*X010112Y084061D01*X009297Y084061D01*
X009297Y084036D01*X009272Y084036D01*X009272Y083888D01*X009248Y083888D01*
X009248Y083765D01*X009223Y083765D01*X009223Y083641D01*X009198Y083641D01*
X009198Y083493D01*X009173Y083493D01*X009173Y083394D01*X009149Y083394D01*
X009149Y083246D01*X009124Y083246D01*X009124Y083123D01*X008606Y083123D01*G37*G36*
X010754Y083320D02*X010754Y083469D01*X010778Y083469D01*X010778Y083592D01*
X010803Y083592D01*X010803Y083740D01*X010828Y083740D01*X010828Y083864D01*
X010852Y083864D01*X010852Y083987D01*X010877Y083987D01*X010877Y084135D01*
X010902Y084135D01*X010902Y084259D01*X010926Y084259D01*X010926Y084382D01*
X010951Y084382D01*X010951Y084530D01*X010976Y084530D01*X010976Y084654D01*
X011000Y084654D01*X011000Y084752D01*X011544Y084752D01*X011544Y084728D01*
X011519Y084728D01*X011519Y084604D01*X011494Y084604D01*X011494Y084505D01*
X011470Y084505D01*X011470Y084382D01*X011445Y084382D01*X011445Y084283D01*
X012087Y084283D01*X012087Y084234D01*X012062Y084234D01*X012062Y084086D01*
X012037Y084086D01*X012037Y084061D01*X011395Y084061D01*X011395Y083987D01*
X011371Y083987D01*X011371Y083888D01*X011346Y083888D01*X011346Y083765D01*
X011321Y083765D01*X011321Y083641D01*X011297Y083641D01*X011297Y083543D01*
X011272Y083543D01*X011272Y083370D01*X011297Y083370D01*X011297Y083345D01*
X011346Y083345D01*X011346Y083320D01*X011963Y083320D01*X011963Y083172D01*
X011939Y083172D01*X011939Y083098D01*X011321Y083098D01*X011321Y083123D01*
X011050Y083123D01*X011050Y083148D01*X010976Y083148D01*X010976Y083172D01*
X010902Y083172D01*X010902Y083197D01*X010877Y083197D01*X010877Y083222D01*
X010828Y083222D01*X010828Y083246D01*X010803Y083246D01*X010803Y083271D01*
X010778Y083271D01*X010778Y083320D01*X010754Y083320D01*G37*G36*X012111Y083592D02*
X012111Y083691D01*X012136Y083691D01*X012136Y083814D01*X012161Y083814D01*
X012161Y083962D01*X012185Y083962D01*X012185Y084086D01*X012210Y084086D01*
X012210Y084160D01*X012235Y084160D01*X012235Y084184D01*X012260Y084184D01*
X012260Y084209D01*X012284Y084209D01*X012284Y084234D01*X012334Y084234D01*
X012334Y084259D01*X012432Y084259D01*X012432Y084283D01*X014037Y084283D01*
X014037Y084259D01*X014087Y084259D01*X014087Y084234D01*X014111Y084234D01*
X014111Y084209D01*X014136Y084209D01*X014136Y083938D01*X014111Y083938D01*
X014111Y083814D01*X013617Y083814D01*X013617Y083913D01*X013642Y083913D01*
X013642Y084036D01*X013617Y084036D01*X013617Y084061D01*X012778Y084061D01*
X012778Y084036D01*X012729Y084036D01*X012729Y084012D01*X012704Y084012D01*
X012704Y083987D01*X012679Y083987D01*X012679Y083913D01*X012655Y083913D01*
X012655Y083839D01*X012630Y083839D01*X012630Y083814D01*X014111Y083814D01*
X014111Y083765D01*X014087Y083765D01*X014087Y083691D01*X014062Y083691D01*
X014062Y083641D01*X014012Y083641D01*X014012Y083617D01*X013988Y083617D01*
X013988Y083592D01*X012111Y083592D01*G37*G36*X012062Y083271D02*X012062Y083419D01*
X012087Y083419D01*X012087Y083567D01*X012111Y083567D01*X012111Y083592D01*
X012605Y083592D01*X012605Y083493D01*X012581Y083493D01*X012581Y083370D01*
X012630Y083370D01*X012630Y083345D01*X012704Y083345D01*X012704Y083320D01*
X014679Y083320D01*X014679Y083271D01*X014654Y083271D01*X014654Y083123D01*
X014630Y083123D01*X014630Y083098D01*X012506Y083098D01*X012506Y083123D01*
X012309Y083123D01*X012309Y083148D01*X012235Y083148D01*X012235Y083172D01*
X012161Y083172D01*X012161Y083197D01*X012136Y083197D01*X012136Y083222D01*
X012111Y083222D01*X012111Y083246D01*X012087Y083246D01*X012087Y083271D01*
X012062Y083271D01*G37*G36*X014161Y083320D02*X014161Y083370D01*X014185Y083370D01*
X014185Y083493D01*X014210Y083493D01*X014210Y083617D01*X014235Y083617D01*
X014235Y083740D01*X014259Y083740D01*X014259Y083864D01*X014284Y083864D01*
X014284Y083987D01*X014309Y083987D01*X014309Y084110D01*X014333Y084110D01*
X014333Y084160D01*X014358Y084160D01*X014358Y084184D01*X014383Y084184D01*
X014383Y084209D01*X014407Y084209D01*X014407Y084234D01*X014457Y084234D01*
X014457Y084259D01*X014556Y084259D01*X014556Y084283D01*X016234Y084283D01*
X016234Y084234D01*X016210Y084234D01*X016210Y084160D01*X016185Y084160D01*
X016185Y084110D01*X016160Y084110D01*X016160Y084061D01*X016136Y084061D01*
X016136Y084012D01*X016111Y084012D01*X016111Y083938D01*X016086Y083938D01*
X016086Y083888D01*X016062Y083888D01*X016062Y083839D01*X016037Y083839D01*
X016037Y083789D01*X016012Y083789D01*X016012Y083715D01*X015988Y083715D01*
X015988Y083666D01*X015963Y083666D01*X015963Y083617D01*X015938Y083617D01*
X015938Y083567D01*X015913Y083567D01*X015913Y083518D01*X015889Y083518D01*
X015889Y083444D01*X015864Y083444D01*X015864Y083394D01*X015839Y083394D01*
X015839Y083345D01*X015815Y083345D01*X015815Y083296D01*X015790Y083296D01*
X015790Y083222D01*X015765Y083222D01*X015765Y083172D01*X015741Y083172D01*
X015741Y083123D01*X015716Y083123D01*X015716Y083073D01*X015691Y083073D01*
X015691Y082999D01*X015667Y082999D01*X015667Y082950D01*X015642Y082950D01*
X015642Y082901D01*X015617Y082901D01*X015617Y082851D01*X015593Y082851D01*
X015593Y082777D01*X015568Y082777D01*X015568Y082728D01*X015543Y082728D01*
X015543Y082678D01*X015518Y082678D01*X015518Y082629D01*X015494Y082629D01*
X015494Y082728D01*X015518Y082728D01*X015518Y082876D01*X015543Y082876D01*
X015543Y083024D01*X015568Y083024D01*X015568Y083148D01*X015593Y083148D01*
X015593Y083296D01*X015617Y083296D01*X015617Y083444D01*X015642Y083444D01*
X015642Y083592D01*X015667Y083592D01*X015667Y083740D01*X015691Y083740D01*
X015691Y083888D01*X015716Y083888D01*X015716Y084012D01*X015741Y084012D01*
X015741Y084061D01*X014901Y084061D01*X014901Y084036D01*X014852Y084036D01*
X014852Y084012D01*X014827Y084012D01*X014827Y083987D01*X014802Y083987D01*
X014802Y083888D01*X014778Y083888D01*X014778Y083765D01*X014753Y083765D01*
X014753Y083641D01*X014728Y083641D01*X014728Y083518D01*X014704Y083518D01*
X014704Y083394D01*X014679Y083394D01*X014679Y083320D01*X014161Y083320D01*G37*G36*
X015469Y082620D02*X015469Y082644D01*X015494Y082644D01*X015494Y082620D01*
X015469Y082620D01*G37*G36*X015765Y084283D02*X015765Y084308D01*X015790Y084308D01*
X015790Y084456D01*X015815Y084456D01*X015815Y084604D01*X015839Y084604D01*
X015839Y084752D01*X015864Y084752D01*X015864Y084851D01*X016432Y084851D01*
X016432Y084826D01*X016457Y084826D01*X016457Y084777D01*X016481Y084777D01*
X016481Y084728D01*X016506Y084728D01*X016506Y084678D01*X016531Y084678D01*
X016531Y084654D01*X016555Y084654D01*X016555Y084604D01*X016580Y084604D01*
X016580Y084555D01*X016605Y084555D01*X016605Y084505D01*X016629Y084505D01*
X016629Y084456D01*X016654Y084456D01*X016654Y084407D01*X016679Y084407D01*
X016679Y084382D01*X016704Y084382D01*X016704Y084333D01*X016728Y084333D01*
X016728Y084283D01*X016753Y084283D01*X016753Y084234D01*X016778Y084234D01*
X016778Y084184D01*X016802Y084184D01*X016802Y084135D01*X016827Y084135D01*
X016827Y084110D01*X016852Y084110D01*X016852Y084061D01*X016457Y084061D01*
X016457Y084086D01*X016432Y084086D01*X016432Y084135D01*X016407Y084135D01*
X016407Y084184D01*X016383Y084184D01*X016383Y084234D01*X016358Y084234D01*
X016358Y084259D01*X016333Y084259D01*X016333Y084308D01*X016309Y084308D01*
X016309Y084357D01*X016284Y084357D01*X016284Y084333D01*X016259Y084333D01*
X016259Y084283D01*X015765Y084283D01*G37*G36*X016457Y084036D02*X016481Y084036D01*
X016481Y083987D01*X016506Y083987D01*X016506Y083962D01*X016531Y083962D01*
X016531Y083913D01*X016555Y083913D01*X016555Y083864D01*X016580Y083864D01*
X016580Y083814D01*X016605Y083814D01*X016605Y083765D01*X016629Y083765D01*
X016629Y083715D01*X016654Y083715D01*X016654Y083691D01*X016679Y083691D01*
X016679Y083641D01*X016704Y083641D01*X016704Y083592D01*X016728Y083592D01*
X016728Y083543D01*X016753Y083543D01*X016753Y083493D01*X016778Y083493D01*
X016778Y083444D01*X016802Y083444D01*X016802Y083419D01*X016827Y083419D01*
X016827Y083370D01*X016852Y083370D01*X016852Y083320D01*X016876Y083320D01*
X016876Y083271D01*X016901Y083271D01*X016901Y083222D01*X016926Y083222D01*
X016926Y083197D01*X016950Y083197D01*X016950Y083148D01*X016975Y083148D01*
X016975Y083098D01*X017543Y083098D01*X017543Y083172D01*X017568Y083172D01*
X017568Y083320D01*X017592Y083320D01*X017592Y083444D01*X017617Y083444D01*
X017617Y083592D01*X017642Y083592D01*X017642Y083740D01*X017666Y083740D01*
X017666Y083864D01*X017691Y083864D01*X017691Y084012D01*X017716Y084012D01*
X017716Y084135D01*X017740Y084135D01*X017740Y084283D01*X017765Y084283D01*
X017765Y084431D01*X017790Y084431D01*X017790Y084580D01*X017815Y084580D01*
X017815Y084703D01*X017839Y084703D01*X017839Y084851D01*X017864Y084851D01*
X017864Y084999D01*X017889Y084999D01*X017889Y085123D01*X017913Y085123D01*
X017913Y085221D01*X017889Y085221D01*X017889Y085172D01*X017864Y085172D01*
X017864Y085098D01*X017839Y085098D01*X017839Y085049D01*X017815Y085049D01*
X017815Y084999D01*X017790Y084999D01*X017790Y084950D01*X017765Y084950D01*
X017765Y084900D01*X017740Y084900D01*X017740Y084851D01*X017716Y084851D01*
X017716Y084802D01*X017691Y084802D01*X017691Y084752D01*X017666Y084752D01*
X017666Y084703D01*X017642Y084703D01*X017642Y084654D01*X017617Y084654D01*
X017617Y084604D01*X017592Y084604D01*X017592Y084530D01*X017568Y084530D01*
X017568Y084481D01*X017543Y084481D01*X017543Y084431D01*X017518Y084431D01*
X017518Y084382D01*X017494Y084382D01*X017494Y084333D01*X017469Y084333D01*
X017469Y084283D01*X017444Y084283D01*X017444Y084234D01*X017420Y084234D01*
X017420Y084184D01*X017395Y084184D01*X017395Y084135D01*X017370Y084135D01*
X017370Y084086D01*X017345Y084086D01*X017345Y084036D01*X017321Y084036D01*
X017321Y083962D01*X017296Y083962D01*X017296Y083913D01*X017271Y083913D01*
X017271Y083864D01*X017247Y083864D01*X017247Y083814D01*X017222Y083814D01*
X017222Y083765D01*X017197Y083765D01*X017197Y083715D01*X017173Y083715D01*
X017173Y083666D01*X017148Y083666D01*X017148Y083617D01*X017099Y083617D01*
X017099Y083641D01*X017074Y083641D01*X017074Y083691D01*X017049Y083691D01*
X017049Y083740D01*X017024Y083740D01*X017024Y083789D01*X017000Y083789D01*
X017000Y083839D01*X016975Y083839D01*X016975Y083864D01*X016950Y083864D01*
X016950Y083913D01*X016926Y083913D01*X016926Y083962D01*X016901Y083962D01*
X016901Y084012D01*X016876Y084012D01*X016876Y084061D01*X016457Y084061D01*
X016457Y084036D01*G37*G36*X017370Y085221D02*X017395Y085221D01*X017395Y085123D01*
X017420Y085123D01*X017420Y085049D01*X017444Y085049D01*X017444Y084999D01*
X017469Y084999D01*X017469Y084975D01*X017494Y084975D01*X017494Y084925D01*
X017518Y084925D01*X017518Y084900D01*X017568Y084900D01*X017568Y084876D01*
X017666Y084876D01*X017666Y084900D01*X017691Y084900D01*X017691Y084999D01*
X017666Y084999D01*X017666Y085024D01*X017642Y085024D01*X017642Y085049D01*
X017617Y085049D01*X017617Y085073D01*X017592Y085073D01*X017592Y085123D01*
X017568Y085123D01*X017568Y085197D01*X017543Y085197D01*X017543Y085345D01*
X017568Y085345D01*X017568Y085419D01*X017592Y085419D01*X017592Y085468D01*
X017420Y085468D01*X017420Y085444D01*X017395Y085444D01*X017395Y085320D01*
X017370Y085320D01*X017370Y085221D01*G37*G36*X017420Y085468D02*X017617Y085468D01*
X017617Y085493D01*X017642Y085493D01*X017642Y085542D01*X017666Y085542D01*
X017666Y085567D01*X017716Y085567D01*X017716Y085592D01*X017765Y085592D01*
X017765Y085616D01*X017864Y085616D01*X017864Y085641D01*X017963Y085641D01*
X017963Y085616D01*X018061Y085616D01*X018061Y085592D01*X018086Y085592D01*
X018086Y085567D01*X018135Y085567D01*X018135Y085542D01*X018160Y085542D01*
X018160Y085518D01*X018185Y085518D01*X018185Y085493D01*X018210Y085493D01*
X018210Y085444D01*X018407Y085444D01*X018407Y085468D01*X018382Y085468D01*
X018382Y085518D01*X018358Y085518D01*X018358Y085567D01*X018333Y085567D01*
X018333Y085592D01*X018308Y085592D01*X018308Y085616D01*X018284Y085616D01*
X018284Y085641D01*X018259Y085641D01*X018259Y085666D01*X018234Y085666D01*
X018234Y085691D01*X018210Y085691D01*X018210Y085715D01*X018160Y085715D01*
X018160Y085740D01*X018111Y085740D01*X018111Y085765D01*X018037Y085765D01*
X018037Y085789D01*X017765Y085789D01*X017765Y085765D01*X017691Y085765D01*
X017691Y085740D01*X017642Y085740D01*X017642Y085715D01*X017617Y085715D01*
X017617Y085691D01*X017568Y085691D01*X017568Y085666D01*X017543Y085666D01*
X017543Y085641D01*X017518Y085641D01*X017518Y085616D01*X017494Y085616D01*
X017494Y085567D01*X017469Y085567D01*X017469Y085542D01*X017444Y085542D01*
X017444Y085493D01*X017420Y085493D01*X017420Y085468D01*
G37*G36*X017938Y084802D02*
X017963Y084802D01*X017963Y084777D01*X018012Y084777D01*X018012Y084752D01*
X018061Y084752D01*X018061Y084777D01*X018111Y084777D01*X018111Y084802D01*
X018160Y084802D01*X018160Y084826D01*X018210Y084826D01*X018210Y084851D01*
X018234Y084851D01*X018234Y084876D01*X018259Y084876D01*X018259Y084900D01*
X018284Y084900D01*X018284Y084925D01*X018308Y084925D01*X018308Y084950D01*
X018333Y084950D01*X018333Y084999D01*X018358Y084999D01*X018358Y085024D01*
X018382Y085024D01*X018382Y085073D01*X018407Y085073D01*X018407Y085172D01*
X018432Y085172D01*X018432Y085370D01*X018407Y085370D01*X018407Y085444D01*
X018234Y085444D01*X018234Y085394D01*X018259Y085394D01*X018259Y085147D01*
X018234Y085147D01*X018234Y085098D01*X018210Y085098D01*X018210Y085049D01*
X018185Y085049D01*X018185Y085024D01*X018160Y085024D01*X018160Y084999D01*
X018135Y084999D01*X018135Y084975D01*X018086Y084975D01*X018086Y084950D01*
X018037Y084950D01*X018037Y084925D01*X017987Y084925D01*X017987Y084900D01*
X017963Y084900D01*X017963Y084876D01*X017938Y084876D01*X017938Y084802D01*G37*G36*
X019962Y083320D02*X019962Y083345D01*X020012Y083345D01*X020012Y083370D01*
X020037Y083370D01*X020037Y083394D01*X020086Y083394D01*X020086Y083419D01*
X020135Y083419D01*X020135Y083444D01*X020160Y083444D01*X020160Y083469D01*
X020209Y083469D01*X020209Y083493D01*X020234Y083493D01*X020234Y083518D01*
X020259Y083518D01*X020259Y083543D01*X020308Y083543D01*X020308Y083567D01*
X020357Y083567D01*X020357Y083592D01*X020382Y083592D01*X020382Y083617D01*
X020432Y083617D01*X020432Y083641D01*X020456Y083641D01*X020456Y083666D01*
X021073Y083666D01*X021073Y083641D01*X021098Y083641D01*X021098Y083617D01*
X021148Y083617D01*X021148Y083592D01*X021172Y083592D01*X021172Y083567D01*
X021197Y083567D01*X021197Y083543D01*X021222Y083543D01*X021222Y083518D01*
X021271Y083518D01*X021271Y083493D01*X021296Y083493D01*X021296Y083469D01*
X021320Y083469D01*X021320Y083444D01*X021345Y083444D01*X021345Y083419D01*
X021394Y083419D01*X021394Y083394D01*X021419Y083394D01*X021419Y083370D01*
X021444Y083370D01*X021444Y083345D01*X021468Y083345D01*X021468Y083320D01*
X021518Y083320D01*X021518Y083296D01*X021543Y083296D01*X021543Y083271D01*
X021567Y083271D01*X021567Y083246D01*X021592Y083246D01*X021592Y083222D01*
X021617Y083222D01*X021617Y083197D01*X021666Y083197D01*X021666Y083172D01*
X021691Y083172D01*X021691Y083148D01*X021715Y083148D01*X021715Y083123D01*
X021740Y083123D01*X021740Y083098D01*X021222Y083098D01*X021222Y083123D01*
X021172Y083123D01*X021172Y083148D01*X021148Y083148D01*X021148Y083172D01*
X021123Y083172D01*X021123Y083197D01*X021098Y083197D01*X021098Y083222D01*
X021073Y083222D01*X021073Y083246D01*X021049Y083246D01*X021049Y083271D01*
X020999Y083271D01*X020999Y083296D01*X020975Y083296D01*X020975Y083320D01*
X020950Y083320D01*X020950Y083345D01*X020925Y083345D01*X020925Y083370D01*
X020901Y083370D01*X020901Y083394D01*X020876Y083394D01*X020876Y083419D01*
X020827Y083419D01*X020827Y083444D01*X020802Y083444D01*X020802Y083469D01*
X020777Y083469D01*X020777Y083493D01*X020728Y083493D01*X020728Y083469D01*
X020678Y083469D01*X020678Y083444D01*X020654Y083444D01*X020654Y083419D01*
X020604Y083419D01*X020604Y083394D01*X020555Y083394D01*X020555Y083370D01*
X020530Y083370D01*X020530Y083345D01*X020481Y083345D01*X020481Y083320D01*
X019962Y083320D01*G37*G36*X019888Y084259D02*X019888Y084283D01*X020333Y084283D01*
X020333Y084259D01*X020357Y084259D01*X020357Y084234D01*X020407Y084234D01*
X020407Y084209D01*X020432Y084209D01*X020432Y084184D01*X020456Y084184D01*
X020456Y084160D01*X020481Y084160D01*X020481Y084135D01*X020506Y084135D01*
X020506Y084110D01*X020530Y084110D01*X020530Y084086D01*X020555Y084086D01*
X020555Y084061D01*X020580Y084061D01*X020580Y084036D01*X020604Y084036D01*
X020604Y084012D01*X020654Y084012D01*X020654Y083987D01*X020678Y083987D01*
X020678Y083962D01*X020703Y083962D01*X020703Y083938D01*X020728Y083938D01*
X020728Y083913D01*X020752Y083913D01*X020752Y083888D01*X020802Y083888D01*
X020802Y083913D01*X020851Y083913D01*X020851Y083938D01*X020901Y083938D01*
X020901Y083962D01*X020925Y083962D01*X020925Y083987D01*X020975Y083987D01*
X020975Y084012D01*X020999Y084012D01*X020999Y084036D01*X021049Y084036D01*
X021049Y084061D01*X021098Y084061D01*X021098Y084086D01*X021123Y084086D01*
X021123Y084110D01*X021172Y084110D01*X021172Y084135D01*X021197Y084135D01*
X021197Y084160D01*X021246Y084160D01*X021246Y084184D01*X021271Y084184D01*
X021271Y084209D01*X021320Y084209D01*X021320Y084234D01*X021345Y084234D01*
X021345Y084259D01*X021394Y084259D01*X021394Y084283D01*X021913Y084283D01*
X021913Y084259D01*X021863Y084259D01*X021863Y084234D01*X021839Y084234D01*
X021839Y084209D01*X021789Y084209D01*X021789Y084184D01*X021765Y084184D01*
X021765Y084160D01*X021715Y084160D01*X021715Y084135D01*X021691Y084135D01*
X021691Y084110D01*X021641Y084110D01*X021641Y084086D01*X021617Y084086D01*
X021617Y084061D01*X021567Y084061D01*X021567Y084036D01*X021543Y084036D01*
X021543Y084012D01*X021493Y084012D01*X021493Y083987D01*X021468Y083987D01*
X021468Y083962D01*X021419Y083962D01*X021419Y083938D01*X021394Y083938D01*
X021394Y083913D01*X021345Y083913D01*X021345Y083888D01*X021320Y083888D01*
X021320Y083864D01*X021271Y083864D01*X021271Y083839D01*X021246Y083839D01*
X021246Y083814D01*X021197Y083814D01*X021197Y083789D01*X021172Y083789D01*
X021172Y083765D01*X021123Y083765D01*X021123Y083740D01*X021098Y083740D01*
X021098Y083715D01*X021049Y083715D01*X021049Y083666D01*X020506Y083666D01*
X020506Y083740D01*X020481Y083740D01*X020481Y083765D01*X020432Y083765D01*
X020432Y083789D01*X020407Y083789D01*X020407Y083814D01*X020382Y083814D01*
X020382Y083839D01*X020357Y083839D01*X020357Y083864D01*X020333Y083864D01*
X020333Y083888D01*X020308Y083888D01*X020308Y083913D01*X020283Y083913D01*
X020283Y083938D01*X020259Y083938D01*X020259Y083962D01*X020209Y083962D01*
X020209Y083987D01*X020185Y083987D01*X020185Y084012D01*X020160Y084012D01*
X020160Y084036D01*X020135Y084036D01*X020135Y084061D01*X020111Y084061D01*
X020111Y084086D01*X020086Y084086D01*X020086Y084110D01*X020061Y084110D01*
X020061Y084135D01*X020012Y084135D01*X020012Y084160D01*X019987Y084160D01*
X019987Y084184D01*X019962Y084184D01*X019962Y084209D01*X019938Y084209D01*
X019938Y084234D01*X019913Y084234D01*X019913Y084259D01*X019888Y084259D01*G37*
X000000Y000000D02*M02*
