%MOMM*%
%FSLAX33Y33*%
%ADD10C,0.200000*%
%ADD128C,0.100000*%
%ADD144C,1.300000*%
%ADD159C,1.400000*%
%ADD174C,0.750000*%
%ADD180C,0.550000*%
%ADD181C,5.000000*%
%ADD182R,1.400000X1.400000*%
%ADD183C,1.200000*%
%ADD184R,1.200000X1.200000*%
%ADD185C,2.100000*%
G90*G71*G01*D02*G54D10*X000000Y000000D02*X065000Y000000D01*X065000Y077000D01*
X000000Y077000D01*X000000Y000000D01*D02*G54D128*X000550Y000550D02*
X054200Y000550D01*X054200Y000550D02*X054200Y034050D01*X054200Y034050D02*
X064450Y034050D01*X064450Y034050D02*X064450Y076450D01*X064450Y076450D02*
X000550Y076450D01*X000550Y076450D02*X000550Y000550D01*X003950Y039670D02*
X003950Y041570D01*X003950Y041570D02*X002050Y041570D01*X002050Y041570D02*
X002050Y039670D01*X002050Y039670D02*X003950Y039670D01*X002607Y037130D02*
X003394Y037130D01*X003394Y037130D02*X003950Y037687D01*X003950Y037687D02*
X003950Y038474D01*X003950Y038474D02*X003394Y039030D01*X003394Y039030D02*
X002607Y039030D01*X002607Y039030D02*X002050Y038474D01*X002050Y038474D02*
X002050Y037687D01*X002050Y037687D02*X002607Y037130D01*X002607Y034590D02*
X003394Y034590D01*X003394Y034590D02*X003950Y035147D01*X003950Y035147D02*
X003950Y035934D01*X003950Y035934D02*X003394Y036490D01*X003394Y036490D02*
X002607Y036490D01*X002607Y036490D02*X002050Y035934D01*X002050Y035934D02*
X002050Y035147D01*X002050Y035147D02*X002607Y034590D01*X002607Y032050D02*
X003394Y032050D01*X003394Y032050D02*X003950Y032606D01*X003950Y032606D02*
X003950Y033394D01*X003950Y033394D02*X003394Y033950D01*X003394Y033950D02*
X002607Y033950D01*X002607Y033950D02*X002050Y033394D01*X002050Y033394D02*
X002050Y032606D01*X002050Y032606D02*X002607Y032050D01*X002607Y029510D02*
X003394Y029510D01*X003394Y029510D02*X003950Y030067D01*X003950Y030067D02*
X003950Y030854D01*X003950Y030854D02*X003394Y031410D01*X003394Y031410D02*
X002607Y031410D01*X002607Y031410D02*X002050Y030854D01*X002050Y030854D02*
X002050Y030067D01*X002050Y030067D02*X002607Y029510D01*X002607Y026970D02*
X003394Y026970D01*X003394Y026970D02*X003950Y027527D01*X003950Y027527D02*
X003950Y028314D01*X003950Y028314D02*X003394Y028870D01*X003394Y028870D02*
X002607Y028870D01*X002607Y028870D02*X002050Y028314D01*X002050Y028314D02*
X002050Y027527D01*X002050Y027527D02*X002607Y026970D01*X002607Y024430D02*
X003394Y024430D01*X003394Y024430D02*X003950Y024987D01*X003950Y024987D02*
X003950Y025774D01*X003950Y025774D02*X003394Y026330D01*X003394Y026330D02*
X002607Y026330D01*X002607Y026330D02*X002050Y025774D01*X002050Y025774D02*
X002050Y024987D01*X002050Y024987D02*X002607Y024430D01*X003950Y018130D02*
X003950Y020030D01*X003950Y020030D02*X002050Y020030D01*X002050Y020030D02*
X002050Y018130D01*X002050Y018130D02*X003950Y018130D01*X002607Y015590D02*
X003394Y015590D01*X003394Y015590D02*X003950Y016147D01*X003950Y016147D02*
X003950Y016934D01*X003950Y016934D02*X003394Y017490D01*X003394Y017490D02*
X002607Y017490D01*X002607Y017490D02*X002050Y016934D01*X002050Y016934D02*
X002050Y016147D01*X002050Y016147D02*X002607Y015590D01*X002607Y013050D02*
X003394Y013050D01*X003394Y013050D02*X003950Y013607D01*X003950Y013607D02*
X003950Y014394D01*X003950Y014394D02*X003394Y014950D01*X003394Y014950D02*
X002607Y014950D01*X002607Y014950D02*X002050Y014394D01*X002050Y014394D02*
X002050Y013607D01*X002050Y013607D02*X002607Y013050D01*X002607Y010510D02*
X003394Y010510D01*X003394Y010510D02*X003950Y011067D01*X003950Y011067D02*
X003950Y011854D01*X003950Y011854D02*X003394Y012410D01*X003394Y012410D02*
X002607Y012410D01*X002607Y012410D02*X002050Y011854D01*X002050Y011854D02*
X002050Y011067D01*X002050Y011067D02*X002607Y010510D01*X002607Y007970D02*
X003394Y007970D01*X003394Y007970D02*X003950Y008527D01*X003950Y008527D02*
X003950Y009314D01*X003950Y009314D02*X003394Y009870D01*X003394Y009870D02*
X002607Y009870D01*X002607Y009870D02*X002050Y009314D01*X002050Y009314D02*
X002050Y008527D01*X002050Y008527D02*X002607Y007970D01*X004783Y028475D02*
X005218Y028475D01*X005218Y028475D02*X005525Y028783D01*X005525Y028783D02*
X005525Y029218D01*X005525Y029218D02*X005243Y029500D01*X005243Y029500D02*
X005525Y029783D01*X005525Y029783D02*X005525Y030218D01*X005525Y030218D02*
X005218Y030525D01*X005218Y030525D02*X004783Y030525D01*X004783Y030525D02*
X004475Y030218D01*X004475Y030218D02*X004475Y029783D01*X004475Y029783D02*
X004757Y029500D01*X004757Y029500D02*X004475Y029218D01*X004475Y029218D02*
X004475Y028783D01*X004475Y028783D02*X004783Y028475D01*X004783Y016475D02*
X005218Y016475D01*X005218Y016475D02*X005525Y016783D01*X005525Y016783D02*
X005525Y017218D01*X005525Y017218D02*X005218Y017525D01*X005218Y017525D02*
X004783Y017525D01*X004783Y017525D02*X004475Y017218D01*X004475Y017218D02*
X004475Y016783D01*X004475Y016783D02*X004783Y016475D01*X005783Y039475D02*
X006218Y039475D01*X006218Y039475D02*X006525Y039783D01*X006525Y039783D02*
X006525Y040218D01*X006525Y040218D02*X006218Y040525D01*X006218Y040525D02*
X005783Y040525D01*X005783Y040525D02*X005475Y040218D01*X005475Y040218D02*
X005475Y039783D01*X005475Y039783D02*X005783Y039475D01*X005783Y034475D02*
X006218Y034475D01*X006218Y034475D02*X006525Y034783D01*X006525Y034783D02*
X006525Y035218D01*X006525Y035218D02*X006243Y035500D01*X006243Y035500D02*
X006525Y035783D01*X006525Y035783D02*X006525Y036218D01*X006525Y036218D02*
X006218Y036525D01*X006218Y036525D02*X005783Y036525D01*X005783Y036525D02*
X005475Y036218D01*X005475Y036218D02*X005475Y035783D01*X005475Y035783D02*
X005757Y035500D01*X005757Y035500D02*X005475Y035218D01*X005475Y035218D02*
X005475Y034783D01*X005475Y034783D02*X005783Y034475D01*X006783Y032475D02*
X007218Y032475D01*X007218Y032475D02*X007525Y032783D01*X007525Y032783D02*
X007525Y033218D01*X007525Y033218D02*X007218Y033525D01*X007218Y033525D02*
X006783Y033525D01*X006783Y033525D02*X006475Y033218D01*X006475Y033218D02*
X006475Y032783D01*X006475Y032783D02*X006783Y032475D01*X006783Y008475D02*
X007218Y008475D01*X007218Y008475D02*X007525Y008783D01*X007525Y008783D02*
X007525Y009218D01*X007525Y009218D02*X007243Y009500D01*X007243Y009500D02*
X007525Y009783D01*X007525Y009783D02*X007525Y010218D01*X007525Y010218D02*
X007218Y010525D01*X007218Y010525D02*X006783Y010525D01*X006783Y010525D02*
X006475Y010218D01*X006475Y010218D02*X006475Y009783D01*X006475Y009783D02*
X006757Y009500D01*X006757Y009500D02*X006475Y009218D01*X006475Y009218D02*
X006475Y008783D01*X006475Y008783D02*X006783Y008475D01*X007783Y068475D02*
X008218Y068475D01*X008218Y068475D02*X008525Y068783D01*X008525Y068783D02*
X008525Y069218D01*X008525Y069218D02*X008218Y069525D01*X008218Y069525D02*
X007783Y069525D01*X007783Y069525D02*X007475Y069218D01*X007475Y069218D02*
X007475Y068783D01*X007475Y068783D02*X007783Y068475D01*X010783Y063475D02*
X011218Y063475D01*X011218Y063475D02*X011500Y063757D01*X011500Y063757D02*
X011783Y063475D01*X011783Y063475D02*X012218Y063475D01*X012218Y063475D02*
X012525Y063783D01*X012525Y063783D02*X012525Y064218D01*X012525Y064218D02*
X012218Y064525D01*X012218Y064525D02*X011783Y064525D01*X011783Y064525D02*
X011500Y064243D01*X011500Y064243D02*X011218Y064525D01*X011218Y064525D02*
X010783Y064525D01*X010783Y064525D02*X010475Y064218D01*X010475Y064218D02*
X010475Y063783D01*X010475Y063783D02*X010783Y063475D01*X010783Y044475D02*
X011218Y044475D01*X011218Y044475D02*X011500Y044757D01*X011500Y044757D02*
X011783Y044475D01*X011783Y044475D02*X012218Y044475D01*X012218Y044475D02*
X012525Y044783D01*X012525Y044783D02*X012525Y045218D01*X012525Y045218D02*
X012218Y045525D01*X012218Y045525D02*X011783Y045525D01*X011783Y045525D02*
X011500Y045243D01*X011500Y045243D02*X011218Y045525D01*X011218Y045525D02*
X010783Y045525D01*X010783Y045525D02*X010475Y045218D01*X010475Y045218D02*
X010475Y044783D01*X010475Y044783D02*X010783Y044475D01*X010783Y021475D02*
X011218Y021475D01*X011218Y021475D02*X011525Y021783D01*X011525Y021783D02*
X011525Y022218D01*X011525Y022218D02*X011218Y022525D01*X011218Y022525D02*
X010783Y022525D01*X010783Y022525D02*X010475Y022218D01*X010475Y022218D02*
X010475Y021783D01*X010475Y021783D02*X010783Y021475D01*X010783Y019475D02*
X011218Y019475D01*X011218Y019475D02*X011525Y019783D01*X011525Y019783D02*
X011525Y020218D01*X011525Y020218D02*X011218Y020525D01*X011218Y020525D02*
X010783Y020525D01*X010783Y020525D02*X010475Y020218D01*X010475Y020218D02*
X010475Y019783D01*X010475Y019783D02*X010783Y019475D01*X011783Y034475D02*
X012218Y034475D01*X012218Y034475D02*X012525Y034783D01*X012525Y034783D02*
X012525Y035218D01*X012525Y035218D02*X012243Y035500D01*X012243Y035500D02*
X012525Y035783D01*X012525Y035783D02*X012525Y036218D01*X012525Y036218D02*
X012218Y036525D01*X012218Y036525D02*X011783Y036525D01*X011783Y036525D02*
X011475Y036218D01*X011475Y036218D02*X011475Y035783D01*X011475Y035783D02*
X011757Y035500D01*X011757Y035500D02*X011475Y035218D01*X011475Y035218D02*
X011475Y034783D01*X011475Y034783D02*X011783Y034475D01*X012378Y027460D02*
X013082Y027460D01*X013082Y027460D02*X013580Y027958D01*X013580Y027958D02*
X013580Y028662D01*X013580Y028662D02*X013082Y029160D01*X013082Y029160D02*
X012378Y029160D01*X012378Y029160D02*X011880Y028662D01*X011880Y028662D02*
X011880Y027958D01*X011880Y027958D02*X012378Y027460D01*X012378Y019840D02*
X013082Y019840D01*X013082Y019840D02*X013580Y020338D01*X013580Y020338D02*
X013580Y021042D01*X013580Y021042D02*X013082Y021540D01*X013082Y021540D02*
X012378Y021540D01*X012378Y021540D02*X011880Y021042D01*X011880Y021042D02*
X011880Y020338D01*X011880Y020338D02*X012378Y019840D01*X012783Y014475D02*
X013218Y014475D01*X013218Y014475D02*X013525Y014783D01*X013525Y014783D02*
X013525Y015218D01*X013525Y015218D02*X013218Y015525D01*X013218Y015525D02*
X012783Y015525D01*X012783Y015525D02*X012475Y015218D01*X012475Y015218D02*
X012475Y014783D01*X012475Y014783D02*X012783Y014475D01*X013783Y063475D02*
X014218Y063475D01*X014218Y063475D02*X014500Y063757D01*X014500Y063757D02*
X014783Y063475D01*X014783Y063475D02*X015218Y063475D01*X015218Y063475D02*
X015525Y063783D01*X015525Y063783D02*X015525Y064218D01*X015525Y064218D02*
X015218Y064525D01*X015218Y064525D02*X014783Y064525D01*X014783Y064525D02*
X014500Y064243D01*X014500Y064243D02*X014218Y064525D01*X014218Y064525D02*
X013783Y064525D01*X013783Y064525D02*X013475Y064218D01*X013475Y064218D02*
X013475Y063783D01*X013475Y063783D02*X013783Y063475D01*X013783Y044475D02*
X014218Y044475D01*X014218Y044475D02*X014500Y044757D01*X014500Y044757D02*
X014783Y044475D01*X014783Y044475D02*X015218Y044475D01*X015218Y044475D02*
X015525Y044783D01*X015525Y044783D02*X015525Y045218D01*X015525Y045218D02*
X015218Y045525D01*X015218Y045525D02*X014783Y045525D01*X014783Y045525D02*
X014500Y045243D01*X014500Y045243D02*X014218Y045525D01*X014218Y045525D02*
X013783Y045525D01*X013783Y045525D02*X013475Y045218D01*X013475Y045218D02*
X013475Y044783D01*X013475Y044783D02*X013783Y044475D01*X013783Y037475D02*
X014218Y037475D01*X014218Y037475D02*X014525Y037783D01*X014525Y037783D02*
X014525Y038218D01*X014525Y038218D02*X014243Y038500D01*X014243Y038500D02*
X014525Y038783D01*X014525Y038783D02*X014525Y039218D01*X014525Y039218D02*
X014218Y039525D01*X014218Y039525D02*X013783Y039525D01*X013783Y039525D02*
X013475Y039218D01*X013475Y039218D02*X013475Y038783D01*X013475Y038783D02*
X013757Y038500D01*X013757Y038500D02*X013475Y038218D01*X013475Y038218D02*
X013475Y037783D01*X013475Y037783D02*X013783Y037475D01*X013783Y034475D02*
X014218Y034475D01*X014218Y034475D02*X014525Y034783D01*X014525Y034783D02*
X014525Y035218D01*X014525Y035218D02*X014243Y035500D01*X014243Y035500D02*
X014525Y035783D01*X014525Y035783D02*X014525Y036218D01*X014525Y036218D02*
X014218Y036525D01*X014218Y036525D02*X013783Y036525D01*X013783Y036525D02*
X013475Y036218D01*X013475Y036218D02*X013475Y035783D01*X013475Y035783D02*
X013757Y035500D01*X013757Y035500D02*X013475Y035218D01*X013475Y035218D02*
X013475Y034783D01*X013475Y034783D02*X013783Y034475D01*X013783Y032475D02*
X014218Y032475D01*X014218Y032475D02*X014525Y032783D01*X014525Y032783D02*
X014525Y033218D01*X014525Y033218D02*X014218Y033525D01*X014218Y033525D02*
X013783Y033525D01*X013783Y033525D02*X013475Y033218D01*X013475Y033218D02*
X013475Y032783D01*X013475Y032783D02*X013783Y032475D01*X016120Y027460D02*
X016120Y029160D01*X016120Y029160D02*X014420Y029160D01*X014420Y029160D02*
X014420Y027460D01*X014420Y027460D02*X016120Y027460D01*X014918Y019840D02*
X015622Y019840D01*X015622Y019840D02*X016120Y020338D01*X016120Y020338D02*
X016120Y021042D01*X016120Y021042D02*X015622Y021540D01*X015622Y021540D02*
X014918Y021540D01*X014918Y021540D02*X014420Y021042D01*X014420Y021042D02*
X014420Y020338D01*X014420Y020338D02*X014918Y019840D01*X014783Y014475D02*
X015218Y014475D01*X015218Y014475D02*X015525Y014783D01*X015525Y014783D02*
X015525Y015218D01*X015525Y015218D02*X015218Y015525D01*X015218Y015525D02*
X014783Y015525D01*X014783Y015525D02*X014475Y015218D01*X014475Y015218D02*
X014475Y014783D01*X014475Y014783D02*X014783Y014475D01*X016783Y063475D02*
X017218Y063475D01*X017218Y063475D02*X017500Y063757D01*X017500Y063757D02*
X017783Y063475D01*X017783Y063475D02*X018218Y063475D01*X018218Y063475D02*
X018525Y063783D01*X018525Y063783D02*X018525Y064218D01*X018525Y064218D02*
X018218Y064525D01*X018218Y064525D02*X017783Y064525D01*X017783Y064525D02*
X017500Y064243D01*X017500Y064243D02*X017218Y064525D01*X017218Y064525D02*
X016783Y064525D01*X016783Y064525D02*X016475Y064218D01*X016475Y064218D02*
X016475Y063783D01*X016475Y063783D02*X016783Y063475D01*X017783Y059475D02*
X018218Y059475D01*X018218Y059475D02*X018500Y059757D01*X018500Y059757D02*
X018783Y059475D01*X018783Y059475D02*X019218Y059475D01*X019218Y059475D02*
X019525Y059783D01*X019525Y059783D02*X019525Y060218D01*X019525Y060218D02*
X019218Y060525D01*X019218Y060525D02*X018783Y060525D01*X018783Y060525D02*
X018500Y060243D01*X018500Y060243D02*X018218Y060525D01*X018218Y060525D02*
X017783Y060525D01*X017783Y060525D02*X017475Y060218D01*X017475Y060218D02*
X017475Y059783D01*X017475Y059783D02*X017783Y059475D01*X017783Y012475D02*
X018218Y012475D01*X018218Y012475D02*X018525Y012783D01*X018525Y012783D02*
X018525Y013218D01*X018525Y013218D02*X018218Y013525D01*X018218Y013525D02*
X017783Y013525D01*X017783Y013525D02*X017475Y013218D01*X017475Y013218D02*
X017475Y012783D01*X017475Y012783D02*X017783Y012475D01*X019783Y063475D02*
X020218Y063475D01*X020218Y063475D02*X020525Y063783D01*X020525Y063783D02*
X020525Y064218D01*X020525Y064218D02*X020218Y064525D01*X020218Y064525D02*
X019783Y064525D01*X019783Y064525D02*X019475Y064218D01*X019475Y064218D02*
X019475Y063783D01*X019475Y063783D02*X019783Y063475D01*X019783Y044475D02*
X020218Y044475D01*X020218Y044475D02*X020500Y044757D01*X020500Y044757D02*
X020783Y044475D01*X020783Y044475D02*X021218Y044475D01*X021218Y044475D02*
X021525Y044783D01*X021525Y044783D02*X021525Y045218D01*X021525Y045218D02*
X021218Y045525D01*X021218Y045525D02*X020783Y045525D01*X020783Y045525D02*
X020500Y045243D01*X020500Y045243D02*X020218Y045525D01*X020218Y045525D02*
X019783Y045525D01*X019783Y045525D02*X019475Y045218D01*X019475Y045218D02*
X019475Y044783D01*X019475Y044783D02*X019783Y044475D01*X018783Y014475D02*
X019218Y014475D01*X019218Y014475D02*X019500Y014757D01*X019500Y014757D02*
X019783Y014475D01*X019783Y014475D02*X020218Y014475D01*X020218Y014475D02*
X020525Y014783D01*X020525Y014783D02*X020525Y015218D01*X020525Y015218D02*
X020218Y015525D01*X020218Y015525D02*X019783Y015525D01*X019783Y015525D02*
X019500Y015243D01*X019500Y015243D02*X019218Y015525D01*X019218Y015525D02*
X018783Y015525D01*X018783Y015525D02*X018475Y015218D01*X018475Y015218D02*
X018475Y014783D01*X018475Y014783D02*X018783Y014475D01*X023783Y063475D02*
X024218Y063475D01*X024218Y063475D02*X024525Y063783D01*X024525Y063783D02*
X024525Y064218D01*X024525Y064218D02*X024218Y064525D01*X024218Y064525D02*
X023783Y064525D01*X023783Y064525D02*X023475Y064218D01*X023475Y064218D02*
X023475Y063783D01*X023475Y063783D02*X023783Y063475D01*X022783Y044475D02*
X023218Y044475D01*X023218Y044475D02*X023500Y044757D01*X023500Y044757D02*
X023783Y044475D01*X023783Y044475D02*X024218Y044475D01*X024218Y044475D02*
X024525Y044783D01*X024525Y044783D02*X024525Y045218D01*X024525Y045218D02*
X024218Y045525D01*X024218Y045525D02*X023783Y045525D01*X023783Y045525D02*
X023500Y045243D01*X023500Y045243D02*X023218Y045525D01*X023218Y045525D02*
X022783Y045525D01*X022783Y045525D02*X022475Y045218D01*X022475Y045218D02*
X022475Y044783D01*X022475Y044783D02*X022783Y044475D01*X025783Y069475D02*
X026218Y069475D01*X026218Y069475D02*X026500Y069757D01*X026500Y069757D02*
X026783Y069475D01*X026783Y069475D02*X027218Y069475D01*X027218Y069475D02*
X027525Y069783D01*X027525Y069783D02*X027525Y070218D01*X027525Y070218D02*
X027218Y070525D01*X027218Y070525D02*X026783Y070525D01*X026783Y070525D02*
X026500Y070243D01*X026500Y070243D02*X026218Y070525D01*X026218Y070525D02*
X025783Y070525D01*X025783Y070525D02*X025475Y070218D01*X025475Y070218D02*
X025475Y069783D01*X025475Y069783D02*X025783Y069475D01*X025783Y063475D02*
X026218Y063475D01*X026218Y063475D02*X026500Y063757D01*X026500Y063757D02*
X026783Y063475D01*X026783Y063475D02*X027218Y063475D01*X027218Y063475D02*
X027525Y063783D01*X027525Y063783D02*X027525Y064218D01*X027525Y064218D02*
X027218Y064525D01*X027218Y064525D02*X026783Y064525D01*X026783Y064525D02*
X026500Y064243D01*X026500Y064243D02*X026218Y064525D01*X026218Y064525D02*
X025783Y064525D01*X025783Y064525D02*X025475Y064218D01*X025475Y064218D02*
X025475Y063783D01*X025475Y063783D02*X025783Y063475D01*X025783Y020475D02*
X026218Y020475D01*X026218Y020475D02*X026525Y020783D01*X026525Y020783D02*
X026525Y021218D01*X026525Y021218D02*X026218Y021525D01*X026218Y021525D02*
X025783Y021525D01*X025783Y021525D02*X025475Y021218D01*X025475Y021218D02*
X025475Y020783D01*X025475Y020783D02*X025783Y020475D01*X025283Y014475D02*
X025718Y014475D01*X025718Y014475D02*X026025Y014783D01*X026025Y014783D02*
X026025Y015218D01*X026025Y015218D02*X025718Y015525D01*X025718Y015525D02*
X025283Y015525D01*X025283Y015525D02*X024975Y015218D01*X024975Y015218D02*
X024975Y014783D01*X024975Y014783D02*X025283Y014475D01*X026783Y035475D02*
X027218Y035475D01*X027218Y035475D02*X027525Y035783D01*X027525Y035783D02*
X027525Y036218D01*X027525Y036218D02*X027218Y036525D01*X027218Y036525D02*
X026783Y036525D01*X026783Y036525D02*X026475Y036218D01*X026475Y036218D02*
X026475Y035783D01*X026475Y035783D02*X026783Y035475D01*X026783Y026475D02*
X027218Y026475D01*X027218Y026475D02*X027525Y026783D01*X027525Y026783D02*
X027525Y027218D01*X027525Y027218D02*X027218Y027525D01*X027218Y027525D02*
X026783Y027525D01*X026783Y027525D02*X026475Y027218D01*X026475Y027218D02*
X026475Y026783D01*X026475Y026783D02*X026783Y026475D01*X027783Y021475D02*
X028218Y021475D01*X028218Y021475D02*X028525Y021783D01*X028525Y021783D02*
X028525Y022218D01*X028525Y022218D02*X028218Y022525D01*X028218Y022525D02*
X027783Y022525D01*X027783Y022525D02*X027475Y022218D01*X027475Y022218D02*
X027475Y021783D01*X027475Y021783D02*X027783Y021475D01*X028783Y031475D02*
X029218Y031475D01*X029218Y031475D02*X029525Y031783D01*X029525Y031783D02*
X029525Y032218D01*X029525Y032218D02*X029218Y032525D01*X029218Y032525D02*
X028783Y032525D01*X028783Y032525D02*X028475Y032218D01*X028475Y032218D02*
X028475Y031783D01*X028475Y031783D02*X028783Y031475D01*X029783Y038475D02*
X030218Y038475D01*X030218Y038475D02*X030525Y038783D01*X030525Y038783D02*
X030525Y039218D01*X030525Y039218D02*X030218Y039525D01*X030218Y039525D02*
X029783Y039525D01*X029783Y039525D02*X029475Y039218D01*X029475Y039218D02*
X029475Y038783D01*X029475Y038783D02*X029783Y038475D01*X030783Y057475D02*
X031218Y057475D01*X031218Y057475D02*X031525Y057783D01*X031525Y057783D02*
X031525Y058218D01*X031525Y058218D02*X031218Y058525D01*X031218Y058525D02*
X030783Y058525D01*X030783Y058525D02*X030475Y058218D01*X030475Y058218D02*
X030475Y057783D01*X030475Y057783D02*X030783Y057475D01*X030783Y020975D02*
X031218Y020975D01*X031218Y020975D02*X031525Y021283D01*X031525Y021283D02*
X031525Y021718D01*X031525Y021718D02*X031218Y022025D01*X031218Y022025D02*
X030783Y022025D01*X030783Y022025D02*X030475Y021718D01*X030475Y021718D02*
X030475Y021283D01*X030475Y021283D02*X030783Y020975D01*X031783Y058475D02*
X032218Y058475D01*X032218Y058475D02*X032500Y058757D01*X032500Y058757D02*
X032757Y058500D01*X032757Y058500D02*X032475Y058218D01*X032475Y058218D02*
X032475Y057783D01*X032475Y057783D02*X032783Y057475D01*X032783Y057475D02*
X033218Y057475D01*X033218Y057475D02*X033525Y057783D01*X033525Y057783D02*
X033525Y058218D01*X033525Y058218D02*X033243Y058500D01*X033243Y058500D02*
X033525Y058783D01*X033525Y058783D02*X033525Y059218D01*X033525Y059218D02*
X033218Y059525D01*X033218Y059525D02*X032783Y059525D01*X032783Y059525D02*
X032500Y059243D01*X032500Y059243D02*X032218Y059525D01*X032218Y059525D02*
X031783Y059525D01*X031783Y059525D02*X031475Y059218D01*X031475Y059218D02*
X031475Y058783D01*X031475Y058783D02*X031783Y058475D01*X031783Y044475D02*
X032218Y044475D01*X032218Y044475D02*X032500Y044757D01*X032500Y044757D02*
X032783Y044475D01*X032783Y044475D02*X033218Y044475D01*X033218Y044475D02*
X033525Y044783D01*X033525Y044783D02*X033525Y045218D01*X033525Y045218D02*
X033218Y045525D01*X033218Y045525D02*X032783Y045525D01*X032783Y045525D02*
X032500Y045243D01*X032500Y045243D02*X032218Y045525D01*X032218Y045525D02*
X031783Y045525D01*X031783Y045525D02*X031475Y045218D01*X031475Y045218D02*
X031475Y044783D01*X031475Y044783D02*X031783Y044475D01*X031783Y032475D02*
X032218Y032475D01*X032218Y032475D02*X032525Y032783D01*X032525Y032783D02*
X032525Y033218D01*X032525Y033218D02*X032218Y033525D01*X032218Y033525D02*
X031783Y033525D01*X031783Y033525D02*X031475Y033218D01*X031475Y033218D02*
X031475Y032783D01*X031475Y032783D02*X031783Y032475D01*X031783Y019475D02*
X032218Y019475D01*X032218Y019475D02*X032525Y019783D01*X032525Y019783D02*
X032525Y020218D01*X032525Y020218D02*X032218Y020525D01*X032218Y020525D02*
X031783Y020525D01*X031783Y020525D02*X031475Y020218D01*X031475Y020218D02*
X031475Y019783D01*X031475Y019783D02*X031783Y019475D01*X030783Y010475D02*
X031218Y010475D01*X031218Y010475D02*X031500Y010757D01*X031500Y010757D02*
X031783Y010475D01*X031783Y010475D02*X032218Y010475D01*X032218Y010475D02*
X032525Y010783D01*X032525Y010783D02*X032525Y011218D01*X032525Y011218D02*
X032243Y011500D01*X032243Y011500D02*X032525Y011783D01*X032525Y011783D02*
X032525Y012218D01*X032525Y012218D02*X032218Y012525D01*X032218Y012525D02*
X031783Y012525D01*X031783Y012525D02*X031475Y012218D01*X031475Y012218D02*
X031475Y011783D01*X031475Y011783D02*X031757Y011500D01*X031757Y011500D02*
X031500Y011243D01*X031500Y011243D02*X031218Y011525D01*X031218Y011525D02*
X030783Y011525D01*X030783Y011525D02*X030475Y011218D01*X030475Y011218D02*
X030475Y010783D01*X030475Y010783D02*X030783Y010475D01*X032627Y007100D02*
X033373Y007100D01*X033373Y007100D02*X033900Y007627D01*X033900Y007627D02*
X033900Y008373D01*X033900Y008373D02*X033373Y008900D01*X033373Y008900D02*
X032627Y008900D01*X032627Y008900D02*X032100Y008373D01*X032100Y008373D02*
X032100Y007627D01*X032100Y007627D02*X032627Y007100D01*X034783Y058475D02*
X035218Y058475D01*X035218Y058475D02*X035500Y058757D01*X035500Y058757D02*
X035757Y058500D01*X035757Y058500D02*X035475Y058218D01*X035475Y058218D02*
X035475Y057783D01*X035475Y057783D02*X035783Y057475D01*X035783Y057475D02*
X036218Y057475D01*X036218Y057475D02*X036525Y057783D01*X036525Y057783D02*
X036525Y058218D01*X036525Y058218D02*X036243Y058500D01*X036243Y058500D02*
X036525Y058783D01*X036525Y058783D02*X036525Y059218D01*X036525Y059218D02*
X036218Y059525D01*X036218Y059525D02*X035783Y059525D01*X035783Y059525D02*
X035500Y059243D01*X035500Y059243D02*X035218Y059525D01*X035218Y059525D02*
X034783Y059525D01*X034783Y059525D02*X034475Y059218D01*X034475Y059218D02*
X034475Y058783D01*X034475Y058783D02*X034783Y058475D01*X035783Y055475D02*
X036218Y055475D01*X036218Y055475D02*X036525Y055783D01*X036525Y055783D02*
X036525Y056218D01*X036525Y056218D02*X036218Y056525D01*X036218Y056525D02*
X035783Y056525D01*X035783Y056525D02*X035475Y056218D01*X035475Y056218D02*
X035475Y055783D01*X035475Y055783D02*X035783Y055475D01*X034783Y044475D02*
X035218Y044475D01*X035218Y044475D02*X035500Y044757D01*X035500Y044757D02*
X035783Y044475D01*X035783Y044475D02*X036218Y044475D01*X036218Y044475D02*
X036525Y044783D01*X036525Y044783D02*X036525Y045218D01*X036525Y045218D02*
X036218Y045525D01*X036218Y045525D02*X035783Y045525D01*X035783Y045525D02*
X035500Y045243D01*X035500Y045243D02*X035218Y045525D01*X035218Y045525D02*
X034783Y045525D01*X034783Y045525D02*X034475Y045218D01*X034475Y045218D02*
X034475Y044783D01*X034475Y044783D02*X034783Y044475D01*X033783Y032475D02*
X034218Y032475D01*X034218Y032475D02*X034500Y032757D01*X034500Y032757D02*
X034783Y032475D01*X034783Y032475D02*X035218Y032475D01*X035218Y032475D02*
X035525Y032783D01*X035525Y032783D02*X035525Y033218D01*X035525Y033218D02*
X035218Y033525D01*X035218Y033525D02*X034783Y033525D01*X034783Y033525D02*
X034500Y033243D01*X034500Y033243D02*X034218Y033525D01*X034218Y033525D02*
X033783Y033525D01*X033783Y033525D02*X033475Y033218D01*X033475Y033218D02*
X033475Y032783D01*X033475Y032783D02*X033783Y032475D01*X033783Y014475D02*
X034218Y014475D01*X034218Y014475D02*X034525Y014783D01*X034525Y014783D02*
X034525Y015218D01*X034525Y015218D02*X034218Y015525D01*X034218Y015525D02*
X033783Y015525D01*X033783Y015525D02*X033475Y015218D01*X033475Y015218D02*
X033475Y014783D01*X033475Y014783D02*X033783Y014475D01*X034783Y016475D02*
X035218Y016475D01*X035218Y016475D02*X035525Y016783D01*X035525Y016783D02*
X035525Y017218D01*X035525Y017218D02*X035218Y017525D01*X035218Y017525D02*
X034783Y017525D01*X034783Y017525D02*X034475Y017218D01*X034475Y017218D02*
X034475Y016783D01*X034475Y016783D02*X034783Y016475D01*X035627Y007100D02*
X036373Y007100D01*X036373Y007100D02*X036900Y007627D01*X036900Y007627D02*
X036900Y008373D01*X036900Y008373D02*X036373Y008900D01*X036373Y008900D02*
X035627Y008900D01*X035627Y008900D02*X035100Y008373D01*X035100Y008373D02*
X035100Y007627D01*X035100Y007627D02*X035627Y007100D01*X036783Y035475D02*
X037218Y035475D01*X037218Y035475D02*X037525Y035783D01*X037525Y035783D02*
X037525Y036218D01*X037525Y036218D02*X037218Y036525D01*X037218Y036525D02*
X036783Y036525D01*X036783Y036525D02*X036475Y036218D01*X036475Y036218D02*
X036475Y035783D01*X036475Y035783D02*X036783Y035475D01*X036783Y024475D02*
X037218Y024475D01*X037218Y024475D02*X037525Y024783D01*X037525Y024783D02*
X037525Y025218D01*X037525Y025218D02*X037218Y025525D01*X037218Y025525D02*
X036783Y025525D01*X036783Y025525D02*X036475Y025218D01*X036475Y025218D02*
X036475Y024783D01*X036475Y024783D02*X036783Y024475D01*X038783Y027475D02*
X039218Y027475D01*X039218Y027475D02*X039500Y027757D01*X039500Y027757D02*
X039757Y027500D01*X039757Y027500D02*X039475Y027218D01*X039475Y027218D02*
X039475Y026783D01*X039475Y026783D02*X039783Y026475D01*X039783Y026475D02*
X040218Y026475D01*X040218Y026475D02*X040525Y026783D01*X040525Y026783D02*
X040525Y027218D01*X040525Y027218D02*X040243Y027500D01*X040243Y027500D02*
X040525Y027783D01*X040525Y027783D02*X040525Y028218D01*X040525Y028218D02*
X040218Y028525D01*X040218Y028525D02*X039783Y028525D01*X039783Y028525D02*
X039500Y028243D01*X039500Y028243D02*X039218Y028525D01*X039218Y028525D02*
X038783Y028525D01*X038783Y028525D02*X038475Y028218D01*X038475Y028218D02*
X038475Y027783D01*X038475Y027783D02*X038783Y027475D01*X038783Y024475D02*
X039218Y024475D01*X039218Y024475D02*X039525Y024783D01*X039525Y024783D02*
X039525Y025218D01*X039525Y025218D02*X039218Y025525D01*X039218Y025525D02*
X038783Y025525D01*X038783Y025525D02*X038475Y025218D01*X038475Y025218D02*
X038475Y024783D01*X038475Y024783D02*X038783Y024475D01*X038627Y007100D02*
X039373Y007100D01*X039373Y007100D02*X039900Y007627D01*X039900Y007627D02*
X039900Y008373D01*X039900Y008373D02*X039373Y008900D01*X039373Y008900D02*
X038627Y008900D01*X038627Y008900D02*X038100Y008373D01*X038100Y008373D02*
X038100Y007627D01*X038100Y007627D02*X038627Y007100D01*X039783Y020475D02*
X040218Y020475D01*X040218Y020475D02*X040525Y020783D01*X040525Y020783D02*
X040525Y021218D01*X040525Y021218D02*X040218Y021525D01*X040218Y021525D02*
X039783Y021525D01*X039783Y021525D02*X039475Y021218D01*X039475Y021218D02*
X039475Y020783D01*X039475Y020783D02*X039783Y020475D01*X042783Y066475D02*
X043218Y066475D01*X043218Y066475D02*X043525Y066783D01*X043525Y066783D02*
X043525Y067218D01*X043525Y067218D02*X043218Y067525D01*X043218Y067525D02*
X042783Y067525D01*X042783Y067525D02*X042475Y067218D01*X042475Y067218D02*
X042475Y066783D01*X042475Y066783D02*X042783Y066475D01*X043783Y060475D02*
X044218Y060475D01*X044218Y060475D02*X044525Y060783D01*X044525Y060783D02*
X044525Y061218D01*X044525Y061218D02*X044218Y061525D01*X044218Y061525D02*
X043783Y061525D01*X043783Y061525D02*X043475Y061218D01*X043475Y061218D02*
X043475Y060783D01*X043475Y060783D02*X043783Y060475D01*X043783Y044475D02*
X044218Y044475D01*X044218Y044475D02*X044500Y044757D01*X044500Y044757D02*
X044783Y044475D01*X044783Y044475D02*X045218Y044475D01*X045218Y044475D02*
X045525Y044783D01*X045525Y044783D02*X045525Y045218D01*X045525Y045218D02*
X045218Y045525D01*X045218Y045525D02*X044783Y045525D01*X044783Y045525D02*
X044500Y045243D01*X044500Y045243D02*X044218Y045525D01*X044218Y045525D02*
X043783Y045525D01*X043783Y045525D02*X043475Y045218D01*X043475Y045218D02*
X043475Y044783D01*X043475Y044783D02*X043783Y044475D01*X043950Y038590D02*
X043950Y040490D01*X043950Y040490D02*X042050Y040490D01*X042050Y040490D02*
X042050Y038590D01*X042050Y038590D02*X043950Y038590D01*X042607Y036050D02*
X043394Y036050D01*X043394Y036050D02*X043950Y036607D01*X043950Y036607D02*
X043950Y037394D01*X043950Y037394D02*X043394Y037950D01*X043394Y037950D02*
X042607Y037950D01*X042607Y037950D02*X042050Y037394D01*X042050Y037394D02*
X042050Y036607D01*X042050Y036607D02*X042607Y036050D01*X042607Y033510D02*
X043394Y033510D01*X043394Y033510D02*X043950Y034067D01*X043950Y034067D02*
X043950Y034854D01*X043950Y034854D02*X043394Y035410D01*X043394Y035410D02*
X042607Y035410D01*X042607Y035410D02*X042050Y034854D01*X042050Y034854D02*
X042050Y034067D01*X042050Y034067D02*X042607Y033510D01*X041627Y007100D02*
X042373Y007100D01*X042373Y007100D02*X042900Y007627D01*X042900Y007627D02*
X042900Y008373D01*X042900Y008373D02*X042373Y008900D01*X042373Y008900D02*
X041627Y008900D01*X041627Y008900D02*X041100Y008373D01*X041100Y008373D02*
X041100Y007627D01*X041100Y007627D02*X041627Y007100D01*X047783Y067475D02*
X048218Y067475D01*X048218Y067475D02*X048525Y067783D01*X048525Y067783D02*
X048525Y068218D01*X048525Y068218D02*X048218Y068525D01*X048218Y068525D02*
X047783Y068525D01*X047783Y068525D02*X047475Y068218D01*X047475Y068218D02*
X047475Y067783D01*X047475Y067783D02*X047783Y067475D01*X046783Y044475D02*
X047218Y044475D01*X047218Y044475D02*X047500Y044757D01*X047500Y044757D02*
X047783Y044475D01*X047783Y044475D02*X048218Y044475D01*X048218Y044475D02*
X048525Y044783D01*X048525Y044783D02*X048525Y045218D01*X048525Y045218D02*
X048218Y045525D01*X048218Y045525D02*X047783Y045525D01*X047783Y045525D02*
X047500Y045243D01*X047500Y045243D02*X047218Y045525D01*X047218Y045525D02*
X046783Y045525D01*X046783Y045525D02*X046475Y045218D01*X046475Y045218D02*
X046475Y044783D01*X046475Y044783D02*X046783Y044475D01*X045922Y015240D02*
X046999Y015240D01*X046999Y015240D02*X047760Y016002D01*X047760Y016002D02*
X047760Y017079D01*X047760Y017079D02*X046999Y017840D01*X046999Y017840D02*
X045922Y017840D01*X045922Y017840D02*X045160Y017079D01*X045160Y017079D02*
X045160Y016002D01*X045160Y016002D02*X045922Y015240D01*X045922Y010160D02*
X046999Y010160D01*X046999Y010160D02*X047760Y010922D01*X047760Y010922D02*
X047760Y011999D01*X047760Y011999D02*X046999Y012760D01*X046999Y012760D02*
X045922Y012760D01*X045922Y012760D02*X045160Y011999D01*X045160Y011999D02*
X045160Y010922D01*X045160Y010922D02*X045922Y010160D01*X049783Y044475D02*
X050218Y044475D01*X050218Y044475D02*X050500Y044757D01*X050500Y044757D02*
X050783Y044475D01*X050783Y044475D02*X051218Y044475D01*X051218Y044475D02*
X051525Y044783D01*X051525Y044783D02*X051525Y045218D01*X051525Y045218D02*
X051218Y045525D01*X051218Y045525D02*X050783Y045525D01*X050783Y045525D02*
X050500Y045243D01*X050500Y045243D02*X050218Y045525D01*X050218Y045525D02*
X049783Y045525D01*X049783Y045525D02*X049475Y045218D01*X049475Y045218D02*
X049475Y044783D01*X049475Y044783D02*X049783Y044475D01*X048462Y012700D02*
X049539Y012700D01*X049539Y012700D02*X050300Y013462D01*X050300Y013462D02*
X050300Y014539D01*X050300Y014539D02*X049539Y015300D01*X049539Y015300D02*
X048462Y015300D01*X048462Y015300D02*X047700Y014539D01*X047700Y014539D02*
X047700Y013462D01*X047700Y013462D02*X048462Y012700D01*X051002Y015240D02*
X052079Y015240D01*X052079Y015240D02*X052840Y016002D01*X052840Y016002D02*
X052840Y017079D01*X052840Y017079D02*X052079Y017840D01*X052079Y017840D02*
X051002Y017840D01*X051002Y017840D02*X050240Y017079D01*X050240Y017079D02*
X050240Y016002D01*X050240Y016002D02*X051002Y015240D01*X051002Y010160D02*
X052079Y010160D01*X052079Y010160D02*X052840Y010922D01*X052840Y010922D02*
X052840Y011999D01*X052840Y011999D02*X052079Y012760D01*X052079Y012760D02*
X051002Y012760D01*X051002Y012760D02*X050240Y011999D01*X050240Y011999D02*
X050240Y010922D01*X050240Y010922D02*X051002Y010160D01*X052783Y044475D02*
X053218Y044475D01*X053218Y044475D02*X053500Y044757D01*X053500Y044757D02*
X053783Y044475D01*X053783Y044475D02*X054218Y044475D01*X054218Y044475D02*
X054525Y044783D01*X054525Y044783D02*X054525Y045218D01*X054525Y045218D02*
X054218Y045525D01*X054218Y045525D02*X053783Y045525D01*X053783Y045525D02*
X053500Y045243D01*X053500Y045243D02*X053218Y045525D01*X053218Y045525D02*
X052783Y045525D01*X052783Y045525D02*X052475Y045218D01*X052475Y045218D02*
X052475Y044783D01*X052475Y044783D02*X052783Y044475D01*X060648Y066400D02*
X061352Y066400D01*X061352Y066400D02*X061850Y066898D01*X061850Y066898D02*
X061850Y067602D01*X061850Y067602D02*X061352Y068100D01*X061352Y068100D02*
X060648Y068100D01*X060648Y068100D02*X060150Y067602D01*X060150Y067602D02*
X060150Y066898D01*X060150Y066898D02*X060648Y066400D01*X061850Y064400D02*
X061850Y066100D01*X061850Y066100D02*X060150Y066100D01*X060150Y066100D02*
X060150Y064400D01*X060150Y064400D02*X061850Y064400D01*X060648Y048150D02*
X061352Y048150D01*X061352Y048150D02*X061850Y048648D01*X061850Y048648D02*
X061850Y049352D01*X061850Y049352D02*X061352Y049850D01*X061352Y049850D02*
X060648Y049850D01*X060648Y049850D02*X060150Y049352D01*X060150Y049352D02*
X060150Y048648D01*X060150Y048648D02*X060648Y048150D01*X061850Y046150D02*
X061850Y047850D01*X061850Y047850D02*X060150Y047850D01*X060150Y047850D02*
X060150Y046150D01*X060150Y046150D02*X061850Y046150D01*X060648Y037150D02*
X061352Y037150D01*X061352Y037150D02*X061850Y037648D01*X061850Y037648D02*
X061850Y038352D01*X061850Y038352D02*X061352Y038850D01*X061352Y038850D02*
X060648Y038850D01*X060648Y038850D02*X060150Y038352D01*X060150Y038352D02*
X060150Y037648D01*X060150Y037648D02*X060648Y037150D01*X061850Y035150D02*
X061850Y036850D01*X061850Y036850D02*X060150Y036850D01*X060150Y036850D02*
X060150Y035150D01*X060150Y035150D02*X061850Y035150D01*D02*G54D144*
X033000Y008000D03*X036000Y008000D03*X039000Y008000D03*X042000Y008000D03*D02*
G54D159*X003000Y011460D03*X003000Y008920D03*X003000Y014000D03*X003000Y016540D03*
X003000Y027920D03*X003000Y025380D03*X003000Y033000D03*X003000Y030460D03*
X003000Y035540D03*X043000Y034460D03*X043000Y037000D03*X003000Y038080D03*D02*
G54D174*X046460Y011460D02*X047760Y011460D01*X046460Y011460D02*X046460Y012760D01*
X046460Y011460D02*X045160Y011460D01*X046460Y011460D02*X046460Y010160D01*
X046460Y016540D02*X047760Y016540D01*X046460Y016540D02*X046460Y017840D01*
X046460Y016540D02*X045160Y016540D01*X046460Y016540D02*X046460Y015240D01*
X061000Y065250D02*X061850Y065250D01*X061000Y065250D02*X060150Y065250D01*
X061000Y065250D02*X061000Y064400D01*X003000Y008920D02*X003950Y008920D01*
X003000Y008920D02*X003000Y009870D01*X003000Y008920D02*X002050Y008920D01*
X003000Y008920D02*X003000Y007970D01*X003000Y025380D02*X003950Y025380D01*
X003000Y025380D02*X003000Y026330D01*X003000Y025380D02*X002050Y025380D01*
X003000Y025380D02*X003000Y024430D01*X043000Y034460D02*X043950Y034460D01*
X043000Y034460D02*X043000Y035410D01*X043000Y034460D02*X042050Y034460D01*
X043000Y034460D02*X043000Y033510D01*X051540Y016540D02*X052840Y016540D01*
X051540Y016540D02*X051540Y017840D01*X051540Y016540D02*X050240Y016540D01*
X051540Y016540D02*X051540Y015240D01*X051540Y011460D02*X052840Y011460D01*
X051540Y011460D02*X051540Y012760D01*X051540Y011460D02*X050240Y011460D01*
X051540Y011460D02*X051540Y010160D01*X015270Y028310D02*X016120Y028310D01*
X015270Y028310D02*X015270Y029160D01*X015270Y028310D02*X014420Y028310D01*
X015270Y028310D02*X015270Y027460D01*X012730Y028310D02*X013580Y028310D01*
X012730Y028310D02*X012730Y029160D01*X012730Y028310D02*X011880Y028310D01*
X012730Y028310D02*X012730Y027460D01*D02*G54D180*X010000Y002000D03*
X006000Y002000D03*X012000Y002000D03*X014000Y002000D03*X016000Y002000D03*
X018000Y002000D03*X020000Y002000D03*X022000Y002000D03*X024000Y002000D03*
X026000Y002000D03*X028000Y002000D03*X030000Y002000D03*X032000Y002000D03*
X034000Y002000D03*X035000Y002000D03*X038000Y002000D03*X040000Y002000D03*
X041000Y002000D03*X044000Y002000D03*X046000Y002000D03*X048000Y002000D03*
X052000Y002000D03*X050000Y002000D03*X004000Y006000D03*X002000Y006000D03*
X010000Y006000D03*X010000Y004000D03*X008000Y006000D03*X006000Y006000D03*
X006000Y004000D03*X012000Y004000D03*X014000Y004000D03*X016000Y004000D03*
X012000Y006000D03*X014000Y006000D03*X016000Y006000D03*X018000Y004000D03*
X020000Y004000D03*X018000Y006000D03*X020000Y006000D03*X022000Y006000D03*
X022000Y004000D03*X024000Y006000D03*X026000Y006000D03*X028000Y006000D03*
X024000Y004000D03*X026000Y004000D03*X028000Y004000D03*X030000Y006000D03*
X030000Y004000D03*X032000Y006000D03*X032000Y004000D03*X034000Y006000D03*
X034000Y004000D03*X040000Y006000D03*X038000Y006000D03*X038000Y004000D03*
X040000Y004000D03*X044000Y006000D03*X044000Y004000D03*X046000Y004000D03*
X046000Y006000D03*X048000Y004000D03*X048000Y006000D03*X052000Y006000D03*
X050000Y004000D03*X050000Y006000D03*X052000Y004000D03*X007000Y008000D03*
X010000Y008000D03*X007000Y009000D03*X007000Y010000D03*X020000Y008000D03*
X018000Y008000D03*X020000Y010000D03*X021000Y008000D03*X024000Y008000D03*
X026000Y008000D03*X028000Y008000D03*X032000Y011000D03*X031000Y011000D03*
X030000Y008000D03*X030000Y010000D03*X040000Y011000D03*X044000Y008000D03*
X046000Y008000D03*X048000Y008000D03*X044000Y010000D03*X048000Y010000D03*
X050000Y008000D03*X052000Y008000D03*X050000Y010000D03*X010000Y014000D03*
X013000Y015000D03*X015000Y015000D03*X020000Y015000D03*X019000Y015000D03*
X018000Y013000D03*X025500Y015000D03*X028000Y015000D03*X027000Y015000D03*
X024000Y013000D03*X034000Y015000D03*X032000Y012000D03*X035000Y015000D03*
X035000Y014000D03*X033000Y015000D03*X044000Y014000D03*X044000Y012000D03*
X005000Y017000D03*X010000Y016000D03*X005000Y016000D03*X021500Y017500D03*
X027875Y019125D03*X035000Y017000D03*X042000Y018250D03*X042000Y016000D03*
X039000Y018000D03*X040000Y018000D03*X048000Y018750D03*X047000Y018750D03*
X046000Y018750D03*X045000Y018750D03*X044000Y018750D03*X043000Y018250D03*
X044000Y016000D03*X053000Y018750D03*X050000Y018750D03*X051000Y018750D03*
X052000Y018750D03*X011000Y022000D03*X011000Y020000D03*X020000Y024000D03*
X026000Y021000D03*X028000Y021000D03*X028000Y022000D03*X031000Y021500D03*
X032000Y020000D03*X034750Y021250D03*X034750Y020250D03*X035750Y020250D03*
X034750Y022250D03*X035750Y022250D03*X035750Y021250D03*X040000Y021000D03*
X042000Y024000D03*X042000Y022250D03*X036750Y021250D03*X036750Y020250D03*
X036750Y022250D03*X043000Y022250D03*X044000Y021750D03*X048000Y024000D03*
X048000Y022000D03*X046000Y022000D03*X048000Y020750D03*X046000Y020750D03*
X045000Y020750D03*X052000Y024000D03*X050000Y024000D03*X050000Y022000D03*
X052000Y022000D03*X049000Y020750D03*X050000Y020750D03*X051000Y020750D03*
X052000Y020750D03*X053000Y020750D03*X010000Y026000D03*X010000Y028000D03*
X016000Y026000D03*X014000Y026000D03*X012000Y026000D03*X022000Y028000D03*
X022000Y026000D03*X018000Y028000D03*X018000Y026000D03*X020000Y025000D03*
X027000Y027000D03*X036000Y028000D03*X032000Y026000D03*X032000Y027000D03*
X032000Y025000D03*X040000Y028000D03*X040000Y027000D03*X037000Y025000D03*
X039000Y025000D03*X039000Y028000D03*X042000Y028000D03*X037000Y028000D03*
X042000Y025000D03*X044000Y028000D03*X046000Y028000D03*X048000Y028000D03*
X048000Y026000D03*X050000Y028000D03*X052000Y028000D03*X050000Y026000D03*
X052000Y026000D03*X005000Y030000D03*X005000Y029000D03*X028000Y032000D03*
X029000Y032000D03*X036000Y031000D03*X042000Y032000D03*X042000Y030000D03*
X044000Y032000D03*X046000Y032000D03*X048000Y032000D03*X044000Y030000D03*
X046000Y030000D03*X048000Y030000D03*X050000Y032000D03*X050000Y030000D03*
X052000Y032000D03*X052000Y030000D03*X006000Y036000D03*X006000Y035000D03*
X007000Y033000D03*X012000Y035000D03*X012000Y036000D03*X014000Y036000D03*
X014000Y033000D03*X014000Y035000D03*X018000Y033000D03*X023000Y033000D03*
X027000Y036000D03*X024000Y036000D03*X026000Y036000D03*X026000Y034000D03*
X024000Y034000D03*X028000Y034000D03*X028000Y033000D03*X034000Y033000D03*
X035000Y033000D03*X036000Y033000D03*X032000Y033000D03*X037000Y036000D03*
X054000Y036000D03*X053000Y035000D03*X064000Y036000D03*X008000Y038000D03*
X010000Y038000D03*X007000Y040000D03*X006000Y040000D03*X012000Y038000D03*
X012000Y040000D03*X014000Y040000D03*X016000Y040000D03*X014000Y038000D03*
X014000Y039000D03*X018000Y040000D03*X022000Y041000D03*X026000Y038000D03*
X024000Y038000D03*X024000Y040000D03*X026000Y040000D03*X030000Y037000D03*
X033000Y041000D03*X030000Y039000D03*X053000Y039000D03*X060000Y040000D03*
X058000Y040000D03*X062000Y040000D03*X064000Y040000D03*X064000Y038000D03*
X004000Y044000D03*X011000Y045000D03*X006000Y044000D03*X006000Y042000D03*
X010000Y044000D03*X010000Y042000D03*X012000Y045000D03*X014000Y045000D03*
X015000Y045000D03*X012000Y044000D03*X014000Y044000D03*X016000Y042000D03*
X014000Y042000D03*X012000Y042000D03*X020000Y045000D03*X021000Y045000D03*
X023000Y045000D03*X022000Y044000D03*X020000Y044000D03*X018000Y044000D03*
X022000Y042000D03*X020000Y042000D03*X018000Y042000D03*X024000Y045000D03*
X026000Y044000D03*X028000Y044000D03*X026000Y042000D03*X024000Y042000D03*
X028000Y042000D03*X029000Y042000D03*X035000Y045000D03*X036000Y045000D03*
X032000Y045000D03*X033000Y045000D03*X030000Y044000D03*X031000Y042000D03*
X035000Y044000D03*X030000Y042000D03*X042000Y044000D03*X040000Y044000D03*
X038000Y044000D03*X047000Y045000D03*X048000Y045000D03*X044000Y045000D03*
X045000Y045000D03*X051000Y045000D03*X050000Y045000D03*X054000Y045000D03*
X053000Y045000D03*X058000Y042000D03*X058000Y044000D03*X060000Y044000D03*
X060000Y042000D03*X062000Y044000D03*X062000Y042000D03*X064000Y042000D03*
X064000Y044000D03*X004000Y046000D03*X004000Y048000D03*X006000Y048000D03*
X006000Y046000D03*X010000Y046000D03*X010000Y048000D03*X016000Y046000D03*
X016000Y048000D03*X018000Y046000D03*X018000Y048000D03*X028000Y046000D03*
X026000Y046000D03*X028000Y048000D03*X026000Y048000D03*X030000Y046000D03*
X030000Y048000D03*X042000Y046000D03*X040000Y046000D03*X038000Y046000D03*
X064000Y046000D03*X064000Y048000D03*X004000Y050000D03*X004000Y054000D03*
X004000Y052000D03*X006000Y054000D03*X006000Y052000D03*X006000Y050000D03*
X010000Y050000D03*X009000Y053000D03*X011000Y051000D03*X012000Y051000D03*
X018000Y050000D03*X018000Y054000D03*X018000Y053000D03*X020000Y051000D03*
X021000Y051000D03*X028000Y050000D03*X028000Y052000D03*X028000Y054000D03*
X030000Y054000D03*X030000Y052000D03*X035000Y051000D03*X036000Y051000D03*
X040000Y052000D03*X042000Y052000D03*X042000Y050000D03*X048000Y052000D03*
X047000Y052000D03*X048000Y051000D03*X047000Y051000D03*X050000Y051000D03*
X051000Y051000D03*X056000Y052000D03*X058000Y052000D03*X060000Y052000D03*
X056000Y054000D03*X058000Y054000D03*X060000Y054000D03*X064000Y050000D03*
X062000Y052000D03*X064000Y052000D03*X062000Y054000D03*X064000Y054000D03*
X004000Y056000D03*X006000Y056000D03*X010000Y058000D03*X016000Y058000D03*
X016000Y056000D03*X018000Y056000D03*X018000Y057000D03*X028000Y056000D03*
X026000Y056000D03*X028000Y058000D03*X026000Y058000D03*X024000Y058000D03*
X024000Y056000D03*X033000Y058000D03*X031000Y058000D03*X036000Y056000D03*
X036000Y058000D03*X030000Y056000D03*X032000Y055000D03*X031000Y055000D03*
X043000Y055000D03*X060000Y056000D03*X056000Y058000D03*X058000Y058000D03*
X060000Y058000D03*X056000Y056000D03*X058000Y056000D03*X062000Y056000D03*
X064000Y056000D03*X062000Y058000D03*X064000Y058000D03*X010000Y062000D03*
X019000Y060000D03*X018000Y060000D03*X028000Y060000D03*X026000Y060000D03*
X024000Y060000D03*X035000Y059000D03*X036000Y059000D03*X033000Y059000D03*
X032000Y059000D03*X030000Y060000D03*X030000Y062000D03*X044000Y061000D03*
X047500Y062500D03*X046500Y062500D03*X046500Y061500D03*X047500Y061500D03*
X056000Y060000D03*X058000Y060000D03*X060000Y060000D03*X056000Y062000D03*
X058000Y062000D03*X060000Y062000D03*X055000Y059000D03*X062000Y060000D03*
X064000Y060000D03*X062000Y062000D03*X064000Y062000D03*X004000Y064000D03*
X004000Y066000D03*X011000Y064000D03*X010000Y066000D03*X010000Y064000D03*
X006000Y066000D03*X006000Y064000D03*X017000Y064000D03*X014000Y064000D03*
X015000Y064000D03*X012000Y064000D03*X016000Y064000D03*X020000Y064000D03*
X018000Y064000D03*X023000Y063000D03*X020000Y063000D03*X020000Y065000D03*
X024000Y064000D03*X027000Y064000D03*X026000Y064000D03*X028000Y064000D03*
X036000Y065000D03*X035000Y065000D03*X038000Y066000D03*X043000Y067000D03*
X044000Y066000D03*X044000Y064000D03*X048000Y066000D03*X054000Y064000D03*
X050000Y067000D03*X056000Y064000D03*X058000Y064000D03*X056000Y066000D03*
X058000Y066000D03*X064000Y064000D03*X064000Y066000D03*X004000Y070000D03*
X002000Y070000D03*X002000Y068000D03*X010000Y068000D03*X006000Y068000D03*
X008000Y069000D03*X016000Y070000D03*X016000Y068000D03*X017000Y070000D03*
X015000Y070000D03*X014000Y070000D03*X020000Y068000D03*X020000Y070000D03*
X021000Y068000D03*X020000Y071000D03*X018000Y070000D03*X028000Y070000D03*
X028000Y068000D03*X024000Y068000D03*X024000Y070000D03*X027000Y070000D03*
X026000Y070000D03*X036000Y070000D03*X036000Y068000D03*X035000Y070000D03*
X038000Y070000D03*X038000Y068000D03*X048000Y068000D03*X052000Y068000D03*
X054000Y068000D03*X056000Y068000D03*X058000Y068000D03*X060000Y070000D03*
X056000Y070000D03*X064000Y068000D03*X064000Y070000D03*X062000Y070000D03*
X008000Y074000D03*X006000Y074000D03*X006000Y072000D03*X016000Y074000D03*
X014000Y074000D03*X014000Y075000D03*X018000Y074000D03*X020000Y074000D03*
X022000Y074000D03*X024000Y074000D03*X026000Y074000D03*X028000Y074000D03*
X036000Y074000D03*X030000Y074000D03*X032000Y074000D03*X034000Y074000D03*
X038000Y074000D03*X040000Y074000D03*X042000Y074000D03*X048000Y072000D03*
X046000Y074000D03*X048000Y074000D03*X044000Y074000D03*X044000Y072000D03*
X054000Y072000D03*X052000Y072000D03*X050000Y072000D03*X050000Y074000D03*
X052000Y074000D03*X054000Y074000D03*X058000Y072000D03*X010000Y076000D03*
X008000Y076000D03*X006000Y076000D03*X016000Y076000D03*X014000Y076000D03*
X012000Y076000D03*X018000Y076000D03*X020000Y076000D03*X022000Y076000D03*
X024000Y076000D03*X026000Y076000D03*X028000Y076000D03*X032000Y076000D03*
X034000Y076000D03*X036000Y076000D03*X030000Y076000D03*X042000Y076000D03*
X038000Y076000D03*X040000Y076000D03*X044000Y076000D03*X046000Y076000D03*
X048000Y076000D03*X054000Y076000D03*X050000Y076000D03*X052000Y076000D03*
X000000Y000000D02*D02*G54D181*X003000Y003000D03*X062000Y003000D03*
X003000Y074000D03*X062000Y074000D03*D02*G54D182*X003000Y019080D03*
X003000Y040620D03*X043000Y039540D03*D02*G54D183*X015270Y020690D03*
X012730Y020690D03*X012730Y028310D03*X061000Y038000D03*X061000Y049000D03*
X061000Y067250D03*D02*G54D184*X015270Y028310D03*X061000Y036000D03*
X061000Y047000D03*X061000Y065250D03*D02*G54D185*X046460Y011460D03*
X051540Y011460D03*X049000Y014000D03*X046460Y016540D03*X051540Y016540D03*
G36*X000550Y000550D02*X054200Y000550D01*X054200Y034050D01*X064450Y034050D01*
X064450Y076450D01*X061352Y076450D01*X061352Y068100D01*X061850Y067602D01*
X061850Y064400D01*X061352Y064400D01*X061352Y049850D01*X061850Y049352D01*
X061850Y046150D01*X061352Y046150D01*X061352Y038850D01*X061850Y038352D01*
X061850Y035150D01*X060150Y035150D01*X060150Y036850D01*X061850Y036850D01*
X061850Y037648D01*X061352Y037150D01*X060648Y037150D01*X060150Y037648D01*
X060150Y038352D01*X060648Y038850D01*X061352Y038850D01*X061352Y046150D01*
X060150Y046150D01*X060150Y047850D01*X061850Y047850D01*X061850Y048648D01*
X061352Y048150D01*X060648Y048150D01*X060150Y048648D01*X060150Y049352D01*
X060648Y049850D01*X061352Y049850D01*X061352Y064400D01*X060150Y064400D01*
X060150Y066100D01*X061850Y066100D01*X061850Y066898D01*X061352Y066400D01*
X060648Y066400D01*X060150Y066898D01*X060150Y067602D01*X060648Y068100D01*
X061352Y068100D01*X061352Y076450D01*X054218Y076450D01*X054218Y045525D01*
X054525Y045218D01*X054525Y044783D01*X054218Y044475D01*X053783Y044475D01*
X053500Y044757D01*X053218Y044475D01*X052783Y044475D01*X052475Y044783D01*
X052475Y045218D01*X052783Y045525D01*X053218Y045525D01*X053500Y045243D01*
X053783Y045525D01*X054218Y045525D01*X054218Y076450D01*X052079Y076450D01*
X052079Y017840D01*X052840Y017079D01*X052840Y016002D01*X052079Y015240D01*
X052079Y012760D01*X052840Y011999D01*X052840Y010922D01*X052079Y010160D01*
X051002Y010160D01*X050240Y010922D01*X050240Y011999D01*X051002Y012760D01*
X052079Y012760D01*X052079Y015240D01*X051002Y015240D01*X050240Y016002D01*
X050240Y017079D01*X051002Y017840D01*X052079Y017840D01*X052079Y076450D01*
X051218Y076450D01*X051218Y045525D01*X051525Y045218D01*X051525Y044783D01*
X051218Y044475D01*X050783Y044475D01*X050500Y044757D01*X050218Y044475D01*
X049783Y044475D01*X049539Y044719D01*X049539Y015300D01*X050300Y014539D01*
X050300Y013462D01*X049539Y012700D01*X048462Y012700D01*X047700Y013462D01*
X047700Y014539D01*X048462Y015300D01*X049539Y015300D01*X049539Y044719D01*
X049475Y044783D01*X049475Y045218D01*X049783Y045525D01*X050218Y045525D01*
X050500Y045243D01*X050783Y045525D01*X051218Y045525D01*X051218Y076450D01*
X048218Y076450D01*X048218Y068525D01*X048525Y068218D01*X048525Y067783D01*
X048218Y067475D01*X048218Y045525D01*X048525Y045218D01*X048525Y044783D01*
X048218Y044475D01*X047783Y044475D01*X047500Y044757D01*X047218Y044475D01*
X046999Y044475D01*X046999Y017840D01*X047760Y017079D01*X047760Y016002D01*
X046999Y015240D01*X046999Y012760D01*X047760Y011999D01*X047760Y010922D01*
X046999Y010160D01*X045922Y010160D01*X045160Y010922D01*X045160Y011999D01*
X045922Y012760D01*X046999Y012760D01*X046999Y015240D01*X045922Y015240D01*
X045160Y016002D01*X045160Y017079D01*X045922Y017840D01*X046999Y017840D01*
X046999Y044475D01*X046783Y044475D01*X046475Y044783D01*X046475Y045218D01*
X046783Y045525D01*X047218Y045525D01*X047500Y045243D01*X047783Y045525D01*
X048218Y045525D01*X048218Y067475D01*X047783Y067475D01*X047475Y067783D01*
X047475Y068218D01*X047783Y068525D01*X048218Y068525D01*X048218Y076450D01*
X045218Y076450D01*X045218Y045525D01*X045525Y045218D01*X045525Y044783D01*
X045218Y044475D01*X044783Y044475D01*X044500Y044757D01*X044218Y044475D01*
X043950Y044475D01*X043950Y038590D01*X043394Y038590D01*X043394Y037950D01*
X043950Y037394D01*X043950Y036607D01*X043394Y036050D01*X043394Y035410D01*
X043950Y034854D01*X043950Y034067D01*X043394Y033510D01*X042607Y033510D01*
X042373Y033744D01*X042373Y008900D01*X042900Y008373D01*X042900Y007627D01*
X042373Y007100D01*X041627Y007100D01*X041100Y007627D01*X041100Y008373D01*
X041627Y008900D01*X042373Y008900D01*X042373Y033744D01*X042050Y034067D01*
X042050Y034854D01*X042607Y035410D01*X043394Y035410D01*X043394Y036050D01*
X042607Y036050D01*X042050Y036607D01*X042050Y037394D01*X042607Y037950D01*
X043394Y037950D01*X043394Y038590D01*X042050Y038590D01*X042050Y040490D01*
X043950Y040490D01*X043950Y044475D01*X043783Y044475D01*X043475Y044783D01*
X043475Y045218D01*X043783Y045525D01*X044218Y045525D01*X044500Y045243D01*
X044783Y045525D01*X045218Y045525D01*X045218Y076450D01*X044218Y076450D01*
X044218Y061525D01*X044525Y061218D01*X044525Y060783D01*X044218Y060475D01*
X043783Y060475D01*X043475Y060783D01*X043475Y061218D01*X043783Y061525D01*
X044218Y061525D01*X044218Y076450D01*X043218Y076450D01*X043218Y067525D01*
X043525Y067218D01*X043525Y066783D01*X043218Y066475D01*X042783Y066475D01*
X042475Y066783D01*X042475Y067218D01*X042783Y067525D01*X043218Y067525D01*
X043218Y076450D01*X040218Y076450D01*X040218Y028525D01*X040525Y028218D01*
X040525Y027783D01*X040243Y027500D01*X040525Y027218D01*X040525Y026783D01*
X040218Y026475D01*X040218Y021525D01*X040525Y021218D01*X040525Y020783D01*
X040218Y020475D01*X039783Y020475D01*X039475Y020783D01*X039475Y021218D01*
X039783Y021525D01*X040218Y021525D01*X040218Y026475D01*X039783Y026475D01*
X039475Y026783D01*X039475Y027218D01*X039757Y027500D01*X039500Y027757D01*
X039218Y027475D01*X039218Y025525D01*X039525Y025218D01*X039525Y024783D01*
X039373Y024630D01*X039373Y008900D01*X039900Y008373D01*X039900Y007627D01*
X039373Y007100D01*X038627Y007100D01*X038100Y007627D01*X038100Y008373D01*
X038627Y008900D01*X039373Y008900D01*X039373Y024630D01*X039218Y024475D01*
X038783Y024475D01*X038475Y024783D01*X038475Y025218D01*X038783Y025525D01*
X039218Y025525D01*X039218Y027475D01*X038783Y027475D01*X038475Y027783D01*
X038475Y028218D01*X038783Y028525D01*X039218Y028525D01*X039500Y028243D01*
X039783Y028525D01*X040218Y028525D01*X040218Y076450D01*X037218Y076450D01*
X037218Y036525D01*X037525Y036218D01*X037525Y035783D01*X037218Y035475D01*
X037218Y025525D01*X037525Y025218D01*X037525Y024783D01*X037218Y024475D01*
X036783Y024475D01*X036475Y024783D01*X036475Y025218D01*X036783Y025525D01*
X037218Y025525D01*X037218Y035475D01*X036783Y035475D01*X036475Y035783D01*
X036475Y036218D01*X036783Y036525D01*X037218Y036525D01*X037218Y076450D01*
X036218Y076450D01*X036218Y059525D01*X036525Y059218D01*X036525Y058783D01*
X036243Y058500D01*X036525Y058218D01*X036525Y057783D01*X036218Y057475D01*
X036218Y056525D01*X036525Y056218D01*X036525Y055783D01*X036218Y055475D01*
X036218Y045525D01*X036525Y045218D01*X036525Y044783D01*X036373Y044630D01*
X036373Y008900D01*X036900Y008373D01*X036900Y007627D01*X036373Y007100D01*
X035627Y007100D01*X035100Y007627D01*X035100Y008373D01*X035627Y008900D01*
X036373Y008900D01*X036373Y044630D01*X036218Y044475D01*X035783Y044475D01*
X035500Y044757D01*X035218Y044475D01*X035218Y033525D01*X035525Y033218D01*
X035525Y032783D01*X035218Y032475D01*X035218Y017525D01*X035525Y017218D01*
X035525Y016783D01*X035218Y016475D01*X034783Y016475D01*X034475Y016783D01*
X034475Y017218D01*X034783Y017525D01*X035218Y017525D01*X035218Y032475D01*
X034783Y032475D01*X034500Y032757D01*X034218Y032475D01*X034218Y015525D01*
X034525Y015218D01*X034525Y014783D01*X034218Y014475D01*X033783Y014475D01*
X033475Y014783D01*X033475Y015218D01*X033783Y015525D01*X034218Y015525D01*
X034218Y032475D01*X033783Y032475D01*X033475Y032783D01*X033475Y033218D01*
X033783Y033525D01*X034218Y033525D01*X034500Y033243D01*X034783Y033525D01*
X035218Y033525D01*X035218Y044475D01*X034783Y044475D01*X034475Y044783D01*
X034475Y045218D01*X034783Y045525D01*X035218Y045525D01*X035500Y045243D01*
X035783Y045525D01*X036218Y045525D01*X036218Y055475D01*X035783Y055475D01*
X035475Y055783D01*X035475Y056218D01*X035783Y056525D01*X036218Y056525D01*
X036218Y057475D01*X035783Y057475D01*X035475Y057783D01*X035475Y058218D01*
X035757Y058500D01*X035500Y058757D01*X035218Y058475D01*X034783Y058475D01*
X034475Y058783D01*X034475Y059218D01*X034783Y059525D01*X035218Y059525D01*
X035500Y059243D01*X035783Y059525D01*X036218Y059525D01*X036218Y076450D01*
X033218Y076450D01*X033218Y059525D01*X033525Y059218D01*X033525Y058783D01*
X033243Y058500D01*X033525Y058218D01*X033525Y057783D01*X033218Y057475D01*
X033218Y045525D01*X033525Y045218D01*X033525Y044783D01*X033373Y044630D01*
X033373Y008900D01*X033900Y008373D01*X033900Y007627D01*X033373Y007100D01*
X032627Y007100D01*X032100Y007627D01*X032100Y008373D01*X032627Y008900D01*
X033373Y008900D01*X033373Y044630D01*X033218Y044475D01*X032783Y044475D01*
X032500Y044757D01*X032218Y044475D01*X032218Y033525D01*X032525Y033218D01*
X032525Y032783D01*X032218Y032475D01*X032218Y020525D01*X032525Y020218D01*
X032525Y019783D01*X032218Y019475D01*X032218Y012525D01*X032525Y012218D01*
X032525Y011783D01*X032243Y011500D01*X032525Y011218D01*X032525Y010783D01*
X032218Y010475D01*X031783Y010475D01*X031500Y010757D01*X031218Y010475D01*
X030783Y010475D01*X030475Y010783D01*X030475Y011218D01*X030783Y011525D01*
X031218Y011525D01*X031500Y011243D01*X031757Y011500D01*X031475Y011783D01*
X031475Y012218D01*X031783Y012525D01*X032218Y012525D01*X032218Y019475D01*
X031783Y019475D01*X031475Y019783D01*X031475Y020218D01*X031783Y020525D01*
X032218Y020525D01*X032218Y032475D01*X031783Y032475D01*X031475Y032783D01*
X031475Y033218D01*X031783Y033525D01*X032218Y033525D01*X032218Y044475D01*
X031783Y044475D01*X031475Y044783D01*X031475Y045218D01*X031783Y045525D01*
X032218Y045525D01*X032500Y045243D01*X032783Y045525D01*X033218Y045525D01*
X033218Y057475D01*X032783Y057475D01*X032475Y057783D01*X032475Y058218D01*
X032757Y058500D01*X032500Y058757D01*X032218Y058475D01*X031783Y058475D01*
X031475Y058783D01*X031475Y059218D01*X031783Y059525D01*X032218Y059525D01*
X032500Y059243D01*X032783Y059525D01*X033218Y059525D01*X033218Y076450D01*
X031218Y076450D01*X031218Y058525D01*X031525Y058218D01*X031525Y057783D01*
X031218Y057475D01*X031218Y022025D01*X031525Y021718D01*X031525Y021283D01*
X031218Y020975D01*X030783Y020975D01*X030475Y021283D01*X030475Y021718D01*
X030783Y022025D01*X031218Y022025D01*X031218Y057475D01*X030783Y057475D01*
X030475Y057783D01*X030475Y058218D01*X030783Y058525D01*X031218Y058525D01*
X031218Y076450D01*X030218Y076450D01*X030218Y039525D01*X030525Y039218D01*
X030525Y038783D01*X030218Y038475D01*X029783Y038475D01*X029475Y038783D01*
X029475Y039218D01*X029783Y039525D01*X030218Y039525D01*X030218Y076450D01*
X029218Y076450D01*X029218Y032525D01*X029525Y032218D01*X029525Y031783D01*
X029218Y031475D01*X028783Y031475D01*X028475Y031783D01*X028475Y032218D01*
X028783Y032525D01*X029218Y032525D01*X029218Y076450D01*X028218Y076450D01*
X028218Y022525D01*X028525Y022218D01*X028525Y021783D01*X028218Y021475D01*
X027783Y021475D01*X027475Y021783D01*X027475Y022218D01*X027783Y022525D01*
X028218Y022525D01*X028218Y076450D01*X027218Y076450D01*X027218Y070525D01*
X027525Y070218D01*X027525Y069783D01*X027218Y069475D01*X027218Y064525D01*
X027525Y064218D01*X027525Y063783D01*X027218Y063475D01*X027218Y036525D01*
X027525Y036218D01*X027525Y035783D01*X027218Y035475D01*X027218Y027525D01*
X027525Y027218D01*X027525Y026783D01*X027218Y026475D01*X026783Y026475D01*
X026475Y026783D01*X026475Y027218D01*X026783Y027525D01*X027218Y027525D01*
X027218Y035475D01*X026783Y035475D01*X026475Y035783D01*X026475Y036218D01*
X026783Y036525D01*X027218Y036525D01*X027218Y063475D01*X026783Y063475D01*
X026500Y063757D01*X026218Y063475D01*X026218Y021525D01*X026525Y021218D01*
X026525Y020783D01*X026218Y020475D01*X025783Y020475D01*X025718Y020540D01*
X025718Y015525D01*X026025Y015218D01*X026025Y014783D01*X025718Y014475D01*
X025283Y014475D01*X024975Y014783D01*X024975Y015218D01*X025283Y015525D01*
X025718Y015525D01*X025718Y020540D01*X025475Y020783D01*X025475Y021218D01*
X025783Y021525D01*X026218Y021525D01*X026218Y063475D01*X025783Y063475D01*
X025475Y063783D01*X025475Y064218D01*X025783Y064525D01*X026218Y064525D01*
X026500Y064243D01*X026783Y064525D01*X027218Y064525D01*X027218Y069475D01*
X026783Y069475D01*X026500Y069757D01*X026218Y069475D01*X025783Y069475D01*
X025475Y069783D01*X025475Y070218D01*X025783Y070525D01*X026218Y070525D01*
X026500Y070243D01*X026783Y070525D01*X027218Y070525D01*X027218Y076450D01*
X024218Y076450D01*X024218Y064525D01*X024525Y064218D01*X024525Y063783D01*
X024218Y063475D01*X024218Y045525D01*X024525Y045218D01*X024525Y044783D01*
X024218Y044475D01*X023783Y044475D01*X023500Y044757D01*X023218Y044475D01*
X022783Y044475D01*X022475Y044783D01*X022475Y045218D01*X022783Y045525D01*
X023218Y045525D01*X023500Y045243D01*X023783Y045525D01*X024218Y045525D01*
X024218Y063475D01*X023783Y063475D01*X023475Y063783D01*X023475Y064218D01*
X023783Y064525D01*X024218Y064525D01*X024218Y076450D01*X021218Y076450D01*
X021218Y045525D01*X021525Y045218D01*X021525Y044783D01*X021218Y044475D01*
X020783Y044475D01*X020500Y044757D01*X020218Y044475D01*X020218Y015525D01*
X020525Y015218D01*X020525Y014783D01*X020218Y014475D01*X019783Y014475D01*
X019500Y014757D01*X019218Y014475D01*X018783Y014475D01*X018475Y014783D01*
X018475Y015218D01*X018783Y015525D01*X019218Y015525D01*X019500Y015243D01*
X019783Y015525D01*X020218Y015525D01*X020218Y044475D01*X019783Y044475D01*
X019475Y044783D01*X019475Y045218D01*X019783Y045525D01*X020218Y045525D01*
X020500Y045243D01*X020783Y045525D01*X021218Y045525D01*X021218Y076450D01*
X020218Y076450D01*X020218Y064525D01*X020525Y064218D01*X020525Y063783D01*
X020218Y063475D01*X019783Y063475D01*X019475Y063783D01*X019475Y064218D01*
X019783Y064525D01*X020218Y064525D01*X020218Y076450D01*X019218Y076450D01*
X019218Y060525D01*X019525Y060218D01*X019525Y059783D01*X019218Y059475D01*
X018783Y059475D01*X018500Y059757D01*X018218Y059475D01*X018218Y013525D01*
X018525Y013218D01*X018525Y012783D01*X018218Y012475D01*X017783Y012475D01*
X017475Y012783D01*X017475Y013218D01*X017783Y013525D01*X018218Y013525D01*
X018218Y059475D01*X017783Y059475D01*X017475Y059783D01*X017475Y060218D01*
X017783Y060525D01*X018218Y060525D01*X018500Y060243D01*X018783Y060525D01*
X019218Y060525D01*X019218Y076450D01*X018218Y076450D01*X018218Y064525D01*
X018525Y064218D01*X018525Y063783D01*X018218Y063475D01*X017783Y063475D01*
X017500Y063757D01*X017218Y063475D01*X016783Y063475D01*X016475Y063783D01*
X016475Y064218D01*X016783Y064525D01*X017218Y064525D01*X017500Y064243D01*
X017783Y064525D01*X018218Y064525D01*X018218Y076450D01*X016120Y076450D01*
X016120Y027460D01*X015622Y027460D01*X015622Y021540D01*X016120Y021042D01*
X016120Y020338D01*X015622Y019840D01*X015218Y019840D01*X015218Y015525D01*
X015525Y015218D01*X015525Y014783D01*X015218Y014475D01*X014783Y014475D01*
X014475Y014783D01*X014475Y015218D01*X014783Y015525D01*X015218Y015525D01*
X015218Y019840D01*X014918Y019840D01*X014420Y020338D01*X014420Y021042D01*
X014918Y021540D01*X015622Y021540D01*X015622Y027460D01*X014420Y027460D01*
X014420Y029160D01*X016120Y029160D01*X016120Y076450D01*X015218Y076450D01*
X015218Y064525D01*X015525Y064218D01*X015525Y063783D01*X015218Y063475D01*
X015218Y045525D01*X015525Y045218D01*X015525Y044783D01*X015218Y044475D01*
X014783Y044475D01*X014500Y044757D01*X014218Y044475D01*X014218Y039525D01*
X014525Y039218D01*X014525Y038783D01*X014243Y038500D01*X014525Y038218D01*
X014525Y037783D01*X014218Y037475D01*X014218Y036525D01*X014525Y036218D01*
X014525Y035783D01*X014243Y035500D01*X014525Y035218D01*X014525Y034783D01*
X014218Y034475D01*X014218Y033525D01*X014525Y033218D01*X014525Y032783D01*
X014218Y032475D01*X013783Y032475D01*X013475Y032783D01*X013475Y033218D01*
X013783Y033525D01*X014218Y033525D01*X014218Y034475D01*X013783Y034475D01*
X013475Y034783D01*X013475Y035218D01*X013757Y035500D01*X013475Y035783D01*
X013475Y036218D01*X013783Y036525D01*X014218Y036525D01*X014218Y037475D01*
X013783Y037475D01*X013475Y037783D01*X013475Y038218D01*X013757Y038500D01*
X013475Y038783D01*X013475Y039218D01*X013783Y039525D01*X014218Y039525D01*
X014218Y044475D01*X013783Y044475D01*X013475Y044783D01*X013475Y045218D01*
X013783Y045525D01*X014218Y045525D01*X014500Y045243D01*X014783Y045525D01*
X015218Y045525D01*X015218Y063475D01*X014783Y063475D01*X014500Y063757D01*
X014218Y063475D01*X013783Y063475D01*X013475Y063783D01*X013475Y064218D01*
X013783Y064525D01*X014218Y064525D01*X014500Y064243D01*X014783Y064525D01*
X015218Y064525D01*X015218Y076450D01*X013082Y076450D01*X013082Y029160D01*
X013580Y028662D01*X013580Y027958D01*X013082Y027460D01*X013082Y021540D01*
X013580Y021042D01*X013580Y020338D01*X013218Y019975D01*X013218Y015525D01*
X013525Y015218D01*X013525Y014783D01*X013218Y014475D01*X012783Y014475D01*
X012475Y014783D01*X012475Y015218D01*X012783Y015525D01*X013218Y015525D01*
X013218Y019975D01*X013082Y019840D01*X012378Y019840D01*X011880Y020338D01*
X011880Y021042D01*X012378Y021540D01*X013082Y021540D01*X013082Y027460D01*
X012378Y027460D01*X011880Y027958D01*X011880Y028662D01*X012378Y029160D01*
X013082Y029160D01*X013082Y076450D01*X012218Y076450D01*X012218Y064525D01*
X012525Y064218D01*X012525Y063783D01*X012218Y063475D01*X012218Y045525D01*
X012525Y045218D01*X012525Y044783D01*X012218Y044475D01*X012218Y036525D01*
X012525Y036218D01*X012525Y035783D01*X012243Y035500D01*X012525Y035218D01*
X012525Y034783D01*X012218Y034475D01*X011783Y034475D01*X011475Y034783D01*
X011475Y035218D01*X011757Y035500D01*X011475Y035783D01*X011475Y036218D01*
X011783Y036525D01*X012218Y036525D01*X012218Y044475D01*X011783Y044475D01*
X011500Y044757D01*X011218Y044475D01*X011218Y022525D01*X011525Y022218D01*
X011525Y021783D01*X011218Y021475D01*X011218Y020525D01*X011525Y020218D01*
X011525Y019783D01*X011218Y019475D01*X010783Y019475D01*X010475Y019783D01*
X010475Y020218D01*X010783Y020525D01*X011218Y020525D01*X011218Y021475D01*
X010783Y021475D01*X010475Y021783D01*X010475Y022218D01*X010783Y022525D01*
X011218Y022525D01*X011218Y044475D01*X010783Y044475D01*X010475Y044783D01*
X010475Y045218D01*X010783Y045525D01*X011218Y045525D01*X011500Y045243D01*
X011783Y045525D01*X012218Y045525D01*X012218Y063475D01*X011783Y063475D01*
X011500Y063757D01*X011218Y063475D01*X010783Y063475D01*X010475Y063783D01*
X010475Y064218D01*X010783Y064525D01*X011218Y064525D01*X011500Y064243D01*
X011783Y064525D01*X012218Y064525D01*X012218Y076450D01*X008218Y076450D01*
X008218Y069525D01*X008525Y069218D01*X008525Y068783D01*X008218Y068475D01*
X007783Y068475D01*X007475Y068783D01*X007475Y069218D01*X007783Y069525D01*
X008218Y069525D01*X008218Y076450D01*X007218Y076450D01*X007218Y033525D01*
X007525Y033218D01*X007525Y032783D01*X007218Y032475D01*X007218Y010525D01*
X007525Y010218D01*X007525Y009783D01*X007243Y009500D01*X007525Y009218D01*
X007525Y008783D01*X007218Y008475D01*X006783Y008475D01*X006475Y008783D01*
X006475Y009218D01*X006757Y009500D01*X006475Y009783D01*X006475Y010218D01*
X006783Y010525D01*X007218Y010525D01*X007218Y032475D01*X006783Y032475D01*
X006475Y032783D01*X006475Y033218D01*X006783Y033525D01*X007218Y033525D01*
X007218Y076450D01*X006218Y076450D01*X006218Y040525D01*X006525Y040218D01*
X006525Y039783D01*X006218Y039475D01*X006218Y036525D01*X006525Y036218D01*
X006525Y035783D01*X006243Y035500D01*X006525Y035218D01*X006525Y034783D01*
X006218Y034475D01*X005783Y034475D01*X005475Y034783D01*X005475Y035218D01*
X005757Y035500D01*X005475Y035783D01*X005475Y036218D01*X005783Y036525D01*
X006218Y036525D01*X006218Y039475D01*X005783Y039475D01*X005475Y039783D01*
X005475Y040218D01*X005783Y040525D01*X006218Y040525D01*X006218Y076450D01*
X005218Y076450D01*X005218Y030525D01*X005525Y030218D01*X005525Y029783D01*
X005243Y029500D01*X005525Y029218D01*X005525Y028783D01*X005218Y028475D01*
X005218Y017525D01*X005525Y017218D01*X005525Y016783D01*X005218Y016475D01*
X004783Y016475D01*X004475Y016783D01*X004475Y017218D01*X004783Y017525D01*
X005218Y017525D01*X005218Y028475D01*X004783Y028475D01*X004475Y028783D01*
X004475Y029218D01*X004757Y029500D01*X004475Y029783D01*X004475Y030218D01*
X004783Y030525D01*X005218Y030525D01*X005218Y076450D01*X003950Y076450D01*
X003950Y039670D01*X003394Y039670D01*X003394Y039030D01*X003950Y038474D01*
X003950Y037687D01*X003394Y037130D01*X003394Y036490D01*X003950Y035934D01*
X003950Y035147D01*X003394Y034590D01*X003394Y033950D01*X003950Y033394D01*
X003950Y032606D01*X003394Y032050D01*X003394Y031410D01*X003950Y030854D01*
X003950Y030067D01*X003394Y029510D01*X003394Y028870D01*X003950Y028314D01*
X003950Y027527D01*X003394Y026970D01*X003394Y026330D01*X003950Y025774D01*
X003950Y018130D01*X003394Y018130D01*X003394Y017490D01*X003950Y016934D01*
X003950Y016147D01*X003394Y015590D01*X003394Y014950D01*X003950Y014394D01*
X003950Y013607D01*X003394Y013050D01*X003394Y012410D01*X003950Y011854D01*
X003950Y011067D01*X003394Y010510D01*X003394Y009870D01*X003950Y009314D01*
X003950Y008527D01*X003394Y007970D01*X002607Y007970D01*X002050Y008527D01*
X002050Y009314D01*X002607Y009870D01*X003394Y009870D01*X003394Y010510D01*
X002607Y010510D01*X002050Y011067D01*X002050Y011854D01*X002607Y012410D01*
X003394Y012410D01*X003394Y013050D01*X002607Y013050D01*X002050Y013607D01*
X002050Y014394D01*X002607Y014950D01*X003394Y014950D01*X003394Y015590D01*
X002607Y015590D01*X002050Y016147D01*X002050Y016934D01*X002607Y017490D01*
X003394Y017490D01*X003394Y018130D01*X002050Y018130D01*X002050Y020030D01*
X003950Y020030D01*X003950Y024987D01*X003394Y024430D01*X002607Y024430D01*
X002050Y024987D01*X002050Y025774D01*X002607Y026330D01*X003394Y026330D01*
X003394Y026970D01*X002607Y026970D01*X002050Y027527D01*X002050Y028314D01*
X002607Y028870D01*X003394Y028870D01*X003394Y029510D01*X002607Y029510D01*
X002050Y030067D01*X002050Y030854D01*X002607Y031410D01*X003394Y031410D01*
X003394Y032050D01*X002607Y032050D01*X002050Y032606D01*X002050Y033394D01*
X002607Y033950D01*X003394Y033950D01*X003394Y034590D01*X002607Y034590D01*
X002050Y035147D01*X002050Y035934D01*X002607Y036490D01*X003394Y036490D01*
X003394Y037130D01*X002607Y037130D01*X002050Y037687D01*X002050Y038474D01*
X002607Y039030D01*X003394Y039030D01*X003394Y039670D01*X002050Y039670D01*
X002050Y041570D01*X003950Y041570D01*X003950Y076450D01*X000550Y076450D01*
X000550Y000550D01*G37*X000000Y000000D02*M02*
