%MOMM*%
%FSLAX33Y33*%
%ADD10C,0.200000*%
%ADD129C,0.080000*%
%ADD186R,0.800000X0.900000*%
%ADD187C,0.635000*%
%ADD188R,1.300000X2.000000*%
%ADD189R,2.000000X1.300000*%
%ADD190R,0.600000X0.325000*%
%ADD191R,0.787400X0.889000*%
%ADD192R,0.150000X0.250000*%
%ADD193R,0.500000X0.250000*%
%ADD194R,0.900000X0.800000*%
%ADD195R,0.889000X0.508000*%
%ADD196C,0.800000*%
%ADD198R,2.540000X2.006600*%
%ADD199R,1.219200X0.914400*%
%ADD200R,1.498600X1.600200*%
%ADD201R,1.000000X3.200000*%
%ADD203R,0.325000X0.600000*%
%ADD204R,0.711200X1.016000*%
%ADD205R,0.914400X1.219200*%
%ADD206R,1.450000X1.100000*%
%ADD207R,0.350000X0.350000*%
%ADD208R,0.800000X0.800000*%
%ADD209R,1.300000X1.050000*%
%ADD210R,0.825500X0.254000*%
%ADD211R,0.254000X0.825500*%
%ADD212R,3.450000X3.450000*%
%ADD213R,0.230000X0.700000*%
%ADD214R,1.500000X0.900000*%
%ADD215R,1.100000X1.250000*%
%ADD216R,1.250000X1.100000*%
%ADD217R,1.900000X1.100000*%
%ADD218R,2.006600X2.540000*%
%ADD219R,1.700000X1.700000*%
%ADD220R,1.450000X3.900000*%
%ADD221R,0.625000X0.875000*%
%ADD222R,0.875000X0.625000*%
G90*G71*G01*D02*G54D10*X000000Y000000D02*X065000Y000000D01*X065000Y077000D01*
X000000Y077000D01*X000000Y000000D01*D02*G54D129*X022500Y086000D02*
X002500Y086000D01*X002500Y082000D01*X022500Y082000D01*X022500Y084000D02*
X062500Y084000D01*X029513Y083388D02*X029513Y082867D01*X029539Y082770D01*
X029591Y082697D01*X029674Y082661D01*X029721Y082661D01*X029804Y082697D01*
X029851Y082770D01*X029877Y082867D01*X029877Y083364D01*X029539Y083364D02*
X029539Y082830D01*X029570Y082770D01*X029570Y083388D02*X029570Y082830D01*
X029591Y082733D01*X029617Y082697D01*X029674Y082661D01*X029440Y083388D02*
X029643Y083388D01*X029804Y083388D02*X029960Y083388D01*X029461Y083388D02*
X029513Y083364D01*X029487Y083388D02*X029513Y083327D01*X029591Y083388D02*
X029570Y083327D01*X029617Y083388D02*X029570Y083364D01*X029825Y083388D02*
X029877Y083364D01*X029934Y083388D02*X029877Y083364D01*X030718Y083291D02*
X030760Y083388D01*X030760Y083182D01*X030718Y083291D01*X030646Y083364D01*
X030531Y083388D01*X030422Y083388D01*X030313Y083364D01*X030240Y083291D01*
X030240Y083182D01*X030276Y083121D01*X030386Y083048D01*X030609Y082976D01*
X030682Y082939D01*X030718Y082867D01*X030718Y082770D01*X030682Y082697D01*
X030276Y083182D02*X030313Y083121D01*X030386Y083085D01*X030609Y083012D01*
X030682Y082976D01*X030718Y082903D01*X030313Y083364D02*X030276Y083291D01*
X030276Y083218D01*X030313Y083145D01*X030386Y083121D01*X030609Y083048D01*
X030718Y082976D01*X030760Y082903D01*X030760Y082806D01*X030718Y082733D01*
X030682Y082697D01*X030573Y082661D01*X030458Y082661D01*X030349Y082697D01*
X030276Y082770D01*X030240Y082867D01*X030240Y082661D01*X030276Y082770D01*
X031108Y083388D02*X031108Y082697D01*X031108Y083388D02*X031274Y082661D01*
X031134Y083388D02*X031274Y082770D01*X031154Y083388D02*X031295Y082770D01*
X031440Y083388D02*X031274Y082661D01*X031440Y083388D02*X031440Y082661D01*
X031461Y083364D02*X031461Y082697D01*X031487Y083388D02*X031487Y082661D01*
X031040Y083388D02*X031154Y083388D01*X031440Y083388D02*X031560Y083388D01*
X031040Y082661D02*X031180Y082661D01*X031368Y082661D02*X031560Y082661D01*
X031061Y083388D02*X031108Y083364D01*X031508Y083388D02*X031487Y083327D01*
X031534Y083388D02*X031487Y083364D01*X031108Y082697D02*X031061Y082661D01*
X031108Y082697D02*X031154Y082661D01*X031440Y082697D02*X031394Y082661D01*
X031440Y082733D02*X031414Y082661D01*X031487Y082733D02*X031508Y082661D01*
X031487Y082697D02*X031534Y082661D01*X026708Y085388D02*X026708Y084697D01*
X026708Y085388D02*X026874Y084661D01*X026734Y085388D02*X026874Y084770D01*
X026754Y085388D02*X026895Y084770D01*X027040Y085388D02*X026874Y084661D01*
X027040Y085388D02*X027040Y084661D01*X027061Y085364D02*X027061Y084697D01*
X027087Y085388D02*X027087Y084661D01*X026640Y085388D02*X026754Y085388D01*
X027040Y085388D02*X027160Y085388D01*X026640Y084661D02*X026780Y084661D01*
X026968Y084661D02*X027160Y084661D01*X026661Y085388D02*X026708Y085364D01*
X027108Y085388D02*X027087Y085327D01*X027134Y085388D02*X027087Y085364D01*
X026708Y084697D02*X026661Y084661D01*X026708Y084697D02*X026754Y084661D01*
X027040Y084697D02*X026994Y084661D01*X027040Y084733D02*X027014Y084661D01*
X027087Y084733D02*X027108Y084661D01*X027087Y084697D02*X027134Y084661D01*
X027664Y085388D02*X027570Y085364D01*X027502Y085291D01*X027471Y085218D01*
X027440Y085085D01*X027440Y084976D01*X027471Y084830D01*X027502Y084770D01*
X027570Y084697D01*X027664Y084661D01*X027731Y084661D01*X027830Y084697D01*
X027892Y084770D01*X027924Y084830D01*X027960Y084976D01*X027960Y085085D01*
X027924Y085218D01*X027892Y085291D01*X027830Y085364D01*X027731Y085388D01*
X027664Y085388D01*X027534Y085291D02*X027502Y085218D01*X027471Y085121D01*
X027471Y084939D01*X027502Y084830D01*X027534Y084770D01*X027861Y084770D02*
X027892Y084830D01*X027924Y084939D01*X027924Y085121D01*X027892Y085218D01*
X027861Y085291D01*X027664Y085388D02*X027601Y085364D01*X027534Y085255D01*
X027502Y085121D01*X027502Y084939D01*X027534Y084806D01*X027601Y084697D01*
X027664Y084661D01*X027731Y084661D02*X027794Y084697D01*X027861Y084806D01*
X027892Y084939D01*X027892Y085121D01*X027861Y085255D01*X027794Y085364D01*
X027731Y085388D01*X028328Y085388D02*X028328Y084661D01*X028360Y085364D02*
X028360Y084697D01*X028391Y085388D02*X028391Y084661D01*X028240Y085388D02*
X028542Y085388D01*X028635Y085364D01*X028698Y085291D01*X028729Y085218D01*
X028760Y085121D01*X028760Y084939D01*X028729Y084830D01*X028698Y084770D01*
X028635Y084697D01*X028542Y084661D01*X028240Y084661D01*X028666Y085291D02*
X028698Y085218D01*X028729Y085121D01*X028729Y084939D01*X028698Y084830D01*
X028666Y084770D01*X028542Y085388D02*X028604Y085364D01*X028666Y085255D01*
X028698Y085121D01*X028698Y084939D01*X028666Y084806D01*X028604Y084697D01*
X028542Y084661D01*X028266Y085388D02*X028328Y085364D01*X028297Y085388D02*
X028328Y085327D01*X028422Y085388D02*X028391Y085327D01*X028453Y085388D02*
X028391Y085364D01*X028328Y084697D02*X028266Y084661D01*X028328Y084733D02*
X028297Y084661D01*X028391Y084733D02*X028422Y084661D01*X028391Y084697D02*
X028453Y084661D01*X029134Y085388D02*X029134Y084661D01*X029165Y085364D02*
X029165Y084697D01*X029201Y085388D02*X029201Y084661D01*X029040Y085388D02*
X029560Y085388D01*X029560Y085182D01*X029201Y085048D02*X029394Y085048D01*
X029394Y085182D02*X029394Y084903D01*X029040Y084661D02*X029560Y084661D01*
X029560Y084867D01*X029071Y085388D02*X029134Y085364D01*X029102Y085388D02*
X029134Y085327D01*X029232Y085388D02*X029201Y085327D01*X029264Y085388D02*
X029201Y085364D01*X029394Y085388D02*X029560Y085364D01*X029461Y085388D02*
X029560Y085327D01*X029492Y085388D02*X029560Y085291D01*X029524Y085388D02*
X029560Y085182D01*X029394Y085182D02*X029362Y085048D01*X029394Y084903D01*
X029394Y085121D02*X029331Y085048D01*X029394Y084976D01*X029394Y085085D02*
X029264Y085048D01*X029394Y085012D01*X029134Y084697D02*X029071Y084661D01*
X029134Y084733D02*X029102Y084661D01*X029201Y084733D02*X029232Y084661D01*
X029201Y084697D02*X029264Y084661D01*X029394Y084661D02*X029560Y084697D01*
X029461Y084661D02*X029560Y084733D01*X029492Y084661D02*X029560Y084770D01*
X029524Y084661D02*X029560Y084867D01*X029944Y085388D02*X029944Y084661D01*
X029975Y085364D02*X029975Y084697D01*X030012Y085388D02*X030012Y084661D01*
X029840Y085388D02*X030116Y085388D01*X029840Y084661D02*X030360Y084661D01*
X030360Y084867D01*X029871Y085388D02*X029944Y085364D01*X029908Y085388D02*
X029944Y085327D01*X030048Y085388D02*X030012Y085327D01*X030079Y085388D02*
X030012Y085364D01*X029944Y084697D02*X029871Y084661D01*X029944Y084733D02*
X029908Y084661D01*X030012Y084733D02*X030048Y084661D01*X030012Y084697D02*
X030079Y084661D01*X030183Y084661D02*X030360Y084697D01*X030251Y084661D02*
X030360Y084733D01*X030287Y084661D02*X030360Y084770D01*X030324Y084661D02*
X030360Y084867D01*X031513Y085388D02*X031513Y084697D01*X031513Y085388D02*
X031877Y084661D01*X031544Y085388D02*X031851Y084770D01*X031565Y085388D02*
X031877Y084770D01*X031877Y085364D02*X031877Y084661D01*X031440Y085388D02*
X031565Y085388D01*X031804Y085388D02*X031960Y085388D01*X031440Y084661D02*
X031591Y084661D01*X031461Y085388D02*X031513Y085364D01*X031830Y085388D02*
X031877Y085364D01*X031934Y085388D02*X031877Y085364D01*X031513Y084697D02*
X031461Y084661D01*X031513Y084697D02*X031565Y084661D01*X032500Y085388D02*
X032297Y084697D01*X032469Y085291D02*X032640Y084661D01*X032500Y085291D02*
X032672Y084661D01*X032500Y085388D02*X032698Y084661D01*X032354Y084867D02*
X032614Y084867D01*X032240Y084661D02*X032412Y084661D01*X032557Y084661D02*
X032760Y084661D01*X032297Y084697D02*X032266Y084661D01*X032297Y084697D02*
X032354Y084661D01*X032640Y084697D02*X032583Y084661D01*X032640Y084733D02*
X032614Y084661D01*X032672Y084733D02*X032729Y084661D01*X033108Y085388D02*
X033108Y084697D01*X033108Y085388D02*X033274Y084661D01*X033134Y085388D02*
X033274Y084770D01*X033154Y085388D02*X033295Y084770D01*X033440Y085388D02*
X033274Y084661D01*X033440Y085388D02*X033440Y084661D01*X033461Y085364D02*
X033461Y084697D01*X033487Y085388D02*X033487Y084661D01*X033040Y085388D02*
X033154Y085388D01*X033440Y085388D02*X033560Y085388D01*X033040Y084661D02*
X033180Y084661D01*X033368Y084661D02*X033560Y084661D01*X033061Y085388D02*
X033108Y085364D01*X033508Y085388D02*X033487Y085327D01*X033534Y085388D02*
X033487Y085364D01*X033108Y084697D02*X033061Y084661D01*X033108Y084697D02*
X033154Y084661D01*X033440Y084697D02*X033394Y084661D01*X033440Y084733D02*
X033414Y084661D01*X033487Y084733D02*X033508Y084661D01*X033487Y084697D02*
X033534Y084661D01*X033934Y085388D02*X033934Y084661D01*X033965Y085364D02*
X033965Y084697D01*X034001Y085388D02*X034001Y084661D01*X033840Y085388D02*
X034360Y085388D01*X034360Y085182D01*X034001Y085048D02*X034194Y085048D01*
X034194Y085182D02*X034194Y084903D01*X033840Y084661D02*X034360Y084661D01*
X034360Y084867D01*X033871Y085388D02*X033934Y085364D01*X033902Y085388D02*
X033934Y085327D01*X034032Y085388D02*X034001Y085327D01*X034064Y085388D02*
X034001Y085364D01*X034194Y085388D02*X034360Y085364D01*X034261Y085388D02*
X034360Y085327D01*X034292Y085388D02*X034360Y085291D01*X034324Y085388D02*
X034360Y085182D01*X034194Y085182D02*X034162Y085048D01*X034194Y084903D01*
X034194Y085121D02*X034131Y085048D01*X034194Y084976D01*X034194Y085085D02*
X034064Y085048D01*X034194Y085012D01*X033934Y084697D02*X033871Y084661D01*
X033934Y084733D02*X033902Y084661D01*X034001Y084733D02*X034032Y084661D01*
X034001Y084697D02*X034064Y084661D01*X034194Y084661D02*X034360Y084697D01*
X034261Y084661D02*X034360Y084733D01*X034292Y084661D02*X034360Y084770D01*
X034324Y084661D02*X034360Y084867D01*X040744Y085388D02*X040744Y084661D01*
X040775Y085364D02*X040775Y084697D01*X040812Y085388D02*X040812Y084661D01*
X040640Y085388D02*X040916Y085388D01*X040640Y084661D02*X041160Y084661D01*
X041160Y084867D01*X040671Y085388D02*X040744Y085364D01*X040708Y085388D02*
X040744Y085327D01*X040848Y085388D02*X040812Y085327D01*X040879Y085388D02*
X040812Y085364D01*X040744Y084697D02*X040671Y084661D01*X040744Y084733D02*
X040708Y084661D01*X040812Y084733D02*X040848Y084661D01*X040812Y084697D02*
X040879Y084661D01*X040983Y084661D02*X041160Y084697D01*X041051Y084661D02*
X041160Y084733D01*X041087Y084661D02*X041160Y084770D01*X041124Y084661D02*
X041160Y084867D01*X041700Y085388D02*X041497Y084697D01*X041669Y085291D02*
X041840Y084661D01*X041700Y085291D02*X041872Y084661D01*X041700Y085388D02*
X041898Y084661D01*X041554Y084867D02*X041814Y084867D01*X041440Y084661D02*
X041612Y084661D01*X041757Y084661D02*X041960Y084661D01*X041497Y084697D02*
X041466Y084661D01*X041497Y084697D02*X041554Y084661D01*X041840Y084697D02*
X041783Y084661D01*X041840Y084733D02*X041814Y084661D01*X041872Y084733D02*
X041929Y084661D01*X042292Y085388D02*X042469Y085012D01*X042469Y084661D01*
X042318Y085388D02*X042495Y085012D01*X042495Y084697D01*X042339Y085388D02*
X042526Y085012D01*X042526Y084661D01*X042677Y085364D02*X042526Y085012D01*
X042240Y085388D02*X042422Y085388D01*X042599Y085388D02*X042760Y085388D01*
X042396Y084661D02*X042599Y084661D01*X042266Y085388D02*X042318Y085364D01*
X042396Y085388D02*X042339Y085364D01*X042630Y085388D02*X042677Y085364D01*
X042729Y085388D02*X042677Y085364D01*X042469Y084697D02*X042422Y084661D01*
X042469Y084733D02*X042443Y084661D01*X042526Y084733D02*X042547Y084661D01*
X042526Y084697D02*X042573Y084661D01*X043134Y085388D02*X043134Y084661D01*
X043165Y085364D02*X043165Y084697D01*X043201Y085388D02*X043201Y084661D01*
X043040Y085388D02*X043560Y085388D01*X043560Y085182D01*X043201Y085048D02*
X043394Y085048D01*X043394Y085182D02*X043394Y084903D01*X043040Y084661D02*
X043560Y084661D01*X043560Y084867D01*X043071Y085388D02*X043134Y085364D01*
X043102Y085388D02*X043134Y085327D01*X043232Y085388D02*X043201Y085327D01*
X043264Y085388D02*X043201Y085364D01*X043394Y085388D02*X043560Y085364D01*
X043461Y085388D02*X043560Y085327D01*X043492Y085388D02*X043560Y085291D01*
X043524Y085388D02*X043560Y085182D01*X043394Y085182D02*X043362Y085048D01*
X043394Y084903D01*X043394Y085121D02*X043331Y085048D01*X043394Y084976D01*
X043394Y085085D02*X043264Y085048D01*X043394Y085012D01*X043134Y084697D02*
X043071Y084661D01*X043134Y084733D02*X043102Y084661D01*X043201Y084733D02*
X043232Y084661D01*X043201Y084697D02*X043264Y084661D01*X043394Y084661D02*
X043560Y084697D01*X043461Y084661D02*X043560Y084733D01*X043492Y084661D02*
X043560Y084770D01*X043524Y084661D02*X043560Y084867D01*X043923Y085388D02*
X043923Y084661D01*X043954Y085364D02*X043954Y084697D01*X043980Y085388D02*
X043980Y084661D01*X043840Y085388D02*X044183Y085388D01*X044272Y085364D01*
X044298Y085327D01*X044329Y085255D01*X044329Y085182D01*X044298Y085121D01*
X044272Y085085D01*X044183Y085048D01*X043980Y085048D01*X044272Y085327D02*
X044298Y085255D01*X044298Y085182D01*X044272Y085121D01*X044183Y085388D02*
X044240Y085364D01*X044272Y085291D01*X044272Y085145D01*X044240Y085085D01*
X044183Y085048D01*X044095Y085048D02*X044157Y085012D01*X044183Y084939D01*
X044240Y084733D01*X044272Y084661D01*X044329Y084661D01*X044360Y084733D01*
X044360Y084806D01*X044240Y084806D02*X044272Y084733D01*X044298Y084697D01*
X044329Y084697D01*X044157Y085012D02*X044183Y084976D01*X044272Y084770D01*
X044298Y084733D01*X044329Y084733D01*X044360Y084770D01*X043840Y084661D02*
X044069Y084661D01*X043866Y085388D02*X043923Y085364D01*X043897Y085388D02*
X043923Y085327D01*X044012Y085388D02*X043980Y085327D01*X044038Y085388D02*
X043980Y085364D01*X043923Y084697D02*X043866Y084661D01*X043923Y084733D02*
X043897Y084661D01*X043980Y084733D02*X044012Y084661D01*X043980Y084697D02*
X044038Y084661D01*X045513Y085388D02*X045513Y084697D01*X045513Y085388D02*
X045877Y084661D01*X045544Y085388D02*X045851Y084770D01*X045565Y085388D02*
X045877Y084770D01*X045877Y085364D02*X045877Y084661D01*X045440Y085388D02*
X045565Y085388D01*X045804Y085388D02*X045960Y085388D01*X045440Y084661D02*
X045591Y084661D01*X045461Y085388D02*X045513Y085364D01*X045830Y085388D02*
X045877Y085364D01*X045934Y085388D02*X045877Y085364D01*X045513Y084697D02*
X045461Y084661D01*X045513Y084697D02*X045565Y084661D01*X046500Y085388D02*
X046297Y084697D01*X046469Y085291D02*X046640Y084661D01*X046500Y085291D02*
X046672Y084661D01*X046500Y085388D02*X046698Y084661D01*X046354Y084867D02*
X046614Y084867D01*X046240Y084661D02*X046412Y084661D01*X046557Y084661D02*
X046760Y084661D01*X046297Y084697D02*X046266Y084661D01*X046297Y084697D02*
X046354Y084661D01*X046640Y084697D02*X046583Y084661D01*X046640Y084733D02*
X046614Y084661D01*X046672Y084733D02*X046729Y084661D01*X047108Y085388D02*
X047108Y084697D01*X047108Y085388D02*X047274Y084661D01*X047134Y085388D02*
X047274Y084770D01*X047154Y085388D02*X047295Y084770D01*X047440Y085388D02*
X047274Y084661D01*X047440Y085388D02*X047440Y084661D01*X047461Y085364D02*
X047461Y084697D01*X047487Y085388D02*X047487Y084661D01*X047040Y085388D02*
X047154Y085388D01*X047440Y085388D02*X047560Y085388D01*X047040Y084661D02*
X047180Y084661D01*X047368Y084661D02*X047560Y084661D01*X047061Y085388D02*
X047108Y085364D01*X047508Y085388D02*X047487Y085327D01*X047534Y085388D02*
X047487Y085364D01*X047108Y084697D02*X047061Y084661D01*X047108Y084697D02*
X047154Y084661D01*X047440Y084697D02*X047394Y084661D01*X047440Y084733D02*
X047414Y084661D01*X047487Y084733D02*X047508Y084661D01*X047487Y084697D02*
X047534Y084661D01*X047934Y085388D02*X047934Y084661D01*X047965Y085364D02*
X047965Y084697D01*X048001Y085388D02*X048001Y084661D01*X047840Y085388D02*
X048360Y085388D01*X048360Y085182D01*X048001Y085048D02*X048194Y085048D01*
X048194Y085182D02*X048194Y084903D01*X047840Y084661D02*X048360Y084661D01*
X048360Y084867D01*X047871Y085388D02*X047934Y085364D01*X047902Y085388D02*
X047934Y085327D01*X048032Y085388D02*X048001Y085327D01*X048064Y085388D02*
X048001Y085364D01*X048194Y085388D02*X048360Y085364D01*X048261Y085388D02*
X048360Y085327D01*X048292Y085388D02*X048360Y085291D01*X048324Y085388D02*
X048360Y085182D01*X048194Y085182D02*X048162Y085048D01*X048194Y084903D01*
X048194Y085121D02*X048131Y085048D01*X048194Y084976D01*X048194Y085085D02*
X048064Y085048D01*X048194Y085012D01*X047934Y084697D02*X047871Y084661D01*
X047934Y084733D02*X047902Y084661D01*X048001Y084733D02*X048032Y084661D01*
X048001Y084697D02*X048064Y084661D01*X048194Y084661D02*X048360Y084697D01*
X048261Y084661D02*X048360Y084733D01*X048292Y084661D02*X048360Y084770D01*
X048324Y084661D02*X048360Y084867D01*X038500Y086000D02*X038500Y082000D01*
X022500Y086000D02*X062500Y086000D01*X062500Y082000D02*X022500Y082000D01*
X022500Y086000D02*X022500Y082000D01*X062500Y086000D02*X062500Y082000D01*
X050500Y086000D02*X050500Y082000D01*X055128Y085388D02*X055128Y084661D01*
X055160Y085364D02*X055160Y084697D01*X055191Y085388D02*X055191Y084661D01*
X055040Y085388D02*X055342Y085388D01*X055435Y085364D01*X055498Y085291D01*
X055529Y085218D01*X055560Y085121D01*X055560Y084939D01*X055529Y084830D01*
X055498Y084770D01*X055435Y084697D01*X055342Y084661D01*X055040Y084661D01*
X055466Y085291D02*X055498Y085218D01*X055529Y085121D01*X055529Y084939D01*
X055498Y084830D01*X055466Y084770D01*X055342Y085388D02*X055404Y085364D01*
X055466Y085255D01*X055498Y085121D01*X055498Y084939D01*X055466Y084806D01*
X055404Y084697D01*X055342Y084661D01*X055066Y085388D02*X055128Y085364D01*
X055097Y085388D02*X055128Y085327D01*X055222Y085388D02*X055191Y085327D01*
X055253Y085388D02*X055191Y085364D01*X055128Y084697D02*X055066Y084661D01*
X055128Y084733D02*X055097Y084661D01*X055191Y084733D02*X055222Y084661D01*
X055191Y084697D02*X055253Y084661D01*X056100Y085388D02*X055897Y084697D01*
X056069Y085291D02*X056240Y084661D01*X056100Y085291D02*X056272Y084661D01*
X056100Y085388D02*X056298Y084661D01*X055954Y084867D02*X056214Y084867D01*
X055840Y084661D02*X056012Y084661D01*X056157Y084661D02*X056360Y084661D01*
X055897Y084697D02*X055866Y084661D01*X055897Y084697D02*X055954Y084661D01*
X056240Y084697D02*X056183Y084661D01*X056240Y084733D02*X056214Y084661D01*
X056272Y084733D02*X056329Y084661D01*X056640Y085388D02*X056640Y085182D01*
X056864Y085388D02*X056864Y084661D01*X056900Y085364D02*X056900Y084697D01*
X056931Y085388D02*X056931Y084661D01*X057160Y085388D02*X057160Y085182D01*
X056640Y085388D02*X057160Y085388D01*X056770Y084661D02*X057025Y084661D01*
X056671Y085388D02*X056640Y085182D01*X056702Y085388D02*X056640Y085291D01*
X056734Y085388D02*X056640Y085327D01*X056801Y085388D02*X056640Y085364D01*
X056994Y085388D02*X057160Y085364D01*X057061Y085388D02*X057160Y085327D01*
X057092Y085388D02*X057160Y085291D01*X057124Y085388D02*X057160Y085182D01*
X056864Y084697D02*X056801Y084661D01*X056864Y084733D02*X056832Y084661D01*
X056931Y084733D02*X056962Y084661D01*X056931Y084697D02*X056994Y084661D01*
X057534Y085388D02*X057534Y084661D01*X057565Y085364D02*X057565Y084697D01*
X057601Y085388D02*X057601Y084661D01*X057440Y085388D02*X057960Y085388D01*
X057960Y085182D01*X057601Y085048D02*X057794Y085048D01*X057794Y085182D02*
X057794Y084903D01*X057440Y084661D02*X057960Y084661D01*X057960Y084867D01*
X057471Y085388D02*X057534Y085364D01*X057502Y085388D02*X057534Y085327D01*
X057632Y085388D02*X057601Y085327D01*X057664Y085388D02*X057601Y085364D01*
X057794Y085388D02*X057960Y085364D01*X057861Y085388D02*X057960Y085327D01*
X057892Y085388D02*X057960Y085291D01*X057924Y085388D02*X057960Y085182D01*
X057794Y085182D02*X057762Y085048D01*X057794Y084903D01*X057794Y085121D02*
X057731Y085048D01*X057794Y084976D01*X057794Y085085D02*X057664Y085048D01*
X057794Y085012D01*X057534Y084697D02*X057471Y084661D01*X057534Y084733D02*
X057502Y084661D01*X057601Y084733D02*X057632Y084661D01*X057601Y084697D02*
X057664Y084661D01*X057794Y084661D02*X057960Y084697D01*X057861Y084661D02*
X057960Y084733D01*X057892Y084661D02*X057960Y084770D01*X057924Y084661D02*
X057960Y084867D01*X052676Y083255D02*X052676Y083218D01*X052713Y083218D01*
X052713Y083255D01*X052676Y083255D01*X052676Y083291D02*X052713Y083291D01*
X052749Y083255D01*X052749Y083218D01*X052713Y083182D01*X052676Y083182D01*
X052640Y083218D01*X052640Y083255D01*X052676Y083327D01*X052713Y083364D01*
X052822Y083388D01*X052973Y083388D01*X053082Y083364D01*X053118Y083327D01*
X053160Y083255D01*X053160Y083182D01*X053118Y083121D01*X053009Y083048D01*
X052822Y082976D01*X052749Y082939D01*X052676Y082867D01*X052640Y082770D01*
X052640Y082661D01*X053082Y083327D02*X053118Y083255D01*X053118Y083182D01*
X053082Y083121D01*X052973Y083388D02*X053046Y083364D01*X053082Y083255D01*
X053082Y083182D01*X053046Y083121D01*X052973Y083048D01*X052822Y082976D01*
X052640Y082733D02*X052676Y082770D01*X052749Y082770D01*X052931Y082733D01*
X053082Y082733D01*X053160Y082770D01*X052749Y082770D02*X052931Y082697D01*
X053082Y082697D01*X053118Y082733D01*X052749Y082770D02*X052931Y082661D01*
X053082Y082661D01*X053118Y082697D01*X053160Y082770D01*X053160Y082830D01*
X053658Y083388D02*X053549Y083364D01*X053476Y083255D01*X053440Y083085D01*
X053440Y082976D01*X053476Y082806D01*X053549Y082697D01*X053658Y082661D01*
X053736Y082661D01*X053846Y082697D01*X053918Y082806D01*X053960Y082976D01*
X053960Y083085D01*X053918Y083255D01*X053846Y083364D01*X053736Y083388D01*
X053658Y083388D01*X053549Y083327D02*X053513Y083255D01*X053476Y083121D01*
X053476Y082939D01*X053513Y082806D01*X053549Y082733D01*X053846Y082733D02*
X053882Y082806D01*X053918Y082939D01*X053918Y083121D01*X053882Y083255D01*
X053846Y083327D01*X053658Y083388D02*X053586Y083364D01*X053549Y083291D01*
X053513Y083121D01*X053513Y082939D01*X053549Y082770D01*X053586Y082697D01*
X053658Y082661D01*X053736Y082661D02*X053809Y082697D01*X053846Y082770D01*
X053882Y082939D01*X053882Y083121D01*X053846Y083291D01*X053809Y083364D01*
X053736Y083388D01*X054474Y083327D02*X054474Y082661D01*X054495Y083327D02*
X054495Y082697D01*X054510Y083388D02*X054510Y082661D01*X054510Y083388D02*
X054458Y083291D01*X054427Y083255D01*X054412Y082661D02*X054578Y082661D01*
X054474Y082697D02*X054443Y082661D01*X054474Y082733D02*X054458Y082661D01*
X054510Y082733D02*X054526Y082661D01*X054510Y082697D02*X054542Y082661D01*
X055446Y083291D02*X055446Y083255D01*X055482Y083255D01*X055482Y083291D01*
X055446Y083291D01*X055482Y083327D02*X055446Y083327D01*X055409Y083291D01*
X055409Y083255D01*X055446Y083218D01*X055482Y083218D01*X055518Y083255D01*
X055518Y083291D01*X055482Y083364D01*X055409Y083388D01*X055300Y083388D01*
X055186Y083364D01*X055113Y083291D01*X055076Y083218D01*X055040Y083085D01*
X055040Y082867D01*X055076Y082770D01*X055149Y082697D01*X055258Y082661D01*
X055336Y082661D01*X055446Y082697D01*X055518Y082770D01*X055560Y082867D01*
X055560Y082903D01*X055518Y083012D01*X055446Y083085D01*X055336Y083121D01*
X055258Y083121D01*X055186Y083085D01*X055149Y083048D01*X055113Y082976D01*
X055149Y083291D02*X055113Y083218D01*X055076Y083085D01*X055076Y082867D01*
X055113Y082770D01*X055149Y082733D01*X055482Y082770D02*X055518Y082830D01*
X055518Y082939D01*X055482Y083012D01*X055300Y083388D02*X055222Y083364D01*
X055186Y083327D01*X055149Y083255D01*X055113Y083121D01*X055113Y082867D01*
X055149Y082770D01*X055186Y082697D01*X055258Y082661D01*X055336Y082661D02*
X055409Y082697D01*X055446Y082733D01*X055482Y082830D01*X055482Y082939D01*
X055446Y083048D01*X055409Y083085D01*X055336Y083121D01*X055840Y083012D02*
X056360Y083012D01*X056360Y082976D01*X055840Y083012D02*X055840Y082976D01*
X056360Y082976D01*X056858Y083388D02*X056749Y083364D01*X056676Y083255D01*
X056640Y083085D01*X056640Y082976D01*X056676Y082806D01*X056749Y082697D01*
X056858Y082661D01*X056936Y082661D01*X057046Y082697D01*X057118Y082806D01*
X057160Y082976D01*X057160Y083085D01*X057118Y083255D01*X057046Y083364D01*
X056936Y083388D01*X056858Y083388D01*X056749Y083327D02*X056713Y083255D01*
X056676Y083121D01*X056676Y082939D01*X056713Y082806D01*X056749Y082733D01*
X057046Y082733D02*X057082Y082806D01*X057118Y082939D01*X057118Y083121D01*
X057082Y083255D01*X057046Y083327D01*X056858Y083388D02*X056786Y083364D01*
X056749Y083291D01*X056713Y083121D01*X056713Y082939D01*X056749Y082770D01*
X056786Y082697D01*X056858Y082661D01*X056936Y082661D02*X057009Y082697D01*
X057046Y082770D01*X057082Y082939D01*X057082Y083121D01*X057046Y083291D01*
X057009Y083364D01*X056936Y083388D01*X057513Y082806D02*X057513Y082770D01*
X057549Y082770D01*X057549Y082806D01*X057513Y082806D01*X057882Y083085D02*
X057846Y083012D01*X057809Y082976D01*X057736Y082939D01*X057658Y082939D01*
X057549Y082976D01*X057476Y083048D01*X057440Y083145D01*X057440Y083182D01*
X057476Y083291D01*X057549Y083364D01*X057658Y083388D01*X057736Y083388D01*
X057846Y083364D01*X057918Y083291D01*X057960Y083182D01*X057960Y082976D01*
X057918Y082830D01*X057882Y082770D01*X057809Y082697D01*X057695Y082661D01*
X057586Y082661D01*X057513Y082697D01*X057476Y082770D01*X057476Y082806D01*
X057513Y082830D01*X057549Y082830D01*X057586Y082806D01*X057586Y082770D01*
X057549Y082733D01*X057513Y082733D01*X057513Y083048D02*X057476Y083121D01*
X057476Y083218D01*X057513Y083291D01*X057846Y083327D02*X057882Y083291D01*
X057918Y083182D01*X057918Y082976D01*X057882Y082830D01*X057846Y082770D01*
X057658Y082939D02*X057586Y082976D01*X057549Y083012D01*X057513Y083121D01*
X057513Y083218D01*X057549Y083327D01*X057586Y083364D01*X057658Y083388D01*
X057736Y083388D02*X057809Y083364D01*X057846Y083291D01*X057882Y083182D01*
X057882Y082939D01*X057846Y082806D01*X057809Y082733D01*X057773Y082697D01*
X057695Y082661D01*X058240Y083012D02*X058760Y083012D01*X058760Y082976D01*
X058240Y083012D02*X058240Y082976D01*X058760Y082976D01*X059258Y083388D02*
X059149Y083364D01*X059076Y083255D01*X059040Y083085D01*X059040Y082976D01*
X059076Y082806D01*X059149Y082697D01*X059258Y082661D01*X059336Y082661D01*
X059446Y082697D01*X059518Y082806D01*X059560Y082976D01*X059560Y083085D01*
X059518Y083255D01*X059446Y083364D01*X059336Y083388D01*X059258Y083388D01*
X059149Y083327D02*X059113Y083255D01*X059076Y083121D01*X059076Y082939D01*
X059113Y082806D01*X059149Y082733D01*X059446Y082733D02*X059482Y082806D01*
X059518Y082939D01*X059518Y083121D01*X059482Y083255D01*X059446Y083327D01*
X059258Y083388D02*X059186Y083364D01*X059149Y083291D01*X059113Y083121D01*
X059113Y082939D01*X059149Y082770D01*X059186Y082697D01*X059258Y082661D01*
X059336Y082661D02*X059409Y082697D01*X059446Y082770D01*X059482Y082939D01*
X059482Y083121D01*X059446Y083291D01*X059409Y083364D01*X059336Y083388D01*
X059913Y082806D02*X059913Y082770D01*X059949Y082770D01*X059949Y082806D01*
X059913Y082806D01*X060282Y083085D02*X060246Y083012D01*X060209Y082976D01*
X060136Y082939D01*X060058Y082939D01*X059949Y082976D01*X059876Y083048D01*
X059840Y083145D01*X059840Y083182D01*X059876Y083291D01*X059949Y083364D01*
X060058Y083388D01*X060136Y083388D01*X060246Y083364D01*X060318Y083291D01*
X060360Y083182D01*X060360Y082976D01*X060318Y082830D01*X060282Y082770D01*
X060209Y082697D01*X060095Y082661D01*X059986Y082661D01*X059913Y082697D01*
X059876Y082770D01*X059876Y082806D01*X059913Y082830D01*X059949Y082830D01*
X059986Y082806D01*X059986Y082770D01*X059949Y082733D01*X059913Y082733D01*
X059913Y083048D02*X059876Y083121D01*X059876Y083218D01*X059913Y083291D01*
X060246Y083327D02*X060282Y083291D01*X060318Y083182D01*X060318Y082976D01*
X060282Y082830D01*X060246Y082770D01*X060058Y082939D02*X059986Y082976D01*
X059949Y083012D01*X059913Y083121D01*X059913Y083218D01*X059949Y083327D01*
X059986Y083364D01*X060058Y083388D01*X060136Y083388D02*X060209Y083364D01*
X060246Y083291D01*X060282Y083182D01*X060282Y082939D01*X060246Y082806D01*
X060209Y082733D01*X060173Y082697D01*X060095Y082661D01*X043134Y083388D02*
X043134Y082661D01*X043170Y083364D02*X043170Y082697D01*X043201Y083388D02*
X043201Y082661D01*X043040Y083388D02*X043560Y083388D01*X043560Y083182D01*
X043201Y083048D02*X043394Y083048D01*X043394Y083182D02*X043394Y082903D01*
X043040Y082661D02*X043300Y082661D01*X043071Y083388D02*X043134Y083364D01*
X043102Y083388D02*X043134Y083327D01*X043232Y083388D02*X043201Y083327D01*
X043264Y083388D02*X043201Y083364D01*X043394Y083388D02*X043560Y083364D01*
X043461Y083388D02*X043560Y083327D01*X043492Y083388D02*X043560Y083291D01*
X043524Y083388D02*X043560Y083182D01*X043394Y083182D02*X043362Y083048D01*
X043394Y082903D01*X043394Y083121D02*X043331Y083048D01*X043394Y082976D01*
X043394Y083085D02*X043264Y083048D01*X043394Y083012D01*X043134Y082697D02*
X043071Y082661D01*X043134Y082733D02*X043102Y082661D01*X043201Y082733D02*
X043232Y082661D01*X043201Y082697D02*X043264Y082661D01*X044079Y083388D02*
X044079Y082661D01*X044095Y083364D02*X044095Y082697D01*X044116Y083388D02*
X044116Y082661D01*X044032Y083388D02*X044162Y083388D01*X044032Y082661D02*
X044162Y082661D01*X044048Y083388D02*X044079Y083364D01*X044064Y083388D02*
X044079Y083327D01*X044131Y083388D02*X044116Y083327D01*X044147Y083388D02*
X044116Y083364D01*X044079Y082697D02*X044048Y082661D01*X044079Y082733D02*
X044064Y082661D01*X044116Y082733D02*X044131Y082661D01*X044116Y082697D02*
X044147Y082661D01*X044697Y083388D02*X045040Y082661D01*X044723Y083388D02*
X045072Y082661D01*X044754Y083388D02*X045098Y082661D01*X045072Y083364D02*
X044723Y082697D01*X044640Y083388D02*X044838Y083388D01*X044983Y083388D02*
X045160Y083388D01*X044640Y082661D02*X044812Y082661D01*X044957Y082661D02*
X045160Y082661D01*X044666Y083388D02*X044754Y083327D01*X044780Y083388D02*
X044754Y083327D01*X044812Y083388D02*X044754Y083364D01*X045014Y083388D02*
X045072Y083364D01*X045129Y083388D02*X045072Y083364D01*X044723Y082697D02*
X044666Y082661D01*X044723Y082697D02*X044780Y082661D01*X045040Y082697D02*
X044983Y082661D01*X045040Y082733D02*X045014Y082661D01*X045040Y082733D02*
X045129Y082661D01*X045674Y083327D02*X045674Y082661D01*X045695Y083327D02*
X045695Y082697D01*X045710Y083388D02*X045710Y082661D01*X045710Y083388D02*
X045658Y083291D01*X045627Y083255D01*X045612Y082661D02*X045778Y082661D01*
X045674Y082697D02*X045643Y082661D01*X045674Y082733D02*X045658Y082661D01*
X045710Y082733D02*X045726Y082661D01*X045710Y082697D02*X045742Y082661D01*
X000000Y000000D02*D02*G54D186*X008000Y011250D03*X008000Y012750D03*
X015000Y018250D03*X015000Y016750D03*X013000Y018250D03*X013000Y016750D03*
X029250Y018250D03*X029250Y016750D03*X027875Y018250D03*X027875Y016750D03*
X029000Y023250D03*X029000Y024750D03*X021000Y032250D03*X021000Y033750D03*
X048000Y053250D03*X019000Y057500D03*X048000Y054750D03*X019000Y059000D03*D02*
G54D187*X010821Y008595D02*X012014Y008595D01*X010821Y009865D02*X012014Y009865D01*
X010821Y011135D02*X012014Y011135D01*X015986Y011135D02*X017179Y011135D01*
X015986Y009865D02*X017179Y009865D01*X015986Y008595D02*X017179Y008595D01*
X010821Y012405D02*X012014Y012405D01*X015986Y012405D02*X017179Y012405D01*
X036135Y035014D02*X036135Y033821D01*X034865Y035014D02*X034865Y033821D01*
X033595Y035014D02*X033595Y033821D01*X037405Y035014D02*X037405Y033821D01*
X033595Y040179D02*X033595Y038986D01*X034865Y040179D02*X034865Y038986D01*
X036135Y040179D02*X036135Y038986D01*X037405Y040179D02*X037405Y038986D01*D02*
G54D188*X010950Y035500D03*X007050Y035500D03*X015050Y035500D03*X018950Y035500D03*
X015050Y038500D03*X018950Y038500D03*D02*G54D189*X011500Y046050D03*
X014500Y046050D03*X023500Y046050D03*X020500Y046050D03*X032500Y046050D03*
X035500Y046050D03*X047500Y046050D03*X044500Y046050D03*X053500Y046050D03*
X050500Y046050D03*X011500Y049950D03*X014500Y049950D03*X023500Y049950D03*
X020500Y049950D03*X032500Y049950D03*X035500Y049950D03*X047500Y049950D03*
X044500Y049950D03*X053500Y049950D03*X050500Y049950D03*X032500Y060050D03*
X035500Y060050D03*X011500Y065050D03*X014500Y065050D03*X017500Y065050D03*
X026500Y065050D03*X032500Y063950D03*X035500Y063950D03*X011500Y068950D03*
X014500Y068950D03*X017500Y068950D03*X026500Y068950D03*D02*G54D190*
X011500Y053975D03*X011500Y053325D03*X011500Y052675D03*X011500Y052025D03*
X014500Y052025D03*X014500Y052675D03*X014500Y053325D03*X014500Y053975D03*
X020500Y053975D03*X020500Y053325D03*X020500Y052675D03*X020500Y052025D03*
X023500Y052025D03*X023500Y052675D03*X023500Y053325D03*X023500Y053975D03*D02*
G54D191*X032500Y065825D03*X011500Y070825D03*X031550Y068175D03*X033450Y068175D03*
X010550Y073175D03*X012450Y073175D03*D02*G54D192*X023175Y064850D03*
X022825Y064850D03*X021175Y064850D03*X020825Y064850D03*X029825Y067350D03*
X030175Y067350D03*X009175Y072350D03*X008825Y072350D03*D02*G54D193*
X023000Y064200D03*X021000Y064200D03*X030000Y066700D03*X009000Y071700D03*D02*
G54D194*X013250Y014000D03*X014750Y014000D03*X029000Y027000D03*X030500Y027000D03*
X052250Y059000D03*X053750Y059000D03*D02*G54D195*X016550Y017500D03*
X018450Y016850D03*X018450Y018150D03*X022450Y016850D03*X022450Y018150D03*
X020550Y017500D03*X026200Y016850D03*X026200Y018150D03*X024300Y017500D03*D02*
G54D196*X015000Y033000D03*X019000Y033000D03*X028000Y037000D03*X057000Y036000D03*
X057000Y038000D03*X057000Y047000D03*X057000Y049000D03*D02*G54D198*
X013000Y056326D03*X022000Y056326D03*X013000Y060674D03*X022000Y060674D03*D02*
G54D199*X022500Y007860D03*X022500Y011140D03*D02*G54D200*X019650Y013500D03*
X022350Y013500D03*D02*G54D201*X024000Y021100D03*X020000Y021100D03*
X024000Y027900D03*X020000Y027900D03*D02*G54D203*X021025Y035500D03*
X021675Y035500D03*X022325Y035500D03*X022975Y035500D03*X022975Y038500D03*
X022325Y038500D03*X021675Y038500D03*X021025Y038500D03*D02*G54D204*
X022950Y066705D03*X022000Y066705D03*X021050Y066705D03*X022000Y069295D03*
X022950Y069295D03*X021050Y069295D03*D02*G54D205*X024360Y011000D03*
X027640Y011000D03*D02*G54D206*X027000Y023325D03*X027000Y025175D03*D02*G54D207*
X029250Y036750D03*X029250Y036250D03*X029750Y036250D03*X030750Y036250D03*
X030750Y036750D03*X030250Y036250D03*X029750Y037750D03*X029250Y037750D03*
X029250Y037250D03*X030750Y037250D03*X030750Y037750D03*X030250Y037750D03*D02*
G54D208*X033000Y005750D03*X033000Y004250D03*X036000Y005750D03*X036000Y004250D03*
X039000Y005750D03*X039000Y004250D03*X042000Y005750D03*X042000Y004250D03*
X036250Y055000D03*X036250Y057000D03*X037750Y055000D03*X037750Y057000D03*D02*
G54D209*X036350Y011575D03*X038650Y011575D03*X036350Y013425D03*X038650Y013425D03*
D02*G54D210*X033268Y019500D03*X038232Y019500D03*X033268Y023000D03*
X033268Y022500D03*X033268Y022000D03*X033268Y021500D03*X033268Y021000D03*
X033268Y020500D03*X033268Y020000D03*X038232Y023000D03*X038232Y022500D03*
X038232Y022000D03*X038232Y021500D03*X038232Y021000D03*X038232Y020500D03*
X038232Y020000D03*X048532Y061250D03*X048532Y061750D03*X048532Y062250D03*
X048532Y062750D03*X045468Y062750D03*X045468Y062250D03*X045468Y061750D03*
X045468Y061250D03*D02*G54D211*X034000Y018768D03*X034500Y018768D03*
X035000Y018768D03*X035500Y018768D03*X036000Y018768D03*X036500Y018768D03*
X037000Y018768D03*X037500Y018768D03*X036000Y023732D03*X035500Y023732D03*
X035000Y023732D03*X034500Y023732D03*X034000Y023732D03*X037500Y023732D03*
X037000Y023732D03*X036500Y023732D03*X046250Y060468D03*X046750Y060468D03*
X047250Y060468D03*X047750Y060468D03*X047750Y063532D03*X047250Y063532D03*
X046750Y063532D03*X046250Y063532D03*D02*G54D212*X035750Y021250D03*D02*G54D213*
X034800Y054950D03*X034800Y057050D03*X034400Y057050D03*X034000Y057050D03*
X034400Y054950D03*X034000Y054950D03*X033600Y054950D03*X033200Y054950D03*
X033600Y057050D03*X033200Y057050D03*D02*G54D214*X034000Y056000D03*D02*G54D215*
X041925Y057000D03*X040075Y057000D03*X041925Y059000D03*X040075Y059000D03*
X040075Y055000D03*X041925Y055000D03*X041925Y063000D03*X040075Y063000D03*
X041925Y061000D03*X040075Y061000D03*X052075Y061000D03*X053925Y061000D03*
X052075Y063000D03*X053925Y063000D03*X041925Y067000D03*X040075Y067000D03*
X040075Y065000D03*X041925Y065000D03*D02*G54D216*X052000Y066925D03*
X052000Y065075D03*X054000Y066925D03*X054000Y065075D03*X042000Y070925D03*
X042000Y069075D03*X040000Y070925D03*X040000Y069075D03*X048000Y070925D03*
X048000Y069075D03*X044000Y070925D03*X044000Y069075D03*X052000Y070925D03*
X052000Y069075D03*X050000Y070925D03*X050000Y069075D03*X054000Y070925D03*
X054000Y069075D03*D02*G54D217*X045000Y023250D03*X045000Y025750D03*D02*G54D218*
X046826Y034500D03*X051174Y034500D03*X046826Y039500D03*X051174Y039500D03*D02*
G54D219*X047000Y062000D03*D02*G54D220*X053975Y054000D03*X051025Y054000D03*D02*
G54D221*X012563Y052438D03*X012563Y053563D03*X013438Y052438D03*X013438Y053563D03*
X021563Y052438D03*X021563Y053563D03*X022438Y052438D03*X022438Y053563D03*D02*
G54D222*X022563Y036563D03*X021438Y036563D03*X022563Y037438D03*X021438Y037438D03*
G36*X032750Y001850D02*X032752Y001830D01*X032758Y001812D01*X032767Y001794D01*
X032779Y001779D01*X032794Y001767D01*X032812Y001758D01*X032830Y001752D01*
X032850Y001750D01*X033150Y001750D01*X033170Y001752D01*X033188Y001758D01*
X033206Y001767D01*X033221Y001779D01*X033233Y001794D01*X033242Y001812D01*
X033248Y001830D01*X033250Y001850D01*X033250Y002150D01*X033248Y002170D01*
X033242Y002188D01*X033233Y002206D01*X033221Y002221D01*X033206Y002233D01*
X033188Y002242D01*X033170Y002248D01*X033150Y002250D01*X032850Y002250D01*
X032830Y002248D01*X032812Y002242D01*X032794Y002233D01*X032779Y002221D01*
X032767Y002206D01*X032758Y002188D01*X032752Y002170D01*X032750Y002150D01*
X032750Y001850D01*G37*G36*X035750Y001850D02*X035752Y001830D01*X035758Y001812D01*
X035767Y001794D01*X035779Y001779D01*X035794Y001767D01*X035812Y001758D01*
X035830Y001752D01*X035850Y001750D01*X036150Y001750D01*X036170Y001752D01*
X036188Y001758D01*X036206Y001767D01*X036221Y001779D01*X036233Y001794D01*
X036242Y001812D01*X036248Y001830D01*X036250Y001850D01*X036250Y002150D01*
X036248Y002170D01*X036242Y002188D01*X036233Y002206D01*X036221Y002221D01*
X036206Y002233D01*X036188Y002242D01*X036170Y002248D01*X036150Y002250D01*
X035850Y002250D01*X035830Y002248D01*X035812Y002242D01*X035794Y002233D01*
X035779Y002221D01*X035767Y002206D01*X035758Y002188D01*X035752Y002170D01*
X035750Y002150D01*X035750Y001850D01*G37*G36*X038750Y001850D02*X038752Y001830D01*
X038758Y001812D01*X038767Y001794D01*X038779Y001779D01*X038794Y001767D01*
X038812Y001758D01*X038830Y001752D01*X038850Y001750D01*X039150Y001750D01*
X039170Y001752D01*X039188Y001758D01*X039206Y001767D01*X039221Y001779D01*
X039233Y001794D01*X039242Y001812D01*X039248Y001830D01*X039250Y001850D01*
X039250Y002150D01*X039248Y002170D01*X039242Y002188D01*X039233Y002206D01*
X039221Y002221D01*X039206Y002233D01*X039188Y002242D01*X039170Y002248D01*
X039150Y002250D01*X038850Y002250D01*X038830Y002248D01*X038812Y002242D01*
X038794Y002233D01*X038779Y002221D01*X038767Y002206D01*X038758Y002188D01*
X038752Y002170D01*X038750Y002150D01*X038750Y001850D01*G37*G36*X041750Y001850D02*
X041752Y001830D01*X041758Y001812D01*X041767Y001794D01*X041779Y001779D01*
X041794Y001767D01*X041812Y001758D01*X041830Y001752D01*X041850Y001750D01*
X042150Y001750D01*X042170Y001752D01*X042188Y001758D01*X042206Y001767D01*
X042221Y001779D01*X042233Y001794D01*X042242Y001812D01*X042248Y001830D01*
X042250Y001850D01*X042250Y002150D01*X042248Y002170D01*X042242Y002188D01*
X042233Y002206D01*X042221Y002221D01*X042206Y002233D01*X042188Y002242D01*
X042170Y002248D01*X042150Y002250D01*X041850Y002250D01*X041830Y002248D01*
X041812Y002242D01*X041794Y002233D01*X041779Y002221D01*X041767Y002206D01*
X041758Y002188D01*X041752Y002170D01*X041750Y002150D01*X041750Y001850D01*G37*G36*
X032750Y002850D02*X032752Y002830D01*X032758Y002812D01*X032767Y002794D01*
X032779Y002779D01*X032794Y002767D01*X032812Y002758D01*X032830Y002752D01*
X032850Y002750D01*X033150Y002750D01*X033170Y002752D01*X033188Y002758D01*
X033206Y002767D01*X033221Y002779D01*X033233Y002794D01*X033242Y002812D01*
X033248Y002830D01*X033250Y002850D01*X033250Y003150D01*X033248Y003170D01*
X033242Y003188D01*X033233Y003206D01*X033221Y003221D01*X033206Y003233D01*
X033188Y003242D01*X033170Y003248D01*X033150Y003250D01*X032850Y003250D01*
X032830Y003248D01*X032812Y003242D01*X032794Y003233D01*X032779Y003221D01*
X032767Y003206D01*X032758Y003188D01*X032752Y003170D01*X032750Y003150D01*
X032750Y002850D01*G37*G36*X035750Y002850D02*X035752Y002830D01*X035758Y002812D01*
X035767Y002794D01*X035779Y002779D01*X035794Y002767D01*X035812Y002758D01*
X035830Y002752D01*X035850Y002750D01*X036150Y002750D01*X036170Y002752D01*
X036188Y002758D01*X036206Y002767D01*X036221Y002779D01*X036233Y002794D01*
X036242Y002812D01*X036248Y002830D01*X036250Y002850D01*X036250Y003150D01*
X036248Y003170D01*X036242Y003188D01*X036233Y003206D01*X036221Y003221D01*
X036206Y003233D01*X036188Y003242D01*X036170Y003248D01*X036150Y003250D01*
X035850Y003250D01*X035830Y003248D01*X035812Y003242D01*X035794Y003233D01*
X035779Y003221D01*X035767Y003206D01*X035758Y003188D01*X035752Y003170D01*
X035750Y003150D01*X035750Y002850D01*G37*G36*X038750Y002850D02*X038752Y002830D01*
X038758Y002812D01*X038767Y002794D01*X038779Y002779D01*X038794Y002767D01*
X038812Y002758D01*X038830Y002752D01*X038850Y002750D01*X039150Y002750D01*
X039170Y002752D01*X039188Y002758D01*X039206Y002767D01*X039221Y002779D01*
X039233Y002794D01*X039242Y002812D01*X039248Y002830D01*X039250Y002850D01*
X039250Y003150D01*X039248Y003170D01*X039242Y003188D01*X039233Y003206D01*
X039221Y003221D01*X039206Y003233D01*X039188Y003242D01*X039170Y003248D01*
X039150Y003250D01*X038850Y003250D01*X038830Y003248D01*X038812Y003242D01*
X038794Y003233D01*X038779Y003221D01*X038767Y003206D01*X038758Y003188D01*
X038752Y003170D01*X038750Y003150D01*X038750Y002850D01*G37*G36*X041750Y002850D02*
X041752Y002830D01*X041758Y002812D01*X041767Y002794D01*X041779Y002779D01*
X041794Y002767D01*X041812Y002758D01*X041830Y002752D01*X041850Y002750D01*
X042150Y002750D01*X042170Y002752D01*X042188Y002758D01*X042206Y002767D01*
X042221Y002779D01*X042233Y002794D01*X042242Y002812D01*X042248Y002830D01*
X042250Y002850D01*X042250Y003150D01*X042248Y003170D01*X042242Y003188D01*
X042233Y003206D01*X042221Y003221D01*X042206Y003233D01*X042188Y003242D01*
X042170Y003248D01*X042150Y003250D01*X041850Y003250D01*X041830Y003248D01*
X041812Y003242D01*X041794Y003233D01*X041779Y003221D01*X041767Y003206D01*
X041758Y003188D01*X041752Y003170D01*X041750Y003150D01*X041750Y002850D01*G37*G36*
X007750Y007850D02*X007752Y007830D01*X007758Y007812D01*X007767Y007794D01*
X007779Y007779D01*X007794Y007767D01*X007812Y007758D01*X007830Y007752D01*
X007850Y007750D01*X008150Y007750D01*X008170Y007752D01*X008188Y007758D01*
X008206Y007767D01*X008221Y007779D01*X008233Y007794D01*X008242Y007812D01*
X008248Y007830D01*X008250Y007850D01*X008250Y008150D01*X008248Y008170D01*
X008242Y008188D01*X008233Y008206D01*X008221Y008221D01*X008206Y008233D01*
X008188Y008242D01*X008170Y008248D01*X008150Y008250D01*X007850Y008250D01*
X007830Y008248D01*X007812Y008242D01*X007794Y008233D01*X007779Y008221D01*
X007767Y008206D01*X007758Y008188D01*X007752Y008170D01*X007750Y008150D01*
X007750Y007850D01*G37*G36*X007750Y008850D02*X007752Y008830D01*X007758Y008812D01*
X007767Y008794D01*X007779Y008779D01*X007794Y008767D01*X007812Y008758D01*
X007830Y008752D01*X007850Y008750D01*X008150Y008750D01*X008170Y008752D01*
X008188Y008758D01*X008206Y008767D01*X008221Y008779D01*X008233Y008794D01*
X008242Y008812D01*X008248Y008830D01*X008250Y008850D01*X008250Y009150D01*
X008248Y009170D01*X008242Y009188D01*X008233Y009206D01*X008221Y009221D01*
X008206Y009233D01*X008188Y009242D01*X008170Y009248D01*X008150Y009250D01*
X007850Y009250D01*X007830Y009248D01*X007812Y009242D01*X007794Y009233D01*
X007779Y009221D01*X007767Y009206D01*X007758Y009188D01*X007752Y009170D01*
X007750Y009150D01*X007750Y008850D01*
G37*G36*X007750Y009850D02*X007752Y009830D01*
X007758Y009812D01*X007767Y009794D01*X007779Y009779D01*X007794Y009767D01*
X007812Y009758D01*X007830Y009752D01*X007850Y009750D01*X008150Y009750D01*
X008170Y009752D01*X008188Y009758D01*X008206Y009767D01*X008221Y009779D01*
X008233Y009794D01*X008242Y009812D01*X008248Y009830D01*X008250Y009850D01*
X008250Y010150D01*X008248Y010170D01*X008242Y010188D01*X008233Y010206D01*
X008221Y010221D01*X008206Y010233D01*X008188Y010242D01*X008170Y010248D01*
X008150Y010250D01*X007850Y010250D01*X007830Y010248D01*X007812Y010242D01*
X007794Y010233D01*X007779Y010221D01*X007767Y010206D01*X007758Y010188D01*
X007752Y010170D01*X007750Y010150D01*X007750Y009850D01*G37*G36*X008750Y009850D02*
X008752Y009830D01*X008758Y009812D01*X008767Y009794D01*X008779Y009779D01*
X008794Y009767D01*X008812Y009758D01*X008830Y009752D01*X008850Y009750D01*
X009150Y009750D01*X009170Y009752D01*X009188Y009758D01*X009206Y009767D01*
X009221Y009779D01*X009233Y009794D01*X009242Y009812D01*X009248Y009830D01*
X009250Y009850D01*X009250Y010150D01*X009248Y010170D01*X009242Y010188D01*
X009233Y010206D01*X009221Y010221D01*X009206Y010233D01*X009188Y010242D01*
X009170Y010248D01*X009150Y010250D01*X008850Y010250D01*X008830Y010248D01*
X008812Y010242D01*X008794Y010233D01*X008779Y010221D01*X008767Y010206D01*
X008758Y010188D01*X008752Y010170D01*X008750Y010150D01*X008750Y009850D01*G37*G36*
X008750Y007850D02*X008752Y007830D01*X008758Y007812D01*X008767Y007794D01*
X008779Y007779D01*X008794Y007767D01*X008812Y007758D01*X008830Y007752D01*
X008850Y007750D01*X009150Y007750D01*X009170Y007752D01*X009188Y007758D01*
X009206Y007767D01*X009221Y007779D01*X009233Y007794D01*X009242Y007812D01*
X009248Y007830D01*X009250Y007850D01*X009250Y008150D01*X009248Y008170D01*
X009242Y008188D01*X009233Y008206D01*X009221Y008221D01*X009206Y008233D01*
X009188Y008242D01*X009170Y008248D01*X009150Y008250D01*X008850Y008250D01*
X008830Y008248D01*X008812Y008242D01*X008794Y008233D01*X008779Y008221D01*
X008767Y008206D01*X008758Y008188D01*X008752Y008170D01*X008750Y008150D01*
X008750Y007850D01*G37*G36*X008750Y008850D02*X008752Y008830D01*X008758Y008812D01*
X008767Y008794D01*X008779Y008779D01*X008794Y008767D01*X008812Y008758D01*
X008830Y008752D01*X008850Y008750D01*X009150Y008750D01*X009170Y008752D01*
X009188Y008758D01*X009206Y008767D01*X009221Y008779D01*X009233Y008794D01*
X009242Y008812D01*X009248Y008830D01*X009250Y008850D01*X009250Y009150D01*
X009248Y009170D01*X009242Y009188D01*X009233Y009206D01*X009221Y009221D01*
X009206Y009233D01*X009188Y009242D01*X009170Y009248D01*X009150Y009250D01*
X008850Y009250D01*X008830Y009248D01*X008812Y009242D01*X008794Y009233D01*
X008779Y009221D01*X008767Y009206D01*X008758Y009188D01*X008752Y009170D01*
X008750Y009150D01*X008750Y008850D01*G37*G36*X008750Y010850D02*X008752Y010830D01*
X008758Y010812D01*X008767Y010794D01*X008779Y010779D01*X008794Y010767D01*
X008812Y010758D01*X008830Y010752D01*X008850Y010750D01*X009150Y010750D01*
X009170Y010752D01*X009188Y010758D01*X009206Y010767D01*X009221Y010779D01*
X009233Y010794D01*X009242Y010812D01*X009248Y010830D01*X009250Y010850D01*
X009250Y011150D01*X009248Y011170D01*X009242Y011188D01*X009233Y011206D01*
X009221Y011221D01*X009206Y011233D01*X009188Y011242D01*X009170Y011248D01*
X009150Y011250D01*X008850Y011250D01*X008830Y011248D01*X008812Y011242D01*
X008794Y011233D01*X008779Y011221D01*X008767Y011206D01*X008758Y011188D01*
X008752Y011170D01*X008750Y011150D01*X008750Y010850D01*G37*G36*X020750Y010850D02*
X020752Y010830D01*X020758Y010812D01*X020767Y010794D01*X020779Y010779D01*
X020794Y010767D01*X020812Y010758D01*X020830Y010752D01*X020850Y010750D01*
X021150Y010750D01*X021170Y010752D01*X021188Y010758D01*X021206Y010767D01*
X021221Y010779D01*X021233Y010794D01*X021242Y010812D01*X021248Y010830D01*
X021250Y010850D01*X021250Y011150D01*X021248Y011170D01*X021242Y011188D01*
X021233Y011206D01*X021221Y011221D01*X021206Y011233D01*X021188Y011242D01*
X021170Y011248D01*X021150Y011250D01*X020850Y011250D01*X020830Y011248D01*
X020812Y011242D01*X020794Y011233D01*X020779Y011221D01*X020767Y011206D01*
X020758Y011188D01*X020752Y011170D01*X020750Y011150D01*X020750Y010850D01*G37*G36*
X019750Y010850D02*X019752Y010830D01*X019758Y010812D01*X019767Y010794D01*
X019779Y010779D01*X019794Y010767D01*X019812Y010758D01*X019830Y010752D01*
X019850Y010750D01*X020150Y010750D01*X020170Y010752D01*X020188Y010758D01*
X020206Y010767D01*X020221Y010779D01*X020233Y010794D01*X020242Y010812D01*
X020248Y010830D01*X020250Y010850D01*X020250Y011150D01*X020248Y011170D01*
X020242Y011188D01*X020233Y011206D01*X020221Y011221D01*X020206Y011233D01*
X020188Y011242D01*X020170Y011248D01*X020150Y011250D01*X019850Y011250D01*
X019830Y011248D01*X019812Y011242D01*X019794Y011233D01*X019779Y011221D01*
X019767Y011206D01*X019758Y011188D01*X019752Y011170D01*X019750Y011150D01*
X019750Y010850D01*G37*G36*X018750Y009850D02*X018752Y009830D01*X018758Y009812D01*
X018767Y009794D01*X018779Y009779D01*X018794Y009767D01*X018812Y009758D01*
X018830Y009752D01*X018850Y009750D01*X019150Y009750D01*X019170Y009752D01*
X019188Y009758D01*X019206Y009767D01*X019221Y009779D01*X019233Y009794D01*
X019242Y009812D01*X019248Y009830D01*X019250Y009850D01*X019250Y010150D01*
X019248Y010170D01*X019242Y010188D01*X019233Y010206D01*X019221Y010221D01*
X019206Y010233D01*X019188Y010242D01*X019170Y010248D01*X019150Y010250D01*
X018850Y010250D01*X018830Y010248D01*X018812Y010242D01*X018794Y010233D01*
X018779Y010221D01*X018767Y010206D01*X018758Y010188D01*X018752Y010170D01*
X018750Y010150D01*X018750Y009850D01*G37*G36*X018750Y010850D02*X018752Y010830D01*
X018758Y010812D01*X018767Y010794D01*X018779Y010779D01*X018794Y010767D01*
X018812Y010758D01*X018830Y010752D01*X018850Y010750D01*X019150Y010750D01*
X019170Y010752D01*X019188Y010758D01*X019206Y010767D01*X019221Y010779D01*
X019233Y010794D01*X019242Y010812D01*X019248Y010830D01*X019250Y010850D01*
X019250Y011150D01*X019248Y011170D01*X019242Y011188D01*X019233Y011206D01*
X019221Y011221D01*X019206Y011233D01*X019188Y011242D01*X019170Y011248D01*
X019150Y011250D01*X018850Y011250D01*X018830Y011248D01*X018812Y011242D01*
X018794Y011233D01*X018779Y011221D01*X018767Y011206D01*X018758Y011188D01*
X018752Y011170D01*X018750Y011150D01*X018750Y010850D01*G37*G36*X007750Y014850D02*
X007752Y014830D01*X007758Y014812D01*X007767Y014794D01*X007779Y014779D01*
X007794Y014767D01*X007812Y014758D01*X007830Y014752D01*X007850Y014750D01*
X008150Y014750D01*X008170Y014752D01*X008188Y014758D01*X008206Y014767D01*
X008221Y014779D01*X008233Y014794D01*X008242Y014812D01*X008248Y014830D01*
X008250Y014850D01*X008250Y015150D01*X008248Y015170D01*X008242Y015188D01*
X008233Y015206D01*X008221Y015221D01*X008206Y015233D01*X008188Y015242D01*
X008170Y015248D01*X008150Y015250D01*X007850Y015250D01*X007830Y015248D01*
X007812Y015242D01*X007794Y015233D01*X007779Y015221D01*X007767Y015206D01*
X007758Y015188D01*X007752Y015170D01*X007750Y015150D01*X007750Y014850D01*
G37*G36*
X007750Y013850D02*X007752Y013830D01*X007758Y013812D01*X007767Y013794D01*
X007779Y013779D01*X007794Y013767D01*X007812Y013758D01*X007830Y013752D01*
X007850Y013750D01*X008150Y013750D01*X008170Y013752D01*X008188Y013758D01*
X008206Y013767D01*X008221Y013779D01*X008233Y013794D01*X008242Y013812D01*
X008248Y013830D01*X008250Y013850D01*X008250Y014150D01*X008248Y014170D01*
X008242Y014188D01*X008233Y014206D01*X008221Y014221D01*X008206Y014233D01*
X008188Y014242D01*X008170Y014248D01*X008150Y014250D01*X007850Y014250D01*
X007830Y014248D01*X007812Y014242D01*X007794Y014233D01*X007779Y014221D01*
X007767Y014206D01*X007758Y014188D01*X007752Y014170D01*X007750Y014150D01*
X007750Y013850D01*G37*G36*X010750Y013850D02*X010752Y013830D01*X010758Y013812D01*
X010767Y013794D01*X010779Y013779D01*X010794Y013767D01*X010812Y013758D01*
X010830Y013752D01*X010850Y013750D01*X011150Y013750D01*X011170Y013752D01*
X011188Y013758D01*X011206Y013767D01*X011221Y013779D01*X011233Y013794D01*
X011242Y013812D01*X011248Y013830D01*X011250Y013850D01*X011250Y014150D01*
X011248Y014170D01*X011242Y014188D01*X011233Y014206D01*X011221Y014221D01*
X011206Y014233D01*X011188Y014242D01*X011170Y014248D01*X011150Y014250D01*
X010850Y014250D01*X010830Y014248D01*X010812Y014242D01*X010794Y014233D01*
X010779Y014221D01*X010767Y014206D01*X010758Y014188D01*X010752Y014170D01*
X010750Y014150D01*X010750Y013850D01*G37*G36*X008750Y011850D02*X008752Y011830D01*
X008758Y011812D01*X008767Y011794D01*X008779Y011779D01*X008794Y011767D01*
X008812Y011758D01*X008830Y011752D01*X008850Y011750D01*X009150Y011750D01*
X009170Y011752D01*X009188Y011758D01*X009206Y011767D01*X009221Y011779D01*
X009233Y011794D01*X009242Y011812D01*X009248Y011830D01*X009250Y011850D01*
X009250Y012150D01*X009248Y012170D01*X009242Y012188D01*X009233Y012206D01*
X009221Y012221D01*X009206Y012233D01*X009188Y012242D01*X009170Y012248D01*
X009150Y012250D01*X008850Y012250D01*X008830Y012248D01*X008812Y012242D01*
X008794Y012233D01*X008779Y012221D01*X008767Y012206D01*X008758Y012188D01*
X008752Y012170D01*X008750Y012150D01*X008750Y011850D01*G37*G36*X011750Y013850D02*
X011752Y013830D01*X011758Y013812D01*X011767Y013794D01*X011779Y013779D01*
X011794Y013767D01*X011812Y013758D01*X011830Y013752D01*X011850Y013750D01*
X012150Y013750D01*X012170Y013752D01*X012188Y013758D01*X012206Y013767D01*
X012221Y013779D01*X012233Y013794D01*X012242Y013812D01*X012248Y013830D01*
X012250Y013850D01*X012250Y014150D01*X012248Y014170D01*X012242Y014188D01*
X012233Y014206D01*X012221Y014221D01*X012206Y014233D01*X012188Y014242D01*
X012170Y014248D01*X012150Y014250D01*X011850Y014250D01*X011830Y014248D01*
X011812Y014242D01*X011794Y014233D01*X011779Y014221D01*X011767Y014206D01*
X011758Y014188D01*X011752Y014170D01*X011750Y014150D01*X011750Y013850D01*G37*G36*
X016750Y014850D02*X016752Y014830D01*X016758Y014812D01*X016767Y014794D01*
X016779Y014779D01*X016794Y014767D01*X016812Y014758D01*X016830Y014752D01*
X016850Y014750D01*X017150Y014750D01*X017170Y014752D01*X017188Y014758D01*
X017206Y014767D01*X017221Y014779D01*X017233Y014794D01*X017242Y014812D01*
X017248Y014830D01*X017250Y014850D01*X017250Y015150D01*X017248Y015170D01*
X017242Y015188D01*X017233Y015206D01*X017221Y015221D01*X017206Y015233D01*
X017188Y015242D01*X017170Y015248D01*X017150Y015250D01*X016850Y015250D01*
X016830Y015248D01*X016812Y015242D01*X016794Y015233D01*X016779Y015221D01*
X016767Y015206D01*X016758Y015188D01*X016752Y015170D01*X016750Y015150D01*
X016750Y014850D01*G37*G36*X021750Y014850D02*X021752Y014830D01*X021758Y014812D01*
X021767Y014794D01*X021779Y014779D01*X021794Y014767D01*X021812Y014758D01*
X021830Y014752D01*X021850Y014750D01*X022150Y014750D01*X022170Y014752D01*
X022188Y014758D01*X022206Y014767D01*X022221Y014779D01*X022233Y014794D01*
X022242Y014812D01*X022248Y014830D01*X022250Y014850D01*X022250Y015150D01*
X022248Y015170D01*X022242Y015188D01*X022233Y015206D01*X022221Y015221D01*
X022206Y015233D01*X022188Y015242D01*X022170Y015248D01*X022150Y015250D01*
X021850Y015250D01*X021830Y015248D01*X021812Y015242D01*X021794Y015233D01*
X021779Y015221D01*X021767Y015206D01*X021758Y015188D01*X021752Y015170D01*
X021750Y015150D01*X021750Y014850D01*G37*G36*X020750Y014850D02*X020752Y014830D01*
X020758Y014812D01*X020767Y014794D01*X020779Y014779D01*X020794Y014767D01*
X020812Y014758D01*X020830Y014752D01*X020850Y014750D01*X021150Y014750D01*
X021170Y014752D01*X021188Y014758D01*X021206Y014767D01*X021221Y014779D01*
X021233Y014794D01*X021242Y014812D01*X021248Y014830D01*X021250Y014850D01*
X021250Y015150D01*X021248Y015170D01*X021242Y015188D01*X021233Y015206D01*
X021221Y015221D01*X021206Y015233D01*X021188Y015242D01*X021170Y015248D01*
X021150Y015250D01*X020850Y015250D01*X020830Y015248D01*X020812Y015242D01*
X020794Y015233D01*X020779Y015221D01*X020767Y015206D01*X020758Y015188D01*
X020752Y015170D01*X020750Y015150D01*X020750Y014850D01*G37*G36*X017750Y014850D02*
X017752Y014830D01*X017758Y014812D01*X017767Y014794D01*X017779Y014779D01*
X017794Y014767D01*X017812Y014758D01*X017830Y014752D01*X017850Y014750D01*
X018150Y014750D01*X018170Y014752D01*X018188Y014758D01*X018206Y014767D01*
X018221Y014779D01*X018233Y014794D01*X018242Y014812D01*X018248Y014830D01*
X018250Y014850D01*X018250Y015150D01*X018248Y015170D01*X018242Y015188D01*
X018233Y015206D01*X018221Y015221D01*X018206Y015233D01*X018188Y015242D01*
X018170Y015248D01*X018150Y015250D01*X017850Y015250D01*X017830Y015248D01*
X017812Y015242D01*X017794Y015233D01*X017779Y015221D01*X017767Y015206D01*
X017758Y015188D01*X017752Y015170D01*X017750Y015150D01*X017750Y014850D01*G37*G36*
X026750Y013850D02*X026752Y013830D01*X026758Y013812D01*X026767Y013794D01*
X026779Y013779D01*X026794Y013767D01*X026812Y013758D01*X026830Y013752D01*
X026850Y013750D01*X027150Y013750D01*X027170Y013752D01*X027188Y013758D01*
X027206Y013767D01*X027221Y013779D01*X027233Y013794D01*X027242Y013812D01*
X027248Y013830D01*X027250Y013850D01*X027250Y014150D01*X027248Y014170D01*
X027242Y014188D01*X027233Y014206D01*X027221Y014221D01*X027206Y014233D01*
X027188Y014242D01*X027170Y014248D01*X027150Y014250D01*X026850Y014250D01*
X026830Y014248D01*X026812Y014242D01*X026794Y014233D01*X026779Y014221D01*
X026767Y014206D01*X026758Y014188D01*X026752Y014170D01*X026750Y014150D01*
X026750Y013850D01*G37*G36*X026750Y012850D02*X026752Y012830D01*X026758Y012812D01*
X026767Y012794D01*X026779Y012779D01*X026794Y012767D01*X026812Y012758D01*
X026830Y012752D01*X026850Y012750D01*X027150Y012750D01*X027170Y012752D01*
X027188Y012758D01*X027206Y012767D01*X027221Y012779D01*X027233Y012794D01*
X027242Y012812D01*X027248Y012830D01*X027250Y012850D01*X027250Y013150D01*
X027248Y013170D01*X027242Y013188D01*X027233Y013206D01*X027221Y013221D01*
X027206Y013233D01*X027188Y013242D01*X027170Y013248D01*X027150Y013250D01*
X026850Y013250D01*X026830Y013248D01*X026812Y013242D01*X026794Y013233D01*
X026779Y013221D01*X026767Y013206D01*X026758Y013188D01*X026752Y013170D01*
X026750Y013150D01*X026750Y012850D01*
G37*G36*X027750Y013850D02*X027752Y013830D01*
X027758Y013812D01*X027767Y013794D01*X027779Y013779D01*X027794Y013767D01*
X027812Y013758D01*X027830Y013752D01*X027850Y013750D01*X028150Y013750D01*
X028170Y013752D01*X028188Y013758D01*X028206Y013767D01*X028221Y013779D01*
X028233Y013794D01*X028242Y013812D01*X028248Y013830D01*X028250Y013850D01*
X028250Y014150D01*X028248Y014170D01*X028242Y014188D01*X028233Y014206D01*
X028221Y014221D01*X028206Y014233D01*X028188Y014242D01*X028170Y014248D01*
X028150Y014250D01*X027850Y014250D01*X027830Y014248D01*X027812Y014242D01*
X027794Y014233D01*X027779Y014221D01*X027767Y014206D01*X027758Y014188D01*
X027752Y014170D01*X027750Y014150D01*X027750Y013850D01*G37*G36*X027750Y012850D02*
X027752Y012830D01*X027758Y012812D01*X027767Y012794D01*X027779Y012779D01*
X027794Y012767D01*X027812Y012758D01*X027830Y012752D01*X027850Y012750D01*
X028150Y012750D01*X028170Y012752D01*X028188Y012758D01*X028206Y012767D01*
X028221Y012779D01*X028233Y012794D01*X028242Y012812D01*X028248Y012830D01*
X028250Y012850D01*X028250Y013150D01*X028248Y013170D01*X028242Y013188D01*
X028233Y013206D01*X028221Y013221D01*X028206Y013233D01*X028188Y013242D01*
X028170Y013248D01*X028150Y013250D01*X027850Y013250D01*X027830Y013248D01*
X027812Y013242D01*X027794Y013233D01*X027779Y013221D01*X027767Y013206D01*
X027758Y013188D01*X027752Y013170D01*X027750Y013150D01*X027750Y012850D01*G37*G36*
X035750Y014850D02*X035752Y014830D01*X035758Y014812D01*X035767Y014794D01*
X035779Y014779D01*X035794Y014767D01*X035812Y014758D01*X035830Y014752D01*
X035850Y014750D01*X036150Y014750D01*X036170Y014752D01*X036188Y014758D01*
X036206Y014767D01*X036221Y014779D01*X036233Y014794D01*X036242Y014812D01*
X036248Y014830D01*X036250Y014850D01*X036250Y015150D01*X036248Y015170D01*
X036242Y015188D01*X036233Y015206D01*X036221Y015221D01*X036206Y015233D01*
X036188Y015242D01*X036170Y015248D01*X036150Y015250D01*X035850Y015250D01*
X035830Y015248D01*X035812Y015242D01*X035794Y015233D01*X035779Y015221D01*
X035767Y015206D01*X035758Y015188D01*X035752Y015170D01*X035750Y015150D01*
X035750Y014850D01*G37*G36*X034750Y012850D02*X034752Y012830D01*X034758Y012812D01*
X034767Y012794D01*X034779Y012779D01*X034794Y012767D01*X034812Y012758D01*
X034830Y012752D01*X034850Y012750D01*X035150Y012750D01*X035170Y012752D01*
X035188Y012758D01*X035206Y012767D01*X035221Y012779D01*X035233Y012794D01*
X035242Y012812D01*X035248Y012830D01*X035250Y012850D01*X035250Y013150D01*
X035248Y013170D01*X035242Y013188D01*X035233Y013206D01*X035221Y013221D01*
X035206Y013233D01*X035188Y013242D01*X035170Y013248D01*X035150Y013250D01*
X034850Y013250D01*X034830Y013248D01*X034812Y013242D01*X034794Y013233D01*
X034779Y013221D01*X034767Y013206D01*X034758Y013188D01*X034752Y013170D01*
X034750Y013150D01*X034750Y012850D01*G37*G36*X034750Y011850D02*X034752Y011830D01*
X034758Y011812D01*X034767Y011794D01*X034779Y011779D01*X034794Y011767D01*
X034812Y011758D01*X034830Y011752D01*X034850Y011750D01*X035150Y011750D01*
X035170Y011752D01*X035188Y011758D01*X035206Y011767D01*X035221Y011779D01*
X035233Y011794D01*X035242Y011812D01*X035248Y011830D01*X035250Y011850D01*
X035250Y012150D01*X035248Y012170D01*X035242Y012188D01*X035233Y012206D01*
X035221Y012221D01*X035206Y012233D01*X035188Y012242D01*X035170Y012248D01*
X035150Y012250D01*X034850Y012250D01*X034830Y012248D01*X034812Y012242D01*
X034794Y012233D01*X034779Y012221D01*X034767Y012206D01*X034758Y012188D01*
X034752Y012170D01*X034750Y012150D01*X034750Y011850D01*G37*G36*X039750Y011850D02*
X039752Y011830D01*X039758Y011812D01*X039767Y011794D01*X039779Y011779D01*
X039794Y011767D01*X039812Y011758D01*X039830Y011752D01*X039850Y011750D01*
X040150Y011750D01*X040170Y011752D01*X040188Y011758D01*X040206Y011767D01*
X040221Y011779D01*X040233Y011794D01*X040242Y011812D01*X040248Y011830D01*
X040250Y011850D01*X040250Y012150D01*X040248Y012170D01*X040242Y012188D01*
X040233Y012206D01*X040221Y012221D01*X040206Y012233D01*X040188Y012242D01*
X040170Y012248D01*X040150Y012250D01*X039850Y012250D01*X039830Y012248D01*
X039812Y012242D01*X039794Y012233D01*X039779Y012221D01*X039767Y012206D01*
X039758Y012188D01*X039752Y012170D01*X039750Y012150D01*X039750Y011850D01*G37*G36*
X039750Y012850D02*X039752Y012830D01*X039758Y012812D01*X039767Y012794D01*
X039779Y012779D01*X039794Y012767D01*X039812Y012758D01*X039830Y012752D01*
X039850Y012750D01*X040150Y012750D01*X040170Y012752D01*X040188Y012758D01*
X040206Y012767D01*X040221Y012779D01*X040233Y012794D01*X040242Y012812D01*
X040248Y012830D01*X040250Y012850D01*X040250Y013150D01*X040248Y013170D01*
X040242Y013188D01*X040233Y013206D01*X040221Y013221D01*X040206Y013233D01*
X040188Y013242D01*X040170Y013248D01*X040150Y013250D01*X039850Y013250D01*
X039830Y013248D01*X039812Y013242D01*X039794Y013233D01*X039779Y013221D01*
X039767Y013206D01*X039758Y013188D01*X039752Y013170D01*X039750Y013150D01*
X039750Y012850D01*G37*G36*X007750Y016850D02*X007752Y016830D01*X007758Y016812D01*
X007767Y016794D01*X007779Y016779D01*X007794Y016767D01*X007812Y016758D01*
X007830Y016752D01*X007850Y016750D01*X008150Y016750D01*X008170Y016752D01*
X008188Y016758D01*X008206Y016767D01*X008221Y016779D01*X008233Y016794D01*
X008242Y016812D01*X008248Y016830D01*X008250Y016850D01*X008250Y017150D01*
X008248Y017170D01*X008242Y017188D01*X008233Y017206D01*X008221Y017221D01*
X008206Y017233D01*X008188Y017242D01*X008170Y017248D01*X008150Y017250D01*
X007850Y017250D01*X007830Y017248D01*X007812Y017242D01*X007794Y017233D01*
X007779Y017221D01*X007767Y017206D01*X007758Y017188D01*X007752Y017170D01*
X007750Y017150D01*X007750Y016850D01*G37*G36*X007750Y017850D02*X007752Y017830D01*
X007758Y017812D01*X007767Y017794D01*X007779Y017779D01*X007794Y017767D01*
X007812Y017758D01*X007830Y017752D01*X007850Y017750D01*X008150Y017750D01*
X008170Y017752D01*X008188Y017758D01*X008206Y017767D01*X008221Y017779D01*
X008233Y017794D01*X008242Y017812D01*X008248Y017830D01*X008250Y017850D01*
X008250Y018150D01*X008248Y018170D01*X008242Y018188D01*X008233Y018206D01*
X008221Y018221D01*X008206Y018233D01*X008188Y018242D01*X008170Y018248D01*
X008150Y018250D01*X007850Y018250D01*X007830Y018248D01*X007812Y018242D01*
X007794Y018233D01*X007779Y018221D01*X007767Y018206D01*X007758Y018188D01*
X007752Y018170D01*X007750Y018150D01*X007750Y017850D01*G37*G36*X006750Y015850D02*
X006752Y015830D01*X006758Y015812D01*X006767Y015794D01*X006779Y015779D01*
X006794Y015767D01*X006812Y015758D01*X006830Y015752D01*X006850Y015750D01*
X007150Y015750D01*X007170Y015752D01*X007188Y015758D01*X007206Y015767D01*
X007221Y015779D01*X007233Y015794D01*X007242Y015812D01*X007248Y015830D01*
X007250Y015850D01*X007250Y016150D01*X007248Y016170D01*X007242Y016188D01*
X007233Y016206D01*X007221Y016221D01*X007206Y016233D01*X007188Y016242D01*
X007170Y016248D01*X007150Y016250D01*X006850Y016250D01*X006830Y016248D01*
X006812Y016242D01*X006794Y016233D01*X006779Y016221D01*X006767Y016206D01*
X006758Y016188D01*X006752Y016170D01*X006750Y016150D01*X006750Y015850D01*
G37*G36*
X007750Y015850D02*X007752Y015830D01*X007758Y015812D01*X007767Y015794D01*
X007779Y015779D01*X007794Y015767D01*X007812Y015758D01*X007830Y015752D01*
X007850Y015750D01*X008150Y015750D01*X008170Y015752D01*X008188Y015758D01*
X008206Y015767D01*X008221Y015779D01*X008233Y015794D01*X008242Y015812D01*
X008248Y015830D01*X008250Y015850D01*X008250Y016150D01*X008248Y016170D01*
X008242Y016188D01*X008233Y016206D01*X008221Y016221D01*X008206Y016233D01*
X008188Y016242D01*X008170Y016248D01*X008150Y016250D01*X007850Y016250D01*
X007830Y016248D01*X007812Y016242D01*X007794Y016233D01*X007779Y016221D01*
X007767Y016206D01*X007758Y016188D01*X007752Y016170D01*X007750Y016150D01*
X007750Y015850D01*G37*G36*X032750Y016850D02*X032752Y016830D01*X032758Y016812D01*
X032767Y016794D01*X032779Y016779D01*X032794Y016767D01*X032812Y016758D01*
X032830Y016752D01*X032850Y016750D01*X033150Y016750D01*X033170Y016752D01*
X033188Y016758D01*X033206Y016767D01*X033221Y016779D01*X033233Y016794D01*
X033242Y016812D01*X033248Y016830D01*X033250Y016850D01*X033250Y017150D01*
X033248Y017170D01*X033242Y017188D01*X033233Y017206D01*X033221Y017221D01*
X033206Y017233D01*X033188Y017242D01*X033170Y017248D01*X033150Y017250D01*
X032850Y017250D01*X032830Y017248D01*X032812Y017242D01*X032794Y017233D01*
X032779Y017221D01*X032767Y017206D01*X032758Y017188D01*X032752Y017170D01*
X032750Y017150D01*X032750Y016850D01*G37*G36*X033750Y016850D02*X033752Y016830D01*
X033758Y016812D01*X033767Y016794D01*X033779Y016779D01*X033794Y016767D01*
X033812Y016758D01*X033830Y016752D01*X033850Y016750D01*X034150Y016750D01*
X034170Y016752D01*X034188Y016758D01*X034206Y016767D01*X034221Y016779D01*
X034233Y016794D01*X034242Y016812D01*X034248Y016830D01*X034250Y016850D01*
X034250Y017150D01*X034248Y017170D01*X034242Y017188D01*X034233Y017206D01*
X034221Y017221D01*X034206Y017233D01*X034188Y017242D01*X034170Y017248D01*
X034150Y017250D01*X033850Y017250D01*X033830Y017248D01*X033812Y017242D01*
X033794Y017233D01*X033779Y017221D01*X033767Y017206D01*X033758Y017188D01*
X033752Y017170D01*X033750Y017150D01*X033750Y016850D01*G37*G36*X035750Y015850D02*
X035752Y015830D01*X035758Y015812D01*X035767Y015794D01*X035779Y015779D01*
X035794Y015767D01*X035812Y015758D01*X035830Y015752D01*X035850Y015750D01*
X036150Y015750D01*X036170Y015752D01*X036188Y015758D01*X036206Y015767D01*
X036221Y015779D01*X036233Y015794D01*X036242Y015812D01*X036248Y015830D01*
X036250Y015850D01*X036250Y016150D01*X036248Y016170D01*X036242Y016188D01*
X036233Y016206D01*X036221Y016221D01*X036206Y016233D01*X036188Y016242D01*
X036170Y016248D01*X036150Y016250D01*X035850Y016250D01*X035830Y016248D01*
X035812Y016242D01*X035794Y016233D01*X035779Y016221D01*X035767Y016206D01*
X035758Y016188D01*X035752Y016170D01*X035750Y016150D01*X035750Y015850D01*G37*G36*
X038750Y016850D02*X038752Y016830D01*X038758Y016812D01*X038767Y016794D01*
X038779Y016779D01*X038794Y016767D01*X038812Y016758D01*X038830Y016752D01*
X038850Y016750D01*X039150Y016750D01*X039170Y016752D01*X039188Y016758D01*
X039206Y016767D01*X039221Y016779D01*X039233Y016794D01*X039242Y016812D01*
X039248Y016830D01*X039250Y016850D01*X039250Y017150D01*X039248Y017170D01*
X039242Y017188D01*X039233Y017206D01*X039221Y017221D01*X039206Y017233D01*
X039188Y017242D01*X039170Y017248D01*X039150Y017250D01*X038850Y017250D01*
X038830Y017248D01*X038812Y017242D01*X038794Y017233D01*X038779Y017221D01*
X038767Y017206D01*X038758Y017188D01*X038752Y017170D01*X038750Y017150D01*
X038750Y016850D01*G37*G36*X038750Y015850D02*X038752Y015830D01*X038758Y015812D01*
X038767Y015794D01*X038779Y015779D01*X038794Y015767D01*X038812Y015758D01*
X038830Y015752D01*X038850Y015750D01*X039150Y015750D01*X039170Y015752D01*
X039188Y015758D01*X039206Y015767D01*X039221Y015779D01*X039233Y015794D01*
X039242Y015812D01*X039248Y015830D01*X039250Y015850D01*X039250Y016150D01*
X039248Y016170D01*X039242Y016188D01*X039233Y016206D01*X039221Y016221D01*
X039206Y016233D01*X039188Y016242D01*X039170Y016248D01*X039150Y016250D01*
X038850Y016250D01*X038830Y016248D01*X038812Y016242D01*X038794Y016233D01*
X038779Y016221D01*X038767Y016206D01*X038758Y016188D01*X038752Y016170D01*
X038750Y016150D01*X038750Y015850D01*G37*G36*X040750Y019100D02*X040752Y019080D01*
X040758Y019062D01*X040767Y019044D01*X040779Y019029D01*X040794Y019017D01*
X040812Y019008D01*X040830Y019002D01*X040850Y019000D01*X041150Y019000D01*
X041170Y019002D01*X041188Y019008D01*X041206Y019017D01*X041221Y019029D01*
X041233Y019044D01*X041242Y019062D01*X041248Y019080D01*X041250Y019100D01*
X041250Y019400D01*X041248Y019420D01*X041242Y019438D01*X041233Y019456D01*
X041221Y019471D01*X041206Y019483D01*X041188Y019492D01*X041170Y019498D01*
X041150Y019500D01*X040850Y019500D01*X040830Y019498D01*X040812Y019492D01*
X040794Y019483D01*X040779Y019471D01*X040767Y019456D01*X040758Y019438D01*
X040752Y019420D01*X040750Y019400D01*X040750Y019100D01*G37*G36*X040750Y018100D02*
X040752Y018080D01*X040758Y018062D01*X040767Y018044D01*X040779Y018029D01*
X040794Y018017D01*X040812Y018008D01*X040830Y018002D01*X040850Y018000D01*
X041150Y018000D01*X041170Y018002D01*X041188Y018008D01*X041206Y018017D01*
X041221Y018029D01*X041233Y018044D01*X041242Y018062D01*X041248Y018080D01*
X041250Y018100D01*X041250Y018400D01*X041248Y018420D01*X041242Y018438D01*
X041233Y018456D01*X041221Y018471D01*X041206Y018483D01*X041188Y018492D01*
X041170Y018498D01*X041150Y018500D01*X040850Y018500D01*X040830Y018498D01*
X040812Y018492D01*X040794Y018483D01*X040779Y018471D01*X040767Y018456D01*
X040758Y018438D01*X040752Y018420D01*X040750Y018400D01*X040750Y018100D01*G37*G36*
X039750Y016850D02*X039752Y016830D01*X039758Y016812D01*X039767Y016794D01*
X039779Y016779D01*X039794Y016767D01*X039812Y016758D01*X039830Y016752D01*
X039850Y016750D01*X040150Y016750D01*X040170Y016752D01*X040188Y016758D01*
X040206Y016767D01*X040221Y016779D01*X040233Y016794D01*X040242Y016812D01*
X040248Y016830D01*X040250Y016850D01*X040250Y017150D01*X040248Y017170D01*
X040242Y017188D01*X040233Y017206D01*X040221Y017221D01*X040206Y017233D01*
X040188Y017242D01*X040170Y017248D01*X040150Y017250D01*X039850Y017250D01*
X039830Y017248D01*X039812Y017242D01*X039794Y017233D01*X039779Y017221D01*
X039767Y017206D01*X039758Y017188D01*X039752Y017170D01*X039750Y017150D01*
X039750Y016850D01*G37*G36*X039750Y015850D02*X039752Y015830D01*X039758Y015812D01*
X039767Y015794D01*X039779Y015779D01*X039794Y015767D01*X039812Y015758D01*
X039830Y015752D01*X039850Y015750D01*X040150Y015750D01*X040170Y015752D01*
X040188Y015758D01*X040206Y015767D01*X040221Y015779D01*X040233Y015794D01*
X040242Y015812D01*X040248Y015830D01*X040250Y015850D01*X040250Y016150D01*
X040248Y016170D01*X040242Y016188D01*X040233Y016206D01*X040221Y016221D01*
X040206Y016233D01*X040188Y016242D01*X040170Y016248D01*X040150Y016250D01*
X039850Y016250D01*X039830Y016248D01*X039812Y016242D01*X039794Y016233D01*
X039779Y016221D01*X039767Y016206D01*X039758Y016188D01*X039752Y016170D01*
X039750Y016150D01*X039750Y015850D01*
G37*G36*X041750Y019100D02*X041752Y019080D01*
X041758Y019062D01*X041767Y019044D01*X041779Y019029D01*X041794Y019017D01*
X041812Y019008D01*X041830Y019002D01*X041850Y019000D01*X042150Y019000D01*
X042170Y019002D01*X042188Y019008D01*X042206Y019017D01*X042221Y019029D01*
X042233Y019044D01*X042242Y019062D01*X042248Y019080D01*X042250Y019100D01*
X042250Y019400D01*X042248Y019420D01*X042242Y019438D01*X042233Y019456D01*
X042221Y019471D01*X042206Y019483D01*X042188Y019492D01*X042170Y019498D01*
X042150Y019500D01*X041850Y019500D01*X041830Y019498D01*X041812Y019492D01*
X041794Y019483D01*X041779Y019471D01*X041767Y019456D01*X041758Y019438D01*
X041752Y019420D01*X041750Y019400D01*X041750Y019100D01*G37*G36*X046750Y019600D02*
X046752Y019580D01*X046758Y019562D01*X046767Y019544D01*X046779Y019529D01*
X046794Y019517D01*X046812Y019508D01*X046830Y019502D01*X046850Y019500D01*
X047150Y019500D01*X047170Y019502D01*X047188Y019508D01*X047206Y019517D01*
X047221Y019529D01*X047233Y019544D01*X047242Y019562D01*X047248Y019580D01*
X047250Y019600D01*X047250Y019900D01*X047248Y019920D01*X047242Y019938D01*
X047233Y019956D01*X047221Y019971D01*X047206Y019983D01*X047188Y019992D01*
X047170Y019998D01*X047150Y020000D01*X046850Y020000D01*X046830Y019998D01*
X046812Y019992D01*X046794Y019983D01*X046779Y019971D01*X046767Y019956D01*
X046758Y019938D01*X046752Y019920D01*X046750Y019900D01*X046750Y019600D01*G37*G36*
X043750Y019600D02*X043752Y019580D01*X043758Y019562D01*X043767Y019544D01*
X043779Y019529D01*X043794Y019517D01*X043812Y019508D01*X043830Y019502D01*
X043850Y019500D01*X044150Y019500D01*X044170Y019502D01*X044188Y019508D01*
X044206Y019517D01*X044221Y019529D01*X044233Y019544D01*X044242Y019562D01*
X044248Y019580D01*X044250Y019600D01*X044250Y019900D01*X044248Y019920D01*
X044242Y019938D01*X044233Y019956D01*X044221Y019971D01*X044206Y019983D01*
X044188Y019992D01*X044170Y019998D01*X044150Y020000D01*X043850Y020000D01*
X043830Y019998D01*X043812Y019992D01*X043794Y019983D01*X043779Y019971D01*
X043767Y019956D01*X043758Y019938D01*X043752Y019920D01*X043750Y019900D01*
X043750Y019600D01*G37*G36*X042750Y019100D02*X042752Y019080D01*X042758Y019062D01*
X042767Y019044D01*X042779Y019029D01*X042794Y019017D01*X042812Y019008D01*
X042830Y019002D01*X042850Y019000D01*X043150Y019000D01*X043170Y019002D01*
X043188Y019008D01*X043206Y019017D01*X043221Y019029D01*X043233Y019044D01*
X043242Y019062D01*X043248Y019080D01*X043250Y019100D01*X043250Y019400D01*
X043248Y019420D01*X043242Y019438D01*X043233Y019456D01*X043221Y019471D01*
X043206Y019483D01*X043188Y019492D01*X043170Y019498D01*X043150Y019500D01*
X042850Y019500D01*X042830Y019498D01*X042812Y019492D01*X042794Y019483D01*
X042779Y019471D01*X042767Y019456D01*X042758Y019438D01*X042752Y019420D01*
X042750Y019400D01*X042750Y019100D01*G37*G36*X045750Y019600D02*X045752Y019580D01*
X045758Y019562D01*X045767Y019544D01*X045779Y019529D01*X045794Y019517D01*
X045812Y019508D01*X045830Y019502D01*X045850Y019500D01*X046150Y019500D01*
X046170Y019502D01*X046188Y019508D01*X046206Y019517D01*X046221Y019529D01*
X046233Y019544D01*X046242Y019562D01*X046248Y019580D01*X046250Y019600D01*
X046250Y019900D01*X046248Y019920D01*X046242Y019938D01*X046233Y019956D01*
X046221Y019971D01*X046206Y019983D01*X046188Y019992D01*X046170Y019998D01*
X046150Y020000D01*X045850Y020000D01*X045830Y019998D01*X045812Y019992D01*
X045794Y019983D01*X045779Y019971D01*X045767Y019956D01*X045758Y019938D01*
X045752Y019920D01*X045750Y019900D01*X045750Y019600D01*G37*G36*X044750Y019600D02*
X044752Y019580D01*X044758Y019562D01*X044767Y019544D01*X044779Y019529D01*
X044794Y019517D01*X044812Y019508D01*X044830Y019502D01*X044850Y019500D01*
X045150Y019500D01*X045170Y019502D01*X045188Y019508D01*X045206Y019517D01*
X045221Y019529D01*X045233Y019544D01*X045242Y019562D01*X045248Y019580D01*
X045250Y019600D01*X045250Y019900D01*X045248Y019920D01*X045242Y019938D01*
X045233Y019956D01*X045221Y019971D01*X045206Y019983D01*X045188Y019992D01*
X045170Y019998D01*X045150Y020000D01*X044850Y020000D01*X044830Y019998D01*
X044812Y019992D01*X044794Y019983D01*X044779Y019971D01*X044767Y019956D01*
X044758Y019938D01*X044752Y019920D01*X044750Y019900D01*X044750Y019600D01*G37*G36*
X048750Y019600D02*X048752Y019580D01*X048758Y019562D01*X048767Y019544D01*
X048779Y019529D01*X048794Y019517D01*X048812Y019508D01*X048830Y019502D01*
X048850Y019500D01*X049150Y019500D01*X049170Y019502D01*X049188Y019508D01*
X049206Y019517D01*X049221Y019529D01*X049233Y019544D01*X049242Y019562D01*
X049248Y019580D01*X049250Y019600D01*X049250Y019900D01*X049248Y019920D01*
X049242Y019938D01*X049233Y019956D01*X049221Y019971D01*X049206Y019983D01*
X049188Y019992D01*X049170Y019998D01*X049150Y020000D01*X048850Y020000D01*
X048830Y019998D01*X048812Y019992D01*X048794Y019983D01*X048779Y019971D01*
X048767Y019956D01*X048758Y019938D01*X048752Y019920D01*X048750Y019900D01*
X048750Y019600D01*G37*G36*X047750Y019600D02*X047752Y019580D01*X047758Y019562D01*
X047767Y019544D01*X047779Y019529D01*X047794Y019517D01*X047812Y019508D01*
X047830Y019502D01*X047850Y019500D01*X048150Y019500D01*X048170Y019502D01*
X048188Y019508D01*X048206Y019517D01*X048221Y019529D01*X048233Y019544D01*
X048242Y019562D01*X048248Y019580D01*X048250Y019600D01*X048250Y019900D01*
X048248Y019920D01*X048242Y019938D01*X048233Y019956D01*X048221Y019971D01*
X048206Y019983D01*X048188Y019992D01*X048170Y019998D01*X048150Y020000D01*
X047850Y020000D01*X047830Y019998D01*X047812Y019992D01*X047794Y019983D01*
X047779Y019971D01*X047767Y019956D01*X047758Y019938D01*X047752Y019920D01*
X047750Y019900D01*X047750Y019600D01*G37*G36*X049750Y019600D02*X049752Y019580D01*
X049758Y019562D01*X049767Y019544D01*X049779Y019529D01*X049794Y019517D01*
X049812Y019508D01*X049830Y019502D01*X049850Y019500D01*X050150Y019500D01*
X050170Y019502D01*X050188Y019508D01*X050206Y019517D01*X050221Y019529D01*
X050233Y019544D01*X050242Y019562D01*X050248Y019580D01*X050250Y019600D01*
X050250Y019900D01*X050248Y019920D01*X050242Y019938D01*X050233Y019956D01*
X050221Y019971D01*X050206Y019983D01*X050188Y019992D01*X050170Y019998D01*
X050150Y020000D01*X049850Y020000D01*X049830Y019998D01*X049812Y019992D01*
X049794Y019983D01*X049779Y019971D01*X049767Y019956D01*X049758Y019938D01*
X049752Y019920D01*X049750Y019900D01*X049750Y019600D01*G37*G36*X050750Y019600D02*
X050752Y019580D01*X050758Y019562D01*X050767Y019544D01*X050779Y019529D01*
X050794Y019517D01*X050812Y019508D01*X050830Y019502D01*X050850Y019500D01*
X051150Y019500D01*X051170Y019502D01*X051188Y019508D01*X051206Y019517D01*
X051221Y019529D01*X051233Y019544D01*X051242Y019562D01*X051248Y019580D01*
X051250Y019600D01*X051250Y019900D01*X051248Y019920D01*X051242Y019938D01*
X051233Y019956D01*X051221Y019971D01*X051206Y019983D01*X051188Y019992D01*
X051170Y019998D01*X051150Y020000D01*X050850Y020000D01*X050830Y019998D01*
X050812Y019992D01*X050794Y019983D01*X050779Y019971D01*X050767Y019956D01*
X050758Y019938D01*X050752Y019920D01*X050750Y019900D01*X050750Y019600D01*
G37*G36*
X053750Y019600D02*X053752Y019580D01*X053758Y019562D01*X053767Y019544D01*
X053779Y019529D01*X053794Y019517D01*X053812Y019508D01*X053830Y019502D01*
X053850Y019500D01*X054150Y019500D01*X054170Y019502D01*X054188Y019508D01*
X054206Y019517D01*X054221Y019529D01*X054233Y019544D01*X054242Y019562D01*
X054248Y019580D01*X054250Y019600D01*X054250Y019900D01*X054248Y019920D01*
X054242Y019938D01*X054233Y019956D01*X054221Y019971D01*X054206Y019983D01*
X054188Y019992D01*X054170Y019998D01*X054150Y020000D01*X053850Y020000D01*
X053830Y019998D01*X053812Y019992D01*X053794Y019983D01*X053779Y019971D01*
X053767Y019956D01*X053758Y019938D01*X053752Y019920D01*X053750Y019900D01*
X053750Y019600D01*G37*G36*X052750Y019600D02*X052752Y019580D01*X052758Y019562D01*
X052767Y019544D01*X052779Y019529D01*X052794Y019517D01*X052812Y019508D01*
X052830Y019502D01*X052850Y019500D01*X053150Y019500D01*X053170Y019502D01*
X053188Y019508D01*X053206Y019517D01*X053221Y019529D01*X053233Y019544D01*
X053242Y019562D01*X053248Y019580D01*X053250Y019600D01*X053250Y019900D01*
X053248Y019920D01*X053242Y019938D01*X053233Y019956D01*X053221Y019971D01*
X053206Y019983D01*X053188Y019992D01*X053170Y019998D01*X053150Y020000D01*
X052850Y020000D01*X052830Y019998D01*X052812Y019992D01*X052794Y019983D01*
X052779Y019971D01*X052767Y019956D01*X052758Y019938D01*X052752Y019920D01*
X052750Y019900D01*X052750Y019600D01*G37*G36*X051750Y019600D02*X051752Y019580D01*
X051758Y019562D01*X051767Y019544D01*X051779Y019529D01*X051794Y019517D01*
X051812Y019508D01*X051830Y019502D01*X051850Y019500D01*X052150Y019500D01*
X052170Y019502D01*X052188Y019508D01*X052206Y019517D01*X052221Y019529D01*
X052233Y019544D01*X052242Y019562D01*X052248Y019580D01*X052250Y019600D01*
X052250Y019900D01*X052248Y019920D01*X052242Y019938D01*X052233Y019956D01*
X052221Y019971D01*X052206Y019983D01*X052188Y019992D01*X052170Y019998D01*
X052150Y020000D01*X051850Y020000D01*X051830Y019998D01*X051812Y019992D01*
X051794Y019983D01*X051779Y019971D01*X051767Y019956D01*X051758Y019938D01*
X051752Y019920D01*X051750Y019900D01*X051750Y019600D01*G37*G36*X030000Y023975D02*
X030002Y023955D01*X030008Y023937D01*X030017Y023919D01*X030029Y023904D01*
X030044Y023892D01*X030062Y023883D01*X030080Y023877D01*X030100Y023875D01*
X030400Y023875D01*X030420Y023877D01*X030438Y023883D01*X030456Y023892D01*
X030471Y023904D01*X030483Y023919D01*X030492Y023937D01*X030498Y023955D01*
X030500Y023975D01*X030500Y024275D01*X030498Y024295D01*X030492Y024313D01*
X030483Y024331D01*X030471Y024346D01*X030456Y024358D01*X030438Y024367D01*
X030420Y024373D01*X030400Y024375D01*X030100Y024375D01*X030080Y024373D01*
X030062Y024367D01*X030044Y024358D01*X030029Y024346D01*X030017Y024331D01*
X030008Y024313D01*X030002Y024295D01*X030000Y024275D01*X030000Y023975D01*G37*G36*
X030000Y022975D02*X030002Y022955D01*X030008Y022937D01*X030017Y022919D01*
X030029Y022904D01*X030044Y022892D01*X030062Y022883D01*X030080Y022877D01*
X030100Y022875D01*X030400Y022875D01*X030420Y022877D01*X030438Y022883D01*
X030456Y022892D01*X030471Y022904D01*X030483Y022919D01*X030492Y022937D01*
X030498Y022955D01*X030500Y022975D01*X030500Y023275D01*X030498Y023295D01*
X030492Y023313D01*X030483Y023331D01*X030471Y023346D01*X030456Y023358D01*
X030438Y023367D01*X030420Y023373D01*X030400Y023375D01*X030100Y023375D01*
X030080Y023373D01*X030062Y023367D01*X030044Y023358D01*X030029Y023346D01*
X030017Y023331D01*X030008Y023313D01*X030002Y023295D01*X030000Y023275D01*
X030000Y022975D01*G37*G36*X028750Y020850D02*X028752Y020830D01*X028758Y020812D01*
X028767Y020794D01*X028779Y020779D01*X028794Y020767D01*X028812Y020758D01*
X028830Y020752D01*X028850Y020750D01*X029150Y020750D01*X029170Y020752D01*
X029188Y020758D01*X029206Y020767D01*X029221Y020779D01*X029233Y020794D01*
X029242Y020812D01*X029248Y020830D01*X029250Y020850D01*X029250Y021150D01*
X029248Y021170D01*X029242Y021188D01*X029233Y021206D01*X029221Y021221D01*
X029206Y021233D01*X029188Y021242D01*X029170Y021248D01*X029150Y021250D01*
X028850Y021250D01*X028830Y021248D01*X028812Y021242D01*X028794Y021233D01*
X028779Y021221D01*X028767Y021206D01*X028758Y021188D01*X028752Y021170D01*
X028750Y021150D01*X028750Y020850D01*G37*G36*X029750Y020850D02*X029752Y020830D01*
X029758Y020812D01*X029767Y020794D01*X029779Y020779D01*X029794Y020767D01*
X029812Y020758D01*X029830Y020752D01*X029850Y020750D01*X030150Y020750D01*
X030170Y020752D01*X030188Y020758D01*X030206Y020767D01*X030221Y020779D01*
X030233Y020794D01*X030242Y020812D01*X030248Y020830D01*X030250Y020850D01*
X030250Y021150D01*X030248Y021170D01*X030242Y021188D01*X030233Y021206D01*
X030221Y021221D01*X030206Y021233D01*X030188Y021242D01*X030170Y021248D01*
X030150Y021250D01*X029850Y021250D01*X029830Y021248D01*X029812Y021242D01*
X029794Y021233D01*X029779Y021221D01*X029767Y021206D01*X029758Y021188D01*
X029752Y021170D01*X029750Y021150D01*X029750Y020850D01*G37*G36*X029750Y021850D02*
X029752Y021830D01*X029758Y021812D01*X029767Y021794D01*X029779Y021779D01*
X029794Y021767D01*X029812Y021758D01*X029830Y021752D01*X029850Y021750D01*
X030150Y021750D01*X030170Y021752D01*X030188Y021758D01*X030206Y021767D01*
X030221Y021779D01*X030233Y021794D01*X030242Y021812D01*X030248Y021830D01*
X030250Y021850D01*X030250Y022150D01*X030248Y022170D01*X030242Y022188D01*
X030233Y022206D01*X030221Y022221D01*X030206Y022233D01*X030188Y022242D01*
X030170Y022248D01*X030150Y022250D01*X029850Y022250D01*X029830Y022248D01*
X029812Y022242D01*X029794Y022233D01*X029779Y022221D01*X029767Y022206D01*
X029758Y022188D01*X029752Y022170D01*X029750Y022150D01*X029750Y021850D01*G37*G36*
X028750Y021850D02*X028752Y021830D01*X028758Y021812D01*X028767Y021794D01*
X028779Y021779D01*X028794Y021767D01*X028812Y021758D01*X028830Y021752D01*
X028850Y021750D01*X029150Y021750D01*X029170Y021752D01*X029188Y021758D01*
X029206Y021767D01*X029221Y021779D01*X029233Y021794D01*X029242Y021812D01*
X029248Y021830D01*X029250Y021850D01*X029250Y022150D01*X029248Y022170D01*
X029242Y022188D01*X029233Y022206D01*X029221Y022221D01*X029206Y022233D01*
X029188Y022242D01*X029170Y022248D01*X029150Y022250D01*X028850Y022250D01*
X028830Y022248D01*X028812Y022242D01*X028794Y022233D01*X028779Y022221D01*
X028767Y022206D01*X028758Y022188D01*X028752Y022170D01*X028750Y022150D01*
X028750Y021850D01*G37*G36*X041750Y021100D02*X041752Y021080D01*X041758Y021062D01*
X041767Y021044D01*X041779Y021029D01*X041794Y021017D01*X041812Y021008D01*
X041830Y021002D01*X041850Y021000D01*X042150Y021000D01*X042170Y021002D01*
X042188Y021008D01*X042206Y021017D01*X042221Y021029D01*X042233Y021044D01*
X042242Y021062D01*X042248Y021080D01*X042250Y021100D01*X042250Y021400D01*
X042248Y021420D01*X042242Y021438D01*X042233Y021456D01*X042221Y021471D01*
X042206Y021483D01*X042188Y021492D01*X042170Y021498D01*X042150Y021500D01*
X041850Y021500D01*X041830Y021498D01*X041812Y021492D01*X041794Y021483D01*
X041779Y021471D01*X041767Y021456D01*X041758Y021438D01*X041752Y021420D01*
X041750Y021400D01*X041750Y021100D01*
G37*G36*X041750Y020100D02*X041752Y020080D01*
X041758Y020062D01*X041767Y020044D01*X041779Y020029D01*X041794Y020017D01*
X041812Y020008D01*X041830Y020002D01*X041850Y020000D01*X042150Y020000D01*
X042170Y020002D01*X042188Y020008D01*X042206Y020017D01*X042221Y020029D01*
X042233Y020044D01*X042242Y020062D01*X042248Y020080D01*X042250Y020100D01*
X042250Y020400D01*X042248Y020420D01*X042242Y020438D01*X042233Y020456D01*
X042221Y020471D01*X042206Y020483D01*X042188Y020492D01*X042170Y020498D01*
X042150Y020500D01*X041850Y020500D01*X041830Y020498D01*X041812Y020492D01*
X041794Y020483D01*X041779Y020471D01*X041767Y020456D01*X041758Y020438D01*
X041752Y020420D01*X041750Y020400D01*X041750Y020100D01*G37*G36*X040750Y021100D02*
X040752Y021080D01*X040758Y021062D01*X040767Y021044D01*X040779Y021029D01*
X040794Y021017D01*X040812Y021008D01*X040830Y021002D01*X040850Y021000D01*
X041150Y021000D01*X041170Y021002D01*X041188Y021008D01*X041206Y021017D01*
X041221Y021029D01*X041233Y021044D01*X041242Y021062D01*X041248Y021080D01*
X041250Y021100D01*X041250Y021400D01*X041248Y021420D01*X041242Y021438D01*
X041233Y021456D01*X041221Y021471D01*X041206Y021483D01*X041188Y021492D01*
X041170Y021498D01*X041150Y021500D01*X040850Y021500D01*X040830Y021498D01*
X040812Y021492D01*X040794Y021483D01*X040779Y021471D01*X040767Y021456D01*
X040758Y021438D01*X040752Y021420D01*X040750Y021400D01*X040750Y021100D01*G37*G36*
X040750Y020100D02*X040752Y020080D01*X040758Y020062D01*X040767Y020044D01*
X040779Y020029D01*X040794Y020017D01*X040812Y020008D01*X040830Y020002D01*
X040850Y020000D01*X041150Y020000D01*X041170Y020002D01*X041188Y020008D01*
X041206Y020017D01*X041221Y020029D01*X041233Y020044D01*X041242Y020062D01*
X041248Y020080D01*X041250Y020100D01*X041250Y020400D01*X041248Y020420D01*
X041242Y020438D01*X041233Y020456D01*X041221Y020471D01*X041206Y020483D01*
X041188Y020492D01*X041170Y020498D01*X041150Y020500D01*X040850Y020500D01*
X040830Y020498D01*X040812Y020492D01*X040794Y020483D01*X040779Y020471D01*
X040767Y020456D01*X040758Y020438D01*X040752Y020420D01*X040750Y020400D01*
X040750Y020100D01*G37*G36*X042750Y021100D02*X042752Y021080D01*X042758Y021062D01*
X042767Y021044D01*X042779Y021029D01*X042794Y021017D01*X042812Y021008D01*
X042830Y021002D01*X042850Y021000D01*X043150Y021000D01*X043170Y021002D01*
X043188Y021008D01*X043206Y021017D01*X043221Y021029D01*X043233Y021044D01*
X043242Y021062D01*X043248Y021080D01*X043250Y021100D01*X043250Y021400D01*
X043248Y021420D01*X043242Y021438D01*X043233Y021456D01*X043221Y021471D01*
X043206Y021483D01*X043188Y021492D01*X043170Y021498D01*X043150Y021500D01*
X042850Y021500D01*X042830Y021498D01*X042812Y021492D01*X042794Y021483D01*
X042779Y021471D01*X042767Y021456D01*X042758Y021438D01*X042752Y021420D01*
X042750Y021400D01*X042750Y021100D01*G37*G36*X042750Y020100D02*X042752Y020080D01*
X042758Y020062D01*X042767Y020044D01*X042779Y020029D01*X042794Y020017D01*
X042812Y020008D01*X042830Y020002D01*X042850Y020000D01*X043150Y020000D01*
X043170Y020002D01*X043188Y020008D01*X043206Y020017D01*X043221Y020029D01*
X043233Y020044D01*X043242Y020062D01*X043248Y020080D01*X043250Y020100D01*
X043250Y020400D01*X043248Y020420D01*X043242Y020438D01*X043233Y020456D01*
X043221Y020471D01*X043206Y020483D01*X043188Y020492D01*X043170Y020498D01*
X043150Y020500D01*X042850Y020500D01*X042830Y020498D01*X042812Y020492D01*
X042794Y020483D01*X042779Y020471D01*X042767Y020456D01*X042758Y020438D01*
X042752Y020420D01*X042750Y020400D01*X042750Y020100D01*G37*G36*X046750Y020600D02*
X046752Y020580D01*X046758Y020562D01*X046767Y020544D01*X046779Y020529D01*
X046794Y020517D01*X046812Y020508D01*X046830Y020502D01*X046850Y020500D01*
X047150Y020500D01*X047170Y020502D01*X047188Y020508D01*X047206Y020517D01*
X047221Y020529D01*X047233Y020544D01*X047242Y020562D01*X047248Y020580D01*
X047250Y020600D01*X047250Y020900D01*X047248Y020920D01*X047242Y020938D01*
X047233Y020956D01*X047221Y020971D01*X047206Y020983D01*X047188Y020992D01*
X047170Y020998D01*X047150Y021000D01*X046850Y021000D01*X046830Y020998D01*
X046812Y020992D01*X046794Y020983D01*X046779Y020971D01*X046767Y020956D01*
X046758Y020938D01*X046752Y020920D01*X046750Y020900D01*X046750Y020600D01*G37*G36*
X042750Y022850D02*X042752Y022830D01*X042758Y022812D01*X042767Y022794D01*
X042779Y022779D01*X042794Y022767D01*X042812Y022758D01*X042830Y022752D01*
X042850Y022750D01*X043150Y022750D01*X043170Y022752D01*X043188Y022758D01*
X043206Y022767D01*X043221Y022779D01*X043233Y022794D01*X043242Y022812D01*
X043248Y022830D01*X043250Y022850D01*X043250Y023150D01*X043248Y023170D01*
X043242Y023188D01*X043233Y023206D01*X043221Y023221D01*X043206Y023233D01*
X043188Y023242D01*X043170Y023248D01*X043150Y023250D01*X042850Y023250D01*
X042830Y023248D01*X042812Y023242D01*X042794Y023233D01*X042779Y023221D01*
X042767Y023206D01*X042758Y023188D01*X042752Y023170D01*X042750Y023150D01*
X042750Y022850D01*G37*G36*X042750Y023850D02*X042752Y023830D01*X042758Y023812D01*
X042767Y023794D01*X042779Y023779D01*X042794Y023767D01*X042812Y023758D01*
X042830Y023752D01*X042850Y023750D01*X043150Y023750D01*X043170Y023752D01*
X043188Y023758D01*X043206Y023767D01*X043221Y023779D01*X043233Y023794D01*
X043242Y023812D01*X043248Y023830D01*X043250Y023850D01*X043250Y024150D01*
X043248Y024170D01*X043242Y024188D01*X043233Y024206D01*X043221Y024221D01*
X043206Y024233D01*X043188Y024242D01*X043170Y024248D01*X043150Y024250D01*
X042850Y024250D01*X042830Y024248D01*X042812Y024242D01*X042794Y024233D01*
X042779Y024221D01*X042767Y024206D01*X042758Y024188D01*X042752Y024170D01*
X042750Y024150D01*X042750Y023850D01*G37*G36*X043750Y020600D02*X043752Y020580D01*
X043758Y020562D01*X043767Y020544D01*X043779Y020529D01*X043794Y020517D01*
X043812Y020508D01*X043830Y020502D01*X043850Y020500D01*X044150Y020500D01*
X044170Y020502D01*X044188Y020508D01*X044206Y020517D01*X044221Y020529D01*
X044233Y020544D01*X044242Y020562D01*X044248Y020580D01*X044250Y020600D01*
X044250Y020900D01*X044248Y020920D01*X044242Y020938D01*X044233Y020956D01*
X044221Y020971D01*X044206Y020983D01*X044188Y020992D01*X044170Y020998D01*
X044150Y021000D01*X043850Y021000D01*X043830Y020998D01*X043812Y020992D01*
X043794Y020983D01*X043779Y020971D01*X043767Y020956D01*X043758Y020938D01*
X043752Y020920D01*X043750Y020900D01*X043750Y020600D01*G37*G36*X053750Y020600D02*
X053752Y020580D01*X053758Y020562D01*X053767Y020544D01*X053779Y020529D01*
X053794Y020517D01*X053812Y020508D01*X053830Y020502D01*X053850Y020500D01*
X054150Y020500D01*X054170Y020502D01*X054188Y020508D01*X054206Y020517D01*
X054221Y020529D01*X054233Y020544D01*X054242Y020562D01*X054248Y020580D01*
X054250Y020600D01*X054250Y020900D01*X054248Y020920D01*X054242Y020938D01*
X054233Y020956D01*X054221Y020971D01*X054206Y020983D01*X054188Y020992D01*
X054170Y020998D01*X054150Y021000D01*X053850Y021000D01*X053830Y020998D01*
X053812Y020992D01*X053794Y020983D01*X053779Y020971D01*X053767Y020956D01*
X053758Y020938D01*X053752Y020920D01*X053750Y020900D01*X053750Y020600D01*
G37*G36*
X029750Y025850D02*X029752Y025830D01*X029758Y025812D01*X029767Y025794D01*
X029779Y025779D01*X029794Y025767D01*X029812Y025758D01*X029830Y025752D01*
X029850Y025750D01*X030150Y025750D01*X030170Y025752D01*X030188Y025758D01*
X030206Y025767D01*X030221Y025779D01*X030233Y025794D01*X030242Y025812D01*
X030248Y025830D01*X030250Y025850D01*X030250Y026150D01*X030248Y026170D01*
X030242Y026188D01*X030233Y026206D01*X030221Y026221D01*X030206Y026233D01*
X030188Y026242D01*X030170Y026248D01*X030150Y026250D01*X029850Y026250D01*
X029830Y026248D01*X029812Y026242D01*X029794Y026233D01*X029779Y026221D01*
X029767Y026206D01*X029758Y026188D01*X029752Y026170D01*X029750Y026150D01*
X029750Y025850D01*G37*G36*X028750Y025850D02*X028752Y025830D01*X028758Y025812D01*
X028767Y025794D01*X028779Y025779D01*X028794Y025767D01*X028812Y025758D01*
X028830Y025752D01*X028850Y025750D01*X029150Y025750D01*X029170Y025752D01*
X029188Y025758D01*X029206Y025767D01*X029221Y025779D01*X029233Y025794D01*
X029242Y025812D01*X029248Y025830D01*X029250Y025850D01*X029250Y026150D01*
X029248Y026170D01*X029242Y026188D01*X029233Y026206D01*X029221Y026221D01*
X029206Y026233D01*X029188Y026242D01*X029170Y026248D01*X029150Y026250D01*
X028850Y026250D01*X028830Y026248D01*X028812Y026242D01*X028794Y026233D01*
X028779Y026221D01*X028767Y026206D01*X028758Y026188D01*X028752Y026170D01*
X028750Y026150D01*X028750Y025850D01*G37*G36*X035750Y026850D02*X035752Y026830D01*
X035758Y026812D01*X035767Y026794D01*X035779Y026779D01*X035794Y026767D01*
X035812Y026758D01*X035830Y026752D01*X035850Y026750D01*X036150Y026750D01*
X036170Y026752D01*X036188Y026758D01*X036206Y026767D01*X036221Y026779D01*
X036233Y026794D01*X036242Y026812D01*X036248Y026830D01*X036250Y026850D01*
X036250Y027150D01*X036248Y027170D01*X036242Y027188D01*X036233Y027206D01*
X036221Y027221D01*X036206Y027233D01*X036188Y027242D01*X036170Y027248D01*
X036150Y027250D01*X035850Y027250D01*X035830Y027248D01*X035812Y027242D01*
X035794Y027233D01*X035779Y027221D01*X035767Y027206D01*X035758Y027188D01*
X035752Y027170D01*X035750Y027150D01*X035750Y026850D01*G37*G36*X035750Y025850D02*
X035752Y025830D01*X035758Y025812D01*X035767Y025794D01*X035779Y025779D01*
X035794Y025767D01*X035812Y025758D01*X035830Y025752D01*X035850Y025750D01*
X036150Y025750D01*X036170Y025752D01*X036188Y025758D01*X036206Y025767D01*
X036221Y025779D01*X036233Y025794D01*X036242Y025812D01*X036248Y025830D01*
X036250Y025850D01*X036250Y026150D01*X036248Y026170D01*X036242Y026188D01*
X036233Y026206D01*X036221Y026221D01*X036206Y026233D01*X036188Y026242D01*
X036170Y026248D01*X036150Y026250D01*X035850Y026250D01*X035830Y026248D01*
X035812Y026242D01*X035794Y026233D01*X035779Y026221D01*X035767Y026206D01*
X035758Y026188D01*X035752Y026170D01*X035750Y026150D01*X035750Y025850D01*G37*G36*
X036750Y026850D02*X036752Y026830D01*X036758Y026812D01*X036767Y026794D01*
X036779Y026779D01*X036794Y026767D01*X036812Y026758D01*X036830Y026752D01*
X036850Y026750D01*X037150Y026750D01*X037170Y026752D01*X037188Y026758D01*
X037206Y026767D01*X037221Y026779D01*X037233Y026794D01*X037242Y026812D01*
X037248Y026830D01*X037250Y026850D01*X037250Y027150D01*X037248Y027170D01*
X037242Y027188D01*X037233Y027206D01*X037221Y027221D01*X037206Y027233D01*
X037188Y027242D01*X037170Y027248D01*X037150Y027250D01*X036850Y027250D01*
X036830Y027248D01*X036812Y027242D01*X036794Y027233D01*X036779Y027221D01*
X036767Y027206D01*X036758Y027188D01*X036752Y027170D01*X036750Y027150D01*
X036750Y026850D01*G37*G36*X036750Y025850D02*X036752Y025830D01*X036758Y025812D01*
X036767Y025794D01*X036779Y025779D01*X036794Y025767D01*X036812Y025758D01*
X036830Y025752D01*X036850Y025750D01*X037150Y025750D01*X037170Y025752D01*
X037188Y025758D01*X037206Y025767D01*X037221Y025779D01*X037233Y025794D01*
X037242Y025812D01*X037248Y025830D01*X037250Y025850D01*X037250Y026150D01*
X037248Y026170D01*X037242Y026188D01*X037233Y026206D01*X037221Y026221D01*
X037206Y026233D01*X037188Y026242D01*X037170Y026248D01*X037150Y026250D01*
X036850Y026250D01*X036830Y026248D01*X036812Y026242D01*X036794Y026233D01*
X036779Y026221D01*X036767Y026206D01*X036758Y026188D01*X036752Y026170D01*
X036750Y026150D01*X036750Y025850D01*G37*G36*X038750Y025850D02*X038752Y025830D01*
X038758Y025812D01*X038767Y025794D01*X038779Y025779D01*X038794Y025767D01*
X038812Y025758D01*X038830Y025752D01*X038850Y025750D01*X039150Y025750D01*
X039170Y025752D01*X039188Y025758D01*X039206Y025767D01*X039221Y025779D01*
X039233Y025794D01*X039242Y025812D01*X039248Y025830D01*X039250Y025850D01*
X039250Y026150D01*X039248Y026170D01*X039242Y026188D01*X039233Y026206D01*
X039221Y026221D01*X039206Y026233D01*X039188Y026242D01*X039170Y026248D01*
X039150Y026250D01*X038850Y026250D01*X038830Y026248D01*X038812Y026242D01*
X038794Y026233D01*X038779Y026221D01*X038767Y026206D01*X038758Y026188D01*
X038752Y026170D01*X038750Y026150D01*X038750Y025850D01*G37*G36*X037750Y025850D02*
X037752Y025830D01*X037758Y025812D01*X037767Y025794D01*X037779Y025779D01*
X037794Y025767D01*X037812Y025758D01*X037830Y025752D01*X037850Y025750D01*
X038150Y025750D01*X038170Y025752D01*X038188Y025758D01*X038206Y025767D01*
X038221Y025779D01*X038233Y025794D01*X038242Y025812D01*X038248Y025830D01*
X038250Y025850D01*X038250Y026150D01*X038248Y026170D01*X038242Y026188D01*
X038233Y026206D01*X038221Y026221D01*X038206Y026233D01*X038188Y026242D01*
X038170Y026248D01*X038150Y026250D01*X037850Y026250D01*X037830Y026248D01*
X037812Y026242D01*X037794Y026233D01*X037779Y026221D01*X037767Y026206D01*
X037758Y026188D01*X037752Y026170D01*X037750Y026150D01*X037750Y025850D01*G37*G36*
X038750Y026850D02*X038752Y026830D01*X038758Y026812D01*X038767Y026794D01*
X038779Y026779D01*X038794Y026767D01*X038812Y026758D01*X038830Y026752D01*
X038850Y026750D01*X039150Y026750D01*X039170Y026752D01*X039188Y026758D01*
X039206Y026767D01*X039221Y026779D01*X039233Y026794D01*X039242Y026812D01*
X039248Y026830D01*X039250Y026850D01*X039250Y027150D01*X039248Y027170D01*
X039242Y027188D01*X039233Y027206D01*X039221Y027221D01*X039206Y027233D01*
X039188Y027242D01*X039170Y027248D01*X039150Y027250D01*X038850Y027250D01*
X038830Y027248D01*X038812Y027242D01*X038794Y027233D01*X038779Y027221D01*
X038767Y027206D01*X038758Y027188D01*X038752Y027170D01*X038750Y027150D01*
X038750Y026850D01*G37*G36*X037750Y026850D02*X037752Y026830D01*X037758Y026812D01*
X037767Y026794D01*X037779Y026779D01*X037794Y026767D01*X037812Y026758D01*
X037830Y026752D01*X037850Y026750D01*X038150Y026750D01*X038170Y026752D01*
X038188Y026758D01*X038206Y026767D01*X038221Y026779D01*X038233Y026794D01*
X038242Y026812D01*X038248Y026830D01*X038250Y026850D01*X038250Y027150D01*
X038248Y027170D01*X038242Y027188D01*X038233Y027206D01*X038221Y027221D01*
X038206Y027233D01*X038188Y027242D01*X038170Y027248D01*X038150Y027250D01*
X037850Y027250D01*X037830Y027248D01*X037812Y027242D01*X037794Y027233D01*
X037779Y027221D01*X037767Y027206D01*X037758Y027188D01*X037752Y027170D01*
X037750Y027150D01*X037750Y026850D01*
G37*G36*X042750Y025850D02*X042752Y025830D01*
X042758Y025812D01*X042767Y025794D01*X042779Y025779D01*X042794Y025767D01*
X042812Y025758D01*X042830Y025752D01*X042850Y025750D01*X043150Y025750D01*
X043170Y025752D01*X043188Y025758D01*X043206Y025767D01*X043221Y025779D01*
X043233Y025794D01*X043242Y025812D01*X043248Y025830D01*X043250Y025850D01*
X043250Y026150D01*X043248Y026170D01*X043242Y026188D01*X043233Y026206D01*
X043221Y026221D01*X043206Y026233D01*X043188Y026242D01*X043170Y026248D01*
X043150Y026250D01*X042850Y026250D01*X042830Y026248D01*X042812Y026242D01*
X042794Y026233D01*X042779Y026221D01*X042767Y026206D01*X042758Y026188D01*
X042752Y026170D01*X042750Y026150D01*X042750Y025850D01*G37*G36*X042750Y024850D02*
X042752Y024830D01*X042758Y024812D01*X042767Y024794D01*X042779Y024779D01*
X042794Y024767D01*X042812Y024758D01*X042830Y024752D01*X042850Y024750D01*
X043150Y024750D01*X043170Y024752D01*X043188Y024758D01*X043206Y024767D01*
X043221Y024779D01*X043233Y024794D01*X043242Y024812D01*X043248Y024830D01*
X043250Y024850D01*X043250Y025150D01*X043248Y025170D01*X043242Y025188D01*
X043233Y025206D01*X043221Y025221D01*X043206Y025233D01*X043188Y025242D01*
X043170Y025248D01*X043150Y025250D01*X042850Y025250D01*X042830Y025248D01*
X042812Y025242D01*X042794Y025233D01*X042779Y025221D01*X042767Y025206D01*
X042758Y025188D01*X042752Y025170D01*X042750Y025150D01*X042750Y024850D01*G37*G36*
X037750Y029850D02*X037752Y029830D01*X037758Y029812D01*X037767Y029794D01*
X037779Y029779D01*X037794Y029767D01*X037812Y029758D01*X037830Y029752D01*
X037850Y029750D01*X038150Y029750D01*X038170Y029752D01*X038188Y029758D01*
X038206Y029767D01*X038221Y029779D01*X038233Y029794D01*X038242Y029812D01*
X038248Y029830D01*X038250Y029850D01*X038250Y030150D01*X038248Y030170D01*
X038242Y030188D01*X038233Y030206D01*X038221Y030221D01*X038206Y030233D01*
X038188Y030242D01*X038170Y030248D01*X038150Y030250D01*X037850Y030250D01*
X037830Y030248D01*X037812Y030242D01*X037794Y030233D01*X037779Y030221D01*
X037767Y030206D01*X037758Y030188D01*X037752Y030170D01*X037750Y030150D01*
X037750Y029850D01*G37*G36*X037750Y028850D02*X037752Y028830D01*X037758Y028812D01*
X037767Y028794D01*X037779Y028779D01*X037794Y028767D01*X037812Y028758D01*
X037830Y028752D01*X037850Y028750D01*X038150Y028750D01*X038170Y028752D01*
X038188Y028758D01*X038206Y028767D01*X038221Y028779D01*X038233Y028794D01*
X038242Y028812D01*X038248Y028830D01*X038250Y028850D01*X038250Y029150D01*
X038248Y029170D01*X038242Y029188D01*X038233Y029206D01*X038221Y029221D01*
X038206Y029233D01*X038188Y029242D01*X038170Y029248D01*X038150Y029250D01*
X037850Y029250D01*X037830Y029248D01*X037812Y029242D01*X037794Y029233D01*
X037779Y029221D01*X037767Y029206D01*X037758Y029188D01*X037752Y029170D01*
X037750Y029150D01*X037750Y028850D01*G37*G36*X036750Y031850D02*X036752Y031830D01*
X036758Y031812D01*X036767Y031794D01*X036779Y031779D01*X036794Y031767D01*
X036812Y031758D01*X036830Y031752D01*X036850Y031750D01*X037150Y031750D01*
X037170Y031752D01*X037188Y031758D01*X037206Y031767D01*X037221Y031779D01*
X037233Y031794D01*X037242Y031812D01*X037248Y031830D01*X037250Y031850D01*
X037250Y032150D01*X037248Y032170D01*X037242Y032188D01*X037233Y032206D01*
X037221Y032221D01*X037206Y032233D01*X037188Y032242D01*X037170Y032248D01*
X037150Y032250D01*X036850Y032250D01*X036830Y032248D01*X036812Y032242D01*
X036794Y032233D01*X036779Y032221D01*X036767Y032206D01*X036758Y032188D01*
X036752Y032170D01*X036750Y032150D01*X036750Y031850D01*G37*G36*X036750Y030850D02*
X036752Y030830D01*X036758Y030812D01*X036767Y030794D01*X036779Y030779D01*
X036794Y030767D01*X036812Y030758D01*X036830Y030752D01*X036850Y030750D01*
X037150Y030750D01*X037170Y030752D01*X037188Y030758D01*X037206Y030767D01*
X037221Y030779D01*X037233Y030794D01*X037242Y030812D01*X037248Y030830D01*
X037250Y030850D01*X037250Y031150D01*X037248Y031170D01*X037242Y031188D01*
X037233Y031206D01*X037221Y031221D01*X037206Y031233D01*X037188Y031242D01*
X037170Y031248D01*X037150Y031250D01*X036850Y031250D01*X036830Y031248D01*
X036812Y031242D01*X036794Y031233D01*X036779Y031221D01*X036767Y031206D01*
X036758Y031188D01*X036752Y031170D01*X036750Y031150D01*X036750Y030850D01*G37*G36*
X036750Y029850D02*X036752Y029830D01*X036758Y029812D01*X036767Y029794D01*
X036779Y029779D01*X036794Y029767D01*X036812Y029758D01*X036830Y029752D01*
X036850Y029750D01*X037150Y029750D01*X037170Y029752D01*X037188Y029758D01*
X037206Y029767D01*X037221Y029779D01*X037233Y029794D01*X037242Y029812D01*
X037248Y029830D01*X037250Y029850D01*X037250Y030150D01*X037248Y030170D01*
X037242Y030188D01*X037233Y030206D01*X037221Y030221D01*X037206Y030233D01*
X037188Y030242D01*X037170Y030248D01*X037150Y030250D01*X036850Y030250D01*
X036830Y030248D01*X036812Y030242D01*X036794Y030233D01*X036779Y030221D01*
X036767Y030206D01*X036758Y030188D01*X036752Y030170D01*X036750Y030150D01*
X036750Y029850D01*G37*G36*X036750Y028850D02*X036752Y028830D01*X036758Y028812D01*
X036767Y028794D01*X036779Y028779D01*X036794Y028767D01*X036812Y028758D01*
X036830Y028752D01*X036850Y028750D01*X037150Y028750D01*X037170Y028752D01*
X037188Y028758D01*X037206Y028767D01*X037221Y028779D01*X037233Y028794D01*
X037242Y028812D01*X037248Y028830D01*X037250Y028850D01*X037250Y029150D01*
X037248Y029170D01*X037242Y029188D01*X037233Y029206D01*X037221Y029221D01*
X037206Y029233D01*X037188Y029242D01*X037170Y029248D01*X037150Y029250D01*
X036850Y029250D01*X036830Y029248D01*X036812Y029242D01*X036794Y029233D01*
X036779Y029221D01*X036767Y029206D01*X036758Y029188D01*X036752Y029170D01*
X036750Y029150D01*X036750Y028850D01*G37*G36*X021750Y033850D02*X021752Y033830D01*
X021758Y033812D01*X021767Y033794D01*X021779Y033779D01*X021794Y033767D01*
X021812Y033758D01*X021830Y033752D01*X021850Y033750D01*X022150Y033750D01*
X022170Y033752D01*X022188Y033758D01*X022206Y033767D01*X022221Y033779D01*
X022233Y033794D01*X022242Y033812D01*X022248Y033830D01*X022250Y033850D01*
X022250Y034150D01*X022248Y034170D01*X022242Y034188D01*X022233Y034206D01*
X022221Y034221D01*X022206Y034233D01*X022188Y034242D01*X022170Y034248D01*
X022150Y034250D01*X021850Y034250D01*X021830Y034248D01*X021812Y034242D01*
X021794Y034233D01*X021779Y034221D01*X021767Y034206D01*X021758Y034188D01*
X021752Y034170D01*X021750Y034150D01*X021750Y033850D01*G37*G36*X022750Y033850D02*
X022752Y033830D01*X022758Y033812D01*X022767Y033794D01*X022779Y033779D01*
X022794Y033767D01*X022812Y033758D01*X022830Y033752D01*X022850Y033750D01*
X023150Y033750D01*X023170Y033752D01*X023188Y033758D01*X023206Y033767D01*
X023221Y033779D01*X023233Y033794D01*X023242Y033812D01*X023248Y033830D01*
X023250Y033850D01*X023250Y034150D01*X023248Y034170D01*X023242Y034188D01*
X023233Y034206D01*X023221Y034221D01*X023206Y034233D01*X023188Y034242D01*
X023170Y034248D01*X023150Y034250D01*X022850Y034250D01*X022830Y034248D01*
X022812Y034242D01*X022794Y034233D01*X022779Y034221D01*X022767Y034206D01*
X022758Y034188D01*X022752Y034170D01*X022750Y034150D01*X022750Y033850D01*
G37*G36*
X029750Y033850D02*X029752Y033830D01*X029758Y033812D01*X029767Y033794D01*
X029779Y033779D01*X029794Y033767D01*X029812Y033758D01*X029830Y033752D01*
X029850Y033750D01*X030150Y033750D01*X030170Y033752D01*X030188Y033758D01*
X030206Y033767D01*X030221Y033779D01*X030233Y033794D01*X030242Y033812D01*
X030248Y033830D01*X030250Y033850D01*X030250Y034150D01*X030248Y034170D01*
X030242Y034188D01*X030233Y034206D01*X030221Y034221D01*X030206Y034233D01*
X030188Y034242D01*X030170Y034248D01*X030150Y034250D01*X029850Y034250D01*
X029830Y034248D01*X029812Y034242D01*X029794Y034233D01*X029779Y034221D01*
X029767Y034206D01*X029758Y034188D01*X029752Y034170D01*X029750Y034150D01*
X029750Y033850D01*G37*G36*X029750Y032850D02*X029752Y032830D01*X029758Y032812D01*
X029767Y032794D01*X029779Y032779D01*X029794Y032767D01*X029812Y032758D01*
X029830Y032752D01*X029850Y032750D01*X030150Y032750D01*X030170Y032752D01*
X030188Y032758D01*X030206Y032767D01*X030221Y032779D01*X030233Y032794D01*
X030242Y032812D01*X030248Y032830D01*X030250Y032850D01*X030250Y033150D01*
X030248Y033170D01*X030242Y033188D01*X030233Y033206D01*X030221Y033221D01*
X030206Y033233D01*X030188Y033242D01*X030170Y033248D01*X030150Y033250D01*
X029850Y033250D01*X029830Y033248D01*X029812Y033242D01*X029794Y033233D01*
X029779Y033221D01*X029767Y033206D01*X029758Y033188D01*X029752Y033170D01*
X029750Y033150D01*X029750Y032850D01*G37*G36*X028750Y032850D02*X028752Y032830D01*
X028758Y032812D01*X028767Y032794D01*X028779Y032779D01*X028794Y032767D01*
X028812Y032758D01*X028830Y032752D01*X028850Y032750D01*X029150Y032750D01*
X029170Y032752D01*X029188Y032758D01*X029206Y032767D01*X029221Y032779D01*
X029233Y032794D01*X029242Y032812D01*X029248Y032830D01*X029250Y032850D01*
X029250Y033150D01*X029248Y033170D01*X029242Y033188D01*X029233Y033206D01*
X029221Y033221D01*X029206Y033233D01*X029188Y033242D01*X029170Y033248D01*
X029150Y033250D01*X028850Y033250D01*X028830Y033248D01*X028812Y033242D01*
X028794Y033233D01*X028779Y033221D01*X028767Y033206D01*X028758Y033188D01*
X028752Y033170D01*X028750Y033150D01*X028750Y032850D01*G37*G36*X028750Y033850D02*
X028752Y033830D01*X028758Y033812D01*X028767Y033794D01*X028779Y033779D01*
X028794Y033767D01*X028812Y033758D01*X028830Y033752D01*X028850Y033750D01*
X029150Y033750D01*X029170Y033752D01*X029188Y033758D01*X029206Y033767D01*
X029221Y033779D01*X029233Y033794D01*X029242Y033812D01*X029248Y033830D01*
X029250Y033850D01*X029250Y034150D01*X029248Y034170D01*X029242Y034188D01*
X029233Y034206D01*X029221Y034221D01*X029206Y034233D01*X029188Y034242D01*
X029170Y034248D01*X029150Y034250D01*X028850Y034250D01*X028830Y034248D01*
X028812Y034242D01*X028794Y034233D01*X028779Y034221D01*X028767Y034206D01*
X028758Y034188D01*X028752Y034170D01*X028750Y034150D01*X028750Y033850D01*G37*G36*
X006750Y040850D02*X006752Y040830D01*X006758Y040812D01*X006767Y040794D01*
X006779Y040779D01*X006794Y040767D01*X006812Y040758D01*X006830Y040752D01*
X006850Y040750D01*X007150Y040750D01*X007170Y040752D01*X007188Y040758D01*
X007206Y040767D01*X007221Y040779D01*X007233Y040794D01*X007242Y040812D01*
X007248Y040830D01*X007250Y040850D01*X007250Y041150D01*X007248Y041170D01*
X007242Y041188D01*X007233Y041206D01*X007221Y041221D01*X007206Y041233D01*
X007188Y041242D01*X007170Y041248D01*X007150Y041250D01*X006850Y041250D01*
X006830Y041248D01*X006812Y041242D01*X006794Y041233D01*X006779Y041221D01*
X006767Y041206D01*X006758Y041188D01*X006752Y041170D01*X006750Y041150D01*
X006750Y040850D01*G37*G36*X005750Y040850D02*X005752Y040830D01*X005758Y040812D01*
X005767Y040794D01*X005779Y040779D01*X005794Y040767D01*X005812Y040758D01*
X005830Y040752D01*X005850Y040750D01*X006150Y040750D01*X006170Y040752D01*
X006188Y040758D01*X006206Y040767D01*X006221Y040779D01*X006233Y040794D01*
X006242Y040812D01*X006248Y040830D01*X006250Y040850D01*X006250Y041150D01*
X006248Y041170D01*X006242Y041188D01*X006233Y041206D01*X006221Y041221D01*
X006206Y041233D01*X006188Y041242D01*X006170Y041248D01*X006150Y041250D01*
X005850Y041250D01*X005830Y041248D01*X005812Y041242D01*X005794Y041233D01*
X005779Y041221D01*X005767Y041206D01*X005758Y041188D01*X005752Y041170D01*
X005750Y041150D01*X005750Y040850D01*G37*G36*X020750Y039850D02*X020752Y039830D01*
X020758Y039812D01*X020767Y039794D01*X020779Y039779D01*X020794Y039767D01*
X020812Y039758D01*X020830Y039752D01*X020850Y039750D01*X021150Y039750D01*
X021170Y039752D01*X021188Y039758D01*X021206Y039767D01*X021221Y039779D01*
X021233Y039794D01*X021242Y039812D01*X021248Y039830D01*X021250Y039850D01*
X021250Y040150D01*X021248Y040170D01*X021242Y040188D01*X021233Y040206D01*
X021221Y040221D01*X021206Y040233D01*X021188Y040242D01*X021170Y040248D01*
X021150Y040250D01*X020850Y040250D01*X020830Y040248D01*X020812Y040242D01*
X020794Y040233D01*X020779Y040221D01*X020767Y040206D01*X020758Y040188D01*
X020752Y040170D01*X020750Y040150D01*X020750Y039850D01*G37*G36*X020750Y040850D02*
X020752Y040830D01*X020758Y040812D01*X020767Y040794D01*X020779Y040779D01*
X020794Y040767D01*X020812Y040758D01*X020830Y040752D01*X020850Y040750D01*
X021150Y040750D01*X021170Y040752D01*X021188Y040758D01*X021206Y040767D01*
X021221Y040779D01*X021233Y040794D01*X021242Y040812D01*X021248Y040830D01*
X021250Y040850D01*X021250Y041150D01*X021248Y041170D01*X021242Y041188D01*
X021233Y041206D01*X021221Y041221D01*X021206Y041233D01*X021188Y041242D01*
X021170Y041248D01*X021150Y041250D01*X020850Y041250D01*X020830Y041248D01*
X020812Y041242D01*X020794Y041233D01*X020779Y041221D01*X020767Y041206D01*
X020758Y041188D01*X020752Y041170D01*X020750Y041150D01*X020750Y040850D01*G37*G36*
X029750Y040850D02*X029752Y040830D01*X029758Y040812D01*X029767Y040794D01*
X029779Y040779D01*X029794Y040767D01*X029812Y040758D01*X029830Y040752D01*
X029850Y040750D01*X030150Y040750D01*X030170Y040752D01*X030188Y040758D01*
X030206Y040767D01*X030221Y040779D01*X030233Y040794D01*X030242Y040812D01*
X030248Y040830D01*X030250Y040850D01*X030250Y041150D01*X030248Y041170D01*
X030242Y041188D01*X030233Y041206D01*X030221Y041221D01*X030206Y041233D01*
X030188Y041242D01*X030170Y041248D01*X030150Y041250D01*X029850Y041250D01*
X029830Y041248D01*X029812Y041242D01*X029794Y041233D01*X029779Y041221D01*
X029767Y041206D01*X029758Y041188D01*X029752Y041170D01*X029750Y041150D01*
X029750Y040850D01*G37*G36*X029750Y039850D02*X029752Y039830D01*X029758Y039812D01*
X029767Y039794D01*X029779Y039779D01*X029794Y039767D01*X029812Y039758D01*
X029830Y039752D01*X029850Y039750D01*X030150Y039750D01*X030170Y039752D01*
X030188Y039758D01*X030206Y039767D01*X030221Y039779D01*X030233Y039794D01*
X030242Y039812D01*X030248Y039830D01*X030250Y039850D01*X030250Y040150D01*
X030248Y040170D01*X030242Y040188D01*X030233Y040206D01*X030221Y040221D01*
X030206Y040233D01*X030188Y040242D01*X030170Y040248D01*X030150Y040250D01*
X029850Y040250D01*X029830Y040248D01*X029812Y040242D01*X029794Y040233D01*
X029779Y040221D01*X029767Y040206D01*X029758Y040188D01*X029752Y040170D01*
X029750Y040150D01*X029750Y039850D01*
G37*G36*X028750Y040850D02*X028752Y040830D01*
X028758Y040812D01*X028767Y040794D01*X028779Y040779D01*X028794Y040767D01*
X028812Y040758D01*X028830Y040752D01*X028850Y040750D01*X029150Y040750D01*
X029170Y040752D01*X029188Y040758D01*X029206Y040767D01*X029221Y040779D01*
X029233Y040794D01*X029242Y040812D01*X029248Y040830D01*X029250Y040850D01*
X029250Y041150D01*X029248Y041170D01*X029242Y041188D01*X029233Y041206D01*
X029221Y041221D01*X029206Y041233D01*X029188Y041242D01*X029170Y041248D01*
X029150Y041250D01*X028850Y041250D01*X028830Y041248D01*X028812Y041242D01*
X028794Y041233D01*X028779Y041221D01*X028767Y041206D01*X028758Y041188D01*
X028752Y041170D01*X028750Y041150D01*X028750Y040850D01*G37*G36*X028750Y039850D02*
X028752Y039830D01*X028758Y039812D01*X028767Y039794D01*X028779Y039779D01*
X028794Y039767D01*X028812Y039758D01*X028830Y039752D01*X028850Y039750D01*
X029150Y039750D01*X029170Y039752D01*X029188Y039758D01*X029206Y039767D01*
X029221Y039779D01*X029233Y039794D01*X029242Y039812D01*X029248Y039830D01*
X029250Y039850D01*X029250Y040150D01*X029248Y040170D01*X029242Y040188D01*
X029233Y040206D01*X029221Y040221D01*X029206Y040233D01*X029188Y040242D01*
X029170Y040248D01*X029150Y040250D01*X028850Y040250D01*X028830Y040248D01*
X028812Y040242D01*X028794Y040233D01*X028779Y040221D01*X028767Y040206D01*
X028758Y040188D01*X028752Y040170D01*X028750Y040150D01*X028750Y039850D01*G37*G36*
X027750Y040850D02*X027752Y040830D01*X027758Y040812D01*X027767Y040794D01*
X027779Y040779D01*X027794Y040767D01*X027812Y040758D01*X027830Y040752D01*
X027850Y040750D01*X028150Y040750D01*X028170Y040752D01*X028188Y040758D01*
X028206Y040767D01*X028221Y040779D01*X028233Y040794D01*X028242Y040812D01*
X028248Y040830D01*X028250Y040850D01*X028250Y041150D01*X028248Y041170D01*
X028242Y041188D01*X028233Y041206D01*X028221Y041221D01*X028206Y041233D01*
X028188Y041242D01*X028170Y041248D01*X028150Y041250D01*X027850Y041250D01*
X027830Y041248D01*X027812Y041242D01*X027794Y041233D01*X027779Y041221D01*
X027767Y041206D01*X027758Y041188D01*X027752Y041170D01*X027750Y041150D01*
X027750Y040850D01*G37*G36*X027750Y039850D02*X027752Y039830D01*X027758Y039812D01*
X027767Y039794D01*X027779Y039779D01*X027794Y039767D01*X027812Y039758D01*
X027830Y039752D01*X027850Y039750D01*X028150Y039750D01*X028170Y039752D01*
X028188Y039758D01*X028206Y039767D01*X028221Y039779D01*X028233Y039794D01*
X028242Y039812D01*X028248Y039830D01*X028250Y039850D01*X028250Y040150D01*
X028248Y040170D01*X028242Y040188D01*X028233Y040206D01*X028221Y040221D01*
X028206Y040233D01*X028188Y040242D01*X028170Y040248D01*X028150Y040250D01*
X027850Y040250D01*X027830Y040248D01*X027812Y040242D01*X027794Y040233D01*
X027779Y040221D01*X027767Y040206D01*X027758Y040188D01*X027752Y040170D01*
X027750Y040150D01*X027750Y039850D01*G37*G36*X030750Y040850D02*X030752Y040830D01*
X030758Y040812D01*X030767Y040794D01*X030779Y040779D01*X030794Y040767D01*
X030812Y040758D01*X030830Y040752D01*X030850Y040750D01*X031150Y040750D01*
X031170Y040752D01*X031188Y040758D01*X031206Y040767D01*X031221Y040779D01*
X031233Y040794D01*X031242Y040812D01*X031248Y040830D01*X031250Y040850D01*
X031250Y041150D01*X031248Y041170D01*X031242Y041188D01*X031233Y041206D01*
X031221Y041221D01*X031206Y041233D01*X031188Y041242D01*X031170Y041248D01*
X031150Y041250D01*X030850Y041250D01*X030830Y041248D01*X030812Y041242D01*
X030794Y041233D01*X030779Y041221D01*X030767Y041206D01*X030758Y041188D01*
X030752Y041170D01*X030750Y041150D01*X030750Y040850D01*G37*G36*X030750Y039850D02*
X030752Y039830D01*X030758Y039812D01*X030767Y039794D01*X030779Y039779D01*
X030794Y039767D01*X030812Y039758D01*X030830Y039752D01*X030850Y039750D01*
X031150Y039750D01*X031170Y039752D01*X031188Y039758D01*X031206Y039767D01*
X031221Y039779D01*X031233Y039794D01*X031242Y039812D01*X031248Y039830D01*
X031250Y039850D01*X031250Y040150D01*X031248Y040170D01*X031242Y040188D01*
X031233Y040206D01*X031221Y040221D01*X031206Y040233D01*X031188Y040242D01*
X031170Y040248D01*X031150Y040250D01*X030850Y040250D01*X030830Y040248D01*
X030812Y040242D01*X030794Y040233D01*X030779Y040221D01*X030767Y040206D01*
X030758Y040188D01*X030752Y040170D01*X030750Y040150D01*X030750Y039850D01*G37*G36*
X035750Y042850D02*X035752Y042830D01*X035758Y042812D01*X035767Y042794D01*
X035779Y042779D01*X035794Y042767D01*X035812Y042758D01*X035830Y042752D01*
X035850Y042750D01*X036150Y042750D01*X036170Y042752D01*X036188Y042758D01*
X036206Y042767D01*X036221Y042779D01*X036233Y042794D01*X036242Y042812D01*
X036248Y042830D01*X036250Y042850D01*X036250Y043150D01*X036248Y043170D01*
X036242Y043188D01*X036233Y043206D01*X036221Y043221D01*X036206Y043233D01*
X036188Y043242D01*X036170Y043248D01*X036150Y043250D01*X035850Y043250D01*
X035830Y043248D01*X035812Y043242D01*X035794Y043233D01*X035779Y043221D01*
X035767Y043206D01*X035758Y043188D01*X035752Y043170D01*X035750Y043150D01*
X035750Y042850D01*G37*G36*X035750Y041850D02*X035752Y041830D01*X035758Y041812D01*
X035767Y041794D01*X035779Y041779D01*X035794Y041767D01*X035812Y041758D01*
X035830Y041752D01*X035850Y041750D01*X036150Y041750D01*X036170Y041752D01*
X036188Y041758D01*X036206Y041767D01*X036221Y041779D01*X036233Y041794D01*
X036242Y041812D01*X036248Y041830D01*X036250Y041850D01*X036250Y042150D01*
X036248Y042170D01*X036242Y042188D01*X036233Y042206D01*X036221Y042221D01*
X036206Y042233D01*X036188Y042242D01*X036170Y042248D01*X036150Y042250D01*
X035850Y042250D01*X035830Y042248D01*X035812Y042242D01*X035794Y042233D01*
X035779Y042221D01*X035767Y042206D01*X035758Y042188D01*X035752Y042170D01*
X035750Y042150D01*X035750Y041850D01*G37*G36*X034750Y042850D02*X034752Y042830D01*
X034758Y042812D01*X034767Y042794D01*X034779Y042779D01*X034794Y042767D01*
X034812Y042758D01*X034830Y042752D01*X034850Y042750D01*X035150Y042750D01*
X035170Y042752D01*X035188Y042758D01*X035206Y042767D01*X035221Y042779D01*
X035233Y042794D01*X035242Y042812D01*X035248Y042830D01*X035250Y042850D01*
X035250Y043150D01*X035248Y043170D01*X035242Y043188D01*X035233Y043206D01*
X035221Y043221D01*X035206Y043233D01*X035188Y043242D01*X035170Y043248D01*
X035150Y043250D01*X034850Y043250D01*X034830Y043248D01*X034812Y043242D01*
X034794Y043233D01*X034779Y043221D01*X034767Y043206D01*X034758Y043188D01*
X034752Y043170D01*X034750Y043150D01*X034750Y042850D01*G37*G36*X034750Y041850D02*
X034752Y041830D01*X034758Y041812D01*X034767Y041794D01*X034779Y041779D01*
X034794Y041767D01*X034812Y041758D01*X034830Y041752D01*X034850Y041750D01*
X035150Y041750D01*X035170Y041752D01*X035188Y041758D01*X035206Y041767D01*
X035221Y041779D01*X035233Y041794D01*X035242Y041812D01*X035248Y041830D01*
X035250Y041850D01*X035250Y042150D01*X035248Y042170D01*X035242Y042188D01*
X035233Y042206D01*X035221Y042221D01*X035206Y042233D01*X035188Y042242D01*
X035170Y042248D01*X035150Y042250D01*X034850Y042250D01*X034830Y042248D01*
X034812Y042242D01*X034794Y042233D01*X034779Y042221D01*X034767Y042206D01*
X034758Y042188D01*X034752Y042170D01*X034750Y042150D01*X034750Y041850D01*
G37*G36*
X036750Y042850D02*X036752Y042830D01*X036758Y042812D01*X036767Y042794D01*
X036779Y042779D01*X036794Y042767D01*X036812Y042758D01*X036830Y042752D01*
X036850Y042750D01*X037150Y042750D01*X037170Y042752D01*X037188Y042758D01*
X037206Y042767D01*X037221Y042779D01*X037233Y042794D01*X037242Y042812D01*
X037248Y042830D01*X037250Y042850D01*X037250Y043150D01*X037248Y043170D01*
X037242Y043188D01*X037233Y043206D01*X037221Y043221D01*X037206Y043233D01*
X037188Y043242D01*X037170Y043248D01*X037150Y043250D01*X036850Y043250D01*
X036830Y043248D01*X036812Y043242D01*X036794Y043233D01*X036779Y043221D01*
X036767Y043206D01*X036758Y043188D01*X036752Y043170D01*X036750Y043150D01*
X036750Y042850D01*G37*G36*X036750Y041850D02*X036752Y041830D01*X036758Y041812D01*
X036767Y041794D01*X036779Y041779D01*X036794Y041767D01*X036812Y041758D01*
X036830Y041752D01*X036850Y041750D01*X037150Y041750D01*X037170Y041752D01*
X037188Y041758D01*X037206Y041767D01*X037221Y041779D01*X037233Y041794D01*
X037242Y041812D01*X037248Y041830D01*X037250Y041850D01*X037250Y042150D01*
X037248Y042170D01*X037242Y042188D01*X037233Y042206D01*X037221Y042221D01*
X037206Y042233D01*X037188Y042242D01*X037170Y042248D01*X037150Y042250D01*
X036850Y042250D01*X036830Y042248D01*X036812Y042242D01*X036794Y042233D01*
X036779Y042221D01*X036767Y042206D01*X036758Y042188D01*X036752Y042170D01*
X036750Y042150D01*X036750Y041850D01*G37*G36*X009750Y052850D02*X009752Y052830D01*
X009758Y052812D01*X009767Y052794D01*X009779Y052779D01*X009794Y052767D01*
X009812Y052758D01*X009830Y052752D01*X009850Y052750D01*X010150Y052750D01*
X010170Y052752D01*X010188Y052758D01*X010206Y052767D01*X010221Y052779D01*
X010233Y052794D01*X010242Y052812D01*X010248Y052830D01*X010250Y052850D01*
X010250Y053150D01*X010248Y053170D01*X010242Y053188D01*X010233Y053206D01*
X010221Y053221D01*X010206Y053233D01*X010188Y053242D01*X010170Y053248D01*
X010150Y053250D01*X009850Y053250D01*X009830Y053248D01*X009812Y053242D01*
X009794Y053233D01*X009779Y053221D01*X009767Y053206D01*X009758Y053188D01*
X009752Y053170D01*X009750Y053150D01*X009750Y052850D01*G37*G36*X009750Y053850D02*
X009752Y053830D01*X009758Y053812D01*X009767Y053794D01*X009779Y053779D01*
X009794Y053767D01*X009812Y053758D01*X009830Y053752D01*X009850Y053750D01*
X010150Y053750D01*X010170Y053752D01*X010188Y053758D01*X010206Y053767D01*
X010221Y053779D01*X010233Y053794D01*X010242Y053812D01*X010248Y053830D01*
X010250Y053850D01*X010250Y054150D01*X010248Y054170D01*X010242Y054188D01*
X010233Y054206D01*X010221Y054221D01*X010206Y054233D01*X010188Y054242D01*
X010170Y054248D01*X010150Y054250D01*X009850Y054250D01*X009830Y054248D01*
X009812Y054242D01*X009794Y054233D01*X009779Y054221D01*X009767Y054206D01*
X009758Y054188D01*X009752Y054170D01*X009750Y054150D01*X009750Y053850D01*G37*G36*
X008750Y051850D02*X008752Y051830D01*X008758Y051812D01*X008767Y051794D01*
X008779Y051779D01*X008794Y051767D01*X008812Y051758D01*X008830Y051752D01*
X008850Y051750D01*X009150Y051750D01*X009170Y051752D01*X009188Y051758D01*
X009206Y051767D01*X009221Y051779D01*X009233Y051794D01*X009242Y051812D01*
X009248Y051830D01*X009250Y051850D01*X009250Y052150D01*X009248Y052170D01*
X009242Y052188D01*X009233Y052206D01*X009221Y052221D01*X009206Y052233D01*
X009188Y052242D01*X009170Y052248D01*X009150Y052250D01*X008850Y052250D01*
X008830Y052248D01*X008812Y052242D01*X008794Y052233D01*X008779Y052221D01*
X008767Y052206D01*X008758Y052188D01*X008752Y052170D01*X008750Y052150D01*
X008750Y051850D01*G37*G36*X009750Y051850D02*X009752Y051830D01*X009758Y051812D01*
X009767Y051794D01*X009779Y051779D01*X009794Y051767D01*X009812Y051758D01*
X009830Y051752D01*X009850Y051750D01*X010150Y051750D01*X010170Y051752D01*
X010188Y051758D01*X010206Y051767D01*X010221Y051779D01*X010233Y051794D01*
X010242Y051812D01*X010248Y051830D01*X010250Y051850D01*X010250Y052150D01*
X010248Y052170D01*X010242Y052188D01*X010233Y052206D01*X010221Y052221D01*
X010206Y052233D01*X010188Y052242D01*X010170Y052248D01*X010150Y052250D01*
X009850Y052250D01*X009830Y052248D01*X009812Y052242D01*X009794Y052233D01*
X009779Y052221D01*X009767Y052206D01*X009758Y052188D01*X009752Y052170D01*
X009750Y052150D01*X009750Y051850D01*G37*G36*X018750Y052850D02*X018752Y052830D01*
X018758Y052812D01*X018767Y052794D01*X018779Y052779D01*X018794Y052767D01*
X018812Y052758D01*X018830Y052752D01*X018850Y052750D01*X019150Y052750D01*
X019170Y052752D01*X019188Y052758D01*X019206Y052767D01*X019221Y052779D01*
X019233Y052794D01*X019242Y052812D01*X019248Y052830D01*X019250Y052850D01*
X019250Y053150D01*X019248Y053170D01*X019242Y053188D01*X019233Y053206D01*
X019221Y053221D01*X019206Y053233D01*X019188Y053242D01*X019170Y053248D01*
X019150Y053250D01*X018850Y053250D01*X018830Y053248D01*X018812Y053242D01*
X018794Y053233D01*X018779Y053221D01*X018767Y053206D01*X018758Y053188D01*
X018752Y053170D01*X018750Y053150D01*X018750Y052850D01*G37*G36*X018750Y053850D02*
X018752Y053830D01*X018758Y053812D01*X018767Y053794D01*X018779Y053779D01*
X018794Y053767D01*X018812Y053758D01*X018830Y053752D01*X018850Y053750D01*
X019150Y053750D01*X019170Y053752D01*X019188Y053758D01*X019206Y053767D01*
X019221Y053779D01*X019233Y053794D01*X019242Y053812D01*X019248Y053830D01*
X019250Y053850D01*X019250Y054150D01*X019248Y054170D01*X019242Y054188D01*
X019233Y054206D01*X019221Y054221D01*X019206Y054233D01*X019188Y054242D01*
X019170Y054248D01*X019150Y054250D01*X018850Y054250D01*X018830Y054248D01*
X018812Y054242D01*X018794Y054233D01*X018779Y054221D01*X018767Y054206D01*
X018758Y054188D01*X018752Y054170D01*X018750Y054150D01*X018750Y053850D01*G37*G36*
X017750Y051850D02*X017752Y051830D01*X017758Y051812D01*X017767Y051794D01*
X017779Y051779D01*X017794Y051767D01*X017812Y051758D01*X017830Y051752D01*
X017850Y051750D01*X018150Y051750D01*X018170Y051752D01*X018188Y051758D01*
X018206Y051767D01*X018221Y051779D01*X018233Y051794D01*X018242Y051812D01*
X018248Y051830D01*X018250Y051850D01*X018250Y052150D01*X018248Y052170D01*
X018242Y052188D01*X018233Y052206D01*X018221Y052221D01*X018206Y052233D01*
X018188Y052242D01*X018170Y052248D01*X018150Y052250D01*X017850Y052250D01*
X017830Y052248D01*X017812Y052242D01*X017794Y052233D01*X017779Y052221D01*
X017767Y052206D01*X017758Y052188D01*X017752Y052170D01*X017750Y052150D01*
X017750Y051850D01*G37*G36*X018750Y051850D02*X018752Y051830D01*X018758Y051812D01*
X018767Y051794D01*X018779Y051779D01*X018794Y051767D01*X018812Y051758D01*
X018830Y051752D01*X018850Y051750D01*X019150Y051750D01*X019170Y051752D01*
X019188Y051758D01*X019206Y051767D01*X019221Y051779D01*X019233Y051794D01*
X019242Y051812D01*X019248Y051830D01*X019250Y051850D01*X019250Y052150D01*
X019248Y052170D01*X019242Y052188D01*X019233Y052206D01*X019221Y052221D01*
X019206Y052233D01*X019188Y052242D01*X019170Y052248D01*X019150Y052250D01*
X018850Y052250D01*X018830Y052248D01*X018812Y052242D01*X018794Y052233D01*
X018779Y052221D01*X018767Y052206D01*X018758Y052188D01*X018752Y052170D01*
X018750Y052150D01*X018750Y051850D01*
G37*G36*X033750Y051850D02*X033752Y051830D01*
X033758Y051812D01*X033767Y051794D01*X033779Y051779D01*X033794Y051767D01*
X033812Y051758D01*X033830Y051752D01*X033850Y051750D01*X034150Y051750D01*
X034170Y051752D01*X034188Y051758D01*X034206Y051767D01*X034221Y051779D01*
X034233Y051794D01*X034242Y051812D01*X034248Y051830D01*X034250Y051850D01*
X034250Y052150D01*X034248Y052170D01*X034242Y052188D01*X034233Y052206D01*
X034221Y052221D01*X034206Y052233D01*X034188Y052242D01*X034170Y052248D01*
X034150Y052250D01*X033850Y052250D01*X033830Y052248D01*X033812Y052242D01*
X033794Y052233D01*X033779Y052221D01*X033767Y052206D01*X033758Y052188D01*
X033752Y052170D01*X033750Y052150D01*X033750Y051850D01*G37*G36*X034750Y051850D02*
X034752Y051830D01*X034758Y051812D01*X034767Y051794D01*X034779Y051779D01*
X034794Y051767D01*X034812Y051758D01*X034830Y051752D01*X034850Y051750D01*
X035150Y051750D01*X035170Y051752D01*X035188Y051758D01*X035206Y051767D01*
X035221Y051779D01*X035233Y051794D01*X035242Y051812D01*X035248Y051830D01*
X035250Y051850D01*X035250Y052150D01*X035248Y052170D01*X035242Y052188D01*
X035233Y052206D01*X035221Y052221D01*X035206Y052233D01*X035188Y052242D01*
X035170Y052248D01*X035150Y052250D01*X034850Y052250D01*X034830Y052248D01*
X034812Y052242D01*X034794Y052233D01*X034779Y052221D01*X034767Y052206D01*
X034758Y052188D01*X034752Y052170D01*X034750Y052150D01*X034750Y051850D01*G37*G36*
X034750Y052850D02*X034752Y052830D01*X034758Y052812D01*X034767Y052794D01*
X034779Y052779D01*X034794Y052767D01*X034812Y052758D01*X034830Y052752D01*
X034850Y052750D01*X035150Y052750D01*X035170Y052752D01*X035188Y052758D01*
X035206Y052767D01*X035221Y052779D01*X035233Y052794D01*X035242Y052812D01*
X035248Y052830D01*X035250Y052850D01*X035250Y053150D01*X035248Y053170D01*
X035242Y053188D01*X035233Y053206D01*X035221Y053221D01*X035206Y053233D01*
X035188Y053242D01*X035170Y053248D01*X035150Y053250D01*X034850Y053250D01*
X034830Y053248D01*X034812Y053242D01*X034794Y053233D01*X034779Y053221D01*
X034767Y053206D01*X034758Y053188D01*X034752Y053170D01*X034750Y053150D01*
X034750Y052850D01*G37*G36*X033750Y052850D02*X033752Y052830D01*X033758Y052812D01*
X033767Y052794D01*X033779Y052779D01*X033794Y052767D01*X033812Y052758D01*
X033830Y052752D01*X033850Y052750D01*X034150Y052750D01*X034170Y052752D01*
X034188Y052758D01*X034206Y052767D01*X034221Y052779D01*X034233Y052794D01*
X034242Y052812D01*X034248Y052830D01*X034250Y052850D01*X034250Y053150D01*
X034248Y053170D01*X034242Y053188D01*X034233Y053206D01*X034221Y053221D01*
X034206Y053233D01*X034188Y053242D01*X034170Y053248D01*X034150Y053250D01*
X033850Y053250D01*X033830Y053248D01*X033812Y053242D01*X033794Y053233D01*
X033779Y053221D01*X033767Y053206D01*X033758Y053188D01*X033752Y053170D01*
X033750Y053150D01*X033750Y052850D01*G37*G36*X035750Y051850D02*X035752Y051830D01*
X035758Y051812D01*X035767Y051794D01*X035779Y051779D01*X035794Y051767D01*
X035812Y051758D01*X035830Y051752D01*X035850Y051750D01*X036150Y051750D01*
X036170Y051752D01*X036188Y051758D01*X036206Y051767D01*X036221Y051779D01*
X036233Y051794D01*X036242Y051812D01*X036248Y051830D01*X036250Y051850D01*
X036250Y052150D01*X036248Y052170D01*X036242Y052188D01*X036233Y052206D01*
X036221Y052221D01*X036206Y052233D01*X036188Y052242D01*X036170Y052248D01*
X036150Y052250D01*X035850Y052250D01*X035830Y052248D01*X035812Y052242D01*
X035794Y052233D01*X035779Y052221D01*X035767Y052206D01*X035758Y052188D01*
X035752Y052170D01*X035750Y052150D01*X035750Y051850D01*G37*G36*X035750Y052850D02*
X035752Y052830D01*X035758Y052812D01*X035767Y052794D01*X035779Y052779D01*
X035794Y052767D01*X035812Y052758D01*X035830Y052752D01*X035850Y052750D01*
X036150Y052750D01*X036170Y052752D01*X036188Y052758D01*X036206Y052767D01*
X036221Y052779D01*X036233Y052794D01*X036242Y052812D01*X036248Y052830D01*
X036250Y052850D01*X036250Y053150D01*X036248Y053170D01*X036242Y053188D01*
X036233Y053206D01*X036221Y053221D01*X036206Y053233D01*X036188Y053242D01*
X036170Y053248D01*X036150Y053250D01*X035850Y053250D01*X035830Y053248D01*
X035812Y053242D01*X035794Y053233D01*X035779Y053221D01*X035767Y053206D01*
X035758Y053188D01*X035752Y053170D01*X035750Y053150D01*X035750Y052850D01*G37*G36*
X046750Y053850D02*X046752Y053830D01*X046758Y053812D01*X046767Y053794D01*
X046779Y053779D01*X046794Y053767D01*X046812Y053758D01*X046830Y053752D01*
X046850Y053750D01*X047150Y053750D01*X047170Y053752D01*X047188Y053758D01*
X047206Y053767D01*X047221Y053779D01*X047233Y053794D01*X047242Y053812D01*
X047248Y053830D01*X047250Y053850D01*X047250Y054150D01*X047248Y054170D01*
X047242Y054188D01*X047233Y054206D01*X047221Y054221D01*X047206Y054233D01*
X047188Y054242D01*X047170Y054248D01*X047150Y054250D01*X046850Y054250D01*
X046830Y054248D01*X046812Y054242D01*X046794Y054233D01*X046779Y054221D01*
X046767Y054206D01*X046758Y054188D01*X046752Y054170D01*X046750Y054150D01*
X046750Y053850D01*G37*G36*X017750Y057850D02*X017752Y057830D01*X017758Y057812D01*
X017767Y057794D01*X017779Y057779D01*X017794Y057767D01*X017812Y057758D01*
X017830Y057752D01*X017850Y057750D01*X018150Y057750D01*X018170Y057752D01*
X018188Y057758D01*X018206Y057767D01*X018221Y057779D01*X018233Y057794D01*
X018242Y057812D01*X018248Y057830D01*X018250Y057850D01*X018250Y058150D01*
X018248Y058170D01*X018242Y058188D01*X018233Y058206D01*X018221Y058221D01*
X018206Y058233D01*X018188Y058242D01*X018170Y058248D01*X018150Y058250D01*
X017850Y058250D01*X017830Y058248D01*X017812Y058242D01*X017794Y058233D01*
X017779Y058221D01*X017767Y058206D01*X017758Y058188D01*X017752Y058170D01*
X017750Y058150D01*X017750Y057850D01*G37*G36*X031750Y056850D02*X031752Y056830D01*
X031758Y056812D01*X031767Y056794D01*X031779Y056779D01*X031794Y056767D01*
X031812Y056758D01*X031830Y056752D01*X031850Y056750D01*X032150Y056750D01*
X032170Y056752D01*X032188Y056758D01*X032206Y056767D01*X032221Y056779D01*
X032233Y056794D01*X032242Y056812D01*X032248Y056830D01*X032250Y056850D01*
X032250Y057150D01*X032248Y057170D01*X032242Y057188D01*X032233Y057206D01*
X032221Y057221D01*X032206Y057233D01*X032188Y057242D01*X032170Y057248D01*
X032150Y057250D01*X031850Y057250D01*X031830Y057248D01*X031812Y057242D01*
X031794Y057233D01*X031779Y057221D01*X031767Y057206D01*X031758Y057188D01*
X031752Y057170D01*X031750Y057150D01*X031750Y056850D01*G37*G36*X031750Y055850D02*
X031752Y055830D01*X031758Y055812D01*X031767Y055794D01*X031779Y055779D01*
X031794Y055767D01*X031812Y055758D01*X031830Y055752D01*X031850Y055750D01*
X032150Y055750D01*X032170Y055752D01*X032188Y055758D01*X032206Y055767D01*
X032221Y055779D01*X032233Y055794D01*X032242Y055812D01*X032248Y055830D01*
X032250Y055850D01*X032250Y056150D01*X032248Y056170D01*X032242Y056188D01*
X032233Y056206D01*X032221Y056221D01*X032206Y056233D01*X032188Y056242D01*
X032170Y056248D01*X032150Y056250D01*X031850Y056250D01*X031830Y056248D01*
X031812Y056242D01*X031794Y056233D01*X031779Y056221D01*X031767Y056206D01*
X031758Y056188D01*X031752Y056170D01*X031750Y056150D01*X031750Y055850D01*
G37*G36*
X030750Y055850D02*X030752Y055830D01*X030758Y055812D01*X030767Y055794D01*
X030779Y055779D01*X030794Y055767D01*X030812Y055758D01*X030830Y055752D01*
X030850Y055750D01*X031150Y055750D01*X031170Y055752D01*X031188Y055758D01*
X031206Y055767D01*X031221Y055779D01*X031233Y055794D01*X031242Y055812D01*
X031248Y055830D01*X031250Y055850D01*X031250Y056150D01*X031248Y056170D01*
X031242Y056188D01*X031233Y056206D01*X031221Y056221D01*X031206Y056233D01*
X031188Y056242D01*X031170Y056248D01*X031150Y056250D01*X030850Y056250D01*
X030830Y056248D01*X030812Y056242D01*X030794Y056233D01*X030779Y056221D01*
X030767Y056206D01*X030758Y056188D01*X030752Y056170D01*X030750Y056150D01*
X030750Y055850D01*G37*G36*X030750Y056850D02*X030752Y056830D01*X030758Y056812D01*
X030767Y056794D01*X030779Y056779D01*X030794Y056767D01*X030812Y056758D01*
X030830Y056752D01*X030850Y056750D01*X031150Y056750D01*X031170Y056752D01*
X031188Y056758D01*X031206Y056767D01*X031221Y056779D01*X031233Y056794D01*
X031242Y056812D01*X031248Y056830D01*X031250Y056850D01*X031250Y057150D01*
X031248Y057170D01*X031242Y057188D01*X031233Y057206D01*X031221Y057221D01*
X031206Y057233D01*X031188Y057242D01*X031170Y057248D01*X031150Y057250D01*
X030850Y057250D01*X030830Y057248D01*X030812Y057242D01*X030794Y057233D01*
X030779Y057221D01*X030767Y057206D01*X030758Y057188D01*X030752Y057170D01*
X030750Y057150D01*X030750Y056850D01*G37*G36*X037750Y055850D02*X037752Y055830D01*
X037758Y055812D01*X037767Y055794D01*X037779Y055779D01*X037794Y055767D01*
X037812Y055758D01*X037830Y055752D01*X037850Y055750D01*X038150Y055750D01*
X038170Y055752D01*X038188Y055758D01*X038206Y055767D01*X038221Y055779D01*
X038233Y055794D01*X038242Y055812D01*X038248Y055830D01*X038250Y055850D01*
X038250Y056150D01*X038248Y056170D01*X038242Y056188D01*X038233Y056206D01*
X038221Y056221D01*X038206Y056233D01*X038188Y056242D01*X038170Y056248D01*
X038150Y056250D01*X037850Y056250D01*X037830Y056248D01*X037812Y056242D01*
X037794Y056233D01*X037779Y056221D01*X037767Y056206D01*X037758Y056188D01*
X037752Y056170D01*X037750Y056150D01*X037750Y055850D01*G37*G36*X036750Y055850D02*
X036752Y055830D01*X036758Y055812D01*X036767Y055794D01*X036779Y055779D01*
X036794Y055767D01*X036812Y055758D01*X036830Y055752D01*X036850Y055750D01*
X037150Y055750D01*X037170Y055752D01*X037188Y055758D01*X037206Y055767D01*
X037221Y055779D01*X037233Y055794D01*X037242Y055812D01*X037248Y055830D01*
X037250Y055850D01*X037250Y056150D01*X037248Y056170D01*X037242Y056188D01*
X037233Y056206D01*X037221Y056221D01*X037206Y056233D01*X037188Y056242D01*
X037170Y056248D01*X037150Y056250D01*X036850Y056250D01*X036830Y056248D01*
X036812Y056242D01*X036794Y056233D01*X036779Y056221D01*X036767Y056206D01*
X036758Y056188D01*X036752Y056170D01*X036750Y056150D01*X036750Y055850D01*G37*G36*
X037750Y057850D02*X037752Y057830D01*X037758Y057812D01*X037767Y057794D01*
X037779Y057779D01*X037794Y057767D01*X037812Y057758D01*X037830Y057752D01*
X037850Y057750D01*X038150Y057750D01*X038170Y057752D01*X038188Y057758D01*
X038206Y057767D01*X038221Y057779D01*X038233Y057794D01*X038242Y057812D01*
X038248Y057830D01*X038250Y057850D01*X038250Y058150D01*X038248Y058170D01*
X038242Y058188D01*X038233Y058206D01*X038221Y058221D01*X038206Y058233D01*
X038188Y058242D01*X038170Y058248D01*X038150Y058250D01*X037850Y058250D01*
X037830Y058248D01*X037812Y058242D01*X037794Y058233D01*X037779Y058221D01*
X037767Y058206D01*X037758Y058188D01*X037752Y058170D01*X037750Y058150D01*
X037750Y057850D01*G37*G36*X036750Y057850D02*X036752Y057830D01*X036758Y057812D01*
X036767Y057794D01*X036779Y057779D01*X036794Y057767D01*X036812Y057758D01*
X036830Y057752D01*X036850Y057750D01*X037150Y057750D01*X037170Y057752D01*
X037188Y057758D01*X037206Y057767D01*X037221Y057779D01*X037233Y057794D01*
X037242Y057812D01*X037248Y057830D01*X037250Y057850D01*X037250Y058150D01*
X037248Y058170D01*X037242Y058188D01*X037233Y058206D01*X037221Y058221D01*
X037206Y058233D01*X037188Y058242D01*X037170Y058248D01*X037150Y058250D01*
X036850Y058250D01*X036830Y058248D01*X036812Y058242D01*X036794Y058233D01*
X036779Y058221D01*X036767Y058206D01*X036758Y058188D01*X036752Y058170D01*
X036750Y058150D01*X036750Y057850D01*G37*G36*X046750Y054850D02*X046752Y054830D01*
X046758Y054812D01*X046767Y054794D01*X046779Y054779D01*X046794Y054767D01*
X046812Y054758D01*X046830Y054752D01*X046850Y054750D01*X047150Y054750D01*
X047170Y054752D01*X047188Y054758D01*X047206Y054767D01*X047221Y054779D01*
X047233Y054794D01*X047242Y054812D01*X047248Y054830D01*X047250Y054850D01*
X047250Y055150D01*X047248Y055170D01*X047242Y055188D01*X047233Y055206D01*
X047221Y055221D01*X047206Y055233D01*X047188Y055242D01*X047170Y055248D01*
X047150Y055250D01*X046850Y055250D01*X046830Y055248D01*X046812Y055242D01*
X046794Y055233D01*X046779Y055221D01*X046767Y055206D01*X046758Y055188D01*
X046752Y055170D01*X046750Y055150D01*X046750Y054850D01*G37*G36*X017750Y058850D02*
X017752Y058830D01*X017758Y058812D01*X017767Y058794D01*X017779Y058779D01*
X017794Y058767D01*X017812Y058758D01*X017830Y058752D01*X017850Y058750D01*
X018150Y058750D01*X018170Y058752D01*X018188Y058758D01*X018206Y058767D01*
X018221Y058779D01*X018233Y058794D01*X018242Y058812D01*X018248Y058830D01*
X018250Y058850D01*X018250Y059150D01*X018248Y059170D01*X018242Y059188D01*
X018233Y059206D01*X018221Y059221D01*X018206Y059233D01*X018188Y059242D01*
X018170Y059248D01*X018150Y059250D01*X017850Y059250D01*X017830Y059248D01*
X017812Y059242D01*X017794Y059233D01*X017779Y059221D01*X017767Y059206D01*
X017758Y059188D01*X017752Y059170D01*X017750Y059150D01*X017750Y058850D01*G37*G36*
X021750Y062850D02*X021752Y062830D01*X021758Y062812D01*X021767Y062794D01*
X021779Y062779D01*X021794Y062767D01*X021812Y062758D01*X021830Y062752D01*
X021850Y062750D01*X022150Y062750D01*X022170Y062752D01*X022188Y062758D01*
X022206Y062767D01*X022221Y062779D01*X022233Y062794D01*X022242Y062812D01*
X022248Y062830D01*X022250Y062850D01*X022250Y063150D01*X022248Y063170D01*
X022242Y063188D01*X022233Y063206D01*X022221Y063221D01*X022206Y063233D01*
X022188Y063242D01*X022170Y063248D01*X022150Y063250D01*X021850Y063250D01*
X021830Y063248D01*X021812Y063242D01*X021794Y063233D01*X021779Y063221D01*
X021767Y063206D01*X021758Y063188D01*X021752Y063170D01*X021750Y063150D01*
X021750Y062850D01*G37*G36*X020750Y062850D02*X020752Y062830D01*X020758Y062812D01*
X020767Y062794D01*X020779Y062779D01*X020794Y062767D01*X020812Y062758D01*
X020830Y062752D01*X020850Y062750D01*X021150Y062750D01*X021170Y062752D01*
X021188Y062758D01*X021206Y062767D01*X021221Y062779D01*X021233Y062794D01*
X021242Y062812D01*X021248Y062830D01*X021250Y062850D01*X021250Y063150D01*
X021248Y063170D01*X021242Y063188D01*X021233Y063206D01*X021221Y063221D01*
X021206Y063233D01*X021188Y063242D01*X021170Y063248D01*X021150Y063250D01*
X020850Y063250D01*X020830Y063248D01*X020812Y063242D01*X020794Y063233D01*
X020779Y063221D01*X020767Y063206D01*X020758Y063188D01*X020752Y063170D01*
X020750Y063150D01*X020750Y062850D01*
G37*G36*X021750Y063850D02*X021752Y063830D01*
X021758Y063812D01*X021767Y063794D01*X021779Y063779D01*X021794Y063767D01*
X021812Y063758D01*X021830Y063752D01*X021850Y063750D01*X022150Y063750D01*
X022170Y063752D01*X022188Y063758D01*X022206Y063767D01*X022221Y063779D01*
X022233Y063794D01*X022242Y063812D01*X022248Y063830D01*X022250Y063850D01*
X022250Y064150D01*X022248Y064170D01*X022242Y064188D01*X022233Y064206D01*
X022221Y064221D01*X022206Y064233D01*X022188Y064242D01*X022170Y064248D01*
X022150Y064250D01*X021850Y064250D01*X021830Y064248D01*X021812Y064242D01*
X021794Y064233D01*X021779Y064221D01*X021767Y064206D01*X021758Y064188D01*
X021752Y064170D01*X021750Y064150D01*X021750Y063850D01*G37*G36*X021750Y064850D02*
X021752Y064830D01*X021758Y064812D01*X021767Y064794D01*X021779Y064779D01*
X021794Y064767D01*X021812Y064758D01*X021830Y064752D01*X021850Y064750D01*
X022150Y064750D01*X022170Y064752D01*X022188Y064758D01*X022206Y064767D01*
X022221Y064779D01*X022233Y064794D01*X022242Y064812D01*X022248Y064830D01*
X022250Y064850D01*X022250Y065150D01*X022248Y065170D01*X022242Y065188D01*
X022233Y065206D01*X022221Y065221D01*X022206Y065233D01*X022188Y065242D01*
X022170Y065248D01*X022150Y065250D01*X021850Y065250D01*X021830Y065248D01*
X021812Y065242D01*X021794Y065233D01*X021779Y065221D01*X021767Y065206D01*
X021758Y065188D01*X021752Y065170D01*X021750Y065150D01*X021750Y064850D01*G37*G36*
X049750Y065850D02*X049752Y065830D01*X049758Y065812D01*X049767Y065794D01*
X049779Y065779D01*X049794Y065767D01*X049812Y065758D01*X049830Y065752D01*
X049850Y065750D01*X050150Y065750D01*X050170Y065752D01*X050188Y065758D01*
X050206Y065767D01*X050221Y065779D01*X050233Y065794D01*X050242Y065812D01*
X050248Y065830D01*X050250Y065850D01*X050250Y066150D01*X050248Y066170D01*
X050242Y066188D01*X050233Y066206D01*X050221Y066221D01*X050206Y066233D01*
X050188Y066242D01*X050170Y066248D01*X050150Y066250D01*X049850Y066250D01*
X049830Y066248D01*X049812Y066242D01*X049794Y066233D01*X049779Y066221D01*
X049767Y066206D01*X049758Y066188D01*X049752Y066170D01*X049750Y066150D01*
X049750Y065850D01*G37*G36*X049750Y064850D02*X049752Y064830D01*X049758Y064812D01*
X049767Y064794D01*X049779Y064779D01*X049794Y064767D01*X049812Y064758D01*
X049830Y064752D01*X049850Y064750D01*X050150Y064750D01*X050170Y064752D01*
X050188Y064758D01*X050206Y064767D01*X050221Y064779D01*X050233Y064794D01*
X050242Y064812D01*X050248Y064830D01*X050250Y064850D01*X050250Y065150D01*
X050248Y065170D01*X050242Y065188D01*X050233Y065206D01*X050221Y065221D01*
X050206Y065233D01*X050188Y065242D01*X050170Y065248D01*X050150Y065250D01*
X049850Y065250D01*X049830Y065248D01*X049812Y065242D01*X049794Y065233D01*
X049779Y065221D01*X049767Y065206D01*X049758Y065188D01*X049752Y065170D01*
X049750Y065150D01*X049750Y064850D01*G37*G36*X021750Y070850D02*X021752Y070830D01*
X021758Y070812D01*X021767Y070794D01*X021779Y070779D01*X021794Y070767D01*
X021812Y070758D01*X021830Y070752D01*X021850Y070750D01*X022150Y070750D01*
X022170Y070752D01*X022188Y070758D01*X022206Y070767D01*X022221Y070779D01*
X022233Y070794D01*X022242Y070812D01*X022248Y070830D01*X022250Y070850D01*
X022250Y071150D01*X022248Y071170D01*X022242Y071188D01*X022233Y071206D01*
X022221Y071221D01*X022206Y071233D01*X022188Y071242D01*X022170Y071248D01*
X022150Y071250D01*X021850Y071250D01*X021830Y071248D01*X021812Y071242D01*
X021794Y071233D01*X021779Y071221D01*X021767Y071206D01*X021758Y071188D01*
X021752Y071170D01*X021750Y071150D01*X021750Y070850D01*G37*G36*X020750Y070850D02*
X020752Y070830D01*X020758Y070812D01*X020767Y070794D01*X020779Y070779D01*
X020794Y070767D01*X020812Y070758D01*X020830Y070752D01*X020850Y070750D01*
X021150Y070750D01*X021170Y070752D01*X021188Y070758D01*X021206Y070767D01*
X021221Y070779D01*X021233Y070794D01*X021242Y070812D01*X021248Y070830D01*
X021250Y070850D01*X021250Y071150D01*X021248Y071170D01*X021242Y071188D01*
X021233Y071206D01*X021221Y071221D01*X021206Y071233D01*X021188Y071242D01*
X021170Y071248D01*X021150Y071250D01*X020850Y071250D01*X020830Y071248D01*
X020812Y071242D01*X020794Y071233D01*X020779Y071221D01*X020767Y071206D01*
X020758Y071188D01*X020752Y071170D01*X020750Y071150D01*X020750Y070850D01*G37*G36*
X023750Y070850D02*X023752Y070830D01*X023758Y070812D01*X023767Y070794D01*
X023779Y070779D01*X023794Y070767D01*X023812Y070758D01*X023830Y070752D01*
X023850Y070750D01*X024150Y070750D01*X024170Y070752D01*X024188Y070758D01*
X024206Y070767D01*X024221Y070779D01*X024233Y070794D01*X024242Y070812D01*
X024248Y070830D01*X024250Y070850D01*X024250Y071150D01*X024248Y071170D01*
X024242Y071188D01*X024233Y071206D01*X024221Y071221D01*X024206Y071233D01*
X024188Y071242D01*X024170Y071248D01*X024150Y071250D01*X023850Y071250D01*
X023830Y071248D01*X023812Y071242D01*X023794Y071233D01*X023779Y071221D01*
X023767Y071206D01*X023758Y071188D01*X023752Y071170D01*X023750Y071150D01*
X023750Y070850D01*G37*G36*X022750Y070850D02*X022752Y070830D01*X022758Y070812D01*
X022767Y070794D01*X022779Y070779D01*X022794Y070767D01*X022812Y070758D01*
X022830Y070752D01*X022850Y070750D01*X023150Y070750D01*X023170Y070752D01*
X023188Y070758D01*X023206Y070767D01*X023221Y070779D01*X023233Y070794D01*
X023242Y070812D01*X023248Y070830D01*X023250Y070850D01*X023250Y071150D01*
X023248Y071170D01*X023242Y071188D01*X023233Y071206D01*X023221Y071221D01*
X023206Y071233D01*X023188Y071242D01*X023170Y071248D01*X023150Y071250D01*
X022850Y071250D01*X022830Y071248D01*X022812Y071242D01*X022794Y071233D01*
X022779Y071221D01*X022767Y071206D01*X022758Y071188D01*X022752Y071170D01*
X022750Y071150D01*X022750Y070850D01*G37*G36*X030750Y069850D02*X030752Y069830D01*
X030758Y069812D01*X030767Y069794D01*X030779Y069779D01*X030794Y069767D01*
X030812Y069758D01*X030830Y069752D01*X030850Y069750D01*X031150Y069750D01*
X031170Y069752D01*X031188Y069758D01*X031206Y069767D01*X031221Y069779D01*
X031233Y069794D01*X031242Y069812D01*X031248Y069830D01*X031250Y069850D01*
X031250Y070150D01*X031248Y070170D01*X031242Y070188D01*X031233Y070206D01*
X031221Y070221D01*X031206Y070233D01*X031188Y070242D01*X031170Y070248D01*
X031150Y070250D01*X030850Y070250D01*X030830Y070248D01*X030812Y070242D01*
X030794Y070233D01*X030779Y070221D01*X030767Y070206D01*X030758Y070188D01*
X030752Y070170D01*X030750Y070150D01*X030750Y069850D01*G37*G36*X031750Y069850D02*
X031752Y069830D01*X031758Y069812D01*X031767Y069794D01*X031779Y069779D01*
X031794Y069767D01*X031812Y069758D01*X031830Y069752D01*X031850Y069750D01*
X032150Y069750D01*X032170Y069752D01*X032188Y069758D01*X032206Y069767D01*
X032221Y069779D01*X032233Y069794D01*X032242Y069812D01*X032248Y069830D01*
X032250Y069850D01*X032250Y070150D01*X032248Y070170D01*X032242Y070188D01*
X032233Y070206D01*X032221Y070221D01*X032206Y070233D01*X032188Y070242D01*
X032170Y070248D01*X032150Y070250D01*X031850Y070250D01*X031830Y070248D01*
X031812Y070242D01*X031794Y070233D01*X031779Y070221D01*X031767Y070206D01*
X031758Y070188D01*X031752Y070170D01*X031750Y070150D01*X031750Y069850D01*
G37*G36*
X033750Y069850D02*X033752Y069830D01*X033758Y069812D01*X033767Y069794D01*
X033779Y069779D01*X033794Y069767D01*X033812Y069758D01*X033830Y069752D01*
X033850Y069750D01*X034150Y069750D01*X034170Y069752D01*X034188Y069758D01*
X034206Y069767D01*X034221Y069779D01*X034233Y069794D01*X034242Y069812D01*
X034248Y069830D01*X034250Y069850D01*X034250Y070150D01*X034248Y070170D01*
X034242Y070188D01*X034233Y070206D01*X034221Y070221D01*X034206Y070233D01*
X034188Y070242D01*X034170Y070248D01*X034150Y070250D01*X033850Y070250D01*
X033830Y070248D01*X033812Y070242D01*X033794Y070233D01*X033779Y070221D01*
X033767Y070206D01*X033758Y070188D01*X033752Y070170D01*X033750Y070150D01*
X033750Y069850D01*G37*G36*X032750Y069850D02*X032752Y069830D01*X032758Y069812D01*
X032767Y069794D01*X032779Y069779D01*X032794Y069767D01*X032812Y069758D01*
X032830Y069752D01*X032850Y069750D01*X033150Y069750D01*X033170Y069752D01*
X033188Y069758D01*X033206Y069767D01*X033221Y069779D01*X033233Y069794D01*
X033242Y069812D01*X033248Y069830D01*X033250Y069850D01*X033250Y070150D01*
X033248Y070170D01*X033242Y070188D01*X033233Y070206D01*X033221Y070221D01*
X033206Y070233D01*X033188Y070242D01*X033170Y070248D01*X033150Y070250D01*
X032850Y070250D01*X032830Y070248D01*X032812Y070242D01*X032794Y070233D01*
X032779Y070221D01*X032767Y070206D01*X032758Y070188D01*X032752Y070170D01*
X032750Y070150D01*X032750Y069850D01*G37*G36*X009750Y074850D02*X009752Y074830D01*
X009758Y074812D01*X009767Y074794D01*X009779Y074779D01*X009794Y074767D01*
X009812Y074758D01*X009830Y074752D01*X009850Y074750D01*X010150Y074750D01*
X010170Y074752D01*X010188Y074758D01*X010206Y074767D01*X010221Y074779D01*
X010233Y074794D01*X010242Y074812D01*X010248Y074830D01*X010250Y074850D01*
X010250Y075150D01*X010248Y075170D01*X010242Y075188D01*X010233Y075206D01*
X010221Y075221D01*X010206Y075233D01*X010188Y075242D01*X010170Y075248D01*
X010150Y075250D01*X009850Y075250D01*X009830Y075248D01*X009812Y075242D01*
X009794Y075233D01*X009779Y075221D01*X009767Y075206D01*X009758Y075188D01*
X009752Y075170D01*X009750Y075150D01*X009750Y074850D01*G37*G36*X010750Y074850D02*
X010752Y074830D01*X010758Y074812D01*X010767Y074794D01*X010779Y074779D01*
X010794Y074767D01*X010812Y074758D01*X010830Y074752D01*X010850Y074750D01*
X011150Y074750D01*X011170Y074752D01*X011188Y074758D01*X011206Y074767D01*
X011221Y074779D01*X011233Y074794D01*X011242Y074812D01*X011248Y074830D01*
X011250Y074850D01*X011250Y075150D01*X011248Y075170D01*X011242Y075188D01*
X011233Y075206D01*X011221Y075221D01*X011206Y075233D01*X011188Y075242D01*
X011170Y075248D01*X011150Y075250D01*X010850Y075250D01*X010830Y075248D01*
X010812Y075242D01*X010794Y075233D01*X010779Y075221D01*X010767Y075206D01*
X010758Y075188D01*X010752Y075170D01*X010750Y075150D01*X010750Y074850D01*G37*G36*
X012750Y074850D02*X012752Y074830D01*X012758Y074812D01*X012767Y074794D01*
X012779Y074779D01*X012794Y074767D01*X012812Y074758D01*X012830Y074752D01*
X012850Y074750D01*X013150Y074750D01*X013170Y074752D01*X013188Y074758D01*
X013206Y074767D01*X013221Y074779D01*X013233Y074794D01*X013242Y074812D01*
X013248Y074830D01*X013250Y074850D01*X013250Y075150D01*X013248Y075170D01*
X013242Y075188D01*X013233Y075206D01*X013221Y075221D01*X013206Y075233D01*
X013188Y075242D01*X013170Y075248D01*X013150Y075250D01*X012850Y075250D01*
X012830Y075248D01*X012812Y075242D01*X012794Y075233D01*X012779Y075221D01*
X012767Y075206D01*X012758Y075188D01*X012752Y075170D01*X012750Y075150D01*
X012750Y074850D01*G37*G36*X011750Y074850D02*X011752Y074830D01*X011758Y074812D01*
X011767Y074794D01*X011779Y074779D01*X011794Y074767D01*X011812Y074758D01*
X011830Y074752D01*X011850Y074750D01*X012150Y074750D01*X012170Y074752D01*
X012188Y074758D01*X012206Y074767D01*X012221Y074779D01*X012233Y074794D01*
X012242Y074812D01*X012248Y074830D01*X012250Y074850D01*X012250Y075150D01*
X012248Y075170D01*X012242Y075188D01*X012233Y075206D01*X012221Y075221D01*
X012206Y075233D01*X012188Y075242D01*X012170Y075248D01*X012150Y075250D01*
X011850Y075250D01*X011830Y075248D01*X011812Y075242D01*X011794Y075233D01*
X011779Y075221D01*X011767Y075206D01*X011758Y075188D01*X011752Y075170D01*
X011750Y075150D01*X011750Y074850D01*G37*G36*X017716Y083296D02*X017716Y083394D01*
X017740Y083394D01*X017740Y083543D01*X017765Y083543D01*X017765Y083567D01*
X018259Y083567D01*X018259Y083493D01*X018259Y083444D01*X018234Y083444D01*
X018234Y083394D01*X018259Y083394D01*X018259Y083370D01*X018308Y083370D01*
X018308Y083345D01*X018382Y083345D01*X018382Y083320D01*X020456Y083320D01*
X020456Y083296D01*X020407Y083296D01*X020407Y083271D01*X020382Y083271D01*
X020382Y083246D01*X020333Y083246D01*X020333Y083222D01*X020308Y083222D01*
X020308Y083197D01*X020259Y083197D01*X020259Y083172D01*X020234Y083172D01*
X020234Y083148D01*X020185Y083148D01*X020185Y083123D01*X020160Y083123D01*
X020160Y083098D01*X018135Y083098D01*X018135Y083123D01*X017963Y083123D01*
X017963Y083148D01*X017889Y083148D01*X017889Y083172D01*X017815Y083172D01*
X017815Y083197D01*X017790Y083197D01*X017790Y083222D01*X017765Y083222D01*
X017765Y083246D01*X017740Y083246D01*X017740Y083296D01*X017716Y083296D01*G37*G36*
X017765Y083567D02*X017765Y083666D01*X017790Y083666D01*X017790Y083789D01*
X017815Y083789D01*X017815Y083913D01*X017839Y083913D01*X017839Y084036D01*
X017864Y084036D01*X017864Y084135D01*X017889Y084135D01*X017889Y084184D01*
X017913Y084184D01*X017913Y084209D01*X017938Y084209D01*X017938Y084234D01*
X017987Y084234D01*X017987Y084259D01*X018086Y084259D01*X018086Y084283D01*
X019691Y084283D01*X019691Y084259D01*X019740Y084259D01*X019740Y084234D01*
X019790Y084234D01*X019790Y084184D01*X019814Y084184D01*X019814Y084012D01*
X019790Y084012D01*X019790Y083839D01*X019765Y083839D01*X019765Y083814D01*
X019271Y083814D01*X019271Y083888D01*X019296Y083888D01*X019296Y084036D01*
X019271Y084036D01*X019271Y084061D01*X018456Y084061D01*X018456Y084036D01*
X018407Y084036D01*X018407Y084012D01*X018382Y084012D01*X018382Y083987D01*
X018358Y083987D01*X018358Y083962D01*X018333Y083962D01*X018333Y083888D01*
X018308Y083888D01*X018308Y083814D01*X019765Y083814D01*X019765Y083765D01*
X019765Y083715D01*X019740Y083715D01*X019740Y083666D01*X019716Y083666D01*
X019716Y083641D01*X019691Y083641D01*X019691Y083617D01*X019641Y083617D01*
X019641Y083592D01*X019543Y083592D01*X019543Y083567D01*X017765Y083567D01*G37*G36*
X003100Y083731D02*X003125Y083731D01*X003125Y083657D01*X003149Y083657D01*
X003149Y083607D01*X003174Y083607D01*X003174Y083558D01*X003199Y083558D01*
X003199Y083508D01*X003224Y083508D01*X003224Y083484D01*X003248Y083484D01*
X003248Y083434D01*X003273Y083434D01*X003273Y083410D01*X003298Y083410D01*
X003298Y083385D01*X003322Y083385D01*X003322Y083360D01*X003347Y083360D01*
X003347Y083336D01*X003372Y083336D01*X003372Y083311D01*X003396Y083311D01*
X003396Y083286D01*X003446Y083286D01*X003446Y083262D01*X003470Y083262D01*
X003470Y083237D01*X003495Y083237D01*X003495Y083212D01*X003544Y083212D01*
X003544Y083188D01*X003569Y083188D01*X003569Y083163D01*X003618Y083163D01*
X003618Y083138D01*X003643Y083138D01*X003643Y083114D01*X003692Y083114D01*
X003692Y083089D01*X003717Y083089D01*X003717Y083064D01*X003767Y083064D01*
X003767Y083039D01*X003816Y083039D01*X003816Y083015D01*X003866Y083015D01*
X003866Y082990D01*X003914Y082990D01*X003914Y082965D01*X003964Y082965D01*
X003964Y082940D01*X004013Y082940D01*X004013Y082916D01*X004062Y082916D01*
X004062Y082891D01*X004112Y082891D01*X004112Y082866D01*X004162Y082866D01*
X004162Y082842D01*X004235Y082842D01*X004235Y082817D01*X004260Y082817D01*
X004260Y082792D01*X004335Y082792D01*X004335Y082768D01*X004384Y082768D01*
X004384Y082743D01*X004433Y082743D01*X004433Y082718D01*X004482Y082718D01*
X004482Y082694D01*X004532Y082694D01*X004532Y082743D01*X004508Y082743D01*
X004508Y083016D01*X004532Y083016D01*X004532Y083113D01*X004556Y083113D01*
X004556Y083188D01*X004582Y083188D01*X004582Y083262D01*X004606Y083262D01*
X004606Y083311D01*X004632Y083311D01*X004632Y083385D01*X004656Y083385D01*
X004656Y083434D01*X004680Y083434D01*X004680Y083459D01*X004706Y083459D01*
X004706Y083509D01*X004730Y083509D01*X004730Y083558D01*X004754Y083558D01*
X004754Y083607D01*X004779Y083607D01*X004779Y083657D01*X004804Y083657D01*
X004804Y083682D01*X004828Y083682D01*X004828Y083731D01*X004852Y083731D01*
X004852Y083756D01*X004878Y083756D01*X004878Y083804D01*X004902Y083804D01*
X004902Y083830D01*X004927Y083830D01*X004927Y083879D01*X004952Y083879D01*
X004952Y083904D01*X004976Y083904D01*X004976Y083953D01*X005000Y083953D01*
X005000Y084002D01*X005025Y084002D01*X005025Y084027D01*X005051Y084027D01*
X005051Y084076D01*X005075Y084076D01*X005075Y084101D01*X005100Y084101D01*
X005100Y084150D01*X005125Y084150D01*X005125Y084175D01*X005150Y084175D01*
X005150Y084224D01*X005174Y084224D01*X005174Y084274D01*X005198Y084274D01*
X005198Y084298D01*X005224Y084298D01*X005224Y084348D01*X005248Y084348D01*
X005248Y084398D01*X005273Y084398D01*X005273Y084446D01*X005298Y084446D01*
X005298Y084472D01*X004606Y084472D01*X004606Y084447D01*X004581Y084447D01*
X004581Y084471D01*X004557Y084471D01*X004557Y084446D01*X004360Y084446D01*
X004360Y084422D01*X004188Y084422D01*X004188Y084398D01*X004088Y084398D01*
X004088Y084373D01*X003988Y084373D01*X003988Y084348D01*X003915Y084348D01*
X003915Y084323D01*X003866Y084323D01*X003866Y084300D01*X003790Y084300D01*
X003790Y084273D01*X003742Y084273D01*X003742Y084249D01*X003692Y084249D01*
X003692Y084224D01*X003667Y084224D01*X003667Y084200D01*X003618Y084200D01*
X003618Y084175D01*X003592Y084175D01*X003592Y084150D01*X003569Y084150D01*
X003569Y084126D01*X003544Y084126D01*X003544Y084102D01*X003520Y084102D01*
X003520Y084076D01*X003495Y084076D01*X003495Y084125D01*X003520Y084125D01*
X003520Y084150D01*X003545Y084150D01*X003545Y084200D01*X003569Y084200D01*
X003569Y084224D01*X003593Y084224D01*X003593Y084250D01*X003618Y084250D01*
X003618Y084274D01*X003644Y084274D01*X003644Y084298D01*X003668Y084298D01*
X003668Y084324D01*X003693Y084324D01*X003693Y084347D01*X003742Y084347D01*
X003742Y084372D01*X003767Y084372D01*X003767Y084397D01*X003791Y084397D01*
X003791Y084421D01*X003841Y084421D01*X003841Y084446D01*X003866Y084446D01*
X003866Y084471D01*X003915Y084471D01*X003915Y084496D01*X003964Y084496D01*
X003964Y084521D01*X004014Y084521D01*X004014Y084545D01*X004088Y084545D01*
X004088Y084570D01*X004137Y084570D01*X004137Y084595D01*X004211Y084595D01*
X004211Y084620D01*X004286Y084620D01*X004286Y084644D01*X004360Y084644D01*
X004360Y084669D01*X004458Y084669D01*X004458Y084693D01*X004557Y084693D01*
X004557Y084718D01*X004680Y084718D01*X004680Y084743D01*X004828Y084743D01*
X004828Y084767D01*X005050Y084767D01*X005050Y084792D01*X005693Y084792D01*
X005693Y084817D01*X005889Y084817D01*X005889Y084841D01*X005989Y084841D01*
X005989Y084866D01*X006063Y084866D01*X006063Y084891D01*X006138Y084891D01*
X006138Y084916D01*X006285Y084916D01*X006285Y084891D01*X006310Y084891D01*
X006310Y084866D01*X006334Y084866D01*X006334Y084792D01*X006310Y084792D01*
X006310Y084718D01*X006285Y084718D01*X006285Y084669D01*X006260Y084669D01*
X006260Y084619D01*X006235Y084619D01*X006235Y084595D01*X006211Y084595D01*
X006211Y084546D01*X006186Y084546D01*X006186Y084521D01*X006161Y084521D01*
X006161Y084472D01*X006136Y084472D01*X006136Y084447D01*X006112Y084447D01*
X006112Y084398D01*X006088Y084398D01*X006088Y084372D01*X006062Y084372D01*
X006062Y084323D01*X006038Y084323D01*X006038Y084299D01*X006013Y084299D01*
X006013Y084274D01*X005989Y084274D01*X005989Y084249D01*X005964Y084249D01*
X005964Y084200D01*X005939Y084200D01*X005939Y084176D01*X005915Y084176D01*
X005915Y084151D01*X005890Y084151D01*X005890Y084101D01*X005865Y084101D01*
X005865Y084077D01*X005840Y084077D01*X005840Y084052D01*X005816Y084052D01*
X005816Y084002D01*X005791Y084002D01*X005791Y083978D01*X005766Y083978D01*
X005766Y083953D01*X005742Y083953D01*X005742Y083928D01*X005717Y083928D01*
X005717Y083879D01*X005692Y083879D01*X005692Y083854D01*X005668Y083854D01*
X005668Y083829D01*X005643Y083829D01*X005643Y083805D01*X005618Y083805D01*
X005618Y083755D01*X005594Y083755D01*X005594Y083731D01*X005569Y083731D01*
X005569Y083706D01*X005544Y083706D01*X005544Y083657D01*X005520Y083657D01*
X005520Y083632D01*X005495Y083632D01*X005495Y083608D01*X005470Y083608D01*
X005470Y083558D01*X005445Y083558D01*X005445Y083533D01*X005421Y083533D01*
X005421Y083508D01*X005396Y083508D01*X005396Y083459D01*X005371Y083459D01*
X005371Y083434D01*X005346Y083434D01*X005346Y083385D01*X005322Y083385D01*
X005322Y083360D01*X005297Y083360D01*X005297Y083311D01*X005273Y083311D01*
X005273Y083286D01*X005248Y083286D01*X005248Y083237D01*X005223Y083237D01*
X005223Y083188D01*X005199Y083188D01*X005199Y083138D01*X005174Y083138D01*
X005174Y083089D01*X005150Y083089D01*X005150Y083040D01*X005125Y083040D01*
X005125Y082990D01*X005100Y082990D01*X005100Y082916D01*X005075Y082916D01*
X005075Y082743D01*X005100Y082743D01*X005100Y082694D01*X005125Y082694D01*
X005125Y082669D01*X005346Y082669D01*X005346Y082694D01*X005421Y082694D01*
X005421Y082719D01*X005470Y082719D01*X005470Y082742D01*X005495Y082742D01*
X005495Y082769D01*X005520Y082769D01*X005520Y082793D01*X005544Y082793D01*
X005544Y082817D01*X005570Y082817D01*X005570Y082842D01*X005594Y082842D01*
X005594Y082866D01*X005619Y082866D01*X005619Y082916D01*X005643Y082916D01*
X005643Y082941D01*X005668Y082941D01*X005668Y082966D01*X005716Y082966D01*
X005716Y082990D01*X005766Y082990D01*X005766Y083014D01*X005865Y083014D01*
X005865Y082990D01*X005914Y082990D01*X005914Y082940D01*X005939Y082940D01*
X005939Y082744D01*X005915Y082744D01*X005915Y082694D01*X005890Y082694D01*
X005890Y082669D01*X005865Y082669D01*X005865Y082645D01*X005840Y082645D01*
X005840Y082620D01*X005815Y082620D01*X005815Y082595D01*X005791Y082595D01*
X005791Y082570D01*X005766Y082570D01*X005766Y082546D01*X005717Y082546D01*
X005717Y082520D01*X005692Y082520D01*X005692Y082496D01*X005643Y082496D01*
X005643Y082471D01*X005594Y082471D01*X005594Y082447D01*X005519Y082447D01*
X005519Y082422D01*X005446Y082422D01*X005446Y082398D01*X005347Y082398D01*
X005347Y082373D01*X005445Y082373D01*X005445Y082347D01*X005618Y082347D01*
X005618Y082324D01*X005840Y082324D01*X005840Y082348D01*X006014Y082348D01*
X006014Y082372D01*X006087Y082372D01*X006087Y082398D01*X006162Y082398D01*
X006162Y082422D01*X006211Y082422D01*X006211Y082447D01*X006260Y082447D01*
X006260Y082472D01*X006285Y082472D01*X006285Y082497D01*X006334Y082497D01*
X006334Y082520D01*X006359Y082520D01*X006359Y082546D01*X006409Y082546D01*
X006409Y082570D01*X006432Y082570D01*X006432Y082595D01*X006458Y082595D01*
X006458Y082619D01*X006483Y082619D01*X006483Y082644D01*X006507Y082644D01*
X006507Y082669D01*X006532Y082669D01*X006532Y082693D01*X006557Y082693D01*
X006557Y082718D01*X006581Y082718D01*X006581Y082768D01*X006606Y082768D01*
X006606Y082793D01*X006631Y082793D01*X006631Y082817D01*X006655Y082817D01*
X006655Y082866D01*X006680Y082866D01*X006680Y082916D01*X006705Y082916D01*
X006705Y082965D01*X006729Y082965D01*X006729Y082990D01*X006754Y082990D01*
X006754Y083064D01*X006778Y083064D01*X006778Y083114D01*X006803Y083114D01*
X006803Y083163D01*X006828Y083163D01*X006828Y083212D01*X006852Y083212D01*
X006852Y083286D01*X006878Y083286D01*X006878Y083336D01*X006902Y083336D01*
X006902Y083409D01*X006927Y083409D01*X006927Y083482D01*X006952Y083482D01*
X006952Y083532D01*X006976Y083532D01*X006976Y083608D01*X007001Y083608D01*
X007001Y083682D01*X007025Y083682D01*X007025Y083730D01*X007050Y083730D01*
X007050Y083805D01*X007075Y083805D01*X007075Y083879D01*X007100Y083879D01*
X007100Y083978D01*X007124Y083978D01*X007124Y084052D01*X007148Y084052D01*
X007148Y084151D01*X007174Y084151D01*X007174Y084274D01*X007199Y084274D01*
X007199Y084421D01*X007223Y084421D01*X007223Y084966D01*X007198Y084966D01*
X007198Y085064D01*X007174Y085064D01*X007174Y085162D01*X007149Y085162D01*
X007149Y085211D01*X007124Y085211D01*X007124Y085286D01*X007100Y085286D01*
X007100Y085311D01*X007075Y085311D01*X007075Y085360D01*X007050Y085360D01*
X007050Y085385D01*X007026Y085385D01*X007026Y085410D01*X007001Y085410D01*
X007001Y085459D01*X006976Y085459D01*X006976Y085484D01*X006951Y085484D01*
X006951Y085508D01*X006901Y085508D01*X006901Y085533D01*X006876Y085533D01*
X006876Y085557D01*X006853Y085557D01*X006853Y085582D01*X006805Y085582D01*
X006805Y085607D01*X006755Y085607D01*X006755Y085631D01*X006681Y085631D01*
X006681Y085657D01*X006630Y085657D01*X006630Y085533D01*X006605Y085533D01*
X006605Y085484D01*X006581Y085484D01*X006581Y085434D01*X006556Y085434D01*
X006556Y085384D01*X006532Y085384D01*X006532Y085361D01*X006507Y085361D01*
X006507Y085336D01*X006482Y085336D01*X006482Y085310D01*X006458Y085310D01*
X006458Y085286D01*X006434Y085286D01*X006434Y085261D01*X006384Y085261D01*
X006384Y085236D01*X006334Y085236D01*X006334Y085212D01*X006236Y085212D01*
X006236Y085187D01*X006062Y085187D01*X006062Y085212D01*X005988Y085212D01*
X005988Y085236D01*X005939Y085236D01*X005939Y085262D01*X005915Y085262D01*
X005915Y085286D01*X005890Y085286D01*X005890Y085311D01*X005865Y085311D01*
X005865Y085336D01*X005841Y085336D01*X005841Y085385D01*X005816Y085385D01*
X005816Y085582D01*X005840Y085582D01*X005840Y085632D01*X005866Y085632D01*
X005866Y085681D01*X005717Y085681D01*X005717Y085656D01*X005594Y085656D01*
X005594Y085632D01*X005495Y085632D01*X005495Y085607D01*X005396Y085607D01*
X005396Y085582D01*X005322Y085582D01*X005322Y085558D01*X005223Y085558D01*
X005223Y085533D01*X005149Y085533D01*X005149Y085508D01*X005075Y085508D01*
X005075Y085484D01*X005026Y085484D01*X005026Y085459D01*X004952Y085459D01*
X004952Y085434D01*X004902Y085434D01*X004902Y085410D01*X004828Y085410D01*
X004828Y085385D01*X004779Y085385D01*X004779Y085360D01*X004730Y085360D01*
X004730Y085336D01*X004680Y085336D01*X004680Y085311D01*X004630Y085311D01*
X004630Y085286D01*X004557Y085286D01*X004557Y085261D01*X004507Y085261D01*
X004507Y085237D01*X004458Y085237D01*X004458Y085212D01*X004433Y085212D01*
X004433Y085187D01*X004384Y085187D01*X004384Y085163D01*X004334Y085163D01*
X004334Y085138D01*X004285Y085138D01*X004285Y085113D01*X004236Y085113D01*
X004236Y085089D01*X004186Y085089D01*X004186Y085064D01*X004162Y085064D01*
X004162Y085039D01*X004112Y085039D01*X004112Y085015D01*X004063Y085015D01*
X004063Y084990D01*X004013Y084990D01*X004013Y084965D01*X003989Y084965D01*
X003989Y084940D01*X003939Y084940D01*X003939Y084916D01*X003890Y084916D01*
X003890Y084891D01*X003865Y084891D01*X003865Y084866D01*X003816Y084866D01*
X003816Y084842D01*X003791Y084842D01*X003791Y084817D01*X003742Y084817D01*
X003742Y084792D01*X003692Y084792D01*X003692Y084768D01*X003668Y084768D01*
X003668Y084743D01*X003618Y084743D01*X003618Y084718D01*X003594Y084718D01*
X003594Y084694D01*X003569Y084694D01*X003569Y084669D01*X003520Y084669D01*
X003520Y084644D01*X003495Y084644D01*X003495Y084620D01*X003470Y084620D01*
X003470Y084595D01*X003446Y084595D01*X003446Y084570D01*X003421Y084570D01*
X003421Y084546D01*X003396Y084546D01*X003396Y084521D01*X003372Y084521D01*
X003372Y084496D01*X003347Y084496D01*X003347Y084471D01*X003322Y084471D01*
X003322Y084447D01*X003298Y084447D01*X003298Y084398D01*X003273Y084398D01*
X003273Y084373D01*X003248Y084373D01*X003248Y084323D01*X003223Y084323D01*
X003223Y084298D01*X003199Y084298D01*X003199Y084249D01*X003174Y084249D01*
X003174Y084200D01*X003149Y084200D01*X003149Y084126D01*X003125Y084126D01*
X003125Y084027D01*X003100Y084027D01*X003100Y083731D01*G37*G36*X007840Y083098D02*
X008408Y083098D01*X008408Y083148D01*X008433Y083148D01*X008433Y083271D01*
X008457Y083271D01*X008457Y083394D01*X008482Y083394D01*X008482Y083518D01*
X008507Y083518D01*X008507Y083641D01*X008532Y083641D01*X008532Y083789D01*
X008556Y083789D01*X008556Y083913D01*X008581Y083913D01*X008581Y084036D01*
X008606Y084036D01*X008606Y084160D01*X008630Y084160D01*X008630Y084283D01*
X008655Y084283D01*X008655Y084407D01*X008680Y084407D01*X008680Y084555D01*
X008704Y084555D01*X008704Y084678D01*X008729Y084678D01*X008729Y084802D01*
X008754Y084802D01*X008754Y084925D01*X008778Y084925D01*X008778Y084975D01*
X008186Y084975D01*X008186Y084974D01*X008186Y084876D01*X008161Y084876D01*
X008161Y084752D01*X008137Y084752D01*X008137Y084629D01*X008112Y084629D01*
X008112Y084481D01*X008087Y084481D01*X008087Y084357D01*X008062Y084357D01*
X008062Y084234D01*X008038Y084234D01*X008038Y084110D01*X008013Y084110D01*
X008013Y083987D01*X007988Y083987D01*X007988Y083839D01*X007964Y083839D01*
X007964Y083715D01*X007939Y083715D01*X007939Y083592D01*X007914Y083592D01*
X007914Y083469D01*X007890Y083469D01*X007890Y083345D01*X007865Y083345D01*
X007865Y083197D01*X007840Y083197D01*X007840Y083098D01*
G37*G36*X008606Y083123D02*
X008606Y083197D01*X008630Y083197D01*X008630Y083320D01*X008655Y083320D01*
X008655Y083444D01*X008680Y083444D01*X008680Y083592D01*X008704Y083592D01*
X008704Y083691D01*X008729Y083691D01*X008729Y083839D01*X008754Y083839D01*
X008754Y083962D01*X008778Y083962D01*X008778Y084086D01*X008803Y084086D01*
X008803Y084184D01*X008828Y084184D01*X008828Y084283D01*X010260Y084283D01*
X010260Y084259D01*X010408Y084259D01*X010408Y084234D01*X010482Y084234D01*
X010482Y084209D01*X010556Y084209D01*X010556Y084184D01*X010605Y084184D01*
X010605Y084160D01*X010630Y084160D01*X010630Y084135D01*X010679Y084135D01*
X010679Y084086D01*X010704Y084086D01*X010704Y083913D01*X010679Y083913D01*
X010679Y083765D01*X010655Y083765D01*X010655Y083592D01*X010630Y083592D01*
X010630Y083444D01*X010605Y083444D01*X010605Y083296D01*X010581Y083296D01*
X010581Y083123D01*X010038Y083123D01*X010038Y083172D01*X010062Y083172D01*
X010062Y083296D01*X010087Y083296D01*X010087Y083469D01*X010112Y083469D01*
X010112Y083592D01*X010136Y083592D01*X010136Y083740D01*X010161Y083740D01*
X010161Y083864D01*X010186Y083864D01*X010186Y084012D01*X010161Y084012D01*
X010161Y084036D01*X010112Y084036D01*X010112Y084061D01*X009297Y084061D01*
X009297Y084036D01*X009272Y084036D01*X009272Y083888D01*X009248Y083888D01*
X009248Y083765D01*X009223Y083765D01*X009223Y083641D01*X009198Y083641D01*
X009198Y083493D01*X009173Y083493D01*X009173Y083394D01*X009149Y083394D01*
X009149Y083246D01*X009124Y083246D01*X009124Y083123D01*X008606Y083123D01*G37*G36*
X010754Y083320D02*X010754Y083469D01*X010778Y083469D01*X010778Y083592D01*
X010803Y083592D01*X010803Y083740D01*X010828Y083740D01*X010828Y083864D01*
X010852Y083864D01*X010852Y083987D01*X010877Y083987D01*X010877Y084135D01*
X010902Y084135D01*X010902Y084259D01*X010926Y084259D01*X010926Y084382D01*
X010951Y084382D01*X010951Y084530D01*X010976Y084530D01*X010976Y084654D01*
X011000Y084654D01*X011000Y084752D01*X011544Y084752D01*X011544Y084728D01*
X011519Y084728D01*X011519Y084604D01*X011494Y084604D01*X011494Y084505D01*
X011470Y084505D01*X011470Y084382D01*X011445Y084382D01*X011445Y084283D01*
X012087Y084283D01*X012087Y084234D01*X012062Y084234D01*X012062Y084086D01*
X012037Y084086D01*X012037Y084061D01*X011395Y084061D01*X011395Y083987D01*
X011371Y083987D01*X011371Y083888D01*X011346Y083888D01*X011346Y083765D01*
X011321Y083765D01*X011321Y083641D01*X011297Y083641D01*X011297Y083543D01*
X011272Y083543D01*X011272Y083370D01*X011297Y083370D01*X011297Y083345D01*
X011346Y083345D01*X011346Y083320D01*X011963Y083320D01*X011963Y083172D01*
X011939Y083172D01*X011939Y083098D01*X011321Y083098D01*X011321Y083123D01*
X011050Y083123D01*X011050Y083148D01*X010976Y083148D01*X010976Y083172D01*
X010902Y083172D01*X010902Y083197D01*X010877Y083197D01*X010877Y083222D01*
X010828Y083222D01*X010828Y083246D01*X010803Y083246D01*X010803Y083271D01*
X010778Y083271D01*X010778Y083320D01*X010754Y083320D01*G37*G36*X012111Y083592D02*
X012111Y083691D01*X012136Y083691D01*X012136Y083814D01*X012161Y083814D01*
X012161Y083962D01*X012185Y083962D01*X012185Y084086D01*X012210Y084086D01*
X012210Y084160D01*X012235Y084160D01*X012235Y084184D01*X012260Y084184D01*
X012260Y084209D01*X012284Y084209D01*X012284Y084234D01*X012334Y084234D01*
X012334Y084259D01*X012432Y084259D01*X012432Y084283D01*X014037Y084283D01*
X014037Y084259D01*X014087Y084259D01*X014087Y084234D01*X014111Y084234D01*
X014111Y084209D01*X014136Y084209D01*X014136Y083938D01*X014111Y083938D01*
X014111Y083814D01*X013617Y083814D01*X013617Y083913D01*X013642Y083913D01*
X013642Y084036D01*X013617Y084036D01*X013617Y084061D01*X012778Y084061D01*
X012778Y084036D01*X012729Y084036D01*X012729Y084012D01*X012704Y084012D01*
X012704Y083987D01*X012679Y083987D01*X012679Y083913D01*X012655Y083913D01*
X012655Y083839D01*X012630Y083839D01*X012630Y083814D01*X014111Y083814D01*
X014111Y083765D01*X014087Y083765D01*X014087Y083691D01*X014062Y083691D01*
X014062Y083641D01*X014012Y083641D01*X014012Y083617D01*X013988Y083617D01*
X013988Y083592D01*X012111Y083592D01*G37*G36*X012062Y083271D02*X012062Y083419D01*
X012087Y083419D01*X012087Y083567D01*X012111Y083567D01*X012111Y083592D01*
X012605Y083592D01*X012605Y083493D01*X012581Y083493D01*X012581Y083370D01*
X012630Y083370D01*X012630Y083345D01*X012704Y083345D01*X012704Y083320D01*
X014679Y083320D01*X014679Y083271D01*X014654Y083271D01*X014654Y083123D01*
X014630Y083123D01*X014630Y083098D01*X012506Y083098D01*X012506Y083123D01*
X012309Y083123D01*X012309Y083148D01*X012235Y083148D01*X012235Y083172D01*
X012161Y083172D01*X012161Y083197D01*X012136Y083197D01*X012136Y083222D01*
X012111Y083222D01*X012111Y083246D01*X012087Y083246D01*X012087Y083271D01*
X012062Y083271D01*G37*G36*X014161Y083320D02*X014161Y083370D01*X014185Y083370D01*
X014185Y083493D01*X014210Y083493D01*X014210Y083617D01*X014235Y083617D01*
X014235Y083740D01*X014259Y083740D01*X014259Y083864D01*X014284Y083864D01*
X014284Y083987D01*X014309Y083987D01*X014309Y084110D01*X014333Y084110D01*
X014333Y084160D01*X014358Y084160D01*X014358Y084184D01*X014383Y084184D01*
X014383Y084209D01*X014407Y084209D01*X014407Y084234D01*X014457Y084234D01*
X014457Y084259D01*X014556Y084259D01*X014556Y084283D01*X016234Y084283D01*
X016234Y084234D01*X016210Y084234D01*X016210Y084160D01*X016185Y084160D01*
X016185Y084110D01*X016160Y084110D01*X016160Y084061D01*X016136Y084061D01*
X016136Y084012D01*X016111Y084012D01*X016111Y083938D01*X016086Y083938D01*
X016086Y083888D01*X016062Y083888D01*X016062Y083839D01*X016037Y083839D01*
X016037Y083789D01*X016012Y083789D01*X016012Y083715D01*X015988Y083715D01*
X015988Y083666D01*X015963Y083666D01*X015963Y083617D01*X015938Y083617D01*
X015938Y083567D01*X015913Y083567D01*X015913Y083518D01*X015889Y083518D01*
X015889Y083444D01*X015864Y083444D01*X015864Y083394D01*X015839Y083394D01*
X015839Y083345D01*X015815Y083345D01*X015815Y083296D01*X015790Y083296D01*
X015790Y083222D01*X015765Y083222D01*X015765Y083172D01*X015741Y083172D01*
X015741Y083123D01*X015716Y083123D01*X015716Y083073D01*X015691Y083073D01*
X015691Y082999D01*X015667Y082999D01*X015667Y082950D01*X015642Y082950D01*
X015642Y082901D01*X015617Y082901D01*X015617Y082851D01*X015593Y082851D01*
X015593Y082777D01*X015568Y082777D01*X015568Y082728D01*X015543Y082728D01*
X015543Y082678D01*X015518Y082678D01*X015518Y082629D01*X015494Y082629D01*
X015494Y082728D01*X015518Y082728D01*X015518Y082876D01*X015543Y082876D01*
X015543Y083024D01*X015568Y083024D01*X015568Y083148D01*X015593Y083148D01*
X015593Y083296D01*X015617Y083296D01*X015617Y083444D01*X015642Y083444D01*
X015642Y083592D01*X015667Y083592D01*X015667Y083740D01*X015691Y083740D01*
X015691Y083888D01*X015716Y083888D01*X015716Y084012D01*X015741Y084012D01*
X015741Y084061D01*X014901Y084061D01*X014901Y084036D01*X014852Y084036D01*
X014852Y084012D01*X014827Y084012D01*X014827Y083987D01*X014802Y083987D01*
X014802Y083888D01*X014778Y083888D01*X014778Y083765D01*X014753Y083765D01*
X014753Y083641D01*X014728Y083641D01*X014728Y083518D01*X014704Y083518D01*
X014704Y083394D01*X014679Y083394D01*X014679Y083320D01*X014161Y083320D01*G37*G36*
X015469Y082620D02*X015469Y082644D01*X015494Y082644D01*X015494Y082620D01*
X015469Y082620D01*G37*G36*X015765Y084283D02*X015765Y084308D01*X015790Y084308D01*
X015790Y084456D01*X015815Y084456D01*X015815Y084604D01*X015839Y084604D01*
X015839Y084752D01*X015864Y084752D01*X015864Y084851D01*X016432Y084851D01*
X016432Y084826D01*X016457Y084826D01*X016457Y084777D01*X016481Y084777D01*
X016481Y084728D01*X016506Y084728D01*X016506Y084678D01*X016531Y084678D01*
X016531Y084654D01*X016555Y084654D01*X016555Y084604D01*X016580Y084604D01*
X016580Y084555D01*X016605Y084555D01*X016605Y084505D01*X016629Y084505D01*
X016629Y084456D01*X016654Y084456D01*X016654Y084407D01*X016679Y084407D01*
X016679Y084382D01*X016704Y084382D01*X016704Y084333D01*X016728Y084333D01*
X016728Y084283D01*X016753Y084283D01*X016753Y084234D01*X016778Y084234D01*
X016778Y084184D01*X016802Y084184D01*X016802Y084135D01*X016827Y084135D01*
X016827Y084110D01*X016852Y084110D01*X016852Y084061D01*X016457Y084061D01*
X016457Y084086D01*X016432Y084086D01*X016432Y084135D01*X016407Y084135D01*
X016407Y084184D01*X016383Y084184D01*X016383Y084234D01*X016358Y084234D01*
X016358Y084259D01*X016333Y084259D01*X016333Y084308D01*X016309Y084308D01*
X016309Y084357D01*X016284Y084357D01*X016284Y084333D01*X016259Y084333D01*
X016259Y084283D01*X015765Y084283D01*G37*G36*X016457Y084036D02*X016481Y084036D01*
X016481Y083987D01*X016506Y083987D01*X016506Y083962D01*X016531Y083962D01*
X016531Y083913D01*X016555Y083913D01*X016555Y083864D01*X016580Y083864D01*
X016580Y083814D01*X016605Y083814D01*X016605Y083765D01*X016629Y083765D01*
X016629Y083715D01*X016654Y083715D01*X016654Y083691D01*X016679Y083691D01*
X016679Y083641D01*X016704Y083641D01*X016704Y083592D01*X016728Y083592D01*
X016728Y083543D01*X016753Y083543D01*X016753Y083493D01*X016778Y083493D01*
X016778Y083444D01*X016802Y083444D01*X016802Y083419D01*X016827Y083419D01*
X016827Y083370D01*X016852Y083370D01*X016852Y083320D01*X016876Y083320D01*
X016876Y083271D01*X016901Y083271D01*X016901Y083222D01*X016926Y083222D01*
X016926Y083197D01*X016950Y083197D01*X016950Y083148D01*X016975Y083148D01*
X016975Y083098D01*X017543Y083098D01*X017543Y083172D01*X017568Y083172D01*
X017568Y083320D01*X017592Y083320D01*X017592Y083444D01*X017617Y083444D01*
X017617Y083592D01*X017642Y083592D01*X017642Y083740D01*X017666Y083740D01*
X017666Y083864D01*X017691Y083864D01*X017691Y084012D01*X017716Y084012D01*
X017716Y084135D01*X017740Y084135D01*X017740Y084283D01*X017765Y084283D01*
X017765Y084431D01*X017790Y084431D01*X017790Y084580D01*X017815Y084580D01*
X017815Y084703D01*X017839Y084703D01*X017839Y084851D01*X017864Y084851D01*
X017864Y084999D01*X017889Y084999D01*X017889Y085123D01*X017913Y085123D01*
X017913Y085221D01*X017889Y085221D01*X017889Y085172D01*X017864Y085172D01*
X017864Y085098D01*X017839Y085098D01*X017839Y085049D01*X017815Y085049D01*
X017815Y084999D01*X017790Y084999D01*X017790Y084950D01*X017765Y084950D01*
X017765Y084900D01*X017740Y084900D01*X017740Y084851D01*X017716Y084851D01*
X017716Y084802D01*X017691Y084802D01*X017691Y084752D01*X017666Y084752D01*
X017666Y084703D01*X017642Y084703D01*X017642Y084654D01*X017617Y084654D01*
X017617Y084604D01*X017592Y084604D01*X017592Y084530D01*X017568Y084530D01*
X017568Y084481D01*X017543Y084481D01*X017543Y084431D01*X017518Y084431D01*
X017518Y084382D01*X017494Y084382D01*X017494Y084333D01*X017469Y084333D01*
X017469Y084283D01*X017444Y084283D01*X017444Y084234D01*X017420Y084234D01*
X017420Y084184D01*X017395Y084184D01*X017395Y084135D01*X017370Y084135D01*
X017370Y084086D01*X017345Y084086D01*X017345Y084036D01*X017321Y084036D01*
X017321Y083962D01*X017296Y083962D01*X017296Y083913D01*X017271Y083913D01*
X017271Y083864D01*X017247Y083864D01*X017247Y083814D01*X017222Y083814D01*
X017222Y083765D01*X017197Y083765D01*X017197Y083715D01*X017173Y083715D01*
X017173Y083666D01*X017148Y083666D01*X017148Y083617D01*X017099Y083617D01*
X017099Y083641D01*X017074Y083641D01*X017074Y083691D01*X017049Y083691D01*
X017049Y083740D01*X017024Y083740D01*X017024Y083789D01*X017000Y083789D01*
X017000Y083839D01*X016975Y083839D01*X016975Y083864D01*X016950Y083864D01*
X016950Y083913D01*X016926Y083913D01*X016926Y083962D01*X016901Y083962D01*
X016901Y084012D01*X016876Y084012D01*X016876Y084061D01*X016457Y084061D01*
X016457Y084036D01*G37*G36*X017370Y085221D02*X017395Y085221D01*X017395Y085123D01*
X017420Y085123D01*X017420Y085049D01*X017444Y085049D01*X017444Y084999D01*
X017469Y084999D01*X017469Y084975D01*X017494Y084975D01*X017494Y084925D01*
X017518Y084925D01*X017518Y084900D01*X017568Y084900D01*X017568Y084876D01*
X017666Y084876D01*X017666Y084900D01*X017691Y084900D01*X017691Y084999D01*
X017666Y084999D01*X017666Y085024D01*X017642Y085024D01*X017642Y085049D01*
X017617Y085049D01*X017617Y085073D01*X017592Y085073D01*X017592Y085123D01*
X017568Y085123D01*X017568Y085197D01*X017543Y085197D01*X017543Y085345D01*
X017568Y085345D01*X017568Y085419D01*X017592Y085419D01*X017592Y085468D01*
X017420Y085468D01*X017420Y085444D01*X017395Y085444D01*X017395Y085320D01*
X017370Y085320D01*X017370Y085221D01*G37*G36*X017420Y085468D02*X017617Y085468D01*
X017617Y085493D01*X017642Y085493D01*X017642Y085542D01*X017666Y085542D01*
X017666Y085567D01*X017716Y085567D01*X017716Y085592D01*X017765Y085592D01*
X017765Y085616D01*X017864Y085616D01*X017864Y085641D01*X017963Y085641D01*
X017963Y085616D01*X018061Y085616D01*X018061Y085592D01*X018086Y085592D01*
X018086Y085567D01*X018135Y085567D01*X018135Y085542D01*X018160Y085542D01*
X018160Y085518D01*X018185Y085518D01*X018185Y085493D01*X018210Y085493D01*
X018210Y085444D01*X018407Y085444D01*X018407Y085468D01*X018382Y085468D01*
X018382Y085518D01*X018358Y085518D01*X018358Y085567D01*X018333Y085567D01*
X018333Y085592D01*X018308Y085592D01*X018308Y085616D01*X018284Y085616D01*
X018284Y085641D01*X018259Y085641D01*X018259Y085666D01*X018234Y085666D01*
X018234Y085691D01*X018210Y085691D01*X018210Y085715D01*X018160Y085715D01*
X018160Y085740D01*X018111Y085740D01*X018111Y085765D01*X018037Y085765D01*
X018037Y085789D01*X017765Y085789D01*X017765Y085765D01*X017691Y085765D01*
X017691Y085740D01*X017642Y085740D01*X017642Y085715D01*X017617Y085715D01*
X017617Y085691D01*X017568Y085691D01*X017568Y085666D01*X017543Y085666D01*
X017543Y085641D01*X017518Y085641D01*X017518Y085616D01*X017494Y085616D01*
X017494Y085567D01*X017469Y085567D01*X017469Y085542D01*X017444Y085542D01*
X017444Y085493D01*X017420Y085493D01*X017420Y085468D01*
G37*G36*X017938Y084802D02*
X017963Y084802D01*X017963Y084777D01*X018012Y084777D01*X018012Y084752D01*
X018061Y084752D01*X018061Y084777D01*X018111Y084777D01*X018111Y084802D01*
X018160Y084802D01*X018160Y084826D01*X018210Y084826D01*X018210Y084851D01*
X018234Y084851D01*X018234Y084876D01*X018259Y084876D01*X018259Y084900D01*
X018284Y084900D01*X018284Y084925D01*X018308Y084925D01*X018308Y084950D01*
X018333Y084950D01*X018333Y084999D01*X018358Y084999D01*X018358Y085024D01*
X018382Y085024D01*X018382Y085073D01*X018407Y085073D01*X018407Y085172D01*
X018432Y085172D01*X018432Y085370D01*X018407Y085370D01*X018407Y085444D01*
X018234Y085444D01*X018234Y085394D01*X018259Y085394D01*X018259Y085147D01*
X018234Y085147D01*X018234Y085098D01*X018210Y085098D01*X018210Y085049D01*
X018185Y085049D01*X018185Y085024D01*X018160Y085024D01*X018160Y084999D01*
X018135Y084999D01*X018135Y084975D01*X018086Y084975D01*X018086Y084950D01*
X018037Y084950D01*X018037Y084925D01*X017987Y084925D01*X017987Y084900D01*
X017963Y084900D01*X017963Y084876D01*X017938Y084876D01*X017938Y084802D01*G37*G36*
X019962Y083320D02*X019962Y083345D01*X020012Y083345D01*X020012Y083370D01*
X020037Y083370D01*X020037Y083394D01*X020086Y083394D01*X020086Y083419D01*
X020135Y083419D01*X020135Y083444D01*X020160Y083444D01*X020160Y083469D01*
X020209Y083469D01*X020209Y083493D01*X020234Y083493D01*X020234Y083518D01*
X020259Y083518D01*X020259Y083543D01*X020308Y083543D01*X020308Y083567D01*
X020357Y083567D01*X020357Y083592D01*X020382Y083592D01*X020382Y083617D01*
X020432Y083617D01*X020432Y083641D01*X020456Y083641D01*X020456Y083666D01*
X021073Y083666D01*X021073Y083641D01*X021098Y083641D01*X021098Y083617D01*
X021148Y083617D01*X021148Y083592D01*X021172Y083592D01*X021172Y083567D01*
X021197Y083567D01*X021197Y083543D01*X021222Y083543D01*X021222Y083518D01*
X021271Y083518D01*X021271Y083493D01*X021296Y083493D01*X021296Y083469D01*
X021320Y083469D01*X021320Y083444D01*X021345Y083444D01*X021345Y083419D01*
X021394Y083419D01*X021394Y083394D01*X021419Y083394D01*X021419Y083370D01*
X021444Y083370D01*X021444Y083345D01*X021468Y083345D01*X021468Y083320D01*
X021518Y083320D01*X021518Y083296D01*X021543Y083296D01*X021543Y083271D01*
X021567Y083271D01*X021567Y083246D01*X021592Y083246D01*X021592Y083222D01*
X021617Y083222D01*X021617Y083197D01*X021666Y083197D01*X021666Y083172D01*
X021691Y083172D01*X021691Y083148D01*X021715Y083148D01*X021715Y083123D01*
X021740Y083123D01*X021740Y083098D01*X021222Y083098D01*X021222Y083123D01*
X021172Y083123D01*X021172Y083148D01*X021148Y083148D01*X021148Y083172D01*
X021123Y083172D01*X021123Y083197D01*X021098Y083197D01*X021098Y083222D01*
X021073Y083222D01*X021073Y083246D01*X021049Y083246D01*X021049Y083271D01*
X020999Y083271D01*X020999Y083296D01*X020975Y083296D01*X020975Y083320D01*
X020950Y083320D01*X020950Y083345D01*X020925Y083345D01*X020925Y083370D01*
X020901Y083370D01*X020901Y083394D01*X020876Y083394D01*X020876Y083419D01*
X020827Y083419D01*X020827Y083444D01*X020802Y083444D01*X020802Y083469D01*
X020777Y083469D01*X020777Y083493D01*X020728Y083493D01*X020728Y083469D01*
X020678Y083469D01*X020678Y083444D01*X020654Y083444D01*X020654Y083419D01*
X020604Y083419D01*X020604Y083394D01*X020555Y083394D01*X020555Y083370D01*
X020530Y083370D01*X020530Y083345D01*X020481Y083345D01*X020481Y083320D01*
X019962Y083320D01*G37*G36*X019888Y084259D02*X019888Y084283D01*X020333Y084283D01*
X020333Y084259D01*X020357Y084259D01*X020357Y084234D01*X020407Y084234D01*
X020407Y084209D01*X020432Y084209D01*X020432Y084184D01*X020456Y084184D01*
X020456Y084160D01*X020481Y084160D01*X020481Y084135D01*X020506Y084135D01*
X020506Y084110D01*X020530Y084110D01*X020530Y084086D01*X020555Y084086D01*
X020555Y084061D01*X020580Y084061D01*X020580Y084036D01*X020604Y084036D01*
X020604Y084012D01*X020654Y084012D01*X020654Y083987D01*X020678Y083987D01*
X020678Y083962D01*X020703Y083962D01*X020703Y083938D01*X020728Y083938D01*
X020728Y083913D01*X020752Y083913D01*X020752Y083888D01*X020802Y083888D01*
X020802Y083913D01*X020851Y083913D01*X020851Y083938D01*X020901Y083938D01*
X020901Y083962D01*X020925Y083962D01*X020925Y083987D01*X020975Y083987D01*
X020975Y084012D01*X020999Y084012D01*X020999Y084036D01*X021049Y084036D01*
X021049Y084061D01*X021098Y084061D01*X021098Y084086D01*X021123Y084086D01*
X021123Y084110D01*X021172Y084110D01*X021172Y084135D01*X021197Y084135D01*
X021197Y084160D01*X021246Y084160D01*X021246Y084184D01*X021271Y084184D01*
X021271Y084209D01*X021320Y084209D01*X021320Y084234D01*X021345Y084234D01*
X021345Y084259D01*X021394Y084259D01*X021394Y084283D01*X021913Y084283D01*
X021913Y084259D01*X021863Y084259D01*X021863Y084234D01*X021839Y084234D01*
X021839Y084209D01*X021789Y084209D01*X021789Y084184D01*X021765Y084184D01*
X021765Y084160D01*X021715Y084160D01*X021715Y084135D01*X021691Y084135D01*
X021691Y084110D01*X021641Y084110D01*X021641Y084086D01*X021617Y084086D01*
X021617Y084061D01*X021567Y084061D01*X021567Y084036D01*X021543Y084036D01*
X021543Y084012D01*X021493Y084012D01*X021493Y083987D01*X021468Y083987D01*
X021468Y083962D01*X021419Y083962D01*X021419Y083938D01*X021394Y083938D01*
X021394Y083913D01*X021345Y083913D01*X021345Y083888D01*X021320Y083888D01*
X021320Y083864D01*X021271Y083864D01*X021271Y083839D01*X021246Y083839D01*
X021246Y083814D01*X021197Y083814D01*X021197Y083789D01*X021172Y083789D01*
X021172Y083765D01*X021123Y083765D01*X021123Y083740D01*X021098Y083740D01*
X021098Y083715D01*X021049Y083715D01*X021049Y083666D01*X020506Y083666D01*
X020506Y083740D01*X020481Y083740D01*X020481Y083765D01*X020432Y083765D01*
X020432Y083789D01*X020407Y083789D01*X020407Y083814D01*X020382Y083814D01*
X020382Y083839D01*X020357Y083839D01*X020357Y083864D01*X020333Y083864D01*
X020333Y083888D01*X020308Y083888D01*X020308Y083913D01*X020283Y083913D01*
X020283Y083938D01*X020259Y083938D01*X020259Y083962D01*X020209Y083962D01*
X020209Y083987D01*X020185Y083987D01*X020185Y084012D01*X020160Y084012D01*
X020160Y084036D01*X020135Y084036D01*X020135Y084061D01*X020111Y084061D01*
X020111Y084086D01*X020086Y084086D01*X020086Y084110D01*X020061Y084110D01*
X020061Y084135D01*X020012Y084135D01*X020012Y084160D01*X019987Y084160D01*
X019987Y084184D01*X019962Y084184D01*X019962Y084209D01*X019938Y084209D01*
X019938Y084234D01*X019913Y084234D01*X019913Y084259D01*X019888Y084259D01*G37*
X000000Y000000D02*M02*
