%MOMM*%
%FSLAX33Y33*%
%ADD10C,0.200000*%
%ADD129C,0.080000*%
G90*G71*G01*D02*G54D10*X000000Y000000D02*X065000Y000000D01*X065000Y077000D01*
X000000Y077000D01*X000000Y000000D01*D02*G54D129*X022500Y086000D02*
X002500Y086000D01*X002500Y082000D01*X022500Y082000D01*X022500Y084000D02*
X062500Y084000D01*X038500Y086000D02*X038500Y082000D01*X022500Y086000D02*
X062500Y086000D01*X062500Y082000D02*X022500Y082000D01*X022500Y086000D02*
X022500Y082000D01*X062500Y086000D02*X062500Y082000D01*X050500Y086000D02*
X050500Y082000D01*X052676Y083255D02*X052676Y083218D01*X052713Y083218D01*
X052713Y083255D01*X052676Y083255D01*X052676Y083291D02*X052713Y083291D01*
X052749Y083255D01*X052749Y083218D01*X052713Y083182D01*X052676Y083182D01*
X052640Y083218D01*X052640Y083255D01*X052676Y083327D01*X052713Y083364D01*
X052822Y083388D01*X052973Y083388D01*X053082Y083364D01*X053118Y083327D01*
X053160Y083255D01*X053160Y083182D01*X053118Y083121D01*X053009Y083048D01*
X052822Y082976D01*X052749Y082939D01*X052676Y082867D01*X052640Y082770D01*
X052640Y082661D01*X053082Y083327D02*X053118Y083255D01*X053118Y083182D01*
X053082Y083121D01*X052973Y083388D02*X053046Y083364D01*X053082Y083255D01*
X053082Y083182D01*X053046Y083121D01*X052973Y083048D01*X052822Y082976D01*
X052640Y082733D02*X052676Y082770D01*X052749Y082770D01*X052931Y082733D01*
X053082Y082733D01*X053160Y082770D01*X052749Y082770D02*X052931Y082697D01*
X053082Y082697D01*X053118Y082733D01*X052749Y082770D02*X052931Y082661D01*
X053082Y082661D01*X053118Y082697D01*X053160Y082770D01*X053160Y082830D01*
X053658Y083388D02*X053549Y083364D01*X053476Y083255D01*X053440Y083085D01*
X053440Y082976D01*X053476Y082806D01*X053549Y082697D01*X053658Y082661D01*
X053736Y082661D01*X053846Y082697D01*X053918Y082806D01*X053960Y082976D01*
X053960Y083085D01*X053918Y083255D01*X053846Y083364D01*X053736Y083388D01*
X053658Y083388D01*X053549Y083327D02*X053513Y083255D01*X053476Y083121D01*
X053476Y082939D01*X053513Y082806D01*X053549Y082733D01*X053846Y082733D02*
X053882Y082806D01*X053918Y082939D01*X053918Y083121D01*X053882Y083255D01*
X053846Y083327D01*X053658Y083388D02*X053586Y083364D01*X053549Y083291D01*
X053513Y083121D01*X053513Y082939D01*X053549Y082770D01*X053586Y082697D01*
X053658Y082661D01*X053736Y082661D02*X053809Y082697D01*X053846Y082770D01*
X053882Y082939D01*X053882Y083121D01*X053846Y083291D01*X053809Y083364D01*
X053736Y083388D01*X054474Y083327D02*X054474Y082661D01*X054495Y083327D02*
X054495Y082697D01*X054510Y083388D02*X054510Y082661D01*X054510Y083388D02*
X054458Y083291D01*X054427Y083255D01*X054412Y082661D02*X054578Y082661D01*
X054474Y082697D02*X054443Y082661D01*X054474Y082733D02*X054458Y082661D01*
X054510Y082733D02*X054526Y082661D01*X054510Y082697D02*X054542Y082661D01*
X055446Y083291D02*X055446Y083255D01*X055482Y083255D01*X055482Y083291D01*
X055446Y083291D01*X055482Y083327D02*X055446Y083327D01*X055409Y083291D01*
X055409Y083255D01*X055446Y083218D01*X055482Y083218D01*X055518Y083255D01*
X055518Y083291D01*X055482Y083364D01*X055409Y083388D01*X055300Y083388D01*
X055186Y083364D01*X055113Y083291D01*X055076Y083218D01*X055040Y083085D01*
X055040Y082867D01*X055076Y082770D01*X055149Y082697D01*X055258Y082661D01*
X055336Y082661D01*X055446Y082697D01*X055518Y082770D01*X055560Y082867D01*
X055560Y082903D01*X055518Y083012D01*X055446Y083085D01*X055336Y083121D01*
X055258Y083121D01*X055186Y083085D01*X055149Y083048D01*X055113Y082976D01*
X055149Y083291D02*X055113Y083218D01*X055076Y083085D01*X055076Y082867D01*
X055113Y082770D01*X055149Y082733D01*X055482Y082770D02*X055518Y082830D01*
X055518Y082939D01*X055482Y083012D01*X055300Y083388D02*X055222Y083364D01*
X055186Y083327D01*X055149Y083255D01*X055113Y083121D01*X055113Y082867D01*
X055149Y082770D01*X055186Y082697D01*X055258Y082661D01*X055336Y082661D02*
X055409Y082697D01*X055446Y082733D01*X055482Y082830D01*X055482Y082939D01*
X055446Y083048D01*X055409Y083085D01*X055336Y083121D01*X055840Y083012D02*
X056360Y083012D01*X056360Y082976D01*X055840Y083012D02*X055840Y082976D01*
X056360Y082976D01*X056858Y083388D02*X056749Y083364D01*X056676Y083255D01*
X056640Y083085D01*X056640Y082976D01*X056676Y082806D01*X056749Y082697D01*
X056858Y082661D01*X056936Y082661D01*X057046Y082697D01*X057118Y082806D01*
X057160Y082976D01*X057160Y083085D01*X057118Y083255D01*X057046Y083364D01*
X056936Y083388D01*X056858Y083388D01*X056749Y083327D02*X056713Y083255D01*
X056676Y083121D01*X056676Y082939D01*X056713Y082806D01*X056749Y082733D01*
X057046Y082733D02*X057082Y082806D01*X057118Y082939D01*X057118Y083121D01*
X057082Y083255D01*X057046Y083327D01*X056858Y083388D02*X056786Y083364D01*
X056749Y083291D01*X056713Y083121D01*X056713Y082939D01*X056749Y082770D01*
X056786Y082697D01*X056858Y082661D01*X056936Y082661D02*X057009Y082697D01*
X057046Y082770D01*X057082Y082939D01*X057082Y083121D01*X057046Y083291D01*
X057009Y083364D01*X056936Y083388D01*X057513Y082806D02*X057513Y082770D01*
X057549Y082770D01*X057549Y082806D01*X057513Y082806D01*X057882Y083085D02*
X057846Y083012D01*X057809Y082976D01*X057736Y082939D01*X057658Y082939D01*
X057549Y082976D01*X057476Y083048D01*X057440Y083145D01*X057440Y083182D01*
X057476Y083291D01*X057549Y083364D01*X057658Y083388D01*X057736Y083388D01*
X057846Y083364D01*X057918Y083291D01*X057960Y083182D01*X057960Y082976D01*
X057918Y082830D01*X057882Y082770D01*X057809Y082697D01*X057695Y082661D01*
X057586Y082661D01*X057513Y082697D01*X057476Y082770D01*X057476Y082806D01*
X057513Y082830D01*X057549Y082830D01*X057586Y082806D01*X057586Y082770D01*
X057549Y082733D01*X057513Y082733D01*X057513Y083048D02*X057476Y083121D01*
X057476Y083218D01*X057513Y083291D01*X057846Y083327D02*X057882Y083291D01*
X057918Y083182D01*X057918Y082976D01*X057882Y082830D01*X057846Y082770D01*
X057658Y082939D02*X057586Y082976D01*X057549Y083012D01*X057513Y083121D01*
X057513Y083218D01*X057549Y083327D01*X057586Y083364D01*X057658Y083388D01*
X057736Y083388D02*X057809Y083364D01*X057846Y083291D01*X057882Y083182D01*
X057882Y082939D01*X057846Y082806D01*X057809Y082733D01*X057773Y082697D01*
X057695Y082661D01*X058240Y083012D02*X058760Y083012D01*X058760Y082976D01*
X058240Y083012D02*X058240Y082976D01*X058760Y082976D01*X059258Y083388D02*
X059149Y083364D01*X059076Y083255D01*X059040Y083085D01*X059040Y082976D01*
X059076Y082806D01*X059149Y082697D01*X059258Y082661D01*X059336Y082661D01*
X059446Y082697D01*X059518Y082806D01*X059560Y082976D01*X059560Y083085D01*
X059518Y083255D01*X059446Y083364D01*X059336Y083388D01*X059258Y083388D01*
X059149Y083327D02*X059113Y083255D01*X059076Y083121D01*X059076Y082939D01*
X059113Y082806D01*X059149Y082733D01*X059446Y082733D02*X059482Y082806D01*
X059518Y082939D01*X059518Y083121D01*X059482Y083255D01*X059446Y083327D01*
X059258Y083388D02*X059186Y083364D01*X059149Y083291D01*X059113Y083121D01*
X059113Y082939D01*X059149Y082770D01*X059186Y082697D01*X059258Y082661D01*
X059336Y082661D02*X059409Y082697D01*X059446Y082770D01*X059482Y082939D01*
X059482Y083121D01*X059446Y083291D01*X059409Y083364D01*X059336Y083388D01*
X059913Y082806D02*X059913Y082770D01*X059949Y082770D01*X059949Y082806D01*
X059913Y082806D01*X060282Y083085D02*X060246Y083012D01*X060209Y082976D01*
X060136Y082939D01*X060058Y082939D01*X059949Y082976D01*X059876Y083048D01*
X059840Y083145D01*X059840Y083182D01*X059876Y083291D01*X059949Y083364D01*
X060058Y083388D01*X060136Y083388D01*X060246Y083364D01*X060318Y083291D01*
X060360Y083182D01*X060360Y082976D01*X060318Y082830D01*X060282Y082770D01*
X060209Y082697D01*X060095Y082661D01*X059986Y082661D01*X059913Y082697D01*
X059876Y082770D01*X059876Y082806D01*X059913Y082830D01*X059949Y082830D01*
X059986Y082806D01*X059986Y082770D01*X059949Y082733D01*X059913Y082733D01*
X059913Y083048D02*X059876Y083121D01*X059876Y083218D01*X059913Y083291D01*
X060246Y083327D02*X060282Y083291D01*X060318Y083182D01*X060318Y082976D01*
X060282Y082830D01*X060246Y082770D01*X060058Y082939D02*X059986Y082976D01*
X059949Y083012D01*X059913Y083121D01*X059913Y083218D01*X059949Y083327D01*
X059986Y083364D01*X060058Y083388D01*X060136Y083388D02*X060209Y083364D01*
X060246Y083291D01*X060282Y083182D01*X060282Y082939D01*X060246Y082806D01*
X060209Y082733D01*X060173Y082697D01*X060095Y082661D01*X055128Y085388D02*
X055128Y084661D01*X055160Y085364D02*X055160Y084697D01*X055191Y085388D02*
X055191Y084661D01*X055040Y085388D02*X055342Y085388D01*X055435Y085364D01*
X055498Y085291D01*X055529Y085218D01*X055560Y085121D01*X055560Y084939D01*
X055529Y084830D01*X055498Y084770D01*X055435Y084697D01*X055342Y084661D01*
X055040Y084661D01*X055466Y085291D02*X055498Y085218D01*X055529Y085121D01*
X055529Y084939D01*X055498Y084830D01*X055466Y084770D01*X055342Y085388D02*
X055404Y085364D01*X055466Y085255D01*X055498Y085121D01*X055498Y084939D01*
X055466Y084806D01*X055404Y084697D01*X055342Y084661D01*X055066Y085388D02*
X055128Y085364D01*X055097Y085388D02*X055128Y085327D01*X055222Y085388D02*
X055191Y085327D01*X055253Y085388D02*X055191Y085364D01*X055128Y084697D02*
X055066Y084661D01*X055128Y084733D02*X055097Y084661D01*X055191Y084733D02*
X055222Y084661D01*X055191Y084697D02*X055253Y084661D01*X056100Y085388D02*
X055897Y084697D01*X056069Y085291D02*X056240Y084661D01*X056100Y085291D02*
X056272Y084661D01*X056100Y085388D02*X056298Y084661D01*X055954Y084867D02*
X056214Y084867D01*X055840Y084661D02*X056012Y084661D01*X056157Y084661D02*
X056360Y084661D01*X055897Y084697D02*X055866Y084661D01*X055897Y084697D02*
X055954Y084661D01*X056240Y084697D02*X056183Y084661D01*X056240Y084733D02*
X056214Y084661D01*X056272Y084733D02*X056329Y084661D01*X056640Y085388D02*
X056640Y085182D01*X056864Y085388D02*X056864Y084661D01*X056900Y085364D02*
X056900Y084697D01*X056931Y085388D02*X056931Y084661D01*X057160Y085388D02*
X057160Y085182D01*X056640Y085388D02*X057160Y085388D01*X056770Y084661D02*
X057025Y084661D01*X056671Y085388D02*X056640Y085182D01*X056702Y085388D02*
X056640Y085291D01*X056734Y085388D02*X056640Y085327D01*X056801Y085388D02*
X056640Y085364D01*X056994Y085388D02*X057160Y085364D01*X057061Y085388D02*
X057160Y085327D01*X057092Y085388D02*X057160Y085291D01*X057124Y085388D02*
X057160Y085182D01*X056864Y084697D02*X056801Y084661D01*X056864Y084733D02*
X056832Y084661D01*X056931Y084733D02*X056962Y084661D01*X056931Y084697D02*
X056994Y084661D01*X057534Y085388D02*X057534Y084661D01*X057565Y085364D02*
X057565Y084697D01*X057601Y085388D02*X057601Y084661D01*X057440Y085388D02*
X057960Y085388D01*X057960Y085182D01*X057601Y085048D02*X057794Y085048D01*
X057794Y085182D02*X057794Y084903D01*X057440Y084661D02*X057960Y084661D01*
X057960Y084867D01*X057471Y085388D02*X057534Y085364D01*X057502Y085388D02*
X057534Y085327D01*X057632Y085388D02*X057601Y085327D01*X057664Y085388D02*
X057601Y085364D01*X057794Y085388D02*X057960Y085364D01*X057861Y085388D02*
X057960Y085327D01*X057892Y085388D02*X057960Y085291D01*X057924Y085388D02*
X057960Y085182D01*X057794Y085182D02*X057762Y085048D01*X057794Y084903D01*
X057794Y085121D02*X057731Y085048D01*X057794Y084976D01*X057794Y085085D02*
X057664Y085048D01*X057794Y085012D01*X057534Y084697D02*X057471Y084661D01*
X057534Y084733D02*X057502Y084661D01*X057601Y084733D02*X057632Y084661D01*
X057601Y084697D02*X057664Y084661D01*X057794Y084661D02*X057960Y084697D01*
X057861Y084661D02*X057960Y084733D01*X057892Y084661D02*X057960Y084770D01*
X057924Y084661D02*X057960Y084867D01*X040744Y085388D02*X040744Y084661D01*
X040775Y085364D02*X040775Y084697D01*X040812Y085388D02*X040812Y084661D01*
X040640Y085388D02*X040916Y085388D01*X040640Y084661D02*X041160Y084661D01*
X041160Y084867D01*X040671Y085388D02*X040744Y085364D01*X040708Y085388D02*
X040744Y085327D01*X040848Y085388D02*X040812Y085327D01*X040879Y085388D02*
X040812Y085364D01*X040744Y084697D02*X040671Y084661D01*X040744Y084733D02*
X040708Y084661D01*X040812Y084733D02*X040848Y084661D01*X040812Y084697D02*
X040879Y084661D01*X040983Y084661D02*X041160Y084697D01*X041051Y084661D02*
X041160Y084733D01*X041087Y084661D02*X041160Y084770D01*X041124Y084661D02*
X041160Y084867D01*X041700Y085388D02*X041497Y084697D01*X041669Y085291D02*
X041840Y084661D01*X041700Y085291D02*X041872Y084661D01*X041700Y085388D02*
X041898Y084661D01*X041554Y084867D02*X041814Y084867D01*X041440Y084661D02*
X041612Y084661D01*X041757Y084661D02*X041960Y084661D01*X041497Y084697D02*
X041466Y084661D01*X041497Y084697D02*X041554Y084661D01*X041840Y084697D02*
X041783Y084661D01*X041840Y084733D02*X041814Y084661D01*X041872Y084733D02*
X041929Y084661D01*X042292Y085388D02*X042469Y085012D01*X042469Y084661D01*
X042318Y085388D02*X042495Y085012D01*X042495Y084697D01*X042339Y085388D02*
X042526Y085012D01*X042526Y084661D01*X042677Y085364D02*X042526Y085012D01*
X042240Y085388D02*X042422Y085388D01*X042599Y085388D02*X042760Y085388D01*
X042396Y084661D02*X042599Y084661D01*X042266Y085388D02*X042318Y085364D01*
X042396Y085388D02*X042339Y085364D01*X042630Y085388D02*X042677Y085364D01*
X042729Y085388D02*X042677Y085364D01*X042469Y084697D02*X042422Y084661D01*
X042469Y084733D02*X042443Y084661D01*X042526Y084733D02*X042547Y084661D01*
X042526Y084697D02*X042573Y084661D01*X043134Y085388D02*X043134Y084661D01*
X043165Y085364D02*X043165Y084697D01*X043201Y085388D02*X043201Y084661D01*
X043040Y085388D02*X043560Y085388D01*X043560Y085182D01*X043201Y085048D02*
X043394Y085048D01*X043394Y085182D02*X043394Y084903D01*X043040Y084661D02*
X043560Y084661D01*X043560Y084867D01*X043071Y085388D02*X043134Y085364D01*
X043102Y085388D02*X043134Y085327D01*X043232Y085388D02*X043201Y085327D01*
X043264Y085388D02*X043201Y085364D01*X043394Y085388D02*X043560Y085364D01*
X043461Y085388D02*X043560Y085327D01*X043492Y085388D02*X043560Y085291D01*
X043524Y085388D02*X043560Y085182D01*X043394Y085182D02*X043362Y085048D01*
X043394Y084903D01*X043394Y085121D02*X043331Y085048D01*X043394Y084976D01*
X043394Y085085D02*X043264Y085048D01*X043394Y085012D01*X043134Y084697D02*
X043071Y084661D01*X043134Y084733D02*X043102Y084661D01*X043201Y084733D02*
X043232Y084661D01*X043201Y084697D02*X043264Y084661D01*X043394Y084661D02*
X043560Y084697D01*X043461Y084661D02*X043560Y084733D01*X043492Y084661D02*
X043560Y084770D01*X043524Y084661D02*X043560Y084867D01*X043923Y085388D02*
X043923Y084661D01*X043954Y085364D02*X043954Y084697D01*X043980Y085388D02*
X043980Y084661D01*X043840Y085388D02*X044183Y085388D01*X044272Y085364D01*
X044298Y085327D01*X044329Y085255D01*X044329Y085182D01*X044298Y085121D01*
X044272Y085085D01*X044183Y085048D01*X043980Y085048D01*X044272Y085327D02*
X044298Y085255D01*X044298Y085182D01*X044272Y085121D01*X044183Y085388D02*
X044240Y085364D01*X044272Y085291D01*X044272Y085145D01*X044240Y085085D01*
X044183Y085048D01*X044095Y085048D02*X044157Y085012D01*X044183Y084939D01*
X044240Y084733D01*X044272Y084661D01*X044329Y084661D01*X044360Y084733D01*
X044360Y084806D01*X044240Y084806D02*X044272Y084733D01*X044298Y084697D01*
X044329Y084697D01*X044157Y085012D02*X044183Y084976D01*X044272Y084770D01*
X044298Y084733D01*X044329Y084733D01*X044360Y084770D01*X043840Y084661D02*
X044069Y084661D01*X043866Y085388D02*X043923Y085364D01*X043897Y085388D02*
X043923Y085327D01*X044012Y085388D02*X043980Y085327D01*X044038Y085388D02*
X043980Y085364D01*X043923Y084697D02*X043866Y084661D01*X043923Y084733D02*
X043897Y084661D01*X043980Y084733D02*X044012Y084661D01*X043980Y084697D02*
X044038Y084661D01*X045513Y085388D02*X045513Y084697D01*X045513Y085388D02*
X045877Y084661D01*X045544Y085388D02*X045851Y084770D01*X045565Y085388D02*
X045877Y084770D01*X045877Y085364D02*X045877Y084661D01*X045440Y085388D02*
X045565Y085388D01*X045804Y085388D02*X045960Y085388D01*X045440Y084661D02*
X045591Y084661D01*X045461Y085388D02*X045513Y085364D01*X045830Y085388D02*
X045877Y085364D01*X045934Y085388D02*X045877Y085364D01*X045513Y084697D02*
X045461Y084661D01*X045513Y084697D02*X045565Y084661D01*X046500Y085388D02*
X046297Y084697D01*X046469Y085291D02*X046640Y084661D01*X046500Y085291D02*
X046672Y084661D01*X046500Y085388D02*X046698Y084661D01*X046354Y084867D02*
X046614Y084867D01*X046240Y084661D02*X046412Y084661D01*X046557Y084661D02*
X046760Y084661D01*X046297Y084697D02*X046266Y084661D01*X046297Y084697D02*
X046354Y084661D01*X046640Y084697D02*X046583Y084661D01*X046640Y084733D02*
X046614Y084661D01*X046672Y084733D02*X046729Y084661D01*X047108Y085388D02*
X047108Y084697D01*X047108Y085388D02*X047274Y084661D01*X047134Y085388D02*
X047274Y084770D01*X047154Y085388D02*X047295Y084770D01*X047440Y085388D02*
X047274Y084661D01*X047440Y085388D02*X047440Y084661D01*X047461Y085364D02*
X047461Y084697D01*X047487Y085388D02*X047487Y084661D01*X047040Y085388D02*
X047154Y085388D01*X047440Y085388D02*X047560Y085388D01*X047040Y084661D02*
X047180Y084661D01*X047368Y084661D02*X047560Y084661D01*X047061Y085388D02*
X047108Y085364D01*X047508Y085388D02*X047487Y085327D01*X047534Y085388D02*
X047487Y085364D01*X047108Y084697D02*X047061Y084661D01*X047108Y084697D02*
X047154Y084661D01*X047440Y084697D02*X047394Y084661D01*X047440Y084733D02*
X047414Y084661D01*X047487Y084733D02*X047508Y084661D01*X047487Y084697D02*
X047534Y084661D01*X047934Y085388D02*X047934Y084661D01*X047965Y085364D02*
X047965Y084697D01*X048001Y085388D02*X048001Y084661D01*X047840Y085388D02*
X048360Y085388D01*X048360Y085182D01*X048001Y085048D02*X048194Y085048D01*
X048194Y085182D02*X048194Y084903D01*X047840Y084661D02*X048360Y084661D01*
X048360Y084867D01*X047871Y085388D02*X047934Y085364D01*X047902Y085388D02*
X047934Y085327D01*X048032Y085388D02*X048001Y085327D01*X048064Y085388D02*
X048001Y085364D01*X048194Y085388D02*X048360Y085364D01*X048261Y085388D02*
X048360Y085327D01*X048292Y085388D02*X048360Y085291D01*X048324Y085388D02*
X048360Y085182D01*X048194Y085182D02*X048162Y085048D01*X048194Y084903D01*
X048194Y085121D02*X048131Y085048D01*X048194Y084976D01*X048194Y085085D02*
X048064Y085048D01*X048194Y085012D01*X047934Y084697D02*X047871Y084661D01*
X047934Y084733D02*X047902Y084661D01*X048001Y084733D02*X048032Y084661D01*
X048001Y084697D02*X048064Y084661D01*X048194Y084661D02*X048360Y084697D01*
X048261Y084661D02*X048360Y084733D01*X048292Y084661D02*X048360Y084770D01*
X048324Y084661D02*X048360Y084867D01*X026708Y085388D02*X026708Y084697D01*
X026708Y085388D02*X026874Y084661D01*X026734Y085388D02*X026874Y084770D01*
X026754Y085388D02*X026895Y084770D01*X027040Y085388D02*X026874Y084661D01*
X027040Y085388D02*X027040Y084661D01*X027061Y085364D02*X027061Y084697D01*
X027087Y085388D02*X027087Y084661D01*X026640Y085388D02*X026754Y085388D01*
X027040Y085388D02*X027160Y085388D01*X026640Y084661D02*X026780Y084661D01*
X026968Y084661D02*X027160Y084661D01*X026661Y085388D02*X026708Y085364D01*
X027108Y085388D02*X027087Y085327D01*X027134Y085388D02*X027087Y085364D01*
X026708Y084697D02*X026661Y084661D01*X026708Y084697D02*X026754Y084661D01*
X027040Y084697D02*X026994Y084661D01*X027040Y084733D02*X027014Y084661D01*
X027087Y084733D02*X027108Y084661D01*X027087Y084697D02*X027134Y084661D01*
X027664Y085388D02*X027570Y085364D01*X027502Y085291D01*X027471Y085218D01*
X027440Y085085D01*X027440Y084976D01*X027471Y084830D01*X027502Y084770D01*
X027570Y084697D01*X027664Y084661D01*X027731Y084661D01*X027830Y084697D01*
X027892Y084770D01*X027924Y084830D01*X027960Y084976D01*X027960Y085085D01*
X027924Y085218D01*X027892Y085291D01*X027830Y085364D01*X027731Y085388D01*
X027664Y085388D01*X027534Y085291D02*X027502Y085218D01*X027471Y085121D01*
X027471Y084939D01*X027502Y084830D01*X027534Y084770D01*X027861Y084770D02*
X027892Y084830D01*X027924Y084939D01*X027924Y085121D01*X027892Y085218D01*
X027861Y085291D01*X027664Y085388D02*X027601Y085364D01*X027534Y085255D01*
X027502Y085121D01*X027502Y084939D01*X027534Y084806D01*X027601Y084697D01*
X027664Y084661D01*X027731Y084661D02*X027794Y084697D01*X027861Y084806D01*
X027892Y084939D01*X027892Y085121D01*X027861Y085255D01*X027794Y085364D01*
X027731Y085388D01*X028328Y085388D02*X028328Y084661D01*X028360Y085364D02*
X028360Y084697D01*X028391Y085388D02*X028391Y084661D01*X028240Y085388D02*
X028542Y085388D01*X028635Y085364D01*X028698Y085291D01*X028729Y085218D01*
X028760Y085121D01*X028760Y084939D01*X028729Y084830D01*X028698Y084770D01*
X028635Y084697D01*X028542Y084661D01*X028240Y084661D01*X028666Y085291D02*
X028698Y085218D01*X028729Y085121D01*X028729Y084939D01*X028698Y084830D01*
X028666Y084770D01*X028542Y085388D02*X028604Y085364D01*X028666Y085255D01*
X028698Y085121D01*X028698Y084939D01*X028666Y084806D01*X028604Y084697D01*
X028542Y084661D01*X028266Y085388D02*X028328Y085364D01*X028297Y085388D02*
X028328Y085327D01*X028422Y085388D02*X028391Y085327D01*X028453Y085388D02*
X028391Y085364D01*X028328Y084697D02*X028266Y084661D01*X028328Y084733D02*
X028297Y084661D01*X028391Y084733D02*X028422Y084661D01*X028391Y084697D02*
X028453Y084661D01*X029134Y085388D02*X029134Y084661D01*X029165Y085364D02*
X029165Y084697D01*X029201Y085388D02*X029201Y084661D01*X029040Y085388D02*
X029560Y085388D01*X029560Y085182D01*X029201Y085048D02*X029394Y085048D01*
X029394Y085182D02*X029394Y084903D01*X029040Y084661D02*X029560Y084661D01*
X029560Y084867D01*X029071Y085388D02*X029134Y085364D01*X029102Y085388D02*
X029134Y085327D01*X029232Y085388D02*X029201Y085327D01*X029264Y085388D02*
X029201Y085364D01*X029394Y085388D02*X029560Y085364D01*X029461Y085388D02*
X029560Y085327D01*X029492Y085388D02*X029560Y085291D01*X029524Y085388D02*
X029560Y085182D01*X029394Y085182D02*X029362Y085048D01*X029394Y084903D01*
X029394Y085121D02*X029331Y085048D01*X029394Y084976D01*X029394Y085085D02*
X029264Y085048D01*X029394Y085012D01*X029134Y084697D02*X029071Y084661D01*
X029134Y084733D02*X029102Y084661D01*X029201Y084733D02*X029232Y084661D01*
X029201Y084697D02*X029264Y084661D01*X029394Y084661D02*X029560Y084697D01*
X029461Y084661D02*X029560Y084733D01*X029492Y084661D02*X029560Y084770D01*
X029524Y084661D02*X029560Y084867D01*X029944Y085388D02*X029944Y084661D01*
X029975Y085364D02*X029975Y084697D01*X030012Y085388D02*X030012Y084661D01*
X029840Y085388D02*X030116Y085388D01*X029840Y084661D02*X030360Y084661D01*
X030360Y084867D01*X029871Y085388D02*X029944Y085364D01*X029908Y085388D02*
X029944Y085327D01*X030048Y085388D02*X030012Y085327D01*X030079Y085388D02*
X030012Y085364D01*X029944Y084697D02*X029871Y084661D01*X029944Y084733D02*
X029908Y084661D01*X030012Y084733D02*X030048Y084661D01*X030012Y084697D02*
X030079Y084661D01*X030183Y084661D02*X030360Y084697D01*X030251Y084661D02*
X030360Y084733D01*X030287Y084661D02*X030360Y084770D01*X030324Y084661D02*
X030360Y084867D01*X031513Y085388D02*X031513Y084697D01*X031513Y085388D02*
X031877Y084661D01*X031544Y085388D02*X031851Y084770D01*X031565Y085388D02*
X031877Y084770D01*X031877Y085364D02*X031877Y084661D01*X031440Y085388D02*
X031565Y085388D01*X031804Y085388D02*X031960Y085388D01*X031440Y084661D02*
X031591Y084661D01*X031461Y085388D02*X031513Y085364D01*X031830Y085388D02*
X031877Y085364D01*X031934Y085388D02*X031877Y085364D01*X031513Y084697D02*
X031461Y084661D01*X031513Y084697D02*X031565Y084661D01*X032500Y085388D02*
X032297Y084697D01*X032469Y085291D02*X032640Y084661D01*X032500Y085291D02*
X032672Y084661D01*X032500Y085388D02*X032698Y084661D01*X032354Y084867D02*
X032614Y084867D01*X032240Y084661D02*X032412Y084661D01*X032557Y084661D02*
X032760Y084661D01*X032297Y084697D02*X032266Y084661D01*X032297Y084697D02*
X032354Y084661D01*X032640Y084697D02*X032583Y084661D01*X032640Y084733D02*
X032614Y084661D01*X032672Y084733D02*X032729Y084661D01*X033108Y085388D02*
X033108Y084697D01*X033108Y085388D02*X033274Y084661D01*X033134Y085388D02*
X033274Y084770D01*X033154Y085388D02*X033295Y084770D01*X033440Y085388D02*
X033274Y084661D01*X033440Y085388D02*X033440Y084661D01*X033461Y085364D02*
X033461Y084697D01*X033487Y085388D02*X033487Y084661D01*X033040Y085388D02*
X033154Y085388D01*X033440Y085388D02*X033560Y085388D01*X033040Y084661D02*
X033180Y084661D01*X033368Y084661D02*X033560Y084661D01*X033061Y085388D02*
X033108Y085364D01*X033508Y085388D02*X033487Y085327D01*X033534Y085388D02*
X033487Y085364D01*X033108Y084697D02*X033061Y084661D01*X033108Y084697D02*
X033154Y084661D01*X033440Y084697D02*X033394Y084661D01*X033440Y084733D02*
X033414Y084661D01*X033487Y084733D02*X033508Y084661D01*X033487Y084697D02*
X033534Y084661D01*X033934Y085388D02*X033934Y084661D01*X033965Y085364D02*
X033965Y084697D01*X034001Y085388D02*X034001Y084661D01*X033840Y085388D02*
X034360Y085388D01*X034360Y085182D01*X034001Y085048D02*X034194Y085048D01*
X034194Y085182D02*X034194Y084903D01*X033840Y084661D02*X034360Y084661D01*
X034360Y084867D01*X033871Y085388D02*X033934Y085364D01*X033902Y085388D02*
X033934Y085327D01*X034032Y085388D02*X034001Y085327D01*X034064Y085388D02*
X034001Y085364D01*X034194Y085388D02*X034360Y085364D01*X034261Y085388D02*
X034360Y085327D01*X034292Y085388D02*X034360Y085291D01*X034324Y085388D02*
X034360Y085182D01*X034194Y085182D02*X034162Y085048D01*X034194Y084903D01*
X034194Y085121D02*X034131Y085048D01*X034194Y084976D01*X034194Y085085D02*
X034064Y085048D01*X034194Y085012D01*X033934Y084697D02*X033871Y084661D01*
X033934Y084733D02*X033902Y084661D01*X034001Y084733D02*X034032Y084661D01*
X034001Y084697D02*X034064Y084661D01*X034194Y084661D02*X034360Y084697D01*
X034261Y084661D02*X034360Y084733D01*X034292Y084661D02*X034360Y084770D01*
X034324Y084661D02*X034360Y084867D01*X029513Y083388D02*X029513Y082867D01*
X029539Y082770D01*X029591Y082697D01*X029674Y082661D01*X029721Y082661D01*
X029804Y082697D01*X029851Y082770D01*X029877Y082867D01*X029877Y083364D01*
X029539Y083364D02*X029539Y082830D01*X029570Y082770D01*X029570Y083388D02*
X029570Y082830D01*X029591Y082733D01*X029617Y082697D01*X029674Y082661D01*
X029440Y083388D02*X029643Y083388D01*X029804Y083388D02*X029960Y083388D01*
X029461Y083388D02*X029513Y083364D01*X029487Y083388D02*X029513Y083327D01*
X029591Y083388D02*X029570Y083327D01*X029617Y083388D02*X029570Y083364D01*
X029825Y083388D02*X029877Y083364D01*X029934Y083388D02*X029877Y083364D01*
X030718Y083291D02*X030760Y083388D01*X030760Y083182D01*X030718Y083291D01*
X030646Y083364D01*X030531Y083388D01*X030422Y083388D01*X030313Y083364D01*
X030240Y083291D01*X030240Y083182D01*X030276Y083121D01*X030386Y083048D01*
X030609Y082976D01*X030682Y082939D01*X030718Y082867D01*X030718Y082770D01*
X030682Y082697D01*X030276Y083182D02*X030313Y083121D01*X030386Y083085D01*
X030609Y083012D01*X030682Y082976D01*X030718Y082903D01*X030313Y083364D02*
X030276Y083291D01*X030276Y083218D01*X030313Y083145D01*X030386Y083121D01*
X030609Y083048D01*X030718Y082976D01*X030760Y082903D01*X030760Y082806D01*
X030718Y082733D01*X030682Y082697D01*X030573Y082661D01*X030458Y082661D01*
X030349Y082697D01*X030276Y082770D01*X030240Y082867D01*X030240Y082661D01*
X030276Y082770D01*X031108Y083388D02*X031108Y082697D01*X031108Y083388D02*
X031274Y082661D01*X031134Y083388D02*X031274Y082770D01*X031154Y083388D02*
X031295Y082770D01*X031440Y083388D02*X031274Y082661D01*X031440Y083388D02*
X031440Y082661D01*X031461Y083364D02*X031461Y082697D01*X031487Y083388D02*
X031487Y082661D01*X031040Y083388D02*X031154Y083388D01*X031440Y083388D02*
X031560Y083388D01*X031040Y082661D02*X031180Y082661D01*X031368Y082661D02*
X031560Y082661D01*X031061Y083388D02*X031108Y083364D01*X031508Y083388D02*
X031487Y083327D01*X031534Y083388D02*X031487Y083364D01*X031108Y082697D02*
X031061Y082661D01*X031108Y082697D02*X031154Y082661D01*X031440Y082697D02*
X031394Y082661D01*X031440Y082733D02*X031414Y082661D01*X031487Y082733D02*
X031508Y082661D01*X031487Y082697D02*X031534Y082661D01*X043134Y083388D02*
X043134Y082661D01*X043170Y083364D02*X043170Y082697D01*X043201Y083388D02*
X043201Y082661D01*X043040Y083388D02*X043560Y083388D01*X043560Y083182D01*
X043201Y083048D02*X043394Y083048D01*X043394Y083182D02*X043394Y082903D01*
X043040Y082661D02*X043300Y082661D01*X043071Y083388D02*X043134Y083364D01*
X043102Y083388D02*X043134Y083327D01*X043232Y083388D02*X043201Y083327D01*
X043264Y083388D02*X043201Y083364D01*X043394Y083388D02*X043560Y083364D01*
X043461Y083388D02*X043560Y083327D01*X043492Y083388D02*X043560Y083291D01*
X043524Y083388D02*X043560Y083182D01*X043394Y083182D02*X043362Y083048D01*
X043394Y082903D01*X043394Y083121D02*X043331Y083048D01*X043394Y082976D01*
X043394Y083085D02*X043264Y083048D01*X043394Y083012D01*X043134Y082697D02*
X043071Y082661D01*X043134Y082733D02*X043102Y082661D01*X043201Y082733D02*
X043232Y082661D01*X043201Y082697D02*X043264Y082661D01*X044079Y083388D02*
X044079Y082661D01*X044095Y083364D02*X044095Y082697D01*X044116Y083388D02*
X044116Y082661D01*X044032Y083388D02*X044162Y083388D01*X044032Y082661D02*
X044162Y082661D01*X044048Y083388D02*X044079Y083364D01*X044064Y083388D02*
X044079Y083327D01*X044131Y083388D02*X044116Y083327D01*X044147Y083388D02*
X044116Y083364D01*X044079Y082697D02*X044048Y082661D01*X044079Y082733D02*
X044064Y082661D01*X044116Y082733D02*X044131Y082661D01*X044116Y082697D02*
X044147Y082661D01*X044697Y083388D02*X045040Y082661D01*X044723Y083388D02*
X045072Y082661D01*X044754Y083388D02*X045098Y082661D01*X045072Y083364D02*
X044723Y082697D01*X044640Y083388D02*X044838Y083388D01*X044983Y083388D02*
X045160Y083388D01*X044640Y082661D02*X044812Y082661D01*X044957Y082661D02*
X045160Y082661D01*X044666Y083388D02*X044754Y083327D01*X044780Y083388D02*
X044754Y083327D01*X044812Y083388D02*X044754Y083364D01*X045014Y083388D02*
X045072Y083364D01*X045129Y083388D02*X045072Y083364D01*X044723Y082697D02*
X044666Y082661D01*X044723Y082697D02*X044780Y082661D01*X045040Y082697D02*
X044983Y082661D01*X045040Y082733D02*X045014Y082661D01*X045040Y082733D02*
X045129Y082661D01*X045476Y083255D02*X045476Y083218D01*X045513Y083218D01*
X045513Y083255D01*X045476Y083255D01*X045476Y083291D02*X045513Y083291D01*
X045549Y083255D01*X045549Y083218D01*X045513Y083182D01*X045476Y083182D01*
X045440Y083218D01*X045440Y083255D01*X045476Y083327D01*X045513Y083364D01*
X045622Y083388D01*X045773Y083388D01*X045882Y083364D01*X045918Y083327D01*
X045960Y083255D01*X045960Y083182D01*X045918Y083121D01*X045809Y083048D01*
X045622Y082976D01*X045549Y082939D01*X045476Y082867D01*X045440Y082770D01*
X045440Y082661D01*X045882Y083327D02*X045918Y083255D01*X045918Y083182D01*
X045882Y083121D01*X045773Y083388D02*X045846Y083364D01*X045882Y083255D01*
X045882Y083182D01*X045846Y083121D01*X045773Y083048D01*X045622Y082976D01*
X045440Y082733D02*X045476Y082770D01*X045549Y082770D01*X045731Y082733D01*
X045882Y082733D01*X045960Y082770D01*X045549Y082770D02*X045731Y082697D01*
X045882Y082697D01*X045918Y082733D01*X045549Y082770D02*X045731Y082661D01*
X045882Y082661D01*X045918Y082697D01*X045960Y082770D01*X045960Y082830D01*
X000000Y000000D02*
G36*X019888Y084259D02*X019888Y084283D01*X020333Y084283D01*X020333Y084259D01*
X020357Y084259D01*X020357Y084234D01*X020407Y084234D01*X020407Y084209D01*
X020432Y084209D01*X020432Y084184D01*X020456Y084184D01*X020456Y084160D01*
X020481Y084160D01*X020481Y084135D01*X020506Y084135D01*X020506Y084110D01*
X020530Y084110D01*X020530Y084086D01*X020555Y084086D01*X020555Y084061D01*
X020580Y084061D01*X020580Y084036D01*X020604Y084036D01*X020604Y084012D01*
X020654Y084012D01*X020654Y083987D01*X020678Y083987D01*X020678Y083962D01*
X020703Y083962D01*X020703Y083938D01*X020728Y083938D01*X020728Y083913D01*
X020752Y083913D01*X020752Y083888D01*X020802Y083888D01*X020802Y083913D01*
X020851Y083913D01*X020851Y083938D01*X020901Y083938D01*X020901Y083962D01*
X020925Y083962D01*X020925Y083987D01*X020975Y083987D01*X020975Y084012D01*
X020999Y084012D01*X020999Y084036D01*X021049Y084036D01*X021049Y084061D01*
X021098Y084061D01*X021098Y084086D01*X021123Y084086D01*X021123Y084110D01*
X021172Y084110D01*X021172Y084135D01*X021197Y084135D01*X021197Y084160D01*
X021246Y084160D01*X021246Y084184D01*X021271Y084184D01*X021271Y084209D01*
X021320Y084209D01*X021320Y084234D01*X021345Y084234D01*X021345Y084259D01*
X021394Y084259D01*X021394Y084283D01*X021913Y084283D01*X021913Y084259D01*
X021863Y084259D01*X021863Y084234D01*X021839Y084234D01*X021839Y084209D01*
X021789Y084209D01*X021789Y084184D01*X021765Y084184D01*X021765Y084160D01*
X021715Y084160D01*X021715Y084135D01*X021691Y084135D01*X021691Y084110D01*
X021641Y084110D01*X021641Y084086D01*X021617Y084086D01*X021617Y084061D01*
X021567Y084061D01*X021567Y084036D01*X021543Y084036D01*X021543Y084012D01*
X021493Y084012D01*X021493Y083987D01*X021468Y083987D01*X021468Y083962D01*
X021419Y083962D01*X021419Y083938D01*X021394Y083938D01*X021394Y083913D01*
X021345Y083913D01*X021345Y083888D01*X021320Y083888D01*X021320Y083864D01*
X021271Y083864D01*X021271Y083839D01*X021246Y083839D01*X021246Y083814D01*
X021197Y083814D01*X021197Y083789D01*X021172Y083789D01*X021172Y083765D01*
X021123Y083765D01*X021123Y083740D01*X021098Y083740D01*X021098Y083715D01*
X021049Y083715D01*X021049Y083666D01*X020506Y083666D01*X020506Y083740D01*
X020481Y083740D01*X020481Y083765D01*X020432Y083765D01*X020432Y083789D01*
X020407Y083789D01*X020407Y083814D01*X020382Y083814D01*X020382Y083839D01*
X020357Y083839D01*X020357Y083864D01*X020333Y083864D01*X020333Y083888D01*
X020308Y083888D01*X020308Y083913D01*X020283Y083913D01*X020283Y083938D01*
X020259Y083938D01*X020259Y083962D01*X020209Y083962D01*X020209Y083987D01*
X020185Y083987D01*X020185Y084012D01*X020160Y084012D01*X020160Y084036D01*
X020135Y084036D01*X020135Y084061D01*X020111Y084061D01*X020111Y084086D01*
X020086Y084086D01*X020086Y084110D01*X020061Y084110D01*X020061Y084135D01*
X020012Y084135D01*X020012Y084160D01*X019987Y084160D01*X019987Y084184D01*
X019962Y084184D01*X019962Y084209D01*X019938Y084209D01*X019938Y084234D01*
X019913Y084234D01*X019913Y084259D01*X019888Y084259D01*G37*G36*X019962Y083320D02*
X019962Y083345D01*X020012Y083345D01*X020012Y083370D01*X020037Y083370D01*
X020037Y083394D01*X020086Y083394D01*X020086Y083419D01*X020135Y083419D01*
X020135Y083444D01*X020160Y083444D01*X020160Y083469D01*X020209Y083469D01*
X020209Y083493D01*X020234Y083493D01*X020234Y083518D01*X020259Y083518D01*
X020259Y083543D01*X020308Y083543D01*X020308Y083567D01*X020357Y083567D01*
X020357Y083592D01*X020382Y083592D01*X020382Y083617D01*X020432Y083617D01*
X020432Y083641D01*X020456Y083641D01*X020456Y083666D01*X021073Y083666D01*
X021073Y083641D01*X021098Y083641D01*X021098Y083617D01*X021148Y083617D01*
X021148Y083592D01*X021172Y083592D01*X021172Y083567D01*X021197Y083567D01*
X021197Y083543D01*X021222Y083543D01*X021222Y083518D01*X021271Y083518D01*
X021271Y083493D01*X021296Y083493D01*X021296Y083469D01*X021320Y083469D01*
X021320Y083444D01*X021345Y083444D01*X021345Y083419D01*X021394Y083419D01*
X021394Y083394D01*X021419Y083394D01*X021419Y083370D01*X021444Y083370D01*
X021444Y083345D01*X021468Y083345D01*X021468Y083320D01*X021518Y083320D01*
X021518Y083296D01*X021543Y083296D01*X021543Y083271D01*X021567Y083271D01*
X021567Y083246D01*X021592Y083246D01*X021592Y083222D01*X021617Y083222D01*
X021617Y083197D01*X021666Y083197D01*X021666Y083172D01*X021691Y083172D01*
X021691Y083148D01*X021715Y083148D01*X021715Y083123D01*X021740Y083123D01*
X021740Y083098D01*X021222Y083098D01*X021222Y083123D01*X021172Y083123D01*
X021172Y083148D01*X021148Y083148D01*X021148Y083172D01*X021123Y083172D01*
X021123Y083197D01*X021098Y083197D01*X021098Y083222D01*X021073Y083222D01*
X021073Y083246D01*X021049Y083246D01*X021049Y083271D01*X020999Y083271D01*
X020999Y083296D01*X020975Y083296D01*X020975Y083320D01*X020950Y083320D01*
X020950Y083345D01*X020925Y083345D01*X020925Y083370D01*X020901Y083370D01*
X020901Y083394D01*X020876Y083394D01*X020876Y083419D01*X020827Y083419D01*
X020827Y083444D01*X020802Y083444D01*X020802Y083469D01*X020777Y083469D01*
X020777Y083493D01*X020728Y083493D01*X020728Y083469D01*X020678Y083469D01*
X020678Y083444D01*X020654Y083444D01*X020654Y083419D01*X020604Y083419D01*
X020604Y083394D01*X020555Y083394D01*X020555Y083370D01*X020530Y083370D01*
X020530Y083345D01*X020481Y083345D01*X020481Y083320D01*X019962Y083320D01*G37*G36*
X017938Y084802D02*X017963Y084802D01*X017963Y084777D01*X018012Y084777D01*
X018012Y084752D01*X018061Y084752D01*X018061Y084777D01*X018111Y084777D01*
X018111Y084802D01*X018160Y084802D01*X018160Y084826D01*X018210Y084826D01*
X018210Y084851D01*X018234Y084851D01*X018234Y084876D01*X018259Y084876D01*
X018259Y084900D01*X018284Y084900D01*X018284Y084925D01*X018308Y084925D01*
X018308Y084950D01*X018333Y084950D01*X018333Y084999D01*X018358Y084999D01*
X018358Y085024D01*X018382Y085024D01*X018382Y085073D01*X018407Y085073D01*
X018407Y085172D01*X018432Y085172D01*X018432Y085370D01*X018407Y085370D01*
X018407Y085444D01*X018234Y085444D01*X018234Y085394D01*X018259Y085394D01*
X018259Y085147D01*X018234Y085147D01*X018234Y085098D01*X018210Y085098D01*
X018210Y085049D01*X018185Y085049D01*X018185Y085024D01*X018160Y085024D01*
X018160Y084999D01*X018135Y084999D01*X018135Y084975D01*X018086Y084975D01*
X018086Y084950D01*X018037Y084950D01*X018037Y084925D01*X017987Y084925D01*
X017987Y084900D01*X017963Y084900D01*X017963Y084876D01*X017938Y084876D01*
X017938Y084802D01*G37*G36*X017420Y085468D02*X017617Y085468D01*X017617Y085493D01*
X017642Y085493D01*X017642Y085542D01*X017666Y085542D01*X017666Y085567D01*
X017716Y085567D01*X017716Y085592D01*X017765Y085592D01*X017765Y085616D01*
X017864Y085616D01*X017864Y085641D01*X017963Y085641D01*X017963Y085616D01*
X018061Y085616D01*X018061Y085592D01*X018086Y085592D01*X018086Y085567D01*
X018135Y085567D01*X018135Y085542D01*X018160Y085542D01*X018160Y085518D01*
X018185Y085518D01*X018185Y085493D01*X018210Y085493D01*X018210Y085444D01*
X018407Y085444D01*X018407Y085468D01*X018382Y085468D01*X018382Y085518D01*
X018358Y085518D01*X018358Y085567D01*X018333Y085567D01*X018333Y085592D01*
X018308Y085592D01*X018308Y085616D01*X018284Y085616D01*X018284Y085641D01*
X018259Y085641D01*X018259Y085666D01*X018234Y085666D01*X018234Y085691D01*
X018210Y085691D01*X018210Y085715D01*X018160Y085715D01*X018160Y085740D01*
X018111Y085740D01*X018111Y085765D01*X018037Y085765D01*X018037Y085789D01*
X017765Y085789D01*X017765Y085765D01*X017691Y085765D01*X017691Y085740D01*
X017642Y085740D01*X017642Y085715D01*X017617Y085715D01*X017617Y085691D01*
X017568Y085691D01*X017568Y085666D01*X017543Y085666D01*X017543Y085641D01*
X017518Y085641D01*X017518Y085616D01*X017494Y085616D01*X017494Y085567D01*
X017469Y085567D01*X017469Y085542D01*X017444Y085542D01*X017444Y085493D01*
X017420Y085493D01*X017420Y085468D01*G37*G36*X017370Y085221D02*X017395Y085221D01*
X017395Y085123D01*X017420Y085123D01*X017420Y085049D01*X017444Y085049D01*
X017444Y084999D01*X017469Y084999D01*X017469Y084975D01*X017494Y084975D01*
X017494Y084925D01*X017518Y084925D01*X017518Y084900D01*X017568Y084900D01*
X017568Y084876D01*X017666Y084876D01*X017666Y084900D01*X017691Y084900D01*
X017691Y084999D01*X017666Y084999D01*X017666Y085024D01*X017642Y085024D01*
X017642Y085049D01*X017617Y085049D01*X017617Y085073D01*X017592Y085073D01*
X017592Y085123D01*X017568Y085123D01*X017568Y085197D01*X017543Y085197D01*
X017543Y085345D01*X017568Y085345D01*X017568Y085419D01*X017592Y085419D01*
X017592Y085468D01*X017420Y085468D01*X017420Y085444D01*X017395Y085444D01*
X017395Y085320D01*X017370Y085320D01*X017370Y085221D01*G37*G36*X016457Y084036D02*
X016481Y084036D01*X016481Y083987D01*X016506Y083987D01*X016506Y083962D01*
X016531Y083962D01*X016531Y083913D01*X016555Y083913D01*X016555Y083864D01*
X016580Y083864D01*X016580Y083814D01*X016605Y083814D01*X016605Y083765D01*
X016629Y083765D01*X016629Y083715D01*X016654Y083715D01*X016654Y083691D01*
X016679Y083691D01*X016679Y083641D01*X016704Y083641D01*X016704Y083592D01*
X016728Y083592D01*X016728Y083543D01*X016753Y083543D01*X016753Y083493D01*
X016778Y083493D01*X016778Y083444D01*X016802Y083444D01*X016802Y083419D01*
X016827Y083419D01*X016827Y083370D01*X016852Y083370D01*X016852Y083320D01*
X016876Y083320D01*X016876Y083271D01*X016901Y083271D01*X016901Y083222D01*
X016926Y083222D01*X016926Y083197D01*X016950Y083197D01*X016950Y083148D01*
X016975Y083148D01*X016975Y083098D01*X017543Y083098D01*X017543Y083172D01*
X017568Y083172D01*X017568Y083320D01*X017592Y083320D01*X017592Y083444D01*
X017617Y083444D01*X017617Y083592D01*X017642Y083592D01*X017642Y083740D01*
X017666Y083740D01*X017666Y083864D01*X017691Y083864D01*X017691Y084012D01*
X017716Y084012D01*X017716Y084135D01*X017740Y084135D01*X017740Y084283D01*
X017765Y084283D01*X017765Y084431D01*X017790Y084431D01*X017790Y084580D01*
X017815Y084580D01*X017815Y084703D01*X017839Y084703D01*X017839Y084851D01*
X017864Y084851D01*X017864Y084999D01*X017889Y084999D01*X017889Y085123D01*
X017913Y085123D01*X017913Y085221D01*X017889Y085221D01*X017889Y085172D01*
X017864Y085172D01*X017864Y085098D01*X017839Y085098D01*X017839Y085049D01*
X017815Y085049D01*X017815Y084999D01*X017790Y084999D01*X017790Y084950D01*
X017765Y084950D01*X017765Y084900D01*X017740Y084900D01*X017740Y084851D01*
X017716Y084851D01*X017716Y084802D01*X017691Y084802D01*X017691Y084752D01*
X017666Y084752D01*X017666Y084703D01*X017642Y084703D01*X017642Y084654D01*
X017617Y084654D01*X017617Y084604D01*X017592Y084604D01*X017592Y084530D01*
X017568Y084530D01*X017568Y084481D01*X017543Y084481D01*X017543Y084431D01*
X017518Y084431D01*X017518Y084382D01*X017494Y084382D01*X017494Y084333D01*
X017469Y084333D01*X017469Y084283D01*X017444Y084283D01*X017444Y084234D01*
X017420Y084234D01*X017420Y084184D01*X017395Y084184D01*X017395Y084135D01*
X017370Y084135D01*X017370Y084086D01*X017345Y084086D01*X017345Y084036D01*
X017321Y084036D01*X017321Y083962D01*X017296Y083962D01*X017296Y083913D01*
X017271Y083913D01*X017271Y083864D01*X017247Y083864D01*X017247Y083814D01*
X017222Y083814D01*X017222Y083765D01*X017197Y083765D01*X017197Y083715D01*
X017173Y083715D01*X017173Y083666D01*X017148Y083666D01*X017148Y083617D01*
X017099Y083617D01*X017099Y083641D01*X017074Y083641D01*X017074Y083691D01*
X017049Y083691D01*X017049Y083740D01*X017024Y083740D01*X017024Y083789D01*
X017000Y083789D01*X017000Y083839D01*X016975Y083839D01*X016975Y083864D01*
X016950Y083864D01*X016950Y083913D01*X016926Y083913D01*X016926Y083962D01*
X016901Y083962D01*X016901Y084012D01*X016876Y084012D01*X016876Y084061D01*
X016457Y084061D01*X016457Y084036D01*G37*G36*X015765Y084283D02*X015765Y084308D01*
X015790Y084308D01*X015790Y084456D01*X015815Y084456D01*X015815Y084604D01*
X015839Y084604D01*X015839Y084752D01*X015864Y084752D01*X015864Y084851D01*
X016432Y084851D01*X016432Y084826D01*X016457Y084826D01*X016457Y084777D01*
X016481Y084777D01*X016481Y084728D01*X016506Y084728D01*X016506Y084678D01*
X016531Y084678D01*X016531Y084654D01*X016555Y084654D01*X016555Y084604D01*
X016580Y084604D01*X016580Y084555D01*X016605Y084555D01*X016605Y084505D01*
X016629Y084505D01*X016629Y084456D01*X016654Y084456D01*X016654Y084407D01*
X016679Y084407D01*X016679Y084382D01*X016704Y084382D01*X016704Y084333D01*
X016728Y084333D01*X016728Y084283D01*X016753Y084283D01*X016753Y084234D01*
X016778Y084234D01*X016778Y084184D01*X016802Y084184D01*X016802Y084135D01*
X016827Y084135D01*X016827Y084110D01*X016852Y084110D01*X016852Y084061D01*
X016457Y084061D01*X016457Y084086D01*X016432Y084086D01*X016432Y084135D01*
X016407Y084135D01*X016407Y084184D01*X016383Y084184D01*X016383Y084234D01*
X016358Y084234D01*X016358Y084259D01*X016333Y084259D01*X016333Y084308D01*
X016309Y084308D01*X016309Y084357D01*X016284Y084357D01*X016284Y084333D01*
X016259Y084333D01*X016259Y084283D01*X015765Y084283D01*G37*G36*X015469Y082620D02*
X015469Y082644D01*X015494Y082644D01*X015494Y082620D01*X015469Y082620D01*G37*G36*
X014161Y083320D02*X014161Y083370D01*X014185Y083370D01*X014185Y083493D01*
X014210Y083493D01*X014210Y083617D01*X014235Y083617D01*X014235Y083740D01*
X014259Y083740D01*X014259Y083864D01*X014284Y083864D01*X014284Y083987D01*
X014309Y083987D01*X014309Y084110D01*X014333Y084110D01*X014333Y084160D01*
X014358Y084160D01*X014358Y084184D01*X014383Y084184D01*X014383Y084209D01*
X014407Y084209D01*X014407Y084234D01*X014457Y084234D01*X014457Y084259D01*
X014556Y084259D01*X014556Y084283D01*X016234Y084283D01*X016234Y084234D01*
X016210Y084234D01*X016210Y084160D01*X016185Y084160D01*X016185Y084110D01*
X016160Y084110D01*X016160Y084061D01*X016136Y084061D01*X016136Y084012D01*
X016111Y084012D01*X016111Y083938D01*X016086Y083938D01*X016086Y083888D01*
X016062Y083888D01*X016062Y083839D01*X016037Y083839D01*X016037Y083789D01*
X016012Y083789D01*X016012Y083715D01*X015988Y083715D01*X015988Y083666D01*
X015963Y083666D01*X015963Y083617D01*X015938Y083617D01*X015938Y083567D01*
X015913Y083567D01*X015913Y083518D01*X015889Y083518D01*X015889Y083444D01*
X015864Y083444D01*X015864Y083394D01*X015839Y083394D01*X015839Y083345D01*
X015815Y083345D01*X015815Y083296D01*X015790Y083296D01*X015790Y083222D01*
X015765Y083222D01*X015765Y083172D01*X015741Y083172D01*X015741Y083123D01*
X015716Y083123D01*X015716Y083073D01*X015691Y083073D01*X015691Y082999D01*
X015667Y082999D01*X015667Y082950D01*X015642Y082950D01*X015642Y082901D01*
X015617Y082901D01*X015617Y082851D01*X015593Y082851D01*X015593Y082777D01*
X015568Y082777D01*X015568Y082728D01*X015543Y082728D01*X015543Y082678D01*
X015518Y082678D01*X015518Y082629D01*X015494Y082629D01*X015494Y082728D01*
X015518Y082728D01*X015518Y082876D01*X015543Y082876D01*X015543Y083024D01*
X015568Y083024D01*X015568Y083148D01*X015593Y083148D01*X015593Y083296D01*
X015617Y083296D01*X015617Y083444D01*X015642Y083444D01*X015642Y083592D01*
X015667Y083592D01*X015667Y083740D01*X015691Y083740D01*X015691Y083888D01*
X015716Y083888D01*X015716Y084012D01*X015741Y084012D01*X015741Y084061D01*
X014901Y084061D01*X014901Y084036D01*X014852Y084036D01*X014852Y084012D01*
X014827Y084012D01*X014827Y083987D01*X014802Y083987D01*X014802Y083888D01*
X014778Y083888D01*X014778Y083765D01*X014753Y083765D01*X014753Y083641D01*
X014728Y083641D01*X014728Y083518D01*X014704Y083518D01*X014704Y083394D01*
X014679Y083394D01*X014679Y083320D01*X014161Y083320D01*G37*G36*X012062Y083271D02*
X012062Y083419D01*X012087Y083419D01*X012087Y083567D01*X012111Y083567D01*
X012111Y083592D01*X012605Y083592D01*X012605Y083493D01*X012581Y083493D01*
X012581Y083370D01*X012630Y083370D01*X012630Y083345D01*X012704Y083345D01*
X012704Y083320D01*X014679Y083320D01*X014679Y083271D01*X014654Y083271D01*
X014654Y083123D01*X014630Y083123D01*X014630Y083098D01*X012506Y083098D01*
X012506Y083123D01*X012309Y083123D01*X012309Y083148D01*X012235Y083148D01*
X012235Y083172D01*X012161Y083172D01*X012161Y083197D01*X012136Y083197D01*
X012136Y083222D01*X012111Y083222D01*X012111Y083246D01*X012087Y083246D01*
X012087Y083271D01*X012062Y083271D01*
G37*G36*X012111Y083592D02*X012111Y083691D01*
X012136Y083691D01*X012136Y083814D01*X012161Y083814D01*X012161Y083962D01*
X012185Y083962D01*X012185Y084086D01*X012210Y084086D01*X012210Y084160D01*
X012235Y084160D01*X012235Y084184D01*X012260Y084184D01*X012260Y084209D01*
X012284Y084209D01*X012284Y084234D01*X012334Y084234D01*X012334Y084259D01*
X012432Y084259D01*X012432Y084283D01*X014037Y084283D01*X014037Y084259D01*
X014087Y084259D01*X014087Y084234D01*X014111Y084234D01*X014111Y084209D01*
X014136Y084209D01*X014136Y083938D01*X014111Y083938D01*X014111Y083814D01*
X013617Y083814D01*X013617Y083913D01*X013642Y083913D01*X013642Y084036D01*
X013617Y084036D01*X013617Y084061D01*X012778Y084061D01*X012778Y084036D01*
X012729Y084036D01*X012729Y084012D01*X012704Y084012D01*X012704Y083987D01*
X012679Y083987D01*X012679Y083913D01*X012655Y083913D01*X012655Y083839D01*
X012630Y083839D01*X012630Y083814D01*X014111Y083814D01*X014111Y083765D01*
X014087Y083765D01*X014087Y083691D01*X014062Y083691D01*X014062Y083641D01*
X014012Y083641D01*X014012Y083617D01*X013988Y083617D01*X013988Y083592D01*
X012111Y083592D01*G37*G36*X010754Y083320D02*X010754Y083469D01*X010778Y083469D01*
X010778Y083592D01*X010803Y083592D01*X010803Y083740D01*X010828Y083740D01*
X010828Y083864D01*X010852Y083864D01*X010852Y083987D01*X010877Y083987D01*
X010877Y084135D01*X010902Y084135D01*X010902Y084259D01*X010926Y084259D01*
X010926Y084382D01*X010951Y084382D01*X010951Y084530D01*X010976Y084530D01*
X010976Y084654D01*X011000Y084654D01*X011000Y084752D01*X011544Y084752D01*
X011544Y084728D01*X011519Y084728D01*X011519Y084604D01*X011494Y084604D01*
X011494Y084505D01*X011470Y084505D01*X011470Y084382D01*X011445Y084382D01*
X011445Y084283D01*X012087Y084283D01*X012087Y084234D01*X012062Y084234D01*
X012062Y084086D01*X012037Y084086D01*X012037Y084061D01*X011395Y084061D01*
X011395Y083987D01*X011371Y083987D01*X011371Y083888D01*X011346Y083888D01*
X011346Y083765D01*X011321Y083765D01*X011321Y083641D01*X011297Y083641D01*
X011297Y083543D01*X011272Y083543D01*X011272Y083370D01*X011297Y083370D01*
X011297Y083345D01*X011346Y083345D01*X011346Y083320D01*X011963Y083320D01*
X011963Y083172D01*X011939Y083172D01*X011939Y083098D01*X011321Y083098D01*
X011321Y083123D01*X011050Y083123D01*X011050Y083148D01*X010976Y083148D01*
X010976Y083172D01*X010902Y083172D01*X010902Y083197D01*X010877Y083197D01*
X010877Y083222D01*X010828Y083222D01*X010828Y083246D01*X010803Y083246D01*
X010803Y083271D01*X010778Y083271D01*X010778Y083320D01*X010754Y083320D01*G37*G36*
X008606Y083123D02*X008606Y083197D01*X008630Y083197D01*X008630Y083320D01*
X008655Y083320D01*X008655Y083444D01*X008680Y083444D01*X008680Y083592D01*
X008704Y083592D01*X008704Y083691D01*X008729Y083691D01*X008729Y083839D01*
X008754Y083839D01*X008754Y083962D01*X008778Y083962D01*X008778Y084086D01*
X008803Y084086D01*X008803Y084184D01*X008828Y084184D01*X008828Y084283D01*
X010260Y084283D01*X010260Y084259D01*X010408Y084259D01*X010408Y084234D01*
X010482Y084234D01*X010482Y084209D01*X010556Y084209D01*X010556Y084184D01*
X010605Y084184D01*X010605Y084160D01*X010630Y084160D01*X010630Y084135D01*
X010679Y084135D01*X010679Y084086D01*X010704Y084086D01*X010704Y083913D01*
X010679Y083913D01*X010679Y083765D01*X010655Y083765D01*X010655Y083592D01*
X010630Y083592D01*X010630Y083444D01*X010605Y083444D01*X010605Y083296D01*
X010581Y083296D01*X010581Y083123D01*X010038Y083123D01*X010038Y083172D01*
X010062Y083172D01*X010062Y083296D01*X010087Y083296D01*X010087Y083469D01*
X010112Y083469D01*X010112Y083592D01*X010136Y083592D01*X010136Y083740D01*
X010161Y083740D01*X010161Y083864D01*X010186Y083864D01*X010186Y084012D01*
X010161Y084012D01*X010161Y084036D01*X010112Y084036D01*X010112Y084061D01*
X009297Y084061D01*X009297Y084036D01*X009272Y084036D01*X009272Y083888D01*
X009248Y083888D01*X009248Y083765D01*X009223Y083765D01*X009223Y083641D01*
X009198Y083641D01*X009198Y083493D01*X009173Y083493D01*X009173Y083394D01*
X009149Y083394D01*X009149Y083246D01*X009124Y083246D01*X009124Y083123D01*
X008606Y083123D01*G37*G36*X007840Y083098D02*X008408Y083098D01*X008408Y083148D01*
X008433Y083148D01*X008433Y083271D01*X008457Y083271D01*X008457Y083394D01*
X008482Y083394D01*X008482Y083518D01*X008507Y083518D01*X008507Y083641D01*
X008532Y083641D01*X008532Y083789D01*X008556Y083789D01*X008556Y083913D01*
X008581Y083913D01*X008581Y084036D01*X008606Y084036D01*X008606Y084160D01*
X008630Y084160D01*X008630Y084283D01*X008655Y084283D01*X008655Y084407D01*
X008680Y084407D01*X008680Y084555D01*X008704Y084555D01*X008704Y084678D01*
X008729Y084678D01*X008729Y084802D01*X008754Y084802D01*X008754Y084925D01*
X008778Y084925D01*X008778Y084975D01*X008186Y084975D01*X008186Y084974D01*
X008186Y084876D01*X008161Y084876D01*X008161Y084752D01*X008137Y084752D01*
X008137Y084629D01*X008112Y084629D01*X008112Y084481D01*X008087Y084481D01*
X008087Y084357D01*X008062Y084357D01*X008062Y084234D01*X008038Y084234D01*
X008038Y084110D01*X008013Y084110D01*X008013Y083987D01*X007988Y083987D01*
X007988Y083839D01*X007964Y083839D01*X007964Y083715D01*X007939Y083715D01*
X007939Y083592D01*X007914Y083592D01*X007914Y083469D01*X007890Y083469D01*
X007890Y083345D01*X007865Y083345D01*X007865Y083197D01*X007840Y083197D01*
X007840Y083098D01*G37*G36*X003100Y083731D02*X003125Y083731D01*X003125Y083657D01*
X003149Y083657D01*X003149Y083607D01*X003174Y083607D01*X003174Y083558D01*
X003199Y083558D01*X003199Y083508D01*X003224Y083508D01*X003224Y083484D01*
X003248Y083484D01*X003248Y083434D01*X003273Y083434D01*X003273Y083410D01*
X003298Y083410D01*X003298Y083385D01*X003322Y083385D01*X003322Y083360D01*
X003347Y083360D01*X003347Y083336D01*X003372Y083336D01*X003372Y083311D01*
X003396Y083311D01*X003396Y083286D01*X003446Y083286D01*X003446Y083262D01*
X003470Y083262D01*X003470Y083237D01*X003495Y083237D01*X003495Y083212D01*
X003544Y083212D01*X003544Y083188D01*X003569Y083188D01*X003569Y083163D01*
X003618Y083163D01*X003618Y083138D01*X003643Y083138D01*X003643Y083114D01*
X003692Y083114D01*X003692Y083089D01*X003717Y083089D01*X003717Y083064D01*
X003767Y083064D01*X003767Y083039D01*X003816Y083039D01*X003816Y083015D01*
X003866Y083015D01*X003866Y082990D01*X003914Y082990D01*X003914Y082965D01*
X003964Y082965D01*X003964Y082940D01*X004013Y082940D01*X004013Y082916D01*
X004062Y082916D01*X004062Y082891D01*X004112Y082891D01*X004112Y082866D01*
X004162Y082866D01*X004162Y082842D01*X004235Y082842D01*X004235Y082817D01*
X004260Y082817D01*X004260Y082792D01*X004335Y082792D01*X004335Y082768D01*
X004384Y082768D01*X004384Y082743D01*X004433Y082743D01*X004433Y082718D01*
X004482Y082718D01*X004482Y082694D01*X004532Y082694D01*X004532Y082743D01*
X004508Y082743D01*X004508Y083016D01*X004532Y083016D01*X004532Y083113D01*
X004556Y083113D01*X004556Y083188D01*X004582Y083188D01*X004582Y083262D01*
X004606Y083262D01*X004606Y083311D01*X004632Y083311D01*X004632Y083385D01*
X004656Y083385D01*X004656Y083434D01*X004680Y083434D01*X004680Y083459D01*
X004706Y083459D01*X004706Y083509D01*X004730Y083509D01*X004730Y083558D01*
X004754Y083558D01*X004754Y083607D01*X004779Y083607D01*X004779Y083657D01*
X004804Y083657D01*X004804Y083682D01*X004828Y083682D01*X004828Y083731D01*
X004852Y083731D01*X004852Y083756D01*X004878Y083756D01*X004878Y083804D01*
X004902Y083804D01*X004902Y083830D01*X004927Y083830D01*X004927Y083879D01*
X004952Y083879D01*X004952Y083904D01*X004976Y083904D01*X004976Y083953D01*
X005000Y083953D01*X005000Y084002D01*X005025Y084002D01*X005025Y084027D01*
X005051Y084027D01*X005051Y084076D01*X005075Y084076D01*X005075Y084101D01*
X005100Y084101D01*X005100Y084150D01*X005125Y084150D01*X005125Y084175D01*
X005150Y084175D01*X005150Y084224D01*X005174Y084224D01*X005174Y084274D01*
X005198Y084274D01*X005198Y084298D01*X005224Y084298D01*X005224Y084348D01*
X005248Y084348D01*X005248Y084398D01*X005273Y084398D01*X005273Y084446D01*
X005298Y084446D01*X005298Y084472D01*X004606Y084472D01*X004606Y084447D01*
X004581Y084447D01*X004581Y084471D01*X004557Y084471D01*X004557Y084446D01*
X004360Y084446D01*X004360Y084422D01*X004188Y084422D01*X004188Y084398D01*
X004088Y084398D01*X004088Y084373D01*X003988Y084373D01*X003988Y084348D01*
X003915Y084348D01*X003915Y084323D01*X003866Y084323D01*X003866Y084300D01*
X003790Y084300D01*X003790Y084273D01*X003742Y084273D01*X003742Y084249D01*
X003692Y084249D01*X003692Y084224D01*X003667Y084224D01*X003667Y084200D01*
X003618Y084200D01*X003618Y084175D01*X003592Y084175D01*X003592Y084150D01*
X003569Y084150D01*X003569Y084126D01*X003544Y084126D01*X003544Y084102D01*
X003520Y084102D01*X003520Y084076D01*X003495Y084076D01*X003495Y084125D01*
X003520Y084125D01*X003520Y084150D01*X003545Y084150D01*X003545Y084200D01*
X003569Y084200D01*X003569Y084224D01*X003593Y084224D01*X003593Y084250D01*
X003618Y084250D01*X003618Y084274D01*X003644Y084274D01*X003644Y084298D01*
X003668Y084298D01*X003668Y084324D01*X003693Y084324D01*X003693Y084347D01*
X003742Y084347D01*X003742Y084372D01*X003767Y084372D01*X003767Y084397D01*
X003791Y084397D01*X003791Y084421D01*X003841Y084421D01*X003841Y084446D01*
X003866Y084446D01*X003866Y084471D01*X003915Y084471D01*X003915Y084496D01*
X003964Y084496D01*X003964Y084521D01*X004014Y084521D01*X004014Y084545D01*
X004088Y084545D01*X004088Y084570D01*X004137Y084570D01*X004137Y084595D01*
X004211Y084595D01*X004211Y084620D01*X004286Y084620D01*X004286Y084644D01*
X004360Y084644D01*X004360Y084669D01*X004458Y084669D01*X004458Y084693D01*
X004557Y084693D01*X004557Y084718D01*X004680Y084718D01*X004680Y084743D01*
X004828Y084743D01*X004828Y084767D01*X005050Y084767D01*X005050Y084792D01*
X005693Y084792D01*X005693Y084817D01*X005889Y084817D01*X005889Y084841D01*
X005989Y084841D01*X005989Y084866D01*X006063Y084866D01*X006063Y084891D01*
X006138Y084891D01*X006138Y084916D01*X006285Y084916D01*X006285Y084891D01*
X006310Y084891D01*X006310Y084866D01*X006334Y084866D01*X006334Y084792D01*
X006310Y084792D01*X006310Y084718D01*X006285Y084718D01*X006285Y084669D01*
X006260Y084669D01*X006260Y084619D01*X006235Y084619D01*X006235Y084595D01*
X006211Y084595D01*X006211Y084546D01*X006186Y084546D01*X006186Y084521D01*
X006161Y084521D01*X006161Y084472D01*X006136Y084472D01*X006136Y084447D01*
X006112Y084447D01*X006112Y084398D01*X006088Y084398D01*X006088Y084372D01*
X006062Y084372D01*X006062Y084323D01*X006038Y084323D01*X006038Y084299D01*
X006013Y084299D01*X006013Y084274D01*X005989Y084274D01*X005989Y084249D01*
X005964Y084249D01*X005964Y084200D01*X005939Y084200D01*X005939Y084176D01*
X005915Y084176D01*X005915Y084151D01*X005890Y084151D01*X005890Y084101D01*
X005865Y084101D01*X005865Y084077D01*X005840Y084077D01*X005840Y084052D01*
X005816Y084052D01*X005816Y084002D01*X005791Y084002D01*X005791Y083978D01*
X005766Y083978D01*X005766Y083953D01*X005742Y083953D01*X005742Y083928D01*
X005717Y083928D01*X005717Y083879D01*X005692Y083879D01*X005692Y083854D01*
X005668Y083854D01*X005668Y083829D01*X005643Y083829D01*X005643Y083805D01*
X005618Y083805D01*X005618Y083755D01*X005594Y083755D01*X005594Y083731D01*
X005569Y083731D01*X005569Y083706D01*X005544Y083706D01*X005544Y083657D01*
X005520Y083657D01*X005520Y083632D01*X005495Y083632D01*X005495Y083608D01*
X005470Y083608D01*X005470Y083558D01*X005445Y083558D01*X005445Y083533D01*
X005421Y083533D01*X005421Y083508D01*X005396Y083508D01*X005396Y083459D01*
X005371Y083459D01*X005371Y083434D01*X005346Y083434D01*X005346Y083385D01*
X005322Y083385D01*X005322Y083360D01*X005297Y083360D01*X005297Y083311D01*
X005273Y083311D01*X005273Y083286D01*X005248Y083286D01*X005248Y083237D01*
X005223Y083237D01*X005223Y083188D01*X005199Y083188D01*X005199Y083138D01*
X005174Y083138D01*X005174Y083089D01*X005150Y083089D01*X005150Y083040D01*
X005125Y083040D01*X005125Y082990D01*X005100Y082990D01*X005100Y082916D01*
X005075Y082916D01*X005075Y082743D01*X005100Y082743D01*X005100Y082694D01*
X005125Y082694D01*X005125Y082669D01*X005346Y082669D01*X005346Y082694D01*
X005421Y082694D01*X005421Y082719D01*X005470Y082719D01*X005470Y082742D01*
X005495Y082742D01*X005495Y082769D01*X005520Y082769D01*X005520Y082793D01*
X005544Y082793D01*X005544Y082817D01*X005570Y082817D01*X005570Y082842D01*
X005594Y082842D01*X005594Y082866D01*X005619Y082866D01*X005619Y082916D01*
X005643Y082916D01*X005643Y082941D01*X005668Y082941D01*X005668Y082966D01*
X005716Y082966D01*X005716Y082990D01*X005766Y082990D01*X005766Y083014D01*
X005865Y083014D01*X005865Y082990D01*X005914Y082990D01*X005914Y082940D01*
X005939Y082940D01*X005939Y082744D01*X005915Y082744D01*X005915Y082694D01*
X005890Y082694D01*X005890Y082669D01*X005865Y082669D01*X005865Y082645D01*
X005840Y082645D01*X005840Y082620D01*X005815Y082620D01*X005815Y082595D01*
X005791Y082595D01*X005791Y082570D01*X005766Y082570D01*X005766Y082546D01*
X005717Y082546D01*X005717Y082520D01*X005692Y082520D01*X005692Y082496D01*
X005643Y082496D01*X005643Y082471D01*X005594Y082471D01*X005594Y082447D01*
X005519Y082447D01*X005519Y082422D01*X005446Y082422D01*X005446Y082398D01*
X005347Y082398D01*X005347Y082373D01*X005445Y082373D01*X005445Y082347D01*
X005618Y082347D01*X005618Y082324D01*X005840Y082324D01*X005840Y082348D01*
X006014Y082348D01*X006014Y082372D01*X006087Y082372D01*X006087Y082398D01*
X006162Y082398D01*X006162Y082422D01*X006211Y082422D01*X006211Y082447D01*
X006260Y082447D01*X006260Y082472D01*X006285Y082472D01*X006285Y082497D01*
X006334Y082497D01*X006334Y082520D01*X006359Y082520D01*X006359Y082546D01*
X006409Y082546D01*X006409Y082570D01*X006432Y082570D01*X006432Y082595D01*
X006458Y082595D01*X006458Y082619D01*X006483Y082619D01*X006483Y082644D01*
X006507Y082644D01*X006507Y082669D01*X006532Y082669D01*X006532Y082693D01*
X006557Y082693D01*X006557Y082718D01*X006581Y082718D01*X006581Y082768D01*
X006606Y082768D01*X006606Y082793D01*X006631Y082793D01*X006631Y082817D01*
X006655Y082817D01*X006655Y082866D01*X006680Y082866D01*X006680Y082916D01*
X006705Y082916D01*X006705Y082965D01*X006729Y082965D01*X006729Y082990D01*
X006754Y082990D01*X006754Y083064D01*X006778Y083064D01*X006778Y083114D01*
X006803Y083114D01*X006803Y083163D01*X006828Y083163D01*X006828Y083212D01*
X006852Y083212D01*X006852Y083286D01*X006878Y083286D01*X006878Y083336D01*
X006902Y083336D01*X006902Y083409D01*X006927Y083409D01*X006927Y083482D01*
X006952Y083482D01*X006952Y083532D01*X006976Y083532D01*X006976Y083608D01*
X007001Y083608D01*X007001Y083682D01*X007025Y083682D01*X007025Y083730D01*
X007050Y083730D01*X007050Y083805D01*X007075Y083805D01*X007075Y083879D01*
X007100Y083879D01*X007100Y083978D01*X007124Y083978D01*X007124Y084052D01*
X007148Y084052D01*X007148Y084151D01*X007174Y084151D01*X007174Y084274D01*
X007199Y084274D01*X007199Y084421D01*X007223Y084421D01*X007223Y084966D01*
X007198Y084966D01*X007198Y085064D01*X007174Y085064D01*X007174Y085162D01*
X007149Y085162D01*X007149Y085211D01*X007124Y085211D01*X007124Y085286D01*
X007100Y085286D01*X007100Y085311D01*X007075Y085311D01*X007075Y085360D01*
X007050Y085360D01*X007050Y085385D01*X007026Y085385D01*X007026Y085410D01*
X007001Y085410D01*X007001Y085459D01*X006976Y085459D01*X006976Y085484D01*
X006951Y085484D01*X006951Y085508D01*X006901Y085508D01*X006901Y085533D01*
X006876Y085533D01*X006876Y085557D01*X006853Y085557D01*X006853Y085582D01*
X006805Y085582D01*X006805Y085607D01*X006755Y085607D01*X006755Y085631D01*
X006681Y085631D01*X006681Y085657D01*X006630Y085657D01*X006630Y085533D01*
X006605Y085533D01*X006605Y085484D01*X006581Y085484D01*X006581Y085434D01*
X006556Y085434D01*X006556Y085384D01*X006532Y085384D01*X006532Y085361D01*
X006507Y085361D01*X006507Y085336D01*X006482Y085336D01*X006482Y085310D01*
X006458Y085310D01*X006458Y085286D01*X006434Y085286D01*X006434Y085261D01*
X006384Y085261D01*X006384Y085236D01*X006334Y085236D01*X006334Y085212D01*
X006236Y085212D01*X006236Y085187D01*X006062Y085187D01*X006062Y085212D01*
X005988Y085212D01*X005988Y085236D01*X005939Y085236D01*X005939Y085262D01*
X005915Y085262D01*X005915Y085286D01*X005890Y085286D01*X005890Y085311D01*
X005865Y085311D01*X005865Y085336D01*X005841Y085336D01*X005841Y085385D01*
X005816Y085385D01*X005816Y085582D01*X005840Y085582D01*X005840Y085632D01*
X005866Y085632D01*X005866Y085681D01*X005717Y085681D01*X005717Y085656D01*
X005594Y085656D01*X005594Y085632D01*X005495Y085632D01*X005495Y085607D01*
X005396Y085607D01*X005396Y085582D01*X005322Y085582D01*X005322Y085558D01*
X005223Y085558D01*X005223Y085533D01*X005149Y085533D01*X005149Y085508D01*
X005075Y085508D01*X005075Y085484D01*X005026Y085484D01*X005026Y085459D01*
X004952Y085459D01*X004952Y085434D01*X004902Y085434D01*X004902Y085410D01*
X004828Y085410D01*X004828Y085385D01*X004779Y085385D01*X004779Y085360D01*
X004730Y085360D01*X004730Y085336D01*X004680Y085336D01*X004680Y085311D01*
X004630Y085311D01*X004630Y085286D01*X004557Y085286D01*X004557Y085261D01*
X004507Y085261D01*X004507Y085237D01*X004458Y085237D01*X004458Y085212D01*
X004433Y085212D01*X004433Y085187D01*X004384Y085187D01*X004384Y085163D01*
X004334Y085163D01*X004334Y085138D01*X004285Y085138D01*X004285Y085113D01*
X004236Y085113D01*X004236Y085089D01*X004186Y085089D01*X004186Y085064D01*
X004162Y085064D01*X004162Y085039D01*X004112Y085039D01*X004112Y085015D01*
X004063Y085015D01*X004063Y084990D01*X004013Y084990D01*X004013Y084965D01*
X003989Y084965D01*X003989Y084940D01*X003939Y084940D01*X003939Y084916D01*
X003890Y084916D01*X003890Y084891D01*X003865Y084891D01*X003865Y084866D01*
X003816Y084866D01*X003816Y084842D01*X003791Y084842D01*X003791Y084817D01*
X003742Y084817D01*X003742Y084792D01*X003692Y084792D01*X003692Y084768D01*
X003668Y084768D01*X003668Y084743D01*X003618Y084743D01*X003618Y084718D01*
X003594Y084718D01*X003594Y084694D01*X003569Y084694D01*X003569Y084669D01*
X003520Y084669D01*X003520Y084644D01*X003495Y084644D01*X003495Y084620D01*
X003470Y084620D01*X003470Y084595D01*X003446Y084595D01*X003446Y084570D01*
X003421Y084570D01*X003421Y084546D01*X003396Y084546D01*X003396Y084521D01*
X003372Y084521D01*X003372Y084496D01*X003347Y084496D01*X003347Y084471D01*
X003322Y084471D01*X003322Y084447D01*X003298Y084447D01*X003298Y084398D01*
X003273Y084398D01*X003273Y084373D01*X003248Y084373D01*X003248Y084323D01*
X003223Y084323D01*X003223Y084298D01*X003199Y084298D01*X003199Y084249D01*
X003174Y084249D01*X003174Y084200D01*X003149Y084200D01*X003149Y084126D01*
X003125Y084126D01*X003125Y084027D01*X003100Y084027D01*X003100Y083731D01*G37*G36*
X017765Y083567D02*X017765Y083666D01*X017790Y083666D01*X017790Y083789D01*
X017815Y083789D01*X017815Y083913D01*X017839Y083913D01*X017839Y084036D01*
X017864Y084036D01*X017864Y084135D01*X017889Y084135D01*X017889Y084184D01*
X017913Y084184D01*X017913Y084209D01*X017938Y084209D01*X017938Y084234D01*
X017987Y084234D01*X017987Y084259D01*X018086Y084259D01*X018086Y084283D01*
X019691Y084283D01*X019691Y084259D01*X019740Y084259D01*X019740Y084234D01*
X019790Y084234D01*X019790Y084184D01*X019814Y084184D01*X019814Y084012D01*
X019790Y084012D01*X019790Y083839D01*X019765Y083839D01*X019765Y083814D01*
X019271Y083814D01*X019271Y083888D01*X019296Y083888D01*X019296Y084036D01*
X019271Y084036D01*X019271Y084061D01*X018456Y084061D01*X018456Y084036D01*
X018407Y084036D01*X018407Y084012D01*X018382Y084012D01*X018382Y083987D01*
X018358Y083987D01*X018358Y083962D01*X018333Y083962D01*X018333Y083888D01*
X018308Y083888D01*X018308Y083814D01*X019765Y083814D01*X019765Y083765D01*
X019765Y083715D01*X019740Y083715D01*X019740Y083666D01*X019716Y083666D01*
X019716Y083641D01*X019691Y083641D01*X019691Y083617D01*X019641Y083617D01*
X019641Y083592D01*X019543Y083592D01*X019543Y083567D01*X017765Y083567D01*G37*G36*
X017716Y083296D02*X017716Y083394D01*X017740Y083394D01*X017740Y083543D01*
X017765Y083543D01*X017765Y083567D01*X018259Y083567D01*X018259Y083493D01*
X018259Y083444D01*X018234Y083444D01*X018234Y083394D01*X018259Y083394D01*
X018259Y083370D01*X018308Y083370D01*X018308Y083345D01*X018382Y083345D01*
X018382Y083320D01*X020456Y083320D01*X020456Y083296D01*X020407Y083296D01*
X020407Y083271D01*X020382Y083271D01*X020382Y083246D01*X020333Y083246D01*
X020333Y083222D01*X020308Y083222D01*X020308Y083197D01*X020259Y083197D01*
X020259Y083172D01*X020234Y083172D01*X020234Y083148D01*X020185Y083148D01*
X020185Y083123D01*X020160Y083123D01*X020160Y083098D01*X018135Y083098D01*
X018135Y083123D01*X017963Y083123D01*X017963Y083148D01*X017889Y083148D01*
X017889Y083172D01*X017815Y083172D01*X017815Y083197D01*X017790Y083197D01*
X017790Y083222D01*X017765Y083222D01*X017765Y083246D01*X017740Y083246D01*
X017740Y083296D01*X017716Y083296D01*G37*X000000Y000000D02*M02*
