%MOMM*%
%FSLAX33Y33*%
%ADD10C,0.200000*%
%ADD15C,0.100000*%
%ADD18C,1.400000*%
%ADD71R,1.200000X1.200000*%
%ADD20C,1.200000*%
%ADD138C,1.300000*%
%ADD142C,0.500000*%
%ADD146C,0.700000*%
%ADD148C,0.550000*%
%ADD149C,5.000000*%
%ADD150R,1.100000X1.100000*%
%ADD151C,1.100000*%
%ADD152R,1.400000X1.400000*%
%ADD153C,2.100000*%
G90*G71*G01*D02*G54D10*X000000Y000000D02*X065000Y000000D01*X065000Y077000D01*
X000000Y077000D01*X000000Y000000D01*X065000Y065000D02*X010000Y065000D01*
X010000Y000000D01*X010000Y065000D02*X010000Y077000D01*X010000Y065000D02*
X000000Y065000D01*X011625Y024125D02*X011625Y012875D01*X012500Y012000D02*
X011625Y012875D01*X011250Y024250D02*X011250Y012750D01*X013000Y011000D02*
X011250Y012750D01*X014000Y011375D02*X014000Y008750D01*X013000Y007750D02*
X014000Y008750D01*X014500Y022115D02*X014500Y024125D01*X015000Y024625D02*
X014500Y024125D01*X015000Y022270D02*X015000Y023875D01*X015250Y024125D02*
X015000Y023875D01*X018500Y023500D02*X018500Y021875D01*X020000Y020375D02*
X018500Y021875D01*X018000Y023050D02*X018000Y021800D01*X019800Y020000D02*
X018000Y021800D01*X019750Y022250D02*X019750Y024000D01*X018500Y025250D02*
X019750Y024000D01*X020125Y022375D02*X020125Y024125D01*X018625Y025625D02*
X020125Y024125D01*X019000Y023750D02*X019000Y022000D01*X020250Y020750D02*
X019000Y022000D01*X021250Y046125D02*X021250Y042625D01*X020750Y045500D02*
X020750Y043000D01*X020375Y042625D02*X020750Y043000D01*X021250Y035380D02*
X021250Y035375D01*X022750Y032840D02*X022750Y032750D01*X022250Y037920D02*
X022250Y037875D01*X024250Y014500D02*X024250Y005625D01*X025875Y032500D02*
X025875Y033250D01*X026750Y018875D02*X026750Y017250D01*X027375Y016625D02*
X026750Y017250D01*X027375Y017625D02*X027375Y017600D01*X027375Y024250D02*
X027375Y030625D01*X028250Y031500D02*X027375Y030625D01*X026875Y026250D02*
X026875Y030875D01*X028000Y032000D02*X026875Y030875D01*X028000Y017125D02*
X028000Y016375D01*X027750Y016125D02*X028000Y016375D01*X029000Y018625D02*
X029000Y016875D01*X029750Y016125D02*X029000Y016875D01*X028500Y018500D02*
X028500Y017875D01*X028250Y017625D02*X028500Y017875D01*X032000Y025750D02*
X032000Y028625D01*X032750Y029375D02*X032000Y028625D01*X032625Y048750D02*
X032625Y061125D01*X031500Y062250D02*X032625Y061125D01*X033000Y048875D02*
X033000Y061210D01*X034040Y062250D02*X033000Y061210D01*X033000Y017375D02*
X033000Y016250D01*X032500Y015750D02*X033000Y016250D01*X037625Y022250D02*
X037625Y029125D01*X040125Y031625D02*X037625Y029125D01*X038000Y022125D02*
X038000Y029000D01*X040500Y031500D02*X038000Y029000D01*X040125Y031625D02*
X040125Y041250D01*X032625Y048750D02*X040125Y041250D01*X040500Y031500D02*
X040500Y041375D01*X033000Y048875D02*X040500Y041375D01*X044750Y021875D02*
X044750Y020625D01*X044500Y020375D02*X044750Y020625D01*X047250Y037250D02*
X047250Y031365D01*X048500Y034875D02*X048500Y026250D01*X043500Y021250D02*
X048500Y026250D01*X049000Y034625D02*X049000Y026125D01*X044750Y021875D02*
X049000Y026125D01*X012500Y012000D02*X013375Y012000D01*X014000Y011375D02*
X013375Y012000D01*X014375Y014250D02*X013000Y014250D01*X028250Y015750D02*
X015875Y015750D01*X014375Y014250D02*X015875Y015750D01*X027750Y016125D02*
X015875Y016125D01*X014500Y017500D02*X015875Y016125D01*X029750Y016125D02*
X032000Y016125D01*X032500Y016625D02*X032000Y016125D01*X029250Y015250D02*
X025000Y015250D01*X024250Y014500D02*X025000Y015250D01*X032500Y015750D02*
X029750Y015750D01*X029250Y015250D02*X029750Y015750D01*X014500Y017500D02*
X013000Y017500D01*X028250Y017625D02*X027375Y017625D01*X035375Y020250D02*
X037500Y020250D01*X038125Y020875D02*X037500Y020250D01*X020250Y020750D02*
X026875Y020750D01*X029000Y018625D02*X026875Y020750D01*X019530Y019625D02*
X026000Y019625D01*X026750Y018875D02*X026000Y019625D01*X020000Y020375D02*
X026625Y020375D01*X028500Y018500D02*X026625Y020375D01*X019800Y020000D02*
X026250Y020000D01*X028000Y018250D02*X026250Y020000D01*X037625Y019875D02*
X035500Y019875D01*X033000Y017375D02*X035500Y019875D01*X043375Y020500D02*
X038250Y020500D01*X037625Y019875D02*X038250Y020500D01*X044500Y020375D02*
X043500Y020375D01*X043375Y020500D02*X043500Y020375D01*X037500Y020750D02*
X036500Y020750D01*X036500Y021750D02*X037125Y021750D01*X037625Y022250D02*
X037125Y021750D01*X027375Y021375D02*X020625Y021375D01*X019750Y022250D02*
X020625Y021375D01*X027125Y021750D02*X020750Y021750D01*X020125Y022375D02*
X020750Y021750D01*X038125Y020875D02*X044000Y020875D01*X015865Y022020D02*
X015250Y022020D01*X015000Y022270D02*X015250Y022020D01*X043500Y021250D02*
X038000Y021250D01*X037500Y020750D02*X038000Y021250D01*X036125Y023625D02*
X029625Y023625D01*X027375Y021375D02*X029625Y023625D01*X017135Y023290D02*
X017760Y023290D01*X018000Y023050D02*X017760Y023290D01*X018500Y025250D02*
X012750Y025250D01*X011625Y024125D02*X012750Y025250D01*X036250Y024000D02*
X029375Y024000D01*X027125Y021750D02*X029375Y024000D01*X015000Y024625D02*
X018125Y024625D01*X019000Y023750D02*X018125Y024625D01*X015250Y024125D02*
X017875Y024125D01*X018500Y023500D02*X017875Y024125D01*X018625Y025625D02*
X012625Y025625D01*X011250Y024250D02*X012625Y025625D01*X032750Y029375D02*
X036375Y029375D01*X018365Y030875D02*X024250Y030875D01*X025875Y032500D02*
X024250Y030875D01*X016325Y031375D02*X023625Y031375D01*X023750Y031500D02*
X023625Y031375D01*X016340Y031750D02*X023000Y031750D01*X023750Y032500D02*
X023000Y031750D01*X028250Y031500D02*X038000Y031500D01*X039000Y032500D02*
X038000Y031500D01*X028000Y032000D02*X037750Y032000D01*X039000Y033250D02*
X037750Y032000D01*X017790Y032840D02*X022750Y032840D01*X016380Y034250D02*
X022750Y034250D01*X050750Y035250D02*X049625Y035250D01*X049000Y034625D02*
X049625Y035250D01*X017790Y035380D02*X021250Y035380D01*X016545Y036625D02*
X021750Y036625D01*X053975Y036375D02*X050000Y036375D01*X048500Y034875D02*
X050000Y036375D01*X017790Y037920D02*X022250Y037920D01*X028625Y016125D02*
X028250Y015750D01*X031750Y016625D02*X035375Y020250D01*X017135Y022020D02*
X019530Y019625D01*X015865Y020750D02*X014500Y022115D01*X025875Y022750D02*
X027375Y024250D01*X037125Y021250D02*X038000Y022125D01*X036500Y023250D02*
X036125Y023625D01*X036500Y024250D02*X036250Y024000D01*X025875Y025250D02*
X026875Y026250D01*X015250Y035380D02*X016380Y034250D01*X015250Y032840D02*
X016340Y031750D01*X015250Y030300D02*X016325Y031375D01*X017790Y030300D02*
X018365Y030875D01*X051250Y035750D02*X050750Y035250D01*X015250Y037920D02*
X016545Y036625D01*X045375Y039125D02*X047250Y037250D01*X055250Y037650D02*
X053975Y036375D01*D02*G54D15*X000550Y000550D02*X009450Y000550D01*
X009450Y000550D02*X009450Y065550D01*X009450Y065550D02*X064450Y065550D01*
X064450Y065550D02*X064450Y076450D01*X064450Y076450D02*X000550Y076450D01*
X000550Y076450D02*X000550Y000550D01*X010050Y000550D02*X064450Y000550D01*
X064450Y000550D02*X064450Y005450D01*X064450Y005450D02*X055700Y005450D01*
X055700Y005450D02*X055700Y032050D01*X055700Y032050D02*X064450Y032050D01*
X064450Y032050D02*X064450Y064950D01*X064450Y064950D02*X010050Y064950D01*
X010050Y064950D02*X010050Y000550D01*X016200Y042050D02*X016200Y043950D01*
X016200Y043950D02*X014300Y043950D01*X014300Y043950D02*X014300Y042050D01*
X014300Y042050D02*X016200Y042050D01*X014857Y039510D02*X015644Y039510D01*
X015644Y039510D02*X016200Y040067D01*X016200Y040067D02*X016200Y040854D01*
X016200Y040854D02*X015644Y041410D01*X015644Y041410D02*X014857Y041410D01*
X014857Y041410D02*X014300Y040854D01*X014300Y040854D02*X014300Y040067D01*
X014300Y040067D02*X014857Y039510D01*X017397Y042050D02*X018184Y042050D01*
X018184Y042050D02*X018740Y042607D01*X018740Y042607D02*X018740Y043394D01*
X018740Y043394D02*X018184Y043950D01*X018184Y043950D02*X017397Y043950D01*
X017397Y043950D02*X016840Y043394D01*X016840Y043394D02*X016840Y042607D01*
X016840Y042607D02*X017397Y042050D01*X017397Y039510D02*X018184Y039510D01*
X018184Y039510D02*X018740Y040067D01*X018740Y040067D02*X018740Y040854D01*
X018740Y040854D02*X018184Y041410D01*X018184Y041410D02*X017397Y041410D01*
X017397Y041410D02*X016840Y040854D01*X016840Y040854D02*X016840Y040067D01*
X016840Y040067D02*X017397Y039510D01*X014857Y034430D02*X015644Y034430D01*
X015644Y034430D02*X015674Y034461D01*X015674Y034461D02*X016235Y033900D01*
X016235Y033900D02*X022358Y033900D01*X022358Y033900D02*X022533Y033725D01*
X022533Y033725D02*X022968Y033725D01*X022968Y033725D02*X023275Y034033D01*
X023275Y034033D02*X023275Y034468D01*X023275Y034468D02*X022968Y034775D01*
X022968Y034775D02*X022533Y034775D01*X022533Y034775D02*X022358Y034600D01*
X022358Y034600D02*X018354Y034600D01*X018354Y034600D02*X018740Y034987D01*
X018740Y034987D02*X018740Y035030D01*X018740Y035030D02*X020853Y035030D01*
X020853Y035030D02*X021033Y034850D01*X021033Y034850D02*X021468Y034850D01*
X021468Y034850D02*X021775Y035158D01*X021775Y035158D02*X021775Y035593D01*
X021775Y035593D02*X021468Y035900D01*X021468Y035900D02*X021033Y035900D01*
X021033Y035900D02*X020863Y035730D01*X020863Y035730D02*X018740Y035730D01*
X018740Y035730D02*X018740Y035774D01*X018740Y035774D02*X018239Y036275D01*
X018239Y036275D02*X021358Y036275D01*X021358Y036275D02*X021533Y036100D01*
X021533Y036100D02*X021968Y036100D01*X021968Y036100D02*X022275Y036408D01*
X022275Y036408D02*X022275Y036843D01*X022275Y036843D02*X021968Y037150D01*
X021968Y037150D02*X021533Y037150D01*X021533Y037150D02*X021358Y036975D01*
X021358Y036975D02*X018189Y036975D01*X018189Y036975D02*X018740Y037527D01*
X018740Y037527D02*X018740Y037570D01*X018740Y037570D02*X021813Y037570D01*
X021813Y037570D02*X022033Y037350D01*X022033Y037350D02*X022468Y037350D01*
X022468Y037350D02*X022775Y037658D01*X022775Y037658D02*X022775Y038093D01*
X022775Y038093D02*X022468Y038400D01*X022468Y038400D02*X022033Y038400D01*
X022033Y038400D02*X021903Y038270D01*X021903Y038270D02*X018740Y038270D01*
X018740Y038270D02*X018740Y038314D01*X018740Y038314D02*X018184Y038870D01*
X018184Y038870D02*X017397Y038870D01*X017397Y038870D02*X016840Y038314D01*
X016840Y038314D02*X016840Y037527D01*X016840Y037527D02*X017391Y036975D01*
X017391Y036975D02*X016690Y036975D01*X016690Y036975D02*X016169Y037496D01*
X016169Y037496D02*X016200Y037527D01*X016200Y037527D02*X016200Y038314D01*
X016200Y038314D02*X015644Y038870D01*X015644Y038870D02*X014857Y038870D01*
X014857Y038870D02*X014300Y038314D01*X014300Y038314D02*X014300Y037527D01*
X014300Y037527D02*X014857Y036970D01*X014857Y036970D02*X015644Y036970D01*
X015644Y036970D02*X015674Y037001D01*X015674Y037001D02*X016400Y036275D01*
X016400Y036275D02*X017341Y036275D01*X017341Y036275D02*X016840Y035774D01*
X016840Y035774D02*X016840Y034987D01*X016840Y034987D02*X017226Y034600D01*
X017226Y034600D02*X016525Y034600D01*X016525Y034600D02*X016169Y034956D01*
X016169Y034956D02*X016200Y034987D01*X016200Y034987D02*X016200Y035774D01*
X016200Y035774D02*X015644Y036330D01*X015644Y036330D02*X014857Y036330D01*
X014857Y036330D02*X014300Y035774D01*X014300Y035774D02*X014300Y034987D01*
X014300Y034987D02*X014857Y034430D01*X014857Y029350D02*X015644Y029350D01*
X015644Y029350D02*X016200Y029907D01*X016200Y029907D02*X016200Y030694D01*
X016200Y030694D02*X016169Y030724D01*X016169Y030724D02*X016470Y031025D01*
X016470Y031025D02*X017171Y031025D01*X017171Y031025D02*X016840Y030694D01*
X016840Y030694D02*X016840Y029907D01*X016840Y029907D02*X017397Y029350D01*
X017397Y029350D02*X018184Y029350D01*X018184Y029350D02*X018740Y029907D01*
X018740Y029907D02*X018740Y030525D01*X018740Y030525D02*X024395Y030525D01*
X024395Y030525D02*X026225Y032355D01*X026225Y032355D02*X026225Y032858D01*
X026225Y032858D02*X026400Y033033D01*X026400Y033033D02*X026400Y033468D01*
X026400Y033468D02*X026093Y033775D01*X026093Y033775D02*X025658Y033775D01*
X025658Y033775D02*X025350Y033468D01*X025350Y033468D02*X025350Y033033D01*
X025350Y033033D02*X025525Y032858D01*X025525Y032858D02*X025525Y032645D01*
X025525Y032645D02*X024275Y031395D01*X024275Y031395D02*X024275Y031718D01*
X024275Y031718D02*X023993Y032000D01*X023993Y032000D02*X024275Y032283D01*
X024275Y032283D02*X024275Y032718D01*X024275Y032718D02*X023968Y033025D01*
X023968Y033025D02*X023533Y033025D01*X023533Y033025D02*X023275Y032768D01*
X023275Y032768D02*X023275Y032968D01*X023275Y032968D02*X022968Y033275D01*
X022968Y033275D02*X022533Y033275D01*X022533Y033275D02*X022448Y033190D01*
X022448Y033190D02*X018740Y033190D01*X018740Y033190D02*X018740Y033234D01*
X018740Y033234D02*X018184Y033790D01*X018184Y033790D02*X017397Y033790D01*
X017397Y033790D02*X016840Y033234D01*X016840Y033234D02*X016840Y032447D01*
X016840Y032447D02*X017186Y032100D01*X017186Y032100D02*X016485Y032100D01*
X016485Y032100D02*X016169Y032416D01*X016169Y032416D02*X016200Y032447D01*
X016200Y032447D02*X016200Y033234D01*X016200Y033234D02*X015644Y033790D01*
X015644Y033790D02*X014857Y033790D01*X014857Y033790D02*X014300Y033234D01*
X014300Y033234D02*X014300Y032447D01*X014300Y032447D02*X014857Y031890D01*
X014857Y031890D02*X015644Y031890D01*X015644Y031890D02*X015674Y031921D01*
X015674Y031921D02*X016025Y031570D01*X016025Y031570D02*X015674Y031219D01*
X015674Y031219D02*X015644Y031250D01*X015644Y031250D02*X014857Y031250D01*
X014857Y031250D02*X014300Y030694D01*X014300Y030694D02*X014300Y029907D01*
X014300Y029907D02*X014857Y029350D01*X014857Y026810D02*X015644Y026810D01*
X015644Y026810D02*X016200Y027367D01*X016200Y027367D02*X016200Y028154D01*
X016200Y028154D02*X015644Y028710D01*X015644Y028710D02*X014857Y028710D01*
X014857Y028710D02*X014300Y028154D01*X014300Y028154D02*X014300Y027367D01*
X014300Y027367D02*X014857Y026810D01*X017397Y026810D02*X018184Y026810D01*
X018184Y026810D02*X018740Y027367D01*X018740Y027367D02*X018740Y028154D01*
X018740Y028154D02*X018184Y028710D01*X018184Y028710D02*X017397Y028710D01*
X017397Y028710D02*X016840Y028154D01*X016840Y028154D02*X016840Y027367D01*
X016840Y027367D02*X017397Y026810D01*X021283Y024100D02*X021718Y024100D01*
X021718Y024100D02*X022025Y024408D01*X022025Y024408D02*X022025Y024843D01*
X022025Y024843D02*X021718Y025150D01*X021718Y025150D02*X021283Y025150D01*
X021283Y025150D02*X020975Y024843D01*X020975Y024843D02*X020975Y024408D01*
X020975Y024408D02*X021283Y024100D01*X021283Y022850D02*X021718Y022850D01*
X021718Y022850D02*X022025Y023158D01*X022025Y023158D02*X022025Y023593D01*
X022025Y023593D02*X021718Y023900D01*X021718Y023900D02*X021283Y023900D01*
X021283Y023900D02*X020975Y023593D01*X020975Y023593D02*X020975Y023158D01*
X020975Y023158D02*X021283Y022850D01*X020533Y055600D02*X020968Y055600D01*
X020968Y055600D02*X021275Y055908D01*X021275Y055908D02*X021275Y056343D01*
X021275Y056343D02*X020968Y056650D01*X020968Y056650D02*X020533Y056650D01*
X020533Y056650D02*X020225Y056343D01*X020225Y056343D02*X020225Y055908D01*
X020225Y055908D02*X020533Y055600D01*X021033Y051725D02*X021468Y051725D01*
X021468Y051725D02*X021775Y052033D01*X021775Y052033D02*X021775Y052468D01*
X021775Y052468D02*X021468Y052775D01*X021468Y052775D02*X021033Y052775D01*
X021033Y052775D02*X020725Y052468D01*X020725Y052468D02*X020725Y052033D01*
X020725Y052033D02*X021033Y051725D01*X020158Y042100D02*X020593Y042100D01*
X020593Y042100D02*X020813Y042320D01*X020813Y042320D02*X021033Y042100D01*
X021033Y042100D02*X021468Y042100D01*X021468Y042100D02*X021775Y042408D01*
X021775Y042408D02*X021775Y042843D01*X021775Y042843D02*X021600Y043018D01*
X021600Y043018D02*X021600Y045733D01*X021600Y045733D02*X021775Y045908D01*
X021775Y045908D02*X021775Y046343D01*X021775Y046343D02*X021468Y046650D01*
X021468Y046650D02*X021033Y046650D01*X021033Y046650D02*X020725Y046343D01*
X020725Y046343D02*X020725Y046025D01*X020725Y046025D02*X020533Y046025D01*
X020533Y046025D02*X020225Y045718D01*X020225Y045718D02*X020225Y045283D01*
X020225Y045283D02*X020400Y045108D01*X020400Y045108D02*X020400Y043150D01*
X020400Y043150D02*X020158Y043150D01*X020158Y043150D02*X019850Y042843D01*
X019850Y042843D02*X019850Y042408D01*X019850Y042408D02*X020158Y042100D01*
X024658Y058225D02*X025093Y058225D01*X025093Y058225D02*X025400Y058533D01*
X025400Y058533D02*X025400Y058968D01*X025400Y058968D02*X025093Y059275D01*
X025093Y059275D02*X024658Y059275D01*X024658Y059275D02*X024350Y058968D01*
X024350Y058968D02*X024350Y058533D01*X024350Y058533D02*X024658Y058225D01*
X028567Y061300D02*X029354Y061300D01*X029354Y061300D02*X029910Y061857D01*
X029910Y061857D02*X029910Y062644D01*X029910Y062644D02*X029354Y063200D01*
X029354Y063200D02*X028567Y063200D01*X028567Y063200D02*X028010Y062644D01*
X028010Y062644D02*X028010Y061857D01*X028010Y061857D02*X028567Y061300D01*
X012116Y011389D02*X012100Y011373D01*X012100Y011373D02*X012100Y010627D01*
X012100Y010627D02*X012627Y010100D01*X012627Y010100D02*X013373Y010100D01*
X013373Y010100D02*X013650Y010377D01*X013650Y010377D02*X013650Y008895D01*
X013650Y008895D02*X013389Y008634D01*X013389Y008634D02*X013373Y008650D01*
X013373Y008650D02*X012627Y008650D01*X012627Y008650D02*X012100Y008123D01*
X012100Y008123D02*X012100Y007377D01*X012100Y007377D02*X012627Y006850D01*
X012627Y006850D02*X013373Y006850D01*X013373Y006850D02*X013900Y007377D01*
X013900Y007377D02*X013900Y008123D01*X013900Y008123D02*X013884Y008139D01*
X013884Y008139D02*X014350Y008605D01*X014350Y008605D02*X014350Y011520D01*
X014350Y011520D02*X013520Y012350D01*X013520Y012350D02*X012645Y012350D01*
X012645Y012350D02*X011975Y013020D01*X011975Y013020D02*X011975Y023980D01*
X011975Y023980D02*X012895Y024900D01*X012895Y024900D02*X014780Y024900D01*
X014780Y024900D02*X014150Y024270D01*X014150Y024270D02*X014150Y021970D01*
X014150Y021970D02*X015065Y021055D01*X015065Y021055D02*X015065Y020419D01*
X015065Y020419D02*X015534Y019950D01*X015534Y019950D02*X016196Y019950D01*
X016196Y019950D02*X016500Y020254D01*X016500Y020254D02*X016804Y019950D01*
X016804Y019950D02*X017466Y019950D01*X017466Y019950D02*X017935Y020419D01*
X017935Y020419D02*X017935Y020725D01*X017935Y020725D02*X019385Y019275D01*
X019385Y019275D02*X025855Y019275D01*X025855Y019275D02*X026400Y018730D01*
X026400Y018730D02*X026400Y017218D01*X026400Y017218D02*X026343Y017275D01*
X026343Y017275D02*X025908Y017275D01*X025908Y017275D02*X025600Y016968D01*
X025600Y016968D02*X025600Y016533D01*X025600Y016533D02*X025657Y016475D01*
X025657Y016475D02*X016020Y016475D01*X016020Y016475D02*X014645Y017850D01*
X014645Y017850D02*X013900Y017850D01*X013900Y017850D02*X013900Y017873D01*
X013900Y017873D02*X013373Y018400D01*X013373Y018400D02*X012627Y018400D01*
X012627Y018400D02*X012100Y017873D01*X012100Y017873D02*X012100Y017127D01*
X012100Y017127D02*X012627Y016600D01*X012627Y016600D02*X013373Y016600D01*
X013373Y016600D02*X013900Y017127D01*X013900Y017127D02*X013900Y017150D01*
X013900Y017150D02*X014355Y017150D01*X014355Y017150D02*X015567Y015938D01*
X015567Y015938D02*X014230Y014600D01*X014230Y014600D02*X013900Y014600D01*
X013900Y014600D02*X013900Y014623D01*X013900Y014623D02*X013373Y015150D01*
X013373Y015150D02*X012627Y015150D01*X012627Y015150D02*X012100Y014623D01*
X012100Y014623D02*X012100Y013877D01*X012100Y013877D02*X012627Y013350D01*
X012627Y013350D02*X013373Y013350D01*X013373Y013350D02*X013900Y013877D01*
X013900Y013877D02*X013900Y013900D01*X013900Y013900D02*X014520Y013900D01*
X014520Y013900D02*X016020Y015400D01*X016020Y015400D02*X024655Y015400D01*
X024655Y015400D02*X023900Y014645D01*X023900Y014645D02*X023900Y006018D01*
X023900Y006018D02*X023725Y005843D01*X023725Y005843D02*X023725Y005408D01*
X023725Y005408D02*X024033Y005100D01*X024033Y005100D02*X024468Y005100D01*
X024468Y005100D02*X024775Y005408D01*X024775Y005408D02*X024775Y005843D01*
X024775Y005843D02*X024600Y006018D01*X024600Y006018D02*X024600Y014355D01*
X024600Y014355D02*X025145Y014900D01*X025145Y014900D02*X025407Y014900D01*
X025407Y014900D02*X025225Y014718D01*X025225Y014718D02*X025225Y014283D01*
X025225Y014283D02*X025533Y013975D01*X025533Y013975D02*X025568Y013975D01*
X025568Y013975D02*X026168Y013375D01*X026168Y013375D02*X030332Y013375D01*
X030332Y013375D02*X031707Y014750D01*X031707Y014750D02*X031883Y014750D01*
X031883Y014750D02*X031908Y014725D01*X031908Y014725D02*X032343Y014725D01*
X032343Y014725D02*X032368Y014750D01*X032368Y014750D02*X036133Y014750D01*
X036133Y014750D02*X036158Y014725D01*X036158Y014725D02*X036593Y014725D01*
X036593Y014725D02*X036900Y015033D01*X036900Y015033D02*X036900Y015468D01*
X036900Y015468D02*X036593Y015775D01*X036593Y015775D02*X036158Y015775D01*
X036158Y015775D02*X036133Y015750D01*X036133Y015750D02*X032995Y015750D01*
X032995Y015750D02*X033350Y016105D01*X033350Y016105D02*X033350Y017230D01*
X033350Y017230D02*X035645Y019525D01*X035645Y019525D02*X037770Y019525D01*
X037770Y019525D02*X038395Y020150D01*X038395Y020150D02*X043230Y020150D01*
X043230Y020150D02*X043355Y020025D01*X043355Y020025D02*X044645Y020025D01*
X044645Y020025D02*X045100Y020480D01*X045100Y020480D02*X045100Y021730D01*
X045100Y021730D02*X049350Y025980D01*X049350Y025980D02*X049350Y026782D01*
X049350Y026782D02*X049408Y026725D01*X049408Y026725D02*X049843Y026725D01*
X049843Y026725D02*X050150Y027033D01*X050150Y027033D02*X050150Y027468D01*
X050150Y027468D02*X049843Y027775D01*X049843Y027775D02*X049408Y027775D01*
X049408Y027775D02*X049350Y027718D01*X049350Y027718D02*X049350Y034480D01*
X049350Y034480D02*X049770Y034900D01*X049770Y034900D02*X050895Y034900D01*
X050895Y034900D02*X051220Y035225D01*X051220Y035225D02*X051468Y035225D01*
X051468Y035225D02*X051775Y035533D01*X051775Y035533D02*X051775Y035968D01*
X051775Y035968D02*X051718Y036025D01*X051718Y036025D02*X054120Y036025D01*
X054120Y036025D02*X055220Y037125D01*X055220Y037125D02*X055468Y037125D01*
X055468Y037125D02*X055775Y037433D01*X055775Y037433D02*X055775Y037868D01*
X055775Y037868D02*X055468Y038175D01*X055468Y038175D02*X055033Y038175D01*
X055033Y038175D02*X054725Y037868D01*X054725Y037868D02*X054725Y037620D01*
X054725Y037620D02*X053830Y036725D01*X053830Y036725D02*X049855Y036725D01*
X049855Y036725D02*X048150Y035020D01*X048150Y035020D02*X048150Y026395D01*
X048150Y026395D02*X043355Y021600D01*X043355Y021600D02*X037970Y021600D01*
X037970Y021600D02*X038350Y021980D01*X038350Y021980D02*X038350Y028855D01*
X038350Y028855D02*X040850Y031355D01*X040850Y031355D02*X040850Y041520D01*
X040850Y041520D02*X033350Y049020D01*X033350Y049020D02*X033350Y061065D01*
X033350Y061065D02*X033585Y061300D01*X033585Y061300D02*X034990Y061300D01*
X034990Y061300D02*X034990Y063200D01*X034990Y063200D02*X033090Y063200D01*
X033090Y063200D02*X033090Y061795D01*X033090Y061795D02*X032770Y061475D01*
X032770Y061475D02*X032419Y061826D01*X032419Y061826D02*X032450Y061857D01*
X032450Y061857D02*X032450Y062644D01*X032450Y062644D02*X031894Y063200D01*
X031894Y063200D02*X031107Y063200D01*X031107Y063200D02*X030550Y062644D01*
X030550Y062644D02*X030550Y061857D01*X030550Y061857D02*X031107Y061300D01*
X031107Y061300D02*X031894Y061300D01*X031894Y061300D02*X031924Y061331D01*
X031924Y061331D02*X032275Y060980D01*X032275Y060980D02*X032275Y048605D01*
X032275Y048605D02*X039775Y041105D01*X039775Y041105D02*X039775Y031770D01*
X039775Y031770D02*X037275Y029270D01*X037275Y029270D02*X037275Y022395D01*
X037275Y022395D02*X036980Y022100D01*X036980Y022100D02*X036893Y022100D01*
X036893Y022100D02*X036718Y022275D01*X036718Y022275D02*X036283Y022275D01*
X036283Y022275D02*X035975Y021968D01*X035975Y021968D02*X035975Y021533D01*
X035975Y021533D02*X036257Y021250D01*X036257Y021250D02*X035975Y020968D01*
X035975Y020968D02*X035975Y020600D01*X035975Y020600D02*X035230Y020600D01*
X035230Y020600D02*X031780Y017150D01*X031780Y017150D02*X031533Y017150D01*
X031533Y017150D02*X031225Y016843D01*X031225Y016843D02*X031225Y016475D01*
X031225Y016475D02*X029895Y016475D01*X029895Y016475D02*X029350Y017020D01*
X029350Y017020D02*X029350Y018770D01*X029350Y018770D02*X027095Y021025D01*
X027095Y021025D02*X027520Y021025D01*X027520Y021025D02*X029770Y023275D01*
X029770Y023275D02*X035975Y023275D01*X035975Y023275D02*X035975Y023033D01*
X035975Y023033D02*X036283Y022725D01*X036283Y022725D02*X036718Y022725D01*
X036718Y022725D02*X037025Y023033D01*X037025Y023033D02*X037025Y023468D01*
X037025Y023468D02*X036743Y023750D01*X036743Y023750D02*X037025Y024033D01*
X037025Y024033D02*X037025Y024468D01*X037025Y024468D02*X036718Y024775D01*
X036718Y024775D02*X036283Y024775D01*X036283Y024775D02*X035975Y024468D01*
X035975Y024468D02*X035975Y024350D01*X035975Y024350D02*X029230Y024350D01*
X029230Y024350D02*X026980Y022100D01*X026980Y022100D02*X026498Y022100D01*
X026498Y022100D02*X026775Y022377D01*X026775Y022377D02*X026775Y023123D01*
X026775Y023123D02*X026759Y023139D01*X026759Y023139D02*X027725Y024105D01*
X027725Y024105D02*X027725Y030480D01*X027725Y030480D02*X028395Y031150D01*
X028395Y031150D02*X038145Y031150D01*X038145Y031150D02*X038970Y031975D01*
X038970Y031975D02*X039218Y031975D01*X039218Y031975D02*X039525Y032283D01*
X039525Y032283D02*X039525Y032718D01*X039525Y032718D02*X039368Y032875D01*
X039368Y032875D02*X039525Y033033D01*X039525Y033033D02*X039525Y033468D01*
X039525Y033468D02*X039218Y033775D01*X039218Y033775D02*X038783Y033775D01*
X038783Y033775D02*X038475Y033468D01*X038475Y033468D02*X038475Y033220D01*
X038475Y033220D02*X037605Y032350D01*X037605Y032350D02*X027855Y032350D01*
X027855Y032350D02*X026525Y031020D01*X026525Y031020D02*X026525Y026395D01*
X026525Y026395D02*X026264Y026134D01*X026264Y026134D02*X026248Y026150D01*
X026248Y026150D02*X025502Y026150D01*X025502Y026150D02*X024975Y025623D01*
X024975Y025623D02*X024975Y024877D01*X024975Y024877D02*X025502Y024350D01*
X025502Y024350D02*X026248Y024350D01*X026248Y024350D02*X026775Y024877D01*
X026775Y024877D02*X026775Y025623D01*X026775Y025623D02*X026759Y025639D01*
X026759Y025639D02*X027025Y025905D01*X027025Y025905D02*X027025Y024395D01*
X027025Y024395D02*X026264Y023634D01*X026264Y023634D02*X026248Y023650D01*
X026248Y023650D02*X025502Y023650D01*X025502Y023650D02*X024975Y023123D01*
X024975Y023123D02*X024975Y022377D01*X024975Y022377D02*X025252Y022100D01*
X025252Y022100D02*X020895Y022100D01*X020895Y022100D02*X020475Y022520D01*
X020475Y022520D02*X020475Y024270D01*X020475Y024270D02*X018770Y025975D01*
X018770Y025975D02*X012480Y025975D01*X012480Y025975D02*X010900Y024395D01*
X010900Y024395D02*X010900Y012605D01*X010900Y012605D02*X012116Y011389D01*
X034658Y035600D02*X035093Y035600D01*X035093Y035600D02*X035400Y035908D01*
X035400Y035908D02*X035400Y036343D01*X035400Y036343D02*X035093Y036650D01*
X035093Y036650D02*X034658Y036650D01*X034658Y036650D02*X034350Y036343D01*
X034350Y036343D02*X034350Y035908D01*X034350Y035908D02*X034658Y035600D01*
X034658Y034100D02*X035093Y034100D01*X035093Y034100D02*X035400Y034408D01*
X035400Y034408D02*X035400Y034843D01*X035400Y034843D02*X035093Y035150D01*
X035093Y035150D02*X034658Y035150D01*X034658Y035150D02*X034350Y034843D01*
X034350Y034843D02*X034350Y034408D01*X034350Y034408D02*X034658Y034100D01*
X030283Y025725D02*X030718Y025725D01*X030718Y025725D02*X031025Y026033D01*
X031025Y026033D02*X031025Y026468D01*X031025Y026468D02*X030718Y026775D01*
X030718Y026775D02*X030283Y026775D01*X030283Y026775D02*X029975Y026468D01*
X029975Y026468D02*X029975Y026033D01*X029975Y026033D02*X030283Y025725D01*
X031783Y025225D02*X032218Y025225D01*X032218Y025225D02*X032525Y025533D01*
X032525Y025533D02*X032525Y025968D01*X032525Y025968D02*X032350Y026143D01*
X032350Y026143D02*X032350Y028480D01*X032350Y028480D02*X032895Y029025D01*
X032895Y029025D02*X035983Y029025D01*X035983Y029025D02*X036158Y028850D01*
X036158Y028850D02*X036593Y028850D01*X036593Y028850D02*X036900Y029158D01*
X036900Y029158D02*X036900Y029593D01*X036900Y029593D02*X036593Y029900D01*
X036593Y029900D02*X036158Y029900D01*X036158Y029900D02*X035983Y029725D01*
X035983Y029725D02*X035343Y029725D01*X035343Y029725D02*X035400Y029783D01*
X035400Y029783D02*X035400Y030218D01*X035400Y030218D02*X035093Y030525D01*
X035093Y030525D02*X034658Y030525D01*X034658Y030525D02*X034350Y030218D01*
X034350Y030218D02*X034350Y029783D01*X034350Y029783D02*X034407Y029725D01*
X034407Y029725D02*X032605Y029725D01*X032605Y029725D02*X031650Y028770D01*
X031650Y028770D02*X031650Y026143D01*X031650Y026143D02*X031475Y025968D01*
X031475Y025968D02*X031475Y025533D01*X031475Y025533D02*X031783Y025225D01*
X034783Y026850D02*X035218Y026850D01*X035218Y026850D02*X035525Y027158D01*
X035525Y027158D02*X035525Y027593D01*X035525Y027593D02*X035218Y027900D01*
X035218Y027900D02*X034783Y027900D01*X034783Y027900D02*X034475Y027593D01*
X034475Y027593D02*X034475Y027158D01*X034475Y027158D02*X034783Y026850D01*
X021000Y008133D02*X021000Y005043D01*X021000Y005043D02*X022043Y004000D01*
X022043Y004000D02*X029133Y004000D01*X029133Y004000D02*X029158Y003975D01*
X029158Y003975D02*X029593Y003975D01*X029593Y003975D02*X029900Y004283D01*
X029900Y004283D02*X029900Y004718D01*X029900Y004718D02*X029593Y005025D01*
X029593Y005025D02*X029158Y005025D01*X029158Y005025D02*X029133Y005000D01*
X029133Y005000D02*X022457Y005000D01*X022457Y005000D02*X022000Y005457D01*
X022000Y005457D02*X022000Y008133D01*X022000Y008133D02*X022025Y008158D01*
X022025Y008158D02*X022025Y008593D01*X022025Y008593D02*X021718Y008900D01*
X021718Y008900D02*X021283Y008900D01*X021283Y008900D02*X020975Y008593D01*
X020975Y008593D02*X020975Y008158D01*X020975Y008158D02*X021000Y008133D01*
X046672Y012490D02*X047749Y012490D01*X047749Y012490D02*X048510Y013252D01*
X048510Y013252D02*X048510Y014329D01*X048510Y014329D02*X047749Y015090D01*
X047749Y015090D02*X046672Y015090D01*X046672Y015090D02*X045910Y014329D01*
X045910Y014329D02*X045910Y013252D01*X045910Y013252D02*X046672Y012490D01*
X046672Y007410D02*X047749Y007410D01*X047749Y007410D02*X048510Y008172D01*
X048510Y008172D02*X048510Y009249D01*X048510Y009249D02*X047749Y010010D01*
X047749Y010010D02*X046672Y010010D01*X046672Y010010D02*X045910Y009249D01*
X045910Y009249D02*X045910Y008172D01*X045910Y008172D02*X046672Y007410D01*
X049212Y009950D02*X050289Y009950D01*X050289Y009950D02*X051050Y010712D01*
X051050Y010712D02*X051050Y011789D01*X051050Y011789D02*X050289Y012550D01*
X050289Y012550D02*X049212Y012550D01*X049212Y012550D02*X048450Y011789D01*
X048450Y011789D02*X048450Y010712D01*X048450Y010712D02*X049212Y009950D01*
X051752Y012490D02*X052829Y012490D01*X052829Y012490D02*X053590Y013252D01*
X053590Y013252D02*X053590Y014329D01*X053590Y014329D02*X052829Y015090D01*
X052829Y015090D02*X051752Y015090D01*X051752Y015090D02*X050990Y014329D01*
X050990Y014329D02*X050990Y013252D01*X050990Y013252D02*X051752Y012490D01*
X051752Y007410D02*X052829Y007410D01*X052829Y007410D02*X053590Y008172D01*
X053590Y008172D02*X053590Y009249D01*X053590Y009249D02*X052829Y010010D01*
X052829Y010010D02*X051752Y010010D01*X051752Y010010D02*X050990Y009249D01*
X050990Y009249D02*X050990Y008172D01*X050990Y008172D02*X051752Y007410D01*
X037857Y061300D02*X038644Y061300D01*X038644Y061300D02*X039200Y061857D01*
X039200Y061857D02*X039200Y062644D01*X039200Y062644D02*X038644Y063200D01*
X038644Y063200D02*X037857Y063200D01*X037857Y063200D02*X037300Y062644D01*
X037300Y062644D02*X037300Y061857D01*X037300Y061857D02*X037857Y061300D01*
X040397Y061300D02*X041184Y061300D01*X041184Y061300D02*X041740Y061857D01*
X041740Y061857D02*X041740Y062644D01*X041740Y062644D02*X041184Y063200D01*
X041184Y063200D02*X040397Y063200D01*X040397Y063200D02*X039840Y062644D01*
X039840Y062644D02*X039840Y061857D01*X039840Y061857D02*X040397Y061300D01*
X042937Y061300D02*X043724Y061300D01*X043724Y061300D02*X044280Y061857D01*
X044280Y061857D02*X044280Y062644D01*X044280Y062644D02*X043724Y063200D01*
X043724Y063200D02*X042937Y063200D01*X042937Y063200D02*X042380Y062644D01*
X042380Y062644D02*X042380Y061857D01*X042380Y061857D02*X042937Y061300D01*
X041158Y057475D02*X041593Y057475D01*X041593Y057475D02*X041618Y057500D01*
X041618Y057500D02*X042008Y057500D01*X042008Y057500D02*X042033Y057475D01*
X042033Y057475D02*X042468Y057475D01*X042468Y057475D02*X042775Y057783D01*
X042775Y057783D02*X042775Y058218D01*X042775Y058218D02*X042750Y058243D01*
X042750Y058243D02*X042750Y058508D01*X042750Y058508D02*X042775Y058533D01*
X042775Y058533D02*X042775Y058968D01*X042775Y058968D02*X042750Y058993D01*
X042750Y058993D02*X042750Y059258D01*X042750Y059258D02*X042775Y059283D01*
X042775Y059283D02*X042775Y059718D01*X042775Y059718D02*X042468Y060025D01*
X042468Y060025D02*X042033Y060025D01*X042033Y060025D02*X042008Y060000D01*
X042008Y060000D02*X041618Y060000D01*X041618Y060000D02*X041593Y060025D01*
X041593Y060025D02*X041158Y060025D01*X041158Y060025D02*X040850Y059718D01*
X040850Y059718D02*X040850Y059283D01*X040850Y059283D02*X040875Y059258D01*
X040875Y059258D02*X040875Y058993D01*X040875Y058993D02*X040850Y058968D01*
X040850Y058968D02*X040850Y058533D01*X040850Y058533D02*X040875Y058508D01*
X040875Y058508D02*X040875Y058243D01*X040875Y058243D02*X040850Y058218D01*
X040850Y058218D02*X040850Y057783D01*X040850Y057783D02*X041158Y057475D01*
X040783Y049100D02*X041218Y049100D01*X041218Y049100D02*X041525Y049408D01*
X041525Y049408D02*X041525Y049843D01*X041525Y049843D02*X041218Y050150D01*
X041218Y050150D02*X040783Y050150D01*X040783Y050150D02*X040475Y049843D01*
X040475Y049843D02*X040475Y049408D01*X040475Y049408D02*X040783Y049100D01*
X046820Y061300D02*X046820Y063200D01*X046820Y063200D02*X044920Y063200D01*
X044920Y063200D02*X044920Y061300D01*X044920Y061300D02*X046820Y061300D01*
X045033Y058475D02*X045468Y058475D01*X045468Y058475D02*X045775Y058783D01*
X045775Y058783D02*X045775Y059218D01*X045775Y059218D02*X045750Y059243D01*
X045750Y059243D02*X045750Y059508D01*X045750Y059508D02*X045775Y059533D01*
X045775Y059533D02*X045775Y059968D01*X045775Y059968D02*X045750Y059993D01*
X045750Y059993D02*X045750Y060043D01*X045750Y060043D02*X045957Y060250D01*
X045957Y060250D02*X046507Y060250D01*X046507Y060250D02*X046225Y059968D01*
X046225Y059968D02*X046225Y059533D01*X046225Y059533D02*X046250Y059508D01*
X046250Y059508D02*X046250Y059243D01*X046250Y059243D02*X046225Y059218D01*
X046225Y059218D02*X046225Y058783D01*X046225Y058783D02*X046250Y058758D01*
X046250Y058758D02*X046250Y057793D01*X046250Y057793D02*X046543Y057500D01*
X046543Y057500D02*X047383Y057500D01*X047383Y057500D02*X047408Y057475D01*
X047408Y057475D02*X047843Y057475D01*X047843Y057475D02*X048150Y057783D01*
X048150Y057783D02*X048150Y058218D01*X048150Y058218D02*X048125Y058243D01*
X048125Y058243D02*X048125Y058758D01*X048125Y058758D02*X048150Y058783D01*
X048150Y058783D02*X048150Y059218D01*X048150Y059218D02*X048125Y059243D01*
X048125Y059243D02*X048125Y059508D01*X048125Y059508D02*X048150Y059533D01*
X048150Y059533D02*X048150Y059968D01*X048150Y059968D02*X047868Y060250D01*
X047868Y060250D02*X052207Y060250D01*X052207Y060250D02*X053000Y061043D01*
X053000Y061043D02*X053000Y061477D01*X053000Y061477D02*X053400Y061877D01*
X053400Y061877D02*X053400Y062623D01*X053400Y062623D02*X052873Y063150D01*
X052873Y063150D02*X052127Y063150D01*X052127Y063150D02*X051600Y062623D01*
X051600Y062623D02*X051600Y061877D01*X051600Y061877D02*X052000Y061477D01*
X052000Y061477D02*X052000Y061457D01*X052000Y061457D02*X051793Y061250D01*
X051793Y061250D02*X045543Y061250D01*X045543Y061250D02*X044750Y060457D01*
X044750Y060457D02*X044750Y059993D01*X044750Y059993D02*X044725Y059968D01*
X044725Y059968D02*X044725Y059533D01*X044725Y059533D02*X044750Y059508D01*
X044750Y059508D02*X044750Y059243D01*X044750Y059243D02*X044725Y059218D01*
X044725Y059218D02*X044725Y058783D01*X044725Y058783D02*X045033Y058475D01*
X036251Y047650D02*X048275Y047650D01*X048275Y047650D02*X048275Y047499D01*
X048275Y047499D02*X048025Y047249D01*X048025Y047249D02*X048025Y041501D01*
X048025Y041501D02*X049126Y040400D01*X049126Y040400D02*X052124Y040400D01*
X052124Y040400D02*X052475Y040751D01*X052475Y040751D02*X052475Y041249D01*
X052475Y041249D02*X052124Y041600D01*X052124Y041600D02*X049624Y041600D01*
X049624Y041600D02*X049225Y041999D01*X049225Y041999D02*X049225Y046751D01*
X049225Y046751D02*X049475Y047001D01*X049475Y047001D02*X049475Y052374D01*
X049475Y052374D02*X049324Y052525D01*X049324Y052525D02*X051126Y052525D01*
X051126Y052525D02*X051400Y052251D01*X051400Y052251D02*X051400Y047751D01*
X051400Y047751D02*X057650Y041501D01*X057650Y041501D02*X057650Y041150D01*
X057650Y041150D02*X059350Y041150D01*X059350Y041150D02*X059350Y042850D01*
X059350Y042850D02*X057999Y042850D01*X057999Y042850D02*X052600Y048249D01*
X052600Y048249D02*X052600Y052749D01*X052600Y052749D02*X051624Y053725D01*
X051624Y053725D02*X047126Y053725D01*X047126Y053725D02*X046400Y052999D01*
X046400Y052999D02*X046400Y052100D01*X046400Y052100D02*X046376Y052100D01*
X046376Y052100D02*X046025Y051749D01*X046025Y051749D02*X046025Y051251D01*
X046025Y051251D02*X046376Y050900D01*X046376Y050900D02*X047624Y050900D01*
X047624Y050900D02*X047975Y051251D01*X047975Y051251D02*X047975Y051749D01*
X047975Y051749D02*X047624Y052100D01*X047624Y052100D02*X047600Y052100D01*
X047600Y052100D02*X047600Y052501D01*X047600Y052501D02*X047624Y052525D01*
X047624Y052525D02*X048426Y052525D01*X048426Y052525D02*X048275Y052374D01*
X048275Y052374D02*X048275Y048850D01*X048275Y048850D02*X036251Y048850D01*
X036251Y048850D02*X035900Y048499D01*X035900Y048499D02*X035900Y048001D01*
X035900Y048001D02*X036251Y047650D01*X041533Y032850D02*X041968Y032850D01*
X041968Y032850D02*X042275Y033158D01*X042275Y033158D02*X042275Y033593D01*
X042275Y033593D02*X041968Y033900D01*X041968Y033900D02*X041533Y033900D01*
X041533Y033900D02*X041225Y033593D01*X041225Y033593D02*X041225Y033158D01*
X041225Y033158D02*X041533Y032850D01*X045158Y038600D02*X045405Y038600D01*
X045405Y038600D02*X046900Y037105D01*X046900Y037105D02*X046900Y031758D01*
X046900Y031758D02*X046725Y031583D01*X046725Y031583D02*X046725Y031148D01*
X046725Y031148D02*X047033Y030840D01*X047033Y030840D02*X047468Y030840D01*
X047468Y030840D02*X047775Y031148D01*X047775Y031148D02*X047775Y031583D01*
X047775Y031583D02*X047600Y031758D01*X047600Y031758D02*X047600Y037395D01*
X047600Y037395D02*X045900Y039095D01*X045900Y039095D02*X045900Y039343D01*
X045900Y039343D02*X045593Y039650D01*X045593Y039650D02*X045158Y039650D01*
X045158Y039650D02*X044850Y039343D01*X044850Y039343D02*X044850Y038908D01*
X044850Y038908D02*X045158Y038600D01*X051626Y041900D02*X052124Y041900D01*
X052124Y041900D02*X052475Y042251D01*X052475Y042251D02*X052475Y044749D01*
X052475Y044749D02*X052124Y045100D01*X052124Y045100D02*X051626Y045100D01*
X051626Y045100D02*X051275Y044749D01*X051275Y044749D02*X051275Y042251D01*
X051275Y042251D02*X051626Y041900D01*X054033Y038725D02*X054468Y038725D01*
X054468Y038725D02*X054775Y039033D01*X054775Y039033D02*X054775Y039468D01*
X054775Y039468D02*X054468Y039775D01*X054468Y039775D02*X054033Y039775D01*
X054033Y039775D02*X053725Y039468D01*X053725Y039468D02*X053725Y039033D01*
X053725Y039033D02*X054033Y038725D01*X058148Y035650D02*X058852Y035650D01*
X058852Y035650D02*X059350Y036148D01*X059350Y036148D02*X059350Y036852D01*
X059350Y036852D02*X058852Y037350D01*X058852Y037350D02*X058148Y037350D01*
X058148Y037350D02*X057650Y036852D01*X057650Y036852D02*X057650Y036148D01*
X057650Y036148D02*X058148Y035650D01*X059350Y033650D02*X059350Y035350D01*
X059350Y035350D02*X057650Y035350D01*X057650Y035350D02*X057650Y033650D01*
X057650Y033650D02*X059350Y033650D01*X054627Y061350D02*X055373Y061350D01*
X055373Y061350D02*X055900Y061877D01*X055900Y061877D02*X055900Y062623D01*
X055900Y062623D02*X055373Y063150D01*X055373Y063150D02*X054627Y063150D01*
X054627Y063150D02*X054100Y062623D01*X054100Y062623D02*X054100Y061877D01*
X054100Y061877D02*X054627Y061350D01*X057127Y061350D02*X057873Y061350D01*
X057873Y061350D02*X058400Y061877D01*X058400Y061877D02*X058400Y062623D01*
X058400Y062623D02*X057873Y063150D01*X057873Y063150D02*X057127Y063150D01*
X057127Y063150D02*X056600Y062623D01*X056600Y062623D02*X056600Y061877D01*
X056600Y061877D02*X057127Y061350D01*X054658Y055100D02*X055093Y055100D01*
X055093Y055100D02*X055118Y055125D01*X055118Y055125D02*X055633Y055125D01*
X055633Y055125D02*X055658Y055100D01*X055658Y055100D02*X056093Y055100D01*
X056093Y055100D02*X056118Y055125D01*X056118Y055125D02*X056633Y055125D01*
X056633Y055125D02*X056658Y055100D01*X056658Y055100D02*X057093Y055100D01*
X057093Y055100D02*X057400Y055408D01*X057400Y055408D02*X057400Y055843D01*
X057400Y055843D02*X057375Y055868D01*X057375Y055868D02*X057375Y057133D01*
X057375Y057133D02*X057400Y057158D01*X057400Y057158D02*X057400Y057593D01*
X057400Y057593D02*X057093Y057900D01*X057093Y057900D02*X056658Y057900D01*
X056658Y057900D02*X056633Y057875D01*X056633Y057875D02*X056118Y057875D01*
X056118Y057875D02*X056093Y057900D01*X056093Y057900D02*X055658Y057900D01*
X055658Y057900D02*X055633Y057875D01*X055633Y057875D02*X055118Y057875D01*
X055118Y057875D02*X055093Y057900D01*X055093Y057900D02*X054658Y057900D01*
X054658Y057900D02*X054350Y057593D01*X054350Y057593D02*X054350Y057158D01*
X054350Y057158D02*X054375Y057133D01*X054375Y057133D02*X054375Y056743D01*
X054375Y056743D02*X054350Y056718D01*X054350Y056718D02*X054350Y056283D01*
X054350Y056283D02*X054375Y056258D01*X054375Y056258D02*X054375Y055868D01*
X054375Y055868D02*X054350Y055843D01*X054350Y055843D02*X054350Y055408D01*
X054350Y055408D02*X054658Y055100D01*X053658Y052850D02*X054093Y052850D01*
X054093Y052850D02*X054250Y053007D01*X054250Y053007D02*X054408Y052850D01*
X054408Y052850D02*X054843Y052850D01*X054843Y052850D02*X055150Y053158D01*
X055150Y053158D02*X055150Y053593D01*X055150Y053593D02*X054843Y053900D01*
X054843Y053900D02*X054408Y053900D01*X054408Y053900D02*X054250Y053743D01*
X054250Y053743D02*X054093Y053900D01*X054093Y053900D02*X053658Y053900D01*
X053658Y053900D02*X053350Y053593D01*X053350Y053593D02*X053350Y053158D01*
X053350Y053158D02*X053658Y052850D01*X058148Y050650D02*X058852Y050650D01*
X058852Y050650D02*X059350Y051148D01*X059350Y051148D02*X059350Y051852D01*
X059350Y051852D02*X058852Y052350D01*X058852Y052350D02*X058148Y052350D01*
X058148Y052350D02*X057650Y051852D01*X057650Y051852D02*X057650Y051148D01*
X057650Y051148D02*X058148Y050650D01*X059350Y048650D02*X059350Y050350D01*
X059350Y050350D02*X057650Y050350D01*X057650Y050350D02*X057650Y048650D01*
X057650Y048650D02*X059350Y048650D01*X058148Y043150D02*X058852Y043150D01*
X058852Y043150D02*X059350Y043648D01*X059350Y043648D02*X059350Y044352D01*
X059350Y044352D02*X058852Y044850D01*X058852Y044850D02*X058148Y044850D01*
X058148Y044850D02*X057650Y044352D01*X057650Y044352D02*X057650Y043648D01*
X057650Y043648D02*X058148Y043150D01*X062127Y051475D02*X062873Y051475D01*
X062873Y051475D02*X063400Y052002D01*X063400Y052002D02*X063400Y052748D01*
X063400Y052748D02*X062873Y053275D01*X062873Y053275D02*X062127Y053275D01*
X062127Y053275D02*X061600Y052748D01*X061600Y052748D02*X061600Y052002D01*
X061600Y052002D02*X062127Y051475D01*X062127Y047725D02*X062873Y047725D01*
X062873Y047725D02*X063400Y048252D01*X063400Y048252D02*X063400Y048998D01*
X063400Y048998D02*X062873Y049525D01*X062873Y049525D02*X062127Y049525D01*
X062127Y049525D02*X061600Y048998D01*X061600Y048998D02*X061600Y048252D01*
X061600Y048252D02*X062127Y047725D01*X062127Y043975D02*X062873Y043975D01*
X062873Y043975D02*X063400Y044502D01*X063400Y044502D02*X063400Y045248D01*
X063400Y045248D02*X062873Y045775D01*X062873Y045775D02*X062127Y045775D01*
X062127Y045775D02*X061600Y045248D01*X061600Y045248D02*X061600Y044502D01*
X061600Y044502D02*X062127Y043975D01*X062127Y040225D02*X062873Y040225D01*
X062873Y040225D02*X063400Y040752D01*X063400Y040752D02*X063400Y041498D01*
X063400Y041498D02*X062873Y042025D01*X062873Y042025D02*X062127Y042025D01*
X062127Y042025D02*X061600Y041498D01*X061600Y041498D02*X061600Y040752D01*
X061600Y040752D02*X062127Y040225D01*X062127Y036475D02*X062873Y036475D01*
X062873Y036475D02*X063400Y037002D01*X063400Y037002D02*X063400Y037748D01*
X063400Y037748D02*X062873Y038275D01*X062873Y038275D02*X062127Y038275D01*
X062127Y038275D02*X061600Y037748D01*X061600Y037748D02*X061600Y037002D01*
X061600Y037002D02*X062127Y036475D01*X062127Y032725D02*X062873Y032725D01*
X062873Y032725D02*X063400Y033252D01*X063400Y033252D02*X063400Y033998D01*
X063400Y033998D02*X062873Y034525D01*X062873Y034525D02*X062127Y034525D01*
X062127Y034525D02*X061600Y033998D01*X061600Y033998D02*X061600Y033252D01*
X061600Y033252D02*X062127Y032725D01*X022500Y095000D02*X-002500Y095000D01*
X-002500Y090000D01*X022500Y090000D01*X022500Y092500D02*X072500Y092500D01*
X031260Y091735D02*X031377Y090826D01*X031292Y091735D02*X031377Y091038D01*
X031377Y090826D01*X031318Y091735D02*X031409Y091038D01*X031500Y091735D02*
X031409Y091038D01*X031377Y090826D01*X031500Y091735D02*X031617Y090826D01*
X031526Y091735D02*X031617Y091038D01*X031617Y090826D01*X031559Y091735D02*
X031643Y091038D01*X031734Y091705D02*X031643Y091038D01*X031617Y090826D01*
X031175Y091735D02*X031409Y091735D01*X031500Y091735D02*X031559Y091735D01*
X031643Y091735D02*X031825Y091735D01*X031201Y091735D02*X031292Y091705D01*
X031234Y091735D02*X031292Y091659D01*X031351Y091735D02*X031318Y091659D01*
X031377Y091735D02*X031318Y091705D01*X031676Y091735D02*X031734Y091705D01*
X031793Y091735D02*X031734Y091705D01*X032773Y091614D02*X032825Y091735D01*
X032825Y091477D01*X032773Y091614D01*X032682Y091705D01*X032539Y091735D01*
X032403Y091735D01*X032266Y091705D01*X032175Y091614D01*X032175Y091477D01*
X032221Y091402D01*X032357Y091311D01*X032636Y091220D01*X032728Y091174D01*
X032773Y091083D01*X032773Y090962D01*X032728Y090871D01*X032221Y091477D02*
X032266Y091402D01*X032357Y091356D01*X032636Y091265D01*X032728Y091220D01*
X032773Y091129D01*X032266Y091705D02*X032221Y091614D01*X032221Y091523D01*
X032266Y091432D01*X032357Y091402D01*X032636Y091311D01*X032773Y091220D01*
X032825Y091129D01*X032825Y091008D01*X032773Y090917D01*X032728Y090871D01*
X032591Y090826D01*X032448Y090826D01*X032312Y090871D01*X032221Y090962D01*
X032175Y091083D01*X032175Y090826D01*X032221Y090962D01*X033260Y091735D02*
X033260Y090871D01*X033260Y091735D02*X033468Y090826D01*X033292Y091735D02*
X033468Y090962D01*X033318Y091735D02*X033494Y090962D01*X033676Y091735D02*
X033468Y090826D01*X033676Y091735D02*X033676Y090826D01*X033702Y091705D02*
X033702Y090871D01*X033734Y091735D02*X033734Y090826D01*X033175Y091735D02*
X033318Y091735D01*X033676Y091735D02*X033825Y091735D01*X033175Y090826D02*
X033351Y090826D01*X033585Y090826D02*X033825Y090826D01*X033201Y091735D02*
X033260Y091705D01*X033760Y091735D02*X033734Y091659D01*X033793Y091735D02*
X033734Y091705D01*X033260Y090871D02*X033201Y090826D01*X033260Y090871D02*
X033318Y090826D01*X033676Y090871D02*X033617Y090826D01*X033676Y090917D02*
X033643Y090826D01*X033734Y090917D02*X033760Y090826D01*X033734Y090871D02*
X033793Y090826D01*X027760Y094235D02*X027760Y093371D01*X027760Y094235D02*
X027968Y093326D01*X027792Y094235D02*X027968Y093462D01*X027818Y094235D02*
X027994Y093462D01*X028176Y094235D02*X027968Y093326D01*X028176Y094235D02*
X028176Y093326D01*X028202Y094205D02*X028202Y093371D01*X028234Y094235D02*
X028234Y093326D01*X027675Y094235D02*X027818Y094235D01*X028176Y094235D02*
X028325Y094235D01*X027675Y093326D02*X027851Y093326D01*X028085Y093326D02*
X028325Y093326D01*X027701Y094235D02*X027760Y094205D01*X028260Y094235D02*
X028234Y094159D01*X028293Y094235D02*X028234Y094205D01*X027760Y093371D02*
X027701Y093326D01*X027760Y093371D02*X027818Y093326D01*X028176Y093371D02*
X028117Y093326D01*X028176Y093417D02*X028143Y093326D01*X028234Y093417D02*
X028260Y093326D01*X028234Y093371D02*X028293Y093326D01*X028955Y094235D02*
X028838Y094205D01*X028753Y094114D01*X028714Y094023D01*X028675Y093856D01*
X028675Y093720D01*X028714Y093538D01*X028753Y093462D01*X028838Y093371D01*
X028955Y093326D01*X029039Y093326D01*X029163Y093371D01*X029241Y093462D01*
X029280Y093538D01*X029325Y093720D01*X029325Y093856D01*X029280Y094023D01*
X029241Y094114D01*X029163Y094205D01*X029039Y094235D01*X028955Y094235D01*
X028792Y094114D02*X028753Y094023D01*X028714Y093902D01*X028714Y093674D01*
X028753Y093538D01*X028792Y093462D01*X029202Y093462D02*X029241Y093538D01*
X029280Y093674D01*X029280Y093902D01*X029241Y094023D01*X029202Y094114D01*
X028955Y094235D02*X028877Y094205D01*X028792Y094068D01*X028753Y093902D01*
X028753Y093674D01*X028792Y093508D01*X028877Y093371D01*X028955Y093326D01*
X029039Y093326D02*X029117Y093371D01*X029202Y093508D01*X029241Y093674D01*
X029241Y093902D01*X029202Y094068D01*X029117Y094205D01*X029039Y094235D01*
X029786Y094235D02*X029786Y093326D01*X029825Y094205D02*X029825Y093371D01*
X029864Y094235D02*X029864Y093326D01*X029675Y094235D02*X030052Y094235D01*
X030169Y094205D01*X030247Y094114D01*X030286Y094023D01*X030325Y093902D01*
X030325Y093674D01*X030286Y093538D01*X030247Y093462D01*X030169Y093371D01*
X030052Y093326D01*X029675Y093326D01*X030208Y094114D02*X030247Y094023D01*
X030286Y093902D01*X030286Y093674D01*X030247Y093538D01*X030208Y093462D01*
X030052Y094235D02*X030130Y094205D01*X030208Y094068D01*X030247Y093902D01*
X030247Y093674D01*X030208Y093508D01*X030130Y093371D01*X030052Y093326D01*
X029708Y094235D02*X029786Y094205D01*X029747Y094235D02*X029786Y094159D01*
X029903Y094235D02*X029864Y094159D01*X029942Y094235D02*X029864Y094205D01*
X029786Y093371D02*X029708Y093326D01*X029786Y093417D02*X029747Y093326D01*
X029864Y093417D02*X029903Y093326D01*X029864Y093371D02*X029942Y093326D01*
X030792Y094235D02*X030792Y093326D01*X030831Y094205D02*X030831Y093371D01*
X030877Y094235D02*X030877Y093326D01*X030675Y094235D02*X031325Y094235D01*
X031325Y093977D01*X030877Y093811D02*X031117Y093811D01*X031117Y093977D02*
X031117Y093629D01*X030675Y093326D02*X031325Y093326D01*X031325Y093583D01*
X030714Y094235D02*X030792Y094205D01*X030753Y094235D02*X030792Y094159D01*
X030916Y094235D02*X030877Y094159D01*X030955Y094235D02*X030877Y094205D01*
X031117Y094235D02*X031325Y094205D01*X031202Y094235D02*X031325Y094159D01*
X031241Y094235D02*X031325Y094114D01*X031280Y094235D02*X031325Y093977D01*
X031117Y093977D02*X031078Y093811D01*X031117Y093629D01*X031117Y093902D02*
X031039Y093811D01*X031117Y093720D01*X031117Y093856D02*X030955Y093811D01*
X031117Y093765D01*X030792Y093371D02*X030714Y093326D01*X030792Y093417D02*
X030753Y093326D01*X030877Y093417D02*X030916Y093326D01*X030877Y093371D02*
X030955Y093326D01*X031117Y093326D02*X031325Y093371D01*X031202Y093326D02*
X031325Y093417D01*X031241Y093326D02*X031325Y093462D01*X031280Y093326D02*
X031325Y093583D01*X031805Y094235D02*X031805Y093326D01*X031844Y094205D02*
X031844Y093371D01*X031890Y094235D02*X031890Y093326D01*X031675Y094235D02*
X032020Y094235D01*X031675Y093326D02*X032325Y093326D01*X032325Y093583D01*
X031714Y094235D02*X031805Y094205D01*X031760Y094235D02*X031805Y094159D01*
X031935Y094235D02*X031890Y094159D01*X031974Y094235D02*X031890Y094205D01*
X031805Y093371D02*X031714Y093326D01*X031805Y093417D02*X031760Y093326D01*
X031890Y093417D02*X031935Y093326D01*X031890Y093371D02*X031974Y093326D01*
X032104Y093326D02*X032325Y093371D01*X032188Y093326D02*X032325Y093417D01*
X032234Y093326D02*X032325Y093462D01*X032280Y093326D02*X032325Y093583D01*
X033766Y094235D02*X033766Y093371D01*X033766Y094235D02*X034221Y093326D01*
X033805Y094235D02*X034189Y093462D01*X033831Y094235D02*X034221Y093462D01*
X034221Y094205D02*X034221Y093326D01*X033675Y094235D02*X033831Y094235D01*
X034130Y094235D02*X034325Y094235D01*X033675Y093326D02*X033864Y093326D01*
X033701Y094235D02*X033766Y094205D01*X034163Y094235D02*X034221Y094205D01*
X034293Y094235D02*X034221Y094205D01*X033766Y093371D02*X033701Y093326D01*
X033766Y093371D02*X033831Y093326D01*X035000Y094235D02*X034747Y093371D01*
X034961Y094114D02*X035176Y093326D01*X035000Y094114D02*X035215Y093326D01*
X035000Y094235D02*X035247Y093326D01*X034818Y093583D02*X035143Y093583D01*
X034675Y093326D02*X034890Y093326D01*X035072Y093326D02*X035325Y093326D01*
X034747Y093371D02*X034708Y093326D01*X034747Y093371D02*X034818Y093326D01*
X035176Y093371D02*X035104Y093326D01*X035176Y093417D02*X035143Y093326D01*
X035215Y093417D02*X035286Y093326D01*X035760Y094235D02*X035760Y093371D01*
X035760Y094235D02*X035968Y093326D01*X035792Y094235D02*X035968Y093462D01*
X035818Y094235D02*X035994Y093462D01*X036176Y094235D02*X035968Y093326D01*
X036176Y094235D02*X036176Y093326D01*X036202Y094205D02*X036202Y093371D01*
X036234Y094235D02*X036234Y093326D01*X035675Y094235D02*X035818Y094235D01*
X036176Y094235D02*X036325Y094235D01*X035675Y093326D02*X035851Y093326D01*
X036085Y093326D02*X036325Y093326D01*X035701Y094235D02*X035760Y094205D01*
X036260Y094235D02*X036234Y094159D01*X036293Y094235D02*X036234Y094205D01*
X035760Y093371D02*X035701Y093326D01*X035760Y093371D02*X035818Y093326D01*
X036176Y093371D02*X036117Y093326D01*X036176Y093417D02*X036143Y093326D01*
X036234Y093417D02*X036260Y093326D01*X036234Y093371D02*X036293Y093326D01*
X036792Y094235D02*X036792Y093326D01*X036831Y094205D02*X036831Y093371D01*
X036877Y094235D02*X036877Y093326D01*X036675Y094235D02*X037325Y094235D01*
X037325Y093977D01*X036877Y093811D02*X037117Y093811D01*X037117Y093977D02*
X037117Y093629D01*X036675Y093326D02*X037325Y093326D01*X037325Y093583D01*
X036714Y094235D02*X036792Y094205D01*X036753Y094235D02*X036792Y094159D01*
X036916Y094235D02*X036877Y094159D01*X036955Y094235D02*X036877Y094205D01*
X037117Y094235D02*X037325Y094205D01*X037202Y094235D02*X037325Y094159D01*
X037241Y094235D02*X037325Y094114D01*X037280Y094235D02*X037325Y093977D01*
X037117Y093977D02*X037078Y093811D01*X037117Y093629D01*X037117Y093902D02*
X037039Y093811D01*X037117Y093720D01*X037117Y093856D02*X036955Y093811D01*
X037117Y093765D01*X036792Y093371D02*X036714Y093326D01*X036792Y093417D02*
X036753Y093326D01*X036877Y093417D02*X036916Y093326D01*X036877Y093371D02*
X036955Y093326D01*X037117Y093326D02*X037325Y093371D01*X037202Y093326D02*
X037325Y093417D01*X037241Y093326D02*X037325Y093462D01*X037280Y093326D02*
X037325Y093583D01*X045305Y094235D02*X045305Y093326D01*X045344Y094205D02*
X045344Y093371D01*X045390Y094235D02*X045390Y093326D01*X045175Y094235D02*
X045520Y094235D01*X045175Y093326D02*X045825Y093326D01*X045825Y093583D01*
X045214Y094235D02*X045305Y094205D01*X045260Y094235D02*X045305Y094159D01*
X045435Y094235D02*X045390Y094159D01*X045474Y094235D02*X045390Y094205D01*
X045305Y093371D02*X045214Y093326D01*X045305Y093417D02*X045260Y093326D01*
X045390Y093417D02*X045435Y093326D01*X045390Y093371D02*X045474Y093326D01*
X045604Y093326D02*X045825Y093371D01*X045689Y093326D02*X045825Y093417D01*
X045734Y093326D02*X045825Y093462D01*X045780Y093326D02*X045825Y093583D01*
X046500Y094235D02*X046247Y093371D01*X046461Y094114D02*X046676Y093326D01*
X046500Y094114D02*X046715Y093326D01*X046500Y094235D02*X046747Y093326D01*
X046318Y093583D02*X046643Y093583D01*X046175Y093326D02*X046390Y093326D01*
X046572Y093326D02*X046825Y093326D01*X046247Y093371D02*X046208Y093326D01*
X046247Y093371D02*X046318Y093326D01*X046676Y093371D02*X046604Y093326D01*
X046676Y093417D02*X046643Y093326D01*X046715Y093417D02*X046786Y093326D01*
X047240Y094235D02*X047461Y093765D01*X047461Y093326D01*X047273Y094235D02*
X047494Y093765D01*X047494Y093371D01*X047299Y094235D02*X047533Y093765D01*
X047533Y093326D01*X047721Y094205D02*X047533Y093765D01*X047175Y094235D02*
X047403Y094235D01*X047624Y094235D02*X047825Y094235D01*X047370Y093326D02*
X047624Y093326D01*X047208Y094235D02*X047273Y094205D01*X047370Y094235D02*
X047299Y094205D01*X047663Y094235D02*X047721Y094205D01*X047786Y094235D02*
X047721Y094205D01*X047461Y093371D02*X047403Y093326D01*X047461Y093417D02*
X047429Y093326D01*X047533Y093417D02*X047559Y093326D01*X047533Y093371D02*
X047591Y093326D01*X048292Y094235D02*X048292Y093326D01*X048331Y094205D02*
X048331Y093371D01*X048377Y094235D02*X048377Y093326D01*X048175Y094235D02*
X048825Y094235D01*X048825Y093977D01*X048377Y093811D02*X048617Y093811D01*
X048617Y093977D02*X048617Y093629D01*X048175Y093326D02*X048825Y093326D01*
X048825Y093583D01*X048214Y094235D02*X048292Y094205D01*X048253Y094235D02*
X048292Y094159D01*X048416Y094235D02*X048377Y094159D01*X048455Y094235D02*
X048377Y094205D01*X048617Y094235D02*X048825Y094205D01*X048702Y094235D02*
X048825Y094159D01*X048741Y094235D02*X048825Y094114D01*X048780Y094235D02*
X048825Y093977D01*X048617Y093977D02*X048578Y093811D01*X048617Y093629D01*
X048617Y093902D02*X048539Y093811D01*X048617Y093720D01*X048617Y093856D02*
X048455Y093811D01*X048617Y093765D01*X048292Y093371D02*X048214Y093326D01*
X048292Y093417D02*X048253Y093326D01*X048377Y093417D02*X048416Y093326D01*
X048377Y093371D02*X048455Y093326D01*X048617Y093326D02*X048825Y093371D01*
X048702Y093326D02*X048825Y093417D01*X048741Y093326D02*X048825Y093462D01*
X048780Y093326D02*X048825Y093583D01*X049279Y094235D02*X049279Y093326D01*
X049318Y094205D02*X049318Y093371D01*X049351Y094235D02*X049351Y093326D01*
X049175Y094235D02*X049604Y094235D01*X049715Y094205D01*X049747Y094159D01*
X049786Y094068D01*X049786Y093977D01*X049747Y093902D01*X049715Y093856D01*
X049604Y093811D01*X049351Y093811D01*X049715Y094159D02*X049747Y094068D01*
X049747Y093977D01*X049715Y093902D01*X049604Y094235D02*X049676Y094205D01*
X049715Y094114D01*X049715Y093932D01*X049676Y093856D01*X049604Y093811D01*
X049494Y093811D02*X049572Y093765D01*X049604Y093674D01*X049676Y093417D01*
X049715Y093326D01*X049786Y093326D01*X049825Y093417D01*X049825Y093508D01*
X049676Y093508D02*X049715Y093417D01*X049747Y093371D01*X049786Y093371D01*
X049572Y093765D02*X049604Y093720D01*X049715Y093462D01*X049747Y093417D01*
X049786Y093417D01*X049825Y093462D01*X049175Y093326D02*X049461Y093326D01*
X049208Y094235D02*X049279Y094205D01*X049247Y094235D02*X049279Y094159D01*
X049390Y094235D02*X049351Y094159D01*X049422Y094235D02*X049351Y094205D01*
X049279Y093371D02*X049208Y093326D01*X049279Y093417D02*X049247Y093326D01*
X049351Y093417D02*X049390Y093326D01*X049351Y093371D02*X049422Y093326D01*
X051266Y094235D02*X051266Y093371D01*X051266Y094235D02*X051721Y093326D01*
X051305Y094235D02*X051689Y093462D01*X051331Y094235D02*X051721Y093462D01*
X051721Y094205D02*X051721Y093326D01*X051175Y094235D02*X051331Y094235D01*
X051630Y094235D02*X051825Y094235D01*X051175Y093326D02*X051364Y093326D01*
X051201Y094235D02*X051266Y094205D01*X051663Y094235D02*X051721Y094205D01*
X051793Y094235D02*X051721Y094205D01*X051266Y093371D02*X051201Y093326D01*
X051266Y093371D02*X051331Y093326D01*X052500Y094235D02*X052247Y093371D01*
X052461Y094114D02*X052676Y093326D01*X052500Y094114D02*X052715Y093326D01*
X052500Y094235D02*X052747Y093326D01*X052318Y093583D02*X052643Y093583D01*
X052175Y093326D02*X052390Y093326D01*X052572Y093326D02*X052825Y093326D01*
X052247Y093371D02*X052208Y093326D01*X052247Y093371D02*X052318Y093326D01*
X052676Y093371D02*X052604Y093326D01*X052676Y093417D02*X052643Y093326D01*
X052715Y093417D02*X052786Y093326D01*X053260Y094235D02*X053260Y093371D01*
X053260Y094235D02*X053468Y093326D01*X053292Y094235D02*X053468Y093462D01*
X053318Y094235D02*X053494Y093462D01*X053676Y094235D02*X053468Y093326D01*
X053676Y094235D02*X053676Y093326D01*X053702Y094205D02*X053702Y093371D01*
X053734Y094235D02*X053734Y093326D01*X053175Y094235D02*X053318Y094235D01*
X053676Y094235D02*X053825Y094235D01*X053175Y093326D02*X053351Y093326D01*
X053585Y093326D02*X053825Y093326D01*X053201Y094235D02*X053260Y094205D01*
X053760Y094235D02*X053734Y094159D01*X053793Y094235D02*X053734Y094205D01*
X053260Y093371D02*X053201Y093326D01*X053260Y093371D02*X053318Y093326D01*
X053676Y093371D02*X053617Y093326D01*X053676Y093417D02*X053643Y093326D01*
X053734Y093417D02*X053760Y093326D01*X053734Y093371D02*X053793Y093326D01*
X054292Y094235D02*X054292Y093326D01*X054331Y094205D02*X054331Y093371D01*
X054377Y094235D02*X054377Y093326D01*X054175Y094235D02*X054825Y094235D01*
X054825Y093977D01*X054377Y093811D02*X054617Y093811D01*X054617Y093977D02*
X054617Y093629D01*X054175Y093326D02*X054825Y093326D01*X054825Y093583D01*
X054214Y094235D02*X054292Y094205D01*X054253Y094235D02*X054292Y094159D01*
X054416Y094235D02*X054377Y094159D01*X054455Y094235D02*X054377Y094205D01*
X054617Y094235D02*X054825Y094205D01*X054702Y094235D02*X054825Y094159D01*
X054741Y094235D02*X054825Y094114D01*X054780Y094235D02*X054825Y093977D01*
X054617Y093977D02*X054578Y093811D01*X054617Y093629D01*X054617Y093902D02*
X054539Y093811D01*X054617Y093720D01*X054617Y093856D02*X054455Y093811D01*
X054617Y093765D01*X054292Y093371D02*X054214Y093326D01*X054292Y093417D02*
X054253Y093326D01*X054377Y093417D02*X054416Y093326D01*X054377Y093371D02*
X054455Y093326D01*X054617Y093326D02*X054825Y093371D01*X054702Y093326D02*
X054825Y093417D01*X054741Y093326D02*X054825Y093462D01*X054780Y093326D02*
X054825Y093583D01*X042500Y095000D02*X042500Y090000D01*X022500Y095000D02*
X072500Y095000D01*X072500Y090000D02*X022500Y090000D01*X022500Y095000D02*
X022500Y090000D01*X072500Y095000D02*X072500Y090000D01*X057500Y095000D02*
X057500Y090000D01*X063286Y094235D02*X063286Y093326D01*X063325Y094205D02*
X063325Y093371D01*X063364Y094235D02*X063364Y093326D01*X063175Y094235D02*
X063552Y094235D01*X063669Y094205D01*X063747Y094114D01*X063786Y094023D01*
X063825Y093902D01*X063825Y093674D01*X063786Y093538D01*X063747Y093462D01*
X063669Y093371D01*X063552Y093326D01*X063175Y093326D01*X063708Y094114D02*
X063747Y094023D01*X063786Y093902D01*X063786Y093674D01*X063747Y093538D01*
X063708Y093462D01*X063552Y094235D02*X063630Y094205D01*X063708Y094068D01*
X063747Y093902D01*X063747Y093674D01*X063708Y093508D01*X063630Y093371D01*
X063552Y093326D01*X063208Y094235D02*X063286Y094205D01*X063247Y094235D02*
X063286Y094159D01*X063403Y094235D02*X063364Y094159D01*X063442Y094235D02*
X063364Y094205D01*X063286Y093371D02*X063208Y093326D01*X063286Y093417D02*
X063247Y093326D01*X063364Y093417D02*X063403Y093326D01*X063364Y093371D02*
X063442Y093326D01*X064500Y094235D02*X064247Y093371D01*X064461Y094114D02*
X064676Y093326D01*X064500Y094114D02*X064715Y093326D01*X064500Y094235D02*
X064747Y093326D01*X064318Y093583D02*X064643Y093583D01*X064175Y093326D02*
X064390Y093326D01*X064572Y093326D02*X064825Y093326D01*X064247Y093371D02*
X064207Y093326D01*X064247Y093371D02*X064318Y093326D01*X064676Y093371D02*
X064604Y093326D01*X064676Y093417D02*X064643Y093326D01*X064715Y093417D02*
X064786Y093326D01*X065175Y094235D02*X065175Y093977D01*X065454Y094235D02*
X065454Y093326D01*X065500Y094205D02*X065500Y093371D01*X065539Y094235D02*
X065539Y093326D01*X065825Y094235D02*X065825Y093977D01*X065175Y094235D02*
X065825Y094235D01*X065338Y093326D02*X065656Y093326D01*X065214Y094235D02*
X065175Y093977D01*X065253Y094235D02*X065175Y094114D01*X065292Y094235D02*
X065175Y094159D01*X065376Y094235D02*X065175Y094205D01*X065617Y094235D02*
X065825Y094205D01*X065702Y094235D02*X065825Y094159D01*X065741Y094235D02*
X065825Y094114D01*X065780Y094235D02*X065825Y093977D01*X065454Y093371D02*
X065376Y093326D01*X065454Y093417D02*X065415Y093326D01*X065539Y093417D02*
X065578Y093326D01*X065539Y093371D02*X065617Y093326D01*X066292Y094235D02*
X066292Y093326D01*X066331Y094205D02*X066331Y093371D01*X066377Y094235D02*
X066377Y093326D01*X066175Y094235D02*X066825Y094235D01*X066825Y093977D01*
X066377Y093811D02*X066617Y093811D01*X066617Y093977D02*X066617Y093629D01*
X066175Y093326D02*X066825Y093326D01*X066825Y093583D01*X066214Y094235D02*
X066292Y094205D01*X066253Y094235D02*X066292Y094159D01*X066416Y094235D02*
X066377Y094159D01*X066455Y094235D02*X066377Y094205D01*X066617Y094235D02*
X066825Y094205D01*X066702Y094235D02*X066825Y094159D01*X066741Y094235D02*
X066825Y094114D01*X066780Y094235D02*X066825Y093977D01*X066617Y093977D02*
X066578Y093811D01*X066617Y093629D01*X066617Y093902D02*X066539Y093811D01*
X066617Y093720D01*X066617Y093856D02*X066455Y093811D01*X066617Y093765D01*
X066292Y093371D02*X066214Y093326D01*X066292Y093417D02*X066253Y093326D01*
X066377Y093417D02*X066416Y093326D01*X066377Y093371D02*X066455Y093326D01*
X066617Y093326D02*X066825Y093371D01*X066702Y093326D02*X066825Y093417D01*
X066741Y093326D02*X066825Y093462D01*X066780Y093326D02*X066825Y093583D01*
X060221Y091568D02*X060221Y091523D01*X060266Y091523D01*X060266Y091568D01*
X060221Y091568D01*X060221Y091614D02*X060266Y091614D01*X060312Y091568D01*
X060312Y091523D01*X060266Y091477D01*X060221Y091477D01*X060175Y091523D01*
X060175Y091568D01*X060221Y091659D01*X060266Y091705D01*X060403Y091735D01*
X060591Y091735D01*X060728Y091705D01*X060773Y091659D01*X060825Y091568D01*
X060825Y091477D01*X060773Y091402D01*X060637Y091311D01*X060403Y091220D01*
X060312Y091174D01*X060221Y091083D01*X060175Y090962D01*X060175Y090826D01*
X060728Y091659D02*X060773Y091568D01*X060773Y091477D01*X060728Y091402D01*
X060591Y091735D02*X060682Y091705D01*X060728Y091568D01*X060728Y091477D01*
X060682Y091402D01*X060591Y091311D01*X060403Y091220D01*X060175Y090917D02*
X060221Y090962D01*X060312Y090962D01*X060539Y090917D01*X060728Y090917D01*
X060825Y090962D01*X060312Y090962D02*X060539Y090871D01*X060728Y090871D01*
X060773Y090917D01*X060312Y090962D02*X060539Y090826D01*X060728Y090826D01*
X060773Y090871D01*X060825Y090962D01*X060825Y091038D01*X061448Y091735D02*
X061312Y091705D01*X061221Y091568D01*X061175Y091356D01*X061175Y091220D01*
X061221Y091008D01*X061312Y090871D01*X061448Y090826D01*X061546Y090826D01*
X061682Y090871D01*X061773Y091008D01*X061825Y091220D01*X061825Y091356D01*
X061773Y091568D01*X061682Y091705D01*X061546Y091735D01*X061448Y091735D01*
X061312Y091659D02*X061266Y091568D01*X061221Y091402D01*X061221Y091174D01*
X061266Y091008D01*X061312Y090917D01*X061682Y090917D02*X061728Y091008D01*
X061773Y091174D01*X061773Y091402D01*X061728Y091568D01*X061682Y091659D01*
X061448Y091735D02*X061357Y091705D01*X061312Y091614D01*X061266Y091402D01*
X061266Y091174D01*X061312Y090962D01*X061357Y090871D01*X061448Y090826D01*
X061546Y090826D02*X061637Y090871D01*X061682Y090962D01*X061728Y091174D01*
X061728Y091402D01*X061682Y091614D01*X061637Y091705D01*X061546Y091735D01*
X062468Y091659D02*X062468Y090826D01*X062494Y091659D02*X062494Y090871D01*
X062513Y091735D02*X062513Y090826D01*X062513Y091735D02*X062448Y091614D01*
X062409Y091568D01*X062390Y090826D02*X062598Y090826D01*X062468Y090871D02*
X062429Y090826D01*X062468Y090917D02*X062448Y090826D01*X062513Y090917D02*
X062533Y090826D01*X062513Y090871D02*X062552Y090826D01*X063682Y091614D02*
X063682Y091568D01*X063728Y091568D01*X063728Y091614D01*X063682Y091614D01*
X063728Y091659D02*X063682Y091659D01*X063637Y091614D01*X063637Y091568D01*
X063682Y091523D01*X063728Y091523D01*X063773Y091568D01*X063773Y091614D01*
X063728Y091705D01*X063637Y091735D01*X063500Y091735D01*X063357Y091705D01*
X063266Y091614D01*X063221Y091523D01*X063175Y091356D01*X063175Y091083D01*
X063221Y090962D01*X063312Y090871D01*X063448Y090826D01*X063546Y090826D01*
X063682Y090871D01*X063773Y090962D01*X063825Y091083D01*X063825Y091129D01*
X063773Y091265D01*X063682Y091356D01*X063546Y091402D01*X063448Y091402D01*
X063357Y091356D01*X063312Y091311D01*X063266Y091220D01*X063312Y091614D02*
X063266Y091523D01*X063221Y091356D01*X063221Y091083D01*X063266Y090962D01*
X063312Y090917D01*X063728Y090962D02*X063773Y091038D01*X063773Y091174D01*
X063728Y091265D01*X063500Y091735D02*X063403Y091705D01*X063357Y091659D01*
X063312Y091568D01*X063266Y091402D01*X063266Y091083D01*X063312Y090962D01*
X063357Y090871D01*X063448Y090826D01*X063546Y090826D02*X063637Y090871D01*
X063682Y090917D01*X063728Y091038D01*X063728Y091174D01*X063682Y091311D01*
X063637Y091356D01*X063546Y091402D01*X064175Y091265D02*X064825Y091265D01*
X064825Y091220D01*X064175Y091265D02*X064175Y091220D01*X064825Y091220D01*
X065468Y091659D02*X065468Y090826D01*X065494Y091659D02*X065494Y090871D01*
X065513Y091735D02*X065513Y090826D01*X065513Y091735D02*X065448Y091614D01*
X065409Y091568D01*X065390Y090826D02*X065598Y090826D01*X065468Y090871D02*
X065429Y090826D01*X065468Y090917D02*X065448Y090826D01*X065513Y090917D02*
X065533Y090826D01*X065513Y090871D02*X065552Y090826D01*X066468Y091659D02*
X066468Y090826D01*X066494Y091659D02*X066494Y090871D01*X066513Y091735D02*
X066513Y090826D01*X066513Y091735D02*X066448Y091614D01*X066409Y091568D01*
X066390Y090826D02*X066598Y090826D01*X066468Y090871D02*X066429Y090826D01*
X066468Y090917D02*X066448Y090826D01*X066513Y090917D02*X066533Y090826D01*
X066513Y090871D02*X066552Y090826D01*X067175Y091265D02*X067825Y091265D01*
X067825Y091220D01*X067175Y091265D02*X067175Y091220D01*X067825Y091220D01*
X068448Y091735D02*X068312Y091705D01*X068221Y091568D01*X068175Y091356D01*
X068175Y091220D01*X068221Y091008D01*X068312Y090871D01*X068448Y090826D01*
X068546Y090826D01*X068682Y090871D01*X068773Y091008D01*X068825Y091220D01*
X068825Y091356D01*X068773Y091568D01*X068682Y091705D01*X068546Y091735D01*
X068448Y091735D01*X068312Y091659D02*X068266Y091568D01*X068221Y091402D01*
X068221Y091174D01*X068266Y091008D01*X068312Y090917D01*X068682Y090917D02*
X068728Y091008D01*X068773Y091174D01*X068773Y091402D01*X068728Y091568D01*
X068682Y091659D01*X068448Y091735D02*X068357Y091705D01*X068312Y091614D01*
X068266Y091402D01*X068266Y091174D01*X068312Y090962D01*X068357Y090871D01*
X068448Y090826D01*X068546Y090826D02*X068637Y090871D01*X068682Y090962D01*
X068728Y091174D01*X068728Y091402D01*X068682Y091614D01*X068637Y091705D01*
X068546Y091735D01*X069468Y091659D02*X069468Y090826D01*X069494Y091659D02*
X069494Y090871D01*X069513Y091735D02*X069513Y090826D01*X069513Y091735D02*
X069448Y091614D01*X069409Y091568D01*X069390Y090826D02*X069598Y090826D01*
X069468Y090871D02*X069429Y090826D01*X069468Y090917D02*X069448Y090826D01*
X069513Y090917D02*X069533Y090826D01*X069513Y090871D02*X069552Y090826D01*
X048773Y091614D02*X048825Y091735D01*X048825Y091477D01*X048773Y091614D01*
X048682Y091705D01*X048539Y091735D01*X048403Y091735D01*X048266Y091705D01*
X048175Y091614D01*X048175Y091477D01*X048221Y091402D01*X048357Y091311D01*
X048637Y091220D01*X048728Y091174D01*X048773Y091083D01*X048773Y090962D01*
X048728Y090871D01*X048221Y091477D02*X048266Y091402D01*X048357Y091356D01*
X048637Y091265D01*X048728Y091220D01*X048773Y091129D01*X048266Y091705D02*
X048221Y091614D01*X048221Y091523D01*X048266Y091432D01*X048357Y091402D01*
X048637Y091311D01*X048773Y091220D01*X048825Y091129D01*X048825Y091008D01*
X048773Y090917D01*X048728Y090871D01*X048591Y090826D01*X048448Y090826D01*
X048312Y090871D01*X048221Y090962D01*X048175Y091083D01*X048175Y090826D01*
X048221Y090962D01*X049455Y091735D02*X049338Y091705D01*X049253Y091614D01*
X049214Y091523D01*X049175Y091356D01*X049175Y091220D01*X049214Y091038D01*
X049253Y090962D01*X049338Y090871D01*X049455Y090826D01*X049539Y090826D01*
X049663Y090871D01*X049741Y090962D01*X049780Y091038D01*X049825Y091220D01*
X049825Y091356D01*X049780Y091523D01*X049741Y091614D01*X049663Y091705D01*
X049539Y091735D01*X049455Y091735D01*X049292Y091614D02*X049253Y091523D01*
X049214Y091402D01*X049214Y091174D01*X049253Y091038D01*X049292Y090962D01*
X049702Y090962D02*X049741Y091038D01*X049780Y091174D01*X049780Y091402D01*
X049741Y091523D01*X049702Y091614D01*X049455Y091735D02*X049377Y091705D01*
X049292Y091568D01*X049253Y091402D01*X049253Y091174D01*X049292Y091008D01*
X049377Y090871D01*X049455Y090826D01*X049539Y090826D02*X049617Y090871D01*
X049702Y091008D01*X049741Y091174D01*X049741Y091402D01*X049702Y091568D01*
X049617Y091705D01*X049539Y091735D01*X050305Y091735D02*X050305Y090826D01*
X050344Y091705D02*X050344Y090871D01*X050390Y091735D02*X050390Y090826D01*
X050175Y091735D02*X050520Y091735D01*X050175Y090826D02*X050825Y090826D01*
X050825Y091083D01*X050214Y091735D02*X050305Y091705D01*X050260Y091735D02*
X050305Y091659D01*X050435Y091735D02*X050390Y091659D01*X050474Y091735D02*
X050390Y091705D01*X050305Y090871D02*X050214Y090826D01*X050305Y090917D02*
X050260Y090826D01*X050390Y090917D02*X050435Y090826D01*X050390Y090871D02*
X050474Y090826D01*X050604Y090826D02*X050825Y090871D01*X050689Y090826D02*
X050825Y090917D01*X050734Y090826D02*X050825Y090962D01*X050780Y090826D02*
X050825Y091083D01*X051286Y091735D02*X051286Y090826D01*X051325Y091705D02*
X051325Y090871D01*X051364Y091735D02*X051364Y090826D01*X051175Y091735D02*
X051552Y091735D01*X051669Y091705D01*X051747Y091614D01*X051786Y091523D01*
X051825Y091402D01*X051825Y091174D01*X051786Y091038D01*X051747Y090962D01*
X051669Y090871D01*X051552Y090826D01*X051175Y090826D01*X051708Y091614D02*
X051747Y091523D01*X051786Y091402D01*X051786Y091174D01*X051747Y091038D01*
X051708Y090962D01*X051552Y091735D02*X051630Y091705D01*X051708Y091568D01*
X051747Y091402D01*X051747Y091174D01*X051708Y091008D01*X051630Y090871D01*
X051552Y090826D01*X051208Y091735D02*X051286Y091705D01*X051247Y091735D02*
X051286Y091659D01*X051403Y091735D02*X051364Y091659D01*X051442Y091735D02*
X051364Y091705D01*X051286Y090871D02*X051208Y090826D01*X051286Y090917D02*
X051247Y090826D01*X051364Y090917D02*X051403Y090826D01*X051364Y090871D02*
X051442Y090826D01*X000000Y000000D02*D02*G54D18*X015250Y030300D03*
X015250Y027760D03*X017790Y030300D03*X017790Y027760D03*X015250Y035380D03*
X015250Y032840D03*X017790Y035380D03*X017790Y032840D03*X015250Y040460D03*
X015250Y037920D03*X017790Y040460D03*X017790Y037920D03*X017790Y043000D03*
X028960Y062250D03*X031500Y062250D03*X040790Y062250D03*X043330Y062250D03*
X038250Y062250D03*D02*G54D71*X058500Y034500D03*X058500Y042000D03*
X058500Y049500D03*D02*G54D20*X058500Y036500D03*X058500Y044000D03*
X058500Y051500D03*D02*G54D138*X013000Y007750D03*X013000Y011000D03*
X013000Y017500D03*X013000Y014250D03*X025875Y022750D03*X025875Y025250D03*
X062500Y033625D03*X062500Y037375D03*X062500Y041125D03*X062500Y044875D03*
X062500Y048625D03*X062500Y052375D03*X057500Y062250D03*X055000Y062250D03*
X052500Y062250D03*D02*G54D142*X028960Y062250D02*X029910Y062250D01*
X028960Y062250D02*X028960Y063200D01*X028960Y062250D02*X028010Y062250D01*
X028960Y062250D02*X028960Y061300D01*X047210Y008710D02*X048510Y008710D01*
X047210Y008710D02*X047210Y010010D01*X047210Y008710D02*X045910Y008710D01*
X047210Y008710D02*X047210Y007410D01*X052290Y008710D02*X053590Y008710D01*
X052290Y008710D02*X052290Y010010D01*X052290Y008710D02*X050990Y008710D01*
X052290Y008710D02*X052290Y007410D01*X052290Y013790D02*X053590Y013790D01*
X052290Y013790D02*X052290Y015090D01*X052290Y013790D02*X050990Y013790D01*
X052290Y013790D02*X052290Y012490D01*X047210Y013790D02*X048510Y013790D01*
X047210Y013790D02*X047210Y015090D01*X047210Y013790D02*X045910Y013790D01*
X047210Y013790D02*X047210Y012490D01*X058500Y051500D02*X059350Y051500D01*
X058500Y051500D02*X058500Y052350D01*X058500Y051500D02*X057650Y051500D01*
X058500Y051500D02*X058500Y050650D01*X058500Y036500D02*X059350Y036500D01*
X058500Y036500D02*X058500Y037350D01*X058500Y036500D02*X057650Y036500D01*
X058500Y036500D02*X058500Y035650D01*X017790Y027760D02*X018740Y027760D01*
X017790Y027760D02*X017790Y028710D01*X017790Y027760D02*X016840Y027760D01*
X017790Y027760D02*X017790Y026810D01*X017135Y020750D02*X016569Y020184D01*
X017135Y020750D02*X017701Y020184D01*X038250Y062250D02*X039200Y062250D01*
X038250Y062250D02*X038250Y063200D01*X038250Y062250D02*X037300Y062250D01*
X038250Y062250D02*X038250Y061300D01*X062500Y052375D02*X063400Y052375D01*
X062500Y052375D02*X062500Y053275D01*X062500Y052375D02*X061600Y052375D01*
X062500Y052375D02*X062500Y051475D01*X055000Y062250D02*X055900Y062250D01*
X055000Y062250D02*X055000Y063150D01*X055000Y062250D02*X054100Y062250D01*
X055000Y062250D02*X055000Y061350D01*X062500Y037375D02*X063400Y037375D01*
X062500Y037375D02*X062500Y038275D01*X062500Y037375D02*X061600Y037375D01*
X062500Y037375D02*X062500Y036475D01*X021500Y008375D02*X021500Y005250D01*
X022250Y004500D02*X021500Y005250D01*X041375Y059125D02*X041375Y058750D01*
X041375Y058000D02*X041375Y058375D01*X041375Y058375D02*X041375Y058750D01*
X041375Y059500D02*X041375Y059125D01*X042250Y058375D02*X042250Y058000D01*
X042250Y058750D02*X042250Y058375D01*X042250Y058750D02*X042250Y059125D01*
X042250Y059125D02*X042250Y059500D01*X045250Y060250D02*X045250Y059750D01*
X045250Y059750D02*X045250Y059000D01*X046750Y059000D02*X046750Y058500D01*
X046750Y058500D02*X046750Y058000D01*X046750Y059000D02*X046750Y059375D01*
X046750Y059375D02*X046750Y059750D01*X047625Y058000D02*X047625Y058500D01*
X047625Y058500D02*X047625Y059000D01*X047625Y059375D02*X047625Y059000D01*
X047625Y059750D02*X047625Y059375D01*X052500Y062250D02*X052500Y061250D01*
X052000Y060750D02*X052500Y061250D01*X054875Y057375D02*X054875Y056500D01*
X054875Y055625D02*X054875Y056500D01*X055875Y056500D02*X055875Y055625D01*
X056375Y055625D02*X056375Y057375D01*X055875Y057375D02*X055875Y056500D01*
X055375Y055625D02*X055375Y057375D01*X056875Y055625D02*X056875Y057375D01*
X022250Y004500D02*X029375Y004500D01*X026375Y013875D02*X030125Y013875D01*
X031500Y015250D02*X030125Y013875D01*X029750Y014625D02*X027500Y014625D01*
X031500Y015250D02*X032125Y015250D01*X032125Y015250D02*X036375Y015250D01*
X055375Y055625D02*X054875Y055625D01*X055875Y055625D02*X056375Y055625D01*
X056375Y055625D02*X056875Y055625D01*X055875Y055625D02*X055375Y055625D01*
X042250Y058375D02*X041375Y058375D01*X041375Y058000D02*X042250Y058000D01*
X047625Y058500D02*X046750Y058500D01*X046750Y058000D02*X047625Y058000D01*
X055375Y057375D02*X054875Y057375D01*X056375Y057375D02*X055875Y057375D01*
X056875Y057375D02*X056375Y057375D01*X055875Y057375D02*X055375Y057375D01*
X041375Y058750D02*X042250Y058750D01*X042250Y059500D02*X041375Y059500D01*
X041375Y059125D02*X042250Y059125D01*X047625Y059375D02*X046750Y059375D01*
X047625Y059000D02*X046750Y059000D01*X046750Y059750D02*X047625Y059750D01*
X052000Y060750D02*X045750Y060750D01*X045250Y060250D02*X045750Y060750D01*
X025750Y014500D02*X026375Y013875D01*X030375Y015250D02*X029750Y014625D01*D02*
G54D146*X047000Y052750D02*X047000Y051500D01*X048625Y047000D02*X048625Y041750D01*
X049375Y041000D02*X048625Y041750D01*X048875Y048250D02*X048875Y047250D01*
X048625Y047000D02*X048875Y047250D01*X048875Y051375D02*X048875Y048250D01*
X048875Y052125D02*X048875Y051375D01*X051875Y042500D02*X051875Y044500D01*
X052000Y048000D02*X052000Y052500D01*X051375Y053125D02*X052000Y052500D01*
X049375Y041000D02*X051875Y041000D01*X058500Y042000D02*X058000Y042000D01*
X052000Y048000D02*X058000Y042000D01*X037375Y048250D02*X036500Y048250D01*
X048875Y048250D02*X037375Y048250D01*X047000Y051500D02*X047375Y051500D01*
X046625Y051500D02*X047000Y051500D01*X051375Y053125D02*X047375Y053125D01*
X047000Y052750D02*X047375Y053125D01*D02*G54D148*X014750Y006375D03*
X010750Y005500D03*X016000Y001500D03*X016000Y005000D03*X024250Y005625D03*
X020000Y001500D03*X023000Y001500D03*X026000Y001500D03*X018750Y006000D03*
X023000Y006750D03*X025500Y006750D03*X027750Y006000D03*X032000Y004500D03*
X032000Y001500D03*X029000Y001500D03*X033500Y006500D03*X029375Y004500D03*
X037500Y006500D03*X035000Y004500D03*X041000Y001500D03*X038000Y001500D03*
X035000Y001500D03*X047000Y006250D03*X050000Y004500D03*X047000Y004500D03*
X047000Y001500D03*X050000Y001500D03*X044000Y001500D03*X053750Y005500D03*
X053750Y007000D03*X055250Y001500D03*X055250Y005500D03*X055250Y007000D03*
X053000Y004500D03*X053000Y001500D03*X014750Y012875D03*X014750Y009625D03*
X010750Y011000D03*X010750Y008000D03*X018750Y011500D03*X018750Y008750D03*
X022750Y010250D03*X021500Y008375D03*X027000Y012375D03*X031125Y009925D03*
X031125Y011750D03*X031250Y012875D03*X027750Y009250D03*X030750Y007750D03*
X033250Y012750D03*X036125Y008075D03*X037375Y011750D03*X037000Y010000D03*
X042750Y011500D03*X040750Y011500D03*X035250Y012750D03*X044750Y010000D03*
X044750Y011500D03*X050000Y007500D03*X053750Y008500D03*X053750Y010000D03*
X053750Y011500D03*X055250Y008500D03*X055250Y010000D03*X055250Y011500D03*
X014750Y016125D03*X010750Y017000D03*X010750Y014000D03*X025750Y014500D03*
X021500Y013875D03*X024875Y013875D03*X023750Y017625D03*X018750Y017500D03*
X020750Y018500D03*X018750Y014250D03*X021000Y014750D03*X026125Y016750D03*
X032125Y015250D03*X028625Y016125D03*X028000Y017125D03*X031750Y016625D03*
X032500Y016625D03*X027375Y016625D03*X027375Y017600D03*X028000Y018250D03*
X032125Y013875D03*X027500Y014625D03*X030375Y015250D03*X036375Y015250D03*
X036375Y013875D03*X040750Y014500D03*X042750Y014500D03*X037750Y017250D03*
X036500Y017250D03*X044750Y017500D03*X044750Y013000D03*X044750Y014500D03*
X051500Y017500D03*X048250Y017500D03*X045750Y017500D03*X047000Y017500D03*
X044750Y016000D03*X053750Y013000D03*X053750Y014500D03*X053750Y016000D03*
X055250Y013000D03*X055250Y014500D03*X055250Y016000D03*X055500Y017500D03*
X054500Y017500D03*X053500Y017500D03*X052500Y017500D03*X010750Y023000D03*
X010750Y020000D03*X013750Y020500D03*X023750Y019000D03*X022000Y022375D03*
X024625Y022375D03*X021500Y023375D03*X034250Y021000D03*X032250Y023000D03*
X031250Y021000D03*X032250Y019000D03*X032250Y020000D03*X033250Y023000D03*
X034250Y023000D03*X034250Y022000D03*X033250Y022000D03*X030250Y023000D03*
X031250Y023000D03*X030250Y022000D03*X030250Y021000D03*X031250Y022000D03*
X030250Y019000D03*X030250Y020000D03*X031250Y019000D03*X031250Y020000D03*
X034250Y020000D03*X033250Y020000D03*X033250Y019000D03*X033250Y021000D03*
X032250Y022000D03*X032250Y021000D03*X036500Y021750D03*X037125Y021250D03*
X036500Y023250D03*X036500Y024250D03*X040500Y021750D03*X042750Y019750D03*
X041250Y020000D03*X038500Y019625D03*X036500Y020750D03*X044000Y020875D03*
X050050Y022250D03*X045875Y021200D03*X050000Y019500D03*X049000Y019500D03*
X048000Y019500D03*X044750Y019500D03*X051000Y019500D03*X043750Y019500D03*
X048750Y024250D03*X049000Y021750D03*X047000Y021750D03*X054200Y020000D03*
X053000Y019500D03*X052000Y019500D03*X055250Y023750D03*X052000Y024250D03*
X051750Y021000D03*X053500Y022250D03*X053500Y023750D03*X010750Y029000D03*
X010750Y026000D03*X014000Y028750D03*X020500Y029875D03*X026000Y028000D03*
X023500Y025875D03*X020625Y025625D03*X021625Y027625D03*X023750Y027875D03*
X021500Y024625D03*X032000Y025750D03*X028000Y028750D03*X030500Y026250D03*
X034875Y030000D03*X036375Y029375D03*X036500Y027375D03*X040625Y026250D03*
X042250Y030095D03*X043000Y028625D03*X042000Y028125D03*X038750Y025375D03*
X041375Y028875D03*X040500Y030000D03*X035000Y027375D03*X045375Y025750D03*
X044000Y025750D03*X046000Y027250D03*X046250Y029750D03*X051000Y030000D03*
X049625Y027250D03*X055250Y025250D03*X055250Y026750D03*X055250Y028250D03*
X055250Y029750D03*X052250Y027500D03*X053500Y025250D03*X053500Y026750D03*
X053500Y028250D03*X053500Y029750D03*X010750Y035000D03*X010750Y032000D03*
X014000Y034250D03*X014250Y031500D03*X025875Y033250D03*X023750Y032500D03*
X022750Y034250D03*X023750Y031500D03*X022750Y032750D03*X021250Y035375D03*
X033375Y034625D03*X028500Y034500D03*X031750Y033750D03*X029125Y035250D03*
X034875Y034625D03*X039000Y032500D03*X039000Y033250D03*X037500Y032500D03*
X038875Y031125D03*X041500Y034625D03*X036000Y033750D03*X041750Y033375D03*
X051250Y035750D03*X047250Y031365D03*X046150Y034375D03*X044125Y035000D03*
X046250Y032000D03*X051500Y034250D03*X050250Y035750D03*X052750Y032000D03*
X054250Y032000D03*X055250Y031250D03*X053250Y035750D03*X055500Y033500D03*
X058500Y033000D03*X053500Y031250D03*X063250Y035500D03*X061000Y033250D03*
X010750Y041000D03*X010750Y038000D03*X014000Y039250D03*X014000Y037000D03*
X021750Y036625D03*X021750Y039000D03*X021875Y041500D03*X025250Y036000D03*
X025500Y041500D03*X022250Y037875D03*X032500Y038000D03*X028250Y040750D03*
X034875Y036125D03*X036750Y037375D03*X042000Y036250D03*X035000Y038375D03*
X038250Y041250D03*X039000Y038750D03*X045375Y039125D03*X051250Y037000D03*
X050750Y039250D03*X049125Y040000D03*X044125Y036500D03*X047250Y041250D03*
X051875Y041000D03*X056000Y036500D03*X056500Y039750D03*X054250Y039250D03*
X055250Y037650D03*X063250Y039250D03*X061000Y036250D03*X060250Y039500D03*
X010750Y047000D03*X010750Y044000D03*X014500Y046750D03*X014250Y044500D03*
X014000Y041750D03*X021250Y042625D03*X021250Y046125D03*X020375Y042625D03*
X020750Y045500D03*X019250Y042500D03*X019750Y043375D03*X025250Y047000D03*
X033000Y046250D03*X032500Y042000D03*X026845Y044875D03*X037500Y042750D03*
X037750Y045750D03*X041000Y047000D03*X047500Y046250D03*X049500Y044250D03*
X046500Y044000D03*X050000Y047250D03*X051875Y044500D03*X051875Y042500D03*
X052750Y042000D03*X055500Y043000D03*X059750Y046000D03*X063250Y046750D03*
X063250Y043000D03*X016500Y050250D03*X010750Y053000D03*X010750Y050000D03*
X014500Y050000D03*X021250Y050750D03*X024000Y050750D03*X019250Y047500D03*
X021500Y049500D03*X018750Y049500D03*X021250Y052250D03*X033500Y052250D03*
X029500Y052250D03*X031250Y051250D03*X028000Y048000D03*X030750Y048000D03*
X029375Y048000D03*X036500Y048250D03*X037375Y048250D03*X041000Y049625D03*
X048875Y051375D03*X048875Y052125D03*X047375Y051500D03*X046625Y051500D03*
X044625Y050500D03*X056750Y048250D03*X055500Y050375D03*X063250Y050500D03*
X060500Y048250D03*X060500Y051500D03*X016500Y058500D03*X010750Y056000D03*
X014750Y056000D03*X014750Y053250D03*X026250Y057750D03*X024000Y053500D03*
X018750Y058500D03*X019250Y054500D03*X021000Y054000D03*X024875Y058750D03*
X020750Y056125D03*X039750Y057000D03*X036250Y056000D03*X041375Y058750D03*
X042250Y058000D03*X041375Y058000D03*X042250Y058750D03*X049625Y054125D03*
X046250Y054875D03*X049750Y058000D03*X046750Y053750D03*X047625Y058000D03*
X052000Y055500D03*X058375Y057375D03*X058375Y055625D03*X059375Y056500D03*
X052000Y054750D03*X052000Y056250D03*X056250Y053500D03*X059500Y054250D03*
X055750Y058500D03*X054000Y057375D03*X054625Y053375D03*X053875Y053375D03*
X054875Y055625D03*X054875Y057375D03*X054875Y056500D03*X055875Y056500D03*
X056875Y057375D03*X056875Y055625D03*X055875Y055625D03*X055875Y057375D03*
X063250Y058750D03*X063250Y054500D03*X016000Y064250D03*X010750Y059000D03*
X014750Y059000D03*X026500Y062385D03*X026500Y061115D03*X019000Y064250D03*
X022000Y064250D03*X025000Y064250D03*X019000Y061750D03*X021500Y059750D03*
X028000Y064250D03*X031000Y064250D03*X034000Y064250D03*X029500Y060250D03*
X037000Y064250D03*X040000Y064250D03*X043000Y064250D03*X041000Y060500D03*
X035000Y060250D03*X041375Y059500D03*X042250Y059500D03*X048750Y059000D03*
X050000Y063250D03*X046000Y064250D03*X049000Y064250D03*X046750Y059000D03*
X047625Y059000D03*X046750Y059750D03*X047625Y059750D03*X045250Y059000D03*
X045250Y059750D03*X053875Y059750D03*X052000Y064250D03*X055000Y064250D03*
X058000Y064250D03*X058500Y059250D03*X055750Y060500D03*D02*G54D149*
X003000Y003000D03*X013000Y003000D03*X062000Y003000D03*X013000Y062000D03*
X062000Y062000D03*X003000Y074000D03*X062000Y074000D03*D02*G54D150*
X015865Y023290D03*D02*G54D151*X017135Y023290D03*X017135Y022020D03*
X015865Y022020D03*X017135Y020750D03*X015865Y020750D03*D02*G54D152*
X015250Y043000D03*X034040Y062250D03*X045870Y062250D03*D02*G54D153*
X049750Y011250D03*X047210Y013790D03*X052290Y013790D03*X052290Y008710D03*
X047210Y008710D03*
G36*X000550Y000550D02*X009450Y000550D01*X009450Y065550D01*X064450Y065550D01*
X064450Y076450D01*X000550Y076450D01*X000550Y000550D01*G37*G36*X010050Y000550D02*
X064450Y000550D01*X064450Y005450D01*X055700Y005450D01*X055700Y032050D01*
X064450Y032050D01*X064450Y064950D01*X062873Y064950D01*X062873Y053275D01*
X063400Y052748D01*X063400Y052002D01*X062873Y051475D01*X062873Y049525D01*
X063400Y048998D01*X063400Y048252D01*X062873Y047725D01*X062873Y045775D01*
X063400Y045248D01*X063400Y044502D01*X062873Y043975D01*X062873Y042025D01*
X063400Y041498D01*X063400Y040752D01*X062873Y040225D01*X062873Y038275D01*
X063400Y037748D01*X063400Y037002D01*X062873Y036475D01*X062873Y034525D01*
X063400Y033998D01*X063400Y033252D01*X062873Y032725D01*X062127Y032725D01*
X061600Y033252D01*X061600Y033998D01*X062127Y034525D01*X062873Y034525D01*
X062873Y036475D01*X062127Y036475D01*X061600Y037002D01*X061600Y037748D01*
X062127Y038275D01*X062873Y038275D01*X062873Y040225D01*X062127Y040225D01*
X061600Y040752D01*X061600Y041498D01*X062127Y042025D01*X062873Y042025D01*
X062873Y043975D01*X062127Y043975D01*X061600Y044502D01*X061600Y045248D01*
X062127Y045775D01*X062873Y045775D01*X062873Y047725D01*X062127Y047725D01*
X061600Y048252D01*X061600Y048998D01*X062127Y049525D01*X062873Y049525D01*
X062873Y051475D01*X062127Y051475D01*X061600Y052002D01*X061600Y052748D01*
X062127Y053275D01*X062873Y053275D01*X062873Y064950D01*X058852Y064950D01*
X058852Y052350D01*X059350Y051852D01*X059350Y048650D01*X058852Y048650D01*
X058852Y044850D01*X059350Y044352D01*X059350Y043648D01*X058852Y043150D01*
X058148Y043150D01*X057650Y043648D01*X057650Y044352D01*X058148Y044850D01*
X058852Y044850D01*X058852Y048650D01*X057650Y048650D01*X057650Y050350D01*
X059350Y050350D01*X059350Y051148D01*X058852Y050650D01*X058148Y050650D01*
X057650Y051148D01*X057650Y051852D01*X058148Y052350D01*X058852Y052350D01*
X058852Y064950D01*X057873Y064950D01*X057873Y063150D01*X058400Y062623D01*
X058400Y061877D01*X057873Y061350D01*X057127Y061350D01*X057093Y061385D01*
X057093Y057900D01*X057400Y057593D01*X057400Y057158D01*X057375Y057133D01*
X057375Y055868D01*X057400Y055843D01*X057400Y055408D01*X057093Y055100D01*
X056658Y055100D01*X056633Y055125D01*X056118Y055125D01*X056093Y055100D01*
X055658Y055100D01*X055633Y055125D01*X055118Y055125D01*X055093Y055100D01*
X054843Y055100D01*X054843Y053900D01*X055150Y053593D01*X055150Y053158D01*
X054843Y052850D01*X054408Y052850D01*X054250Y053007D01*X054093Y052850D01*
X053658Y052850D01*X053350Y053158D01*X053350Y053593D01*X053658Y053900D01*
X054093Y053900D01*X054250Y053743D01*X054408Y053900D01*X054843Y053900D01*
X054843Y055100D01*X054658Y055100D01*X054350Y055408D01*X054350Y055843D01*
X054375Y055868D01*X054375Y056258D01*X054350Y056283D01*X054350Y056718D01*
X054375Y056743D01*X054375Y057133D01*X054350Y057158D01*X054350Y057593D01*
X054658Y057900D01*X055093Y057900D01*X055118Y057875D01*X055633Y057875D01*
X055658Y057900D01*X056093Y057900D01*X056118Y057875D01*X056633Y057875D01*
X056658Y057900D01*X057093Y057900D01*X057093Y061385D01*X056600Y061877D01*
X056600Y062623D01*X057127Y063150D01*X057873Y063150D01*X057873Y064950D01*
X055373Y064950D01*X055373Y063150D01*X055900Y062623D01*X055900Y061877D01*
X055373Y061350D01*X054627Y061350D01*X054100Y061877D01*X054100Y062623D01*
X054627Y063150D01*X055373Y063150D01*X055373Y064950D01*X052873Y064950D01*
X052873Y063150D01*X053400Y062623D01*X053400Y061877D01*X053000Y061477D01*
X053000Y061043D01*X052207Y060250D01*X051624Y060250D01*X051624Y053725D01*
X052600Y052749D01*X052600Y048249D01*X057999Y042850D01*X059350Y042850D01*
X059350Y041150D01*X058852Y041150D01*X058852Y037350D01*X059350Y036852D01*
X059350Y033650D01*X057650Y033650D01*X057650Y035350D01*X059350Y035350D01*
X059350Y036148D01*X058852Y035650D01*X058148Y035650D01*X057650Y036148D01*
X057650Y036852D01*X058148Y037350D01*X058852Y037350D01*X058852Y041150D01*
X057650Y041150D01*X057650Y041501D01*X054468Y044684D01*X054468Y039775D01*
X054775Y039468D01*X054775Y039033D01*X054468Y038725D01*X054033Y038725D01*
X053725Y039033D01*X053725Y039468D01*X054033Y039775D01*X054468Y039775D01*
X054468Y044684D01*X052124Y047028D01*X052124Y045100D01*X052475Y044749D01*
X052475Y042251D01*X052124Y041900D01*X051626Y041900D01*X051275Y042251D01*
X051275Y044749D01*X051626Y045100D01*X052124Y045100D01*X052124Y047028D01*
X051400Y047751D01*X051400Y052251D01*X051126Y052525D01*X049324Y052525D01*
X049475Y052374D01*X049475Y047001D01*X049225Y046751D01*X049225Y041999D01*
X049624Y041600D01*X052124Y041600D01*X052475Y041249D01*X052475Y040751D01*
X052124Y040400D01*X049126Y040400D01*X048025Y041501D01*X048025Y047249D01*
X048275Y047499D01*X048275Y047650D01*X045593Y047650D01*X045593Y039650D01*
X045900Y039343D01*X045900Y039095D01*X047600Y037395D01*X047600Y031758D01*
X047775Y031583D01*X047775Y031148D01*X047468Y030840D01*X047033Y030840D01*
X046725Y031148D01*X046725Y031583D01*X046900Y031758D01*X046900Y037105D01*
X045405Y038600D01*X045158Y038600D01*X044850Y038908D01*X044850Y039343D01*
X045158Y039650D01*X045593Y039650D01*X045593Y047650D01*X041968Y047650D01*
X041968Y033900D01*X042275Y033593D01*X042275Y033158D01*X041968Y032850D01*
X041533Y032850D01*X041225Y033158D01*X041225Y033593D01*X041533Y033900D01*
X041968Y033900D01*X041968Y047650D01*X036251Y047650D01*X035900Y048001D01*
X035900Y048499D01*X036251Y048850D01*X048275Y048850D01*X048275Y052374D01*
X048426Y052525D01*X047624Y052525D01*X047600Y052501D01*X047600Y052100D01*
X047624Y052100D01*X047975Y051749D01*X047975Y051251D01*X047624Y050900D01*
X046376Y050900D01*X046025Y051251D01*X046025Y051749D01*X046376Y052100D01*
X046400Y052100D01*X046400Y052999D01*X047126Y053725D01*X051624Y053725D01*
X051624Y060250D01*X047868Y060250D01*X048150Y059968D01*X048150Y059533D01*
X048125Y059508D01*X048125Y059243D01*X048150Y059218D01*X048150Y058783D01*
X048125Y058758D01*X048125Y058243D01*X048150Y058218D01*X048150Y057783D01*
X047843Y057475D01*X047408Y057475D01*X047383Y057500D01*X046543Y057500D01*
X046250Y057793D01*X046250Y058758D01*X046225Y058783D01*X046225Y059218D01*
X046250Y059243D01*X046250Y059508D01*X046225Y059533D01*X046225Y059968D01*
X046507Y060250D01*X045957Y060250D01*X045750Y060043D01*X045750Y059993D01*
X045775Y059968D01*X045775Y059533D01*X045750Y059508D01*X045750Y059243D01*
X045775Y059218D01*X045775Y058783D01*X045468Y058475D01*X045033Y058475D01*
X044725Y058783D01*X044725Y059218D01*X044750Y059243D01*X044750Y059508D01*
X044725Y059533D01*X044725Y059968D01*X044750Y059993D01*X044750Y060457D01*
X045543Y061250D01*X051793Y061250D01*X052000Y061457D01*X052000Y061477D01*
X051600Y061877D01*X051600Y062623D01*X052127Y063150D01*X052873Y063150D01*
X052873Y064950D01*X046820Y064950D01*X046820Y061300D01*X044920Y061300D01*
X044920Y063200D01*X046820Y063200D01*X046820Y064950D01*X043724Y064950D01*
X043724Y063200D01*X044280Y062644D01*X044280Y061857D01*X043724Y061300D01*
X042937Y061300D01*X042468Y061769D01*X042468Y060025D01*X042775Y059718D01*
X042775Y059283D01*X042750Y059258D01*X042750Y058993D01*X042775Y058968D01*
X042775Y058533D01*X042750Y058508D01*X042750Y058243D01*X042775Y058218D01*
X042775Y057783D01*X042468Y057475D01*X042033Y057475D01*X042008Y057500D01*
X041618Y057500D01*X041593Y057475D01*X041218Y057475D01*X041218Y050150D01*
X041525Y049843D01*X041525Y049408D01*X041218Y049100D01*X040783Y049100D01*
X040475Y049408D01*X040475Y049843D01*X040783Y050150D01*X041218Y050150D01*
X041218Y057475D01*X041158Y057475D01*X040850Y057783D01*X040850Y058218D01*
X040875Y058243D01*X040875Y058508D01*X040850Y058533D01*X040850Y058968D01*
X040875Y058993D01*X040875Y059258D01*X040850Y059283D01*X040850Y059718D01*
X041158Y060025D01*X041593Y060025D01*X041618Y060000D01*X042008Y060000D01*
X042033Y060025D01*X042468Y060025D01*X042468Y061769D01*X042380Y061857D01*
X042380Y062644D01*X042937Y063200D01*X043724Y063200D01*X043724Y064950D01*
X041184Y064950D01*X041184Y063200D01*X041740Y062644D01*X041740Y061857D01*
X041184Y061300D01*X040397Y061300D01*X039840Y061857D01*X039840Y062644D01*
X040397Y063200D01*X041184Y063200D01*X041184Y064950D01*X038644Y064950D01*
X038644Y063200D01*X039200Y062644D01*X039200Y061857D01*X038644Y061300D01*
X037857Y061300D01*X037300Y061857D01*X037300Y062644D01*X037857Y063200D01*
X038644Y063200D01*X038644Y064950D01*X034990Y064950D01*X034990Y061300D01*
X033585Y061300D01*X033350Y061065D01*X033350Y049020D01*X040850Y041520D01*
X040850Y031355D01*X038350Y028855D01*X038350Y021980D01*X037970Y021600D01*
X043355Y021600D01*X048150Y026395D01*X048150Y035020D01*X049855Y036725D01*
X053830Y036725D01*X054725Y037620D01*X054725Y037868D01*X055033Y038175D01*
X055468Y038175D01*X055775Y037868D01*X055775Y037433D01*X055468Y037125D01*
X055220Y037125D01*X054120Y036025D01*X052829Y036025D01*X052829Y015090D01*
X053590Y014329D01*X053590Y013252D01*X052829Y012490D01*X052829Y010010D01*
X053590Y009249D01*X053590Y008172D01*X052829Y007410D01*X051752Y007410D01*
X050990Y008172D01*X050990Y009249D01*X051752Y010010D01*X052829Y010010D01*
X052829Y012490D01*X051752Y012490D01*X050990Y013252D01*X050990Y014329D01*
X051752Y015090D01*X052829Y015090D01*X052829Y036025D01*X051718Y036025D01*
X051775Y035968D01*X051775Y035533D01*X051468Y035225D01*X051220Y035225D01*
X050895Y034900D01*X050289Y034900D01*X050289Y012550D01*X051050Y011789D01*
X051050Y010712D01*X050289Y009950D01*X049212Y009950D01*X048450Y010712D01*
X048450Y011789D01*X049212Y012550D01*X050289Y012550D01*X050289Y034900D01*
X049770Y034900D01*X049350Y034480D01*X049350Y027718D01*X049408Y027775D01*
X049843Y027775D01*X050150Y027468D01*X050150Y027033D01*X049843Y026725D01*
X049408Y026725D01*X049350Y026782D01*X049350Y025980D01*X047749Y024378D01*
X047749Y015090D01*X048510Y014329D01*X048510Y013252D01*X047749Y012490D01*
X047749Y010010D01*X048510Y009249D01*X048510Y008172D01*X047749Y007410D01*
X046672Y007410D01*X045910Y008172D01*X045910Y009249D01*X046672Y010010D01*
X047749Y010010D01*X047749Y012490D01*X046672Y012490D01*X045910Y013252D01*
X045910Y014329D01*X046672Y015090D01*X047749Y015090D01*X047749Y024378D01*
X045100Y021730D01*X045100Y020480D01*X044645Y020025D01*X043355Y020025D01*
X043230Y020150D01*X038395Y020150D01*X037770Y019525D01*X035645Y019525D01*
X033350Y017230D01*X033350Y016105D01*X032995Y015750D01*X036133Y015750D01*
X036158Y015775D01*X036593Y015775D01*X036900Y015468D01*X036900Y015033D01*
X036593Y014725D01*X036158Y014725D01*X036133Y014750D01*X032368Y014750D01*
X032343Y014725D01*X031908Y014725D01*X031883Y014750D01*X031707Y014750D01*
X030332Y013375D01*X026168Y013375D01*X025568Y013975D01*X025533Y013975D01*
X025225Y014283D01*X025225Y014718D01*X025407Y014900D01*X025145Y014900D01*
X024600Y014355D01*X024600Y006018D01*X024775Y005843D01*X024775Y005408D01*
X024468Y005100D01*X024033Y005100D01*X023725Y005408D01*X023725Y005843D01*
X023900Y006018D01*X023900Y014645D01*X024655Y015400D01*X021718Y015400D01*
X021718Y008900D01*X022025Y008593D01*X022025Y008158D01*X022000Y008133D01*
X022000Y005457D01*X022457Y005000D01*X029133Y005000D01*X029158Y005025D01*
X029593Y005025D01*X029900Y004718D01*X029900Y004283D01*X029593Y003975D01*
X029158Y003975D01*X029133Y004000D01*X022043Y004000D01*X021000Y005043D01*
X021000Y008133D01*X020975Y008158D01*X020975Y008593D01*X021283Y008900D01*
X021718Y008900D01*X021718Y015400D01*X016020Y015400D01*X014520Y013900D01*
X013900Y013900D01*X013900Y013877D01*X013373Y013350D01*X012627Y013350D01*
X012100Y013877D01*X012100Y014623D01*X012627Y015150D01*X013373Y015150D01*
X013900Y014623D01*X013900Y014600D01*X014230Y014600D01*X015567Y015938D01*
X014355Y017150D01*X013900Y017150D01*X013900Y017127D01*X013373Y016600D01*
X012627Y016600D01*X012100Y017127D01*X012100Y017873D01*X012627Y018400D01*
X013373Y018400D01*X013900Y017873D01*X013900Y017850D01*X014645Y017850D01*
X016020Y016475D01*X025657Y016475D01*X025600Y016533D01*X025600Y016968D01*
X025908Y017275D01*X026343Y017275D01*X026400Y017218D01*X026400Y018730D01*
X025855Y019275D01*X019385Y019275D01*X017935Y020725D01*X017935Y020419D01*
X017466Y019950D01*X016804Y019950D01*X016500Y020254D01*X016196Y019950D01*
X015534Y019950D01*X015065Y020419D01*X015065Y021055D01*X014150Y021970D01*
X014150Y024270D01*X014780Y024900D01*X012895Y024900D01*X011975Y023980D01*
X011975Y013020D01*X012645Y012350D01*X013520Y012350D01*X014350Y011520D01*
X014350Y008605D01*X013884Y008139D01*X013900Y008123D01*X013900Y007377D01*
X013373Y006850D01*X012627Y006850D01*X012100Y007377D01*X012100Y008123D01*
X012627Y008650D01*X013373Y008650D01*X013389Y008634D01*X013650Y008895D01*
X013650Y010377D01*X013373Y010100D01*X012627Y010100D01*X012100Y010627D01*
X012100Y011373D01*X012116Y011389D01*X010900Y012605D01*X010900Y024395D01*
X012480Y025975D01*X018770Y025975D01*X020475Y024270D01*X020475Y022520D01*
X020895Y022100D01*X025252Y022100D01*X024975Y022377D01*X024975Y023123D01*
X025502Y023650D01*X026248Y023650D01*X026264Y023634D01*X027025Y024395D01*
X027025Y025905D01*X026759Y025639D01*X026775Y025623D01*X026775Y024877D01*
X026248Y024350D01*X025502Y024350D01*X024975Y024877D01*X024975Y025623D01*
X025502Y026150D01*X026248Y026150D01*X026264Y026134D01*X026525Y026395D01*
X026525Y031020D01*X027855Y032350D01*X037605Y032350D01*X038475Y033220D01*
X038475Y033468D01*X038783Y033775D01*X039218Y033775D01*X039525Y033468D01*
X039525Y033033D01*X039368Y032875D01*X039525Y032718D01*X039525Y032283D01*
X039218Y031975D01*X038970Y031975D01*X038145Y031150D01*X035093Y031150D01*
X035093Y030525D01*X035400Y030218D01*X035400Y029783D01*X035343Y029725D01*
X035983Y029725D01*X036158Y029900D01*X036593Y029900D01*X036900Y029593D01*
X036900Y029158D01*X036593Y028850D01*X036158Y028850D01*X035983Y029025D01*
X035218Y029025D01*X035218Y027900D01*X035525Y027593D01*X035525Y027158D01*
X035218Y026850D01*X034783Y026850D01*X034475Y027158D01*X034475Y027593D01*
X034783Y027900D01*X035218Y027900D01*X035218Y029025D01*X032895Y029025D01*
X032350Y028480D01*X032350Y026143D01*X032525Y025968D01*X032525Y025533D01*
X032218Y025225D01*X031783Y025225D01*X031475Y025533D01*X031475Y025968D01*
X031650Y026143D01*X031650Y028770D01*X032605Y029725D01*X034407Y029725D01*
X034350Y029783D01*X034350Y030218D01*X034658Y030525D01*X035093Y030525D01*
X035093Y031150D01*X030718Y031150D01*X030718Y026775D01*X031025Y026468D01*
X031025Y026033D01*X030718Y025725D01*X030283Y025725D01*X029975Y026033D01*
X029975Y026468D01*X030283Y026775D01*X030718Y026775D01*X030718Y031150D01*
X028395Y031150D01*X027725Y030480D01*X027725Y024105D01*X026759Y023139D01*
X026775Y023123D01*X026775Y022377D01*X026498Y022100D01*X026980Y022100D01*
X029230Y024350D01*X035975Y024350D01*X035975Y024468D01*X036283Y024775D01*
X036718Y024775D01*X037025Y024468D01*X037025Y024033D01*X036743Y023750D01*
X037025Y023468D01*X037025Y023033D01*X036718Y022725D01*X036283Y022725D01*
X035975Y023033D01*X035975Y023275D01*X029770Y023275D01*X027520Y021025D01*
X027095Y021025D01*X029350Y018770D01*X029350Y017020D01*X029895Y016475D01*
X031225Y016475D01*X031225Y016843D01*X031533Y017150D01*X031780Y017150D01*
X035230Y020600D01*X035975Y020600D01*X035975Y020968D01*X036257Y021250D01*
X035975Y021533D01*X035975Y021968D01*X036283Y022275D01*X036718Y022275D01*
X036893Y022100D01*X036980Y022100D01*X037275Y022395D01*X037275Y029270D01*
X039775Y031770D01*X039775Y041105D01*X035093Y045787D01*X035093Y036650D01*
X035400Y036343D01*X035400Y035908D01*X035093Y035600D01*X035093Y035150D01*
X035400Y034843D01*X035400Y034408D01*X035093Y034100D01*X034658Y034100D01*
X034350Y034408D01*X034350Y034843D01*X034658Y035150D01*X035093Y035150D01*
X035093Y035600D01*X034658Y035600D01*X034350Y035908D01*X034350Y036343D01*
X034658Y036650D01*X035093Y036650D01*X035093Y045787D01*X032275Y048605D01*
X032275Y060980D01*X031924Y061331D01*X031894Y061300D01*X031107Y061300D01*
X030550Y061857D01*X030550Y062644D01*X031107Y063200D01*X031894Y063200D01*
X032450Y062644D01*X032450Y061857D01*X032419Y061826D01*X032770Y061475D01*
X033090Y061795D01*X033090Y063200D01*X034990Y063200D01*X034990Y064950D01*
X029354Y064950D01*X029354Y063200D01*X029910Y062644D01*X029910Y061857D01*
X029354Y061300D01*X028567Y061300D01*X028010Y061857D01*X028010Y062644D01*
X028567Y063200D01*X029354Y063200D01*X029354Y064950D01*X025093Y064950D01*
X025093Y059275D01*X025400Y058968D01*X025400Y058533D01*X025093Y058225D01*
X024658Y058225D01*X024350Y058533D01*X024350Y058968D01*X024658Y059275D01*
X025093Y059275D01*X025093Y064950D01*X021468Y064950D01*X021468Y052775D01*
X021775Y052468D01*X021775Y052033D01*X021468Y051725D01*X021468Y046650D01*
X021775Y046343D01*X021775Y045908D01*X021600Y045733D01*X021600Y043018D01*
X021775Y042843D01*X021775Y042408D01*X021468Y042100D01*X021033Y042100D01*
X020813Y042320D01*X020593Y042100D01*X020158Y042100D01*X019850Y042408D01*
X019850Y042843D01*X020158Y043150D01*X020400Y043150D01*X020400Y045108D01*
X020225Y045283D01*X020225Y045718D01*X020533Y046025D01*X020725Y046025D01*
X020725Y046343D01*X021033Y046650D01*X021468Y046650D01*X021468Y051725D01*
X021033Y051725D01*X020725Y052033D01*X020725Y052468D01*X021033Y052775D01*
X021468Y052775D01*X021468Y064950D01*X020968Y064950D01*X020968Y056650D01*
X021275Y056343D01*X021275Y055908D01*X020968Y055600D01*X020533Y055600D01*
X020225Y055908D01*X020225Y056343D01*X020533Y056650D01*X020968Y056650D01*
X020968Y064950D01*X018184Y064950D01*X018184Y043950D01*X018740Y043394D01*
X018740Y042607D01*X018184Y042050D01*X018184Y041410D01*X018740Y040854D01*
X018740Y040067D01*X018184Y039510D01*X018184Y038870D01*X018740Y038314D01*
X018740Y038270D01*X021903Y038270D01*X022033Y038400D01*X022468Y038400D01*
X022775Y038093D01*X022775Y037658D01*X022468Y037350D01*X022033Y037350D01*
X021813Y037570D01*X018740Y037570D01*X018740Y037527D01*X018189Y036975D01*
X021358Y036975D01*X021533Y037150D01*X021968Y037150D01*X022275Y036843D01*
X022275Y036408D01*X021968Y036100D01*X021533Y036100D01*X021358Y036275D01*
X018239Y036275D01*X018740Y035774D01*X018740Y035730D01*X020863Y035730D01*
X021033Y035900D01*X021468Y035900D01*X021775Y035593D01*X021775Y035158D01*
X021468Y034850D01*X021033Y034850D01*X020853Y035030D01*X018740Y035030D01*
X018740Y034987D01*X018354Y034600D01*X022358Y034600D01*X022533Y034775D01*
X022968Y034775D01*X023275Y034468D01*X023275Y034033D01*X022968Y033725D01*
X022533Y033725D01*X022358Y033900D01*X018184Y033900D01*X018184Y033790D01*
X018740Y033234D01*X018740Y033190D01*X022448Y033190D01*X022533Y033275D01*
X022968Y033275D01*X023275Y032968D01*X023275Y032768D01*X023533Y033025D01*
X023968Y033025D01*X024275Y032718D01*X024275Y032283D01*X023993Y032000D01*
X024275Y031718D01*X024275Y031395D01*X025525Y032645D01*X025525Y032858D01*
X025350Y033033D01*X025350Y033468D01*X025658Y033775D01*X026093Y033775D01*
X026400Y033468D01*X026400Y033033D01*X026225Y032858D01*X026225Y032355D01*
X024395Y030525D01*X021718Y030525D01*X021718Y025150D01*X022025Y024843D01*
X022025Y024408D01*X021718Y024100D01*X021718Y023900D01*X022025Y023593D01*
X022025Y023158D01*X021718Y022850D01*X021283Y022850D01*X020975Y023158D01*
X020975Y023593D01*X021283Y023900D01*X021718Y023900D01*X021718Y024100D01*
X021283Y024100D01*X020975Y024408D01*X020975Y024843D01*X021283Y025150D01*
X021718Y025150D01*X021718Y030525D01*X018740Y030525D01*X018740Y029907D01*
X018184Y029350D01*X018184Y028710D01*X018740Y028154D01*X018740Y027367D01*
X018184Y026810D01*X017397Y026810D01*X016840Y027367D01*X016840Y028154D01*
X017397Y028710D01*X018184Y028710D01*X018184Y029350D01*X017397Y029350D01*
X016840Y029907D01*X016840Y030694D01*X017171Y031025D01*X016470Y031025D01*
X016169Y030724D01*X016200Y030694D01*X016200Y029907D01*X015644Y029350D01*
X015644Y028710D01*X016200Y028154D01*X016200Y027367D01*X015644Y026810D01*
X014857Y026810D01*X014300Y027367D01*X014300Y028154D01*X014857Y028710D01*
X015644Y028710D01*X015644Y029350D01*X014857Y029350D01*X014300Y029907D01*
X014300Y030694D01*X014857Y031250D01*X015644Y031250D01*X015674Y031219D01*
X016025Y031570D01*X015674Y031921D01*X015644Y031890D01*X014857Y031890D01*
X014300Y032447D01*X014300Y033234D01*X014857Y033790D01*X015644Y033790D01*
X016200Y033234D01*X016200Y032447D01*X016169Y032416D01*X016485Y032100D01*
X017186Y032100D01*X016840Y032447D01*X016840Y033234D01*X017397Y033790D01*
X018184Y033790D01*X018184Y033900D01*X016235Y033900D01*X015674Y034461D01*
X015644Y034430D01*X014857Y034430D01*X014300Y034987D01*X014300Y035774D01*
X014857Y036330D01*X015644Y036330D01*X016200Y035774D01*X016200Y034987D01*
X016169Y034956D01*X016525Y034600D01*X017226Y034600D01*X016840Y034987D01*
X016840Y035774D01*X017341Y036275D01*X016400Y036275D01*X015674Y037001D01*
X015644Y036970D01*X014857Y036970D01*X014300Y037527D01*X014300Y038314D01*
X014857Y038870D01*X015644Y038870D01*X016200Y038314D01*X016200Y037527D01*
X016169Y037496D01*X016690Y036975D01*X017391Y036975D01*X016840Y037527D01*
X016840Y038314D01*X017397Y038870D01*X018184Y038870D01*X018184Y039510D01*
X017397Y039510D01*X016840Y040067D01*X016840Y040854D01*X017397Y041410D01*
X018184Y041410D01*X018184Y042050D01*X017397Y042050D01*X016840Y042607D01*
X016840Y043394D01*X017397Y043950D01*X018184Y043950D01*X018184Y064950D01*
X016200Y064950D01*X016200Y042050D01*X015644Y042050D01*X015644Y041410D01*
X016200Y040854D01*X016200Y040067D01*X015644Y039510D01*X014857Y039510D01*
X014300Y040067D01*X014300Y040854D01*X014857Y041410D01*X015644Y041410D01*
X015644Y042050D01*X014300Y042050D01*X014300Y043950D01*X016200Y043950D01*
X016200Y064950D01*X010050Y064950D01*X010050Y000550D01*G37*G36*X016520Y091620D02*
X016520Y091743D01*X016551Y091743D01*X016551Y091928D01*X016581Y091928D01*
X016581Y091959D01*X017199Y091959D01*X017199Y091867D01*X017199Y091805D01*
X017168Y091805D01*X017168Y091743D01*X017199Y091743D01*X017199Y091712D01*
X017260Y091712D01*X017260Y091681D01*X017353Y091681D01*X017353Y091650D01*
X019945Y091650D01*X019945Y091620D01*X019884Y091620D01*X019884Y091589D01*
X019853Y091589D01*X019853Y091558D01*X019791Y091558D01*X019791Y091527D01*
X019760Y091527D01*X019760Y091496D01*X019698Y091496D01*X019698Y091465D01*
X019668Y091465D01*X019668Y091434D01*X019606Y091434D01*X019606Y091404D01*
X019575Y091404D01*X019575Y091373D01*X017044Y091373D01*X017044Y091404D01*
X016828Y091404D01*X016828Y091434D01*X016736Y091434D01*X016736Y091465D01*
X016643Y091465D01*X016643Y091496D01*X016612Y091496D01*X016612Y091527D01*
X016581Y091527D01*X016581Y091558D01*X016551Y091558D01*X016551Y091620D01*
X016520Y091620D01*G37*G36*X016581Y091959D02*X016581Y092083D01*X016612Y092083D01*
X016612Y092237D01*X016643Y092237D01*X016643Y092391D01*X016674Y092391D01*
X016674Y092545D01*X016705Y092545D01*X016705Y092669D01*X016736Y092669D01*
X016736Y092731D01*X016767Y092731D01*X016767Y092761D01*X016797Y092761D01*
X016797Y092792D01*X016859Y092792D01*X016859Y092823D01*X016983Y092823D01*
X016983Y092854D01*X018989Y092854D01*X018989Y092823D01*X019050Y092823D01*
X019050Y092792D01*X019112Y092792D01*X019112Y092731D01*X019143Y092731D01*
X019143Y092515D01*X019112Y092515D01*X019112Y092299D01*X019081Y092299D01*
X019081Y092268D01*X018464Y092268D01*X018464Y092360D01*X018495Y092360D01*
X018495Y092545D01*X018464Y092545D01*X018464Y092576D01*X017446Y092576D01*
X017446Y092545D01*X017384Y092545D01*X017384Y092515D01*X017353Y092515D01*
X017353Y092484D01*X017322Y092484D01*X017322Y092453D01*X017291Y092453D01*
X017291Y092360D01*X017260Y092360D01*X017260Y092268D01*X019081Y092268D01*
X019081Y092206D01*X019081Y092144D01*X019050Y092144D01*X019050Y092083D01*
X019019Y092083D01*X019019Y092052D01*X018989Y092052D01*X018989Y092021D01*
X018927Y092021D01*X018927Y091990D01*X018803Y091990D01*X018803Y091959D01*
X016581Y091959D01*G37*G36*X-001750Y092164D02*X-001719Y092164D01*
X-001719Y092071D01*X-001689Y092071D01*X-001689Y092009D01*X-001658Y092009D01*
X-001658Y091948D01*X-001627Y091948D01*X-001627Y091886D01*X-001596Y091886D01*
X-001596Y091855D01*X-001565Y091855D01*X-001565Y091793D01*X-001534Y091793D01*
X-001534Y091762D01*X-001503Y091762D01*X-001503Y091732D01*X-001473Y091732D01*
X-001473Y091701D01*X-001442Y091701D01*X-001442Y091670D01*X-001411Y091670D01*
X-001411Y091639D01*X-001380Y091639D01*X-001380Y091608D01*X-001318Y091608D01*
X-001318Y091577D01*X-001287Y091577D01*X-001287Y091546D01*X-001257Y091546D01*
X-001257Y091515D01*X-001195Y091515D01*X-001195Y091485D01*X-001164Y091485D01*
X-001164Y091454D01*X-001102Y091454D01*X-001102Y091423D01*X-001071Y091423D01*
X-001071Y091392D01*X-001010Y091392D01*X-001010Y091361D01*X-000979Y091361D01*
X-000979Y091330D01*X-000917Y091330D01*X-000917Y091299D01*X-000856Y091299D01*
X-000856Y091269D01*X-000793Y091269D01*X-000793Y091238D01*X-000732Y091238D01*
X-000732Y091207D01*X-000670Y091207D01*X-000670Y091176D01*X-000609Y091176D01*
X-000609Y091145D01*X-000547Y091145D01*X-000547Y091114D01*X-000485Y091114D01*
X-000485Y091083D01*X-000423Y091083D01*X-000423Y091053D01*X-000331Y091053D01*
X-000331Y091021D01*X-000300Y091021D01*X-000300Y090991D01*X-000207Y090991D01*
X-000207Y090960D01*X-000145Y090960D01*X-000145Y090929D01*X-000084Y090929D01*
X-000084Y090898D01*X-000022Y090898D01*X-000022Y090867D01*X000041Y090867D01*
X000041Y090929D01*X000010Y090929D01*X000010Y091270D01*X000041Y091270D01*
X000041Y091391D01*X000071Y091391D01*X000071Y091485D01*X000102Y091485D01*
X000102Y091578D01*X000133Y091578D01*X000133Y091639D01*X000165Y091639D01*
X000165Y091731D01*X000195Y091731D01*X000195Y091793D01*X000225Y091793D01*
X000225Y091824D01*X000257Y091824D01*X000257Y091886D01*X000287Y091886D01*
X000287Y091948D01*X000318Y091948D01*X000318Y092009D01*X000349Y092009D01*
X000349Y092071D01*X000381Y092071D01*X000381Y092102D01*X000410Y092102D01*
X000410Y092164D01*X000440Y092164D01*X000440Y092195D01*X000473Y092195D01*
X000473Y092256D01*X000503Y092256D01*X000503Y092287D01*X000534Y092287D01*
X000534Y092349D01*X000565Y092349D01*X000565Y092380D01*X000596Y092380D01*
X000596Y092441D01*X000626Y092441D01*X000626Y092503D01*X000657Y092503D01*
X000657Y092534D01*X000689Y092534D01*X000689Y092595D01*X000719Y092595D01*
X000719Y092626D01*X000751Y092626D01*X000751Y092688D01*X000781Y092688D01*
X000781Y092719D01*X000812Y092719D01*X000812Y092780D01*X000842Y092780D01*
X000842Y092843D01*X000873Y092843D01*X000873Y092873D01*X000905Y092873D01*
X000905Y092935D01*X000935Y092935D01*X000935Y092997D01*X000967Y092997D01*
X000967Y093058D01*X000997Y093058D01*X000997Y093090D01*X000133Y093090D01*
X000133Y093059D01*X000102Y093059D01*X000102Y093089D01*X000071Y093089D01*
X000071Y093058D01*X-000176Y093058D01*X-000176Y093028D01*X-000391Y093028D01*
X-000391Y092997D01*X-000515Y092997D01*X-000515Y092967D01*X-000640Y092967D01*
X-000640Y092936D01*X-000731Y092936D01*X-000731Y092904D01*X-000793Y092904D01*
X-000793Y092875D01*X-000887Y092875D01*X-000887Y092842D01*X-000948Y092842D01*
X-000948Y092812D01*X-001010Y092812D01*X-001010Y092781D01*X-001041Y092781D01*
X-001041Y092750D01*X-001102Y092750D01*X-001102Y092719D01*X-001135Y092719D01*
X-001135Y092688D01*X-001164Y092688D01*X-001164Y092658D01*X-001195Y092658D01*
X-001195Y092627D01*X-001225Y092627D01*X-001225Y092596D01*X-001256Y092596D01*
X-001256Y092657D01*X-001225Y092657D01*X-001225Y092688D01*X-001194Y092688D01*
X-001194Y092750D01*X-001164Y092750D01*X-001164Y092781D01*X-001134Y092781D01*
X-001134Y092812D01*X-001103Y092812D01*X-001103Y092843D01*X-001071Y092843D01*
X-001071Y092873D01*X-001040Y092873D01*X-001040Y092905D01*X-001009Y092905D01*
X-001009Y092934D01*X-000948Y092934D01*X-000948Y092965D01*X-000917Y092965D01*
X-000917Y092997D01*X-000887Y092997D01*X-000887Y093027D01*X-000824Y093027D01*
X-000824Y093058D01*X-000793Y093058D01*X-000793Y093089D01*X-000731Y093089D01*
X-000731Y093120D01*X-000670Y093120D01*X-000670Y093151D01*X-000608Y093151D01*
X-000608Y093182D01*X-000515Y093182D01*X-000515Y093213D01*X-000454Y093213D01*
X-000454Y093244D01*X-000361Y093244D01*X-000361Y093275D01*X-000268Y093275D01*
X-000268Y093305D01*X-000175Y093305D01*X-000175Y093336D01*X-000052Y093336D01*
X-000052Y093366D01*X000072Y093366D01*X000072Y093397D01*X000225Y093397D01*
X000225Y093429D01*X000411Y093429D01*X000411Y093459D01*X000688Y093459D01*
X000688Y093490D01*X001491Y093490D01*X001491Y093521D01*X001737Y093521D01*
X001737Y093552D01*X001862Y093552D01*X001862Y093583D01*X001954Y093583D01*
X001954Y093614D01*X002047Y093614D01*X002047Y093645D01*X002231Y093645D01*
X002231Y093614D01*X002262Y093614D01*X002262Y093583D01*X002293Y093583D01*
X002293Y093491D01*X002262Y093491D01*X002262Y093398D01*X002231Y093398D01*
X002231Y093336D01*X002201Y093336D01*X002201Y093274D01*X002169Y093274D01*
X002169Y093244D01*X002139Y093244D01*X002139Y093182D01*X002108Y093182D01*
X002108Y093151D01*X002077Y093151D01*X002077Y093090D01*X002046Y093090D01*
X002046Y093059D01*X002015Y093059D01*X002015Y092997D01*X001985Y092997D01*
X001985Y092966D01*X001953Y092966D01*X001953Y092904D01*X001923Y092904D01*
X001923Y092874D01*X001892Y092874D01*X001892Y092843D01*X001861Y092843D01*
X001861Y092812D01*X001830Y092812D01*X001830Y092750D01*X001799Y092750D01*
X001799Y092720D01*X001769Y092720D01*X001769Y092689D01*X001738Y092689D01*
X001738Y092627D01*X001707Y092627D01*X001707Y092596D01*X001675Y092596D01*
X001675Y092565D01*X001645Y092565D01*X001645Y092503D01*X001614Y092503D01*
X001614Y092472D01*X001583Y092472D01*X001583Y092442D01*X001552Y092442D01*
X001552Y092411D01*X001522Y092411D01*X001522Y092349D01*X001491Y092349D01*
X001491Y092318D01*X001460Y092318D01*X001460Y092287D01*X001429Y092287D01*
X001429Y092257D01*X001398Y092257D01*X001398Y092194D01*X001367Y092194D01*
X001367Y092164D01*X001336Y092164D01*X001336Y092133D01*X001305Y092133D01*
X001305Y092071D01*X001275Y092071D01*X001275Y092040D01*X001244Y092040D01*
X001244Y092010D01*X001212Y092010D01*X001212Y091947D01*X001182Y091947D01*
X001182Y091916D01*X001151Y091916D01*X001151Y091886D01*X001120Y091886D01*
X001120Y091824D01*X001089Y091824D01*X001089Y091793D01*X001058Y091793D01*
X001058Y091732D01*X001028Y091732D01*X001028Y091701D01*X000997Y091701D01*
X000997Y091639D01*X000966Y091639D01*X000966Y091608D01*X000935Y091608D01*
X000935Y091546D01*X000904Y091546D01*X000904Y091485D01*X000874Y091485D01*
X000874Y091423D01*X000843Y091423D01*X000843Y091362D01*X000812Y091362D01*
X000812Y091300D01*X000781Y091300D01*X000781Y091238D01*X000750Y091238D01*
X000750Y091145D01*X000719Y091145D01*X000719Y090929D01*X000750Y090929D01*
X000750Y090868D01*X000781Y090868D01*X000781Y090836D01*X001058Y090836D01*
X001058Y090868D01*X001152Y090868D01*X001152Y090899D01*X001213Y090899D01*
X001213Y090928D01*X001244Y090928D01*X001244Y090961D01*X001275Y090961D01*
X001275Y090991D01*X001305Y090991D01*X001305Y091022D01*X001337Y091022D01*
X001337Y091053D01*X001368Y091053D01*X001368Y091083D01*X001399Y091083D01*
X001399Y091145D01*X001429Y091145D01*X001429Y091176D01*X001460Y091176D01*
X001460Y091207D01*X001521Y091207D01*X001521Y091238D01*X001583Y091238D01*
X001583Y091268D01*X001707Y091268D01*X001707Y091237D01*X001768Y091237D01*
X001768Y091175D01*X001799Y091175D01*X001799Y090930D01*X001769Y090930D01*
X001769Y090867D01*X001738Y090867D01*X001738Y090836D01*X001707Y090836D01*
X001707Y090806D01*X001675Y090806D01*X001675Y090775D01*X001644Y090775D01*
X001644Y090744D01*X001614Y090744D01*X001614Y090713D01*X001582Y090713D01*
X001582Y090682D01*X001521Y090682D01*X001521Y090651D01*X001491Y090651D01*
X001491Y090621D01*X001429Y090621D01*X001429Y090589D01*X001367Y090589D01*
X001367Y090559D01*X001274Y090559D01*X001274Y090528D01*X001183Y090528D01*
X001183Y090497D01*X001059Y090497D01*X001059Y090467D01*X001181Y090467D01*
X001181Y090434D01*X001397Y090434D01*X001397Y090405D01*X001676Y090405D01*
X001676Y090435D01*X001892Y090435D01*X001892Y090466D01*X001984Y090466D01*
X001984Y090497D01*X002077Y090497D01*X002077Y090528D01*X002139Y090528D01*
X002139Y090559D01*X002201Y090559D01*X002201Y090590D01*X002231Y090590D01*
X002231Y090621D01*X002293Y090621D01*X002293Y090651D01*X002324Y090651D01*
X002324Y090683D01*X002386Y090683D01*X002386Y090712D01*X002416Y090712D01*
X002416Y090744D01*X002448Y090744D01*X002448Y090774D01*X002479Y090774D01*
X002479Y090806D01*X002509Y090806D01*X002509Y090837D01*X002540Y090837D01*
X002540Y090867D01*X002571Y090867D01*X002571Y090898D01*X002602Y090898D01*
X002602Y090960D01*X002633Y090960D01*X002633Y090991D01*X002664Y090991D01*
X002664Y091022D01*X002694Y091022D01*X002694Y091083D01*X002725Y091083D01*
X002725Y091145D01*X002756Y091145D01*X002756Y091207D01*X002787Y091207D01*
X002787Y091238D01*X002817Y091238D01*X002817Y091330D01*X002848Y091330D01*
X002848Y091392D01*X002879Y091392D01*X002879Y091454D01*X002910Y091454D01*
X002910Y091516D01*X002941Y091516D01*X002941Y091608D01*X002972Y091608D01*
X002972Y091671D01*X003003Y091671D01*X003003Y091762D01*X003034Y091762D01*
X003034Y091853D01*X003065Y091853D01*X003065Y091916D01*X003096Y091916D01*
X003096Y092010D01*X003127Y092010D01*X003127Y092102D01*X003157Y092102D01*
X003157Y092163D01*X003187Y092163D01*X003187Y092256D01*X003219Y092256D01*
X003219Y092349D01*X003251Y092349D01*X003251Y092472D01*X003281Y092472D01*
X003281Y092565D01*X003311Y092565D01*X003311Y092689D01*X003343Y092689D01*
X003343Y092842D01*X003374Y092842D01*X003374Y093027D01*X003404Y093027D01*
X003404Y093707D01*X003372Y093707D01*X003372Y093830D01*X003342Y093830D01*
X003342Y093953D01*X003311Y093953D01*X003311Y094014D01*X003281Y094014D01*
X003281Y094107D01*X003251Y094107D01*X003251Y094139D01*X003219Y094139D01*
X003219Y094200D01*X003188Y094200D01*X003188Y094231D01*X003157Y094231D01*
X003157Y094263D01*X003127Y094263D01*X003127Y094324D01*X003096Y094324D01*
X003096Y094355D01*X003064Y094355D01*X003064Y094385D01*X003002Y094385D01*
X003002Y094416D01*X002971Y094416D01*X002971Y094447D01*X002941Y094447D01*
X002941Y094478D01*X002882Y094478D01*X002882Y094509D01*X002819Y094509D01*
X002819Y094539D01*X002726Y094539D01*X002726Y094572D01*X002663Y094572D01*
X002663Y094417D01*X002631Y094417D01*X002631Y094355D01*X002601Y094355D01*
X002601Y094293D01*X002570Y094293D01*X002570Y094230D01*X002540Y094230D01*
X002540Y094201D01*X002509Y094201D01*X002509Y094170D01*X002478Y094170D01*
X002478Y094138D01*X002448Y094138D01*X002448Y094107D01*X002417Y094107D01*
X002417Y094077D01*X002355Y094077D01*X002355Y094046D01*X002293Y094046D01*
X002293Y094016D01*X002170Y094016D01*X002170Y093984D01*X001953Y093984D01*
X001953Y094015D01*X001861Y094015D01*X001861Y094045D01*X001799Y094045D01*
X001799Y094078D01*X001769Y094078D01*X001769Y094108D01*X001737Y094108D01*
X001737Y094139D01*X001707Y094139D01*X001707Y094171D01*X001676Y094171D01*
X001676Y094232D01*X001646Y094232D01*X001646Y094478D01*X001676Y094478D01*
X001676Y094540D01*X001708Y094540D01*X001708Y094602D01*X001521Y094602D01*
X001521Y094571D01*X001367Y094571D01*X001367Y094540D01*X001244Y094540D01*
X001244Y094509D01*X001120Y094509D01*X001120Y094478D01*X001028Y094478D01*
X001028Y094447D01*X000904Y094447D01*X000904Y094416D01*X000811Y094416D01*
X000811Y094386D01*X000719Y094386D01*X000719Y094355D01*X000657Y094355D01*
X000657Y094324D01*X000565Y094324D01*X000565Y094293D01*X000503Y094293D01*
X000503Y094262D01*X000410Y094262D01*X000410Y094231D01*X000349Y094231D01*
X000349Y094200D01*X000287Y094200D01*X000287Y094170D01*X000225Y094170D01*
X000225Y094139D01*X000163Y094139D01*X000163Y094108D01*X000071Y094108D01*
X000071Y094077D01*X000009Y094077D01*X000009Y094046D01*X-000053Y094046D01*
X-000053Y094015D01*X-000084Y094015D01*X-000084Y093984D01*X-000146Y093984D01*
X-000146Y093954D01*X-000207Y093954D01*X-000207Y093923D01*X-000269Y093923D01*
X-000269Y093892D01*X-000331Y093892D01*X-000331Y093861D01*X-000392Y093861D01*
X-000392Y093830D01*X-000423Y093830D01*X-000423Y093799D01*X-000485Y093799D01*
X-000485Y093769D01*X-000547Y093769D01*X-000547Y093738D01*X-000609Y093738D01*
X-000609Y093707D01*X-000639Y093707D01*X-000639Y093676D01*X-000701Y093676D01*
X-000701Y093645D01*X-000763Y093645D01*X-000763Y093614D01*X-000794Y093614D01*
X-000794Y093583D01*X-000855Y093583D01*X-000855Y093552D01*X-000886Y093552D01*
X-000886Y093522D01*X-000948Y093522D01*X-000948Y093491D01*X-001010Y093491D01*
X-001010Y093460D01*X-001041Y093460D01*X-001041Y093429D01*X-001102Y093429D01*
X-001102Y093398D01*X-001133Y093398D01*X-001133Y093367D01*X-001164Y093367D01*
X-001164Y093337D01*X-001226Y093337D01*X-001226Y093306D01*X-001257Y093306D01*
X-001257Y093275D01*X-001287Y093275D01*X-001287Y093244D01*X-001318Y093244D01*
X-001318Y093213D01*X-001349Y093213D01*X-001349Y093182D01*X-001380Y093182D01*
X-001380Y093151D01*X-001411Y093151D01*X-001411Y093121D01*X-001442Y093121D01*
X-001442Y093089D01*X-001473Y093089D01*X-001473Y093059D01*X-001503Y093059D01*
X-001503Y092997D01*X-001534Y092997D01*X-001534Y092966D01*X-001565Y092966D01*
X-001565Y092904D01*X-001596Y092904D01*X-001596Y092873D01*X-001627Y092873D01*
X-001627Y092812D01*X-001658Y092812D01*X-001658Y092750D01*X-001689Y092750D01*
X-001689Y092657D01*X-001719Y092657D01*X-001719Y092534D01*X-001750Y092534D01*
X-001750Y092164D01*G37*G36*X004175Y091373D02*X004885Y091373D01*
X004885Y091434D01*X004916Y091434D01*X004916Y091589D01*X004947Y091589D01*
X004947Y091743D01*X004978Y091743D01*X004978Y091897D01*X005009Y091897D01*
X005009Y092052D01*X005039Y092052D01*X005039Y092237D01*X005070Y092237D01*
X005070Y092391D01*X005101Y092391D01*X005101Y092545D01*X005132Y092545D01*
X005132Y092700D01*X005163Y092700D01*X005163Y092854D01*X005194Y092854D01*
X005194Y093008D01*X005225Y093008D01*X005225Y093194D01*X005255Y093194D01*
X005255Y093348D01*X005286Y093348D01*X005286Y093502D01*X005317Y093502D01*
X005317Y093656D01*X005348Y093656D01*X005348Y093718D01*X004607Y093718D01*
X004608Y093718D01*X004607Y093595D01*X004577Y093595D01*X004577Y093440D01*
X004546Y093440D01*X004546Y093286D01*X004515Y093286D01*X004515Y093101D01*
X004484Y093101D01*X004484Y092947D01*X004453Y092947D01*X004453Y092792D01*
X004422Y092792D01*X004422Y092638D01*X004391Y092638D01*X004391Y092484D01*
X004360Y092484D01*X004360Y092299D01*X004330Y092299D01*X004330Y092144D01*
X004299Y092144D01*X004299Y091990D01*X004268Y091990D01*X004268Y091836D01*
X004237Y091836D01*X004237Y091681D01*X004206Y091681D01*X004206Y091496D01*
X004175Y091496D01*X004175Y091373D01*G37*G36*X005132Y091404D02*X005132Y091496D01*
X005163Y091496D01*X005163Y091650D01*X005194Y091650D01*X005194Y091805D01*
X005225Y091805D01*X005225Y091990D01*X005255Y091990D01*X005255Y092113D01*
X005286Y092113D01*X005286Y092299D01*X005317Y092299D01*X005317Y092453D01*
X005348Y092453D01*X005348Y092607D01*X005379Y092607D01*X005379Y092731D01*
X005410Y092731D01*X005410Y092854D01*X007200Y092854D01*X007200Y092823D01*
X007385Y092823D01*X007385Y092792D01*X007477Y092792D01*X007477Y092761D01*
X007570Y092761D01*X007570Y092731D01*X007632Y092731D01*X007632Y092700D01*
X007663Y092700D01*X007663Y092669D01*X007724Y092669D01*X007724Y092607D01*
X007755Y092607D01*X007755Y092391D01*X007724Y092391D01*X007724Y092206D01*
X007693Y092206D01*X007693Y091990D01*X007663Y091990D01*X007663Y091805D01*
X007632Y091805D01*X007632Y091620D01*X007601Y091620D01*X007601Y091404D01*
X006922Y091404D01*X006922Y091465D01*X006953Y091465D01*X006953Y091620D01*
X006984Y091620D01*X006984Y091836D01*X007015Y091836D01*X007015Y091990D01*
X007045Y091990D01*X007045Y092175D01*X007076Y092175D01*X007076Y092329D01*
X007107Y092329D01*X007107Y092515D01*X007076Y092515D01*X007076Y092545D01*
X007015Y092545D01*X007015Y092576D01*X005996Y092576D01*X005996Y092545D01*
X005965Y092545D01*X005965Y092360D01*X005934Y092360D01*X005934Y092206D01*
X005904Y092206D01*X005904Y092052D01*X005873Y092052D01*X005873Y091867D01*
X005842Y091867D01*X005842Y091743D01*X005811Y091743D01*X005811Y091558D01*
X005780Y091558D01*X005780Y091404D01*X005132Y091404D01*G37*G36*X007817Y091650D02*
X007817Y091836D01*X007848Y091836D01*X007848Y091990D01*X007879Y091990D01*
X007879Y092175D01*X007910Y092175D01*X007910Y092329D01*X007940Y092329D01*
X007940Y092484D01*X007971Y092484D01*X007971Y092669D01*X008002Y092669D01*
X008002Y092823D01*X008033Y092823D01*X008033Y092977D01*X008064Y092977D01*
X008064Y093163D01*X008095Y093163D01*X008095Y093317D01*X008126Y093317D01*
X008126Y093440D01*X008804Y093440D01*X008804Y093410D01*X008774Y093410D01*
X008774Y093255D01*X008743Y093255D01*X008743Y093132D01*X008712Y093132D01*
X008712Y092977D01*X008681Y092977D01*X008681Y092854D01*X009483Y092854D01*
X009483Y092792D01*X009453Y092792D01*X009453Y092607D01*X009422Y092607D01*
X009422Y092576D01*X008619Y092576D01*X008619Y092484D01*X008588Y092484D01*
X008588Y092360D01*X008558Y092360D01*X008558Y092206D01*X008527Y092206D01*
X008527Y092052D01*X008496Y092052D01*X008496Y091928D01*X008465Y091928D01*
X008465Y091712D01*X008496Y091712D01*X008496Y091681D01*X008558Y091681D01*
X008558Y091650D01*X009329Y091650D01*X009329Y091465D01*X009298Y091465D01*
X009298Y091373D01*X008527Y091373D01*X008527Y091404D01*X008187Y091404D01*
X008187Y091434D01*X008095Y091434D01*X008095Y091465D01*X008002Y091465D01*
X008002Y091496D01*X007971Y091496D01*X007971Y091527D01*X007910Y091527D01*
X007910Y091558D01*X007879Y091558D01*X007879Y091589D01*X007848Y091589D01*
X007848Y091650D01*X007817Y091650D01*G37*G36*X009514Y091990D02*X009514Y092113D01*
X009545Y092113D01*X009545Y092268D01*X009576Y092268D01*X009576Y092453D01*
X009607Y092453D01*X009607Y092607D01*X009638Y092607D01*X009638Y092700D01*
X009669Y092700D01*X009669Y092731D01*X009699Y092731D01*X009699Y092761D01*
X009730Y092761D01*X009730Y092792D01*X009792Y092792D01*X009792Y092823D01*
X009915Y092823D01*X009915Y092854D01*X011921Y092854D01*X011921Y092823D01*
X011983Y092823D01*X011983Y092792D01*X012014Y092792D01*X012014Y092761D01*
X012045Y092761D01*X012045Y092422D01*X012014Y092422D01*X012014Y092268D01*
X011397Y092268D01*X011397Y092391D01*X011428Y092391D01*X011428Y092545D01*
X011397Y092545D01*X011397Y092576D01*X010348Y092576D01*X010348Y092545D01*
X010286Y092545D01*X010286Y092515D01*X010255Y092515D01*X010255Y092484D01*
X010224Y092484D01*X010224Y092391D01*X010193Y092391D01*X010193Y092299D01*
X010162Y092299D01*X010162Y092268D01*X012014Y092268D01*X012014Y092206D01*
X011983Y092206D01*X011983Y092113D01*X011952Y092113D01*X011952Y092052D01*
X011891Y092052D01*X011891Y092021D01*X011860Y092021D01*X011860Y091990D01*
X009514Y091990D01*G37*G36*X009453Y091589D02*X009453Y091774D01*X009483Y091774D01*
X009483Y091959D01*X009514Y091959D01*X009514Y091990D01*X010131Y091990D01*
X010131Y091867D01*X010101Y091867D01*X010101Y091712D01*X010162Y091712D01*
X010162Y091681D01*X010255Y091681D01*X010255Y091650D01*X012724Y091650D01*
X012724Y091589D01*X012693Y091589D01*X012693Y091404D01*X012662Y091404D01*
X012662Y091373D01*X010008Y091373D01*X010008Y091404D01*X009761Y091404D01*
X009761Y091434D01*X009669Y091434D01*X009669Y091465D01*X009576Y091465D01*
X009576Y091496D01*X009545Y091496D01*X009545Y091527D01*X009514Y091527D01*
X009514Y091558D01*X009483Y091558D01*X009483Y091589D01*X009453Y091589D01*
G37*G36*
X012076Y091650D02*X012076Y091712D01*X012107Y091712D01*X012107Y091867D01*
X012137Y091867D01*X012137Y092021D01*X012168Y092021D01*X012168Y092175D01*
X012199Y092175D01*X012199Y092329D01*X012230Y092329D01*X012230Y092484D01*
X012261Y092484D01*X012261Y092638D01*X012292Y092638D01*X012292Y092700D01*
X012323Y092700D01*X012323Y092731D01*X012353Y092731D01*X012353Y092761D01*
X012384Y092761D01*X012384Y092792D01*X012446Y092792D01*X012446Y092823D01*
X012570Y092823D01*X012570Y092854D01*X014668Y092854D01*X014668Y092792D01*
X014637Y092792D01*X014637Y092700D01*X014606Y092700D01*X014606Y092638D01*
X014575Y092638D01*X014575Y092576D01*X014545Y092576D01*X014545Y092515D01*
X014514Y092515D01*X014514Y092422D01*X014483Y092422D01*X014483Y092360D01*
X014452Y092360D01*X014452Y092299D01*X014421Y092299D01*X014421Y092237D01*
X014390Y092237D01*X014390Y092144D01*X014359Y092144D01*X014359Y092083D01*
X014329Y092083D01*X014329Y092021D01*X014298Y092021D01*X014298Y091959D01*
X014267Y091959D01*X014267Y091897D01*X014236Y091897D01*X014236Y091805D01*
X014205Y091805D01*X014205Y091743D01*X014174Y091743D01*X014174Y091681D01*
X014143Y091681D01*X014143Y091620D01*X014113Y091620D01*X014113Y091527D01*
X014082Y091527D01*X014082Y091465D01*X014051Y091465D01*X014051Y091404D01*
X014020Y091404D01*X014020Y091342D01*X013989Y091342D01*X013989Y091249D01*
X013958Y091249D01*X013958Y091188D01*X013927Y091188D01*X013927Y091126D01*
X013897Y091126D01*X013897Y091064D01*X013866Y091064D01*X013866Y090972D01*
X013835Y090972D01*X013835Y090910D01*X013804Y090910D01*X013804Y090848D01*
X013773Y090848D01*X013773Y090786D01*X013742Y090786D01*X013742Y090910D01*
X013773Y090910D01*X013773Y091095D01*X013804Y091095D01*X013804Y091280D01*
X013835Y091280D01*X013835Y091434D01*X013866Y091434D01*X013866Y091620D01*
X013897Y091620D01*X013897Y091805D01*X013927Y091805D01*X013927Y091990D01*
X013958Y091990D01*X013958Y092175D01*X013989Y092175D01*X013989Y092360D01*
X014020Y092360D01*X014020Y092515D01*X014051Y092515D01*X014051Y092576D01*
X013002Y092576D01*X013002Y092545D01*X012940Y092545D01*X012940Y092515D01*
X012909Y092515D01*X012909Y092484D01*X012878Y092484D01*X012878Y092360D01*
X012847Y092360D01*X012847Y092206D01*X012816Y092206D01*X012816Y092052D01*
X012786Y092052D01*X012786Y091897D01*X012755Y091897D01*X012755Y091743D01*
X012724Y091743D01*X012724Y091650D01*X012076Y091650D01*G37*G36*X013711Y090775D02*
X013711Y090806D01*X013742Y090806D01*X013742Y090775D01*X013711Y090775D01*G37*G36*
X014082Y092854D02*X014082Y092885D01*X014113Y092885D01*X014113Y093070D01*
X014143Y093070D01*X014143Y093255D01*X014174Y093255D01*X014174Y093440D01*
X014205Y093440D01*X014205Y093564D01*X014915Y093564D01*X014915Y093533D01*
X014946Y093533D01*X014946Y093471D01*X014977Y093471D01*X014977Y093410D01*
X015008Y093410D01*X015008Y093348D01*X015038Y093348D01*X015038Y093317D01*
X015069Y093317D01*X015069Y093255D01*X015100Y093255D01*X015100Y093194D01*
X015131Y093194D01*X015131Y093132D01*X015162Y093132D01*X015162Y093070D01*
X015193Y093070D01*X015193Y093008D01*X015224Y093008D01*X015224Y092977D01*
X015254Y092977D01*X015254Y092916D01*X015285Y092916D01*X015285Y092854D01*
X015316Y092854D01*X015316Y092792D01*X015347Y092792D01*X015347Y092731D01*
X015378Y092731D01*X015378Y092669D01*X015409Y092669D01*X015409Y092638D01*
X015440Y092638D01*X015440Y092576D01*X014946Y092576D01*X014946Y092607D01*
X014915Y092607D01*X014915Y092669D01*X014884Y092669D01*X014884Y092731D01*
X014853Y092731D01*X014853Y092792D01*X014822Y092792D01*X014822Y092823D01*
X014792Y092823D01*X014792Y092885D01*X014761Y092885D01*X014761Y092947D01*
X014730Y092947D01*X014730Y092916D01*X014699Y092916D01*X014699Y092854D01*
X014082Y092854D01*G37*G36*X014946Y092545D02*X014977Y092545D01*X014977Y092484D01*
X015008Y092484D01*X015008Y092453D01*X015038Y092453D01*X015038Y092391D01*
X015069Y092391D01*X015069Y092329D01*X015100Y092329D01*X015100Y092268D01*
X015131Y092268D01*X015131Y092206D01*X015162Y092206D01*X015162Y092144D01*
X015193Y092144D01*X015193Y092113D01*X015224Y092113D01*X015224Y092052D01*
X015254Y092052D01*X015254Y091990D01*X015285Y091990D01*X015285Y091928D01*
X015316Y091928D01*X015316Y091867D01*X015347Y091867D01*X015347Y091805D01*
X015378Y091805D01*X015378Y091774D01*X015409Y091774D01*X015409Y091712D01*
X015440Y091712D01*X015440Y091650D01*X015470Y091650D01*X015470Y091589D01*
X015501Y091589D01*X015501Y091527D01*X015532Y091527D01*X015532Y091496D01*
X015563Y091496D01*X015563Y091434D01*X015594Y091434D01*X015594Y091373D01*
X016304Y091373D01*X016304Y091465D01*X016335Y091465D01*X016335Y091650D01*
X016365Y091650D01*X016365Y091805D01*X016396Y091805D01*X016396Y091990D01*
X016427Y091990D01*X016427Y092175D01*X016458Y092175D01*X016458Y092329D01*
X016489Y092329D01*X016489Y092515D01*X016520Y092515D01*X016520Y092669D01*
X016551Y092669D01*X016551Y092854D01*X016581Y092854D01*X016581Y093039D01*
X016612Y093039D01*X016612Y093224D01*X016643Y093224D01*X016643Y093379D01*
X016674Y093379D01*X016674Y093564D01*X016705Y093564D01*X016705Y093749D01*
X016736Y093749D01*X016736Y093903D01*X016767Y093903D01*X016767Y094027D01*
X016736Y094027D01*X016736Y093965D01*X016705Y093965D01*X016705Y093872D01*
X016674Y093872D01*X016674Y093811D01*X016643Y093811D01*X016643Y093749D01*
X016612Y093749D01*X016612Y093687D01*X016581Y093687D01*X016581Y093626D01*
X016551Y093626D01*X016551Y093564D01*X016520Y093564D01*X016520Y093502D01*
X016489Y093502D01*X016489Y093440D01*X016458Y093440D01*X016458Y093379D01*
X016427Y093379D01*X016427Y093317D01*X016396Y093317D01*X016396Y093255D01*
X016365Y093255D01*X016365Y093163D01*X016335Y093163D01*X016335Y093101D01*
X016304Y093101D01*X016304Y093039D01*X016273Y093039D01*X016273Y092977D01*
X016242Y092977D01*X016242Y092916D01*X016211Y092916D01*X016211Y092854D01*
X016180Y092854D01*X016180Y092792D01*X016149Y092792D01*X016149Y092731D01*
X016119Y092731D01*X016119Y092669D01*X016088Y092669D01*X016088Y092607D01*
X016057Y092607D01*X016057Y092545D01*X016026Y092545D01*X016026Y092453D01*
X015995Y092453D01*X015995Y092391D01*X015964Y092391D01*X015964Y092329D01*
X015933Y092329D01*X015933Y092268D01*X015902Y092268D01*X015902Y092206D01*
X015872Y092206D01*X015872Y092144D01*X015841Y092144D01*X015841Y092083D01*
X015810Y092083D01*X015810Y092021D01*X015748Y092021D01*X015748Y092052D01*
X015717Y092052D01*X015717Y092113D01*X015686Y092113D01*X015686Y092175D01*
X015656Y092175D01*X015656Y092237D01*X015625Y092237D01*X015625Y092299D01*
X015594Y092299D01*X015594Y092329D01*X015563Y092329D01*X015563Y092391D01*
X015532Y092391D01*X015532Y092453D01*X015501Y092453D01*X015501Y092515D01*
X015470Y092515D01*X015470Y092576D01*X014946Y092576D01*X014946Y092545D01*G37*G36*
X016088Y094027D02*X016119Y094027D01*X016119Y093903D01*X016149Y093903D01*
X016149Y093811D01*X016180Y093811D01*X016180Y093749D01*X016211Y093749D01*
X016211Y093718D01*X016242Y093718D01*X016242Y093656D01*X016273Y093656D01*
X016273Y093626D01*X016335Y093626D01*X016335Y093595D01*X016458Y093595D01*
X016458Y093626D01*X016489Y093626D01*X016489Y093749D01*X016458Y093749D01*
X016458Y093780D01*X016427Y093780D01*X016427Y093811D01*X016396Y093811D01*
X016396Y093842D01*X016365Y093842D01*X016365Y093903D01*X016335Y093903D01*
X016335Y093996D01*X016304Y093996D01*X016304Y094181D01*X016335Y094181D01*
X016335Y094274D01*X016365Y094274D01*X016365Y094335D01*X016149Y094335D01*
X016149Y094305D01*X016119Y094305D01*X016119Y094150D01*X016088Y094150D01*
X016088Y094027D01*G37*G36*X016149Y094335D02*X016396Y094335D01*X016396Y094366D01*
X016427Y094366D01*X016427Y094428D01*X016458Y094428D01*X016458Y094459D01*
X016520Y094459D01*X016520Y094490D01*X016581Y094490D01*X016581Y094521D01*
X016705Y094521D01*X016705Y094551D01*X016828Y094551D01*X016828Y094521D01*
X016952Y094521D01*X016952Y094490D01*X016983Y094490D01*X016983Y094459D01*
X017044Y094459D01*X017044Y094428D01*X017075Y094428D01*X017075Y094397D01*
X017106Y094397D01*X017106Y094366D01*X017137Y094366D01*X017137Y094305D01*
X017384Y094305D01*X017384Y094335D01*X017353Y094335D01*X017353Y094397D01*
X017322Y094397D01*X017322Y094459D01*X017291Y094459D01*X017291Y094490D01*
X017260Y094490D01*X017260Y094521D01*X017230Y094521D01*X017230Y094551D01*
X017199Y094551D01*X017199Y094582D01*X017168Y094582D01*X017168Y094613D01*
X017137Y094613D01*X017137Y094644D01*X017075Y094644D01*X017075Y094675D01*
X017013Y094675D01*X017013Y094706D01*X016921Y094706D01*X016921Y094737D01*
X016581Y094737D01*X016581Y094706D01*X016489Y094706D01*X016489Y094675D01*
X016427Y094675D01*X016427Y094644D01*X016396Y094644D01*X016396Y094613D01*
X016335Y094613D01*X016335Y094582D01*X016304Y094582D01*X016304Y094551D01*
X016273Y094551D01*X016273Y094521D01*X016242Y094521D01*X016242Y094459D01*
X016211Y094459D01*X016211Y094428D01*X016180Y094428D01*X016180Y094366D01*
X016149Y094366D01*X016149Y094335D01*G37*G36*X016797Y093502D02*X016828Y093502D01*
X016828Y093471D01*X016890Y093471D01*X016890Y093440D01*X016952Y093440D01*
X016952Y093471D01*X017013Y093471D01*X017013Y093502D01*X017075Y093502D01*
X017075Y093533D01*X017137Y093533D01*X017137Y093564D01*X017168Y093564D01*
X017168Y093595D01*X017199Y093595D01*X017199Y093626D01*X017230Y093626D01*
X017230Y093656D01*X017260Y093656D01*X017260Y093687D01*X017291Y093687D01*
X017291Y093749D01*X017322Y093749D01*X017322Y093780D01*X017353Y093780D01*
X017353Y093842D01*X017384Y093842D01*X017384Y093965D01*X017415Y093965D01*
X017415Y094212D01*X017384Y094212D01*X017384Y094305D01*X017168Y094305D01*
X017168Y094243D01*X017199Y094243D01*X017199Y093934D01*X017168Y093934D01*
X017168Y093872D01*X017137Y093872D01*X017137Y093811D01*X017106Y093811D01*
X017106Y093780D01*X017075Y093780D01*X017075Y093749D01*X017044Y093749D01*
X017044Y093718D01*X016983Y093718D01*X016983Y093687D01*X016921Y093687D01*
X016921Y093656D01*X016859Y093656D01*X016859Y093626D01*X016828Y093626D01*
X016828Y093595D01*X016797Y093595D01*X016797Y093502D01*G37*G36*X019328Y091650D02*
X019328Y091681D01*X019390Y091681D01*X019390Y091712D01*X019421Y091712D01*
X019421Y091743D01*X019482Y091743D01*X019482Y091774D01*X019544Y091774D01*
X019544Y091805D01*X019575Y091805D01*X019575Y091836D01*X019637Y091836D01*
X019637Y091867D01*X019668Y091867D01*X019668Y091897D01*X019698Y091897D01*
X019698Y091928D01*X019760Y091928D01*X019760Y091959D01*X019822Y091959D01*
X019822Y091990D01*X019853Y091990D01*X019853Y092021D01*X019914Y092021D01*
X019914Y092052D01*X019945Y092052D01*X019945Y092083D01*X020717Y092083D01*
X020717Y092052D01*X020748Y092052D01*X020748Y092021D01*X020809Y092021D01*
X020809Y091990D01*X020840Y091990D01*X020840Y091959D01*X020871Y091959D01*
X020871Y091928D01*X020902Y091928D01*X020902Y091897D01*X020964Y091897D01*
X020964Y091867D01*X020995Y091867D01*X020995Y091836D01*X021025Y091836D01*
X021025Y091805D01*X021056Y091805D01*X021056Y091774D01*X021118Y091774D01*
X021118Y091743D01*X021149Y091743D01*X021149Y091712D01*X021180Y091712D01*
X021180Y091681D01*X021211Y091681D01*X021211Y091650D01*X021272Y091650D01*
X021272Y091620D01*X021303Y091620D01*X021303Y091589D01*X021334Y091589D01*
X021334Y091558D01*X021365Y091558D01*X021365Y091527D01*X021396Y091527D01*
X021396Y091496D01*X021457Y091496D01*X021457Y091465D01*X021488Y091465D01*
X021488Y091434D01*X021519Y091434D01*X021519Y091404D01*X021550Y091404D01*
X021550Y091373D01*X020902Y091373D01*X020902Y091404D01*X020840Y091404D01*
X020840Y091434D01*X020809Y091434D01*X020809Y091465D01*X020779Y091465D01*
X020779Y091496D01*X020748Y091496D01*X020748Y091527D01*X020717Y091527D01*
X020717Y091558D01*X020686Y091558D01*X020686Y091589D01*X020624Y091589D01*
X020624Y091620D01*X020593Y091620D01*X020593Y091650D01*X020563Y091650D01*
X020563Y091681D01*X020532Y091681D01*X020532Y091712D01*X020501Y091712D01*
X020501Y091743D01*X020470Y091743D01*X020470Y091774D01*X020408Y091774D01*
X020408Y091805D01*X020377Y091805D01*X020377Y091836D01*X020346Y091836D01*
X020346Y091867D01*X020285Y091867D01*X020285Y091836D01*X020223Y091836D01*
X020223Y091805D01*X020192Y091805D01*X020192Y091774D01*X020130Y091774D01*
X020130Y091743D01*X020069Y091743D01*X020069Y091712D01*X020038Y091712D01*
X020038Y091681D01*X019976Y091681D01*X019976Y091650D01*X019328Y091650D01*G37*G36*
X019235Y092823D02*X019235Y092854D01*X019791Y092854D01*X019791Y092823D01*
X019822Y092823D01*X019822Y092792D01*X019884Y092792D01*X019884Y092761D01*
X019914Y092761D01*X019914Y092731D01*X019945Y092731D01*X019945Y092700D01*
X019976Y092700D01*X019976Y092669D01*X020007Y092669D01*X020007Y092638D01*
X020038Y092638D01*X020038Y092607D01*X020069Y092607D01*X020069Y092576D01*
X020100Y092576D01*X020100Y092545D01*X020130Y092545D01*X020130Y092515D01*
X020192Y092515D01*X020192Y092484D01*X020223Y092484D01*X020223Y092453D01*
X020254Y092453D01*X020254Y092422D01*X020285Y092422D01*X020285Y092391D01*
X020316Y092391D01*X020316Y092360D01*X020377Y092360D01*X020377Y092391D01*
X020439Y092391D01*X020439Y092422D01*X020501Y092422D01*X020501Y092453D01*
X020532Y092453D01*X020532Y092484D01*X020593Y092484D01*X020593Y092515D01*
X020624Y092515D01*X020624Y092545D01*X020686Y092545D01*X020686Y092576D01*
X020748Y092576D01*X020748Y092607D01*X020779Y092607D01*X020779Y092638D01*
X020840Y092638D01*X020840Y092669D01*X020871Y092669D01*X020871Y092700D01*
X020933Y092700D01*X020933Y092731D01*X020964Y092731D01*X020964Y092761D01*
X021025Y092761D01*X021025Y092792D01*X021056Y092792D01*X021056Y092823D01*
X021118Y092823D01*X021118Y092854D01*X021766Y092854D01*X021766Y092823D01*
X021704Y092823D01*X021704Y092792D01*X021674Y092792D01*X021674Y092761D01*
X021612Y092761D01*X021612Y092731D01*X021581Y092731D01*X021581Y092700D01*
X021519Y092700D01*X021519Y092669D01*X021488Y092669D01*X021488Y092638D01*
X021427Y092638D01*X021427Y092607D01*X021396Y092607D01*X021396Y092576D01*
X021334Y092576D01*X021334Y092545D01*X021303Y092545D01*X021303Y092515D01*
X021241Y092515D01*X021241Y092484D01*X021211Y092484D01*X021211Y092453D01*
X021149Y092453D01*X021149Y092422D01*X021118Y092422D01*X021118Y092391D01*
X021056Y092391D01*X021056Y092360D01*X021025Y092360D01*X021025Y092329D01*
X020964Y092329D01*X020964Y092299D01*X020933Y092299D01*X020933Y092268D01*
X020871Y092268D01*X020871Y092237D01*X020840Y092237D01*X020840Y092206D01*
X020779Y092206D01*X020779Y092175D01*X020748Y092175D01*X020748Y092144D01*
X020686Y092144D01*X020686Y092083D01*X020007Y092083D01*X020007Y092175D01*
X019976Y092175D01*X019976Y092206D01*X019914Y092206D01*X019914Y092237D01*
X019884Y092237D01*X019884Y092268D01*X019853Y092268D01*X019853Y092299D01*
X019822Y092299D01*X019822Y092329D01*X019791Y092329D01*X019791Y092360D01*
X019760Y092360D01*X019760Y092391D01*X019729Y092391D01*X019729Y092422D01*
X019698Y092422D01*X019698Y092453D01*X019637Y092453D01*X019637Y092484D01*
X019606Y092484D01*X019606Y092515D01*X019575Y092515D01*X019575Y092545D01*
X019544Y092545D01*X019544Y092576D01*X019513Y092576D01*X019513Y092607D01*
X019482Y092607D01*X019482Y092638D01*X019452Y092638D01*X019452Y092669D01*
X019390Y092669D01*X019390Y092700D01*X019359Y092700D01*X019359Y092731D01*
X019328Y092731D01*X019328Y092761D01*X019297Y092761D01*X019297Y092792D01*
X019266Y092792D01*X019266Y092823D01*X019235Y092823D01*G37*X000000Y000000D02*M02*
