%MOMM*%
%FSLAX33Y33*%
%ADD10C,0.200000*%
%ADD15C,0.100000*%
%ADD179C,0.160930*%
G90*G71*G01*D02*G54D10*X000000Y000000D02*X065000Y000000D01*X065000Y077000D01*
X000000Y077000D01*X000000Y000000D01*X065000Y065000D02*X010000Y065000D01*
X010000Y000000D01*X010000Y065000D02*X010000Y077000D01*X010000Y065000D02*
X000000Y065000D01*D02*G54D15*X022500Y095000D02*X-002500Y095000D01*
X-002500Y090000D01*X022500Y090000D01*X022500Y092500D02*X072500Y092500D01*
X042500Y095000D02*X042500Y090000D01*X022500Y095000D02*X072500Y095000D01*
X072500Y090000D02*X022500Y090000D01*X022500Y095000D02*X022500Y090000D01*
X072500Y095000D02*X072500Y090000D01*X057500Y095000D02*X057500Y090000D01*
X060221Y091568D02*X060221Y091523D01*X060266Y091523D01*X060266Y091568D01*
X060221Y091568D01*X060221Y091614D02*X060266Y091614D01*X060312Y091568D01*
X060312Y091523D01*X060266Y091477D01*X060221Y091477D01*X060175Y091523D01*
X060175Y091568D01*X060221Y091659D01*X060266Y091705D01*X060403Y091735D01*
X060591Y091735D01*X060728Y091705D01*X060773Y091659D01*X060825Y091568D01*
X060825Y091477D01*X060773Y091402D01*X060637Y091311D01*X060403Y091220D01*
X060312Y091174D01*X060221Y091083D01*X060175Y090962D01*X060175Y090826D01*
X060728Y091659D02*X060773Y091568D01*X060773Y091477D01*X060728Y091402D01*
X060591Y091735D02*X060682Y091705D01*X060728Y091568D01*X060728Y091477D01*
X060682Y091402D01*X060591Y091311D01*X060403Y091220D01*X060175Y090917D02*
X060221Y090962D01*X060312Y090962D01*X060539Y090917D01*X060728Y090917D01*
X060825Y090962D01*X060312Y090962D02*X060539Y090871D01*X060728Y090871D01*
X060773Y090917D01*X060312Y090962D02*X060539Y090826D01*X060728Y090826D01*
X060773Y090871D01*X060825Y090962D01*X060825Y091038D01*X061448Y091735D02*
X061312Y091705D01*X061221Y091568D01*X061175Y091356D01*X061175Y091220D01*
X061221Y091008D01*X061312Y090871D01*X061448Y090826D01*X061546Y090826D01*
X061682Y090871D01*X061773Y091008D01*X061825Y091220D01*X061825Y091356D01*
X061773Y091568D01*X061682Y091705D01*X061546Y091735D01*X061448Y091735D01*
X061312Y091659D02*X061266Y091568D01*X061221Y091402D01*X061221Y091174D01*
X061266Y091008D01*X061312Y090917D01*X061682Y090917D02*X061728Y091008D01*
X061773Y091174D01*X061773Y091402D01*X061728Y091568D01*X061682Y091659D01*
X061448Y091735D02*X061357Y091705D01*X061312Y091614D01*X061266Y091402D01*
X061266Y091174D01*X061312Y090962D01*X061357Y090871D01*X061448Y090826D01*
X061546Y090826D02*X061637Y090871D01*X061682Y090962D01*X061728Y091174D01*
X061728Y091402D01*X061682Y091614D01*X061637Y091705D01*X061546Y091735D01*
X062468Y091659D02*X062468Y090826D01*X062494Y091659D02*X062494Y090871D01*
X062513Y091735D02*X062513Y090826D01*X062513Y091735D02*X062448Y091614D01*
X062409Y091568D01*X062390Y090826D02*X062598Y090826D01*X062468Y090871D02*
X062429Y090826D01*X062468Y090917D02*X062448Y090826D01*X062513Y090917D02*
X062533Y090826D01*X062513Y090871D02*X062552Y090826D01*X063682Y091614D02*
X063682Y091568D01*X063728Y091568D01*X063728Y091614D01*X063682Y091614D01*
X063728Y091659D02*X063682Y091659D01*X063637Y091614D01*X063637Y091568D01*
X063682Y091523D01*X063728Y091523D01*X063773Y091568D01*X063773Y091614D01*
X063728Y091705D01*X063637Y091735D01*X063500Y091735D01*X063357Y091705D01*
X063266Y091614D01*X063221Y091523D01*X063175Y091356D01*X063175Y091083D01*
X063221Y090962D01*X063312Y090871D01*X063448Y090826D01*X063546Y090826D01*
X063682Y090871D01*X063773Y090962D01*X063825Y091083D01*X063825Y091129D01*
X063773Y091265D01*X063682Y091356D01*X063546Y091402D01*X063448Y091402D01*
X063357Y091356D01*X063312Y091311D01*X063266Y091220D01*X063312Y091614D02*
X063266Y091523D01*X063221Y091356D01*X063221Y091083D01*X063266Y090962D01*
X063312Y090917D01*X063728Y090962D02*X063773Y091038D01*X063773Y091174D01*
X063728Y091265D01*X063500Y091735D02*X063403Y091705D01*X063357Y091659D01*
X063312Y091568D01*X063266Y091402D01*X063266Y091083D01*X063312Y090962D01*
X063357Y090871D01*X063448Y090826D01*X063546Y090826D02*X063637Y090871D01*
X063682Y090917D01*X063728Y091038D01*X063728Y091174D01*X063682Y091311D01*
X063637Y091356D01*X063546Y091402D01*X064175Y091265D02*X064825Y091265D01*
X064825Y091220D01*X064175Y091265D02*X064175Y091220D01*X064825Y091220D01*
X065468Y091659D02*X065468Y090826D01*X065494Y091659D02*X065494Y090871D01*
X065513Y091735D02*X065513Y090826D01*X065513Y091735D02*X065448Y091614D01*
X065409Y091568D01*X065390Y090826D02*X065598Y090826D01*X065468Y090871D02*
X065429Y090826D01*X065468Y090917D02*X065448Y090826D01*X065513Y090917D02*
X065533Y090826D01*X065513Y090871D02*X065552Y090826D01*X066468Y091659D02*
X066468Y090826D01*X066494Y091659D02*X066494Y090871D01*X066513Y091735D02*
X066513Y090826D01*X066513Y091735D02*X066448Y091614D01*X066409Y091568D01*
X066390Y090826D02*X066598Y090826D01*X066468Y090871D02*X066429Y090826D01*
X066468Y090917D02*X066448Y090826D01*X066513Y090917D02*X066533Y090826D01*
X066513Y090871D02*X066552Y090826D01*X067175Y091265D02*X067825Y091265D01*
X067825Y091220D01*X067175Y091265D02*X067175Y091220D01*X067825Y091220D01*
X068448Y091735D02*X068312Y091705D01*X068221Y091568D01*X068175Y091356D01*
X068175Y091220D01*X068221Y091008D01*X068312Y090871D01*X068448Y090826D01*
X068546Y090826D01*X068682Y090871D01*X068773Y091008D01*X068825Y091220D01*
X068825Y091356D01*X068773Y091568D01*X068682Y091705D01*X068546Y091735D01*
X068448Y091735D01*X068312Y091659D02*X068266Y091568D01*X068221Y091402D01*
X068221Y091174D01*X068266Y091008D01*X068312Y090917D01*X068682Y090917D02*
X068728Y091008D01*X068773Y091174D01*X068773Y091402D01*X068728Y091568D01*
X068682Y091659D01*X068448Y091735D02*X068357Y091705D01*X068312Y091614D01*
X068266Y091402D01*X068266Y091174D01*X068312Y090962D01*X068357Y090871D01*
X068448Y090826D01*X068546Y090826D02*X068637Y090871D01*X068682Y090962D01*
X068728Y091174D01*X068728Y091402D01*X068682Y091614D01*X068637Y091705D01*
X068546Y091735D01*X069468Y091659D02*X069468Y090826D01*X069494Y091659D02*
X069494Y090871D01*X069513Y091735D02*X069513Y090826D01*X069513Y091735D02*
X069448Y091614D01*X069409Y091568D01*X069390Y090826D02*X069598Y090826D01*
X069468Y090871D02*X069429Y090826D01*X069468Y090917D02*X069448Y090826D01*
X069513Y090917D02*X069533Y090826D01*X069513Y090871D02*X069552Y090826D01*
X063286Y094235D02*X063286Y093326D01*X063325Y094205D02*X063325Y093371D01*
X063364Y094235D02*X063364Y093326D01*X063175Y094235D02*X063552Y094235D01*
X063669Y094205D01*X063747Y094114D01*X063786Y094023D01*X063825Y093902D01*
X063825Y093674D01*X063786Y093538D01*X063747Y093462D01*X063669Y093371D01*
X063552Y093326D01*X063175Y093326D01*X063708Y094114D02*X063747Y094023D01*
X063786Y093902D01*X063786Y093674D01*X063747Y093538D01*X063708Y093462D01*
X063552Y094235D02*X063630Y094205D01*X063708Y094068D01*X063747Y093902D01*
X063747Y093674D01*X063708Y093508D01*X063630Y093371D01*X063552Y093326D01*
X063208Y094235D02*X063286Y094205D01*X063247Y094235D02*X063286Y094159D01*
X063403Y094235D02*X063364Y094159D01*X063442Y094235D02*X063364Y094205D01*
X063286Y093371D02*X063208Y093326D01*X063286Y093417D02*X063247Y093326D01*
X063364Y093417D02*X063403Y093326D01*X063364Y093371D02*X063442Y093326D01*
X064500Y094235D02*X064247Y093371D01*X064461Y094114D02*X064676Y093326D01*
X064500Y094114D02*X064715Y093326D01*X064500Y094235D02*X064747Y093326D01*
X064318Y093583D02*X064643Y093583D01*X064175Y093326D02*X064390Y093326D01*
X064572Y093326D02*X064825Y093326D01*X064247Y093371D02*X064207Y093326D01*
X064247Y093371D02*X064318Y093326D01*X064676Y093371D02*X064604Y093326D01*
X064676Y093417D02*X064643Y093326D01*X064715Y093417D02*X064786Y093326D01*
X065175Y094235D02*X065175Y093977D01*X065454Y094235D02*X065454Y093326D01*
X065500Y094205D02*X065500Y093371D01*X065539Y094235D02*X065539Y093326D01*
X065825Y094235D02*X065825Y093977D01*X065175Y094235D02*X065825Y094235D01*
X065338Y093326D02*X065656Y093326D01*X065214Y094235D02*X065175Y093977D01*
X065253Y094235D02*X065175Y094114D01*X065292Y094235D02*X065175Y094159D01*
X065376Y094235D02*X065175Y094205D01*X065617Y094235D02*X065825Y094205D01*
X065702Y094235D02*X065825Y094159D01*X065741Y094235D02*X065825Y094114D01*
X065780Y094235D02*X065825Y093977D01*X065454Y093371D02*X065376Y093326D01*
X065454Y093417D02*X065415Y093326D01*X065539Y093417D02*X065578Y093326D01*
X065539Y093371D02*X065617Y093326D01*X066292Y094235D02*X066292Y093326D01*
X066331Y094205D02*X066331Y093371D01*X066377Y094235D02*X066377Y093326D01*
X066175Y094235D02*X066825Y094235D01*X066825Y093977D01*X066377Y093811D02*
X066617Y093811D01*X066617Y093977D02*X066617Y093629D01*X066175Y093326D02*
X066825Y093326D01*X066825Y093583D01*X066214Y094235D02*X066292Y094205D01*
X066253Y094235D02*X066292Y094159D01*X066416Y094235D02*X066377Y094159D01*
X066455Y094235D02*X066377Y094205D01*X066617Y094235D02*X066825Y094205D01*
X066702Y094235D02*X066825Y094159D01*X066741Y094235D02*X066825Y094114D01*
X066780Y094235D02*X066825Y093977D01*X066617Y093977D02*X066578Y093811D01*
X066617Y093629D01*X066617Y093902D02*X066539Y093811D01*X066617Y093720D01*
X066617Y093856D02*X066455Y093811D01*X066617Y093765D01*X066292Y093371D02*
X066214Y093326D01*X066292Y093417D02*X066253Y093326D01*X066377Y093417D02*
X066416Y093326D01*X066377Y093371D02*X066455Y093326D01*X066617Y093326D02*
X066825Y093371D01*X066702Y093326D02*X066825Y093417D01*X066741Y093326D02*
X066825Y093462D01*X066780Y093326D02*X066825Y093583D01*X045305Y094235D02*
X045305Y093326D01*X045344Y094205D02*X045344Y093371D01*X045390Y094235D02*
X045390Y093326D01*X045175Y094235D02*X045520Y094235D01*X045175Y093326D02*
X045825Y093326D01*X045825Y093583D01*X045214Y094235D02*X045305Y094205D01*
X045260Y094235D02*X045305Y094159D01*X045435Y094235D02*X045390Y094159D01*
X045474Y094235D02*X045390Y094205D01*X045305Y093371D02*X045214Y093326D01*
X045305Y093417D02*X045260Y093326D01*X045390Y093417D02*X045435Y093326D01*
X045390Y093371D02*X045474Y093326D01*X045604Y093326D02*X045825Y093371D01*
X045689Y093326D02*X045825Y093417D01*X045734Y093326D02*X045825Y093462D01*
X045780Y093326D02*X045825Y093583D01*X046500Y094235D02*X046247Y093371D01*
X046461Y094114D02*X046676Y093326D01*X046500Y094114D02*X046715Y093326D01*
X046500Y094235D02*X046747Y093326D01*X046318Y093583D02*X046643Y093583D01*
X046175Y093326D02*X046390Y093326D01*X046572Y093326D02*X046825Y093326D01*
X046247Y093371D02*X046208Y093326D01*X046247Y093371D02*X046318Y093326D01*
X046676Y093371D02*X046604Y093326D01*X046676Y093417D02*X046643Y093326D01*
X046715Y093417D02*X046786Y093326D01*X047240Y094235D02*X047461Y093765D01*
X047461Y093326D01*X047273Y094235D02*X047494Y093765D01*X047494Y093371D01*
X047299Y094235D02*X047533Y093765D01*X047533Y093326D01*X047721Y094205D02*
X047533Y093765D01*X047175Y094235D02*X047403Y094235D01*X047624Y094235D02*
X047825Y094235D01*X047370Y093326D02*X047624Y093326D01*X047208Y094235D02*
X047273Y094205D01*X047370Y094235D02*X047299Y094205D01*X047663Y094235D02*
X047721Y094205D01*X047786Y094235D02*X047721Y094205D01*X047461Y093371D02*
X047403Y093326D01*X047461Y093417D02*X047429Y093326D01*X047533Y093417D02*
X047559Y093326D01*X047533Y093371D02*X047591Y093326D01*X048292Y094235D02*
X048292Y093326D01*X048331Y094205D02*X048331Y093371D01*X048377Y094235D02*
X048377Y093326D01*X048175Y094235D02*X048825Y094235D01*X048825Y093977D01*
X048377Y093811D02*X048617Y093811D01*X048617Y093977D02*X048617Y093629D01*
X048175Y093326D02*X048825Y093326D01*X048825Y093583D01*X048214Y094235D02*
X048292Y094205D01*X048253Y094235D02*X048292Y094159D01*X048416Y094235D02*
X048377Y094159D01*X048455Y094235D02*X048377Y094205D01*X048617Y094235D02*
X048825Y094205D01*X048702Y094235D02*X048825Y094159D01*X048741Y094235D02*
X048825Y094114D01*X048780Y094235D02*X048825Y093977D01*X048617Y093977D02*
X048578Y093811D01*X048617Y093629D01*X048617Y093902D02*X048539Y093811D01*
X048617Y093720D01*X048617Y093856D02*X048455Y093811D01*X048617Y093765D01*
X048292Y093371D02*X048214Y093326D01*X048292Y093417D02*X048253Y093326D01*
X048377Y093417D02*X048416Y093326D01*X048377Y093371D02*X048455Y093326D01*
X048617Y093326D02*X048825Y093371D01*X048702Y093326D02*X048825Y093417D01*
X048741Y093326D02*X048825Y093462D01*X048780Y093326D02*X048825Y093583D01*
X049279Y094235D02*X049279Y093326D01*X049318Y094205D02*X049318Y093371D01*
X049351Y094235D02*X049351Y093326D01*X049175Y094235D02*X049604Y094235D01*
X049715Y094205D01*X049747Y094159D01*X049786Y094068D01*X049786Y093977D01*
X049747Y093902D01*X049715Y093856D01*X049604Y093811D01*X049351Y093811D01*
X049715Y094159D02*X049747Y094068D01*X049747Y093977D01*X049715Y093902D01*
X049604Y094235D02*X049676Y094205D01*X049715Y094114D01*X049715Y093932D01*
X049676Y093856D01*X049604Y093811D01*X049494Y093811D02*X049572Y093765D01*
X049604Y093674D01*X049676Y093417D01*X049715Y093326D01*X049786Y093326D01*
X049825Y093417D01*X049825Y093508D01*X049676Y093508D02*X049715Y093417D01*
X049747Y093371D01*X049786Y093371D01*X049572Y093765D02*X049604Y093720D01*
X049715Y093462D01*X049747Y093417D01*X049786Y093417D01*X049825Y093462D01*
X049175Y093326D02*X049461Y093326D01*X049208Y094235D02*X049279Y094205D01*
X049247Y094235D02*X049279Y094159D01*X049390Y094235D02*X049351Y094159D01*
X049422Y094235D02*X049351Y094205D01*X049279Y093371D02*X049208Y093326D01*
X049279Y093417D02*X049247Y093326D01*X049351Y093417D02*X049390Y093326D01*
X049351Y093371D02*X049422Y093326D01*X051266Y094235D02*X051266Y093371D01*
X051266Y094235D02*X051721Y093326D01*X051305Y094235D02*X051689Y093462D01*
X051331Y094235D02*X051721Y093462D01*X051721Y094205D02*X051721Y093326D01*
X051175Y094235D02*X051331Y094235D01*X051630Y094235D02*X051825Y094235D01*
X051175Y093326D02*X051364Y093326D01*X051201Y094235D02*X051266Y094205D01*
X051663Y094235D02*X051721Y094205D01*X051793Y094235D02*X051721Y094205D01*
X051266Y093371D02*X051201Y093326D01*X051266Y093371D02*X051331Y093326D01*
X052500Y094235D02*X052247Y093371D01*X052461Y094114D02*X052676Y093326D01*
X052500Y094114D02*X052715Y093326D01*X052500Y094235D02*X052747Y093326D01*
X052318Y093583D02*X052643Y093583D01*X052175Y093326D02*X052390Y093326D01*
X052572Y093326D02*X052825Y093326D01*X052247Y093371D02*X052208Y093326D01*
X052247Y093371D02*X052318Y093326D01*X052676Y093371D02*X052604Y093326D01*
X052676Y093417D02*X052643Y093326D01*X052715Y093417D02*X052786Y093326D01*
X053260Y094235D02*X053260Y093371D01*X053260Y094235D02*X053468Y093326D01*
X053292Y094235D02*X053468Y093462D01*X053318Y094235D02*X053494Y093462D01*
X053676Y094235D02*X053468Y093326D01*X053676Y094235D02*X053676Y093326D01*
X053702Y094205D02*X053702Y093371D01*X053734Y094235D02*X053734Y093326D01*
X053175Y094235D02*X053318Y094235D01*X053676Y094235D02*X053825Y094235D01*
X053175Y093326D02*X053351Y093326D01*X053585Y093326D02*X053825Y093326D01*
X053201Y094235D02*X053260Y094205D01*X053760Y094235D02*X053734Y094159D01*
X053793Y094235D02*X053734Y094205D01*X053260Y093371D02*X053201Y093326D01*
X053260Y093371D02*X053318Y093326D01*X053676Y093371D02*X053617Y093326D01*
X053676Y093417D02*X053643Y093326D01*X053734Y093417D02*X053760Y093326D01*
X053734Y093371D02*X053793Y093326D01*X054292Y094235D02*X054292Y093326D01*
X054331Y094205D02*X054331Y093371D01*X054377Y094235D02*X054377Y093326D01*
X054175Y094235D02*X054825Y094235D01*X054825Y093977D01*X054377Y093811D02*
X054617Y093811D01*X054617Y093977D02*X054617Y093629D01*X054175Y093326D02*
X054825Y093326D01*X054825Y093583D01*X054214Y094235D02*X054292Y094205D01*
X054253Y094235D02*X054292Y094159D01*X054416Y094235D02*X054377Y094159D01*
X054455Y094235D02*X054377Y094205D01*X054617Y094235D02*X054825Y094205D01*
X054702Y094235D02*X054825Y094159D01*X054741Y094235D02*X054825Y094114D01*
X054780Y094235D02*X054825Y093977D01*X054617Y093977D02*X054578Y093811D01*
X054617Y093629D01*X054617Y093902D02*X054539Y093811D01*X054617Y093720D01*
X054617Y093856D02*X054455Y093811D01*X054617Y093765D01*X054292Y093371D02*
X054214Y093326D01*X054292Y093417D02*X054253Y093326D01*X054377Y093417D02*
X054416Y093326D01*X054377Y093371D02*X054455Y093326D01*X054617Y093326D02*
X054825Y093371D01*X054702Y093326D02*X054825Y093417D01*X054741Y093326D02*
X054825Y093462D01*X054780Y093326D02*X054825Y093583D01*X027760Y094235D02*
X027760Y093371D01*X027760Y094235D02*X027968Y093326D01*X027792Y094235D02*
X027968Y093462D01*X027818Y094235D02*X027994Y093462D01*X028176Y094235D02*
X027968Y093326D01*X028176Y094235D02*X028176Y093326D01*X028202Y094205D02*
X028202Y093371D01*X028234Y094235D02*X028234Y093326D01*X027675Y094235D02*
X027818Y094235D01*X028176Y094235D02*X028325Y094235D01*X027675Y093326D02*
X027851Y093326D01*X028085Y093326D02*X028325Y093326D01*X027701Y094235D02*
X027760Y094205D01*X028260Y094235D02*X028234Y094159D01*X028293Y094235D02*
X028234Y094205D01*X027760Y093371D02*X027701Y093326D01*X027760Y093371D02*
X027818Y093326D01*X028176Y093371D02*X028117Y093326D01*X028176Y093417D02*
X028143Y093326D01*X028234Y093417D02*X028260Y093326D01*X028234Y093371D02*
X028293Y093326D01*X028955Y094235D02*X028838Y094205D01*X028753Y094114D01*
X028714Y094023D01*X028675Y093856D01*X028675Y093720D01*X028714Y093538D01*
X028753Y093462D01*X028838Y093371D01*X028955Y093326D01*X029039Y093326D01*
X029163Y093371D01*X029241Y093462D01*X029280Y093538D01*X029325Y093720D01*
X029325Y093856D01*X029280Y094023D01*X029241Y094114D01*X029163Y094205D01*
X029039Y094235D01*X028955Y094235D01*X028792Y094114D02*X028753Y094023D01*
X028714Y093902D01*X028714Y093674D01*X028753Y093538D01*X028792Y093462D01*
X029202Y093462D02*X029241Y093538D01*X029280Y093674D01*X029280Y093902D01*
X029241Y094023D01*X029202Y094114D01*X028955Y094235D02*X028877Y094205D01*
X028792Y094068D01*X028753Y093902D01*X028753Y093674D01*X028792Y093508D01*
X028877Y093371D01*X028955Y093326D01*X029039Y093326D02*X029117Y093371D01*
X029202Y093508D01*X029241Y093674D01*X029241Y093902D01*X029202Y094068D01*
X029117Y094205D01*X029039Y094235D01*X029786Y094235D02*X029786Y093326D01*
X029825Y094205D02*X029825Y093371D01*X029864Y094235D02*X029864Y093326D01*
X029675Y094235D02*X030052Y094235D01*X030169Y094205D01*X030247Y094114D01*
X030286Y094023D01*X030325Y093902D01*X030325Y093674D01*X030286Y093538D01*
X030247Y093462D01*X030169Y093371D01*X030052Y093326D01*X029675Y093326D01*
X030208Y094114D02*X030247Y094023D01*X030286Y093902D01*X030286Y093674D01*
X030247Y093538D01*X030208Y093462D01*X030052Y094235D02*X030130Y094205D01*
X030208Y094068D01*X030247Y093902D01*X030247Y093674D01*X030208Y093508D01*
X030130Y093371D01*X030052Y093326D01*X029708Y094235D02*X029786Y094205D01*
X029747Y094235D02*X029786Y094159D01*X029903Y094235D02*X029864Y094159D01*
X029942Y094235D02*X029864Y094205D01*X029786Y093371D02*X029708Y093326D01*
X029786Y093417D02*X029747Y093326D01*X029864Y093417D02*X029903Y093326D01*
X029864Y093371D02*X029942Y093326D01*X030792Y094235D02*X030792Y093326D01*
X030831Y094205D02*X030831Y093371D01*X030877Y094235D02*X030877Y093326D01*
X030675Y094235D02*X031325Y094235D01*X031325Y093977D01*X030877Y093811D02*
X031117Y093811D01*X031117Y093977D02*X031117Y093629D01*X030675Y093326D02*
X031325Y093326D01*X031325Y093583D01*X030714Y094235D02*X030792Y094205D01*
X030753Y094235D02*X030792Y094159D01*X030916Y094235D02*X030877Y094159D01*
X030955Y094235D02*X030877Y094205D01*X031117Y094235D02*X031325Y094205D01*
X031202Y094235D02*X031325Y094159D01*X031241Y094235D02*X031325Y094114D01*
X031280Y094235D02*X031325Y093977D01*X031117Y093977D02*X031078Y093811D01*
X031117Y093629D01*X031117Y093902D02*X031039Y093811D01*X031117Y093720D01*
X031117Y093856D02*X030955Y093811D01*X031117Y093765D01*X030792Y093371D02*
X030714Y093326D01*X030792Y093417D02*X030753Y093326D01*X030877Y093417D02*
X030916Y093326D01*X030877Y093371D02*X030955Y093326D01*X031117Y093326D02*
X031325Y093371D01*X031202Y093326D02*X031325Y093417D01*X031241Y093326D02*
X031325Y093462D01*X031280Y093326D02*X031325Y093583D01*X031805Y094235D02*
X031805Y093326D01*X031844Y094205D02*X031844Y093371D01*X031890Y094235D02*
X031890Y093326D01*X031675Y094235D02*X032020Y094235D01*X031675Y093326D02*
X032325Y093326D01*X032325Y093583D01*X031714Y094235D02*X031805Y094205D01*
X031760Y094235D02*X031805Y094159D01*X031935Y094235D02*X031890Y094159D01*
X031974Y094235D02*X031890Y094205D01*X031805Y093371D02*X031714Y093326D01*
X031805Y093417D02*X031760Y093326D01*X031890Y093417D02*X031935Y093326D01*
X031890Y093371D02*X031974Y093326D01*X032104Y093326D02*X032325Y093371D01*
X032188Y093326D02*X032325Y093417D01*X032234Y093326D02*X032325Y093462D01*
X032280Y093326D02*X032325Y093583D01*X033766Y094235D02*X033766Y093371D01*
X033766Y094235D02*X034221Y093326D01*X033805Y094235D02*X034189Y093462D01*
X033831Y094235D02*X034221Y093462D01*X034221Y094205D02*X034221Y093326D01*
X033675Y094235D02*X033831Y094235D01*X034130Y094235D02*X034325Y094235D01*
X033675Y093326D02*X033864Y093326D01*X033701Y094235D02*X033766Y094205D01*
X034163Y094235D02*X034221Y094205D01*X034293Y094235D02*X034221Y094205D01*
X033766Y093371D02*X033701Y093326D01*X033766Y093371D02*X033831Y093326D01*
X035000Y094235D02*X034747Y093371D01*X034961Y094114D02*X035176Y093326D01*
X035000Y094114D02*X035215Y093326D01*X035000Y094235D02*X035247Y093326D01*
X034818Y093583D02*X035143Y093583D01*X034675Y093326D02*X034890Y093326D01*
X035072Y093326D02*X035325Y093326D01*X034747Y093371D02*X034708Y093326D01*
X034747Y093371D02*X034818Y093326D01*X035176Y093371D02*X035104Y093326D01*
X035176Y093417D02*X035143Y093326D01*X035215Y093417D02*X035286Y093326D01*
X035760Y094235D02*X035760Y093371D01*X035760Y094235D02*X035968Y093326D01*
X035792Y094235D02*X035968Y093462D01*X035818Y094235D02*X035994Y093462D01*
X036176Y094235D02*X035968Y093326D01*X036176Y094235D02*X036176Y093326D01*
X036202Y094205D02*X036202Y093371D01*X036234Y094235D02*X036234Y093326D01*
X035675Y094235D02*X035818Y094235D01*X036176Y094235D02*X036325Y094235D01*
X035675Y093326D02*X035851Y093326D01*X036085Y093326D02*X036325Y093326D01*
X035701Y094235D02*X035760Y094205D01*X036260Y094235D02*X036234Y094159D01*
X036293Y094235D02*X036234Y094205D01*X035760Y093371D02*X035701Y093326D01*
X035760Y093371D02*X035818Y093326D01*X036176Y093371D02*X036117Y093326D01*
X036176Y093417D02*X036143Y093326D01*X036234Y093417D02*X036260Y093326D01*
X036234Y093371D02*X036293Y093326D01*X036792Y094235D02*X036792Y093326D01*
X036831Y094205D02*X036831Y093371D01*X036877Y094235D02*X036877Y093326D01*
X036675Y094235D02*X037325Y094235D01*X037325Y093977D01*X036877Y093811D02*
X037117Y093811D01*X037117Y093977D02*X037117Y093629D01*X036675Y093326D02*
X037325Y093326D01*X037325Y093583D01*X036714Y094235D02*X036792Y094205D01*
X036753Y094235D02*X036792Y094159D01*X036916Y094235D02*X036877Y094159D01*
X036955Y094235D02*X036877Y094205D01*X037117Y094235D02*X037325Y094205D01*
X037202Y094235D02*X037325Y094159D01*X037241Y094235D02*X037325Y094114D01*
X037280Y094235D02*X037325Y093977D01*X037117Y093977D02*X037078Y093811D01*
X037117Y093629D01*X037117Y093902D02*X037039Y093811D01*X037117Y093720D01*
X037117Y093856D02*X036955Y093811D01*X037117Y093765D01*X036792Y093371D02*
X036714Y093326D01*X036792Y093417D02*X036753Y093326D01*X036877Y093417D02*
X036916Y093326D01*X036877Y093371D02*X036955Y093326D01*X037117Y093326D02*
X037325Y093371D01*X037202Y093326D02*X037325Y093417D01*X037241Y093326D02*
X037325Y093462D01*X037280Y093326D02*X037325Y093583D01*X031260Y091735D02*
X031377Y090826D01*X031292Y091735D02*X031377Y091038D01*X031377Y090826D01*
X031318Y091735D02*X031409Y091038D01*X031500Y091735D02*X031409Y091038D01*
X031377Y090826D01*X031500Y091735D02*X031617Y090826D01*X031526Y091735D02*
X031617Y091038D01*X031617Y090826D01*X031559Y091735D02*X031643Y091038D01*
X031734Y091705D02*X031643Y091038D01*X031617Y090826D01*X031175Y091735D02*
X031409Y091735D01*X031500Y091735D02*X031559Y091735D01*X031643Y091735D02*
X031825Y091735D01*X031201Y091735D02*X031292Y091705D01*X031234Y091735D02*
X031292Y091659D01*X031351Y091735D02*X031318Y091659D01*X031377Y091735D02*
X031318Y091705D01*X031676Y091735D02*X031734Y091705D01*X031793Y091735D02*
X031734Y091705D01*X032773Y091614D02*X032825Y091735D01*X032825Y091477D01*
X032773Y091614D01*X032682Y091705D01*X032539Y091735D01*X032403Y091735D01*
X032266Y091705D01*X032175Y091614D01*X032175Y091477D01*X032221Y091402D01*
X032357Y091311D01*X032636Y091220D01*X032728Y091174D01*X032773Y091083D01*
X032773Y090962D01*X032728Y090871D01*X032221Y091477D02*X032266Y091402D01*
X032357Y091356D01*X032636Y091265D01*X032728Y091220D01*X032773Y091129D01*
X032266Y091705D02*X032221Y091614D01*X032221Y091523D01*X032266Y091432D01*
X032357Y091402D01*X032636Y091311D01*X032773Y091220D01*X032825Y091129D01*
X032825Y091008D01*X032773Y090917D01*X032728Y090871D01*X032591Y090826D01*
X032448Y090826D01*X032312Y090871D01*X032221Y090962D01*X032175Y091083D01*
X032175Y090826D01*X032221Y090962D01*X033260Y091735D02*X033260Y090871D01*
X033260Y091735D02*X033468Y090826D01*X033292Y091735D02*X033468Y090962D01*
X033318Y091735D02*X033494Y090962D01*X033676Y091735D02*X033468Y090826D01*
X033676Y091735D02*X033676Y090826D01*X033702Y091705D02*X033702Y090871D01*
X033734Y091735D02*X033734Y090826D01*X033175Y091735D02*X033318Y091735D01*
X033676Y091735D02*X033825Y091735D01*X033175Y090826D02*X033351Y090826D01*
X033585Y090826D02*X033825Y090826D01*X033201Y091735D02*X033260Y091705D01*
X033760Y091735D02*X033734Y091659D01*X033793Y091735D02*X033734Y091705D01*
X033260Y090871D02*X033201Y090826D01*X033260Y090871D02*X033318Y090826D01*
X033676Y090871D02*X033617Y090826D01*X033676Y090917D02*X033643Y090826D01*
X033734Y090917D02*X033760Y090826D01*X033734Y090871D02*X033793Y090826D01*
X048273Y091614D02*X048325Y091735D01*X048325Y091477D01*X048273Y091614D01*
X048182Y091705D01*X048039Y091735D01*X047903Y091735D01*X047766Y091705D01*
X047675Y091614D01*X047675Y091477D01*X047721Y091402D01*X047857Y091311D01*
X048137Y091220D01*X048228Y091174D01*X048273Y091083D01*X048273Y090962D01*
X048228Y090871D01*X047721Y091477D02*X047766Y091402D01*X047857Y091356D01*
X048137Y091265D01*X048228Y091220D01*X048273Y091129D01*X047766Y091705D02*
X047721Y091614D01*X047721Y091523D01*X047766Y091432D01*X047857Y091402D01*
X048137Y091311D01*X048273Y091220D01*X048325Y091129D01*X048325Y091008D01*
X048273Y090917D01*X048228Y090871D01*X048091Y090826D01*X047948Y090826D01*
X047812Y090871D01*X047721Y090962D01*X047675Y091083D01*X047675Y090826D01*
X047721Y090962D01*X048974Y091735D02*X048974Y090826D01*X048994Y091705D02*
X048994Y090871D01*X049020Y091735D02*X049020Y090826D01*X048916Y091735D02*
X049078Y091735D01*X048916Y090826D02*X049078Y090826D01*X048935Y091735D02*
X048974Y091705D01*X048955Y091735D02*X048974Y091659D01*X049039Y091735D02*
X049020Y091659D01*X049059Y091735D02*X049020Y091705D01*X048974Y090871D02*
X048935Y090826D01*X048974Y090917D02*X048955Y090826D01*X049020Y090917D02*
X049039Y090826D01*X049020Y090871D02*X049059Y090826D01*X049805Y091735D02*
X049805Y090826D01*X049844Y091705D02*X049844Y090871D01*X049890Y091735D02*
X049890Y090826D01*X049675Y091735D02*X050020Y091735D01*X049675Y090826D02*
X050325Y090826D01*X050325Y091083D01*X049714Y091735D02*X049805Y091705D01*
X049760Y091735D02*X049805Y091659D01*X049935Y091735D02*X049890Y091659D01*
X049974Y091735D02*X049890Y091705D01*X049805Y090871D02*X049714Y090826D01*
X049805Y090917D02*X049760Y090826D01*X049890Y090917D02*X049935Y090826D01*
X049890Y090871D02*X049974Y090826D01*X050104Y090826D02*X050325Y090871D01*
X050189Y090826D02*X050325Y090917D01*X050234Y090826D02*X050325Y090962D01*
X050280Y090826D02*X050325Y091083D01*X050773Y091735D02*X050773Y090826D01*
X050812Y091705D02*X050812Y090871D01*X050844Y091735D02*X050844Y090826D01*
X051221Y091705D02*X050844Y091220D01*X050948Y091311D02*X051182Y090826D01*
X050981Y091311D02*X051221Y090826D01*X050981Y091402D02*X051254Y090826D01*
X050675Y091735D02*X050948Y091735D01*X051117Y091735D02*X051325Y091735D01*
X050675Y090826D02*X050948Y090826D01*X051085Y090826D02*X051325Y090826D01*
X050708Y091735D02*X050773Y091705D01*X050740Y091735D02*X050773Y091659D01*
X050877Y091735D02*X050844Y091659D01*X050909Y091735D02*X050844Y091705D01*
X051182Y091735D02*X051221Y091705D01*X051286Y091735D02*X051221Y091705D01*
X050773Y090871D02*X050708Y090826D01*X050773Y090917D02*X050740Y090826D01*
X050844Y090917D02*X050877Y090826D01*X050844Y090871D02*X050909Y090826D01*
X051182Y090917D02*X051117Y090826D01*X051182Y090917D02*X051286Y090826D01*
X051721Y091568D02*X051721Y091523D01*X051766Y091523D01*X051766Y091568D01*
X051721Y091568D01*X051721Y091614D02*X051766Y091614D01*X051812Y091568D01*
X051812Y091523D01*X051766Y091477D01*X051721Y091477D01*X051675Y091523D01*
X051675Y091568D01*X051721Y091659D01*X051766Y091705D01*X051903Y091735D01*
X052091Y091735D01*X052228Y091705D01*X052273Y091659D01*X052325Y091568D01*
X052325Y091477D01*X052273Y091402D01*X052137Y091311D01*X051903Y091220D01*
X051812Y091174D01*X051721Y091083D01*X051675Y090962D01*X051675Y090826D01*
X052228Y091659D02*X052273Y091568D01*X052273Y091477D01*X052228Y091402D01*
X052091Y091735D02*X052182Y091705D01*X052228Y091568D01*X052228Y091477D01*
X052182Y091402D01*X052091Y091311D01*X051903Y091220D01*X051675Y090917D02*
X051721Y090962D01*X051812Y090962D01*X052039Y090917D01*X052228Y090917D01*
X052325Y090962D01*X051812Y090962D02*X052039Y090871D01*X052228Y090871D01*
X052273Y090917D01*X051812Y090962D02*X052039Y090826D01*X052228Y090826D01*
X052273Y090871D01*X052325Y090962D01*X052325Y091038D01*X000000Y000000D02*D02*
G54D179*X043236Y025276D02*X043123Y024179D01*X043204Y025276D02*X043123Y024435D01*
X043123Y024179D01*X043179Y025276D02*X043091Y024435D01*X043003Y025276D02*
X043091Y024435D01*X043123Y024179D01*X043003Y025276D02*X042890Y024179D01*
X042978Y025276D02*X042890Y024435D01*X042890Y024179D01*X042947Y025276D02*
X042865Y024435D01*X042777Y025239D02*X042865Y024435D01*X042890Y024179D01*
X043317Y025276D02*X043091Y025276D01*X043003Y025276D02*X042947Y025276D01*
X042865Y025276D02*X042690Y025276D01*X043292Y025276D02*X043204Y025239D01*
X043261Y025276D02*X043204Y025184D01*X043148Y025276D02*X043179Y025184D01*
X043123Y025276D02*X043179Y025239D01*X042834Y025276D02*X042777Y025239D01*
X042721Y025276D02*X042777Y025239D01*X041774Y025130D02*X041724Y025276D01*
X041724Y024965D01*X041774Y025130D01*X041862Y025239D01*X042000Y025276D01*
X042132Y025276D01*X042264Y025239D01*X042352Y025130D01*X042352Y024965D01*
X042308Y024874D01*X042176Y024764D01*X041906Y024654D01*X041818Y024599D01*
X041774Y024490D01*X041774Y024343D01*X041818Y024233D01*X042308Y024965D02*
X042264Y024874D01*X042176Y024819D01*X041906Y024709D01*X041818Y024654D01*
X041774Y024544D01*X042264Y025239D02*X042308Y025130D01*X042308Y025020D01*
X042264Y024910D01*X042176Y024874D01*X041906Y024764D01*X041774Y024654D01*
X041724Y024544D01*X041724Y024398D01*X041774Y024288D01*X041818Y024233D01*
X041950Y024179D01*X042088Y024179D01*X042220Y024233D01*X042308Y024343D01*
X042352Y024490D01*X042352Y024179D01*X042308Y024343D01*X041304Y025276D02*
X041304Y024233D01*X041304Y025276D02*X041104Y024179D01*X041273Y025276D02*
X041104Y024343D01*X041248Y025276D02*X041079Y024343D01*X040903Y025276D02*
X041104Y024179D01*X040903Y025276D02*X040903Y024179D01*X040878Y025239D02*
X040878Y024233D01*X040846Y025276D02*X040846Y024179D01*X041386Y025276D02*
X041248Y025276D01*X040903Y025276D02*X040758Y025276D01*X041386Y024179D02*
X041217Y024179D01*X040991Y024179D02*X040758Y024179D01*X041361Y025276D02*
X041304Y025239D01*X040821Y025276D02*X040846Y025184D01*X040790Y025276D02*
X040846Y025239D01*X041304Y024233D02*X041361Y024179D01*X041304Y024233D02*
X041248Y024179D01*X040903Y024233D02*X040959Y024179D01*X040903Y024288D02*
X040934Y024179D01*X040846Y024288D02*X040821Y024179D01*X040846Y024233D02*
X040790Y024179D01*X039348Y025276D02*X039348Y024179D01*X039311Y025239D02*
X039311Y024233D01*X039273Y025276D02*X039273Y024179D01*X039455Y025276D02*
X039016Y025276D01*X038903Y025239D01*X038871Y025184D01*X038827Y025075D01*
X038827Y024965D01*X038871Y024874D01*X038903Y024819D01*X039016Y024764D01*
X038903Y025184D02*X038871Y025075D01*X038871Y024965D01*X038903Y024874D01*
X039016Y025276D02*X038940Y025239D01*X038903Y025130D01*X038903Y024910D01*
X038940Y024819D01*X039016Y024764D01*X039273Y024764D02*X039016Y024764D01*
X038903Y024709D01*X038871Y024654D01*X038827Y024544D01*X038827Y024398D01*
X038871Y024288D01*X038903Y024233D01*X039016Y024179D01*X039455Y024179D01*
X038903Y024654D02*X038871Y024544D01*X038871Y024398D01*X038903Y024288D01*
X039016Y024764D02*X038940Y024709D01*X038903Y024599D01*X038903Y024343D01*
X038940Y024233D01*X039016Y024179D01*X039424Y025276D02*X039348Y025239D01*
X039386Y025276D02*X039348Y025184D01*X039235Y025276D02*X039273Y025184D01*
X039198Y025276D02*X039273Y025239D01*X039348Y024233D02*X039424Y024179D01*
X039348Y024288D02*X039386Y024179D01*X039273Y024288D02*X039235Y024179D01*
X039273Y024233D02*X039198Y024179D01*X038226Y024910D02*X038358Y024874D01*
X038445Y024764D01*X038489Y024599D01*X038489Y024490D01*X038445Y024343D01*
X038358Y024233D01*X038226Y024179D01*X038132Y024179D01*X038000Y024233D01*
X037912Y024343D01*X037862Y024490D01*X037862Y024599D01*X037912Y024764D01*
X038000Y024874D01*X038132Y024910D01*X038226Y024910D01*X038401Y024764D02*
X038445Y024654D01*X038445Y024435D01*X038401Y024343D01*X037956Y024343D02*
X037912Y024435D01*X037912Y024654D01*X037956Y024764D01*X038226Y024910D02*
X038314Y024874D01*X038358Y024819D01*X038401Y024654D01*X038401Y024435D01*
X038358Y024288D01*X038314Y024233D01*X038226Y024179D01*X038132Y024179D02*
X038044Y024233D01*X038000Y024288D01*X037956Y024435D01*X037956Y024654D01*
X038000Y024819D01*X038044Y024874D01*X038132Y024910D01*X037442Y024764D02*
X037442Y024819D01*X037405Y024819D01*X037405Y024709D01*X037486Y024709D01*
X037486Y024819D01*X037442Y024874D01*X037361Y024910D01*X037191Y024910D01*
X037110Y024874D01*X037066Y024819D01*X037028Y024709D01*X037028Y024343D01*
X036984Y024233D01*X036940Y024179D01*X037110Y024819D02*X037066Y024709D01*
X037066Y024343D01*X037028Y024233D01*X037191Y024910D02*X037147Y024874D01*
X037110Y024764D01*X037110Y024343D01*X037066Y024233D01*X036940Y024179D01*
X036896Y024179D01*X037110Y024654D02*X037147Y024599D01*X037361Y024544D01*
X037486Y024490D01*X037524Y024398D01*X037524Y024343D01*X037486Y024233D01*
X037361Y024179D01*X037235Y024179D01*X037147Y024233D01*X037110Y024343D01*
X037442Y024490D02*X037486Y024398D01*X037486Y024343D01*X037442Y024233D01*
X037147Y024599D02*X037317Y024544D01*X037405Y024490D01*X037442Y024398D01*
X037442Y024343D01*X037405Y024233D01*X037361Y024179D01*X036420Y024910D02*
X036420Y024179D01*X036370Y024874D02*X036370Y024233D01*X036558Y024910D02*
X036320Y024910D01*X036320Y024179D01*X035981Y024819D02*X035981Y024874D01*
X036031Y024874D01*X036031Y024764D01*X035931Y024764D01*X035931Y024874D01*
X035981Y024910D01*X036081Y024910D01*X036175Y024874D01*X036269Y024764D01*
X036320Y024599D01*X036558Y024179D02*X036175Y024179D01*X036514Y024910D02*
X036420Y024874D01*X036464Y024910D02*X036420Y024819D01*X036420Y024233D02*
X036514Y024179D01*X036420Y024288D02*X036464Y024179D01*X036320Y024288D02*
X036269Y024179D01*X036320Y024233D02*X036226Y024179D01*X035166Y025276D02*
X035166Y024179D01*X034965Y024179D01*X035122Y025239D02*X035122Y024233D01*
X035279Y025276D02*X035084Y025276D01*X035084Y024179D01*X035166Y024764D02*
X035203Y024855D01*X035279Y024910D01*X035360Y024910D01*X035480Y024855D01*
X035555Y024764D01*X035593Y024599D01*X035593Y024490D01*X035555Y024343D01*
X035480Y024233D01*X035360Y024179D01*X035279Y024179D01*X035203Y024233D01*
X035166Y024343D01*X035517Y024764D02*X035555Y024654D01*X035555Y024435D01*
X035517Y024343D01*X035360Y024910D02*X035436Y024855D01*X035480Y024819D01*
X035517Y024654D01*X035517Y024435D01*X035480Y024288D01*X035436Y024233D01*
X035360Y024179D01*X035241Y025276D02*X035166Y025239D01*X035203Y025276D02*
X035166Y025184D01*X035084Y024288D02*X035047Y024179D01*X035084Y024233D02*
X035009Y024179D01*X033561Y025276D02*X033561Y024179D01*X033523Y025239D02*
X033523Y024233D01*X033492Y025276D02*X033492Y024179D01*X033661Y025276D02*
X033247Y025276D01*X033141Y025239D01*X033109Y025184D01*X033071Y025075D01*
X033071Y024965D01*X033109Y024874D01*X033141Y024819D01*X033247Y024764D01*
X033492Y024764D01*X033141Y025184D02*X033109Y025075D01*X033109Y024965D01*
X033141Y024874D01*X033247Y025276D02*X033178Y025239D01*X033141Y025130D01*
X033141Y024910D01*X033178Y024819D01*X033247Y024764D01*X033354Y024764D02*
X033279Y024709D01*X033247Y024599D01*X033178Y024288D01*X033141Y024179D01*
X033071Y024179D01*X033034Y024288D01*X033034Y024398D01*X033178Y024398D02*
X033141Y024288D01*X033109Y024233D01*X033071Y024233D01*X033279Y024709D02*
X033247Y024654D01*X033141Y024343D01*X033109Y024288D01*X033071Y024288D01*
X033034Y024343D01*X033661Y024179D02*X033385Y024179D01*X033630Y025276D02*
X033561Y025239D01*X033592Y025276D02*X033561Y025184D01*X033454Y025276D02*
X033492Y025184D01*X033423Y025276D02*X033492Y025239D01*X033561Y024233D02*
X033630Y024179D01*X033561Y024288D02*X033592Y024179D01*X033492Y024288D02*
X033454Y024179D01*X033492Y024233D02*X033423Y024179D01*X032602Y024599D02*
X032068Y024599D01*X032068Y024709D01*X032118Y024819D01*X032169Y024874D01*
X032313Y024910D01*X032407Y024910D01*X032558Y024874D01*X032652Y024764D01*
X032696Y024599D01*X032696Y024490D01*X032652Y024343D01*X032558Y024233D01*
X032407Y024179D01*X032313Y024179D01*X032169Y024233D01*X032068Y024343D01*
X032118Y024654D02*X032118Y024709D01*X032169Y024819D01*X032602Y024764D02*
X032652Y024654D01*X032652Y024435D01*X032602Y024343D01*X032169Y024599D02*
X032169Y024764D01*X032213Y024874D01*X032313Y024910D01*X032407Y024910D02*
X032508Y024874D01*X032558Y024819D01*X032602Y024654D01*X032602Y024435D01*
X032558Y024288D01*X032508Y024233D01*X032407Y024179D01*X031655Y024910D02*
X031423Y024179D01*X031617Y024910D02*X031423Y024288D01*X031580Y024910D02*
X031379Y024288D01*X031184Y024874D02*X031379Y024288D01*X031423Y024179D01*
X031730Y024910D02*X031460Y024910D01*X031341Y024910D02*X031103Y024910D01*
X031693Y024910D02*X031580Y024819D01*X031498Y024910D02*X031580Y024874D01*
X031266Y024910D02*X031184Y024874D01*X031147Y024910D02*X031184Y024874D01*
X030463Y024343D02*X030482Y024288D01*X030482Y024233D01*X030463Y024179D01*
X030445Y024179D01*X030426Y024233D01*X030426Y024288D01*X030445Y024343D01*
X030463Y024343D01*X030463Y024288D02*X030463Y024233D01*X030445Y024233D01*
X030445Y024288D01*X030463Y024288D01*X029692Y025276D02*X029692Y024179D01*
X029655Y025239D02*X029655Y024233D01*X029617Y025276D02*X029617Y024179D01*
X029799Y025276D02*X029360Y025276D01*X029247Y025239D01*X029215Y025184D01*
X029171Y025075D01*X029171Y024910D01*X029215Y024819D01*X029247Y024764D01*
X029360Y024709D01*X029617Y024709D01*X029247Y025184D02*X029215Y025075D01*
X029215Y024910D01*X029247Y024819D01*X029360Y025276D02*X029284Y025239D01*
X029247Y025130D01*X029247Y024874D01*X029284Y024764D01*X029360Y024709D01*
X029799Y024179D02*X029504Y024179D01*X029768Y025276D02*X029692Y025239D01*
X029730Y025276D02*X029692Y025184D01*X029579Y025276D02*X029617Y025184D01*
X029542Y025276D02*X029617Y025239D01*X029692Y024233D02*X029768Y024179D01*
X029692Y024288D02*X029730Y024179D01*X029617Y024288D02*X029579Y024179D01*
X029617Y024233D02*X029542Y024179D01*X028551Y025184D02*X028551Y024179D01*
X028526Y025184D02*X028526Y024233D01*X028507Y025276D02*X028507Y024179D01*
X028507Y025276D02*X028570Y025130D01*X028608Y025075D01*X028626Y024179D02*
X028426Y024179D01*X028551Y024233D02*X028589Y024179D01*X028551Y024288D02*
X028570Y024179D01*X028507Y024288D02*X028488Y024179D01*X028507Y024233D02*
X028470Y024179D01*
G36*X032141Y033743D02*X032141Y035755D01*X032153Y035872D01*X032187Y035986D01*
X032242Y036090D01*X032318Y036181D01*X032409Y036257D01*X032513Y036312D01*
X032626Y036346D01*X032744Y036358D01*X038779Y036358D01*X038897Y036346D01*
X039010Y036312D01*X039114Y036257D01*X039206Y036181D01*X039281Y036090D01*
X039336Y035986D01*X039370Y035872D01*X039383Y035755D01*X039383Y029720D01*
X039370Y029602D01*X039336Y029488D01*X039281Y029385D01*X039206Y029293D01*
X039114Y029218D01*X039010Y029163D01*X038897Y029128D01*X038779Y029116D01*
X035158Y029116D01*X035158Y031530D01*X036969Y031530D01*X036969Y033743D01*
X032141Y033743D01*G37*G36*X042038Y026300D02*X042038Y026360D01*X042400Y026360D01*
X042400Y026300D01*X042038Y026300D01*G37*G36*X039805Y026300D02*X039805Y026360D01*
X041615Y026360D01*X041615Y026300D01*X039805Y026300D01*G37*G36*X037572Y026300D02*
X037572Y026360D01*X039262Y026360D01*X039262Y026300D01*X037572Y026300D01*G37*G36*
X036788Y026300D02*X036788Y026360D01*X037089Y026360D01*X037089Y026300D01*
X036788Y026300D01*G37*G36*X035339Y026300D02*X035339Y026360D01*X035641Y026360D01*
X035641Y026300D01*X035339Y026300D01*G37*G36*X034796Y026300D02*X034796Y026360D01*
X035098Y026360D01*X035098Y026300D01*X034796Y026300D01*G37*G36*X033167Y026300D02*
X033167Y026360D01*X033529Y026360D01*X033529Y026300D01*X033167Y026300D01*G37*G36*
X032563Y026300D02*X032563Y026360D01*X032925Y026360D01*X032925Y026300D01*
X032563Y026300D01*G37*G36*X031235Y026300D02*X031235Y026360D01*X031718Y026360D01*
X031718Y026300D01*X031235Y026300D01*
G37*G36*X029425Y026300D02*X029425Y026360D01*
X030934Y026360D01*X030934Y026300D01*X029425Y026300D01*G37*G36*X042038Y026360D02*
X042038Y026421D01*X042400Y026421D01*X042400Y026360D01*X042038Y026360D01*G37*G36*
X039745Y026360D02*X039745Y026421D01*X041676Y026421D01*X041676Y026360D01*
X039745Y026360D01*G37*G36*X037572Y026360D02*X037572Y026421D01*X039322Y026421D01*
X039322Y026360D01*X037572Y026360D01*G37*G36*X036788Y026360D02*X036788Y026421D01*
X037089Y026421D01*X037089Y026360D01*X036788Y026360D01*G37*G36*X035339Y026360D02*
X035339Y026421D01*X035641Y026421D01*X035641Y026360D01*X035339Y026360D01*G37*G36*
X034736Y026360D02*X034736Y026421D01*X035037Y026421D01*X035037Y026360D01*
X034736Y026360D01*G37*G36*X033227Y026360D02*X033227Y026421D01*X033589Y026421D01*
X033589Y026360D01*X033227Y026360D01*G37*G36*X032563Y026360D02*X032563Y026421D01*
X032925Y026421D01*X032925Y026360D01*X032563Y026360D01*G37*G36*X031356Y026360D02*
X031356Y026421D01*X031779Y026421D01*X031779Y026360D01*X031356Y026360D01*
G37*G36*
X029425Y026360D02*X029425Y026421D01*X030934Y026421D01*X030934Y026360D01*
X029425Y026360D01*G37*G36*X042038Y026421D02*X042038Y026481D01*X042400Y026481D01*
X042400Y026421D01*X042038Y026421D01*G37*G36*X039745Y026421D02*X039745Y026481D01*
X041676Y026481D01*X041676Y026421D01*X039745Y026421D01*G37*G36*X037512Y026421D02*
X037512Y026481D01*X039322Y026481D01*X039322Y026421D01*X037512Y026421D01*G37*G36*
X036788Y026421D02*X036788Y026481D01*X037089Y026481D01*X037089Y026421D01*
X036788Y026421D01*G37*G36*X035339Y026421D02*X035339Y026481D01*X035641Y026481D01*
X035641Y026421D01*X035339Y026421D01*G37*G36*X034736Y026421D02*X034736Y026481D01*
X035037Y026481D01*X035037Y026421D01*X034736Y026421D01*G37*G36*X033227Y026421D02*
X033227Y026481D01*X033589Y026481D01*X033589Y026421D01*X033227Y026421D01*G37*G36*
X032563Y026421D02*X032563Y026481D01*X032925Y026481D01*X032925Y026421D01*
X032563Y026421D01*G37*G36*X031416Y026421D02*X031416Y026481D01*X031839Y026481D01*
X031839Y026421D01*X031416Y026421D01*
G37*G36*X029425Y026421D02*X029425Y026481D01*
X030934Y026481D01*X030934Y026421D01*X029425Y026421D01*G37*G36*X042038Y026481D02*
X042038Y026541D01*X042400Y026541D01*X042400Y026481D01*X042038Y026481D01*G37*G36*
X039684Y026481D02*X039684Y026541D01*X041676Y026541D01*X041676Y026481D01*
X039684Y026481D01*G37*G36*X037512Y026481D02*X037512Y026541D01*X039383Y026541D01*
X039383Y026481D01*X037512Y026481D01*G37*G36*X036788Y026481D02*X036788Y026541D01*
X037089Y026541D01*X037089Y026481D01*X036788Y026481D01*G37*G36*X035339Y026481D02*
X035339Y026541D01*X035641Y026541D01*X035641Y026481D01*X035339Y026481D01*G37*G36*
X034675Y026481D02*X034675Y026541D01*X034977Y026541D01*X034977Y026481D01*
X034675Y026481D01*G37*G36*X033287Y026481D02*X033287Y026541D01*X033649Y026541D01*
X033649Y026481D01*X033287Y026481D01*G37*G36*X032563Y026481D02*X032563Y026541D01*
X032925Y026541D01*X032925Y026481D01*X032563Y026481D01*G37*G36*X031477Y026481D02*
X031477Y026541D01*X031899Y026541D01*X031899Y026481D01*X031477Y026481D01*
G37*G36*
X029425Y026481D02*X029425Y026541D01*X030934Y026541D01*X030934Y026481D01*
X029425Y026481D01*G37*G36*X042038Y026541D02*X042038Y026602D01*X042400Y026602D01*
X042400Y026541D01*X042038Y026541D01*G37*G36*X039684Y026541D02*X039684Y026602D01*
X041676Y026602D01*X041676Y026541D01*X039684Y026541D01*G37*G36*X037512Y026541D02*
X037512Y026602D01*X039383Y026602D01*X039383Y026541D01*X037512Y026541D01*G37*G36*
X036788Y026541D02*X036788Y026602D01*X037089Y026602D01*X037089Y026541D01*
X036788Y026541D01*G37*G36*X035339Y026541D02*X035339Y026602D01*X035641Y026602D01*
X035641Y026541D01*X035339Y026541D01*G37*G36*X034675Y026541D02*X034675Y026602D01*
X034977Y026602D01*X034977Y026541D01*X034675Y026541D01*G37*G36*X033287Y026541D02*
X033287Y026602D01*X033649Y026602D01*X033649Y026541D01*X033287Y026541D01*G37*G36*
X032563Y026541D02*X032563Y026602D01*X032925Y026602D01*X032925Y026541D01*
X032563Y026541D01*G37*G36*X031537Y026541D02*X031537Y026602D01*X031960Y026602D01*
X031960Y026541D01*X031537Y026541D01*
G37*G36*X030632Y026541D02*X030632Y026602D01*
X030934Y026602D01*X030934Y026541D01*X030632Y026541D01*G37*G36*X042038Y026602D02*
X042038Y026662D01*X042400Y026662D01*X042400Y026602D01*X042038Y026602D01*G37*G36*
X041314Y026602D02*X041314Y026662D01*X041736Y026662D01*X041736Y026602D01*
X041314Y026602D01*G37*G36*X039684Y026602D02*X039684Y026662D01*X040046Y026662D01*
X040046Y026602D01*X039684Y026602D01*G37*G36*X039081Y026602D02*X039081Y026662D01*
X039383Y026662D01*X039383Y026602D01*X039081Y026602D01*G37*G36*X037512Y026602D02*
X037512Y026662D01*X037813Y026662D01*X037813Y026602D01*X037512Y026602D01*G37*G36*
X036788Y026602D02*X036788Y026662D01*X037089Y026662D01*X037089Y026602D01*
X036788Y026602D01*G37*G36*X035339Y026602D02*X035339Y026662D01*X035641Y026662D01*
X035641Y026602D01*X035339Y026602D01*G37*G36*X033348Y026602D02*X033348Y026662D01*
X034917Y026662D01*X034917Y026602D01*X033348Y026602D01*G37*G36*X032563Y026602D02*
X032563Y026662D01*X032925Y026662D01*X032925Y026602D01*X032563Y026602D01*
G37*G36*
X031597Y026602D02*X031597Y026662D01*X032020Y026662D01*X032020Y026602D01*
X031597Y026602D01*G37*G36*X030632Y026602D02*X030632Y026662D01*X030934Y026662D01*
X030934Y026602D01*X030632Y026602D01*G37*G36*X042038Y026662D02*X042038Y026722D01*
X042400Y026722D01*X042400Y026662D01*X042038Y026662D01*G37*G36*X041314Y026662D02*
X041314Y026722D01*X041736Y026722D01*X041736Y026662D01*X041314Y026662D01*G37*G36*
X039684Y026662D02*X039684Y026722D01*X040046Y026722D01*X040046Y026662D01*
X039684Y026662D01*G37*G36*X039081Y026662D02*X039081Y026722D01*X039383Y026722D01*
X039383Y026662D01*X039081Y026662D01*G37*G36*X037512Y026662D02*X037512Y026722D01*
X037813Y026722D01*X037813Y026662D01*X037512Y026662D01*G37*G36*X036788Y026662D02*
X036788Y026722D01*X037089Y026722D01*X037089Y026662D01*X036788Y026662D01*G37*G36*
X035339Y026662D02*X035339Y026722D01*X035641Y026722D01*X035641Y026662D01*
X035339Y026662D01*G37*G36*X033348Y026662D02*X033348Y026722D01*X034917Y026722D01*
X034917Y026662D01*X033348Y026662D01*
G37*G36*X032563Y026662D02*X032563Y026722D01*
X032925Y026722D01*X032925Y026662D01*X032563Y026662D01*G37*G36*X031658Y026662D02*
X031658Y026722D01*X032080Y026722D01*X032080Y026662D01*X031658Y026662D01*G37*G36*
X030632Y026662D02*X030632Y026722D01*X030934Y026722D01*X030934Y026662D01*
X030632Y026662D01*G37*G36*X042038Y026722D02*X042038Y026783D01*X042400Y026783D01*
X042400Y026722D01*X042038Y026722D01*G37*G36*X041314Y026722D02*X041314Y026783D01*
X041736Y026783D01*X041736Y026722D01*X041314Y026722D01*G37*G36*X039684Y026722D02*
X039684Y026783D01*X040046Y026783D01*X040046Y026722D01*X039684Y026722D01*G37*G36*
X039081Y026722D02*X039081Y026783D01*X039383Y026783D01*X039383Y026722D01*
X039081Y026722D01*G37*G36*X037512Y026722D02*X037512Y026783D01*X037813Y026783D01*
X037813Y026722D01*X037512Y026722D01*G37*G36*X036788Y026722D02*X036788Y026783D01*
X037089Y026783D01*X037089Y026722D01*X036788Y026722D01*G37*G36*X035339Y026722D02*
X035339Y026783D01*X035641Y026783D01*X035641Y026722D01*X035339Y026722D01*
G37*G36*
X033408Y026722D02*X033408Y026783D01*X034856Y026783D01*X034856Y026722D01*
X033408Y026722D01*G37*G36*X032563Y026722D02*X032563Y026783D01*X032925Y026783D01*
X032925Y026722D01*X032563Y026722D01*G37*G36*X031718Y026722D02*X031718Y026783D01*
X032141Y026783D01*X032141Y026722D01*X031718Y026722D01*G37*G36*X030632Y026722D02*
X030632Y026783D01*X030934Y026783D01*X030934Y026722D01*X030632Y026722D01*G37*G36*
X042038Y026783D02*X042038Y026843D01*X042400Y026843D01*X042400Y026783D01*
X042038Y026783D01*G37*G36*X041314Y026783D02*X041314Y026843D01*X041736Y026843D01*
X041736Y026783D01*X041314Y026783D01*G37*G36*X039684Y026783D02*X039684Y026843D01*
X040046Y026843D01*X040046Y026783D01*X039684Y026783D01*G37*G36*X039081Y026783D02*
X039081Y026843D01*X039141Y026843D01*X039141Y026783D01*X039081Y026783D01*G37*G36*
X037512Y026783D02*X037512Y026843D01*X037813Y026843D01*X037813Y026783D01*
X037512Y026783D01*G37*G36*X036788Y026783D02*X036788Y026843D01*X037089Y026843D01*
X037089Y026783D01*X036788Y026783D01*
G37*G36*X035339Y026783D02*X035339Y026843D01*
X035641Y026843D01*X035641Y026783D01*X035339Y026783D01*G37*G36*X033408Y026783D02*
X033408Y026843D01*X034856Y026843D01*X034856Y026783D01*X033408Y026783D01*G37*G36*
X032563Y026783D02*X032563Y026843D01*X032925Y026843D01*X032925Y026783D01*
X032563Y026783D01*G37*G36*X031779Y026783D02*X031779Y026843D01*X032201Y026843D01*
X032201Y026783D01*X031779Y026783D01*G37*G36*X030632Y026783D02*X030632Y026843D01*
X030934Y026843D01*X030934Y026783D01*X030632Y026783D01*G37*G36*X042038Y026843D02*
X042038Y026903D01*X042400Y026903D01*X042400Y026843D01*X042038Y026843D01*G37*G36*
X041314Y026843D02*X041314Y026903D01*X041736Y026903D01*X041736Y026843D01*
X041314Y026843D01*G37*G36*X039684Y026843D02*X039684Y026903D01*X040046Y026903D01*
X040046Y026843D01*X039684Y026843D01*G37*G36*X037512Y026843D02*X037512Y026903D01*
X037813Y026903D01*X037813Y026843D01*X037512Y026843D01*G37*G36*X036788Y026843D02*
X036788Y026903D01*X037089Y026903D01*X037089Y026843D01*X036788Y026843D01*
G37*G36*
X035339Y026843D02*X035339Y026903D01*X035641Y026903D01*X035641Y026843D01*
X035339Y026843D01*G37*G36*X033468Y026843D02*X033468Y026903D01*X034796Y026903D01*
X034796Y026843D01*X033468Y026843D01*G37*G36*X032563Y026843D02*X032563Y026903D01*
X032925Y026903D01*X032925Y026843D01*X032563Y026843D01*G37*G36*X031779Y026843D02*
X031779Y026903D01*X032261Y026903D01*X032261Y026843D01*X031779Y026843D01*G37*G36*
X030632Y026843D02*X030632Y026903D01*X030934Y026903D01*X030934Y026843D01*
X030632Y026843D01*G37*G36*X042038Y026903D02*X042038Y026964D01*X042400Y026964D01*
X042400Y026903D01*X042038Y026903D01*G37*G36*X041314Y026903D02*X041314Y026964D01*
X041736Y026964D01*X041736Y026903D01*X041314Y026903D01*G37*G36*X039684Y026903D02*
X039684Y026964D01*X040046Y026964D01*X040046Y026903D01*X039684Y026903D01*G37*G36*
X037512Y026903D02*X037512Y026964D01*X037813Y026964D01*X037813Y026903D01*
X037512Y026903D01*G37*G36*X036727Y026903D02*X036727Y026964D01*X037089Y026964D01*
X037089Y026903D01*X036727Y026903D01*
G37*G36*X035339Y026903D02*X035339Y026964D01*
X035701Y026964D01*X035701Y026903D01*X035339Y026903D01*G37*G36*X034494Y026903D02*
X034494Y026964D01*X034796Y026964D01*X034796Y026903D01*X034494Y026903D01*G37*G36*
X033468Y026903D02*X033468Y026964D01*X033830Y026964D01*X033830Y026903D01*
X033468Y026903D01*G37*G36*X031416Y026903D02*X031416Y026964D01*X032925Y026964D01*
X032925Y026903D01*X031416Y026903D01*G37*G36*X030632Y026903D02*X030632Y026964D01*
X030934Y026964D01*X030934Y026903D01*X030632Y026903D01*G37*G36*X042038Y026964D02*
X042038Y027024D01*X042400Y027024D01*X042400Y026964D01*X042038Y026964D01*G37*G36*
X041314Y026964D02*X041314Y027024D01*X041736Y027024D01*X041736Y026964D01*
X041314Y026964D01*G37*G36*X039684Y026964D02*X039684Y027024D01*X040046Y027024D01*
X040046Y026964D01*X039684Y026964D01*G37*G36*X037512Y026964D02*X037512Y027024D01*
X037813Y027024D01*X037813Y026964D01*X037512Y026964D01*G37*G36*X035339Y026964D02*
X035339Y027024D01*X037089Y027024D01*X037089Y026964D01*X035339Y026964D01*
G37*G36*
X034434Y026964D02*X034434Y027024D01*X034736Y027024D01*X034736Y026964D01*
X034434Y026964D01*G37*G36*X033529Y026964D02*X033529Y027024D01*X033891Y027024D01*
X033891Y026964D01*X033529Y026964D01*G37*G36*X031356Y026964D02*X031356Y027024D01*
X032925Y027024D01*X032925Y026964D01*X031356Y026964D01*G37*G36*X029968Y026964D02*
X029968Y027024D01*X030934Y027024D01*X030934Y026964D01*X029968Y026964D01*G37*G36*
X042038Y027024D02*X042038Y027085D01*X042400Y027085D01*X042400Y027024D01*
X042038Y027024D01*G37*G36*X041314Y027024D02*X041314Y027085D01*X041736Y027085D01*
X041736Y027024D01*X041314Y027024D01*G37*G36*X039684Y027024D02*X039684Y027085D01*
X040046Y027085D01*X040046Y027024D01*X039684Y027024D01*G37*G36*X037512Y027024D02*
X037512Y027085D01*X037813Y027085D01*X037813Y027024D01*X037512Y027024D01*G37*G36*
X035339Y027024D02*X035339Y027085D01*X037089Y027085D01*X037089Y027024D01*
X035339Y027024D01*G37*G36*X034434Y027024D02*X034434Y027085D01*X034736Y027085D01*
X034736Y027024D01*X034434Y027024D01*
G37*G36*X033589Y027024D02*X033589Y027085D01*
X033891Y027085D01*X033891Y027024D01*X033589Y027024D01*G37*G36*X031356Y027024D02*
X031356Y027085D01*X032925Y027085D01*X032925Y027024D01*X031356Y027024D01*G37*G36*
X029968Y027024D02*X029968Y027085D01*X030934Y027085D01*X030934Y027024D01*
X029968Y027024D01*G37*G36*X042038Y027085D02*X042038Y027145D01*X042400Y027145D01*
X042400Y027085D01*X042038Y027085D01*G37*G36*X041314Y027085D02*X041314Y027145D01*
X041736Y027145D01*X041736Y027085D01*X041314Y027085D01*G37*G36*X039684Y027085D02*
X039684Y027145D01*X040710Y027145D01*X040710Y027085D01*X039684Y027085D01*G37*G36*
X037512Y027085D02*X037512Y027145D01*X039141Y027145D01*X039141Y027085D01*
X037512Y027085D01*G37*G36*X035339Y027085D02*X035339Y027145D01*X037089Y027145D01*
X037089Y027085D01*X035339Y027085D01*G37*G36*X034374Y027085D02*X034374Y027145D01*
X034675Y027145D01*X034675Y027085D01*X034374Y027085D01*G37*G36*X033589Y027085D02*
X033589Y027145D01*X033951Y027145D01*X033951Y027085D01*X033589Y027085D01*
G37*G36*
X031296Y027085D02*X031296Y027145D01*X032925Y027145D01*X032925Y027085D01*
X031296Y027085D01*G37*G36*X029968Y027085D02*X029968Y027145D01*X030934Y027145D01*
X030934Y027085D01*X029968Y027085D01*G37*G36*X042038Y027145D02*X042038Y027205D01*
X042400Y027205D01*X042400Y027145D01*X042038Y027145D01*G37*G36*X041314Y027145D02*
X041314Y027205D01*X041736Y027205D01*X041736Y027145D01*X041314Y027145D01*G37*G36*
X039684Y027145D02*X039684Y027205D01*X040710Y027205D01*X040710Y027145D01*
X039684Y027145D01*G37*G36*X037512Y027145D02*X037512Y027205D01*X039201Y027205D01*
X039201Y027145D01*X037512Y027145D01*G37*G36*X035339Y027145D02*X035339Y027205D01*
X037089Y027205D01*X037089Y027145D01*X035339Y027145D01*G37*G36*X034374Y027145D02*
X034374Y027205D01*X034675Y027205D01*X034675Y027145D01*X034374Y027145D01*G37*G36*
X033649Y027145D02*X033649Y027205D01*X033951Y027205D01*X033951Y027145D01*
X033649Y027145D01*G37*G36*X032563Y027145D02*X032563Y027205D01*X032925Y027205D01*
X032925Y027145D01*X032563Y027145D01*
G37*G36*X031296Y027145D02*X031296Y027205D01*
X031658Y027205D01*X031658Y027145D01*X031296Y027145D01*G37*G36*X029968Y027145D02*
X029968Y027205D01*X030934Y027205D01*X030934Y027145D01*X029968Y027145D01*G37*G36*
X042038Y027205D02*X042038Y027266D01*X042400Y027266D01*X042400Y027205D01*
X042038Y027205D01*G37*G36*X041314Y027205D02*X041314Y027266D01*X041736Y027266D01*
X041736Y027205D01*X041314Y027205D01*G37*G36*X039684Y027205D02*X039684Y027266D01*
X040710Y027266D01*X040710Y027205D01*X039684Y027205D01*G37*G36*X037512Y027205D02*
X037512Y027266D01*X039262Y027266D01*X039262Y027205D01*X037512Y027205D01*G37*G36*
X036727Y027205D02*X036727Y027266D01*X037089Y027266D01*X037089Y027205D01*
X036727Y027205D01*G37*G36*X035339Y027205D02*X035339Y027266D01*X035701Y027266D01*
X035701Y027205D01*X035339Y027205D01*G37*G36*X034313Y027205D02*X034313Y027266D01*
X034615Y027266D01*X034615Y027205D01*X034313Y027205D01*G37*G36*X033649Y027205D02*
X033649Y027266D01*X034011Y027266D01*X034011Y027205D01*X033649Y027205D01*
G37*G36*
X032563Y027205D02*X032563Y027266D01*X032925Y027266D01*X032925Y027205D01*
X032563Y027205D01*G37*G36*X031296Y027205D02*X031296Y027266D01*X031597Y027266D01*
X031597Y027205D01*X031296Y027205D01*G37*G36*X030632Y027205D02*X030632Y027266D01*
X030934Y027266D01*X030934Y027205D01*X030632Y027205D01*G37*G36*X042038Y027266D02*
X042038Y027326D01*X042400Y027326D01*X042400Y027266D01*X042038Y027266D01*G37*G36*
X041314Y027266D02*X041314Y027326D01*X041736Y027326D01*X041736Y027266D01*
X041314Y027266D01*G37*G36*X039684Y027266D02*X039684Y027326D01*X040710Y027326D01*
X040710Y027266D01*X039684Y027266D01*G37*G36*X037512Y027266D02*X037512Y027326D01*
X039262Y027326D01*X039262Y027266D01*X037512Y027266D01*G37*G36*X036788Y027266D02*
X036788Y027326D01*X037089Y027326D01*X037089Y027266D01*X036788Y027266D01*G37*G36*
X035339Y027266D02*X035339Y027326D01*X035641Y027326D01*X035641Y027266D01*
X035339Y027266D01*G37*G36*X034313Y027266D02*X034313Y027326D01*X034615Y027326D01*
X034615Y027266D01*X034313Y027266D01*
G37*G36*X033710Y027266D02*X033710Y027326D01*
X034011Y027326D01*X034011Y027266D01*X033710Y027266D01*G37*G36*X032563Y027266D02*
X032563Y027326D01*X032925Y027326D01*X032925Y027266D01*X032563Y027266D01*G37*G36*
X031296Y027266D02*X031296Y027326D01*X031597Y027326D01*X031597Y027266D01*
X031296Y027266D01*G37*G36*X030632Y027266D02*X030632Y027326D01*X030934Y027326D01*
X030934Y027266D01*X030632Y027266D01*G37*G36*X042038Y027326D02*X042038Y027386D01*
X042400Y027386D01*X042400Y027326D01*X042038Y027326D01*G37*G36*X041314Y027326D02*
X041314Y027386D01*X041736Y027386D01*X041736Y027326D01*X041314Y027326D01*G37*G36*
X039684Y027326D02*X039684Y027386D01*X040710Y027386D01*X040710Y027326D01*
X039684Y027326D01*G37*G36*X037572Y027326D02*X037572Y027386D01*X039322Y027386D01*
X039322Y027326D01*X037572Y027326D01*G37*G36*X036788Y027326D02*X036788Y027386D01*
X037089Y027386D01*X037089Y027326D01*X036788Y027326D01*G37*G36*X035339Y027326D02*
X035339Y027386D01*X035641Y027386D01*X035641Y027326D01*X035339Y027326D01*
G37*G36*
X034253Y027326D02*X034253Y027386D01*X034555Y027386D01*X034555Y027326D01*
X034253Y027326D01*G37*G36*X033710Y027326D02*X033710Y027386D01*X034011Y027386D01*
X034011Y027326D01*X033710Y027326D01*G37*G36*X032563Y027326D02*X032563Y027386D01*
X032925Y027386D01*X032925Y027326D01*X032563Y027326D01*G37*G36*X031296Y027326D02*
X031296Y027386D01*X031597Y027386D01*X031597Y027326D01*X031296Y027326D01*G37*G36*
X030632Y027326D02*X030632Y027386D01*X030934Y027386D01*X030934Y027326D01*
X030632Y027326D01*G37*G36*X042038Y027386D02*X042038Y027447D01*X042400Y027447D01*
X042400Y027386D01*X042038Y027386D01*G37*G36*X041314Y027386D02*X041314Y027447D01*
X041736Y027447D01*X041736Y027386D01*X041314Y027386D01*G37*G36*X037693Y027386D02*
X037693Y027447D01*X039322Y027447D01*X039322Y027386D01*X037693Y027386D01*G37*G36*
X036788Y027386D02*X036788Y027447D01*X037089Y027447D01*X037089Y027386D01*
X036788Y027386D01*G37*G36*X035339Y027386D02*X035339Y027447D01*X035641Y027447D01*
X035641Y027386D01*X035339Y027386D01*
G37*G36*X034253Y027386D02*X034253Y027447D01*
X034555Y027447D01*X034555Y027386D01*X034253Y027386D01*G37*G36*X033770Y027386D02*
X033770Y027447D01*X034072Y027447D01*X034072Y027386D01*X033770Y027386D01*G37*G36*
X032563Y027386D02*X032563Y027447D01*X032925Y027447D01*X032925Y027386D01*
X032563Y027386D01*G37*G36*X031296Y027386D02*X031296Y027447D01*X031597Y027447D01*
X031597Y027386D01*X031296Y027386D01*G37*G36*X030632Y027386D02*X030632Y027447D01*
X030934Y027447D01*X030934Y027386D01*X030632Y027386D01*G37*G36*X042038Y027447D02*
X042038Y027507D01*X042400Y027507D01*X042400Y027447D01*X042038Y027447D01*G37*G36*
X041314Y027447D02*X041314Y027507D01*X041736Y027507D01*X041736Y027447D01*
X041314Y027447D01*G37*G36*X038960Y027447D02*X038960Y027507D01*X039322Y027507D01*
X039322Y027447D01*X038960Y027447D01*G37*G36*X036788Y027447D02*X036788Y027507D01*
X037089Y027507D01*X037089Y027447D01*X036788Y027447D01*G37*G36*X035339Y027447D02*
X035339Y027507D01*X035641Y027507D01*X035641Y027447D01*X035339Y027447D01*
G37*G36*
X034192Y027447D02*X034192Y027507D01*X034494Y027507D01*X034494Y027447D01*
X034192Y027447D01*G37*G36*X033770Y027447D02*X033770Y027507D01*X034072Y027507D01*
X034072Y027447D01*X033770Y027447D01*G37*G36*X032563Y027447D02*X032563Y027507D01*
X032925Y027507D01*X032925Y027447D01*X032563Y027447D01*G37*G36*X031296Y027447D02*
X031296Y027507D01*X031597Y027507D01*X031597Y027447D01*X031296Y027447D01*G37*G36*
X030632Y027447D02*X030632Y027507D01*X030934Y027507D01*X030934Y027447D01*
X030632Y027447D01*G37*G36*X042038Y027507D02*X042038Y027567D01*X042400Y027567D01*
X042400Y027507D01*X042038Y027507D01*G37*G36*X041314Y027507D02*X041314Y027567D01*
X041736Y027567D01*X041736Y027507D01*X041314Y027507D01*G37*G36*X039020Y027507D02*
X039020Y027567D01*X039322Y027567D01*X039322Y027507D01*X039020Y027507D01*G37*G36*
X036788Y027507D02*X036788Y027567D01*X037089Y027567D01*X037089Y027507D01*
X036788Y027507D01*G37*G36*X035339Y027507D02*X035339Y027567D01*X035641Y027567D01*
X035641Y027507D01*X035339Y027507D01*
G37*G36*X034192Y027507D02*X034192Y027567D01*
X034434Y027567D01*X034434Y027507D01*X034192Y027507D01*G37*G36*X033830Y027507D02*
X033830Y027567D01*X034132Y027567D01*X034132Y027507D01*X033830Y027507D01*G37*G36*
X032563Y027507D02*X032563Y027567D01*X032925Y027567D01*X032925Y027507D01*
X032563Y027507D01*G37*G36*X031296Y027507D02*X031296Y027567D01*X031658Y027567D01*
X031658Y027507D01*X031296Y027507D01*G37*G36*X030632Y027507D02*X030632Y027567D01*
X030934Y027567D01*X030934Y027507D01*X030632Y027507D01*G37*G36*X042038Y027567D02*
X042038Y027628D01*X042400Y027628D01*X042400Y027567D01*X042038Y027567D01*G37*G36*
X041314Y027567D02*X041314Y027628D01*X041736Y027628D01*X041736Y027567D01*
X041314Y027567D01*G37*G36*X039020Y027567D02*X039020Y027628D01*X039322Y027628D01*
X039322Y027567D01*X039020Y027567D01*G37*G36*X036788Y027567D02*X036788Y027628D01*
X037089Y027628D01*X037089Y027567D01*X036788Y027567D01*G37*G36*X035339Y027567D02*
X035339Y027628D01*X035641Y027628D01*X035641Y027567D01*X035339Y027567D01*
G37*G36*
X033830Y027567D02*X033830Y027628D01*X034434Y027628D01*X034434Y027567D01*
X033830Y027567D01*G37*G36*X032563Y027567D02*X032563Y027628D01*X032925Y027628D01*
X032925Y027567D01*X032563Y027567D01*G37*G36*X031296Y027567D02*X031296Y027628D01*
X031779Y027628D01*X031779Y027567D01*X031296Y027567D01*G37*G36*X029485Y027567D02*
X029485Y027628D01*X030934Y027628D01*X030934Y027567D01*X029485Y027567D01*G37*G36*
X042038Y027628D02*X042038Y027688D01*X042400Y027688D01*X042400Y027628D01*
X042038Y027628D01*G37*G36*X041314Y027628D02*X041314Y027688D01*X041736Y027688D01*
X041736Y027628D01*X041314Y027628D01*G37*G36*X039020Y027628D02*X039020Y027688D01*
X039322Y027688D01*X039322Y027628D01*X039020Y027628D01*G37*G36*X036788Y027628D02*
X036788Y027688D01*X037089Y027688D01*X037089Y027628D01*X036788Y027628D01*G37*G36*
X035339Y027628D02*X035339Y027688D01*X035641Y027688D01*X035641Y027628D01*
X035339Y027628D01*G37*G36*X033891Y027628D02*X033891Y027688D01*X034374Y027688D01*
X034374Y027628D01*X033891Y027628D01*
G37*G36*X031356Y027628D02*X031356Y027688D01*
X032925Y027688D01*X032925Y027628D01*X031356Y027628D01*G37*G36*X029485Y027628D02*
X029485Y027688D01*X030934Y027688D01*X030934Y027628D01*X029485Y027628D01*G37*G36*
X042038Y027688D02*X042038Y027748D01*X042400Y027748D01*X042400Y027688D01*
X042038Y027688D01*G37*G36*X041314Y027688D02*X041314Y027748D01*X041736Y027748D01*
X041736Y027688D01*X041314Y027688D01*G37*G36*X039805Y027688D02*X039805Y027748D01*
X040046Y027748D01*X040046Y027688D01*X039805Y027688D01*G37*G36*X039020Y027688D02*
X039020Y027748D01*X039322Y027748D01*X039322Y027688D01*X039020Y027688D01*G37*G36*
X037632Y027688D02*X037632Y027748D01*X037813Y027748D01*X037813Y027688D01*
X037632Y027688D01*G37*G36*X036788Y027688D02*X036788Y027748D01*X037089Y027748D01*
X037089Y027688D01*X036788Y027688D01*G37*G36*X035339Y027688D02*X035339Y027748D01*
X035641Y027748D01*X035641Y027688D01*X035339Y027688D01*G37*G36*X033891Y027688D02*
X033891Y027748D01*X034374Y027748D01*X034374Y027688D01*X033891Y027688D01*
G37*G36*
X031356Y027688D02*X031356Y027748D01*X032925Y027748D01*X032925Y027688D01*
X031356Y027688D01*G37*G36*X029485Y027688D02*X029485Y027748D01*X030934Y027748D01*
X030934Y027688D01*X029485Y027688D01*G37*G36*X042038Y027748D02*X042038Y027809D01*
X042400Y027809D01*X042400Y027748D01*X042038Y027748D01*G37*G36*X041314Y027748D02*
X041314Y027809D01*X041736Y027809D01*X041736Y027748D01*X041314Y027748D01*G37*G36*
X039684Y027748D02*X039684Y027809D01*X040046Y027809D01*X040046Y027748D01*
X039684Y027748D01*G37*G36*X039020Y027748D02*X039020Y027809D01*X039322Y027809D01*
X039322Y027748D01*X039020Y027748D01*G37*G36*X037512Y027748D02*X037512Y027809D01*
X037813Y027809D01*X037813Y027748D01*X037512Y027748D01*G37*G36*X036788Y027748D02*
X036788Y027809D01*X037089Y027809D01*X037089Y027748D01*X036788Y027748D01*G37*G36*
X035339Y027748D02*X035339Y027809D01*X035641Y027809D01*X035641Y027748D01*
X035339Y027748D01*G37*G36*X033951Y027748D02*X033951Y027809D01*X034313Y027809D01*
X034313Y027748D01*X033951Y027748D01*
G37*G36*X031416Y027748D02*X031416Y027809D01*
X032925Y027809D01*X032925Y027748D01*X031416Y027748D01*G37*G36*X029485Y027748D02*
X029485Y027809D01*X030934Y027809D01*X030934Y027748D01*X029485Y027748D01*G37*G36*
X042038Y027809D02*X042038Y027869D01*X042400Y027869D01*X042400Y027809D01*
X042038Y027809D01*G37*G36*X041314Y027809D02*X041314Y027869D01*X041736Y027869D01*
X041736Y027809D01*X041314Y027809D01*G37*G36*X039684Y027809D02*X039684Y027869D01*
X040046Y027869D01*X040046Y027809D01*X039684Y027809D01*G37*G36*X039020Y027809D02*
X039020Y027869D01*X039322Y027869D01*X039322Y027809D01*X039020Y027809D01*G37*G36*
X037512Y027809D02*X037512Y027869D01*X037813Y027869D01*X037813Y027809D01*
X037512Y027809D01*G37*G36*X036788Y027809D02*X036788Y027869D01*X037089Y027869D01*
X037089Y027809D01*X036788Y027809D01*G37*G36*X035339Y027809D02*X035339Y027869D01*
X035641Y027869D01*X035641Y027809D01*X035339Y027809D01*G37*G36*X034011Y027809D02*
X034011Y027869D01*X034313Y027869D01*X034313Y027809D01*X034011Y027809D01*
G37*G36*
X031537Y027809D02*X031537Y027869D01*X032865Y027869D01*X032865Y027809D01*
X031537Y027809D01*G37*G36*X029485Y027809D02*X029485Y027869D01*X030934Y027869D01*
X030934Y027809D01*X029485Y027809D01*G37*G36*X042038Y027869D02*X042038Y027929D01*
X042400Y027929D01*X042400Y027869D01*X042038Y027869D01*G37*G36*X039684Y027869D02*
X039684Y027929D01*X041676Y027929D01*X041676Y027869D01*X039684Y027869D01*G37*G36*
X037512Y027869D02*X037512Y027929D01*X039322Y027929D01*X039322Y027869D01*
X037512Y027869D01*G37*G36*X042038Y027929D02*X042038Y027990D01*X042400Y027990D01*
X042400Y027929D01*X042038Y027929D01*G37*G36*X039684Y027929D02*X039684Y027990D01*
X041676Y027990D01*X041676Y027929D01*X039684Y027929D01*G37*G36*X037512Y027929D02*
X037512Y027990D01*X039322Y027990D01*X039322Y027929D01*X037512Y027929D01*G37*G36*
X042038Y027990D02*X042038Y028050D01*X042400Y028050D01*X042400Y027990D01*
X042038Y027990D01*G37*G36*X039745Y027990D02*X039745Y028050D01*X041676Y028050D01*
X041676Y027990D01*X039745Y027990D01*
G37*G36*X037512Y027990D02*X037512Y028050D01*
X039262Y028050D01*X039262Y027990D01*X037512Y027990D01*G37*G36*X042038Y028050D02*
X042038Y028110D01*X042400Y028110D01*X042400Y028050D01*X042038Y028050D01*G37*G36*
X039745Y028050D02*X039745Y028110D01*X041676Y028110D01*X041676Y028050D01*
X039745Y028050D01*G37*G36*X037572Y028050D02*X037572Y028110D01*X039262Y028110D01*
X039262Y028050D01*X037572Y028050D01*G37*G36*X042038Y028110D02*X042038Y028171D01*
X042400Y028171D01*X042400Y028110D01*X042038Y028110D01*G37*G36*X039805Y028110D02*
X039805Y028171D01*X041615Y028171D01*X041615Y028110D01*X039805Y028110D01*G37*G36*
X037632Y028110D02*X037632Y028171D01*X039201Y028171D01*X039201Y028110D01*
X037632Y028110D01*G37*G36*X032141Y029720D02*X032141Y033341D01*X036566Y033341D01*
X036566Y031933D01*X034756Y031933D01*X034756Y029116D01*X032744Y029116D01*
X032626Y029128D01*X032513Y029163D01*X032409Y029218D01*X032318Y029293D01*
X032242Y029385D01*X032187Y029488D01*X032153Y029602D01*X032141Y029720D01*G37*G36*
X019235Y092823D02*X019235Y092854D01*X019791Y092854D01*X019791Y092823D01*
X019822Y092823D01*X019822Y092792D01*X019884Y092792D01*X019884Y092761D01*
X019914Y092761D01*X019914Y092731D01*X019945Y092731D01*X019945Y092700D01*
X019976Y092700D01*X019976Y092669D01*X020007Y092669D01*X020007Y092638D01*
X020038Y092638D01*X020038Y092607D01*X020069Y092607D01*X020069Y092576D01*
X020100Y092576D01*X020100Y092545D01*X020130Y092545D01*X020130Y092515D01*
X020192Y092515D01*X020192Y092484D01*X020223Y092484D01*X020223Y092453D01*
X020254Y092453D01*X020254Y092422D01*X020285Y092422D01*X020285Y092391D01*
X020316Y092391D01*X020316Y092360D01*X020377Y092360D01*X020377Y092391D01*
X020439Y092391D01*X020439Y092422D01*X020501Y092422D01*X020501Y092453D01*
X020532Y092453D01*X020532Y092484D01*X020593Y092484D01*X020593Y092515D01*
X020624Y092515D01*X020624Y092545D01*X020686Y092545D01*X020686Y092576D01*
X020748Y092576D01*X020748Y092607D01*X020779Y092607D01*X020779Y092638D01*
X020840Y092638D01*X020840Y092669D01*X020871Y092669D01*X020871Y092700D01*
X020933Y092700D01*X020933Y092731D01*X020964Y092731D01*X020964Y092761D01*
X021025Y092761D01*X021025Y092792D01*X021056Y092792D01*X021056Y092823D01*
X021118Y092823D01*X021118Y092854D01*X021766Y092854D01*X021766Y092823D01*
X021704Y092823D01*X021704Y092792D01*X021674Y092792D01*X021674Y092761D01*
X021612Y092761D01*X021612Y092731D01*X021581Y092731D01*X021581Y092700D01*
X021519Y092700D01*X021519Y092669D01*X021488Y092669D01*X021488Y092638D01*
X021427Y092638D01*X021427Y092607D01*X021396Y092607D01*X021396Y092576D01*
X021334Y092576D01*X021334Y092545D01*X021303Y092545D01*X021303Y092515D01*
X021241Y092515D01*X021241Y092484D01*X021211Y092484D01*X021211Y092453D01*
X021149Y092453D01*X021149Y092422D01*X021118Y092422D01*X021118Y092391D01*
X021056Y092391D01*X021056Y092360D01*X021025Y092360D01*X021025Y092329D01*
X020964Y092329D01*X020964Y092299D01*X020933Y092299D01*X020933Y092268D01*
X020871Y092268D01*X020871Y092237D01*X020840Y092237D01*X020840Y092206D01*
X020779Y092206D01*X020779Y092175D01*X020748Y092175D01*X020748Y092144D01*
X020686Y092144D01*X020686Y092083D01*X020007Y092083D01*X020007Y092175D01*
X019976Y092175D01*X019976Y092206D01*X019914Y092206D01*X019914Y092237D01*
X019884Y092237D01*X019884Y092268D01*X019853Y092268D01*X019853Y092299D01*
X019822Y092299D01*X019822Y092329D01*X019791Y092329D01*X019791Y092360D01*
X019760Y092360D01*X019760Y092391D01*X019729Y092391D01*X019729Y092422D01*
X019698Y092422D01*X019698Y092453D01*X019637Y092453D01*X019637Y092484D01*
X019606Y092484D01*X019606Y092515D01*X019575Y092515D01*X019575Y092545D01*
X019544Y092545D01*X019544Y092576D01*X019513Y092576D01*X019513Y092607D01*
X019482Y092607D01*X019482Y092638D01*X019452Y092638D01*X019452Y092669D01*
X019390Y092669D01*X019390Y092700D01*X019359Y092700D01*X019359Y092731D01*
X019328Y092731D01*X019328Y092761D01*X019297Y092761D01*X019297Y092792D01*
X019266Y092792D01*X019266Y092823D01*X019235Y092823D01*G37*G36*X019328Y091650D02*
X019328Y091681D01*X019390Y091681D01*X019390Y091712D01*X019421Y091712D01*
X019421Y091743D01*X019482Y091743D01*X019482Y091774D01*X019544Y091774D01*
X019544Y091805D01*X019575Y091805D01*X019575Y091836D01*X019637Y091836D01*
X019637Y091867D01*X019668Y091867D01*X019668Y091897D01*X019698Y091897D01*
X019698Y091928D01*X019760Y091928D01*X019760Y091959D01*X019822Y091959D01*
X019822Y091990D01*X019853Y091990D01*X019853Y092021D01*X019914Y092021D01*
X019914Y092052D01*X019945Y092052D01*X019945Y092083D01*X020717Y092083D01*
X020717Y092052D01*X020748Y092052D01*X020748Y092021D01*X020809Y092021D01*
X020809Y091990D01*X020840Y091990D01*X020840Y091959D01*X020871Y091959D01*
X020871Y091928D01*X020902Y091928D01*X020902Y091897D01*X020964Y091897D01*
X020964Y091867D01*X020995Y091867D01*X020995Y091836D01*X021025Y091836D01*
X021025Y091805D01*X021056Y091805D01*X021056Y091774D01*X021118Y091774D01*
X021118Y091743D01*X021149Y091743D01*X021149Y091712D01*X021180Y091712D01*
X021180Y091681D01*X021211Y091681D01*X021211Y091650D01*X021272Y091650D01*
X021272Y091620D01*X021303Y091620D01*X021303Y091589D01*X021334Y091589D01*
X021334Y091558D01*X021365Y091558D01*X021365Y091527D01*X021396Y091527D01*
X021396Y091496D01*X021457Y091496D01*X021457Y091465D01*X021488Y091465D01*
X021488Y091434D01*X021519Y091434D01*X021519Y091404D01*X021550Y091404D01*
X021550Y091373D01*X020902Y091373D01*X020902Y091404D01*X020840Y091404D01*
X020840Y091434D01*X020809Y091434D01*X020809Y091465D01*X020779Y091465D01*
X020779Y091496D01*X020748Y091496D01*X020748Y091527D01*X020717Y091527D01*
X020717Y091558D01*X020686Y091558D01*X020686Y091589D01*X020624Y091589D01*
X020624Y091620D01*X020593Y091620D01*X020593Y091650D01*X020563Y091650D01*
X020563Y091681D01*X020532Y091681D01*X020532Y091712D01*X020501Y091712D01*
X020501Y091743D01*X020470Y091743D01*X020470Y091774D01*X020408Y091774D01*
X020408Y091805D01*X020377Y091805D01*X020377Y091836D01*X020346Y091836D01*
X020346Y091867D01*X020285Y091867D01*X020285Y091836D01*X020223Y091836D01*
X020223Y091805D01*X020192Y091805D01*X020192Y091774D01*X020130Y091774D01*
X020130Y091743D01*X020069Y091743D01*X020069Y091712D01*X020038Y091712D01*
X020038Y091681D01*X019976Y091681D01*X019976Y091650D01*X019328Y091650D01*
G37*G36*
X016797Y093502D02*X016828Y093502D01*X016828Y093471D01*X016890Y093471D01*
X016890Y093440D01*X016952Y093440D01*X016952Y093471D01*X017013Y093471D01*
X017013Y093502D01*X017075Y093502D01*X017075Y093533D01*X017137Y093533D01*
X017137Y093564D01*X017168Y093564D01*X017168Y093595D01*X017199Y093595D01*
X017199Y093626D01*X017230Y093626D01*X017230Y093656D01*X017260Y093656D01*
X017260Y093687D01*X017291Y093687D01*X017291Y093749D01*X017322Y093749D01*
X017322Y093780D01*X017353Y093780D01*X017353Y093842D01*X017384Y093842D01*
X017384Y093965D01*X017415Y093965D01*X017415Y094212D01*X017384Y094212D01*
X017384Y094305D01*X017168Y094305D01*X017168Y094243D01*X017199Y094243D01*
X017199Y093934D01*X017168Y093934D01*X017168Y093872D01*X017137Y093872D01*
X017137Y093811D01*X017106Y093811D01*X017106Y093780D01*X017075Y093780D01*
X017075Y093749D01*X017044Y093749D01*X017044Y093718D01*X016983Y093718D01*
X016983Y093687D01*X016921Y093687D01*X016921Y093656D01*X016859Y093656D01*
X016859Y093626D01*X016828Y093626D01*X016828Y093595D01*X016797Y093595D01*
X016797Y093502D01*G37*G36*X016149Y094335D02*X016396Y094335D01*X016396Y094366D01*
X016427Y094366D01*X016427Y094428D01*X016458Y094428D01*X016458Y094459D01*
X016520Y094459D01*X016520Y094490D01*X016581Y094490D01*X016581Y094521D01*
X016705Y094521D01*X016705Y094551D01*X016828Y094551D01*X016828Y094521D01*
X016952Y094521D01*X016952Y094490D01*X016983Y094490D01*X016983Y094459D01*
X017044Y094459D01*X017044Y094428D01*X017075Y094428D01*X017075Y094397D01*
X017106Y094397D01*X017106Y094366D01*X017137Y094366D01*X017137Y094305D01*
X017384Y094305D01*X017384Y094335D01*X017353Y094335D01*X017353Y094397D01*
X017322Y094397D01*X017322Y094459D01*X017291Y094459D01*X017291Y094490D01*
X017260Y094490D01*X017260Y094521D01*X017230Y094521D01*X017230Y094551D01*
X017199Y094551D01*X017199Y094582D01*X017168Y094582D01*X017168Y094613D01*
X017137Y094613D01*X017137Y094644D01*X017075Y094644D01*X017075Y094675D01*
X017013Y094675D01*X017013Y094706D01*X016921Y094706D01*X016921Y094737D01*
X016581Y094737D01*X016581Y094706D01*X016489Y094706D01*X016489Y094675D01*
X016427Y094675D01*X016427Y094644D01*X016396Y094644D01*X016396Y094613D01*
X016335Y094613D01*X016335Y094582D01*X016304Y094582D01*X016304Y094551D01*
X016273Y094551D01*X016273Y094521D01*X016242Y094521D01*X016242Y094459D01*
X016211Y094459D01*X016211Y094428D01*X016180Y094428D01*X016180Y094366D01*
X016149Y094366D01*X016149Y094335D01*G37*G36*X016088Y094027D02*X016119Y094027D01*
X016119Y093903D01*X016149Y093903D01*X016149Y093811D01*X016180Y093811D01*
X016180Y093749D01*X016211Y093749D01*X016211Y093718D01*X016242Y093718D01*
X016242Y093656D01*X016273Y093656D01*X016273Y093626D01*X016335Y093626D01*
X016335Y093595D01*X016458Y093595D01*X016458Y093626D01*X016489Y093626D01*
X016489Y093749D01*X016458Y093749D01*X016458Y093780D01*X016427Y093780D01*
X016427Y093811D01*X016396Y093811D01*X016396Y093842D01*X016365Y093842D01*
X016365Y093903D01*X016335Y093903D01*X016335Y093996D01*X016304Y093996D01*
X016304Y094181D01*X016335Y094181D01*X016335Y094274D01*X016365Y094274D01*
X016365Y094335D01*X016149Y094335D01*X016149Y094305D01*X016119Y094305D01*
X016119Y094150D01*X016088Y094150D01*X016088Y094027D01*G37*G36*X014946Y092545D02*
X014977Y092545D01*X014977Y092484D01*X015008Y092484D01*X015008Y092453D01*
X015038Y092453D01*X015038Y092391D01*X015069Y092391D01*X015069Y092329D01*
X015100Y092329D01*X015100Y092268D01*X015131Y092268D01*X015131Y092206D01*
X015162Y092206D01*X015162Y092144D01*X015193Y092144D01*X015193Y092113D01*
X015224Y092113D01*X015224Y092052D01*X015254Y092052D01*X015254Y091990D01*
X015285Y091990D01*X015285Y091928D01*X015316Y091928D01*X015316Y091867D01*
X015347Y091867D01*X015347Y091805D01*X015378Y091805D01*X015378Y091774D01*
X015409Y091774D01*X015409Y091712D01*X015440Y091712D01*X015440Y091650D01*
X015470Y091650D01*X015470Y091589D01*X015501Y091589D01*X015501Y091527D01*
X015532Y091527D01*X015532Y091496D01*X015563Y091496D01*X015563Y091434D01*
X015594Y091434D01*X015594Y091373D01*X016304Y091373D01*X016304Y091465D01*
X016335Y091465D01*X016335Y091650D01*X016365Y091650D01*X016365Y091805D01*
X016396Y091805D01*X016396Y091990D01*X016427Y091990D01*X016427Y092175D01*
X016458Y092175D01*X016458Y092329D01*X016489Y092329D01*X016489Y092515D01*
X016520Y092515D01*X016520Y092669D01*X016551Y092669D01*X016551Y092854D01*
X016581Y092854D01*X016581Y093039D01*X016612Y093039D01*X016612Y093224D01*
X016643Y093224D01*X016643Y093379D01*X016674Y093379D01*X016674Y093564D01*
X016705Y093564D01*X016705Y093749D01*X016736Y093749D01*X016736Y093903D01*
X016767Y093903D01*X016767Y094027D01*X016736Y094027D01*X016736Y093965D01*
X016705Y093965D01*X016705Y093872D01*X016674Y093872D01*X016674Y093811D01*
X016643Y093811D01*X016643Y093749D01*X016612Y093749D01*X016612Y093687D01*
X016581Y093687D01*X016581Y093626D01*X016551Y093626D01*X016551Y093564D01*
X016520Y093564D01*X016520Y093502D01*X016489Y093502D01*X016489Y093440D01*
X016458Y093440D01*X016458Y093379D01*X016427Y093379D01*X016427Y093317D01*
X016396Y093317D01*X016396Y093255D01*X016365Y093255D01*X016365Y093163D01*
X016335Y093163D01*X016335Y093101D01*X016304Y093101D01*X016304Y093039D01*
X016273Y093039D01*X016273Y092977D01*X016242Y092977D01*X016242Y092916D01*
X016211Y092916D01*X016211Y092854D01*X016180Y092854D01*X016180Y092792D01*
X016149Y092792D01*X016149Y092731D01*X016119Y092731D01*X016119Y092669D01*
X016088Y092669D01*X016088Y092607D01*X016057Y092607D01*X016057Y092545D01*
X016026Y092545D01*X016026Y092453D01*X015995Y092453D01*X015995Y092391D01*
X015964Y092391D01*X015964Y092329D01*X015933Y092329D01*X015933Y092268D01*
X015902Y092268D01*X015902Y092206D01*X015872Y092206D01*X015872Y092144D01*
X015841Y092144D01*X015841Y092083D01*X015810Y092083D01*X015810Y092021D01*
X015748Y092021D01*X015748Y092052D01*X015717Y092052D01*X015717Y092113D01*
X015686Y092113D01*X015686Y092175D01*X015656Y092175D01*X015656Y092237D01*
X015625Y092237D01*X015625Y092299D01*X015594Y092299D01*X015594Y092329D01*
X015563Y092329D01*X015563Y092391D01*X015532Y092391D01*X015532Y092453D01*
X015501Y092453D01*X015501Y092515D01*X015470Y092515D01*X015470Y092576D01*
X014946Y092576D01*X014946Y092545D01*G37*G36*X014082Y092854D02*X014082Y092885D01*
X014113Y092885D01*X014113Y093070D01*X014143Y093070D01*X014143Y093255D01*
X014174Y093255D01*X014174Y093440D01*X014205Y093440D01*X014205Y093564D01*
X014915Y093564D01*X014915Y093533D01*X014946Y093533D01*X014946Y093471D01*
X014977Y093471D01*X014977Y093410D01*X015008Y093410D01*X015008Y093348D01*
X015038Y093348D01*X015038Y093317D01*X015069Y093317D01*X015069Y093255D01*
X015100Y093255D01*X015100Y093194D01*X015131Y093194D01*X015131Y093132D01*
X015162Y093132D01*X015162Y093070D01*X015193Y093070D01*X015193Y093008D01*
X015224Y093008D01*X015224Y092977D01*X015254Y092977D01*X015254Y092916D01*
X015285Y092916D01*X015285Y092854D01*X015316Y092854D01*X015316Y092792D01*
X015347Y092792D01*X015347Y092731D01*X015378Y092731D01*X015378Y092669D01*
X015409Y092669D01*X015409Y092638D01*X015440Y092638D01*X015440Y092576D01*
X014946Y092576D01*X014946Y092607D01*X014915Y092607D01*X014915Y092669D01*
X014884Y092669D01*X014884Y092731D01*X014853Y092731D01*X014853Y092792D01*
X014822Y092792D01*X014822Y092823D01*X014792Y092823D01*X014792Y092885D01*
X014761Y092885D01*X014761Y092947D01*X014730Y092947D01*X014730Y092916D01*
X014699Y092916D01*X014699Y092854D01*X014082Y092854D01*G37*G36*X013711Y090775D02*
X013711Y090806D01*X013742Y090806D01*X013742Y090775D01*X013711Y090775D01*G37*G36*
X012076Y091650D02*X012076Y091712D01*X012107Y091712D01*X012107Y091867D01*
X012137Y091867D01*X012137Y092021D01*X012168Y092021D01*X012168Y092175D01*
X012199Y092175D01*X012199Y092329D01*X012230Y092329D01*X012230Y092484D01*
X012261Y092484D01*X012261Y092638D01*X012292Y092638D01*X012292Y092700D01*
X012323Y092700D01*X012323Y092731D01*X012353Y092731D01*X012353Y092761D01*
X012384Y092761D01*X012384Y092792D01*X012446Y092792D01*X012446Y092823D01*
X012570Y092823D01*X012570Y092854D01*X014668Y092854D01*X014668Y092792D01*
X014637Y092792D01*X014637Y092700D01*X014606Y092700D01*X014606Y092638D01*
X014575Y092638D01*X014575Y092576D01*X014545Y092576D01*X014545Y092515D01*
X014514Y092515D01*X014514Y092422D01*X014483Y092422D01*X014483Y092360D01*
X014452Y092360D01*X014452Y092299D01*X014421Y092299D01*X014421Y092237D01*
X014390Y092237D01*X014390Y092144D01*X014359Y092144D01*X014359Y092083D01*
X014329Y092083D01*X014329Y092021D01*X014298Y092021D01*X014298Y091959D01*
X014267Y091959D01*X014267Y091897D01*X014236Y091897D01*X014236Y091805D01*
X014205Y091805D01*X014205Y091743D01*X014174Y091743D01*X014174Y091681D01*
X014143Y091681D01*X014143Y091620D01*X014113Y091620D01*X014113Y091527D01*
X014082Y091527D01*X014082Y091465D01*X014051Y091465D01*X014051Y091404D01*
X014020Y091404D01*X014020Y091342D01*X013989Y091342D01*X013989Y091249D01*
X013958Y091249D01*X013958Y091188D01*X013927Y091188D01*X013927Y091126D01*
X013897Y091126D01*X013897Y091064D01*X013866Y091064D01*X013866Y090972D01*
X013835Y090972D01*X013835Y090910D01*X013804Y090910D01*X013804Y090848D01*
X013773Y090848D01*X013773Y090786D01*X013742Y090786D01*X013742Y090910D01*
X013773Y090910D01*X013773Y091095D01*X013804Y091095D01*X013804Y091280D01*
X013835Y091280D01*X013835Y091434D01*X013866Y091434D01*X013866Y091620D01*
X013897Y091620D01*X013897Y091805D01*X013927Y091805D01*X013927Y091990D01*
X013958Y091990D01*X013958Y092175D01*X013989Y092175D01*X013989Y092360D01*
X014020Y092360D01*X014020Y092515D01*X014051Y092515D01*X014051Y092576D01*
X013002Y092576D01*X013002Y092545D01*X012940Y092545D01*X012940Y092515D01*
X012909Y092515D01*X012909Y092484D01*X012878Y092484D01*X012878Y092360D01*
X012847Y092360D01*X012847Y092206D01*X012816Y092206D01*X012816Y092052D01*
X012786Y092052D01*X012786Y091897D01*X012755Y091897D01*X012755Y091743D01*
X012724Y091743D01*X012724Y091650D01*X012076Y091650D01*G37*G36*X009453Y091589D02*
X009453Y091774D01*X009483Y091774D01*X009483Y091959D01*X009514Y091959D01*
X009514Y091990D01*X010131Y091990D01*X010131Y091867D01*X010101Y091867D01*
X010101Y091712D01*X010162Y091712D01*X010162Y091681D01*X010255Y091681D01*
X010255Y091650D01*X012724Y091650D01*X012724Y091589D01*X012693Y091589D01*
X012693Y091404D01*X012662Y091404D01*X012662Y091373D01*X010008Y091373D01*
X010008Y091404D01*X009761Y091404D01*X009761Y091434D01*X009669Y091434D01*
X009669Y091465D01*X009576Y091465D01*X009576Y091496D01*X009545Y091496D01*
X009545Y091527D01*X009514Y091527D01*X009514Y091558D01*X009483Y091558D01*
X009483Y091589D01*X009453Y091589D01*G37*G36*X009514Y091990D02*X009514Y092113D01*
X009545Y092113D01*X009545Y092268D01*X009576Y092268D01*X009576Y092453D01*
X009607Y092453D01*X009607Y092607D01*X009638Y092607D01*X009638Y092700D01*
X009669Y092700D01*X009669Y092731D01*X009699Y092731D01*X009699Y092761D01*
X009730Y092761D01*X009730Y092792D01*X009792Y092792D01*X009792Y092823D01*
X009915Y092823D01*X009915Y092854D01*X011921Y092854D01*X011921Y092823D01*
X011983Y092823D01*X011983Y092792D01*X012014Y092792D01*X012014Y092761D01*
X012045Y092761D01*X012045Y092422D01*X012014Y092422D01*X012014Y092268D01*
X011397Y092268D01*X011397Y092391D01*X011428Y092391D01*X011428Y092545D01*
X011397Y092545D01*X011397Y092576D01*X010348Y092576D01*X010348Y092545D01*
X010286Y092545D01*X010286Y092515D01*X010255Y092515D01*X010255Y092484D01*
X010224Y092484D01*X010224Y092391D01*X010193Y092391D01*X010193Y092299D01*
X010162Y092299D01*X010162Y092268D01*X012014Y092268D01*X012014Y092206D01*
X011983Y092206D01*X011983Y092113D01*X011952Y092113D01*X011952Y092052D01*
X011891Y092052D01*X011891Y092021D01*X011860Y092021D01*X011860Y091990D01*
X009514Y091990D01*G37*G36*X007817Y091650D02*X007817Y091836D01*X007848Y091836D01*
X007848Y091990D01*X007879Y091990D01*X007879Y092175D01*X007910Y092175D01*
X007910Y092329D01*X007940Y092329D01*X007940Y092484D01*X007971Y092484D01*
X007971Y092669D01*X008002Y092669D01*X008002Y092823D01*X008033Y092823D01*
X008033Y092977D01*X008064Y092977D01*X008064Y093163D01*X008095Y093163D01*
X008095Y093317D01*X008126Y093317D01*X008126Y093440D01*X008804Y093440D01*
X008804Y093410D01*X008774Y093410D01*X008774Y093255D01*X008743Y093255D01*
X008743Y093132D01*X008712Y093132D01*X008712Y092977D01*X008681Y092977D01*
X008681Y092854D01*X009483Y092854D01*X009483Y092792D01*X009453Y092792D01*
X009453Y092607D01*X009422Y092607D01*X009422Y092576D01*X008619Y092576D01*
X008619Y092484D01*X008588Y092484D01*X008588Y092360D01*X008558Y092360D01*
X008558Y092206D01*X008527Y092206D01*X008527Y092052D01*X008496Y092052D01*
X008496Y091928D01*X008465Y091928D01*X008465Y091712D01*X008496Y091712D01*
X008496Y091681D01*X008558Y091681D01*X008558Y091650D01*X009329Y091650D01*
X009329Y091465D01*X009298Y091465D01*X009298Y091373D01*X008527Y091373D01*
X008527Y091404D01*X008187Y091404D01*X008187Y091434D01*X008095Y091434D01*
X008095Y091465D01*X008002Y091465D01*X008002Y091496D01*X007971Y091496D01*
X007971Y091527D01*X007910Y091527D01*X007910Y091558D01*X007879Y091558D01*
X007879Y091589D01*X007848Y091589D01*X007848Y091650D01*X007817Y091650D01*
G37*G36*
X005132Y091404D02*X005132Y091496D01*X005163Y091496D01*X005163Y091650D01*
X005194Y091650D01*X005194Y091805D01*X005225Y091805D01*X005225Y091990D01*
X005255Y091990D01*X005255Y092113D01*X005286Y092113D01*X005286Y092299D01*
X005317Y092299D01*X005317Y092453D01*X005348Y092453D01*X005348Y092607D01*
X005379Y092607D01*X005379Y092731D01*X005410Y092731D01*X005410Y092854D01*
X007200Y092854D01*X007200Y092823D01*X007385Y092823D01*X007385Y092792D01*
X007477Y092792D01*X007477Y092761D01*X007570Y092761D01*X007570Y092731D01*
X007632Y092731D01*X007632Y092700D01*X007663Y092700D01*X007663Y092669D01*
X007724Y092669D01*X007724Y092607D01*X007755Y092607D01*X007755Y092391D01*
X007724Y092391D01*X007724Y092206D01*X007693Y092206D01*X007693Y091990D01*
X007663Y091990D01*X007663Y091805D01*X007632Y091805D01*X007632Y091620D01*
X007601Y091620D01*X007601Y091404D01*X006922Y091404D01*X006922Y091465D01*
X006953Y091465D01*X006953Y091620D01*X006984Y091620D01*X006984Y091836D01*
X007015Y091836D01*X007015Y091990D01*X007045Y091990D01*X007045Y092175D01*
X007076Y092175D01*X007076Y092329D01*X007107Y092329D01*X007107Y092515D01*
X007076Y092515D01*X007076Y092545D01*X007015Y092545D01*X007015Y092576D01*
X005996Y092576D01*X005996Y092545D01*X005965Y092545D01*X005965Y092360D01*
X005934Y092360D01*X005934Y092206D01*X005904Y092206D01*X005904Y092052D01*
X005873Y092052D01*X005873Y091867D01*X005842Y091867D01*X005842Y091743D01*
X005811Y091743D01*X005811Y091558D01*X005780Y091558D01*X005780Y091404D01*
X005132Y091404D01*G37*G36*X004175Y091373D02*X004885Y091373D01*X004885Y091434D01*
X004916Y091434D01*X004916Y091589D01*X004947Y091589D01*X004947Y091743D01*
X004978Y091743D01*X004978Y091897D01*X005009Y091897D01*X005009Y092052D01*
X005039Y092052D01*X005039Y092237D01*X005070Y092237D01*X005070Y092391D01*
X005101Y092391D01*X005101Y092545D01*X005132Y092545D01*X005132Y092700D01*
X005163Y092700D01*X005163Y092854D01*X005194Y092854D01*X005194Y093008D01*
X005225Y093008D01*X005225Y093194D01*X005255Y093194D01*X005255Y093348D01*
X005286Y093348D01*X005286Y093502D01*X005317Y093502D01*X005317Y093656D01*
X005348Y093656D01*X005348Y093718D01*X004607Y093718D01*X004608Y093718D01*
X004607Y093595D01*X004577Y093595D01*X004577Y093440D01*X004546Y093440D01*
X004546Y093286D01*X004515Y093286D01*X004515Y093101D01*X004484Y093101D01*
X004484Y092947D01*X004453Y092947D01*X004453Y092792D01*X004422Y092792D01*
X004422Y092638D01*X004391Y092638D01*X004391Y092484D01*X004360Y092484D01*
X004360Y092299D01*X004330Y092299D01*X004330Y092144D01*X004299Y092144D01*
X004299Y091990D01*X004268Y091990D01*X004268Y091836D01*X004237Y091836D01*
X004237Y091681D01*X004206Y091681D01*X004206Y091496D01*X004175Y091496D01*
X004175Y091373D01*G37*G36*X-001750Y092164D02*X-001719Y092164D01*
X-001719Y092071D01*X-001689Y092071D01*X-001689Y092009D01*X-001658Y092009D01*
X-001658Y091948D01*X-001627Y091948D01*X-001627Y091886D01*X-001596Y091886D01*
X-001596Y091855D01*X-001565Y091855D01*X-001565Y091793D01*X-001534Y091793D01*
X-001534Y091762D01*X-001503Y091762D01*X-001503Y091732D01*X-001473Y091732D01*
X-001473Y091701D01*X-001442Y091701D01*X-001442Y091670D01*X-001411Y091670D01*
X-001411Y091639D01*X-001380Y091639D01*X-001380Y091608D01*X-001318Y091608D01*
X-001318Y091577D01*X-001287Y091577D01*X-001287Y091546D01*X-001257Y091546D01*
X-001257Y091515D01*X-001195Y091515D01*X-001195Y091485D01*X-001164Y091485D01*
X-001164Y091454D01*X-001102Y091454D01*X-001102Y091423D01*X-001071Y091423D01*
X-001071Y091392D01*X-001010Y091392D01*X-001010Y091361D01*X-000979Y091361D01*
X-000979Y091330D01*X-000917Y091330D01*X-000917Y091299D01*X-000856Y091299D01*
X-000856Y091269D01*X-000793Y091269D01*X-000793Y091238D01*X-000732Y091238D01*
X-000732Y091207D01*X-000670Y091207D01*X-000670Y091176D01*X-000609Y091176D01*
X-000609Y091145D01*X-000547Y091145D01*X-000547Y091114D01*X-000485Y091114D01*
X-000485Y091083D01*X-000423Y091083D01*X-000423Y091053D01*X-000331Y091053D01*
X-000331Y091021D01*X-000300Y091021D01*X-000300Y090991D01*X-000207Y090991D01*
X-000207Y090960D01*X-000145Y090960D01*X-000145Y090929D01*X-000084Y090929D01*
X-000084Y090898D01*X-000022Y090898D01*X-000022Y090867D01*X000041Y090867D01*
X000041Y090929D01*X000010Y090929D01*X000010Y091270D01*X000041Y091270D01*
X000041Y091391D01*X000071Y091391D01*X000071Y091485D01*X000102Y091485D01*
X000102Y091578D01*X000133Y091578D01*X000133Y091639D01*X000165Y091639D01*
X000165Y091731D01*X000195Y091731D01*X000195Y091793D01*X000225Y091793D01*
X000225Y091824D01*X000257Y091824D01*X000257Y091886D01*X000287Y091886D01*
X000287Y091948D01*X000318Y091948D01*X000318Y092009D01*X000349Y092009D01*
X000349Y092071D01*X000381Y092071D01*X000381Y092102D01*X000410Y092102D01*
X000410Y092164D01*X000440Y092164D01*X000440Y092195D01*X000473Y092195D01*
X000473Y092256D01*X000503Y092256D01*X000503Y092287D01*X000534Y092287D01*
X000534Y092349D01*X000565Y092349D01*X000565Y092380D01*X000596Y092380D01*
X000596Y092441D01*X000626Y092441D01*X000626Y092503D01*X000657Y092503D01*
X000657Y092534D01*X000689Y092534D01*X000689Y092595D01*X000719Y092595D01*
X000719Y092626D01*X000751Y092626D01*X000751Y092688D01*X000781Y092688D01*
X000781Y092719D01*X000812Y092719D01*X000812Y092780D01*X000842Y092780D01*
X000842Y092843D01*X000873Y092843D01*X000873Y092873D01*X000905Y092873D01*
X000905Y092935D01*X000935Y092935D01*X000935Y092997D01*X000967Y092997D01*
X000967Y093058D01*X000997Y093058D01*X000997Y093090D01*X000133Y093090D01*
X000133Y093059D01*X000102Y093059D01*X000102Y093089D01*X000071Y093089D01*
X000071Y093058D01*X-000176Y093058D01*X-000176Y093028D01*X-000391Y093028D01*
X-000391Y092997D01*X-000515Y092997D01*X-000515Y092967D01*X-000640Y092967D01*
X-000640Y092936D01*X-000731Y092936D01*X-000731Y092904D01*X-000793Y092904D01*
X-000793Y092875D01*X-000887Y092875D01*X-000887Y092842D01*X-000948Y092842D01*
X-000948Y092812D01*X-001010Y092812D01*X-001010Y092781D01*X-001041Y092781D01*
X-001041Y092750D01*X-001102Y092750D01*X-001102Y092719D01*X-001135Y092719D01*
X-001135Y092688D01*X-001164Y092688D01*X-001164Y092658D01*X-001195Y092658D01*
X-001195Y092627D01*X-001225Y092627D01*X-001225Y092596D01*X-001256Y092596D01*
X-001256Y092657D01*X-001225Y092657D01*X-001225Y092688D01*X-001194Y092688D01*
X-001194Y092750D01*X-001164Y092750D01*X-001164Y092781D01*X-001134Y092781D01*
X-001134Y092812D01*X-001103Y092812D01*X-001103Y092843D01*X-001071Y092843D01*
X-001071Y092873D01*X-001040Y092873D01*X-001040Y092905D01*X-001009Y092905D01*
X-001009Y092934D01*X-000948Y092934D01*X-000948Y092965D01*X-000917Y092965D01*
X-000917Y092997D01*X-000887Y092997D01*X-000887Y093027D01*X-000824Y093027D01*
X-000824Y093058D01*X-000793Y093058D01*X-000793Y093089D01*X-000731Y093089D01*
X-000731Y093120D01*X-000670Y093120D01*X-000670Y093151D01*X-000608Y093151D01*
X-000608Y093182D01*X-000515Y093182D01*X-000515Y093213D01*X-000454Y093213D01*
X-000454Y093244D01*X-000361Y093244D01*X-000361Y093275D01*X-000268Y093275D01*
X-000268Y093305D01*X-000175Y093305D01*X-000175Y093336D01*X-000052Y093336D01*
X-000052Y093366D01*X000072Y093366D01*X000072Y093397D01*X000225Y093397D01*
X000225Y093429D01*X000411Y093429D01*X000411Y093459D01*X000688Y093459D01*
X000688Y093490D01*X001491Y093490D01*X001491Y093521D01*X001737Y093521D01*
X001737Y093552D01*X001862Y093552D01*X001862Y093583D01*X001954Y093583D01*
X001954Y093614D01*X002047Y093614D01*X002047Y093645D01*X002231Y093645D01*
X002231Y093614D01*X002262Y093614D01*X002262Y093583D01*X002293Y093583D01*
X002293Y093491D01*X002262Y093491D01*X002262Y093398D01*X002231Y093398D01*
X002231Y093336D01*X002201Y093336D01*X002201Y093274D01*X002169Y093274D01*
X002169Y093244D01*X002139Y093244D01*X002139Y093182D01*X002108Y093182D01*
X002108Y093151D01*X002077Y093151D01*X002077Y093090D01*X002046Y093090D01*
X002046Y093059D01*X002015Y093059D01*X002015Y092997D01*X001985Y092997D01*
X001985Y092966D01*X001953Y092966D01*X001953Y092904D01*X001923Y092904D01*
X001923Y092874D01*X001892Y092874D01*X001892Y092843D01*X001861Y092843D01*
X001861Y092812D01*X001830Y092812D01*X001830Y092750D01*X001799Y092750D01*
X001799Y092720D01*X001769Y092720D01*X001769Y092689D01*X001738Y092689D01*
X001738Y092627D01*X001707Y092627D01*X001707Y092596D01*X001675Y092596D01*
X001675Y092565D01*X001645Y092565D01*X001645Y092503D01*X001614Y092503D01*
X001614Y092472D01*X001583Y092472D01*X001583Y092442D01*X001552Y092442D01*
X001552Y092411D01*X001522Y092411D01*X001522Y092349D01*X001491Y092349D01*
X001491Y092318D01*X001460Y092318D01*X001460Y092287D01*X001429Y092287D01*
X001429Y092257D01*X001398Y092257D01*X001398Y092194D01*X001367Y092194D01*
X001367Y092164D01*X001336Y092164D01*X001336Y092133D01*X001305Y092133D01*
X001305Y092071D01*X001275Y092071D01*X001275Y092040D01*X001244Y092040D01*
X001244Y092010D01*X001212Y092010D01*X001212Y091947D01*X001182Y091947D01*
X001182Y091916D01*X001151Y091916D01*X001151Y091886D01*X001120Y091886D01*
X001120Y091824D01*X001089Y091824D01*X001089Y091793D01*X001058Y091793D01*
X001058Y091732D01*X001028Y091732D01*X001028Y091701D01*X000997Y091701D01*
X000997Y091639D01*X000966Y091639D01*X000966Y091608D01*X000935Y091608D01*
X000935Y091546D01*X000904Y091546D01*X000904Y091485D01*X000874Y091485D01*
X000874Y091423D01*X000843Y091423D01*X000843Y091362D01*X000812Y091362D01*
X000812Y091300D01*X000781Y091300D01*X000781Y091238D01*X000750Y091238D01*
X000750Y091145D01*X000719Y091145D01*X000719Y090929D01*X000750Y090929D01*
X000750Y090868D01*X000781Y090868D01*X000781Y090836D01*X001058Y090836D01*
X001058Y090868D01*X001152Y090868D01*X001152Y090899D01*X001213Y090899D01*
X001213Y090928D01*X001244Y090928D01*X001244Y090961D01*X001275Y090961D01*
X001275Y090991D01*X001305Y090991D01*X001305Y091022D01*X001337Y091022D01*
X001337Y091053D01*X001368Y091053D01*X001368Y091083D01*X001399Y091083D01*
X001399Y091145D01*X001429Y091145D01*X001429Y091176D01*X001460Y091176D01*
X001460Y091207D01*X001521Y091207D01*X001521Y091238D01*X001583Y091238D01*
X001583Y091268D01*X001707Y091268D01*X001707Y091237D01*X001768Y091237D01*
X001768Y091175D01*X001799Y091175D01*X001799Y090930D01*X001769Y090930D01*
X001769Y090867D01*X001738Y090867D01*X001738Y090836D01*X001707Y090836D01*
X001707Y090806D01*X001675Y090806D01*X001675Y090775D01*X001644Y090775D01*
X001644Y090744D01*X001614Y090744D01*X001614Y090713D01*X001582Y090713D01*
X001582Y090682D01*X001521Y090682D01*X001521Y090651D01*X001491Y090651D01*
X001491Y090621D01*X001429Y090621D01*X001429Y090589D01*X001367Y090589D01*
X001367Y090559D01*X001274Y090559D01*X001274Y090528D01*X001183Y090528D01*
X001183Y090497D01*X001059Y090497D01*X001059Y090467D01*X001181Y090467D01*
X001181Y090434D01*X001397Y090434D01*X001397Y090405D01*X001676Y090405D01*
X001676Y090435D01*X001892Y090435D01*X001892Y090466D01*X001984Y090466D01*
X001984Y090497D01*X002077Y090497D01*X002077Y090528D01*X002139Y090528D01*
X002139Y090559D01*X002201Y090559D01*X002201Y090590D01*X002231Y090590D01*
X002231Y090621D01*X002293Y090621D01*X002293Y090651D01*X002324Y090651D01*
X002324Y090683D01*X002386Y090683D01*X002386Y090712D01*X002416Y090712D01*
X002416Y090744D01*X002448Y090744D01*X002448Y090774D01*X002479Y090774D01*
X002479Y090806D01*X002509Y090806D01*X002509Y090837D01*X002540Y090837D01*
X002540Y090867D01*X002571Y090867D01*X002571Y090898D01*X002602Y090898D01*
X002602Y090960D01*X002633Y090960D01*X002633Y090991D01*X002664Y090991D01*
X002664Y091022D01*X002694Y091022D01*X002694Y091083D01*X002725Y091083D01*
X002725Y091145D01*X002756Y091145D01*X002756Y091207D01*X002787Y091207D01*
X002787Y091238D01*X002817Y091238D01*X002817Y091330D01*X002848Y091330D01*
X002848Y091392D01*X002879Y091392D01*X002879Y091454D01*X002910Y091454D01*
X002910Y091516D01*X002941Y091516D01*X002941Y091608D01*X002972Y091608D01*
X002972Y091671D01*X003003Y091671D01*X003003Y091762D01*X003034Y091762D01*
X003034Y091853D01*X003065Y091853D01*X003065Y091916D01*X003096Y091916D01*
X003096Y092010D01*X003127Y092010D01*X003127Y092102D01*X003157Y092102D01*
X003157Y092163D01*X003187Y092163D01*X003187Y092256D01*X003219Y092256D01*
X003219Y092349D01*X003251Y092349D01*X003251Y092472D01*X003281Y092472D01*
X003281Y092565D01*X003311Y092565D01*X003311Y092689D01*X003343Y092689D01*
X003343Y092842D01*X003374Y092842D01*X003374Y093027D01*X003404Y093027D01*
X003404Y093707D01*X003372Y093707D01*X003372Y093830D01*X003342Y093830D01*
X003342Y093953D01*X003311Y093953D01*X003311Y094014D01*X003281Y094014D01*
X003281Y094107D01*X003251Y094107D01*X003251Y094139D01*X003219Y094139D01*
X003219Y094200D01*X003188Y094200D01*X003188Y094231D01*X003157Y094231D01*
X003157Y094263D01*X003127Y094263D01*X003127Y094324D01*X003096Y094324D01*
X003096Y094355D01*X003064Y094355D01*X003064Y094385D01*X003002Y094385D01*
X003002Y094416D01*X002971Y094416D01*X002971Y094447D01*X002941Y094447D01*
X002941Y094478D01*X002882Y094478D01*X002882Y094509D01*X002819Y094509D01*
X002819Y094539D01*X002726Y094539D01*X002726Y094572D01*X002663Y094572D01*
X002663Y094417D01*X002631Y094417D01*X002631Y094355D01*X002601Y094355D01*
X002601Y094293D01*X002570Y094293D01*X002570Y094230D01*X002540Y094230D01*
X002540Y094201D01*X002509Y094201D01*X002509Y094170D01*X002478Y094170D01*
X002478Y094138D01*X002448Y094138D01*X002448Y094107D01*X002417Y094107D01*
X002417Y094077D01*X002355Y094077D01*X002355Y094046D01*X002293Y094046D01*
X002293Y094016D01*X002170Y094016D01*X002170Y093984D01*X001953Y093984D01*
X001953Y094015D01*X001861Y094015D01*X001861Y094045D01*X001799Y094045D01*
X001799Y094078D01*X001769Y094078D01*X001769Y094108D01*X001737Y094108D01*
X001737Y094139D01*X001707Y094139D01*X001707Y094171D01*X001676Y094171D01*
X001676Y094232D01*X001646Y094232D01*X001646Y094478D01*X001676Y094478D01*
X001676Y094540D01*X001708Y094540D01*X001708Y094602D01*X001521Y094602D01*
X001521Y094571D01*X001367Y094571D01*X001367Y094540D01*X001244Y094540D01*
X001244Y094509D01*X001120Y094509D01*X001120Y094478D01*X001028Y094478D01*
X001028Y094447D01*X000904Y094447D01*X000904Y094416D01*X000811Y094416D01*
X000811Y094386D01*X000719Y094386D01*X000719Y094355D01*X000657Y094355D01*
X000657Y094324D01*X000565Y094324D01*X000565Y094293D01*X000503Y094293D01*
X000503Y094262D01*X000410Y094262D01*X000410Y094231D01*X000349Y094231D01*
X000349Y094200D01*X000287Y094200D01*X000287Y094170D01*X000225Y094170D01*
X000225Y094139D01*X000163Y094139D01*X000163Y094108D01*X000071Y094108D01*
X000071Y094077D01*X000009Y094077D01*X000009Y094046D01*X-000053Y094046D01*
X-000053Y094015D01*X-000084Y094015D01*X-000084Y093984D01*X-000146Y093984D01*
X-000146Y093954D01*X-000207Y093954D01*X-000207Y093923D01*X-000269Y093923D01*
X-000269Y093892D01*X-000331Y093892D01*X-000331Y093861D01*X-000392Y093861D01*
X-000392Y093830D01*X-000423Y093830D01*X-000423Y093799D01*X-000485Y093799D01*
X-000485Y093769D01*X-000547Y093769D01*X-000547Y093738D01*X-000609Y093738D01*
X-000609Y093707D01*X-000639Y093707D01*X-000639Y093676D01*X-000701Y093676D01*
X-000701Y093645D01*X-000763Y093645D01*X-000763Y093614D01*X-000794Y093614D01*
X-000794Y093583D01*X-000855Y093583D01*X-000855Y093552D01*X-000886Y093552D01*
X-000886Y093522D01*X-000948Y093522D01*X-000948Y093491D01*X-001010Y093491D01*
X-001010Y093460D01*X-001041Y093460D01*X-001041Y093429D01*X-001102Y093429D01*
X-001102Y093398D01*X-001133Y093398D01*X-001133Y093367D01*X-001164Y093367D01*
X-001164Y093337D01*X-001226Y093337D01*X-001226Y093306D01*X-001257Y093306D01*
X-001257Y093275D01*X-001287Y093275D01*X-001287Y093244D01*X-001318Y093244D01*
X-001318Y093213D01*X-001349Y093213D01*X-001349Y093182D01*X-001380Y093182D01*
X-001380Y093151D01*X-001411Y093151D01*X-001411Y093121D01*X-001442Y093121D01*
X-001442Y093089D01*X-001473Y093089D01*X-001473Y093059D01*X-001503Y093059D01*
X-001503Y092997D01*X-001534Y092997D01*X-001534Y092966D01*X-001565Y092966D01*
X-001565Y092904D01*X-001596Y092904D01*X-001596Y092873D01*X-001627Y092873D01*
X-001627Y092812D01*X-001658Y092812D01*X-001658Y092750D01*X-001689Y092750D01*
X-001689Y092657D01*X-001719Y092657D01*X-001719Y092534D01*X-001750Y092534D01*
X-001750Y092164D01*G37*G36*X016581Y091959D02*X016581Y092083D01*
X016612Y092083D01*X016612Y092237D01*X016643Y092237D01*X016643Y092391D01*
X016674Y092391D01*X016674Y092545D01*X016705Y092545D01*X016705Y092669D01*
X016736Y092669D01*X016736Y092731D01*X016767Y092731D01*X016767Y092761D01*
X016797Y092761D01*X016797Y092792D01*X016859Y092792D01*X016859Y092823D01*
X016983Y092823D01*X016983Y092854D01*X018989Y092854D01*X018989Y092823D01*
X019050Y092823D01*X019050Y092792D01*X019112Y092792D01*X019112Y092731D01*
X019143Y092731D01*X019143Y092515D01*X019112Y092515D01*X019112Y092299D01*
X019081Y092299D01*X019081Y092268D01*X018464Y092268D01*X018464Y092360D01*
X018495Y092360D01*X018495Y092545D01*X018464Y092545D01*X018464Y092576D01*
X017446Y092576D01*X017446Y092545D01*X017384Y092545D01*X017384Y092515D01*
X017353Y092515D01*X017353Y092484D01*X017322Y092484D01*X017322Y092453D01*
X017291Y092453D01*X017291Y092360D01*X017260Y092360D01*X017260Y092268D01*
X019081Y092268D01*X019081Y092206D01*X019081Y092144D01*X019050Y092144D01*
X019050Y092083D01*X019019Y092083D01*X019019Y092052D01*X018989Y092052D01*
X018989Y092021D01*X018927Y092021D01*X018927Y091990D01*X018803Y091990D01*
X018803Y091959D01*X016581Y091959D01*G37*G36*X016520Y091620D02*X016520Y091743D01*
X016551Y091743D01*X016551Y091928D01*X016581Y091928D01*X016581Y091959D01*
X017199Y091959D01*X017199Y091867D01*X017199Y091805D01*X017168Y091805D01*
X017168Y091743D01*X017199Y091743D01*X017199Y091712D01*X017260Y091712D01*
X017260Y091681D01*X017353Y091681D01*X017353Y091650D01*X019945Y091650D01*
X019945Y091620D01*X019884Y091620D01*X019884Y091589D01*X019853Y091589D01*
X019853Y091558D01*X019791Y091558D01*X019791Y091527D01*X019760Y091527D01*
X019760Y091496D01*X019698Y091496D01*X019698Y091465D01*X019668Y091465D01*
X019668Y091434D01*X019606Y091434D01*X019606Y091404D01*X019575Y091404D01*
X019575Y091373D01*X017044Y091373D01*X017044Y091404D01*X016828Y091404D01*
X016828Y091434D01*X016736Y091434D01*X016736Y091465D01*X016643Y091465D01*
X016643Y091496D01*X016612Y091496D01*X016612Y091527D01*X016581Y091527D01*
X016581Y091558D01*X016551Y091558D01*X016551Y091620D01*X016520Y091620D01*G37*
X000000Y000000D02*M02*
