%MOMM*%
%FSLAX33Y33*%
%ADD10C,0.203200*%
%ADD15C,0.070000*%
%ADD20C,1.400000*%
%ADD128C,0.200000*%
%ADD129C,0.500000*%
%ADD130C,0.250000*%
%ADD131C,0.530000*%
%ADD132C,0.400000*%
%ADD133C,0.300000*%
%ADD134C,3.800000*%
%ADD135R,1.400000X1.400000*%
%ADD136C,1.300000*%
%ADD137C,2.100000*%
%ADD138C,0.100000*%
%ADD139R,2.800000X2.000000*%
%ADD140C,0.635000*%
%ADD141R,0.800000X0.900000*%
%ADD142R,0.789000X0.254000*%
%ADD143R,0.900000X0.250000*%
%ADD144R,0.254000X0.789000*%
%ADD145R,0.250000X0.900000*%
%ADD146R,6.600000X6.600000*%
%ADD147R,0.900000X0.800000*%
%ADD148R,1.100000X1.900000*%
%ADD149R,1.397000X0.762000*%
%ADD150R,1.050000X1.300000*%
%ADD151R,0.325000X0.900000*%
%ADD152R,2.400000X1.650000*%
%ADD153R,2.000000X1.300000*%
%ADD186C,0.530000*%
G90*G71*G01*D02*G54D10*X000000Y000000D02*X057000Y000000D01*X057000Y035000D01*
X000000Y035000D01*X000000Y000000D01*D02*G54D15*X019750Y042500D02*
X002250Y042500D01*X002250Y039000D01*X019750Y039000D01*X019750Y040750D02*
X054750Y040750D01*X033750Y042500D02*X033750Y039000D01*X019750Y042500D02*
X054750Y042500D01*X054750Y039000D02*X019750Y039000D01*X019750Y042500D02*
X019750Y039000D01*X054750Y042500D02*X054750Y039000D01*X044250Y042500D02*
X044250Y039000D01*X046154Y040098D02*X046154Y040066D01*X046186Y040066D01*
X046186Y040098D01*X046154Y040098D01*X046154Y040130D02*X046186Y040130D01*
X046218Y040098D01*X046218Y040066D01*X046186Y040034D01*X046154Y040034D01*
X046123Y040066D01*X046123Y040098D01*X046154Y040161D01*X046186Y040193D01*
X046282Y040214D01*X046414Y040214D01*X046509Y040193D01*X046541Y040161D01*
X046578Y040098D01*X046578Y040034D01*X046541Y039981D01*X046446Y039917D01*
X046282Y039854D01*X046218Y039822D01*X046154Y039758D01*X046123Y039673D01*
X046123Y039578D01*X046509Y040161D02*X046541Y040098D01*X046541Y040034D01*
X046509Y039981D01*X046414Y040214D02*X046477Y040193D01*X046509Y040098D01*
X046509Y040034D01*X046477Y039981D01*X046414Y039917D01*X046282Y039854D01*
X046123Y039642D02*X046154Y039673D01*X046218Y039673D01*X046377Y039642D01*
X046509Y039642D01*X046578Y039673D01*X046218Y039673D02*X046377Y039610D01*
X046509Y039610D01*X046541Y039642D01*X046218Y039673D02*X046377Y039578D01*
X046509Y039578D01*X046541Y039610D01*X046578Y039673D01*X046578Y039727D01*
X047014Y040214D02*X046918Y040193D01*X046854Y040098D01*X046823Y039949D01*
X046823Y039854D01*X046854Y039705D01*X046918Y039610D01*X047014Y039578D01*
X047082Y039578D01*X047177Y039610D01*X047241Y039705D01*X047278Y039854D01*
X047278Y039949D01*X047241Y040098D01*X047177Y040193D01*X047082Y040214D01*
X047014Y040214D01*X046918Y040161D02*X046886Y040098D01*X046854Y039981D01*
X046854Y039822D01*X046886Y039705D01*X046918Y039642D01*X047177Y039642D02*
X047209Y039705D01*X047241Y039822D01*X047241Y039981D01*X047209Y040098D01*
X047177Y040161D01*X047014Y040214D02*X046950Y040193D01*X046918Y040130D01*
X046886Y039981D01*X046886Y039822D01*X046918Y039673D01*X046950Y039610D01*
X047014Y039578D01*X047082Y039578D02*X047146Y039610D01*X047177Y039673D01*
X047209Y039822D01*X047209Y039981D01*X047177Y040130D01*X047146Y040193D01*
X047082Y040214D01*X047727Y040161D02*X047727Y039578D01*X047745Y040161D02*
X047745Y039610D01*X047759Y040214D02*X047759Y039578D01*X047759Y040214D02*
X047714Y040130D01*X047686Y040098D01*X047673Y039578D02*X047818Y039578D01*
X047727Y039610D02*X047700Y039578D01*X047727Y039642D02*X047714Y039578D01*
X047759Y039642D02*X047773Y039578D01*X047759Y039610D02*X047786Y039578D01*
X048577Y040130D02*X048577Y040098D01*X048609Y040098D01*X048609Y040130D01*
X048577Y040130D01*X048609Y040161D02*X048577Y040161D01*X048546Y040130D01*
X048546Y040098D01*X048577Y040066D01*X048609Y040066D01*X048641Y040098D01*
X048641Y040130D01*X048609Y040193D01*X048546Y040214D01*X048450Y040214D01*
X048350Y040193D01*X048286Y040130D01*X048254Y040066D01*X048223Y039949D01*
X048223Y039758D01*X048254Y039673D01*X048318Y039610D01*X048414Y039578D01*
X048482Y039578D01*X048577Y039610D01*X048641Y039673D01*X048678Y039758D01*
X048678Y039790D01*X048641Y039886D01*X048577Y039949D01*X048482Y039981D01*
X048414Y039981D01*X048350Y039949D01*X048318Y039917D01*X048286Y039854D01*
X048318Y040130D02*X048286Y040066D01*X048254Y039949D01*X048254Y039758D01*
X048286Y039673D01*X048318Y039642D01*X048609Y039673D02*X048641Y039727D01*
X048641Y039822D01*X048609Y039886D01*X048450Y040214D02*X048382Y040193D01*
X048350Y040161D01*X048318Y040098D01*X048286Y039981D01*X048286Y039758D01*
X048318Y039673D01*X048350Y039610D01*X048414Y039578D01*X048482Y039578D02*
X048546Y039610D01*X048577Y039642D01*X048609Y039727D01*X048609Y039822D01*
X048577Y039917D01*X048546Y039949D01*X048482Y039981D01*X048923Y039886D02*
X049378Y039886D01*X049378Y039854D01*X048923Y039886D02*X048923Y039854D01*
X049378Y039854D01*X049827Y040161D02*X049827Y039578D01*X049845Y040161D02*
X049845Y039610D01*X049859Y040214D02*X049859Y039578D01*X049859Y040214D02*
X049814Y040130D01*X049786Y040098D01*X049773Y039578D02*X049918Y039578D01*
X049827Y039610D02*X049800Y039578D01*X049827Y039642D02*X049814Y039578D01*
X049859Y039642D02*X049873Y039578D01*X049859Y039610D02*X049886Y039578D01*
X050354Y040098D02*X050354Y040066D01*X050386Y040066D01*X050386Y040098D01*
X050354Y040098D01*X050354Y040130D02*X050386Y040130D01*X050418Y040098D01*
X050418Y040066D01*X050386Y040034D01*X050354Y040034D01*X050322Y040066D01*
X050322Y040098D01*X050354Y040161D01*X050386Y040193D01*X050482Y040214D01*
X050614Y040214D01*X050709Y040193D01*X050741Y040161D01*X050777Y040098D01*
X050777Y040034D01*X050741Y039981D01*X050646Y039917D01*X050482Y039854D01*
X050418Y039822D01*X050354Y039758D01*X050322Y039673D01*X050322Y039578D01*
X050709Y040161D02*X050741Y040098D01*X050741Y040034D01*X050709Y039981D01*
X050614Y040214D02*X050677Y040193D01*X050709Y040098D01*X050709Y040034D01*
X050677Y039981D01*X050614Y039917D01*X050482Y039854D01*X050322Y039642D02*
X050354Y039673D01*X050418Y039673D01*X050577Y039642D01*X050709Y039642D01*
X050777Y039673D01*X050418Y039673D02*X050577Y039610D01*X050709Y039610D01*
X050741Y039642D01*X050418Y039673D02*X050577Y039578D01*X050709Y039578D01*
X050741Y039610D01*X050777Y039673D01*X050777Y039727D01*X051022Y039886D02*
X051477Y039886D01*X051477Y039854D01*X051022Y039886D02*X051022Y039854D01*
X051477Y039854D01*X051754Y040098D02*X051754Y040066D01*X051786Y040066D01*
X051786Y040098D01*X051754Y040098D01*X051754Y040130D02*X051786Y040130D01*
X051818Y040098D01*X051818Y040066D01*X051786Y040034D01*X051754Y040034D01*
X051722Y040066D01*X051722Y040098D01*X051754Y040161D01*X051786Y040193D01*
X051882Y040214D01*X052014Y040214D01*X052109Y040193D01*X052141Y040161D01*
X052177Y040098D01*X052177Y040034D01*X052141Y039981D01*X052046Y039917D01*
X051882Y039854D01*X051818Y039822D01*X051754Y039758D01*X051722Y039673D01*
X051722Y039578D01*X052109Y040161D02*X052141Y040098D01*X052141Y040034D01*
X052109Y039981D01*X052014Y040214D02*X052077Y040193D01*X052109Y040098D01*
X052109Y040034D01*X052077Y039981D01*X052014Y039917D01*X051882Y039854D01*
X051722Y039642D02*X051754Y039673D01*X051818Y039673D01*X051977Y039642D01*
X052109Y039642D01*X052177Y039673D01*X051818Y039673D02*X051977Y039610D01*
X052109Y039610D01*X052141Y039642D01*X051818Y039673D02*X051977Y039578D01*
X052109Y039578D01*X052141Y039610D01*X052177Y039673D01*X052177Y039727D01*
X052582Y040214D02*X052486Y040193D01*X052454Y040130D01*X052454Y040034D01*
X052486Y039981D01*X052582Y039949D01*X052714Y039949D01*X052809Y039981D01*
X052841Y040034D01*X052841Y040130D01*X052809Y040193D01*X052714Y040214D01*
X052582Y040214D01*X052518Y040193D02*X052486Y040130D01*X052486Y040034D01*
X052518Y039981D01*X052777Y039981D02*X052809Y040034D01*X052809Y040130D01*
X052777Y040193D01*X052582Y040214D02*X052550Y040193D01*X052518Y040130D01*
X052518Y040034D01*X052550Y039981D01*X052582Y039949D01*X052714Y039949D02*
X052746Y039981D01*X052777Y040034D01*X052777Y040130D01*X052746Y040193D01*
X052714Y040214D01*X052582Y039949D02*X052486Y039917D01*X052454Y039886D01*
X052422Y039822D01*X052422Y039705D01*X052454Y039642D01*X052486Y039610D01*
X052582Y039578D01*X052714Y039578D01*X052809Y039610D01*X052841Y039642D01*
X052877Y039705D01*X052877Y039822D01*X052841Y039886D01*X052809Y039917D01*
X052714Y039949D01*X052486Y039886D02*X052454Y039822D01*X052454Y039705D01*
X052486Y039642D01*X052809Y039642D02*X052841Y039705D01*X052841Y039822D01*
X052809Y039886D01*X052582Y039949D02*X052518Y039917D01*X052486Y039822D01*
X052486Y039705D01*X052518Y039610D01*X052582Y039578D01*X052714Y039578D02*
X052777Y039610D01*X052809Y039705D01*X052809Y039822D01*X052777Y039917D01*
X052714Y039949D01*X048300Y041964D02*X048300Y041328D01*X048327Y041943D02*
X048327Y041360D01*X048354Y041964D02*X048354Y041328D01*X048223Y041964D02*
X048486Y041964D01*X048568Y041943D01*X048623Y041880D01*X048650Y041816D01*
X048678Y041731D01*X048678Y041572D01*X048650Y041477D01*X048623Y041423D01*
X048568Y041360D01*X048486Y041328D01*X048223Y041328D01*X048596Y041880D02*
X048623Y041816D01*X048650Y041731D01*X048650Y041572D01*X048623Y041477D01*
X048596Y041423D01*X048486Y041964D02*X048541Y041943D01*X048596Y041848D01*
X048623Y041731D01*X048623Y041572D01*X048596Y041455D01*X048541Y041360D01*
X048486Y041328D01*X048245Y041964D02*X048300Y041943D01*X048273Y041964D02*
X048300Y041911D01*X048382Y041964D02*X048354Y041911D01*X048409Y041964D02*
X048354Y041943D01*X048300Y041360D02*X048245Y041328D01*X048300Y041392D02*
X048273Y041328D01*X048354Y041392D02*X048382Y041328D01*X048354Y041360D02*
X048409Y041328D01*X049150Y041964D02*X048973Y041360D01*X049123Y041880D02*
X049273Y041328D01*X049150Y041880D02*X049300Y041328D01*X049150Y041964D02*
X049323Y041328D01*X049023Y041508D02*X049250Y041508D01*X048923Y041328D02*
X049073Y041328D01*X049200Y041328D02*X049378Y041328D01*X048973Y041360D02*
X048945Y041328D01*X048973Y041360D02*X049023Y041328D01*X049273Y041360D02*
X049223Y041328D01*X049273Y041392D02*X049250Y041328D01*X049300Y041392D02*
X049350Y041328D01*X049623Y041964D02*X049623Y041784D01*X049818Y041964D02*
X049818Y041328D01*X049850Y041943D02*X049850Y041360D01*X049877Y041964D02*
X049877Y041328D01*X050077Y041964D02*X050077Y041784D01*X049623Y041964D02*
X050077Y041964D01*X049736Y041328D02*X049959Y041328D01*X049650Y041964D02*
X049623Y041784D01*X049677Y041964D02*X049623Y041880D01*X049704Y041964D02*
X049623Y041911D01*X049764Y041964D02*X049623Y041943D01*X049932Y041964D02*
X050077Y041943D01*X049991Y041964D02*X050077Y041911D01*X050018Y041964D02*
X050077Y041880D01*X050046Y041964D02*X050077Y041784D01*X049818Y041360D02*
X049764Y041328D01*X049818Y041392D02*X049791Y041328D01*X049877Y041392D02*
X049905Y041328D01*X049877Y041360D02*X049932Y041328D01*X050404Y041964D02*
X050404Y041328D01*X050432Y041943D02*X050432Y041360D01*X050464Y041964D02*
X050464Y041328D01*X050322Y041964D02*X050777Y041964D01*X050777Y041784D01*
X050464Y041667D02*X050632Y041667D01*X050632Y041784D02*X050632Y041540D01*
X050322Y041328D02*X050777Y041328D01*X050777Y041508D01*X050350Y041964D02*
X050404Y041943D01*X050377Y041964D02*X050404Y041911D01*X050491Y041964D02*
X050464Y041911D01*X050518Y041964D02*X050464Y041943D01*X050632Y041964D02*
X050777Y041943D01*X050691Y041964D02*X050777Y041911D01*X050718Y041964D02*
X050777Y041880D01*X050746Y041964D02*X050777Y041784D01*X050632Y041784D02*
X050605Y041667D01*X050632Y041540D01*X050632Y041731D02*X050577Y041667D01*
X050632Y041604D01*X050632Y041699D02*X050518Y041667D01*X050632Y041636D01*
X050404Y041360D02*X050350Y041328D01*X050404Y041392D02*X050377Y041328D01*
X050464Y041392D02*X050491Y041328D01*X050464Y041360D02*X050518Y041328D01*
X050632Y041328D02*X050777Y041360D01*X050691Y041328D02*X050777Y041392D01*
X050718Y041328D02*X050777Y041423D01*X050746Y041328D02*X050777Y041508D01*
X035714Y041964D02*X035714Y041328D01*X035741Y041943D02*X035741Y041360D01*
X035773Y041964D02*X035773Y041328D01*X035623Y041964D02*X035864Y041964D01*
X035623Y041328D02*X036078Y041328D01*X036078Y041508D01*X035650Y041964D02*
X035714Y041943D01*X035682Y041964D02*X035714Y041911D01*X035805Y041964D02*
X035773Y041911D01*X035832Y041964D02*X035773Y041943D01*X035714Y041360D02*
X035650Y041328D01*X035714Y041392D02*X035682Y041328D01*X035773Y041392D02*
X035805Y041328D01*X035773Y041360D02*X035832Y041328D01*X035923Y041328D02*
X036078Y041360D01*X035982Y041328D02*X036078Y041392D01*X036014Y041328D02*
X036078Y041423D01*X036046Y041328D02*X036078Y041508D01*X036550Y041964D02*
X036373Y041360D01*X036523Y041880D02*X036673Y041328D01*X036550Y041880D02*
X036700Y041328D01*X036550Y041964D02*X036723Y041328D01*X036423Y041508D02*
X036650Y041508D01*X036323Y041328D02*X036473Y041328D01*X036600Y041328D02*
X036778Y041328D01*X036373Y041360D02*X036345Y041328D01*X036373Y041360D02*
X036423Y041328D01*X036673Y041360D02*X036623Y041328D01*X036673Y041392D02*
X036650Y041328D01*X036700Y041392D02*X036750Y041328D01*X037068Y041964D02*
X037223Y041636D01*X037223Y041328D01*X037091Y041964D02*X037245Y041636D01*
X037245Y041360D01*X037109Y041964D02*X037273Y041636D01*X037273Y041328D01*
X037405Y041943D02*X037273Y041636D01*X037023Y041964D02*X037182Y041964D01*
X037336Y041964D02*X037478Y041964D01*X037159Y041328D02*X037336Y041328D01*
X037045Y041964D02*X037091Y041943D01*X037159Y041964D02*X037109Y041943D01*
X037364Y041964D02*X037405Y041943D01*X037450Y041964D02*X037405Y041943D01*
X037223Y041360D02*X037182Y041328D01*X037223Y041392D02*X037200Y041328D01*
X037273Y041392D02*X037291Y041328D01*X037273Y041360D02*X037314Y041328D01*
X037804Y041964D02*X037804Y041328D01*X037832Y041943D02*X037832Y041360D01*
X037864Y041964D02*X037864Y041328D01*X037723Y041964D02*X038178Y041964D01*
X038178Y041784D01*X037864Y041667D02*X038032Y041667D01*X038032Y041784D02*
X038032Y041540D01*X037723Y041328D02*X038178Y041328D01*X038178Y041508D01*
X037750Y041964D02*X037804Y041943D01*X037777Y041964D02*X037804Y041911D01*
X037891Y041964D02*X037864Y041911D01*X037918Y041964D02*X037864Y041943D01*
X038032Y041964D02*X038178Y041943D01*X038091Y041964D02*X038178Y041911D01*
X038118Y041964D02*X038178Y041880D01*X038146Y041964D02*X038178Y041784D01*
X038032Y041784D02*X038005Y041667D01*X038032Y041540D01*X038032Y041731D02*
X037977Y041667D01*X038032Y041604D01*X038032Y041699D02*X037918Y041667D01*
X038032Y041636D01*X037804Y041360D02*X037750Y041328D01*X037804Y041392D02*
X037777Y041328D01*X037864Y041392D02*X037891Y041328D01*X037864Y041360D02*
X037918Y041328D01*X038032Y041328D02*X038178Y041360D01*X038091Y041328D02*
X038178Y041392D01*X038118Y041328D02*X038178Y041423D01*X038146Y041328D02*
X038178Y041508D01*X038495Y041964D02*X038495Y041328D01*X038523Y041943D02*
X038523Y041360D01*X038545Y041964D02*X038545Y041328D01*X038423Y041964D02*
X038723Y041964D01*X038800Y041943D01*X038823Y041911D01*X038850Y041848D01*
X038850Y041784D01*X038823Y041731D01*X038800Y041699D01*X038723Y041667D01*
X038545Y041667D01*X038800Y041911D02*X038823Y041848D01*X038823Y041784D01*
X038800Y041731D01*X038723Y041964D02*X038773Y041943D01*X038800Y041880D01*
X038800Y041752D01*X038773Y041699D01*X038723Y041667D01*X038645Y041667D02*
X038700Y041636D01*X038723Y041572D01*X038773Y041392D01*X038800Y041328D01*
X038850Y041328D01*X038878Y041392D01*X038878Y041455D01*X038773Y041455D02*
X038800Y041392D01*X038823Y041360D01*X038850Y041360D01*X038700Y041636D02*
X038723Y041604D01*X038800Y041423D01*X038823Y041392D01*X038850Y041392D01*
X038878Y041423D01*X038423Y041328D02*X038623Y041328D01*X038445Y041964D02*
X038495Y041943D01*X038473Y041964D02*X038495Y041911D01*X038573Y041964D02*
X038545Y041911D01*X038595Y041964D02*X038545Y041943D01*X038495Y041360D02*
X038445Y041328D01*X038495Y041392D02*X038473Y041328D01*X038545Y041392D02*
X038573Y041328D01*X038545Y041360D02*X038595Y041328D01*X039886Y041964D02*
X039886Y041360D01*X039886Y041964D02*X040205Y041328D01*X039913Y041964D02*
X040182Y041423D01*X039932Y041964D02*X040205Y041423D01*X040205Y041943D02*
X040205Y041328D01*X039822Y041964D02*X039932Y041964D01*X040141Y041964D02*
X040277Y041964D01*X039822Y041328D02*X039954Y041328D01*X039841Y041964D02*
X039886Y041943D01*X040164Y041964D02*X040205Y041943D01*X040255Y041964D02*
X040205Y041943D01*X039886Y041360D02*X039841Y041328D01*X039886Y041360D02*
X039932Y041328D01*X040750Y041964D02*X040573Y041360D01*X040723Y041880D02*
X040873Y041328D01*X040750Y041880D02*X040900Y041328D01*X040750Y041964D02*
X040923Y041328D01*X040623Y041508D02*X040850Y041508D01*X040522Y041328D02*
X040673Y041328D01*X040800Y041328D02*X040977Y041328D01*X040573Y041360D02*
X040545Y041328D01*X040573Y041360D02*X040623Y041328D01*X040873Y041360D02*
X040823Y041328D01*X040873Y041392D02*X040850Y041328D01*X040900Y041392D02*
X040950Y041328D01*X041282Y041964D02*X041282Y041360D01*X041282Y041964D02*
X041427Y041328D01*X041304Y041964D02*X041427Y041423D01*X041323Y041964D02*
X041445Y041423D01*X041573Y041964D02*X041427Y041328D01*X041573Y041964D02*
X041573Y041328D01*X041591Y041943D02*X041591Y041360D01*X041614Y041964D02*
X041614Y041328D01*X041222Y041964D02*X041323Y041964D01*X041573Y041964D02*
X041677Y041964D01*X041222Y041328D02*X041345Y041328D01*X041509Y041328D02*
X041677Y041328D01*X041241Y041964D02*X041282Y041943D01*X041632Y041964D02*
X041614Y041911D01*X041655Y041964D02*X041614Y041943D01*X041282Y041360D02*
X041241Y041328D01*X041282Y041360D02*X041323Y041328D01*X041573Y041360D02*
X041532Y041328D01*X041573Y041392D02*X041550Y041328D01*X041614Y041392D02*
X041632Y041328D01*X041614Y041360D02*X041655Y041328D01*X042004Y041964D02*
X042004Y041328D01*X042032Y041943D02*X042032Y041360D01*X042064Y041964D02*
X042064Y041328D01*X041922Y041964D02*X042377Y041964D01*X042377Y041784D01*
X042064Y041667D02*X042232Y041667D01*X042232Y041784D02*X042232Y041540D01*
X041922Y041328D02*X042377Y041328D01*X042377Y041508D01*X041950Y041964D02*
X042004Y041943D01*X041977Y041964D02*X042004Y041911D01*X042091Y041964D02*
X042064Y041911D01*X042118Y041964D02*X042064Y041943D01*X042232Y041964D02*
X042377Y041943D01*X042291Y041964D02*X042377Y041911D01*X042318Y041964D02*
X042377Y041880D01*X042346Y041964D02*X042377Y041784D01*X042232Y041784D02*
X042205Y041667D01*X042232Y041540D01*X042232Y041731D02*X042177Y041667D01*
X042232Y041604D01*X042232Y041699D02*X042118Y041667D01*X042232Y041636D01*
X042004Y041360D02*X041950Y041328D01*X042004Y041392D02*X041977Y041328D01*
X042064Y041392D02*X042091Y041328D01*X042064Y041360D02*X042118Y041328D01*
X042232Y041328D02*X042377Y041360D01*X042291Y041328D02*X042377Y041392D01*
X042318Y041328D02*X042377Y041423D01*X042346Y041328D02*X042377Y041508D01*
X023432Y041964D02*X023432Y041360D01*X023432Y041964D02*X023577Y041328D01*
X023454Y041964D02*X023577Y041423D01*X023473Y041964D02*X023596Y041423D01*
X023723Y041964D02*X023577Y041328D01*X023723Y041964D02*X023723Y041328D01*
X023741Y041943D02*X023741Y041360D01*X023764Y041964D02*X023764Y041328D01*
X023373Y041964D02*X023473Y041964D01*X023723Y041964D02*X023828Y041964D01*
X023373Y041328D02*X023495Y041328D01*X023659Y041328D02*X023828Y041328D01*
X023391Y041964D02*X023432Y041943D01*X023782Y041964D02*X023764Y041911D01*
X023805Y041964D02*X023764Y041943D01*X023432Y041360D02*X023391Y041328D01*
X023432Y041360D02*X023473Y041328D01*X023723Y041360D02*X023682Y041328D01*
X023723Y041392D02*X023700Y041328D01*X023764Y041392D02*X023782Y041328D01*
X023764Y041360D02*X023805Y041328D01*X024268Y041964D02*X024186Y041943D01*
X024127Y041880D01*X024100Y041816D01*X024073Y041699D01*X024073Y041604D01*
X024100Y041477D01*X024127Y041423D01*X024186Y041360D01*X024268Y041328D01*
X024327Y041328D01*X024414Y041360D01*X024468Y041423D01*X024496Y041477D01*
X024528Y041604D01*X024528Y041699D01*X024496Y041816D01*X024468Y041880D01*
X024414Y041943D01*X024327Y041964D01*X024268Y041964D01*X024154Y041880D02*
X024127Y041816D01*X024100Y041731D01*X024100Y041572D01*X024127Y041477D01*
X024154Y041423D01*X024441Y041423D02*X024468Y041477D01*X024496Y041572D01*
X024496Y041731D01*X024468Y041816D01*X024441Y041880D01*X024268Y041964D02*
X024214Y041943D01*X024154Y041848D01*X024127Y041731D01*X024127Y041572D01*
X024154Y041455D01*X024214Y041360D01*X024268Y041328D01*X024327Y041328D02*
X024382Y041360D01*X024441Y041455D01*X024468Y041572D01*X024468Y041731D01*
X024441Y041848D01*X024382Y041943D01*X024327Y041964D01*X024850Y041964D02*
X024850Y041328D01*X024877Y041943D02*X024877Y041360D01*X024904Y041964D02*
X024904Y041328D01*X024773Y041964D02*X025036Y041964D01*X025118Y041943D01*
X025173Y041880D01*X025200Y041816D01*X025228Y041731D01*X025228Y041572D01*
X025200Y041477D01*X025173Y041423D01*X025118Y041360D01*X025036Y041328D01*
X024773Y041328D01*X025146Y041880D02*X025173Y041816D01*X025200Y041731D01*
X025200Y041572D01*X025173Y041477D01*X025146Y041423D01*X025036Y041964D02*
X025091Y041943D01*X025146Y041848D01*X025173Y041731D01*X025173Y041572D01*
X025146Y041455D01*X025091Y041360D01*X025036Y041328D01*X024795Y041964D02*
X024850Y041943D01*X024823Y041964D02*X024850Y041911D01*X024932Y041964D02*
X024904Y041911D01*X024959Y041964D02*X024904Y041943D01*X024850Y041360D02*
X024795Y041328D01*X024850Y041392D02*X024823Y041328D01*X024904Y041392D02*
X024932Y041328D01*X024904Y041360D02*X024959Y041328D01*X025554Y041964D02*
X025554Y041328D01*X025582Y041943D02*X025582Y041360D01*X025614Y041964D02*
X025614Y041328D01*X025473Y041964D02*X025928Y041964D01*X025928Y041784D01*
X025614Y041667D02*X025782Y041667D01*X025782Y041784D02*X025782Y041540D01*
X025473Y041328D02*X025928Y041328D01*X025928Y041508D01*X025500Y041964D02*
X025554Y041943D01*X025527Y041964D02*X025554Y041911D01*X025641Y041964D02*
X025614Y041911D01*X025668Y041964D02*X025614Y041943D01*X025782Y041964D02*
X025928Y041943D01*X025841Y041964D02*X025928Y041911D01*X025868Y041964D02*
X025928Y041880D01*X025896Y041964D02*X025928Y041784D01*X025782Y041784D02*
X025755Y041667D01*X025782Y041540D01*X025782Y041731D02*X025727Y041667D01*
X025782Y041604D01*X025782Y041699D02*X025668Y041667D01*X025782Y041636D01*
X025554Y041360D02*X025500Y041328D01*X025554Y041392D02*X025527Y041328D01*
X025614Y041392D02*X025641Y041328D01*X025614Y041360D02*X025668Y041328D01*
X025782Y041328D02*X025928Y041360D01*X025841Y041328D02*X025928Y041392D01*
X025868Y041328D02*X025928Y041423D01*X025896Y041328D02*X025928Y041508D01*
X026264Y041964D02*X026264Y041328D01*X026291Y041943D02*X026291Y041360D01*
X026323Y041964D02*X026323Y041328D01*X026173Y041964D02*X026414Y041964D01*
X026173Y041328D02*X026628Y041328D01*X026628Y041508D01*X026200Y041964D02*
X026264Y041943D01*X026232Y041964D02*X026264Y041911D01*X026355Y041964D02*
X026323Y041911D01*X026382Y041964D02*X026323Y041943D01*X026264Y041360D02*
X026200Y041328D01*X026264Y041392D02*X026232Y041328D01*X026323Y041392D02*
X026355Y041328D01*X026323Y041360D02*X026382Y041328D01*X026473Y041328D02*
X026628Y041360D01*X026532Y041328D02*X026628Y041392D01*X026564Y041328D02*
X026628Y041423D01*X026596Y041328D02*X026628Y041508D01*X027636Y041964D02*
X027636Y041360D01*X027636Y041964D02*X027955Y041328D01*X027663Y041964D02*
X027932Y041423D01*X027682Y041964D02*X027955Y041423D01*X027955Y041943D02*
X027955Y041328D01*X027572Y041964D02*X027682Y041964D01*X027891Y041964D02*
X028027Y041964D01*X027572Y041328D02*X027704Y041328D01*X027591Y041964D02*
X027636Y041943D01*X027914Y041964D02*X027955Y041943D01*X028005Y041964D02*
X027955Y041943D01*X027636Y041360D02*X027591Y041328D01*X027636Y041360D02*
X027682Y041328D01*X028500Y041964D02*X028323Y041360D01*X028473Y041880D02*
X028623Y041328D01*X028500Y041880D02*X028650Y041328D01*X028500Y041964D02*
X028673Y041328D01*X028373Y041508D02*X028600Y041508D01*X028272Y041328D02*
X028423Y041328D01*X028550Y041328D02*X028727Y041328D01*X028323Y041360D02*
X028295Y041328D01*X028323Y041360D02*X028373Y041328D01*X028623Y041360D02*
X028573Y041328D01*X028623Y041392D02*X028600Y041328D01*X028650Y041392D02*
X028700Y041328D01*X029032Y041964D02*X029032Y041360D01*X029032Y041964D02*
X029177Y041328D01*X029054Y041964D02*X029177Y041423D01*X029073Y041964D02*
X029195Y041423D01*X029323Y041964D02*X029177Y041328D01*X029323Y041964D02*
X029323Y041328D01*X029341Y041943D02*X029341Y041360D01*X029364Y041964D02*
X029364Y041328D01*X028972Y041964D02*X029073Y041964D01*X029323Y041964D02*
X029427Y041964D01*X028972Y041328D02*X029095Y041328D01*X029259Y041328D02*
X029427Y041328D01*X028991Y041964D02*X029032Y041943D01*X029382Y041964D02*
X029364Y041911D01*X029405Y041964D02*X029364Y041943D01*X029032Y041360D02*
X028991Y041328D01*X029032Y041360D02*X029073Y041328D01*X029323Y041360D02*
X029282Y041328D01*X029323Y041392D02*X029300Y041328D01*X029364Y041392D02*
X029382Y041328D01*X029364Y041360D02*X029405Y041328D01*X029754Y041964D02*
X029754Y041328D01*X029782Y041943D02*X029782Y041360D01*X029814Y041964D02*
X029814Y041328D01*X029672Y041964D02*X030127Y041964D01*X030127Y041784D01*
X029814Y041667D02*X029982Y041667D01*X029982Y041784D02*X029982Y041540D01*
X029672Y041328D02*X030127Y041328D01*X030127Y041508D01*X029700Y041964D02*
X029754Y041943D01*X029727Y041964D02*X029754Y041911D01*X029841Y041964D02*
X029814Y041911D01*X029868Y041964D02*X029814Y041943D01*X029982Y041964D02*
X030127Y041943D01*X030041Y041964D02*X030127Y041911D01*X030068Y041964D02*
X030127Y041880D01*X030096Y041964D02*X030127Y041784D01*X029982Y041784D02*
X029955Y041667D01*X029982Y041540D01*X029982Y041731D02*X029927Y041667D01*
X029982Y041604D01*X029982Y041699D02*X029868Y041667D01*X029982Y041636D01*
X029754Y041360D02*X029700Y041328D01*X029754Y041392D02*X029727Y041328D01*
X029814Y041392D02*X029841Y041328D01*X029814Y041360D02*X029868Y041328D01*
X029982Y041328D02*X030127Y041360D01*X030041Y041328D02*X030127Y041392D01*
X030068Y041328D02*X030127Y041423D01*X030096Y041328D02*X030127Y041508D01*
X026232Y040214D02*X026314Y039578D01*X026254Y040214D02*X026314Y039727D01*
X026314Y039578D01*X026273Y040214D02*X026336Y039727D01*X026400Y040214D02*
X026336Y039727D01*X026314Y039578D01*X026400Y040214D02*X026482Y039578D01*
X026418Y040214D02*X026482Y039727D01*X026482Y039578D01*X026441Y040214D02*
X026500Y039727D01*X026564Y040193D02*X026500Y039727D01*X026482Y039578D01*
X026173Y040214D02*X026336Y040214D01*X026400Y040214D02*X026441Y040214D01*
X026500Y040214D02*X026628Y040214D01*X026191Y040214D02*X026254Y040193D01*
X026213Y040214D02*X026254Y040161D01*X026295Y040214D02*X026273Y040161D01*
X026314Y040214D02*X026273Y040193D01*X026523Y040214D02*X026564Y040193D01*
X026605Y040214D02*X026564Y040193D01*X026950Y040214D02*X026950Y039578D01*
X026977Y040193D02*X026977Y039610D01*X027004Y040214D02*X027004Y039578D01*
X026873Y040214D02*X027191Y040214D01*X027273Y040193D01*X027296Y040161D01*
X027327Y040098D01*X027327Y040034D01*X027296Y039981D01*X027273Y039949D01*
X027191Y039917D01*X027273Y040161D02*X027296Y040098D01*X027296Y040034D01*
X027273Y039981D01*X027191Y040214D02*X027246Y040193D01*X027273Y040130D01*
X027273Y040002D01*X027246Y039949D01*X027191Y039917D01*X027004Y039917D02*
X027191Y039917D01*X027273Y039886D01*X027296Y039854D01*X027327Y039790D01*
X027327Y039705D01*X027296Y039642D01*X027273Y039610D01*X027191Y039578D01*
X026873Y039578D01*X027273Y039854D02*X027296Y039790D01*X027296Y039705D01*
X027273Y039642D01*X027191Y039917D02*X027246Y039886D01*X027273Y039822D01*
X027273Y039673D01*X027246Y039610D01*X027191Y039578D01*X026895Y040214D02*
X026950Y040193D01*X026923Y040214D02*X026950Y040161D01*X027032Y040214D02*
X027004Y040161D01*X027059Y040214D02*X027004Y040193D01*X026950Y039610D02*
X026895Y039578D01*X026950Y039642D02*X026923Y039578D01*X027004Y039642D02*
X027032Y039578D01*X027004Y039610D02*X027059Y039578D01*X038146Y040130D02*
X038178Y040214D01*X038178Y040034D01*X038146Y040130D01*X038082Y040193D01*
X038023Y040214D01*X037932Y040214D01*X037841Y040193D01*X037782Y040130D01*
X037750Y040066D01*X037723Y039981D01*X037723Y039822D01*X037750Y039727D01*
X037782Y039673D01*X037841Y039610D01*X037932Y039578D01*X038023Y039578D01*
X038082Y039610D01*X038146Y039673D01*X038178Y039727D01*X037809Y040130D02*
X037782Y040066D01*X037750Y039981D01*X037750Y039822D01*X037782Y039727D01*
X037809Y039673D01*X037932Y040214D02*X037873Y040193D01*X037809Y040098D01*
X037782Y039981D01*X037782Y039822D01*X037809Y039705D01*X037873Y039610D01*
X037932Y039578D01*X038618Y040214D02*X038536Y040193D01*X038477Y040130D01*
X038450Y040066D01*X038423Y039949D01*X038423Y039854D01*X038450Y039727D01*
X038477Y039673D01*X038536Y039610D01*X038618Y039578D01*X038677Y039578D01*
X038764Y039610D01*X038818Y039673D01*X038846Y039727D01*X038878Y039854D01*
X038878Y039949D01*X038846Y040066D01*X038818Y040130D01*X038764Y040193D01*
X038677Y040214D01*X038618Y040214D01*X038504Y040130D02*X038477Y040066D01*
X038450Y039981D01*X038450Y039822D01*X038477Y039727D01*X038504Y039673D01*
X038791Y039673D02*X038818Y039727D01*X038846Y039822D01*X038846Y039981D01*
X038818Y040066D01*X038791Y040130D01*X038618Y040214D02*X038564Y040193D01*
X038504Y040098D01*X038477Y039981D01*X038477Y039822D01*X038504Y039705D01*
X038564Y039610D01*X038618Y039578D01*X038677Y039578D02*X038732Y039610D01*
X038791Y039705D01*X038818Y039822D01*X038818Y039981D01*X038791Y040098D01*
X038732Y040193D01*X038677Y040214D01*X039182Y040214D02*X039182Y039610D01*
X039182Y040214D02*X039327Y039578D01*X039204Y040214D02*X039327Y039673D01*
X039223Y040214D02*X039345Y039673D01*X039473Y040214D02*X039327Y039578D01*
X039473Y040214D02*X039473Y039578D01*X039491Y040193D02*X039491Y039610D01*
X039514Y040214D02*X039514Y039578D01*X039123Y040214D02*X039223Y040214D01*
X039473Y040214D02*X039577Y040214D01*X039123Y039578D02*X039245Y039578D01*
X039409Y039578D02*X039577Y039578D01*X039141Y040214D02*X039182Y040193D01*
X039532Y040214D02*X039514Y040161D01*X039555Y040214D02*X039514Y040193D01*
X039182Y039610D02*X039141Y039578D01*X039182Y039610D02*X039223Y039578D01*
X039473Y039610D02*X039432Y039578D01*X039473Y039642D02*X039450Y039578D01*
X039514Y039642D02*X039532Y039578D01*X039514Y039610D02*X039555Y039578D01*
X039900Y040214D02*X039900Y039578D01*X039927Y040193D02*X039927Y039610D01*
X039954Y040214D02*X039954Y039578D01*X039822Y040214D02*X040141Y040214D01*
X040223Y040193D01*X040246Y040161D01*X040277Y040098D01*X040277Y040002D01*
X040246Y039949D01*X040223Y039917D01*X040141Y039886D01*X039954Y039886D01*
X040223Y040161D02*X040246Y040098D01*X040246Y040002D01*X040223Y039949D01*
X040141Y040214D02*X040196Y040193D01*X040223Y040130D01*X040223Y039981D01*
X040196Y039917D01*X040141Y039886D01*X039822Y039578D02*X040036Y039578D01*
X039845Y040214D02*X039900Y040193D01*X039873Y040214D02*X039900Y040161D01*
X039982Y040214D02*X039954Y040161D01*X040009Y040214D02*X039954Y040193D01*
X039900Y039610D02*X039845Y039578D01*X039900Y039642D02*X039873Y039578D01*
X039954Y039642D02*X039982Y039578D01*X039954Y039610D02*X040009Y039578D01*
X000000Y000000D02*D02*G54D20*X009790Y003000D03*X012330Y003000D03*
X020040Y003000D03*X022580Y003000D03*X025120Y003000D03*X027660Y003000D03*
X003000Y011040D03*X017500Y011625D03*X022000Y010000D03*X020500Y011625D03*
X019000Y010000D03*X054000Y011040D03*X003000Y013580D03*X054000Y013580D03*
X003000Y016120D03*X054000Y016120D03*X003000Y018660D03*X054000Y018660D03*
X003000Y021200D03*X003000Y023740D03*X054000Y021200D03*X054000Y023740D03*
X003000Y026280D03*X054000Y026280D03*X030330Y032000D03*X027790Y032000D03*
X032870Y032000D03*X035410Y032000D03*X037950Y032000D03*D02*G54D128*
X000600Y000600D02*X056400Y000600D01*X056400Y000600D02*X056400Y034400D01*
X056400Y034400D02*X000600Y034400D01*X000600Y034400D02*X000600Y000600D01*
X002586Y025280D02*X003414Y025280D01*X003414Y025280D02*X004000Y025866D01*
X004000Y025866D02*X004000Y026694D01*X004000Y026694D02*X003414Y027280D01*
X003414Y027280D02*X002586Y027280D01*X002586Y027280D02*X002000Y026694D01*
X002000Y026694D02*X002000Y025866D01*X002000Y025866D02*X002586Y025280D01*
X002586Y022740D02*X003414Y022740D01*X003414Y022740D02*X004000Y023326D01*
X004000Y023326D02*X004000Y024154D01*X004000Y024154D02*X003414Y024740D01*
X003414Y024740D02*X002586Y024740D01*X002586Y024740D02*X002000Y024154D01*
X002000Y024154D02*X002000Y023326D01*X002000Y023326D02*X002586Y022740D01*
X002586Y017660D02*X003414Y017660D01*X003414Y017660D02*X004000Y018246D01*
X004000Y018246D02*X004000Y019074D01*X004000Y019074D02*X003414Y019660D01*
X003414Y019660D02*X002586Y019660D01*X002586Y019660D02*X002000Y019074D01*
X002000Y019074D02*X002000Y018246D01*X002000Y018246D02*X002586Y017660D01*
X002586Y015120D02*X003414Y015120D01*X003414Y015120D02*X004000Y015706D01*
X004000Y015706D02*X004000Y016534D01*X004000Y016534D02*X003414Y017120D01*
X003414Y017120D02*X002586Y017120D01*X002586Y017120D02*X002000Y016534D01*
X002000Y016534D02*X002000Y015706D01*X002000Y015706D02*X002586Y015120D01*
X007107Y031050D02*X007894Y031050D01*X007894Y031050D02*X008450Y031607D01*
X008450Y031607D02*X008450Y032394D01*X008450Y032394D02*X007894Y032950D01*
X007894Y032950D02*X007107Y032950D01*X007107Y032950D02*X006550Y032394D01*
X006550Y032394D02*X006550Y031607D01*X006550Y031607D02*X007107Y031050D01*
X009200Y027500D02*X009200Y030100D01*X009200Y030100D02*X005800Y030100D01*
X005800Y030100D02*X005800Y027500D01*X005800Y027500D02*X009200Y027500D01*
X011857Y031050D02*X012644Y031050D01*X012644Y031050D02*X013200Y031607D01*
X013200Y031607D02*X013200Y032394D01*X013200Y032394D02*X012644Y032950D01*
X012644Y032950D02*X011857Y032950D01*X011857Y032950D02*X011300Y032394D01*
X011300Y032394D02*X011300Y031607D01*X011300Y031607D02*X011857Y031050D01*
X013200Y027500D02*X013200Y030100D01*X013200Y030100D02*X009800Y030100D01*
X009800Y030100D02*X009800Y027500D01*X009800Y027500D02*X013200Y027500D01*
X021357Y031050D02*X022144Y031050D01*X022144Y031050D02*X022700Y031607D01*
X022700Y031607D02*X022700Y032394D01*X022700Y032394D02*X022144Y032950D01*
X022144Y032950D02*X021357Y032950D01*X021357Y032950D02*X020800Y032394D01*
X020800Y032394D02*X020800Y031607D01*X020800Y031607D02*X021357Y031050D01*
X024700Y031000D02*X024700Y030200D01*X024700Y030200D02*X024500Y030200D01*
X024500Y030200D02*X024500Y028800D01*X024500Y028800D02*X027500Y028800D01*
X027500Y028800D02*X027500Y030200D01*X027500Y030200D02*X026350Y030200D01*
X026350Y030200D02*X026350Y030200D01*X026350Y030200D02*X025800Y030200D01*
X025800Y030200D02*X025800Y031000D01*X025800Y031000D02*X026250Y031000D01*
X026250Y031000D02*X026250Y033000D01*X026250Y033000D02*X024250Y033000D01*
X024250Y033000D02*X024250Y031000D01*X024250Y031000D02*X024700Y031000D01*
X027376Y031000D02*X028204Y031000D01*X028204Y031000D02*X028790Y031586D01*
X028790Y031586D02*X028790Y032414D01*X028790Y032414D02*X028204Y033000D01*
X028204Y033000D02*X027376Y033000D01*X027376Y033000D02*X026790Y032414D01*
X026790Y032414D02*X026790Y031586D01*X026790Y031586D02*X027376Y031000D01*
X029916Y031000D02*X030744Y031000D01*X030744Y031000D02*X031330Y031586D01*
X031330Y031586D02*X031330Y032414D01*X031330Y032414D02*X030744Y033000D01*
X030744Y033000D02*X029916Y033000D01*X029916Y033000D02*X029330Y032414D01*
X029330Y032414D02*X029330Y031586D01*X029330Y031586D02*X029916Y031000D01*
X032456Y031000D02*X033284Y031000D01*X033284Y031000D02*X033870Y031586D01*
X033870Y031586D02*X033870Y032414D01*X033870Y032414D02*X033284Y033000D01*
X033284Y033000D02*X032456Y033000D01*X032456Y033000D02*X031870Y032414D01*
X031870Y032414D02*X031870Y031586D01*X031870Y031586D02*X032456Y031000D01*
X034996Y031000D02*X035824Y031000D01*X035824Y031000D02*X036410Y031586D01*
X036410Y031586D02*X036410Y032414D01*X036410Y032414D02*X035824Y033000D01*
X035824Y033000D02*X034996Y033000D01*X034996Y033000D02*X034410Y032414D01*
X034410Y032414D02*X034410Y031586D01*X034410Y031586D02*X034996Y031000D01*
X007155Y022900D02*X007155Y022300D01*X007155Y022300D02*X006938Y022300D01*
X006938Y022300D02*X006938Y019865D01*X006938Y019865D02*X006950Y019865D01*
X006950Y019865D02*X006950Y019850D01*X006950Y019850D02*X009646Y019850D01*
X009646Y019850D02*X009530Y019734D01*X009530Y019734D02*X009530Y019275D01*
X009530Y019275D02*X008940Y019275D01*X008940Y019275D02*X008940Y019359D01*
X008940Y019359D02*X008609Y019690D01*X008609Y019690D02*X008141Y019690D01*
X008141Y019690D02*X007810Y019359D01*X007810Y019359D02*X007810Y018891D01*
X007810Y018891D02*X008141Y018560D01*X008141Y018560D02*X008374Y018560D01*
X008374Y018560D02*X008434Y018500D01*X008434Y018500D02*X008374Y018440D01*
X008374Y018440D02*X008141Y018440D01*X008141Y018440D02*X007810Y018109D01*
X007810Y018109D02*X007810Y017641D01*X007810Y017641D02*X008141Y017310D01*
X008141Y017310D02*X008609Y017310D01*X008609Y017310D02*X008940Y017641D01*
X008940Y017641D02*X008940Y017874D01*X008940Y017874D02*X009041Y017975D01*
X009041Y017975D02*X019416Y017975D01*X019416Y017975D02*X019791Y018350D01*
X019791Y018350D02*X020600Y018350D01*X020600Y018350D02*X020600Y016675D01*
X020600Y016675D02*X020499Y016675D01*X020499Y016675D02*X020359Y016815D01*
X020359Y016815D02*X019891Y016815D01*X019891Y016815D02*X019560Y016484D01*
X019560Y016484D02*X019560Y016016D01*X019560Y016016D02*X019755Y015821D01*
X019755Y015821D02*X017100Y013166D01*X017100Y013166D02*X017100Y012625D01*
X017100Y012625D02*X017086Y012625D01*X017086Y012625D02*X016500Y012039D01*
X016500Y012039D02*X016500Y011211D01*X016500Y011211D02*X017086Y010625D01*
X017086Y010625D02*X017100Y010625D01*X017100Y010625D02*X017100Y009000D01*
X017100Y009000D02*X016800Y009000D01*X016800Y009000D02*X016800Y006000D01*
X016800Y006000D02*X016951Y006000D01*X016951Y006000D02*X016935Y005984D01*
X016935Y005984D02*X016935Y005516D01*X016935Y005516D02*X017266Y005185D01*
X017266Y005185D02*X017734Y005185D01*X017734Y005185D02*X018065Y005516D01*
X018065Y005516D02*X018065Y005984D01*X018065Y005984D02*X018049Y006000D01*
X018049Y006000D02*X018200Y006000D01*X018200Y006000D02*X018200Y007100D01*
X018200Y007100D02*X018200Y007100D01*X018200Y007100D02*X018200Y007900D01*
X018200Y007900D02*X018200Y007900D01*X018200Y007900D02*X018200Y009000D01*
X018200Y009000D02*X017900Y009000D01*X017900Y009000D02*X017900Y010625D01*
X017900Y010625D02*X017914Y010625D01*X017914Y010625D02*X018500Y011211D01*
X018500Y011211D02*X018500Y012039D01*X018500Y012039D02*X017914Y012625D01*
X017914Y012625D02*X017900Y012625D01*X017900Y012625D02*X017900Y012834D01*
X017900Y012834D02*X018600Y013534D01*X018600Y013534D02*X018600Y011000D01*
X018600Y011000D02*X018586Y011000D01*X018586Y011000D02*X018000Y010414D01*
X018000Y010414D02*X018000Y009586D01*X018000Y009586D02*X018586Y009000D01*
X018586Y009000D02*X018300Y009000D01*X018300Y009000D02*X018300Y006000D01*
X018300Y006000D02*X018451Y006000D01*X018451Y006000D02*X018435Y005984D01*
X018435Y005984D02*X018435Y005516D01*X018435Y005516D02*X018766Y005185D01*
X018766Y005185D02*X019119Y005185D01*X019119Y005185D02*X017934Y004000D01*
X017934Y004000D02*X016500Y004000D01*X016500Y004000D02*X016500Y002000D01*
X016500Y002000D02*X018500Y002000D01*X018500Y002000D02*X018500Y003434D01*
X018500Y003434D02*X019541Y004475D01*X019541Y004475D02*X020949Y004475D01*
X020949Y004475D02*X020464Y003990D01*X020464Y003990D02*X020454Y004000D01*
X020454Y004000D02*X019626Y004000D01*X019626Y004000D02*X019040Y003414D01*
X019040Y003414D02*X019040Y002586D01*X019040Y002586D02*X019626Y002000D01*
X019626Y002000D02*X020454Y002000D01*X020454Y002000D02*X021040Y002586D01*
X021040Y002586D02*X021040Y003414D01*X021040Y003414D02*X021030Y003424D01*
X021030Y003424D02*X021581Y003975D01*X021581Y003975D02*X022141Y003975D01*
X022141Y003975D02*X021580Y003414D01*X021580Y003414D02*X021580Y002586D01*
X021580Y002586D02*X022166Y002000D01*X022166Y002000D02*X022994Y002000D01*
X022994Y002000D02*X023580Y002586D01*X023580Y002586D02*X023580Y003414D01*
X023580Y003414D02*X023530Y003464D01*X023530Y003464D02*X024600Y004534D01*
X024600Y004534D02*X024600Y003894D01*X024600Y003894D02*X024120Y003414D01*
X024120Y003414D02*X024120Y002586D01*X024120Y002586D02*X024706Y002000D01*
X024706Y002000D02*X025534Y002000D01*X025534Y002000D02*X026120Y002586D01*
X026120Y002586D02*X026120Y003414D01*X026120Y003414D02*X025534Y004000D01*
X025534Y004000D02*X025400Y004000D01*X025400Y004000D02*X025400Y012850D01*
X025400Y012850D02*X025600Y012850D01*X025600Y012850D02*X025600Y007209D01*
X025600Y007209D02*X027209Y005600D01*X027209Y005600D02*X034699Y005600D01*
X034699Y005600D02*X037435Y002864D01*X037435Y002864D02*X037435Y002631D01*
X037435Y002631D02*X037766Y002300D01*X037766Y002300D02*X038234Y002300D01*
X038234Y002300D02*X038277Y002342D01*X038277Y002342D02*X038277Y002184D01*
X038277Y002184D02*X040274Y002184D01*X040274Y002184D02*X040274Y004816D01*
X040274Y004816D02*X038277Y004816D01*X038277Y004816D02*X038277Y004658D01*
X038277Y004658D02*X038234Y004700D01*X038234Y004700D02*X037766Y004700D01*
X037766Y004700D02*X037628Y004563D01*X037628Y004563D02*X035433Y006758D01*
X035433Y006758D02*X035565Y006891D01*X035565Y006891D02*X035565Y007359D01*
X035565Y007359D02*X035234Y007690D01*X035234Y007690D02*X034766Y007690D01*
X034766Y007690D02*X034435Y007359D01*X034435Y007359D02*X034435Y006900D01*
X034435Y006900D02*X030041Y006900D01*X030041Y006900D02*X029900Y007041D01*
X029900Y007041D02*X029900Y009541D01*X029900Y009541D02*X029291Y010150D01*
X029291Y010150D02*X029200Y010150D01*X029200Y010150D02*X029200Y010850D01*
X029200Y010850D02*X029200Y010850D01*X029200Y010850D02*X029200Y012000D01*
X029200Y012000D02*X029049Y012000D01*X029049Y012000D02*X029065Y012016D01*
X029065Y012016D02*X029065Y012484D01*X029065Y012484D02*X028900Y012649D01*
X028900Y012649D02*X028900Y012831D01*X028900Y012831D02*X028927Y012831D01*
X028927Y012831D02*X028927Y013823D01*X028927Y013823D02*X029920Y013823D01*
X029920Y013823D02*X029920Y014677D01*X029920Y014677D02*X029900Y014677D01*
X029900Y014677D02*X029900Y014926D01*X029900Y014926D02*X030016Y014810D01*
X030016Y014810D02*X030325Y014810D01*X030325Y014810D02*X030325Y012199D01*
X030325Y012199D02*X031699Y010825D01*X031699Y010825D02*X031800Y010825D01*
X031800Y010825D02*X031800Y009000D01*X031800Y009000D02*X033200Y009000D01*
X033200Y009000D02*X033200Y010150D01*X033200Y010150D02*X033200Y010150D01*
X033200Y010150D02*X033200Y010825D01*X033200Y010825D02*X033500Y010825D01*
X033500Y010825D02*X033500Y009150D01*X033500Y009150D02*X037000Y009150D01*
X037000Y009150D02*X037000Y013350D01*X037000Y013350D02*X033500Y013350D01*
X033500Y013350D02*X033500Y013050D01*X033500Y013050D02*X033200Y013050D01*
X033200Y013050D02*X033200Y013725D01*X033200Y013725D02*X033200Y013725D01*
X033200Y013725D02*X033200Y014875D01*X033200Y014875D02*X031800Y014875D01*
X031800Y014875D02*X031800Y013301D01*X031800Y013301D02*X031675Y013426D01*
X031675Y013426D02*X031675Y016801D01*X031675Y016801D02*X031476Y017000D01*
X031476Y017000D02*X033713Y017000D01*X033713Y017000D02*X033706Y016978D01*
X033706Y016978D02*X033700Y016915D01*X033700Y016915D02*X033700Y016585D01*
X033700Y016585D02*X033706Y016522D01*X033706Y016522D02*X033729Y016446D01*
X033729Y016446D02*X033767Y016377D01*X033767Y016377D02*X033816Y016316D01*
X033816Y016316D02*X033877Y016267D01*X033877Y016267D02*X033946Y016229D01*
X033946Y016229D02*X034022Y016206D01*X034022Y016206D02*X034085Y016200D01*
X034085Y016200D02*X034415Y016200D01*X034415Y016200D02*X034478Y016206D01*
X034478Y016206D02*X034554Y016229D01*X034554Y016229D02*X034623Y016267D01*
X034623Y016267D02*X034683Y016316D01*X034683Y016316D02*X034734Y016377D01*
X034734Y016377D02*X034771Y016447D01*X034771Y016447D02*X034794Y016522D01*
X034794Y016522D02*X034800Y016585D01*X034800Y016585D02*X034800Y016915D01*
X034800Y016915D02*X034794Y016978D01*X034794Y016978D02*X034787Y017000D01*
X034787Y017000D02*X037800Y017000D01*X037800Y017000D02*X037800Y017631D01*
X037800Y017631D02*X038019Y017850D01*X038019Y017850D02*X038519Y017850D01*
X038519Y017850D02*X038519Y017850D01*X038519Y017850D02*X038981Y017850D01*
X038981Y017850D02*X038981Y017850D01*X038981Y017850D02*X039750Y017850D01*
X039750Y017850D02*X039750Y017700D01*X039750Y017700D02*X039800Y017700D01*
X039800Y017700D02*X039800Y016250D01*X039800Y016250D02*X041200Y016250D01*
X041200Y016250D02*X041200Y017400D01*X041200Y017400D02*X041200Y017400D01*
X041200Y017400D02*X041200Y017700D01*X041200Y017700D02*X041250Y017700D01*
X041250Y017700D02*X041250Y017850D01*X041250Y017850D02*X042019Y017850D01*
X042019Y017850D02*X042019Y017850D01*X042019Y017850D02*X042481Y017850D01*
X042481Y017850D02*X042481Y017850D01*X042481Y017850D02*X043200Y017850D01*
X043200Y017850D02*X043200Y017750D01*X043200Y017750D02*X044800Y017750D01*
X044800Y017750D02*X044800Y017800D01*X044800Y017800D02*X046250Y017800D01*
X046250Y017800D02*X046250Y019200D01*X046250Y019200D02*X045100Y019200D01*
X045100Y019200D02*X045100Y019200D01*X045100Y019200D02*X044800Y019200D01*
X044800Y019200D02*X044800Y019250D01*X044800Y019250D02*X043200Y019250D01*
X043200Y019250D02*X043200Y019150D01*X043200Y019150D02*X042481Y019150D01*
X042481Y019150D02*X042481Y019150D01*X042481Y019150D02*X042400Y019150D01*
X042400Y019150D02*X042400Y019769D01*X042400Y019769D02*X042400Y019769D01*
X042400Y019769D02*X042400Y020231D01*X042400Y020231D02*X042400Y020231D01*
X042400Y020231D02*X042400Y024275D01*X042400Y024275D02*X042416Y024275D01*
X042416Y024275D02*X043225Y025084D01*X043225Y025084D02*X043225Y026416D01*
X043225Y026416D02*X042400Y027241D01*X042400Y027241D02*X042400Y031236D01*
X042400Y031236D02*X042750Y031586D01*X042750Y031586D02*X042750Y032414D01*
X042750Y032414D02*X042164Y033000D01*X042164Y033000D02*X041336Y033000D01*
X041336Y033000D02*X040750Y032414D01*X040750Y032414D02*X040750Y031586D01*
X040750Y031586D02*X041100Y031236D01*X041100Y031236D02*X041100Y027241D01*
X041100Y027241D02*X040275Y026416D01*X040275Y026416D02*X040275Y025084D01*
X040275Y025084D02*X041084Y024275D01*X041084Y024275D02*X041100Y024275D01*
X041100Y024275D02*X041100Y020231D01*X041100Y020231D02*X041100Y020231D01*
X041100Y020231D02*X041100Y019769D01*X041100Y019769D02*X041100Y019769D01*
X041100Y019769D02*X041100Y019300D01*X041100Y019300D02*X039750Y019300D01*
X039750Y019300D02*X039750Y019150D01*X039750Y019150D02*X038981Y019150D01*
X038981Y019150D02*X038981Y019150D01*X038981Y019150D02*X038519Y019150D01*
X038519Y019150D02*X038519Y019150D01*X038519Y019150D02*X038019Y019150D01*
X038019Y019150D02*X037534Y019635D01*X037534Y019635D02*X037526Y019651D01*
X037526Y019651D02*X037469Y019719D01*X037469Y019719D02*X037401Y019776D01*
X037401Y019776D02*X037385Y019784D01*X037385Y019784D02*X037269Y019900D01*
X037269Y019900D02*X036731Y019900D01*X036731Y019900D02*X036731Y019900D01*
X036731Y019900D02*X036269Y019900D01*X036269Y019900D02*X036269Y019900D01*
X036269Y019900D02*X035250Y019900D01*X035250Y019900D02*X035250Y020050D01*
X035250Y020050D02*X035200Y020050D01*X035200Y020050D02*X035200Y020350D01*
X035200Y020350D02*X035200Y020350D01*X035200Y020350D02*X035200Y021500D01*
X035200Y021500D02*X033800Y021500D01*X033800Y021500D02*X033800Y020050D01*
X033800Y020050D02*X033750Y020050D01*X033750Y020050D02*X033750Y020000D01*
X033750Y020000D02*X030924Y020000D01*X030924Y020000D02*X030674Y020250D01*
X030674Y020250D02*X030940Y020516D01*X030940Y020516D02*X030940Y020984D01*
X030940Y020984D02*X030737Y021188D01*X030737Y021188D02*X030940Y021391D01*
X030940Y021391D02*X030940Y021859D01*X030940Y021859D02*X030609Y022190D01*
X030609Y022190D02*X030141Y022190D01*X030141Y022190D02*X029976Y022025D01*
X029976Y022025D02*X029234Y022025D01*X029234Y022025D02*X028927Y021718D01*
X028927Y021718D02*X028927Y022170D01*X028927Y022170D02*X028925Y022170D01*
X028925Y022170D02*X028925Y022199D01*X028925Y022199D02*X029036Y022310D01*
X029036Y022310D02*X029234Y022310D01*X029234Y022310D02*X029565Y022641D01*
X029565Y022641D02*X029565Y023109D01*X029565Y023109D02*X029374Y023300D01*
X029374Y023300D02*X030750Y023300D01*X030750Y023300D02*X030750Y024700D01*
X030750Y024700D02*X029600Y024700D01*X029600Y024700D02*X029600Y024700D01*
X029600Y024700D02*X029065Y024700D01*X029065Y024700D02*X029065Y024839D01*
X029065Y024839D02*X029425Y025199D01*X029425Y025199D02*X029425Y025250D01*
X029425Y025250D02*X029850Y025250D01*X029850Y025250D02*X029850Y027750D01*
X029850Y027750D02*X025650Y027750D01*X025650Y027750D02*X025650Y025250D01*
X025650Y025250D02*X026075Y025250D01*X026075Y025250D02*X026075Y025199D01*
X026075Y025199D02*X026435Y024839D01*X026435Y024839D02*X026435Y024700D01*
X026435Y024700D02*X025900Y024700D01*X025900Y024700D02*X025900Y024700D01*
X025900Y024700D02*X024750Y024700D01*X024750Y024700D02*X024750Y023300D01*
X024750Y023300D02*X025001Y023300D01*X025001Y023300D02*X024935Y023234D01*
X024935Y023234D02*X024935Y022766D01*X024935Y022766D02*X025100Y022601D01*
X025100Y022601D02*X025100Y022150D01*X025100Y022150D02*X023400Y022150D01*
X023400Y022150D02*X023400Y023041D01*X023400Y023041D02*X022916Y023525D01*
X022916Y023525D02*X019709Y023525D01*X019709Y023525D02*X018975Y022791D01*
X018975Y022791D02*X018975Y019416D01*X018975Y019416D02*X018834Y019275D01*
X018834Y019275D02*X017010Y019275D01*X017010Y019275D02*X017010Y019734D01*
X017010Y019734D02*X016894Y019850D01*X016894Y019850D02*X017050Y019850D01*
X017050Y019850D02*X017050Y019865D01*X017050Y019865D02*X017063Y019865D01*
X017063Y019865D02*X017063Y022300D01*X017063Y022300D02*X015575Y022300D01*
X015575Y022300D02*X015575Y023125D01*X015575Y023125D02*X015950Y023125D01*
X015950Y023125D02*X015950Y024275D01*X015950Y024275D02*X015950Y024275D01*
X015950Y024275D02*X015950Y024975D01*X015950Y024975D02*X015950Y024975D01*
X015950Y024975D02*X015950Y026125D01*X015950Y026125D02*X014550Y026125D01*
X014550Y026125D02*X014550Y023125D01*X014550Y023125D02*X014775Y023125D01*
X014775Y023125D02*X014775Y022300D01*X014775Y022300D02*X011366Y022300D01*
X011366Y022300D02*X011900Y022834D01*X011900Y022834D02*X011900Y022900D01*
X011900Y022900D02*X013200Y022900D01*X013200Y022900D02*X013200Y025500D01*
X013200Y025500D02*X011900Y025500D01*X011900Y025500D02*X011900Y025601D01*
X011900Y025601D02*X012065Y025766D01*X012065Y025766D02*X012065Y026234D01*
X012065Y026234D02*X011734Y026565D01*X011734Y026565D02*X011266Y026565D01*
X011266Y026565D02*X010935Y026234D01*X010935Y026234D02*X010935Y025766D01*
X010935Y025766D02*X011100Y025601D01*X011100Y025601D02*X011100Y025500D01*
X011100Y025500D02*X009800Y025500D01*X009800Y025500D02*X009800Y023025D01*
X009800Y023025D02*X009200Y023025D01*X009200Y023025D02*X009200Y025500D01*
X009200Y025500D02*X007900Y025500D01*X007900Y025500D02*X007900Y025601D01*
X007900Y025601D02*X008065Y025766D01*X008065Y025766D02*X008065Y026234D01*
X008065Y026234D02*X007734Y026565D01*X007734Y026565D02*X007266Y026565D01*
X007266Y026565D02*X006935Y026234D01*X006935Y026234D02*X006935Y025766D01*
X006935Y025766D02*X007100Y025601D01*X007100Y025601D02*X007100Y025500D01*
X007100Y025500D02*X005800Y025500D01*X005800Y025500D02*X005800Y022900D01*
X005800Y022900D02*X007155Y022900D01*X007155Y014700D02*X007155Y014399D01*
X007155Y014399D02*X006990Y014234D01*X006990Y014234D02*X006990Y013766D01*
X006990Y013766D02*X007321Y013435D01*X007321Y013435D02*X007789Y013435D01*
X007789Y013435D02*X008120Y013766D01*X008120Y013766D02*X008120Y014234D01*
X008120Y014234D02*X007955Y014399D01*X007955Y014399D02*X007955Y014700D01*
X007955Y014700D02*X008425Y014700D01*X008425Y014700D02*X008425Y014399D01*
X008425Y014399D02*X008260Y014234D01*X008260Y014234D02*X008260Y013766D01*
X008260Y013766D02*X008591Y013435D01*X008591Y013435D02*X009059Y013435D01*
X009059Y013435D02*X009390Y013766D01*X009390Y013766D02*X009390Y014234D01*
X009390Y014234D02*X009225Y014399D01*X009225Y014399D02*X009225Y014700D01*
X009225Y014700D02*X015895Y014700D01*X015895Y014700D02*X015895Y013827D01*
X015895Y013827D02*X015935Y013787D01*X015935Y013787D02*X015935Y013766D01*
X015935Y013766D02*X016266Y013435D01*X016266Y013435D02*X016734Y013435D01*
X016734Y013435D02*X017065Y013766D01*X017065Y013766D02*X017065Y014234D01*
X017065Y014234D02*X016995Y014304D01*X016995Y014304D02*X016995Y014700D01*
X016995Y014700D02*X017063Y014700D01*X017063Y014700D02*X017063Y017135D01*
X017063Y017135D02*X017050Y017135D01*X017050Y017135D02*X017050Y017150D01*
X017050Y017150D02*X006950Y017150D01*X006950Y017150D02*X006950Y017135D01*
X006950Y017135D02*X006938Y017135D01*X006938Y017135D02*X006938Y014700D01*
X006938Y014700D02*X007155Y014700D01*X009530Y010250D02*X009530Y012850D01*
X009530Y012850D02*X006130Y012850D01*X006130Y012850D02*X006130Y010250D01*
X006130Y010250D02*X009530Y010250D01*X007430Y005650D02*X007430Y004000D01*
X007430Y004000D02*X006250Y004000D01*X006250Y004000D02*X006250Y002000D01*
X006250Y002000D02*X008250Y002000D01*X008250Y002000D02*X008250Y004000D01*
X008250Y004000D02*X008230Y004000D01*X008230Y004000D02*X008230Y005650D01*
X008230Y005650D02*X009530Y005650D01*X009530Y005650D02*X009530Y008250D01*
X009530Y008250D02*X008379Y008250D01*X008379Y008250D02*X008395Y008266D01*
X008395Y008266D02*X008395Y008734D01*X008395Y008734D02*X008064Y009065D01*
X008064Y009065D02*X007596Y009065D01*X007596Y009065D02*X007265Y008734D01*
X007265Y008734D02*X007265Y008266D01*X007265Y008266D02*X007281Y008250D01*
X007281Y008250D02*X006130Y008250D01*X006130Y008250D02*X006130Y005650D01*
X006130Y005650D02*X007430Y005650D01*X013530Y010250D02*X013530Y012850D01*
X013530Y012850D02*X010130Y012850D01*X010130Y012850D02*X010130Y010250D01*
X010130Y010250D02*X013530Y010250D01*X009376Y002000D02*X010204Y002000D01*
X010204Y002000D02*X010790Y002586D01*X010790Y002586D02*X010790Y003414D01*
X010790Y003414D02*X010780Y003424D01*X010780Y003424D02*X012230Y004874D01*
X012230Y004874D02*X012230Y005650D01*X012230Y005650D02*X013530Y005650D01*
X013530Y005650D02*X013530Y008250D01*X013530Y008250D02*X012379Y008250D01*
X012379Y008250D02*X012395Y008266D01*X012395Y008266D02*X012395Y008734D01*
X012395Y008734D02*X012064Y009065D01*X012064Y009065D02*X011596Y009065D01*
X011596Y009065D02*X011265Y008734D01*X011265Y008734D02*X011265Y008266D01*
X011265Y008266D02*X011281Y008250D01*X011281Y008250D02*X010130Y008250D01*
X010130Y008250D02*X010130Y005650D01*X010130Y005650D02*X011430Y005650D01*
X011430Y005650D02*X011430Y005206D01*X011430Y005206D02*X010214Y003990D01*
X010214Y003990D02*X010204Y004000D01*X010204Y004000D02*X009376Y004000D01*
X009376Y004000D02*X008790Y003414D01*X008790Y003414D02*X008790Y002586D01*
X008790Y002586D02*X009376Y002000D01*X032724Y002184D02*X032724Y004816D01*
X032724Y004816D02*X030727Y004816D01*X030727Y004816D02*X030727Y002184D01*
X030727Y002184D02*X032724Y002184D01*X053586Y025280D02*X054414Y025280D01*
X054414Y025280D02*X055000Y025866D01*X055000Y025866D02*X055000Y026694D01*
X055000Y026694D02*X054414Y027280D01*X054414Y027280D02*X053586Y027280D01*
X053586Y027280D02*X053000Y026694D01*X053000Y026694D02*X053000Y025866D01*
X053000Y025866D02*X053586Y025280D01*X053586Y022740D02*X054414Y022740D01*
X054414Y022740D02*X055000Y023326D01*X055000Y023326D02*X055000Y024154D01*
X055000Y024154D02*X054414Y024740D01*X054414Y024740D02*X053586Y024740D01*
X053586Y024740D02*X053000Y024154D01*X053000Y024154D02*X053000Y023326D01*
X053000Y023326D02*X053586Y022740D01*X044200Y009000D02*X044200Y009350D01*
X044200Y009350D02*X044300Y009350D01*X044300Y009350D02*X044300Y009000D01*
X044300Y009000D02*X045700Y009000D01*X045700Y009000D02*X045700Y010100D01*
X045700Y010100D02*X045700Y010100D01*X045700Y010100D02*X045700Y010900D01*
X045700Y010900D02*X045700Y010900D01*X045700Y010900D02*X045700Y012000D01*
X045700Y012000D02*X045550Y012000D01*X045550Y012000D02*X045550Y012897D01*
X045550Y012897D02*X045853Y013200D01*X045853Y013200D02*X048350Y013200D01*
X048350Y013200D02*X048350Y013120D01*X048350Y013120D02*X048503Y012910D01*
X048503Y012910D02*X048535Y012899D01*X048535Y012899D02*X048695Y012740D01*
X048695Y012740D02*X048700Y012732D01*X048700Y012732D02*X048753Y012660D01*
X048753Y012660D02*X049000Y012579D01*X049000Y012579D02*X049063Y012600D01*
X049063Y012600D02*X053566Y012600D01*X053566Y012600D02*X053586Y012580D01*
X053586Y012580D02*X054414Y012580D01*X054414Y012580D02*X054434Y012600D01*
X054434Y012600D02*X054687Y012600D01*X054687Y012600D02*X054750Y012579D01*
X054750Y012579D02*X054997Y012660D01*X054997Y012660D02*X055055Y012740D01*
X055055Y012740D02*X055215Y012899D01*X055215Y012899D02*X055247Y012910D01*
X055247Y012910D02*X055400Y013120D01*X055400Y013120D02*X055400Y019380D01*
X055400Y019380D02*X055247Y019590D01*X055247Y019590D02*X055215Y019601D01*
X055215Y019601D02*X055055Y019760D01*X055055Y019760D02*X054997Y019840D01*
X054997Y019840D02*X054750Y019921D01*X054750Y019921D02*X054687Y019900D01*
X054687Y019900D02*X052063Y019900D01*X052063Y019900D02*X052000Y019921D01*
X052000Y019921D02*X051753Y019840D01*X051753Y019840D02*X051695Y019760D01*
X051695Y019760D02*X051535Y019601D01*X051535Y019601D02*X051503Y019590D01*
X051503Y019590D02*X051350Y019380D01*X051350Y019380D02*X051350Y016666D01*
X051350Y016666D02*X051334Y016650D01*X051334Y016650D02*X049063Y016650D01*
X049063Y016650D02*X049000Y016671D01*X049000Y016671D02*X048753Y016590D01*
X048753Y016590D02*X048695Y016510D01*X048695Y016510D02*X048535Y016351D01*
X048535Y016351D02*X048503Y016340D01*X048503Y016340D02*X048350Y016130D01*
X048350Y016130D02*X048350Y014300D01*X048350Y014300D02*X045397Y014300D01*
X045397Y014300D02*X044450Y013353D01*X044450Y013353D02*X044450Y012000D01*
X044450Y012000D02*X044300Y012000D01*X044300Y012000D02*X044300Y010150D01*
X044300Y010150D02*X044200Y010150D01*X044200Y010150D02*X044200Y010850D01*
X044200Y010850D02*X044200Y010850D01*X044200Y010850D02*X044200Y012000D01*
X044200Y012000D02*X042800Y012000D01*X042800Y012000D02*X042800Y009000D01*
X042800Y009000D02*X044200Y009000D01*X040753Y003285D02*X040785Y003274D01*
X040785Y003274D02*X040945Y003115D01*X040945Y003115D02*X041003Y003035D01*
X041003Y003035D02*X041250Y002954D01*X041250Y002954D02*X041313Y002975D01*
X041313Y002975D02*X042300Y002975D01*X042300Y002975D02*X042300Y002858D01*
X042300Y002858D02*X042225Y002755D01*X042225Y002755D02*X042225Y001245D01*
X042225Y001245D02*X042378Y001035D01*X042378Y001035D02*X042410Y001024D01*
X042410Y001024D02*X042570Y000865D01*X042570Y000865D02*X042628Y000785D01*
X042628Y000785D02*X042875Y000704D01*X042875Y000704D02*X042938Y000725D01*
X042938Y000725D02*X046812Y000725D01*X046812Y000725D02*X046875Y000704D01*
X046875Y000704D02*X047122Y000785D01*X047122Y000785D02*X047180Y000865D01*
X047180Y000865D02*X047340Y001024D01*X047340Y001024D02*X047372Y001035D01*
X047372Y001035D02*X047525Y001245D01*X047525Y001245D02*X047525Y001550D01*
X047525Y001550D02*X049000Y001550D01*X049000Y001550D02*X049000Y002649D01*
X049000Y002649D02*X049550Y002099D01*X049550Y002099D02*X049550Y001500D01*
X049550Y001500D02*X050950Y001500D01*X050950Y001500D02*X050950Y002650D01*
X050950Y002650D02*X050950Y002650D01*X050950Y002650D02*X050950Y003350D01*
X050950Y003350D02*X050950Y003350D01*X050950Y003350D02*X050950Y004500D01*
X050950Y004500D02*X049550Y004500D01*X049550Y004500D02*X049550Y003301D01*
X049550Y003301D02*X049301Y003550D01*X049301Y003550D02*X048938Y003550D01*
X048938Y003550D02*X048938Y004800D01*X048938Y004800D02*X046063Y004800D01*
X046063Y004800D02*X046063Y004775D01*X046063Y004775D02*X045878Y004715D01*
X045878Y004715D02*X045820Y004635D01*X045820Y004635D02*X045785Y004601D01*
X045785Y004601D02*X045753Y004590D01*X045753Y004590D02*X045600Y004380D01*
X045600Y004380D02*X045600Y003166D01*X045600Y003166D02*X045459Y003025D01*
X045459Y003025D02*X045450Y003025D01*X045450Y003025D02*X045450Y003350D01*
X045450Y003350D02*X045450Y003350D01*X045450Y003350D02*X045450Y004500D01*
X045450Y004500D02*X045300Y004500D01*X045300Y004500D02*X045300Y004501D01*
X045300Y004501D02*X045315Y004516D01*X045315Y004516D02*X045315Y004984D01*
X045315Y004984D02*X045300Y004999D01*X045300Y004999D02*X045300Y005251D01*
X045300Y005251D02*X045315Y005266D01*X045315Y005266D02*X045315Y005734D01*
X045315Y005734D02*X044984Y006065D01*X044984Y006065D02*X044516Y006065D01*
X044516Y006065D02*X044185Y005734D01*X044185Y005734D02*X044185Y005266D01*
X044185Y005266D02*X044200Y005251D01*X044200Y005251D02*X044200Y004999D01*
X044200Y004999D02*X044185Y004984D01*X044185Y004984D02*X044185Y004516D01*
X044185Y004516D02*X044200Y004501D01*X044200Y004501D02*X044200Y004500D01*
X044200Y004500D02*X044050Y004500D01*X044050Y004500D02*X044050Y003025D01*
X044050Y003025D02*X043700Y003025D01*X043700Y003025D02*X043700Y003142D01*
X043700Y003142D02*X043775Y003245D01*X043775Y003245D02*X043775Y005182D01*
X043775Y005182D02*X043950Y005357D01*X043950Y005357D02*X043950Y006144D01*
X043950Y006144D02*X043394Y006700D01*X043394Y006700D02*X043383Y006700D01*
X043383Y006700D02*X043372Y006715D01*X043372Y006715D02*X043125Y006796D01*
X043125Y006796D02*X043062Y006775D01*X043062Y006775D02*X041313Y006775D01*
X041313Y006775D02*X041250Y006796D01*X041250Y006796D02*X041003Y006715D01*
X041003Y006715D02*X040945Y006635D01*X040945Y006635D02*X040785Y006476D01*
X040785Y006476D02*X040753Y006465D01*X040753Y006465D02*X040600Y006255D01*
X040600Y006255D02*X040600Y003495D01*X040600Y003495D02*X040753Y003285D01*
X045878Y007535D02*X045910Y007524D01*X045910Y007524D02*X045945Y007490D01*
X045945Y007490D02*X046003Y007410D01*X046003Y007410D02*X046063Y007390D01*
X046063Y007390D02*X046063Y006200D01*X046063Y006200D02*X048938Y006200D01*
X048938Y006200D02*X048938Y007350D01*X048938Y007350D02*X051062Y007350D01*
X051062Y007350D02*X051125Y007329D01*X051125Y007329D02*X051372Y007410D01*
X051372Y007410D02*X051430Y007490D01*X051430Y007490D02*X051465Y007524D01*
X051465Y007524D02*X051497Y007535D01*X051497Y007535D02*X051650Y007745D01*
X051650Y007745D02*X051650Y010255D01*X051650Y010255D02*X051550Y010393D01*
X051550Y010393D02*X051550Y010750D01*X051550Y010750D02*X048950Y010750D01*
X048950Y010750D02*X048950Y010525D01*X048950Y010525D02*X048700Y010525D01*
X048700Y010525D02*X048700Y010850D01*X048700Y010850D02*X048700Y010850D01*
X048700Y010850D02*X048700Y012000D01*X048700Y012000D02*X047300Y012000D01*
X047300Y012000D02*X047300Y010525D01*X047300Y010525D02*X047200Y010525D01*
X047200Y010525D02*X047200Y010850D01*X047200Y010850D02*X047200Y010850D01*
X047200Y010850D02*X047200Y012000D01*X047200Y012000D02*X045800Y012000D01*
X045800Y012000D02*X045800Y010358D01*X045800Y010358D02*X045725Y010255D01*
X045725Y010255D02*X045725Y007745D01*X045725Y007745D02*X045878Y007535D01*
X026400Y007541D02*X027541Y006400D01*X027541Y006400D02*X029409Y006400D01*
X029409Y006400D02*X029100Y006709D01*X029100Y006709D02*X029100Y009000D01*
X029100Y009000D02*X027800Y009000D01*X027800Y009000D02*X027800Y012000D01*
X027800Y012000D02*X027951Y012000D01*X027951Y012000D02*X027935Y012016D01*
X027935Y012016D02*X027935Y012484D01*X027935Y012484D02*X028100Y012649D01*
X028100Y012649D02*X028100Y012831D01*X028100Y012831D02*X028073Y012831D01*
X028073Y012831D02*X028073Y012850D01*X028073Y012850D02*X026925Y012850D01*
X026925Y012850D02*X026925Y012624D01*X026925Y012624D02*X027065Y012484D01*
X027065Y012484D02*X027065Y012016D01*X027065Y012016D02*X026734Y011685D01*
X026734Y011685D02*X026400Y011685D01*X026400Y011685D02*X026400Y007541D01*
X022025Y011000D02*X022414Y011000D01*X022414Y011000D02*X023000Y010414D01*
X023000Y010414D02*X023000Y009586D01*X023000Y009586D02*X022414Y009000D01*
X022414Y009000D02*X022700Y009000D01*X022700Y009000D02*X022700Y007900D01*
X022700Y007900D02*X022700Y007900D01*X022700Y007900D02*X022700Y007100D01*
X022700Y007100D02*X022700Y007100D01*X022700Y007100D02*X022700Y006000D01*
X022700Y006000D02*X022549Y006000D01*X022549Y006000D02*X022565Y005984D01*
X022565Y005984D02*X022565Y005516D01*X022565Y005516D02*X022324Y005275D01*
X022324Y005275D02*X022709Y005275D01*X022709Y005275D02*X023100Y005666D01*
X023100Y005666D02*X023100Y011685D01*X023100Y011685D02*X022766Y011685D01*
X022766Y011685D02*X022625Y011826D01*X022625Y011826D02*X022484Y011685D01*
X022484Y011685D02*X022025Y011685D01*X022025Y011685D02*X022025Y011000D01*
X019775Y019150D02*X020600Y019150D01*X020600Y019150D02*X020600Y020323D01*
X020600Y020323D02*X020581Y020323D01*X020581Y020323D02*X020581Y021177D01*
X020581Y021177D02*X021573Y021177D01*X021573Y021177D02*X021573Y021935D01*
X021573Y021935D02*X021391Y021935D01*X021391Y021935D02*X021060Y022266D01*
X021060Y022266D02*X021060Y022725D01*X021060Y022725D02*X020041Y022725D01*
X020041Y022725D02*X019775Y022459D01*X019775Y022459D02*X019775Y019150D01*
X007830Y006950D02*X007830Y008500D01*X007830Y003580D02*X007830Y006950D01*
X007500Y026000D02*X007500Y024200D01*X007555Y024200D02*X007555Y021083D01*
X007555Y014000D02*X007555Y015918D01*X008825Y022250D02*X008825Y021083D01*
X008825Y014000D02*X008825Y015918D01*X010095Y019500D02*X010095Y021083D01*
X011830Y006950D02*X011830Y008500D01*X011830Y005040D02*X011830Y006950D01*
X011500Y026000D02*X011500Y024200D01*X011500Y024200D02*X011500Y023000D01*
X011125Y022625D02*X011500Y023000D01*X011365Y019500D02*X011365Y021083D01*
X012635Y019500D02*X012635Y021083D01*X013905Y019500D02*X013905Y021083D01*
X015175Y023875D02*X015175Y021083D01*X016445Y019500D02*X016445Y021083D01*
X017500Y013000D02*X017500Y011625D01*X017500Y011625D02*X017500Y008250D01*
X017500Y005750D02*X017500Y006750D01*X019375Y019250D02*X019375Y022625D01*
X019875Y023125D02*X019375Y022625D01*X019000Y013875D02*X019000Y010000D01*
X019000Y010000D02*X019000Y008250D01*X019875Y014125D02*X019875Y012250D01*
X020500Y011625D02*X019875Y012250D01*X019000Y006750D02*X019000Y005750D01*
X020500Y011625D02*X020500Y008250D01*X021625Y012375D02*X021625Y010375D01*
X022000Y010000D02*X021625Y010375D01*X020375Y014000D02*X020375Y013000D01*
X020625Y012750D02*X020375Y013000D01*X020500Y006750D02*X020500Y005750D01*
X023000Y022875D02*X023000Y021400D01*X023000Y012250D02*X023000Y013600D01*
X022500Y012500D02*X022500Y013600D01*X022000Y010000D02*X022000Y008250D01*
X022580Y003000D02*X022580Y003080D01*X024500Y005000D02*X022580Y003080D01*
X022000Y005750D02*X022000Y006750D01*X024500Y005000D02*X024500Y013600D01*
X024000Y005250D02*X024000Y013600D01*X023500Y005500D02*X023500Y013600D01*
X026000Y007375D02*X026000Y013600D01*X025000Y003000D02*X025000Y013600D01*
X026000Y022500D02*X026000Y021400D01*X025500Y023000D02*X025500Y021400D01*
X027000Y022500D02*X027000Y021400D01*X026500Y023000D02*X026500Y021400D01*
X028500Y011250D02*X028500Y012250D01*X028500Y012250D02*X028500Y013600D01*
X029150Y021375D02*X029150Y020750D01*X029500Y006875D02*X029500Y009375D01*
X029125Y009750D02*X029500Y009375D01*X039275Y002865D02*X038000Y002865D01*
X025120Y003000D02*X025000Y003000D01*X038000Y004135D02*X037490Y004135D01*
X035125Y006500D02*X037490Y004135D01*X039275Y004135D02*X038000Y004135D01*
X021415Y004375D02*X023125Y004375D01*X024000Y005250D02*X023125Y004375D01*
X019375Y004875D02*X022875Y004875D01*X023500Y005500D02*X022875Y004875D01*
X035125Y006500D02*X029875Y006500D01*X029500Y006875D02*X029875Y006500D01*
X034865Y006000D02*X027375Y006000D01*X026000Y007375D02*X027375Y006000D01*
X029125Y009750D02*X028500Y009750D01*X045000Y009750D02*X043500Y009750D01*
X020625Y012750D02*X021250Y012750D01*X021625Y012375D02*X021250Y012750D01*
X021350Y014250D02*X020625Y014250D01*X020375Y014000D02*X020625Y014250D01*
X021350Y015750D02*X020250Y015750D01*X017500Y013000D02*X020250Y015750D01*
X021350Y015250D02*X020375Y015250D01*X019000Y013875D02*X020375Y015250D01*
X021350Y014750D02*X020500Y014750D01*X019875Y014125D02*X020500Y014750D01*
X019625Y018750D02*X021350Y018750D01*X008875Y018375D02*X019250Y018375D01*
X019625Y018750D02*X019250Y018375D01*X008625Y018875D02*X019000Y018875D01*
X019375Y019250D02*X019000Y018875D01*X030375Y021625D02*X029400Y021625D01*
X029150Y021375D02*X029400Y021625D01*X019875Y023125D02*X022750Y023125D01*
X023000Y022875D02*X022750Y023125D01*X011125Y022625D02*X009200Y022625D01*
X008825Y022250D02*X009200Y022625D01*X007500Y024200D02*X007555Y024200D01*
X015250Y023875D02*X015175Y023875D01*X007250Y003000D02*X007830Y003580D01*
X009790Y003000D02*X011830Y005040D01*X017500Y003000D02*X019375Y004875D01*
X020040Y003000D02*X021415Y004375D01*X022250Y012250D02*X022500Y012500D01*
X008375Y019125D02*X008625Y018875D01*X008375Y017875D02*X008875Y018375D01*
X038000Y002865D02*X034865Y006000D01*D02*G54D129*X007500Y028800D02*
X007500Y030125D01*X007830Y011550D02*X007830Y013000D01*X011500Y028800D02*
X011500Y030125D01*X011830Y011550D02*X011830Y013000D01*X015175Y015918D02*
X015175Y017500D01*X015250Y025375D02*X015250Y026500D01*X016445Y015918D02*
X016445Y014055D01*X016500Y014000D02*X016445Y014055D01*X024250Y017500D02*
X024250Y018500D01*X024250Y017500D02*X024250Y016500D01*X024250Y018500D02*
X024250Y019500D01*X024250Y016500D02*X024250Y015500D01*X023250Y017500D02*
X023250Y018500D01*X025250Y017500D02*X025250Y018500D01*X025250Y017500D02*
X025250Y016500D01*X025250Y019500D02*X025250Y018500D01*X025250Y016500D02*
X025250Y015500D01*X025250Y032000D02*X025250Y029500D01*X026750Y029500D02*
X026750Y030500D01*X026250Y017500D02*X026250Y018500D01*X026250Y017500D02*
X026250Y016500D01*X026250Y018500D02*X026250Y019500D01*X032500Y009750D02*
X032500Y008625D01*X034325Y010100D02*X034325Y008625D01*X034250Y016750D02*
X034250Y015875D01*X034500Y020750D02*X034500Y021875D01*X036175Y012400D02*
X036175Y014125D01*X040500Y017000D02*X040500Y015875D01*X043500Y011250D02*
X043500Y012375D01*X043000Y003750D02*X043000Y005750D01*X044750Y004750D02*
X044750Y003750D01*X044750Y004750D02*X044750Y005500D01*X045000Y011250D02*
X045000Y013125D01*X045625Y013750D02*X045000Y013125D01*X046500Y011250D02*
X046500Y012375D01*X046500Y009750D02*X046500Y008750D01*X047500Y005500D02*
X047500Y005875D01*X047500Y005500D02*X047500Y005125D01*X048000Y011250D02*
X048000Y012875D01*X048250Y002250D02*X048250Y001250D01*X048000Y008750D02*
X048000Y009750D01*X050250Y003750D02*X050250Y004750D01*X050250Y008750D02*
X050250Y009800D01*X048250Y002250D02*X049150Y002250D01*X031725Y002865D02*
X030375Y002865D01*X031725Y004135D02*X030375Y004135D01*X048250Y005125D02*
X047500Y005125D01*X048250Y005875D02*X047500Y005875D01*X007830Y011550D02*
X005750Y011550D01*X011830Y011550D02*X013875Y011550D01*X007830Y011550D02*
X011830Y011550D01*X032500Y014125D02*X033500Y014125D01*X045625Y013750D02*
X049250Y013750D01*X024250Y015500D02*X025250Y015500D01*X026250Y016500D02*
X025250Y016500D01*X025250Y016500D02*X024250Y016500D01*X045500Y018500D02*
X046625Y018500D01*X025250Y017500D02*X026250Y017500D01*X025250Y017500D02*
X024250Y017500D01*X026250Y018500D02*X025250Y018500D01*X025250Y018500D02*
X024250Y018500D01*X024250Y018500D02*X023250Y018500D01*X024250Y017500D02*
X023250Y017500D01*X025250Y019500D02*X024250Y019500D01*X026250Y019500D02*
X025250Y019500D01*X030000Y024000D02*X031000Y024000D01*X025500Y024000D02*
X024500Y024000D01*X011500Y028800D02*X009500Y028800D01*X007500Y028800D02*
X009500Y028800D01*X007500Y028800D02*X005500Y028800D01*X011500Y028800D02*
X013500Y028800D01*D02*G54D130*X022000Y021400D02*X022000Y022125D01*
X021625Y022500D02*X022000Y022125D01*X022500Y021400D02*X022500Y022500D01*
X022000Y013600D02*X022000Y013500D01*X027500Y021400D02*X027500Y023500D01*
X027000Y024000D02*X027500Y023500D01*X026500Y026500D02*X026500Y025375D01*
X027000Y024875D02*X026500Y025375D01*X027000Y024000D02*X027000Y024875D01*
X026500Y012250D02*X026500Y013600D01*X028000Y021400D02*X028000Y023500D01*
X028500Y024000D02*X028000Y023500D01*X029000Y026500D02*X029000Y025375D01*
X028500Y024875D02*X029000Y025375D01*X028500Y024875D02*X028500Y024000D01*
X028500Y022375D02*X028500Y021400D01*X031250Y013250D02*X031250Y016625D01*
X030625Y017250D02*X031250Y016625D01*X030750Y012375D02*X030750Y016500D01*
X030500Y016750D02*X030750Y016500D01*X034325Y012400D02*X034325Y012625D01*
X036175Y010100D02*X036175Y011000D01*X035925Y011250D02*X036175Y011000D01*
X047825Y004050D02*X047825Y003375D01*X048075Y003125D02*X047825Y003375D01*
X050000Y002250D02*X050250Y002250D01*X048075Y003125D02*X049125Y003125D01*
X050000Y002250D02*X049125Y003125D01*X035925Y011250D02*X032500Y011250D01*
X032500Y011250D02*X031875Y011250D01*X030750Y012375D02*X031875Y011250D01*
X034325Y012625D02*X032500Y012625D01*X032500Y012625D02*X031875Y012625D01*
X031250Y013250D02*X031875Y012625D01*X022000Y013500D02*X021000Y013500D01*
X029150Y015750D02*X029875Y015750D01*X030250Y015375D02*X029875Y015750D01*
X030625Y017250D02*X029150Y017250D01*X030500Y016750D02*X029150Y016750D01*
X030250Y016250D02*X029150Y016250D01*X021350Y016250D02*X020125Y016250D01*
X031000Y018250D02*X029150Y018250D01*X031000Y018750D02*X029150Y018750D01*
X029150Y017750D02*X030250Y017750D01*X029875Y020250D02*X029150Y020250D01*
X029875Y019250D02*X029150Y019250D01*X030375Y019750D02*X029150Y019750D01*
X021350Y020750D02*X020125Y020750D01*X031500Y017750D02*X031000Y018250D01*
X031500Y019250D02*X031000Y018750D01*X029000Y022875D02*X028500Y022375D01*
X030375Y020750D02*X029875Y020250D01*X030375Y019750D02*X029875Y019250D01*D02*
G54D131*X041750Y025750D02*X041750Y032000D01*X041750Y020500D02*X041750Y025750D01*
X041750Y019500D02*X041750Y018500D01*X041750Y018500D02*X040500Y018500D01*
X040500Y018500D02*X039250Y018500D01*X044000Y018500D02*X042750Y018500D01*
X038250Y018500D02*X037750Y018500D01*X035500Y017750D02*X034250Y017750D01*
X034250Y017750D02*X033000Y017750D01*X036000Y019250D02*X034500Y019250D01*
X034500Y019250D02*X033000Y019250D01*X037750Y018500D02*X037000Y017750D01*
X037750Y018500D02*X037000Y019250D01*D02*G54D132*X046525Y004050D02*
X046525Y002250D01*X046525Y002250D02*X046750Y002250D01*D02*G54D133*
X046525Y008000D02*X046525Y006950D01*X048475Y006950D02*X048475Y008250D01*
X048475Y004050D02*X049125Y004050D01*D02*G54D134*X003000Y003000D03*
X054000Y003000D03*X003000Y032000D03*X054000Y032000D03*D02*G54D135*
X007250Y003000D03*X017500Y003000D03*X003000Y008500D03*X054000Y008500D03*
X025250Y032000D03*D02*G54D136*X043000Y005750D03*X007500Y032000D03*
X012250Y032000D03*X017000Y032000D03*X021750Y032000D03*X041750Y032000D03*
X047000Y032000D03*D02*G54D137*X039210Y023210D03*X044290Y023210D03*
X041750Y025750D03*X039210Y028290D03*X044290Y028290D03*D02*G54D138*
X041050Y003646D02*X041271Y003425D01*X041271Y003425D02*X043325Y003425D01*
X043325Y003425D02*X043325Y006104D01*X043325Y006104D02*X043104Y006325D01*
X043104Y006325D02*X041271Y006325D01*X041271Y006325D02*X041050Y006104D01*
X041050Y006104D02*X041050Y003646D01*X042675Y001396D02*X042896Y001175D01*
X042896Y001175D02*X046854Y001175D01*X046854Y001175D02*X047075Y001396D01*
X047075Y001396D02*X047075Y002729D01*X047075Y002729D02*X046700Y003104D01*
X046700Y003104D02*X046700Y004325D01*X046700Y004325D02*X046146Y004325D01*
X046146Y004325D02*X046050Y004229D01*X046050Y004229D02*X046050Y002979D01*
X046050Y002979D02*X045646Y002575D01*X045646Y002575D02*X042675Y002575D01*
X042675Y002575D02*X042675Y001396D01*X046175Y007896D02*X046271Y007800D01*
X046271Y007800D02*X051104Y007800D01*X051104Y007800D02*X051200Y007896D01*
X051200Y007896D02*X051200Y010075D01*X051200Y010075D02*X046175Y010075D01*
X046175Y010075D02*X046175Y007896D01*X048800Y013271D02*X049021Y013050D01*
X049021Y013050D02*X054729Y013050D01*X054729Y013050D02*X054950Y013271D01*
X054950Y013271D02*X054950Y019229D01*X054950Y019229D02*X054729Y019450D01*
X054729Y019450D02*X052021Y019450D01*X052021Y019450D02*X051800Y019229D01*
X051800Y019229D02*X051800Y016479D01*X051800Y016479D02*X051521Y016200D01*
X051521Y016200D02*X049021Y016200D01*X049021Y016200D02*X048800Y015979D01*
X048800Y015979D02*X048800Y013271D01*D02*G54D139*X007830Y006950D03*
X011830Y006950D03*X007830Y011550D03*X011830Y011550D03*X007500Y024200D03*
X011500Y024200D03*X007500Y028800D03*X011500Y028800D03*D02*G54D140*
X007555Y016518D02*X007555Y015318D01*X008825Y016518D02*X008825Y015318D01*
X010095Y016518D02*X010095Y015318D01*X011365Y016518D02*X011365Y015318D01*
X012635Y016518D02*X012635Y015318D01*X013905Y016518D02*X013905Y015318D01*
X015175Y016518D02*X015175Y015318D01*X016445Y016518D02*X016445Y015318D01*
X008825Y021683D02*X008825Y020483D01*X007555Y021683D02*X007555Y020483D01*
X012635Y021683D02*X012635Y020483D01*X011365Y021683D02*X011365Y020483D01*
X010095Y021683D02*X010095Y020483D01*X016445Y021683D02*X016445Y020483D01*
X015175Y021683D02*X015175Y020483D01*X013905Y021683D02*X013905Y020483D01*D02*
G54D141*X043000Y002250D03*X044750Y002250D03*X050250Y002250D03*X043000Y003750D03*
X044750Y003750D03*X050250Y003750D03*X017500Y008250D03*X017500Y006750D03*
X020500Y008250D03*X020500Y006750D03*X019000Y008250D03*X019000Y006750D03*
X022000Y008250D03*X022000Y006750D03*X028500Y009750D03*X028500Y011250D03*
X032500Y011250D03*X032500Y009750D03*X046500Y011250D03*X046500Y009750D03*
X045000Y011250D03*X045000Y009750D03*X043500Y011250D03*X043500Y009750D03*
X048000Y011250D03*X048000Y009750D03*X032500Y012625D03*X032500Y014125D03*
X040500Y017000D03*X034500Y019250D03*X040500Y018500D03*X034500Y020750D03*
X015250Y023875D03*X015250Y025375D03*D02*G54D142*X021275Y014250D03*
X029225Y014250D03*X021275Y020750D03*X029225Y020750D03*D02*G54D143*
X021350Y017250D03*X021350Y016750D03*X021350Y016250D03*X021350Y015750D03*
X021350Y015250D03*X021350Y014750D03*X029150Y014750D03*X029150Y015250D03*
X029150Y015750D03*X029150Y016250D03*X029150Y016750D03*X029150Y017250D03*
X021350Y020250D03*X021350Y019750D03*X021350Y019250D03*X021350Y018750D03*
X021350Y018250D03*X021350Y017750D03*X029150Y017750D03*X029150Y018250D03*
X029150Y018750D03*X029150Y019250D03*X029150Y019750D03*X029150Y020250D03*D02*
G54D144*X022000Y013525D03*X028500Y013525D03*X022000Y021475D03*X028500Y021475D03*
D02*G54D145*X022500Y013600D03*X023000Y013600D03*X023500Y013600D03*
X024000Y013600D03*X024500Y013600D03*X025000Y013600D03*X025500Y013600D03*
X026000Y013600D03*X026500Y013600D03*X027000Y013600D03*X027500Y013600D03*
X028000Y013600D03*X025500Y021400D03*X025000Y021400D03*X024500Y021400D03*
X024000Y021400D03*X023500Y021400D03*X023000Y021400D03*X022500Y021400D03*
X028000Y021400D03*X027500Y021400D03*X027000Y021400D03*X026500Y021400D03*
X026000Y021400D03*D02*G54D146*X025250Y017500D03*D02*G54D147*X046750Y002250D03*
X048250Y002250D03*X033000Y017750D03*X031500Y017750D03*X033000Y019250D03*
X031500Y019250D03*X037000Y017750D03*X035500Y017750D03*X044000Y018500D03*
X045500Y018500D03*X025500Y024000D03*X030000Y024000D03*X028500Y024000D03*
X027000Y024000D03*X025250Y029500D03*X026750Y029500D03*D02*G54D148*
X026500Y026500D03*X029000Y026500D03*D02*G54D149*X031725Y002865D03*
X039275Y002865D03*X031725Y004135D03*X039275Y004135D03*D02*G54D150*
X034325Y010100D03*X036175Y010100D03*X034325Y012400D03*X036175Y012400D03*D02*
G54D151*X046525Y004050D03*X047175Y004050D03*X047825Y004050D03*X048475Y004050D03*
X046525Y006950D03*X048475Y006950D03*X047825Y006950D03*X047175Y006950D03*D02*
G54D152*X047500Y005500D03*D02*G54D153*X050250Y009800D03*X050250Y013700D03*D02*
G54D186*X006000Y001000D03*X010000Y001000D03*X014000Y001000D03*X030375Y002865D03*
X038000Y002865D03*X041750Y002250D03*X048250Y001250D03*X051500Y001000D03*
X001000Y005000D03*X009500Y005000D03*X014000Y005000D03*X017500Y005750D03*
X019000Y005750D03*X020500Y005750D03*X022000Y005750D03*X022800Y005700D03*
X027000Y005000D03*X030375Y004135D03*X038000Y004135D03*X042125Y003875D03*
X042125Y004625D03*X041375Y003875D03*X041375Y004625D03*X041375Y005375D03*
X043000Y004625D03*X044750Y004750D03*X044750Y005500D03*X047500Y005125D03*
X049125Y004050D03*X050250Y004750D03*X048250Y005125D03*X052750Y005750D03*
X056000Y005000D03*X001000Y008000D03*X007830Y008500D03*X005500Y006000D03*
X011830Y008500D03*X016500Y008250D03*X023000Y008250D03*X027250Y007500D03*
X028750Y006750D03*X025750Y006500D03*X032500Y008625D03*X030375Y008250D03*
X033375Y007250D03*X034325Y008625D03*X036500Y007125D03*X035000Y007125D03*
X038875Y007500D03*X041500Y008000D03*X048250Y005875D03*X047500Y005875D03*
X049875Y006500D03*X048000Y008000D03*X046525Y008000D03*X047250Y008000D03*
X048750Y008000D03*X049500Y008000D03*X050250Y008000D03*X052125Y008625D03*
X051000Y008000D03*X056000Y008000D03*X001000Y011000D03*X005000Y010000D03*
X014000Y009000D03*X022800Y011050D03*X028500Y008750D03*X027000Y009750D03*
X029625Y010500D03*X031250Y010750D03*X040000Y011000D03*X046500Y008750D03*
X050250Y008750D03*X048000Y008750D03*X047250Y008750D03*X048750Y008750D03*
X049500Y008750D03*X051000Y008750D03*X056000Y011000D03*X001000Y014000D03*
X008825Y014000D03*X007555Y014000D03*X007830Y013000D03*X011830Y013000D03*
X011000Y014000D03*X014000Y014000D03*X016500Y014000D03*X021000Y013500D03*
X023000Y012250D03*X022250Y012250D03*X025500Y012250D03*X028500Y012250D03*
X027550Y012350D03*X029200Y013000D03*X026500Y012250D03*X033500Y014125D03*
X030100Y014200D03*X036175Y014125D03*X043500Y012375D03*X048000Y012875D03*
X046500Y012375D03*X052125Y012000D03*X056000Y014000D03*X001000Y017000D03*
X005500Y015000D03*X018000Y017000D03*X017750Y014625D03*X020125Y016250D03*
X025250Y015500D03*X024250Y016500D03*X025250Y016500D03*X024250Y015500D03*
X023250Y015000D03*X026250Y016500D03*X030250Y015375D03*X031875Y016750D03*
X033375Y016750D03*X032625Y016750D03*X030250Y016250D03*X034250Y015875D03*
X037375Y016750D03*X036625Y016750D03*X035875Y016750D03*X035125Y016750D03*
X040500Y015875D03*X046500Y015000D03*X050500Y017000D03*X047500Y017000D03*
X056000Y017000D03*X001000Y020000D03*X008375Y019125D03*X008375Y017875D03*
X010095Y019500D03*X011365Y019500D03*X012635Y019500D03*X010500Y017500D03*
X013905Y019500D03*X016445Y019500D03*X015175Y017500D03*X016500Y017500D03*
X013500Y017500D03*X020000Y019500D03*X020125Y017625D03*X017500Y019750D03*
X024250Y019500D03*X025250Y017500D03*X025250Y018500D03*X024250Y018500D03*
X024250Y017500D03*X025250Y019500D03*X023250Y017500D03*X023250Y018500D03*
X026250Y019500D03*X026250Y017500D03*X026250Y018500D03*X030250Y017750D03*
X030375Y019750D03*X037875Y019875D03*X038125Y017500D03*X040875Y019625D03*
X040125Y019625D03*X039375Y019500D03*X038625Y019500D03*X039625Y017500D03*
X038875Y017500D03*X042250Y017500D03*X041500Y017500D03*X045250Y017500D03*
X044500Y017500D03*X043750Y017500D03*X043000Y017500D03*X045000Y019625D03*
X044250Y019625D03*X043500Y019625D03*X042750Y019500D03*X045750Y019625D03*
X046000Y017500D03*X046625Y018500D03*X047500Y020000D03*X050500Y020000D03*
X056000Y020000D03*X005500Y021500D03*X012250Y022500D03*X016125Y022625D03*
X020125Y020750D03*X018000Y021500D03*X020500Y022500D03*X021625Y022500D03*
X022500Y022500D03*X027000Y022500D03*X026000Y022500D03*X026250Y020375D03*
X029000Y022875D03*X030375Y021625D03*X032500Y022875D03*X031875Y020250D03*
X031125Y020250D03*X033375Y020250D03*X032625Y020250D03*X030375Y020750D03*
X034500Y021875D03*X035625Y020250D03*X037125Y020250D03*X036375Y020250D03*
X040875Y021875D03*X040875Y021125D03*X040875Y020375D03*X040875Y022625D03*
X042750Y022500D03*X042750Y021750D03*X042750Y021000D03*X042750Y020250D03*
X001000Y023000D03*X014000Y023500D03*X021000Y024000D03*X018000Y024000D03*
X025500Y023000D03*X024500Y024000D03*X023500Y024000D03*X028500Y024875D03*
X027000Y024875D03*X026500Y023000D03*X031000Y024000D03*X031000Y025500D03*
X036500Y023500D03*X034000Y023500D03*X034000Y025500D03*X036500Y025500D03*
X039875Y025750D03*X040250Y024750D03*X040875Y024125D03*X040875Y023375D03*
X042750Y023250D03*X043625Y025750D03*X043250Y024750D03*X042750Y024000D03*
X050500Y023000D03*X047500Y023000D03*X056000Y023000D03*X001000Y026000D03*
X007500Y026000D03*X005000Y026500D03*X011500Y026000D03*X009750Y026000D03*
X015250Y026500D03*X021000Y026500D03*X018000Y026500D03*X024000Y026500D03*
X031000Y028000D03*X036500Y028000D03*X034000Y028000D03*X040750Y028250D03*
X040750Y027375D03*X040250Y026750D03*X042750Y027375D03*X043375Y026750D03*
X042750Y028250D03*X047500Y026000D03*X050500Y026000D03*X056000Y026000D03*
X004000Y029000D03*X001000Y029000D03*X005500Y028800D03*X013500Y028800D03*
X015500Y029000D03*X021000Y029000D03*X018000Y029000D03*X024000Y029000D03*
X026750Y030500D03*X029875Y030375D03*X032000Y030000D03*X036500Y030000D03*
X040750Y030000D03*X040750Y029125D03*X042750Y029125D03*X042750Y030000D03*
X050500Y029000D03*X047500Y029000D03*X056000Y029000D03*X050500Y034000D03*
G36*X041050Y003646D02*X041271Y003425D01*X043325Y003425D01*X043325Y006104D01*
X043104Y006325D01*X041271Y006325D01*X041050Y006104D01*X041050Y003646D01*G37*G36*
X042675Y001396D02*X042896Y001175D01*X046854Y001175D01*X047075Y001396D01*
X047075Y002729D01*X046700Y003104D01*X046700Y004325D01*X046146Y004325D01*
X046050Y004229D01*X046050Y002979D01*X045646Y002575D01*X042675Y002575D01*
X042675Y001396D01*G37*G36*X046175Y007896D02*X046271Y007800D01*X051104Y007800D01*
X051200Y007896D01*X051200Y010075D01*X046175Y010075D01*X046175Y007896D01*G37*G36*
X048800Y013271D02*X049021Y013050D01*X054729Y013050D01*X054950Y013271D01*
X054950Y019229D01*X054729Y019450D01*X052021Y019450D01*X051800Y019229D01*
X051800Y016479D01*X051521Y016200D01*X049021Y016200D01*X048800Y015979D01*
X048800Y013271D01*G37*G36*X000600Y000600D02*X056400Y000600D01*X056400Y034400D01*
X054414Y034400D01*X054414Y027280D01*X055000Y026694D01*X055000Y025866D01*
X054414Y025280D01*X054414Y024740D01*X055000Y024154D01*X055000Y023326D01*
X054750Y023076D01*X054750Y019921D01*X054997Y019840D01*X055055Y019760D01*
X055215Y019601D01*X055247Y019590D01*X055400Y019380D01*X055400Y013120D01*
X055247Y012910D01*X055215Y012899D01*X055055Y012740D01*X054997Y012660D01*
X054750Y012579D01*X054687Y012600D01*X054434Y012600D01*X054414Y012580D01*
X053586Y012580D01*X053566Y012600D01*X049063Y012600D01*X049000Y012579D01*
X048753Y012660D01*X048700Y012732D01*X048700Y010850D01*X048700Y010850D01*
X048700Y010525D01*X048950Y010525D01*X048950Y010750D01*X051550Y010750D01*
X051550Y010393D01*X051650Y010255D01*X051650Y007745D01*X051497Y007535D01*
X051465Y007524D01*X051430Y007490D01*X051372Y007410D01*X051125Y007329D01*
X051062Y007350D01*X048938Y007350D01*X048938Y006200D01*X046063Y006200D01*
X046063Y007390D01*X046003Y007410D01*X045945Y007490D01*X045910Y007524D01*
X045878Y007535D01*X045725Y007745D01*X045725Y010255D01*X045800Y010358D01*
X045800Y012000D01*X047200Y012000D01*X047200Y010850D01*X047200Y010850D01*
X047200Y010525D01*X047300Y010525D01*X047300Y012000D01*X048700Y012000D01*
X048700Y012732D01*X048695Y012740D01*X048535Y012899D01*X048503Y012910D01*
X048350Y013120D01*X048350Y013200D01*X045853Y013200D01*X045550Y012897D01*
X045550Y012000D01*X045700Y012000D01*X045700Y010900D01*X045700Y010900D01*
X045700Y010100D01*X045700Y010100D01*X045700Y009000D01*X044300Y009000D01*
X044300Y009350D01*X044200Y009350D01*X044200Y009000D01*X043125Y009000D01*
X043125Y006796D01*X043372Y006715D01*X043383Y006700D01*X043394Y006700D01*
X043950Y006144D01*X043950Y005357D01*X043775Y005182D01*X043775Y003245D01*
X043700Y003142D01*X043700Y003025D01*X044050Y003025D01*X044050Y004500D01*
X044200Y004500D01*X044200Y004501D01*X044185Y004516D01*X044185Y004984D01*
X044200Y004999D01*X044200Y005251D01*X044185Y005266D01*X044185Y005734D01*
X044516Y006065D01*X044984Y006065D01*X045315Y005734D01*X045315Y005266D01*
X045300Y005251D01*X045300Y004999D01*X045315Y004984D01*X045315Y004516D01*
X045300Y004501D01*X045300Y004500D01*X045450Y004500D01*X045450Y003350D01*
X045450Y003350D01*X045450Y003025D01*X045459Y003025D01*X045600Y003166D01*
X045600Y004380D01*X045753Y004590D01*X045785Y004601D01*X045820Y004635D01*
X045878Y004715D01*X046063Y004775D01*X046063Y004800D01*X048938Y004800D01*
X048938Y003550D01*X049301Y003550D01*X049550Y003301D01*X049550Y004500D01*
X050950Y004500D01*X050950Y003350D01*X050950Y003350D01*X050950Y002650D01*
X050950Y002650D01*X050950Y001500D01*X049550Y001500D01*X049550Y002099D01*
X049000Y002649D01*X049000Y001550D01*X047525Y001550D01*X047525Y001245D01*
X047372Y001035D01*X047340Y001024D01*X047180Y000865D01*X047122Y000785D01*
X046875Y000704D01*X046812Y000725D01*X042938Y000725D01*X042875Y000704D01*
X042628Y000785D01*X042570Y000865D01*X042410Y001024D01*X042378Y001035D01*
X042225Y001245D01*X042225Y002755D01*X042300Y002858D01*X042300Y002975D01*
X041313Y002975D01*X041250Y002954D01*X041003Y003035D01*X040945Y003115D01*
X040785Y003274D01*X040753Y003285D01*X040600Y003495D01*X040600Y006255D01*
X040753Y006465D01*X040785Y006476D01*X040945Y006635D01*X041003Y006715D01*
X041250Y006796D01*X041313Y006775D01*X043062Y006775D01*X043125Y006796D01*
X043125Y009000D01*X042800Y009000D01*X042800Y012000D01*X044200Y012000D01*
X044200Y010850D01*X044200Y010850D01*X044200Y010150D01*X044300Y010150D01*
X044300Y012000D01*X044450Y012000D01*X044450Y013353D01*X045397Y014300D01*
X048350Y014300D01*X048350Y016130D01*X048503Y016340D01*X048535Y016351D01*
X048695Y016510D01*X048753Y016590D01*X049000Y016671D01*X049063Y016650D01*
X051334Y016650D01*X051350Y016666D01*X051350Y019380D01*X051503Y019590D01*
X051535Y019601D01*X051695Y019760D01*X051753Y019840D01*X052000Y019921D01*
X052063Y019900D01*X054687Y019900D01*X054750Y019921D01*X054750Y023076D01*
X054414Y022740D01*X053586Y022740D01*X053000Y023326D01*X053000Y024154D01*
X053586Y024740D01*X054414Y024740D01*X054414Y025280D01*X053586Y025280D01*
X053000Y025866D01*X053000Y026694D01*X053586Y027280D01*X054414Y027280D01*
X054414Y034400D01*X042164Y034400D01*X042164Y033000D01*X042750Y032414D01*
X042750Y031586D01*X042400Y031236D01*X042400Y027241D01*X043225Y026416D01*
X043225Y025084D01*X042416Y024275D01*X042400Y024275D01*X042400Y020231D01*
X042400Y020231D01*X042400Y019769D01*X042400Y019769D01*X042400Y019150D01*
X042481Y019150D01*X042481Y019150D01*X043200Y019150D01*X043200Y019250D01*
X044800Y019250D01*X044800Y019200D01*X045100Y019200D01*X045100Y019200D01*
X046250Y019200D01*X046250Y017800D01*X044800Y017800D01*X044800Y017750D01*
X043200Y017750D01*X043200Y017850D01*X042481Y017850D01*X042481Y017850D01*
X042019Y017850D01*X042019Y017850D01*X041250Y017850D01*X041250Y017700D01*
X041200Y017700D01*X041200Y017400D01*X041200Y017400D01*X041200Y016250D01*
X039800Y016250D01*X039800Y017700D01*X039750Y017700D01*X039750Y017850D01*
X038981Y017850D01*X038981Y017850D01*X038519Y017850D01*X038519Y017850D01*
X038019Y017850D01*X037800Y017631D01*X037800Y017000D01*X034787Y017000D01*
X034794Y016978D01*X034800Y016915D01*X034800Y016585D01*X034794Y016522D01*
X034771Y016447D01*X034734Y016377D01*X034683Y016316D01*X034623Y016267D01*
X034554Y016229D01*X034478Y016206D01*X034415Y016200D01*X034085Y016200D01*
X034022Y016206D01*X033946Y016229D01*X033877Y016267D01*X033816Y016316D01*
X033767Y016377D01*X033729Y016446D01*X033706Y016522D01*X033700Y016585D01*
X033700Y016915D01*X033706Y016978D01*X033713Y017000D01*X031476Y017000D01*
X031675Y016801D01*X031675Y013426D01*X031800Y013301D01*X031800Y014875D01*
X033200Y014875D01*X033200Y013725D01*X033200Y013725D01*X033200Y013050D01*
X033500Y013050D01*X033500Y013350D01*X037000Y013350D01*X037000Y009150D01*
X033500Y009150D01*X033500Y010825D01*X033200Y010825D01*X033200Y010150D01*
X033200Y010150D01*X033200Y009000D01*X031800Y009000D01*X031800Y010825D01*
X031699Y010825D01*X030325Y012199D01*X030325Y014810D01*X030016Y014810D01*
X029900Y014926D01*X029900Y014677D01*X029920Y014677D01*X029920Y013823D01*
X028927Y013823D01*X028927Y012831D01*X028900Y012831D01*X028900Y012649D01*
X029065Y012484D01*X029065Y012016D01*X029049Y012000D01*X029200Y012000D01*
X029200Y010850D01*X029200Y010850D01*X029200Y010150D01*X029291Y010150D01*
X029900Y009541D01*X029900Y007041D01*X030041Y006900D01*X034435Y006900D01*
X034435Y007359D01*X034766Y007690D01*X035234Y007690D01*X035565Y007359D01*
X035565Y006891D01*X035433Y006758D01*X037628Y004563D01*X037766Y004700D01*
X038234Y004700D01*X038277Y004658D01*X038277Y004816D01*X040274Y004816D01*
X040274Y002184D01*X038277Y002184D01*X038277Y002342D01*X038234Y002300D01*
X037766Y002300D01*X037435Y002631D01*X037435Y002864D01*X034699Y005600D01*
X032724Y005600D01*X032724Y002184D01*X030727Y002184D01*X030727Y004816D01*
X032724Y004816D01*X032724Y005600D01*X027209Y005600D01*X025600Y007209D01*
X025600Y012850D01*X025400Y012850D01*X025400Y004000D01*X025534Y004000D01*
X026120Y003414D01*X026120Y002586D01*X025534Y002000D01*X024706Y002000D01*
X024120Y002586D01*X024120Y003414D01*X024600Y003894D01*X024600Y004534D01*
X023530Y003464D01*X023580Y003414D01*X023580Y002586D01*X022994Y002000D01*
X022166Y002000D01*X021580Y002586D01*X021580Y003414D01*X022141Y003975D01*
X021581Y003975D01*X021030Y003424D01*X021040Y003414D01*X021040Y002586D01*
X020454Y002000D01*X019626Y002000D01*X019040Y002586D01*X019040Y003414D01*
X019626Y004000D01*X020454Y004000D01*X020464Y003990D01*X020949Y004475D01*
X019541Y004475D01*X018500Y003434D01*X018500Y002000D01*X016500Y002000D01*
X016500Y004000D01*X017934Y004000D01*X019119Y005185D01*X018766Y005185D01*
X018435Y005516D01*X018435Y005984D01*X018451Y006000D01*X018300Y006000D01*
X018300Y009000D01*X018586Y009000D01*X018000Y009586D01*X018000Y010414D01*
X018586Y011000D01*X018600Y011000D01*X018600Y013534D01*X017900Y012834D01*
X017900Y012625D01*X017914Y012625D01*X018500Y012039D01*X018500Y011211D01*
X017914Y010625D01*X017900Y010625D01*X017900Y009000D01*X018200Y009000D01*
X018200Y007900D01*X018200Y007900D01*X018200Y007100D01*X018200Y007100D01*
X018200Y006000D01*X018049Y006000D01*X018065Y005984D01*X018065Y005516D01*
X017734Y005185D01*X017266Y005185D01*X016935Y005516D01*X016935Y005984D01*
X016951Y006000D01*X016800Y006000D01*X016800Y009000D01*X017100Y009000D01*
X017100Y010625D01*X017086Y010625D01*X016500Y011211D01*X016500Y012039D01*
X017086Y012625D01*X017100Y012625D01*X017100Y013166D01*X019755Y015821D01*
X019560Y016016D01*X019560Y016484D01*X019891Y016815D01*X020359Y016815D01*
X020499Y016675D01*X020600Y016675D01*X020600Y018350D01*X019791Y018350D01*
X019416Y017975D01*X017050Y017975D01*X017050Y017135D01*X017063Y017135D01*
X017063Y014700D01*X016995Y014700D01*X016995Y014304D01*X017065Y014234D01*
X017065Y013766D01*X016734Y013435D01*X016266Y013435D01*X015935Y013766D01*
X015935Y013787D01*X015895Y013827D01*X015895Y014700D01*X013530Y014700D01*
X013530Y010250D01*X012064Y010250D01*X012064Y009065D01*X012395Y008734D01*
X012395Y008266D01*X012379Y008250D01*X013530Y008250D01*X013530Y005650D01*
X012230Y005650D01*X012230Y004874D01*X010780Y003424D01*X010790Y003414D01*
X010790Y002586D01*X010204Y002000D01*X009376Y002000D01*X008790Y002586D01*
X008790Y003414D01*X009376Y004000D01*X010204Y004000D01*X010214Y003990D01*
X011430Y005206D01*X011430Y005650D01*X010130Y005650D01*X010130Y008250D01*
X011281Y008250D01*X011265Y008266D01*X011265Y008734D01*X011596Y009065D01*
X012064Y009065D01*X012064Y010250D01*X010130Y010250D01*X010130Y012850D01*
X013530Y012850D01*X013530Y014700D01*X009530Y014700D01*X009530Y010250D01*
X008064Y010250D01*X008064Y009065D01*X008395Y008734D01*X008395Y008266D01*
X008379Y008250D01*X009530Y008250D01*X009530Y005650D01*X008230Y005650D01*
X008230Y004000D01*X008250Y004000D01*X008250Y002000D01*X006250Y002000D01*
X006250Y004000D01*X007430Y004000D01*X007430Y005650D01*X006130Y005650D01*
X006130Y008250D01*X007281Y008250D01*X007265Y008266D01*X007265Y008734D01*
X007596Y009065D01*X008064Y009065D01*X008064Y010250D01*X006130Y010250D01*
X006130Y012850D01*X009530Y012850D01*X009530Y014700D01*X009225Y014700D01*
X009225Y014399D01*X009390Y014234D01*X009390Y013766D01*X009059Y013435D01*
X008591Y013435D01*X008260Y013766D01*X008260Y014234D01*X008425Y014399D01*
X008425Y014700D01*X007955Y014700D01*X007955Y014399D01*X008120Y014234D01*
X008120Y013766D01*X007789Y013435D01*X007321Y013435D01*X006990Y013766D01*
X006990Y014234D01*X007155Y014399D01*X007155Y014700D01*X006938Y014700D01*
X006938Y017135D01*X006950Y017135D01*X006950Y017150D01*X017050Y017150D01*
X017050Y017975D01*X009041Y017975D01*X008940Y017874D01*X008940Y017641D01*
X008609Y017310D01*X008141Y017310D01*X007810Y017641D01*X007810Y018109D01*
X008141Y018440D01*X008374Y018440D01*X008434Y018500D01*X008374Y018560D01*
X008141Y018560D01*X007810Y018891D01*X007810Y019359D01*X008141Y019690D01*
X008609Y019690D01*X008940Y019359D01*X008940Y019275D01*X009530Y019275D01*
X009530Y019734D01*X009646Y019850D01*X006950Y019850D01*X006950Y019865D01*
X006938Y019865D01*X006938Y022300D01*X007155Y022300D01*X007155Y022900D01*
X005800Y022900D01*X005800Y025500D01*X007100Y025500D01*X007100Y025601D01*
X006935Y025766D01*X006935Y026234D01*X007266Y026565D01*X007734Y026565D01*
X008065Y026234D01*X008065Y025766D01*X007900Y025601D01*X007900Y025500D01*
X009200Y025500D01*X009200Y023025D01*X009800Y023025D01*X009800Y025500D01*
X011100Y025500D01*X011100Y025601D01*X010935Y025766D01*X010935Y026234D01*
X011266Y026565D01*X011734Y026565D01*X012065Y026234D01*X012065Y025766D01*
X011900Y025601D01*X011900Y025500D01*X013200Y025500D01*X013200Y022900D01*
X011900Y022900D01*X011900Y022834D01*X011366Y022300D01*X014775Y022300D01*
X014775Y023125D01*X014550Y023125D01*X014550Y026125D01*X015950Y026125D01*
X015950Y024975D01*X015950Y024975D01*X015950Y024275D01*X015950Y024275D01*
X015950Y023125D01*X015575Y023125D01*X015575Y022300D01*X017063Y022300D01*
X017063Y019865D01*X017050Y019865D01*X017050Y019850D01*X016894Y019850D01*
X017010Y019734D01*X017010Y019275D01*X018834Y019275D01*X018975Y019416D01*
X018975Y022791D01*X019709Y023525D01*X022916Y023525D01*X023400Y023041D01*
X023400Y022150D01*X025100Y022150D01*X025100Y022601D01*X024935Y022766D01*
X024935Y023234D01*X025001Y023300D01*X024750Y023300D01*X024750Y024700D01*
X025900Y024700D01*X025900Y024700D01*X026435Y024700D01*X026435Y024839D01*
X026075Y025199D01*X026075Y025250D01*X025650Y025250D01*X025650Y027750D01*
X029850Y027750D01*X029850Y025250D01*X029425Y025250D01*X029425Y025199D01*
X029065Y024839D01*X029065Y024700D01*X029600Y024700D01*X029600Y024700D01*
X030750Y024700D01*X030750Y023300D01*X029374Y023300D01*X029565Y023109D01*
X029565Y022641D01*X029234Y022310D01*X029036Y022310D01*X028925Y022199D01*
X028925Y022170D01*X028927Y022170D01*X028927Y021718D01*X029234Y022025D01*
X029976Y022025D01*X030141Y022190D01*X030609Y022190D01*X030940Y021859D01*
X030940Y021391D01*X030737Y021188D01*X030940Y020984D01*X030940Y020516D01*
X030674Y020250D01*X030924Y020000D01*X033750Y020000D01*X033750Y020050D01*
X033800Y020050D01*X033800Y021500D01*X035200Y021500D01*X035200Y020350D01*
X035200Y020350D01*X035200Y020050D01*X035250Y020050D01*X035250Y019900D01*
X036269Y019900D01*X036269Y019900D01*X036731Y019900D01*X036731Y019900D01*
X037269Y019900D01*X037385Y019784D01*X037401Y019776D01*X037469Y019719D01*
X037526Y019651D01*X037534Y019635D01*X038019Y019150D01*X038519Y019150D01*
X038519Y019150D01*X038981Y019150D01*X038981Y019150D01*X039750Y019150D01*
X039750Y019300D01*X041100Y019300D01*X041100Y019769D01*X041100Y019769D01*
X041100Y020231D01*X041100Y020231D01*X041100Y024275D01*X041084Y024275D01*
X040275Y025084D01*X040275Y026416D01*X041100Y027241D01*X041100Y031236D01*
X040750Y031586D01*X040750Y032414D01*X041336Y033000D01*X042164Y033000D01*
X042164Y034400D01*X035824Y034400D01*X035824Y033000D01*X036410Y032414D01*
X036410Y031586D01*X035824Y031000D01*X034996Y031000D01*X034410Y031586D01*
X034410Y032414D01*X034996Y033000D01*X035824Y033000D01*X035824Y034400D01*
X033284Y034400D01*X033284Y033000D01*X033870Y032414D01*X033870Y031586D01*
X033284Y031000D01*X032456Y031000D01*X031870Y031586D01*X031870Y032414D01*
X032456Y033000D01*X033284Y033000D01*X033284Y034400D01*X030744Y034400D01*
X030744Y033000D01*X031330Y032414D01*X031330Y031586D01*X030744Y031000D01*
X029916Y031000D01*X029330Y031586D01*X029330Y032414D01*X029916Y033000D01*
X030744Y033000D01*X030744Y034400D01*X028204Y034400D01*X028204Y033000D01*
X028790Y032414D01*X028790Y031586D01*X028204Y031000D01*X027376Y031000D01*
X026790Y031586D01*X026790Y032414D01*X027376Y033000D01*X028204Y033000D01*
X028204Y034400D01*X026250Y034400D01*X026250Y031000D01*X025800Y031000D01*
X025800Y030200D01*X026350Y030200D01*X026350Y030200D01*X027500Y030200D01*
X027500Y028800D01*X024500Y028800D01*X024500Y030200D01*X024700Y030200D01*
X024700Y031000D01*X024250Y031000D01*X024250Y033000D01*X026250Y033000D01*
X026250Y034400D01*X022144Y034400D01*X022144Y032950D01*X022700Y032394D01*
X022700Y031607D01*X022144Y031050D01*X021357Y031050D01*X020800Y031607D01*
X020800Y032394D01*X021357Y032950D01*X022144Y032950D01*X022144Y034400D01*
X012644Y034400D01*X012644Y032950D01*X013200Y032394D01*X013200Y027500D01*
X009800Y027500D01*X009800Y030100D01*X013200Y030100D01*X013200Y031607D01*
X012644Y031050D01*X011857Y031050D01*X011300Y031607D01*X011300Y032394D01*
X011857Y032950D01*X012644Y032950D01*X012644Y034400D01*X009200Y034400D01*
X009200Y027500D01*X005800Y027500D01*X005800Y030100D01*X009200Y030100D01*
X009200Y034400D01*X007894Y034400D01*X007894Y032950D01*X008450Y032394D01*
X008450Y031607D01*X007894Y031050D01*X007107Y031050D01*X006550Y031607D01*
X006550Y032394D01*X007107Y032950D01*X007894Y032950D01*X007894Y034400D01*
X003414Y034400D01*X003414Y027280D01*X004000Y026694D01*X004000Y025866D01*
X003414Y025280D01*X003414Y024740D01*X004000Y024154D01*X004000Y023326D01*
X003414Y022740D01*X003414Y019660D01*X004000Y019074D01*X004000Y018246D01*
X003414Y017660D01*X003414Y017120D01*X004000Y016534D01*X004000Y015706D01*
X003414Y015120D01*X002586Y015120D01*X002000Y015706D01*X002000Y016534D01*
X002586Y017120D01*X003414Y017120D01*X003414Y017660D01*X002586Y017660D01*
X002000Y018246D01*X002000Y019074D01*X002586Y019660D01*X003414Y019660D01*
X003414Y022740D01*X002586Y022740D01*X002000Y023326D01*X002000Y024154D01*
X002586Y024740D01*X003414Y024740D01*X003414Y025280D01*X002586Y025280D01*
X002000Y025866D01*X002000Y026694D01*X002586Y027280D01*X003414Y027280D01*
X003414Y034400D01*X000600Y034400D01*X000600Y000600D01*G37*G36*X026400Y007541D02*
X027541Y006400D01*X029409Y006400D01*X029100Y006709D01*X029100Y009000D01*
X027800Y009000D01*X027800Y012000D01*X027951Y012000D01*X027935Y012016D01*
X027935Y012484D01*X028100Y012649D01*X028100Y012831D01*X028073Y012831D01*
X028073Y012850D01*X026925Y012850D01*X026925Y012624D01*X027065Y012484D01*
X027065Y012016D01*X026734Y011685D01*X026400Y011685D01*X026400Y007541D01*G37*G36*
X022025Y011000D02*X022414Y011000D01*X023000Y010414D01*X023000Y009586D01*
X022414Y009000D01*X022700Y009000D01*X022700Y007900D01*X022700Y007900D01*
X022700Y007100D01*X022700Y007100D01*X022700Y006000D01*X022549Y006000D01*
X022565Y005984D01*X022565Y005516D01*X022324Y005275D01*X022709Y005275D01*
X023100Y005666D01*X023100Y011685D01*X022766Y011685D01*X022625Y011826D01*
X022484Y011685D01*X022025Y011685D01*X022025Y011000D01*G37*G36*X019775Y019150D02*
X020600Y019150D01*X020600Y020323D01*X020581Y020323D01*X020581Y021177D01*
X021573Y021177D01*X021573Y021935D01*X021391Y021935D01*X021060Y022266D01*
X021060Y022725D01*X020041Y022725D01*X019775Y022459D01*X019775Y019150D01*G37*G36*
X034000Y016600D02*X034002Y016580D01*X034008Y016562D01*X034017Y016544D01*
X034029Y016529D01*X034044Y016517D01*X034062Y016508D01*X034080Y016502D01*
X034100Y016500D01*X034400Y016500D01*X034420Y016502D01*X034438Y016508D01*
X034456Y016517D01*X034471Y016529D01*X034483Y016544D01*X034492Y016562D01*
X034498Y016580D01*X034500Y016600D01*X034500Y016900D01*X034498Y016920D01*
X034492Y016938D01*X034483Y016956D01*X034471Y016971D01*X034456Y016983D01*
X034438Y016992D01*X034420Y016998D01*X034400Y017000D01*X034100Y017000D01*
X034080Y016998D01*X034062Y016992D01*X034044Y016983D01*X034029Y016971D01*
X034017Y016956D01*X034008Y016938D01*X034002Y016920D01*X034000Y016900D01*
X034000Y016600D01*G37*G36*X034000Y017600D02*X034002Y017580D01*X034008Y017562D01*
X034017Y017544D01*X034029Y017529D01*X034044Y017517D01*X034062Y017508D01*
X034080Y017502D01*X034100Y017500D01*X034400Y017500D01*X034420Y017502D01*
X034438Y017508D01*X034456Y017517D01*X034471Y017529D01*X034483Y017544D01*
X034492Y017562D01*X034498Y017580D01*X034500Y017600D01*X034500Y017900D01*
X034498Y017920D01*X034492Y017938D01*X034483Y017956D01*X034471Y017971D01*
X034456Y017983D01*X034438Y017992D01*X034420Y017998D01*X034400Y018000D01*
X034100Y018000D01*X034080Y017998D01*X034062Y017992D01*X034044Y017983D01*
X034029Y017971D01*X034017Y017956D01*X034008Y017938D01*X034002Y017920D01*
X034000Y017900D01*X034000Y017600D01*
G37*G36*X038000Y018350D02*X038002Y018330D01*
X038008Y018312D01*X038017Y018294D01*X038029Y018279D01*X038044Y018267D01*
X038062Y018258D01*X038080Y018252D01*X038100Y018250D01*X038400Y018250D01*
X038420Y018252D01*X038438Y018258D01*X038456Y018267D01*X038471Y018279D01*
X038483Y018294D01*X038492Y018312D01*X038498Y018330D01*X038500Y018350D01*
X038500Y018650D01*X038498Y018670D01*X038492Y018688D01*X038483Y018706D01*
X038471Y018721D01*X038456Y018733D01*X038438Y018742D01*X038420Y018748D01*
X038400Y018750D01*X038100Y018750D01*X038080Y018748D01*X038062Y018742D01*
X038044Y018733D01*X038029Y018721D01*X038017Y018706D01*X038008Y018688D01*
X038002Y018670D01*X038000Y018650D01*X038000Y018350D01*G37*G36*X036750Y019100D02*
X036752Y019080D01*X036758Y019062D01*X036767Y019044D01*X036779Y019029D01*
X036794Y019017D01*X036812Y019008D01*X036830Y019002D01*X036850Y019000D01*
X037150Y019000D01*X037170Y019002D01*X037188Y019008D01*X037206Y019017D01*
X037221Y019029D01*X037233Y019044D01*X037242Y019062D01*X037248Y019080D01*
X037250Y019100D01*X037250Y019400D01*X037248Y019420D01*X037242Y019438D01*
X037233Y019456D01*X037221Y019471D01*X037206Y019483D01*X037188Y019492D01*
X037170Y019498D01*X037150Y019500D01*X036850Y019500D01*X036830Y019498D01*
X036812Y019492D01*X036794Y019483D01*X036779Y019471D01*X036767Y019456D01*
X036758Y019438D01*X036752Y019420D01*X036750Y019400D01*X036750Y019100D01*G37*G36*
X035750Y019100D02*X035752Y019080D01*X035758Y019062D01*X035767Y019044D01*
X035779Y019029D01*X035794Y019017D01*X035812Y019008D01*X035830Y019002D01*
X035850Y019000D01*X036150Y019000D01*X036170Y019002D01*X036188Y019008D01*
X036206Y019017D01*X036221Y019029D01*X036233Y019044D01*X036242Y019062D01*
X036248Y019080D01*X036250Y019100D01*X036250Y019400D01*X036248Y019420D01*
X036242Y019438D01*X036233Y019456D01*X036221Y019471D01*X036206Y019483D01*
X036188Y019492D01*X036170Y019498D01*X036150Y019500D01*X035850Y019500D01*
X035830Y019498D01*X035812Y019492D01*X035794Y019483D01*X035779Y019471D01*
X035767Y019456D01*X035758Y019438D01*X035752Y019420D01*X035750Y019400D01*
X035750Y019100D01*G37*G36*X039000Y018350D02*X039002Y018330D01*X039008Y018312D01*
X039017Y018294D01*X039029Y018279D01*X039044Y018267D01*X039062Y018258D01*
X039080Y018252D01*X039100Y018250D01*X039400Y018250D01*X039420Y018252D01*
X039438Y018258D01*X039456Y018267D01*X039471Y018279D01*X039483Y018294D01*
X039492Y018312D01*X039498Y018330D01*X039500Y018350D01*X039500Y018650D01*
X039498Y018670D01*X039492Y018688D01*X039483Y018706D01*X039471Y018721D01*
X039456Y018733D01*X039438Y018742D01*X039420Y018748D01*X039400Y018750D01*
X039100Y018750D01*X039080Y018748D01*X039062Y018742D01*X039044Y018733D01*
X039029Y018721D01*X039017Y018706D01*X039008Y018688D01*X039002Y018670D01*
X039000Y018650D01*X039000Y018350D01*G37*G36*X041500Y018350D02*X041502Y018330D01*
X041508Y018312D01*X041517Y018294D01*X041529Y018279D01*X041544Y018267D01*
X041562Y018258D01*X041580Y018252D01*X041600Y018250D01*X041900Y018250D01*
X041920Y018252D01*X041938Y018258D01*X041956Y018267D01*X041971Y018279D01*
X041983Y018294D01*X041992Y018312D01*X041998Y018330D01*X042000Y018350D01*
X042000Y018650D01*X041998Y018670D01*X041992Y018688D01*X041983Y018706D01*
X041971Y018721D01*X041956Y018733D01*X041938Y018742D01*X041920Y018748D01*
X041900Y018750D01*X041600Y018750D01*X041580Y018748D01*X041562Y018742D01*
X041544Y018733D01*X041529Y018721D01*X041517Y018706D01*X041508Y018688D01*
X041502Y018670D01*X041500Y018650D01*X041500Y018350D01*G37*G36*X041500Y019350D02*
X041502Y019330D01*X041508Y019312D01*X041517Y019294D01*X041529Y019279D01*
X041544Y019267D01*X041562Y019258D01*X041580Y019252D01*X041600Y019250D01*
X041900Y019250D01*X041920Y019252D01*X041938Y019258D01*X041956Y019267D01*
X041971Y019279D01*X041983Y019294D01*X041992Y019312D01*X041998Y019330D01*
X042000Y019350D01*X042000Y019650D01*X041998Y019670D01*X041992Y019688D01*
X041983Y019706D01*X041971Y019721D01*X041956Y019733D01*X041938Y019742D01*
X041920Y019748D01*X041900Y019750D01*X041600Y019750D01*X041580Y019748D01*
X041562Y019742D01*X041544Y019733D01*X041529Y019721D01*X041517Y019706D01*
X041508Y019688D01*X041502Y019670D01*X041500Y019650D01*X041500Y019350D01*G37*G36*
X042500Y018350D02*X042502Y018330D01*X042508Y018312D01*X042517Y018294D01*
X042529Y018279D01*X042544Y018267D01*X042562Y018258D01*X042580Y018252D01*
X042600Y018250D01*X042900Y018250D01*X042920Y018252D01*X042938Y018258D01*
X042956Y018267D01*X042971Y018279D01*X042983Y018294D01*X042992Y018312D01*
X042998Y018330D01*X043000Y018350D01*X043000Y018650D01*X042998Y018670D01*
X042992Y018688D01*X042983Y018706D01*X042971Y018721D01*X042956Y018733D01*
X042938Y018742D01*X042920Y018748D01*X042900Y018750D01*X042600Y018750D01*
X042580Y018748D01*X042562Y018742D01*X042544Y018733D01*X042529Y018721D01*
X042517Y018706D01*X042508Y018688D01*X042502Y018670D01*X042500Y018650D01*
X042500Y018350D01*G37*G36*X041500Y020350D02*X041502Y020330D01*X041508Y020312D01*
X041517Y020294D01*X041529Y020279D01*X041544Y020267D01*X041562Y020258D01*
X041580Y020252D01*X041600Y020250D01*X041900Y020250D01*X041920Y020252D01*
X041938Y020258D01*X041956Y020267D01*X041971Y020279D01*X041983Y020294D01*
X041992Y020312D01*X041998Y020330D01*X042000Y020350D01*X042000Y020650D01*
X041998Y020670D01*X041992Y020688D01*X041983Y020706D01*X041971Y020721D01*
X041956Y020733D01*X041938Y020742D01*X041920Y020748D01*X041900Y020750D01*
X041600Y020750D01*X041580Y020748D01*X041562Y020742D01*X041544Y020733D01*
X041529Y020721D01*X041517Y020706D01*X041508Y020688D01*X041502Y020670D01*
X041500Y020650D01*X041500Y020350D01*G37*G36*X017465Y040976D02*X017465Y040998D01*
X017854Y040998D01*X017854Y040976D01*X017875Y040976D01*X017875Y040955D01*
X017918Y040955D01*X017918Y040933D01*X017940Y040933D01*X017940Y040911D01*
X017962Y040911D01*X017962Y040890D01*X017983Y040890D01*X017983Y040868D01*
X018005Y040868D01*X018005Y040847D01*X018027Y040847D01*X018027Y040825D01*
X018048Y040825D01*X018048Y040803D01*X018070Y040803D01*X018070Y040782D01*
X018091Y040782D01*X018091Y040760D01*X018135Y040760D01*X018135Y040739D01*
X018156Y040739D01*X018156Y040717D01*X018178Y040717D01*X018178Y040695D01*
X018199Y040695D01*X018199Y040674D01*X018221Y040674D01*X018221Y040652D01*
X018264Y040652D01*X018264Y040674D01*X018307Y040674D01*X018307Y040695D01*
X018351Y040695D01*X018351Y040717D01*X018372Y040717D01*X018372Y040739D01*
X018415Y040739D01*X018415Y040760D01*X018437Y040760D01*X018437Y040782D01*
X018480Y040782D01*X018480Y040803D01*X018523Y040803D01*X018523Y040825D01*
X018545Y040825D01*X018545Y040847D01*X018588Y040847D01*X018588Y040868D01*
X018610Y040868D01*X018610Y040890D01*X018653Y040890D01*X018653Y040911D01*
X018675Y040911D01*X018675Y040933D01*X018718Y040933D01*X018718Y040955D01*
X018739Y040955D01*X018739Y040976D01*X018783Y040976D01*X018783Y040998D01*
X019236Y040998D01*X019236Y040976D01*X019193Y040976D01*X019193Y040955D01*
X019171Y040955D01*X019171Y040933D01*X019128Y040933D01*X019128Y040911D01*
X019107Y040911D01*X019107Y040890D01*X019063Y040890D01*X019063Y040868D01*
X019042Y040868D01*X019042Y040847D01*X018999Y040847D01*X018999Y040825D01*
X018977Y040825D01*X018977Y040803D01*X018934Y040803D01*X018934Y040782D01*
X018912Y040782D01*X018912Y040760D01*X018869Y040760D01*X018869Y040739D01*
X018847Y040739D01*X018847Y040717D01*X018804Y040717D01*X018804Y040695D01*
X018783Y040695D01*X018783Y040674D01*X018739Y040674D01*X018739Y040652D01*
X018718Y040652D01*X018718Y040631D01*X018675Y040631D01*X018675Y040609D01*
X018653Y040609D01*X018653Y040587D01*X018610Y040587D01*X018610Y040566D01*
X018588Y040566D01*X018588Y040544D01*X018545Y040544D01*X018545Y040523D01*
X018523Y040523D01*X018523Y040501D01*X018480Y040501D01*X018480Y040458D01*
X018005Y040458D01*X018005Y040523D01*X017983Y040523D01*X017983Y040544D01*
X017940Y040544D01*X017940Y040566D01*X017918Y040566D01*X017918Y040587D01*
X017897Y040587D01*X017897Y040609D01*X017875Y040609D01*X017875Y040631D01*
X017854Y040631D01*X017854Y040652D01*X017832Y040652D01*X017832Y040674D01*
X017810Y040674D01*X017810Y040695D01*X017789Y040695D01*X017789Y040717D01*
X017746Y040717D01*X017746Y040739D01*X017724Y040739D01*X017724Y040760D01*
X017702Y040760D01*X017702Y040782D01*X017681Y040782D01*X017681Y040803D01*
X017659Y040803D01*X017659Y040825D01*X017638Y040825D01*X017638Y040847D01*
X017616Y040847D01*X017616Y040868D01*X017573Y040868D01*X017573Y040890D01*
X017551Y040890D01*X017551Y040911D01*X017530Y040911D01*X017530Y040933D01*
X017508Y040933D01*X017508Y040955D01*X017486Y040955D01*X017486Y040976D01*
X017465Y040976D01*G37*G36*X017530Y040155D02*X017530Y040177D01*X017573Y040177D01*
X017573Y040199D01*X017594Y040199D01*X017594Y040220D01*X017638Y040220D01*
X017638Y040242D01*X017681Y040242D01*X017681Y040263D01*X017702Y040263D01*
X017702Y040285D01*X017746Y040285D01*X017746Y040307D01*X017767Y040307D01*
X017767Y040328D01*X017789Y040328D01*X017789Y040350D01*X017832Y040350D01*
X017832Y040371D01*X017875Y040371D01*X017875Y040393D01*X017897Y040393D01*
X017897Y040415D01*X017940Y040415D01*X017940Y040436D01*X017962Y040436D01*
X017962Y040458D01*X018502Y040458D01*X018502Y040436D01*X018523Y040436D01*
X018523Y040415D01*X018567Y040415D01*X018567Y040393D01*X018588Y040393D01*
X018588Y040371D01*X018610Y040371D01*X018610Y040350D01*X018631Y040350D01*
X018631Y040328D01*X018675Y040328D01*X018675Y040307D01*X018696Y040307D01*
X018696Y040285D01*X018718Y040285D01*X018718Y040263D01*X018739Y040263D01*
X018739Y040242D01*X018783Y040242D01*X018783Y040220D01*X018804Y040220D01*
X018804Y040199D01*X018826Y040199D01*X018826Y040177D01*X018847Y040177D01*
X018847Y040155D01*X018891Y040155D01*X018891Y040134D01*X018912Y040134D01*
X018912Y040112D01*X018934Y040112D01*X018934Y040091D01*X018955Y040091D01*
X018955Y040069D01*X018977Y040069D01*X018977Y040047D01*X019020Y040047D01*
X019020Y040026D01*X019042Y040026D01*X019042Y040004D01*X019063Y040004D01*
X019063Y039983D01*X019085Y039983D01*X019085Y039961D01*X018631Y039961D01*
X018631Y039983D01*X018588Y039983D01*X018588Y040004D01*X018567Y040004D01*
X018567Y040026D01*X018545Y040026D01*X018545Y040047D01*X018523Y040047D01*
X018523Y040069D01*X018502Y040069D01*X018502Y040091D01*X018480Y040091D01*
X018480Y040112D01*X018437Y040112D01*X018437Y040134D01*X018415Y040134D01*
X018415Y040155D01*X018394Y040155D01*X018394Y040177D01*X018372Y040177D01*
X018372Y040199D01*X018351Y040199D01*X018351Y040220D01*X018329Y040220D01*
X018329Y040242D01*X018286Y040242D01*X018286Y040263D01*X018264Y040263D01*
X018264Y040285D01*X018243Y040285D01*X018243Y040307D01*X018199Y040307D01*
X018199Y040285D01*X018156Y040285D01*X018156Y040263D01*X018135Y040263D01*
X018135Y040242D01*X018091Y040242D01*X018091Y040220D01*X018048Y040220D01*
X018048Y040199D01*X018027Y040199D01*X018027Y040177D01*X017983Y040177D01*
X017983Y040155D01*X017530Y040155D01*
G37*G36*X015758Y041451D02*X015780Y041451D01*
X015780Y041430D01*X015823Y041430D01*X015823Y041408D01*X015866Y041408D01*
X015866Y041430D01*X015909Y041430D01*X015909Y041451D01*X015953Y041451D01*
X015953Y041473D01*X015996Y041473D01*X015996Y041495D01*X016017Y041495D01*
X016017Y041516D01*X016039Y041516D01*X016039Y041538D01*X016061Y041538D01*
X016061Y041560D01*X016082Y041560D01*X016082Y041581D01*X016104Y041581D01*
X016104Y041624D01*X016125Y041624D01*X016125Y041646D01*X016147Y041646D01*
X016147Y041689D01*X016169Y041689D01*X016169Y041776D01*X016190Y041776D01*
X016190Y041948D01*X016169Y041948D01*X016169Y042013D01*X016017Y042013D01*
X016017Y041970D01*X016039Y041970D01*X016039Y041754D01*X016017Y041754D01*
X016017Y041711D01*X015996Y041711D01*X015996Y041668D01*X015974Y041668D01*
X015974Y041646D01*X015953Y041646D01*X015953Y041624D01*X015931Y041624D01*
X015931Y041603D01*X015888Y041603D01*X015888Y041581D01*X015845Y041581D01*
X015845Y041560D01*X015801Y041560D01*X015801Y041538D01*X015780Y041538D01*
X015780Y041516D01*X015758Y041516D01*X015758Y041451D01*G37*G36*X015305Y042035D02*
X015477Y042035D01*X015477Y042056D01*X015499Y042056D01*X015499Y042100D01*
X015521Y042100D01*X015521Y042121D01*X015564Y042121D01*X015564Y042143D01*
X015607Y042143D01*X015607Y042164D01*X015693Y042164D01*X015693Y042186D01*
X015780Y042186D01*X015780Y042164D01*X015866Y042164D01*X015866Y042143D01*
X015888Y042143D01*X015888Y042121D01*X015931Y042121D01*X015931Y042100D01*
X015953Y042100D01*X015953Y042078D01*X015974Y042078D01*X015974Y042056D01*
X015996Y042056D01*X015996Y042013D01*X016169Y042013D01*X016169Y042035D01*
X016147Y042035D01*X016147Y042078D01*X016125Y042078D01*X016125Y042121D01*
X016104Y042121D01*X016104Y042143D01*X016082Y042143D01*X016082Y042164D01*
X016061Y042164D01*X016061Y042186D01*X016039Y042186D01*X016039Y042208D01*
X016017Y042208D01*X016017Y042229D01*X015996Y042229D01*X015996Y042251D01*
X015953Y042251D01*X015953Y042272D01*X015909Y042272D01*X015909Y042294D01*
X015845Y042294D01*X015845Y042316D01*X015607Y042316D01*X015607Y042294D01*
X015542Y042294D01*X015542Y042272D01*X015499Y042272D01*X015499Y042251D01*
X015477Y042251D01*X015477Y042229D01*X015434Y042229D01*X015434Y042208D01*
X015413Y042208D01*X015413Y042186D01*X015391Y042186D01*X015391Y042164D01*
X015369Y042164D01*X015369Y042121D01*X015348Y042121D01*X015348Y042100D01*
X015326Y042100D01*X015326Y042056D01*X015305Y042056D01*X015305Y042035D01*G37*G36*
X015261Y041819D02*X015283Y041819D01*X015283Y041732D01*X015305Y041732D01*
X015305Y041668D01*X015326Y041668D01*X015326Y041624D01*X015348Y041624D01*
X015348Y041603D01*X015369Y041603D01*X015369Y041560D01*X015391Y041560D01*
X015391Y041538D01*X015434Y041538D01*X015434Y041516D01*X015521Y041516D01*
X015521Y041538D01*X015542Y041538D01*X015542Y041624D01*X015521Y041624D01*
X015521Y041646D01*X015499Y041646D01*X015499Y041668D01*X015477Y041668D01*
X015477Y041689D01*X015456Y041689D01*X015456Y041732D01*X015434Y041732D01*
X015434Y041797D01*X015413Y041797D01*X015413Y041927D01*X015434Y041927D01*
X015434Y041992D01*X015456Y041992D01*X015456Y042035D01*X015305Y042035D01*
X015305Y042013D01*X015283Y042013D01*X015283Y041905D01*X015261Y041905D01*
X015261Y041819D01*G37*G36*X014462Y040782D02*X014484Y040782D01*X014484Y040739D01*
X014505Y040739D01*X014505Y040717D01*X014527Y040717D01*X014527Y040674D01*
X014548Y040674D01*X014548Y040631D01*X014570Y040631D01*X014570Y040587D01*
X014592Y040587D01*X014592Y040544D01*X014613Y040544D01*X014613Y040501D01*
X014635Y040501D01*X014635Y040479D01*X014656Y040479D01*X014656Y040436D01*
X014678Y040436D01*X014678Y040393D01*X014700Y040393D01*X014700Y040350D01*
X014721Y040350D01*X014721Y040307D01*X014743Y040307D01*X014743Y040263D01*
X014765Y040263D01*X014765Y040242D01*X014786Y040242D01*X014786Y040199D01*
X014808Y040199D01*X014808Y040155D01*X014829Y040155D01*X014829Y040112D01*
X014851Y040112D01*X014851Y040069D01*X014873Y040069D01*X014873Y040047D01*
X014894Y040047D01*X014894Y040004D01*X014916Y040004D01*X014916Y039961D01*
X015413Y039961D01*X015413Y040026D01*X015434Y040026D01*X015434Y040155D01*
X015456Y040155D01*X015456Y040263D01*X015477Y040263D01*X015477Y040393D01*
X015499Y040393D01*X015499Y040523D01*X015521Y040523D01*X015521Y040631D01*
X015542Y040631D01*X015542Y040760D01*X015564Y040760D01*X015564Y040868D01*
X015585Y040868D01*X015585Y040998D01*X015607Y040998D01*X015607Y041127D01*
X015629Y041127D01*X015629Y041257D01*X015650Y041257D01*X015650Y041365D01*
X015672Y041365D01*X015672Y041495D01*X015693Y041495D01*X015693Y041624D01*
X015715Y041624D01*X015715Y041732D01*X015737Y041732D01*X015737Y041819D01*
X015715Y041819D01*X015715Y041776D01*X015693Y041776D01*X015693Y041711D01*
X015672Y041711D01*X015672Y041668D01*X015650Y041668D01*X015650Y041624D01*
X015629Y041624D01*X015629Y041581D01*X015607Y041581D01*X015607Y041538D01*
X015585Y041538D01*X015585Y041495D01*X015564Y041495D01*X015564Y041451D01*
X015542Y041451D01*X015542Y041408D01*X015521Y041408D01*X015521Y041365D01*
X015499Y041365D01*X015499Y041322D01*X015477Y041322D01*X015477Y041279D01*
X015456Y041279D01*X015456Y041214D01*X015434Y041214D01*X015434Y041171D01*
X015413Y041171D01*X015413Y041127D01*X015391Y041127D01*X015391Y041084D01*
X015369Y041084D01*X015369Y041041D01*X015348Y041041D01*X015348Y040998D01*
X015326Y040998D01*X015326Y040955D01*X015305Y040955D01*X015305Y040911D01*
X015283Y040911D01*X015283Y040868D01*X015261Y040868D01*X015261Y040825D01*
X015240Y040825D01*X015240Y040782D01*X015218Y040782D01*X015218Y040717D01*
X015197Y040717D01*X015197Y040674D01*X015175Y040674D01*X015175Y040631D01*
X015153Y040631D01*X015153Y040587D01*X015132Y040587D01*X015132Y040544D01*
X015110Y040544D01*X015110Y040501D01*X015089Y040501D01*X015089Y040458D01*
X015067Y040458D01*X015067Y040415D01*X015024Y040415D01*X015024Y040436D01*
X015002Y040436D01*X015002Y040479D01*X014981Y040479D01*X014981Y040523D01*
X014959Y040523D01*X014959Y040566D01*X014937Y040566D01*X014937Y040609D01*
X014916Y040609D01*X014916Y040631D01*X014894Y040631D01*X014894Y040674D01*
X014873Y040674D01*X014873Y040717D01*X014851Y040717D01*X014851Y040760D01*
X014829Y040760D01*X014829Y040803D01*X014462Y040803D01*X014462Y040782D01*G37*G36*
X013857Y040998D02*X013857Y041019D01*X013879Y041019D01*X013879Y041149D01*
X013900Y041149D01*X013900Y041279D01*X013922Y041279D01*X013922Y041408D01*
X013944Y041408D01*X013944Y041495D01*X014440Y041495D01*X014440Y041473D01*
X014462Y041473D01*X014462Y041430D01*X014484Y041430D01*X014484Y041387D01*
X014505Y041387D01*X014505Y041343D01*X014527Y041343D01*X014527Y041322D01*
X014548Y041322D01*X014548Y041279D01*X014570Y041279D01*X014570Y041235D01*
X014592Y041235D01*X014592Y041192D01*X014613Y041192D01*X014613Y041149D01*
X014635Y041149D01*X014635Y041106D01*X014656Y041106D01*X014656Y041084D01*
X014678Y041084D01*X014678Y041041D01*X014700Y041041D01*X014700Y040998D01*
X014721Y040998D01*X014721Y040955D01*X014743Y040955D01*X014743Y040911D01*
X014765Y040911D01*X014765Y040868D01*X014786Y040868D01*X014786Y040847D01*
X014808Y040847D01*X014808Y040803D01*X014462Y040803D01*X014462Y040825D01*
X014440Y040825D01*X014440Y040868D01*X014419Y040868D01*X014419Y040911D01*
X014397Y040911D01*X014397Y040955D01*X014376Y040955D01*X014376Y040976D01*
X014354Y040976D01*X014354Y041019D01*X014332Y041019D01*X014332Y041063D01*
X014311Y041063D01*X014311Y041041D01*X014289Y041041D01*X014289Y040998D01*
X013857Y040998D01*G37*G36*X013598Y039542D02*X013598Y039564D01*X013620Y039564D01*
X013620Y039542D01*X013598Y039542D01*G37*G36*X012453Y040155D02*X012453Y040199D01*
X012475Y040199D01*X012475Y040307D01*X012496Y040307D01*X012496Y040415D01*
X012518Y040415D01*X012518Y040523D01*X012539Y040523D01*X012539Y040631D01*
X012561Y040631D01*X012561Y040739D01*X012583Y040739D01*X012583Y040847D01*
X012604Y040847D01*X012604Y040890D01*X012626Y040890D01*X012626Y040911D01*
X012647Y040911D01*X012647Y040933D01*X012669Y040933D01*X012669Y040955D01*
X012712Y040955D01*X012712Y040976D01*X012799Y040976D01*X012799Y040998D01*
X014268Y040998D01*X014268Y040955D01*X014246Y040955D01*X014246Y040890D01*
X014224Y040890D01*X014224Y040847D01*X014203Y040847D01*X014203Y040803D01*
X014181Y040803D01*X014181Y040760D01*X014160Y040760D01*X014160Y040695D01*
X014138Y040695D01*X014138Y040652D01*X014116Y040652D01*X014116Y040609D01*
X014095Y040609D01*X014095Y040566D01*X014073Y040566D01*X014073Y040501D01*
X014052Y040501D01*X014052Y040458D01*X014030Y040458D01*X014030Y040415D01*
X014008Y040415D01*X014008Y040371D01*X013987Y040371D01*X013987Y040328D01*
X013965Y040328D01*X013965Y040263D01*X013944Y040263D01*X013944Y040220D01*
X013922Y040220D01*X013922Y040177D01*X013900Y040177D01*X013900Y040134D01*
X013879Y040134D01*X013879Y040069D01*X013857Y040069D01*X013857Y040026D01*
X013836Y040026D01*X013836Y039983D01*X013814Y039983D01*X013814Y039939D01*
X013792Y039939D01*X013792Y039874D01*X013771Y039874D01*X013771Y039831D01*
X013749Y039831D01*X013749Y039788D01*X013728Y039788D01*X013728Y039745D01*
X013706Y039745D01*X013706Y039680D01*X013684Y039680D01*X013684Y039637D01*
X013663Y039637D01*X013663Y039594D01*X013641Y039594D01*X013641Y039550D01*
X013620Y039550D01*X013620Y039637D01*X013641Y039637D01*X013641Y039766D01*
X013663Y039766D01*X013663Y039896D01*X013684Y039896D01*X013684Y040004D01*
X013706Y040004D01*X013706Y040134D01*X013728Y040134D01*X013728Y040263D01*
X013749Y040263D01*X013749Y040393D01*X013771Y040393D01*X013771Y040523D01*
X013792Y040523D01*X013792Y040652D01*X013814Y040652D01*X013814Y040760D01*
X013836Y040760D01*X013836Y040803D01*X013101Y040803D01*X013101Y040782D01*
X013058Y040782D01*X013058Y040760D01*X013036Y040760D01*X013036Y040739D01*
X013015Y040739D01*X013015Y040652D01*X012993Y040652D01*X012993Y040544D01*
X012971Y040544D01*X012971Y040436D01*X012950Y040436D01*X012950Y040328D01*
X012928Y040328D01*X012928Y040220D01*X012907Y040220D01*X012907Y040155D01*
X012453Y040155D01*G37*G36*X010617Y040112D02*X010617Y040242D01*X010638Y040242D01*
X010638Y040371D01*X010660Y040371D01*X010660Y040393D01*X011092Y040393D01*
X011092Y040307D01*X011070Y040307D01*X011070Y040199D01*X011114Y040199D01*
X011114Y040177D01*X011178Y040177D01*X011178Y040155D01*X012907Y040155D01*
X012907Y040112D01*X012885Y040112D01*X012885Y039983D01*X012863Y039983D01*
X012863Y039961D01*X011006Y039961D01*X011006Y039983D01*X010833Y039983D01*
X010833Y040004D01*X010768Y040004D01*X010768Y040026D01*X010703Y040026D01*
X010703Y040047D01*X010682Y040047D01*X010682Y040069D01*X010660Y040069D01*
X010660Y040091D01*X010638Y040091D01*X010638Y040112D01*X010617Y040112D01*G37*G36*
X010660Y040393D02*X010660Y040479D01*X010682Y040479D01*X010682Y040587D01*
X010703Y040587D01*X010703Y040717D01*X010725Y040717D01*X010725Y040825D01*
X010746Y040825D01*X010746Y040890D01*X010768Y040890D01*X010768Y040911D01*
X010790Y040911D01*X010790Y040933D01*X010811Y040933D01*X010811Y040955D01*
X010854Y040955D01*X010854Y040976D01*X010941Y040976D01*X010941Y040998D01*
X012345Y040998D01*X012345Y040976D01*X012388Y040976D01*X012388Y040955D01*
X012410Y040955D01*X012410Y040933D01*X012431Y040933D01*X012431Y040695D01*
X012410Y040695D01*X012410Y040587D01*X011978Y040587D01*X011978Y040674D01*
X011999Y040674D01*X011999Y040782D01*X011978Y040782D01*X011978Y040803D01*
X011243Y040803D01*X011243Y040782D01*X011200Y040782D01*X011200Y040760D01*
X011178Y040760D01*X011178Y040739D01*X011157Y040739D01*X011157Y040674D01*
X011135Y040674D01*X011135Y040609D01*X011114Y040609D01*X011114Y040587D01*
X012410Y040587D01*X012410Y040544D01*X012388Y040544D01*X012388Y040479D01*
X012367Y040479D01*X012367Y040436D01*X012323Y040436D01*X012323Y040415D01*
X012302Y040415D01*X012302Y040393D01*X010660Y040393D01*G37*G36*X009472Y040155D02*
X009472Y040285D01*X009493Y040285D01*X009493Y040393D01*X009515Y040393D01*
X009515Y040523D01*X009537Y040523D01*X009537Y040631D01*X009558Y040631D01*
X009558Y040739D01*X009580Y040739D01*X009580Y040868D01*X009601Y040868D01*
X009601Y040976D01*X009623Y040976D01*X009623Y041084D01*X009645Y041084D01*
X009645Y041214D01*X009666Y041214D01*X009666Y041322D01*X009688Y041322D01*
X009688Y041408D01*X010163Y041408D01*X010163Y041387D01*X010142Y041387D01*
X010142Y041279D01*X010120Y041279D01*X010120Y041192D01*X010098Y041192D01*
X010098Y041084D01*X010077Y041084D01*X010077Y040998D01*X010638Y040998D01*
X010638Y040955D01*X010617Y040955D01*X010617Y040825D01*X010595Y040825D01*
X010595Y040803D01*X010034Y040803D01*X010034Y040739D01*X010012Y040739D01*
X010012Y040652D01*X009990Y040652D01*X009990Y040544D01*X009969Y040544D01*
X009969Y040436D01*X009947Y040436D01*X009947Y040350D01*X009925Y040350D01*
X009925Y040199D01*X009947Y040199D01*X009947Y040177D01*X009990Y040177D01*
X009990Y040155D01*X010530Y040155D01*X010530Y040026D01*X010509Y040026D01*
X010509Y039961D01*X009969Y039961D01*X009969Y039983D01*X009731Y039983D01*
X009731Y040004D01*X009666Y040004D01*X009666Y040026D01*X009601Y040026D01*
X009601Y040047D01*X009580Y040047D01*X009580Y040069D01*X009537Y040069D01*
X009537Y040091D01*X009515Y040091D01*X009515Y040112D01*X009493Y040112D01*
X009493Y040155D01*X009472Y040155D01*
G37*G36*X007592Y039983D02*X007592Y040047D01*
X007614Y040047D01*X007614Y040155D01*X007636Y040155D01*X007636Y040263D01*
X007657Y040263D01*X007657Y040393D01*X007679Y040393D01*X007679Y040479D01*
X007700Y040479D01*X007700Y040609D01*X007722Y040609D01*X007722Y040717D01*
X007744Y040717D01*X007744Y040825D01*X007765Y040825D01*X007765Y040911D01*
X007787Y040911D01*X007787Y040998D01*X009040Y040998D01*X009040Y040976D01*
X009169Y040976D01*X009169Y040955D01*X009234Y040955D01*X009234Y040933D01*
X009299Y040933D01*X009299Y040911D01*X009342Y040911D01*X009342Y040890D01*
X009364Y040890D01*X009364Y040868D01*X009407Y040868D01*X009407Y040825D01*
X009429Y040825D01*X009429Y040674D01*X009407Y040674D01*X009407Y040544D01*
X009385Y040544D01*X009385Y040393D01*X009364Y040393D01*X009364Y040263D01*
X009342Y040263D01*X009342Y040134D01*X009321Y040134D01*X009321Y039983D01*
X008845Y039983D01*X008845Y040026D01*X008867Y040026D01*X008867Y040134D01*
X008889Y040134D01*X008889Y040285D01*X008910Y040285D01*X008910Y040393D01*
X008932Y040393D01*X008932Y040523D01*X008953Y040523D01*X008953Y040631D01*
X008975Y040631D01*X008975Y040760D01*X008953Y040760D01*X008953Y040782D01*
X008910Y040782D01*X008910Y040803D01*X008197Y040803D01*X008197Y040782D01*
X008176Y040782D01*X008176Y040652D01*X008154Y040652D01*X008154Y040544D01*
X008132Y040544D01*X008132Y040436D01*X008111Y040436D01*X008111Y040307D01*
X008089Y040307D01*X008089Y040220D01*X008068Y040220D01*X008068Y040091D01*
X008046Y040091D01*X008046Y039983D01*X007592Y039983D01*G37*G36*X006923Y039961D02*
X007420Y039961D01*X007420Y040004D01*X007441Y040004D01*X007441Y040112D01*
X007463Y040112D01*X007463Y040220D01*X007484Y040220D01*X007484Y040328D01*
X007506Y040328D01*X007506Y040436D01*X007528Y040436D01*X007528Y040566D01*
X007549Y040566D01*X007549Y040674D01*X007571Y040674D01*X007571Y040782D01*
X007592Y040782D01*X007592Y040890D01*X007614Y040890D01*X007614Y040998D01*
X007636Y040998D01*X007636Y041106D01*X007657Y041106D01*X007657Y041235D01*
X007679Y041235D01*X007679Y041343D01*X007700Y041343D01*X007700Y041451D01*
X007722Y041451D01*X007722Y041560D01*X007744Y041560D01*X007744Y041603D01*
X007225Y041603D01*X007225Y041603D01*X007225Y041516D01*X007204Y041516D01*
X007204Y041408D01*X007182Y041408D01*X007182Y041300D01*X007160Y041300D01*
X007160Y041171D01*X007139Y041171D01*X007139Y041063D01*X007117Y041063D01*
X007117Y040955D01*X007096Y040955D01*X007096Y040847D01*X007074Y040847D01*
X007074Y040739D01*X007052Y040739D01*X007052Y040609D01*X007031Y040609D01*
X007031Y040501D01*X007009Y040501D01*X007009Y040393D01*X006988Y040393D01*
X006988Y040285D01*X006966Y040285D01*X006966Y040177D01*X006944Y040177D01*
X006944Y040047D01*X006923Y040047D01*X006923Y039961D01*G37*G36*X002775Y040514D02*
X002797Y040514D01*X002797Y040450D01*X002818Y040450D01*X002818Y040406D01*
X002840Y040406D01*X002840Y040363D01*X002861Y040363D01*X002861Y040320D01*
X002883Y040320D01*X002883Y040298D01*X002905Y040298D01*X002905Y040255D01*
X002926Y040255D01*X002926Y040233D01*X002948Y040233D01*X002948Y040212D01*
X002969Y040212D01*X002969Y040190D01*X002991Y040190D01*X002991Y040169D01*
X003013Y040169D01*X003013Y040147D01*X003034Y040147D01*X003034Y040126D01*
X003077Y040126D01*X003077Y040104D01*X003099Y040104D01*X003099Y040082D01*
X003120Y040082D01*X003120Y040061D01*X003164Y040061D01*X003164Y040039D01*
X003186Y040039D01*X003186Y040017D01*X003229Y040017D01*X003229Y039996D01*
X003250Y039996D01*X003250Y039974D01*X003293Y039974D01*X003293Y039953D01*
X003315Y039953D01*X003315Y039931D01*X003358Y039931D01*X003358Y039909D01*
X003401Y039909D01*X003401Y039888D01*X003445Y039888D01*X003445Y039866D01*
X003488Y039866D01*X003488Y039845D01*X003531Y039845D01*X003531Y039823D01*
X003574Y039823D01*X003574Y039801D01*X003617Y039801D01*X003617Y039780D01*
X003661Y039780D01*X003661Y039758D01*X003704Y039758D01*X003704Y039737D01*
X003768Y039737D01*X003768Y039715D01*X003790Y039715D01*X003790Y039693D01*
X003855Y039693D01*X003855Y039672D01*X003899Y039672D01*X003899Y039650D01*
X003942Y039650D01*X003942Y039629D01*X003985Y039629D01*X003985Y039607D01*
X004028Y039607D01*X004028Y039650D01*X004007Y039650D01*X004007Y039889D01*
X004028Y039889D01*X004028Y039974D01*X004049Y039974D01*X004049Y040040D01*
X004071Y040040D01*X004071Y040104D01*X004093Y040104D01*X004093Y040147D01*
X004115Y040147D01*X004115Y040212D01*X004137Y040212D01*X004137Y040255D01*
X004158Y040255D01*X004158Y040276D01*X004180Y040276D01*X004180Y040320D01*
X004201Y040320D01*X004201Y040363D01*X004223Y040363D01*X004223Y040406D01*
X004244Y040406D01*X004244Y040450D01*X004266Y040450D01*X004266Y040471D01*
X004287Y040471D01*X004287Y040514D01*X004308Y040514D01*X004308Y040536D01*
X004331Y040536D01*X004331Y040579D01*X004352Y040579D01*X004352Y040601D01*
X004373Y040601D01*X004373Y040644D01*X004396Y040644D01*X004396Y040666D01*
X004417Y040666D01*X004417Y040709D01*X004438Y040709D01*X004438Y040752D01*
X004460Y040752D01*X004460Y040774D01*X004482Y040774D01*X004482Y040817D01*
X004503Y040817D01*X004503Y040838D01*X004525Y040838D01*X004525Y040881D01*
X004547Y040881D01*X004547Y040903D01*X004568Y040903D01*X004568Y040946D01*
X004589Y040946D01*X004589Y040990D01*X004611Y040990D01*X004611Y041011D01*
X004633Y041011D01*X004633Y041055D01*X004654Y041055D01*X004654Y041098D01*
X004677Y041098D01*X004677Y041141D01*X004698Y041141D01*X004698Y041163D01*
X004093Y041163D01*X004093Y041141D01*X004071Y041141D01*X004071Y041162D01*
X004050Y041162D01*X004050Y041141D01*X003877Y041141D01*X003877Y041120D01*
X003727Y041120D01*X003727Y041098D01*X003640Y041098D01*X003640Y041077D01*
X003552Y041077D01*X003552Y041055D01*X003488Y041055D01*X003488Y041032D01*
X003445Y041032D01*X003445Y041012D01*X003379Y041012D01*X003379Y040989D01*
X003337Y040989D01*X003337Y040968D01*X003293Y040968D01*X003293Y040946D01*
X003271Y040946D01*X003271Y040925D01*X003229Y040925D01*X003229Y040903D01*
X003206Y040903D01*X003206Y040882D01*X003186Y040882D01*X003186Y040861D01*
X003164Y040861D01*X003164Y040839D01*X003143Y040839D01*X003143Y040817D01*
X003121Y040817D01*X003121Y040860D01*X003143Y040860D01*X003143Y040881D01*
X003165Y040881D01*X003165Y040925D01*X003185Y040925D01*X003185Y040946D01*
X003207Y040946D01*X003207Y040968D01*X003228Y040968D01*X003228Y040990D01*
X003251Y040990D01*X003251Y041011D01*X003272Y041011D01*X003272Y041033D01*
X003294Y041033D01*X003294Y041054D01*X003337Y041054D01*X003337Y041076D01*
X003358Y041076D01*X003358Y041098D01*X003379Y041098D01*X003379Y041119D01*
X003423Y041119D01*X003423Y041140D01*X003445Y041140D01*X003445Y041162D01*
X003488Y041162D01*X003488Y041184D01*X003531Y041184D01*X003531Y041206D01*
X003574Y041206D01*X003574Y041227D01*X003640Y041227D01*X003640Y041249D01*
X003683Y041249D01*X003683Y041270D01*X003747Y041270D01*X003747Y041293D01*
X003813Y041293D01*X003813Y041314D01*X003878Y041314D01*X003878Y041335D01*
X003964Y041335D01*X003964Y041356D01*X004050Y041356D01*X004050Y041378D01*
X004157Y041378D01*X004157Y041400D01*X004287Y041400D01*X004287Y041421D01*
X004481Y041421D01*X004481Y041443D01*X005044Y041443D01*X005044Y041465D01*
X005216Y041465D01*X005216Y041486D01*X005303Y041486D01*X005303Y041508D01*
X005367Y041508D01*X005367Y041530D01*X005433Y041530D01*X005433Y041551D01*
X005562Y041551D01*X005562Y041529D01*X005583Y041529D01*X005583Y041508D01*
X005605Y041508D01*X005605Y041443D01*X005583Y041443D01*X005583Y041378D01*
X005562Y041378D01*X005562Y041335D01*X005540Y041335D01*X005540Y041292D01*
X005518Y041292D01*X005518Y041270D01*X005497Y041270D01*X005497Y041227D01*
X005475Y041227D01*X005475Y041206D01*X005454Y041206D01*X005454Y041163D01*
X005432Y041163D01*X005432Y041141D01*X005410Y041141D01*X005410Y041098D01*
X005389Y041098D01*X005389Y041076D01*X005367Y041076D01*X005367Y041033D01*
X005346Y041033D01*X005346Y041011D01*X005324Y041011D01*X005324Y040990D01*
X005303Y040990D01*X005303Y040968D01*X005281Y040968D01*X005281Y040925D01*
X005259Y040925D01*X005259Y040904D01*X005238Y040904D01*X005238Y040882D01*
X005216Y040882D01*X005216Y040839D01*X005195Y040839D01*X005195Y040817D01*
X005173Y040817D01*X005173Y040796D01*X005151Y040796D01*X005151Y040752D01*
X005130Y040752D01*X005130Y040730D01*X005108Y040730D01*X005108Y040709D01*
X005086Y040709D01*X005086Y040687D01*X005065Y040687D01*X005065Y040644D01*
X005043Y040644D01*X005043Y040622D01*X005022Y040622D01*X005022Y040601D01*
X005000Y040601D01*X005000Y040580D01*X004979Y040580D01*X004979Y040536D01*
X004957Y040536D01*X004957Y040514D01*X004935Y040514D01*X004935Y040493D01*
X004914Y040493D01*X004914Y040450D01*X004892Y040450D01*X004892Y040428D01*
X004870Y040428D01*X004870Y040407D01*X004848Y040407D01*X004848Y040363D01*
X004827Y040363D01*X004827Y040341D01*X004806Y040341D01*X004806Y040320D01*
X004784Y040320D01*X004784Y040277D01*X004762Y040277D01*X004762Y040255D01*
X004741Y040255D01*X004741Y040212D01*X004719Y040212D01*X004719Y040190D01*
X004698Y040190D01*X004698Y040147D01*X004676Y040147D01*X004676Y040125D01*
X004654Y040125D01*X004654Y040082D01*X004633Y040082D01*X004633Y040039D01*
X004611Y040039D01*X004611Y039996D01*X004590Y039996D01*X004590Y039953D01*
X004568Y039953D01*X004568Y039910D01*X004547Y039910D01*X004547Y039867D01*
X004525Y039867D01*X004525Y039802D01*X004503Y039802D01*X004503Y039650D01*
X004525Y039650D01*X004525Y039607D01*X004547Y039607D01*X004547Y039585D01*
X004741Y039585D01*X004741Y039608D01*X004806Y039608D01*X004806Y039629D01*
X004849Y039629D01*X004849Y039650D01*X004870Y039650D01*X004870Y039673D01*
X004892Y039673D01*X004892Y039694D01*X004914Y039694D01*X004914Y039715D01*
X004936Y039715D01*X004936Y039737D01*X004957Y039737D01*X004957Y039758D01*
X004979Y039758D01*X004979Y039801D01*X005000Y039801D01*X005000Y039823D01*
X005022Y039823D01*X005022Y039845D01*X005064Y039845D01*X005064Y039866D01*
X005108Y039866D01*X005108Y039888D01*X005195Y039888D01*X005195Y039866D01*
X005238Y039866D01*X005238Y039823D01*X005259Y039823D01*X005259Y039651D01*
X005238Y039651D01*X005238Y039607D01*X005216Y039607D01*X005216Y039585D01*
X005195Y039585D01*X005195Y039564D01*X005173Y039564D01*X005173Y039543D01*
X005151Y039543D01*X005151Y039520D01*X005130Y039520D01*X005130Y039499D01*
X005107Y039499D01*X005107Y039477D01*X005065Y039477D01*X005065Y039455D01*
X005043Y039455D01*X005043Y039434D01*X005000Y039434D01*X005000Y039412D01*
X004957Y039412D01*X004957Y039391D01*X004892Y039391D01*X004892Y039369D01*
X004828Y039369D01*X004828Y039348D01*X004741Y039348D01*X004741Y039327D01*
X004827Y039327D01*X004827Y039304D01*X004978Y039304D01*X004978Y039283D01*
X005173Y039283D01*X005173Y039304D01*X005324Y039304D01*X005324Y039326D01*
X005388Y039326D01*X005388Y039348D01*X005454Y039348D01*X005454Y039370D01*
X005497Y039370D01*X005497Y039391D01*X005540Y039391D01*X005540Y039413D01*
X005562Y039413D01*X005562Y039435D01*X005605Y039435D01*X005605Y039455D01*
X005626Y039455D01*X005626Y039478D01*X005670Y039478D01*X005670Y039498D01*
X005691Y039498D01*X005691Y039520D01*X005713Y039520D01*X005713Y039542D01*
X005735Y039542D01*X005735Y039564D01*X005756Y039564D01*X005756Y039586D01*
X005778Y039586D01*X005778Y039607D01*X005800Y039607D01*X005800Y039628D01*
X005821Y039628D01*X005821Y039672D01*X005843Y039672D01*X005843Y039694D01*
X005864Y039694D01*X005864Y039715D01*X005886Y039715D01*X005886Y039758D01*
X005908Y039758D01*X005908Y039801D01*X005929Y039801D01*X005929Y039845D01*
X005951Y039845D01*X005951Y039866D01*X005972Y039866D01*X005972Y039931D01*
X005994Y039931D01*X005994Y039974D01*X006015Y039974D01*X006015Y040017D01*
X006037Y040017D01*X006037Y040061D01*X006058Y040061D01*X006058Y040126D01*
X006080Y040126D01*X006080Y040169D01*X006102Y040169D01*X006102Y040233D01*
X006124Y040233D01*X006124Y040297D01*X006146Y040297D01*X006146Y040341D01*
X006167Y040341D01*X006167Y040407D01*X006189Y040407D01*X006189Y040471D01*
X006210Y040471D01*X006210Y040514D01*X006231Y040514D01*X006231Y040579D01*
X006253Y040579D01*X006253Y040644D01*X006275Y040644D01*X006275Y040730D01*
X006296Y040730D01*X006296Y040796D01*X006317Y040796D01*X006317Y040882D01*
X006340Y040882D01*X006340Y040989D01*X006361Y040989D01*X006361Y041119D01*
X006382Y041119D01*X006382Y041595D01*X006360Y041595D01*X006360Y041681D01*
X006339Y041681D01*X006339Y041767D01*X006318Y041767D01*X006318Y041810D01*
X006296Y041810D01*X006296Y041875D01*X006275Y041875D01*X006275Y041897D01*
X006253Y041897D01*X006253Y041940D01*X006232Y041940D01*X006232Y041962D01*
X006210Y041962D01*X006210Y041984D01*X006189Y041984D01*X006189Y042027D01*
X006167Y042027D01*X006167Y042049D01*X006144Y042049D01*X006144Y042070D01*
X006101Y042070D01*X006101Y042091D01*X006079Y042091D01*X006079Y042113D01*
X006059Y042113D01*X006059Y042134D01*X006017Y042134D01*X006017Y042156D01*
X005973Y042156D01*X005973Y042177D01*X005908Y042177D01*X005908Y042200D01*
X005864Y042200D01*X005864Y042092D01*X005842Y042092D01*X005842Y042048D01*
X005821Y042048D01*X005821Y042005D01*X005799Y042005D01*X005799Y041961D01*
X005778Y041961D01*X005778Y041941D01*X005756Y041941D01*X005756Y041919D01*
X005735Y041919D01*X005735Y041897D01*X005713Y041897D01*X005713Y041875D01*
X005692Y041875D01*X005692Y041854D01*X005648Y041854D01*X005648Y041832D01*
X005605Y041832D01*X005605Y041811D01*X005519Y041811D01*X005519Y041788D01*
X005367Y041788D01*X005367Y041811D01*X005302Y041811D01*X005302Y041832D01*
X005259Y041832D01*X005259Y041854D01*X005238Y041854D01*X005238Y041876D01*
X005216Y041876D01*X005216Y041897D01*X005195Y041897D01*X005195Y041919D01*
X005173Y041919D01*X005173Y041962D01*X005152Y041962D01*X005152Y042135D01*
X005173Y042135D01*X005173Y042178D01*X005195Y042178D01*X005195Y042221D01*
X005065Y042221D01*X005065Y042199D01*X004957Y042199D01*X004957Y042178D01*
X004870Y042178D01*X004870Y042156D01*X004784Y042156D01*X004784Y042135D01*
X004719Y042135D01*X004719Y042113D01*X004633Y042113D01*X004633Y042091D01*
X004568Y042091D01*X004568Y042070D01*X004503Y042070D01*X004503Y042048D01*
X004460Y042048D01*X004460Y042026D01*X004395Y042026D01*X004395Y042005D01*
X004352Y042005D01*X004352Y041983D01*X004287Y041983D01*X004287Y041962D01*
X004244Y041962D01*X004244Y041940D01*X004201Y041940D01*X004201Y041919D01*
X004158Y041919D01*X004158Y041897D01*X004114Y041897D01*X004114Y041875D01*
X004050Y041875D01*X004050Y041854D01*X004006Y041854D01*X004006Y041832D01*
X003963Y041832D01*X003963Y041811D01*X003942Y041811D01*X003942Y041789D01*
X003898Y041789D01*X003898Y041767D01*X003855Y041767D01*X003855Y041746D01*
X003812Y041746D01*X003812Y041724D01*X003769Y041724D01*X003769Y041703D01*
X003726Y041703D01*X003726Y041681D01*X003704Y041681D01*X003704Y041659D01*
X003661Y041659D01*X003661Y041638D01*X003617Y041638D01*X003617Y041616D01*
X003574Y041616D01*X003574Y041595D01*X003553Y041595D01*X003553Y041573D01*
X003509Y041573D01*X003509Y041552D01*X003466Y041552D01*X003466Y041530D01*
X003445Y041530D01*X003445Y041508D01*X003402Y041508D01*X003402Y041486D01*
X003380Y041486D01*X003380Y041465D01*X003337Y041465D01*X003337Y041443D01*
X003293Y041443D01*X003293Y041422D01*X003272Y041422D01*X003272Y041400D01*
X003229Y041400D01*X003229Y041379D01*X003207Y041379D01*X003207Y041357D01*
X003185Y041357D01*X003185Y041336D01*X003142Y041336D01*X003142Y041314D01*
X003120Y041314D01*X003120Y041292D01*X003099Y041292D01*X003099Y041271D01*
X003077Y041271D01*X003077Y041249D01*X003056Y041249D01*X003056Y041227D01*
X003034Y041227D01*X003034Y041206D01*X003013Y041206D01*X003013Y041184D01*
X002991Y041184D01*X002991Y041162D01*X002969Y041162D01*X002969Y041141D01*
X002948Y041141D01*X002948Y041098D01*X002926Y041098D01*X002926Y041076D01*
X002905Y041076D01*X002905Y041033D01*X002883Y041033D01*X002883Y041011D01*
X002861Y041011D01*X002861Y040968D01*X002840Y040968D01*X002840Y040925D01*
X002818Y040925D01*X002818Y040860D01*X002797Y040860D01*X002797Y040774D01*
X002775Y040774D01*X002775Y040514D01*G37*G36*X015607Y040371D02*X015607Y040458D01*
X015629Y040458D01*X015629Y040566D01*X015650Y040566D01*X015650Y040674D01*
X015672Y040674D01*X015672Y040782D01*X015693Y040782D01*X015693Y040868D01*
X015715Y040868D01*X015715Y040911D01*X015737Y040911D01*X015737Y040933D01*
X015758Y040933D01*X015758Y040955D01*X015801Y040955D01*X015801Y040976D01*
X015888Y040976D01*X015888Y040998D01*X017292Y040998D01*X017292Y040976D01*
X017335Y040976D01*X017335Y040955D01*X017378Y040955D01*X017378Y040911D01*
X017400Y040911D01*X017400Y040760D01*X017378Y040760D01*X017378Y040609D01*
X017357Y040609D01*X017357Y040587D01*X016925Y040587D01*X016925Y040652D01*
X016946Y040652D01*X016946Y040782D01*X016925Y040782D01*X016925Y040803D01*
X016212Y040803D01*X016212Y040782D01*X016169Y040782D01*X016169Y040760D01*
X016147Y040760D01*X016147Y040739D01*X016125Y040739D01*X016125Y040717D01*
X016104Y040717D01*X016104Y040652D01*X016082Y040652D01*X016082Y040587D01*
X017357Y040587D01*X017357Y040544D01*X017357Y040501D01*X017335Y040501D01*
X017335Y040458D01*X017314Y040458D01*X017314Y040436D01*X017292Y040436D01*
X017292Y040415D01*X017249Y040415D01*X017249Y040393D01*X017162Y040393D01*
X017162Y040371D01*X015607Y040371D01*G37*G36*X015564Y040134D02*X015564Y040220D01*
X015585Y040220D01*X015585Y040350D01*X015607Y040350D01*X015607Y040371D01*
X016039Y040371D01*X016039Y040307D01*X016039Y040263D01*X016017Y040263D01*
X016017Y040220D01*X016039Y040220D01*X016039Y040199D01*X016082Y040199D01*
X016082Y040177D01*X016147Y040177D01*X016147Y040155D01*X017962Y040155D01*
X017962Y040134D01*X017918Y040134D01*X017918Y040112D01*X017897Y040112D01*
X017897Y040091D01*X017854Y040091D01*X017854Y040069D01*X017832Y040069D01*
X017832Y040047D01*X017789Y040047D01*X017789Y040026D01*X017767Y040026D01*
X017767Y040004D01*X017724Y040004D01*X017724Y039983D01*X017702Y039983D01*
X017702Y039961D01*X015931Y039961D01*X015931Y039983D01*X015780Y039983D01*
X015780Y040004D01*X015715Y040004D01*X015715Y040026D01*X015650Y040026D01*
X015650Y040047D01*X015629Y040047D01*X015629Y040069D01*X015607Y040069D01*
X015607Y040091D01*X015585Y040091D01*X015585Y040134D01*X015564Y040134D01*G37*
X000000Y000000D02*M02*
