%MOMM*%
%FSLAX33Y33*%
%ADD10C,0.203200*%
%ADD11C,0.120000*%
%ADD12C,0.152400*%
%ADD14C,0.199390*%
%ADD15C,0.070000*%
%ADD20C,1.400000*%
%ADD133C,0.530000*%
%ADD134C,3.800000*%
%ADD135R,1.400000X1.400000*%
%ADD136C,1.300000*%
%ADD137C,2.100000*%
%ADD139R,2.800000X2.000000*%
%ADD140C,0.635000*%
%ADD141R,0.800000X0.900000*%
%ADD142R,0.789000X0.254000*%
%ADD143R,0.900000X0.250000*%
%ADD144R,0.254000X0.789000*%
%ADD145R,0.250000X0.900000*%
%ADD146R,6.600000X6.600000*%
%ADD147R,0.900000X0.800000*%
%ADD148R,1.100000X1.900000*%
%ADD149R,1.397000X0.762000*%
%ADD150R,1.050000X1.300000*%
%ADD151R,0.325000X0.900000*%
%ADD152R,2.400000X1.650000*%
%ADD153R,2.000000X1.300000*%
G90*G71*G01*D02*G54D10*X000000Y000000D02*X057000Y000000D01*X057000Y035000D01*
X000000Y035000D01*X000000Y000000D01*X026710Y003000D02*X026728Y002815D01*
X026782Y002636D01*X026870Y002472D01*X026988Y002328D01*X027132Y002210D01*
X027296Y002122D01*X027475Y002068D01*X027660Y002050D01*X027845Y002068D01*
X028024Y002122D01*X028188Y002210D01*X028332Y002328D01*X028450Y002472D01*
X028538Y002636D01*X028592Y002815D01*X028610Y003000D01*X028592Y003185D01*
X028538Y003364D01*X028450Y003528D01*X028332Y003672D01*X028188Y003790D01*
X028024Y003878D01*X027845Y003932D01*X027660Y003950D01*X027475Y003932D01*
X027296Y003878D01*X027132Y003790D01*X026988Y003672D01*X026870Y003528D01*
X026782Y003364D01*X026728Y003185D01*X026710Y003000D01*X016230Y004270D02*
X016230Y001730D01*X028930Y001730D01*X028930Y004270D01*X016230Y004270D01*
X018770Y004270D02*X018770Y001730D01*X035659Y002489D02*X035659Y003305D01*
X033627Y002489D02*X037405Y002489D01*X037405Y003305D01*X033627Y003305D01*
X033627Y002489D01*X033627Y003759D02*X037405Y003759D01*X037405Y004575D01*
X033627Y004575D01*X033627Y003759D01*X035659Y003759D02*X035659Y004575D01*
X031300Y002240D02*X031300Y001640D01*X039700Y001640D01*X039700Y002240D01*
X039700Y004760D02*X039700Y005360D01*X031300Y005360D01*X031300Y004760D01*
X006230Y006450D02*X006030Y006450D01*X006030Y012050D01*X006230Y012050D01*
X009430Y006450D02*X009630Y006450D01*X009630Y012050D01*X009430Y012050D01*
X010230Y006450D02*X010030Y006450D01*X010030Y012050D01*X010230Y012050D01*
X013430Y006450D02*X013630Y006450D01*X013630Y012050D01*X013430Y012050D01*
X042000Y005750D02*X042019Y005555D01*X042076Y005367D01*X042169Y005194D01*
X042293Y005043D01*X042444Y004919D01*X042617Y004826D01*X042805Y004769D01*
X043000Y004750D01*X043195Y004769D01*X043383Y004826D01*X043556Y004919D01*
X043707Y005043D01*X043831Y005194D01*X043924Y005367D01*X043981Y005555D01*
X044000Y005750D01*X043981Y005945D01*X043924Y006133D01*X043831Y006306D01*
X043707Y006457D01*X043556Y006581D01*X043383Y006674D01*X043195Y006731D01*
X043000Y006750D01*X042805Y006731D01*X042617Y006674D01*X042444Y006581D01*
X042293Y006457D01*X042169Y006306D01*X042076Y006133D01*X042019Y005945D01*
X042000Y005750D01*X048800Y007000D02*X049000Y007000D01*X049000Y004000D01*
X048800Y004000D01*X046200Y007000D02*X046000Y007000D01*X046000Y004000D01*
X046200Y004000D01*X018000Y010000D02*X018019Y009805D01*X018076Y009617D01*
X018169Y009444D01*X018293Y009293D01*X018444Y009169D01*X018617Y009076D01*
X018805Y009019D01*X019000Y009000D01*X019195Y009019D01*X019383Y009076D01*
X019556Y009169D01*X019707Y009293D01*X019831Y009444D01*X019924Y009617D01*
X019981Y009805D01*X020000Y010000D01*X019981Y010195D01*X019924Y010383D01*
X019831Y010556D01*X019707Y010707D01*X019556Y010831D01*X019383Y010924D01*
X019195Y010981D01*X019000Y011000D01*X018805Y010981D01*X018617Y010924D01*
X018444Y010831D01*X018293Y010707D01*X018169Y010556D01*X018076Y010383D01*
X018019Y010195D01*X018000Y010000D01*X016500Y011625D02*X016519Y011430D01*
X016576Y011242D01*X016669Y011069D01*X016793Y010918D01*X016944Y010794D01*
X017117Y010701D01*X017305Y010644D01*X017500Y010625D01*X017695Y010644D01*
X017883Y010701D01*X018056Y010794D01*X018207Y010918D01*X018331Y011069D01*
X018424Y011242D01*X018481Y011430D01*X018500Y011625D01*X018481Y011820D01*
X018424Y012008D01*X018331Y012181D01*X018207Y012332D01*X018056Y012456D01*
X017883Y012549D01*X017695Y012606D01*X017500Y012625D01*X017305Y012606D01*
X017117Y012549D01*X016944Y012456D01*X016793Y012332D01*X016669Y012181D01*
X016576Y012008D01*X016519Y011820D01*X016500Y011625D01*X021000Y010000D02*
X021019Y009805D01*X021076Y009617D01*X021169Y009444D01*X021293Y009293D01*
X021444Y009169D01*X021617Y009076D01*X021805Y009019D01*X022000Y009000D01*
X022195Y009019D01*X022383Y009076D01*X022556Y009169D01*X022707Y009293D01*
X022831Y009444D01*X022924Y009617D01*X022981Y009805D01*X023000Y010000D01*
X022981Y010195D01*X022924Y010383D01*X022831Y010556D01*X022707Y010707D01*
X022556Y010831D01*X022383Y010924D01*X022195Y010981D01*X022000Y011000D01*
X021805Y010981D01*X021617Y010924D01*X021444Y010831D01*X021293Y010707D01*
X021169Y010556D01*X021076Y010383D01*X021019Y010195D01*X021000Y010000D01*
X019500Y011625D02*X019519Y011430D01*X019576Y011242D01*X019669Y011069D01*
X019793Y010918D01*X019944Y010794D01*X020117Y010701D01*X020305Y010644D01*
X020500Y010625D01*X020695Y010644D01*X020883Y010701D01*X021056Y010794D01*
X021207Y010918D01*X021331Y011069D01*X021424Y011242D01*X021481Y011430D01*
X021500Y011625D01*X021481Y011820D01*X021424Y012008D01*X021331Y012181D01*
X021207Y012332D01*X021056Y012456D01*X020883Y012549D01*X020695Y012606D01*
X020500Y012625D01*X020305Y012606D01*X020117Y012549D01*X019944Y012456D01*
X019793Y012332D01*X019669Y012181D01*X019576Y012008D01*X019519Y011820D01*
X019500Y011625D01*X051450Y014550D02*X051450Y008950D01*X049050Y008950D01*
X049050Y014550D01*X051450Y014550D01*X051450Y011750D02*X049050Y011750D01*
X033550Y009250D02*X033550Y013250D01*X036950Y013250D01*X036950Y009250D01*
X033550Y009250D01*X035550Y009150D02*X037050Y009150D01*X037050Y010750D01*
X015175Y014700D02*X015175Y014200D01*X017000Y018000D02*X016951Y018002D01*
X016902Y018010D01*X016855Y018022D01*X016809Y018038D01*X016764Y018059D01*
X016722Y018084D01*X016683Y018113D01*X016646Y018146D01*X016613Y018183D01*
X016584Y018222D01*X016559Y018264D01*X016538Y018309D01*X016522Y018355D01*
X016510Y018402D01*X016502Y018451D01*X016500Y018500D01*X016502Y018549D01*
X016510Y018598D01*X016522Y018645D01*X016538Y018691D01*X016559Y018736D01*
X016584Y018778D01*X016613Y018817D01*X016646Y018854D01*X016683Y018887D01*
X016722Y018916D01*X016764Y018941D01*X016809Y018962D01*X016855Y018978D01*
X016902Y018990D01*X016951Y018998D01*X017000Y019000D01*X012500Y018500D02*
X011500Y018500D01*X012000Y019000D02*X012000Y018000D01*X017000Y019900D02*
X017000Y019000D01*X017000Y017100D02*X017000Y018000D01*X017000Y017100D02*
X007000Y017100D01*X007000Y019900D01*X017000Y019900D01*X011365Y022800D02*
X011365Y022300D01*X008825Y014700D02*X008825Y013900D01*X022500Y022700D02*
X022500Y022100D01*X022000Y012900D02*X022000Y012500D01*X021650Y021500D02*
X021250Y021100D01*X021650Y013500D02*X021250Y013500D01*X021250Y013900D01*
X029250Y013900D02*X029250Y013500D01*X028850Y013500D01*X028850Y021500D02*
X029250Y021500D01*X029250Y021100D01*X020650Y018750D02*X020250Y018750D01*
X027000Y012500D02*X027000Y012900D01*X024500Y012900D02*X024500Y012300D01*
X029850Y017250D02*X030250Y017250D01*X030450Y014750D02*X029850Y014750D01*
X025000Y022700D02*X025000Y022100D01*X027500Y022100D02*X027500Y022500D01*
X020650Y016250D02*X020050Y016250D01*X029850Y019750D02*X030450Y019750D01*
X005900Y023700D02*X005700Y023700D01*X005700Y029300D01*X005900Y029300D01*
X009100Y023700D02*X009300Y023700D01*X009300Y029300D01*X009100Y029300D01*
X009900Y023700D02*X009700Y023700D01*X009700Y029300D01*X009900Y029300D01*
X013100Y023700D02*X013300Y023700D01*X013300Y029300D01*X013100Y029300D01*
X040250Y022500D02*X043250Y022500D01*X040250Y029000D02*X043250Y029000D01*
X045000Y027250D02*X045000Y024250D01*X038500Y027250D02*X038500Y024250D01*
X029750Y025300D02*X029750Y027700D01*X025750Y027700D01*X025750Y025300D01*
X029750Y025300D01*X026520Y030730D02*X026520Y033270D01*X023980Y033270D02*
X023980Y030730D01*X039220Y030730D01*X039220Y033270D01*X023980Y033270D01*
X034394Y032000D02*X034414Y031802D01*X034471Y031611D01*X034565Y031436D01*
X034692Y031282D01*X034846Y031155D01*X035021Y031061D01*X035212Y031004D01*
X035410Y030984D01*X035608Y031004D01*X035799Y031061D01*X035974Y031155D01*
X036128Y031282D01*X036255Y031436D01*X036349Y031611D01*X036406Y031802D01*
X036426Y032000D01*X036406Y032198D01*X036349Y032389D01*X036255Y032564D01*
X036128Y032718D01*X035974Y032845D01*X035799Y032939D01*X035608Y032996D01*
X035410Y033016D01*X035212Y032996D01*X035021Y032939D01*X034846Y032845D01*
X034692Y032718D01*X034565Y032564D01*X034471Y032389D01*X034414Y032198D01*
X034394Y032000D01*X006500Y032000D02*X006519Y031805D01*X006576Y031617D01*
X006669Y031444D01*X006793Y031293D01*X006944Y031169D01*X007117Y031076D01*
X007305Y031019D01*X007500Y031000D01*X007695Y031019D01*X007883Y031076D01*
X008056Y031169D01*X008207Y031293D01*X008331Y031444D01*X008424Y031617D01*
X008481Y031805D01*X008500Y032000D01*X008481Y032195D01*X008424Y032383D01*
X008331Y032556D01*X008207Y032707D01*X008056Y032831D01*X007883Y032924D01*
X007695Y032981D01*X007500Y033000D01*X007305Y032981D01*X007117Y032924D01*
X006944Y032831D01*X006793Y032707D01*X006669Y032556D01*X006576Y032383D01*
X006519Y032195D01*X006500Y032000D01*X011250Y032000D02*X011269Y031805D01*
X011326Y031617D01*X011419Y031444D01*X011543Y031293D01*X011694Y031169D01*
X011867Y031076D01*X012055Y031019D01*X012250Y031000D01*X012445Y031019D01*
X012633Y031076D01*X012806Y031169D01*X012957Y031293D01*X013081Y031444D01*
X013174Y031617D01*X013231Y031805D01*X013250Y032000D01*X013231Y032195D01*
X013174Y032383D01*X013081Y032556D01*X012957Y032707D01*X012806Y032831D01*
X012633Y032924D01*X012445Y032981D01*X012250Y033000D01*X012055Y032981D01*
X011867Y032924D01*X011694Y032831D01*X011543Y032707D01*X011419Y032556D01*
X011326Y032383D01*X011269Y032195D01*X011250Y032000D01*X016000Y032000D02*
X016019Y031805D01*X016076Y031617D01*X016169Y031444D01*X016293Y031293D01*
X016444Y031169D01*X016617Y031076D01*X016805Y031019D01*X017000Y031000D01*
X017195Y031019D01*X017383Y031076D01*X017556Y031169D01*X017707Y031293D01*
X017831Y031444D01*X017924Y031617D01*X017981Y031805D01*X018000Y032000D01*
X017981Y032195D01*X017924Y032383D01*X017831Y032556D01*X017707Y032707D01*
X017556Y032831D01*X017383Y032924D01*X017195Y032981D01*X017000Y033000D01*
X016805Y032981D01*X016617Y032924D01*X016444Y032831D01*X016293Y032707D01*
X016169Y032556D01*X016076Y032383D01*X016019Y032195D01*X016000Y032000D01*
X020750Y032000D02*X020769Y031805D01*X020826Y031617D01*X020919Y031444D01*
X021043Y031293D01*X021194Y031169D01*X021367Y031076D01*X021555Y031019D01*
X021750Y031000D01*X021945Y031019D01*X022133Y031076D01*X022306Y031169D01*
X022457Y031293D01*X022581Y031444D01*X022674Y031617D01*X022731Y031805D01*
X022750Y032000D01*X022731Y032195D01*X022674Y032383D01*X022581Y032556D01*
X022457Y032707D01*X022306Y032831D01*X022133Y032924D01*X021945Y032981D01*
X021750Y033000D01*X021555Y032981D01*X021367Y032924D01*X021194Y032831D01*
X021043Y032707D01*X020919Y032556D01*X020826Y032383D01*X020769Y032195D01*
X020750Y032000D01*X040750Y032000D02*X040769Y031805D01*X040826Y031617D01*
X040919Y031444D01*X041043Y031293D01*X041194Y031169D01*X041367Y031076D01*
X041555Y031019D01*X041750Y031000D01*X041945Y031019D01*X042133Y031076D01*
X042306Y031169D01*X042457Y031293D01*X042581Y031444D01*X042674Y031617D01*
X042731Y031805D01*X042750Y032000D01*X042731Y032195D01*X042674Y032383D01*
X042581Y032556D01*X042457Y032707D01*X042306Y032831D01*X042133Y032924D01*
X041945Y032981D01*X041750Y033000D01*X041555Y032981D01*X041367Y032924D01*
X041194Y032831D01*X041043Y032707D01*X040919Y032556D01*X040826Y032383D01*
X040769Y032195D01*X040750Y032000D01*X046000Y032000D02*X046019Y031805D01*
X046076Y031617D01*X046169Y031444D01*X046293Y031293D01*X046444Y031169D01*
X046617Y031076D01*X046805Y031019D01*X047000Y031000D01*X047195Y031019D01*
X047383Y031076D01*X047556Y031169D01*X047707Y031293D01*X047831Y031444D01*
X047924Y031617D01*X047981Y031805D01*X048000Y032000D01*X047981Y032195D01*
X047924Y032383D01*X047831Y032556D01*X047707Y032707D01*X047556Y032831D01*
X047383Y032924D01*X047195Y032981D01*X047000Y033000D01*X046805Y032981D01*
X046617Y032924D01*X046444Y032831D01*X046293Y032707D01*X046169Y032556D01*
X046076Y032383D01*X046019Y032195D01*X046000Y032000D01*D02*G54D11*
X041230Y033675D02*X041230Y034575D01*X041492Y034575D01*X041578Y034520D01*
X041607Y034480D01*X041640Y034398D01*X041640Y034316D01*X041607Y034234D01*
X041578Y034180D01*X041492Y034139D01*X041230Y034139D01*X041431Y034139D02*
X041640Y033675D01*X042270Y034575D02*X041860Y034575D01*X041860Y033675D01*
X041860Y034139D02*X042110Y034139D01*X041908Y008061D02*X042227Y008061D01*
X042051Y007720D01*X042141Y007720D01*X042198Y007680D01*X042227Y007639D01*
X042260Y007516D01*X042260Y007420D01*X042227Y007298D01*X042170Y007216D01*
X042084Y007175D01*X041994Y007175D01*X041908Y007216D01*X041879Y007257D01*
X041850Y007339D01*X042681Y007257D02*X042665Y007216D01*X042681Y007175D01*
X042697Y007216D01*X042681Y007257D01*X043168Y008061D02*X043487Y008061D01*
X043311Y007720D01*X043401Y007720D01*X043458Y007680D01*X043487Y007639D01*
X043520Y007516D01*X043520Y007420D01*X043487Y007298D01*X043430Y007216D01*
X043344Y007175D01*X043254Y007175D01*X043168Y007216D01*X043139Y007257D01*
X043110Y007339D01*X043740Y008075D02*X043941Y007175D01*X044150Y008075D01*
X027200Y001107D02*X027171Y001189D01*X027114Y001270D01*X027061Y001325D01*
X026950Y001325D01*X026897Y001270D01*X026843Y001189D01*X026815Y001107D01*
X026790Y000984D01*X026790Y000766D01*X026815Y000643D01*X026843Y000548D01*
X026897Y000466D01*X026950Y000425D01*X027061Y000425D01*X027114Y000466D01*
X027171Y000548D01*X027200Y000643D01*X027200Y000766D01*X027061Y000766D01*
X027420Y000425D02*X027420Y001325D01*X027830Y000425D01*X027830Y001325D01*
X028050Y001325D02*X028255Y001325D01*X028341Y001270D01*X028398Y001189D01*
X028427Y001107D01*X028460Y000984D01*X028460Y000766D01*X028427Y000643D01*
X028398Y000548D01*X028341Y000466D01*X028255Y000425D01*X028050Y000425D01*
X028050Y001325D01*X024290Y000425D02*X024290Y001325D01*X024552Y001325D01*
X024638Y001270D01*X024667Y001230D01*X024700Y001148D01*X024700Y001025D01*
X024667Y000930D01*X024638Y000889D01*X024552Y000848D01*X024290Y000848D01*
X024994Y000725D02*X025252Y000725D01*X024920Y000425D02*X025121Y001325D01*
X025330Y000425D01*X025898Y001311D02*X025608Y001311D01*X025579Y000930D01*
X025608Y000970D01*X025694Y001011D01*X025780Y001011D01*X025870Y000970D01*
X025927Y000889D01*X025960Y000766D01*X025960Y000670D01*X025927Y000548D01*
X025870Y000466D01*X025780Y000425D01*X025694Y000425D01*X025608Y000466D01*
X025579Y000507D01*X025550Y000589D01*X021790Y000425D02*X021790Y001325D01*
X022052Y001325D01*X022138Y001270D01*X022167Y001230D01*X022200Y001148D01*
X022200Y001025D01*X022167Y000930D01*X022138Y000889D01*X022052Y000848D01*
X021790Y000848D01*X022494Y000725D02*X022752Y000725D01*X022420Y000425D02*
X022621Y001325D01*X022830Y000425D01*X023321Y001311D02*X023321Y000425D01*
X023321Y001311D02*X023050Y000725D01*X023460Y000725D01*X019165Y000425D02*
X019165Y001325D01*X019427Y001325D01*X019513Y001270D01*X019542Y001230D01*
X019575Y001148D01*X019575Y001025D01*X019542Y000930D01*X019513Y000889D01*
X019427Y000848D01*X019165Y000848D01*X019869Y000725D02*X020127Y000725D01*
X019795Y000425D02*X019996Y001325D01*X020205Y000425D01*X020483Y001311D02*
X020802Y001311D01*X020626Y000970D01*X020716Y000970D01*X020773Y000930D01*
X020802Y000889D01*X020835Y000766D01*X020835Y000670D01*X020802Y000548D01*
X020745Y000466D01*X020659Y000425D01*X020569Y000425D01*X020483Y000466D01*
X020454Y000507D01*X020425Y000589D01*X016575Y034357D02*X016546Y034439D01*
X016489Y034520D01*X016436Y034575D01*X016325Y034575D01*X016272Y034520D01*
X016218Y034439D01*X016190Y034357D01*X016165Y034234D01*X016165Y034016D01*
X016190Y033893D01*X016218Y033798D01*X016272Y033716D01*X016325Y033675D01*
X016436Y033675D01*X016489Y033716D01*X016546Y033798D01*X016575Y033893D01*
X016575Y034016D01*X016436Y034016D01*X016795Y033675D02*X016795Y034575D01*
X017205Y033675D01*X017205Y034575D01*X017425Y034575D02*X017630Y034575D01*
X017716Y034520D01*X017773Y034439D01*X017802Y034357D01*X017835Y034234D01*
X017835Y034016D01*X017802Y033893D01*X017773Y033798D01*X017716Y033716D01*
X017630Y033675D01*X017425Y033675D01*X017425Y034575D01*X020948Y034561D02*
X020658Y034561D01*X020629Y034180D01*X020658Y034220D01*X020744Y034261D01*
X020830Y034261D01*X020920Y034220D01*X020977Y034139D01*X021010Y034016D01*
X021010Y033920D01*X020977Y033798D01*X020920Y033716D01*X020830Y033675D01*
X020744Y033675D01*X020658Y033716D01*X020629Y033757D01*X020600Y033839D01*
X021230Y034575D02*X021431Y033675D01*X021640Y034575D01*X022065Y034575D02*
X022065Y033675D01*X022490Y033675D02*X022490Y034575D01*X022900Y033675D01*
X022900Y034575D01*X016665Y000425D02*X016665Y001325D01*X016927Y001325D01*
X017013Y001270D01*X017042Y001230D01*X017075Y001148D01*X017075Y001025D01*
X017042Y000930D01*X017013Y000889D01*X016927Y000848D01*X016665Y000848D01*
X017369Y000725D02*X017627Y000725D01*X017295Y000425D02*X017496Y001325D01*
X017705Y000425D01*X017954Y001107D02*X017954Y001148D01*X017983Y001230D01*
X018011Y001270D01*X018069Y001325D01*X018187Y001325D01*X018245Y001270D01*
X018273Y001230D01*X018302Y001148D01*X018302Y001066D01*X018273Y000984D01*
X018216Y000848D01*X017925Y000425D01*X018335Y000425D01*X032040Y034575D02*
X032450Y034575D01*X032245Y034575D02*X032245Y033675D01*X033080Y034357D02*
X033051Y034439D01*X032994Y034520D01*X032941Y034575D01*X032830Y034575D01*
X032777Y034520D01*X032723Y034439D01*X032695Y034357D01*X032670Y034234D01*
X032670Y034016D01*X032695Y033893D01*X032723Y033798D01*X032777Y033716D01*
X032830Y033675D01*X032941Y033675D01*X032994Y033716D01*X033051Y033798D01*
X033080Y033893D01*X033444Y034180D02*X033710Y033675D01*X033710Y034575D02*
X033300Y033975D01*X033300Y034575D02*X033300Y033675D01*X006064Y034357D02*
X006064Y034398D01*X006093Y034480D01*X006121Y034520D01*X006179Y034575D01*
X006297Y034575D01*X006355Y034520D01*X006383Y034480D01*X006412Y034398D01*
X006412Y034316D01*X006383Y034234D01*X006326Y034098D01*X006035Y033675D01*
X006445Y033675D01*X006723Y034561D02*X007042Y034561D01*X006866Y034220D01*
X006956Y034220D01*X007013Y034180D01*X007042Y034139D01*X007075Y034016D01*
X007075Y033920D01*X007042Y033798D01*X006985Y033716D01*X006899Y033675D01*
X006809Y033675D01*X006723Y033716D01*X006694Y033757D01*X006665Y033839D01*
X007324Y034357D02*X007324Y034398D01*X007353Y034480D01*X007381Y034520D01*
X007439Y034575D01*X007557Y034575D01*X007615Y034520D01*X007643Y034480D01*
X007672Y034398D01*X007672Y034316D01*X007643Y034234D01*X007586Y034098D01*
X007295Y033675D01*X007705Y033675D01*X008130Y034575D02*X008130Y033675D01*
X008555Y033675D02*X008555Y034575D01*X008965Y033675D01*X008965Y034575D01*
X010499Y034357D02*X010499Y034398D01*X010528Y034480D01*X010556Y034520D01*
X010614Y034575D01*X010732Y034575D01*X010790Y034520D01*X010818Y034480D01*
X010847Y034398D01*X010847Y034316D01*X010818Y034234D01*X010761Y034098D01*
X010470Y033675D01*X010880Y033675D01*X011158Y034561D02*X011477Y034561D01*
X011301Y034220D01*X011391Y034220D01*X011448Y034180D01*X011477Y034139D01*
X011510Y034016D01*X011510Y033920D01*X011477Y033798D01*X011420Y033716D01*
X011334Y033675D01*X011244Y033675D01*X011158Y033716D01*X011129Y033757D01*
X011100Y033839D01*X011759Y034357D02*X011759Y034398D01*X011788Y034480D01*
X011816Y034520D01*X011874Y034575D01*X011992Y034575D01*X012050Y034520D01*
X012078Y034480D01*X012107Y034398D01*X012107Y034316D01*X012078Y034234D01*
X012021Y034098D01*X011730Y033675D01*X012140Y033675D01*X012512Y034575D02*
X012463Y034520D01*X012409Y034439D01*X012385Y034357D01*X012360Y034234D01*
X012360Y034016D01*X012385Y033893D01*X012409Y033798D01*X012463Y033716D01*
X012512Y033675D01*X012614Y033675D01*X012663Y033716D01*X012717Y033798D01*
X012741Y033893D01*X012770Y034016D01*X012770Y034234D01*X012741Y034357D01*
X012717Y034439D01*X012663Y034520D01*X012614Y034575D01*X012512Y034575D01*
X012990Y034575D02*X012990Y033934D01*X013019Y033798D01*X013076Y033716D01*
X013166Y033675D01*X013224Y033675D01*X013310Y033716D01*X013367Y033798D01*
X013400Y033934D01*X013400Y034575D01*X013620Y034575D02*X014030Y034575D01*
X013825Y034575D02*X013825Y033675D01*X034540Y034575D02*X034950Y034575D01*
X034745Y034575D02*X034745Y033675D01*X035170Y033675D02*X035170Y034575D01*
X035375Y033675D01*X035580Y034575D01*X035580Y033675D01*X036210Y034439D02*
X036148Y034520D01*X036062Y034575D01*X035944Y034575D01*X035858Y034520D01*
X035800Y034439D01*X035800Y034357D01*X035829Y034275D01*X035858Y034234D01*
X035915Y034180D01*X036091Y034098D01*X036148Y034057D01*X036177Y034016D01*
X036210Y033934D01*X036210Y033798D01*X036148Y033716D01*X036062Y033675D01*
X035944Y033675D01*X035858Y033716D01*X035800Y033798D01*X037575Y034357D02*
X037546Y034439D01*X037489Y034520D01*X037436Y034575D01*X037325Y034575D01*
X037272Y034520D01*X037218Y034439D01*X037190Y034357D01*X037165Y034234D01*
X037165Y034016D01*X037190Y033893D01*X037218Y033798D01*X037272Y033716D01*
X037325Y033675D01*X037436Y033675D01*X037489Y033716D01*X037546Y033798D01*
X037575Y033893D01*X037575Y034016D01*X037436Y034016D01*X037795Y033675D02*
X037795Y034575D01*X038205Y033675D01*X038205Y034575D01*X038425Y034575D02*
X038630Y034575D01*X038716Y034520D01*X038773Y034439D01*X038802Y034357D01*
X038835Y034234D01*X038835Y034016D01*X038802Y033893D01*X038773Y033798D01*
X038716Y033716D01*X038630Y033675D01*X038425Y033675D01*X038425Y034575D01*
X046575Y034357D02*X046546Y034439D01*X046489Y034520D01*X046436Y034575D01*
X046325Y034575D01*X046272Y034520D01*X046218Y034439D01*X046190Y034357D01*
X046165Y034234D01*X046165Y034016D01*X046190Y033893D01*X046218Y033798D01*
X046272Y033716D01*X046325Y033675D01*X046436Y033675D01*X046489Y033716D01*
X046546Y033798D01*X046575Y033893D01*X046575Y034016D01*X046436Y034016D01*
X046795Y033675D02*X046795Y034575D01*X047205Y033675D01*X047205Y034575D01*
X047425Y034575D02*X047630Y034575D01*X047716Y034520D01*X047773Y034439D01*
X047802Y034357D01*X047835Y034234D01*X047835Y034016D01*X047802Y033893D01*
X047773Y033798D01*X047716Y033716D01*X047630Y033675D01*X047425Y033675D01*
X047425Y034575D01*X012200Y001607D02*X012171Y001689D01*X012114Y001770D01*
X012061Y001825D01*X011950Y001825D01*X011897Y001770D01*X011843Y001689D01*
X011815Y001607D01*X011790Y001484D01*X011790Y001266D01*X011815Y001143D01*
X011843Y001048D01*X011897Y000966D01*X011950Y000925D01*X012061Y000925D01*
X012114Y000966D01*X012171Y001048D01*X012200Y001143D01*X012200Y001266D01*
X012061Y001266D01*X012420Y000925D02*X012420Y001825D01*X012830Y000925D01*
X012830Y001825D01*X013050Y001825D02*X013255Y001825D01*X013341Y001770D01*
X013398Y001689D01*X013427Y001607D01*X013460Y001484D01*X013460Y001266D01*
X013427Y001143D01*X013398Y001048D01*X013341Y000966D01*X013255Y000925D01*
X013050Y000925D01*X013050Y001825D01*X029540Y034575D02*X029950Y034575D01*
X029745Y034575D02*X029745Y033675D01*X030170Y034575D02*X030375Y034575D01*
X030461Y034520D01*X030518Y034439D01*X030547Y034357D01*X030580Y034234D01*
X030580Y034016D01*X030547Y033893D01*X030518Y033798D01*X030461Y033716D01*
X030375Y033675D01*X030170Y033675D01*X030170Y034575D01*X031005Y034575D02*
X031005Y033675D01*X026915Y034575D02*X027325Y034575D01*X027120Y034575D02*
X027120Y033675D01*X027545Y034575D02*X027750Y034575D01*X027836Y034520D01*
X027893Y034439D01*X027922Y034357D01*X027955Y034234D01*X027955Y034016D01*
X027922Y033893D01*X027893Y033798D01*X027836Y033716D01*X027750Y033675D01*
X027545Y033675D01*X027545Y034575D01*X028327Y034575D02*X028278Y034520D01*
X028224Y034439D01*X028200Y034357D01*X028175Y034234D01*X028175Y034016D01*
X028200Y033893D01*X028224Y033798D01*X028278Y033716D01*X028327Y033675D01*
X028429Y033675D01*X028478Y033716D01*X028532Y033798D01*X028556Y033893D01*
X028585Y034016D01*X028585Y034234D01*X028556Y034357D01*X028532Y034439D01*
X028478Y034520D01*X028429Y034575D01*X028327Y034575D01*X008725Y001389D02*
X008987Y001389D01*X009073Y001348D01*X009102Y001307D01*X009135Y001225D01*
X009135Y001089D01*X009102Y001007D01*X009073Y000966D01*X008987Y000925D01*
X008725Y000925D01*X008725Y001825D01*X008987Y001825D01*X009073Y001770D01*
X009102Y001730D01*X009135Y001648D01*X009135Y001566D01*X009102Y001484D01*
X009073Y001430D01*X008987Y001389D01*X009355Y000625D02*X009765Y000625D01*
X009985Y001825D02*X010395Y001825D01*X010190Y001825D02*X010190Y000925D01*
X011025Y001511D02*X010615Y000925D01*X010615Y001511D02*X011025Y000925D01*
X005725Y001389D02*X005987Y001389D01*X006073Y001348D01*X006102Y001307D01*
X006135Y001225D01*X006135Y001089D01*X006102Y001007D01*X006073Y000966D01*
X005987Y000925D01*X005725Y000925D01*X005725Y001825D01*X005987Y001825D01*
X006073Y001770D01*X006102Y001730D01*X006135Y001648D01*X006135Y001566D01*
X006102Y001484D01*X006073Y001430D01*X005987Y001389D01*X006355Y000625D02*
X006765Y000625D01*X006985Y000925D02*X006985Y001825D01*X007247Y001825D01*
X007333Y001770D01*X007362Y001730D01*X007395Y001648D01*X007395Y001566D01*
X007362Y001484D01*X007333Y001430D01*X007247Y001389D01*X006985Y001389D01*
X007186Y001389D02*X007395Y000925D01*X008025Y001511D02*X007615Y000925D01*
X007615Y001511D02*X008025Y000925D01*X024158Y034561D02*X024477Y034561D01*
X024301Y034220D01*X024391Y034220D01*X024448Y034180D01*X024477Y034139D01*
X024510Y034016D01*X024510Y033920D01*X024477Y033798D01*X024420Y033716D01*
X024334Y033675D01*X024244Y033675D01*X024158Y033716D01*X024129Y033757D01*
X024100Y033839D01*X024931Y033757D02*X024915Y033716D01*X024931Y033675D01*
X024947Y033716D01*X024931Y033757D01*X025418Y034561D02*X025737Y034561D01*
X025561Y034220D01*X025651Y034220D01*X025708Y034180D01*X025737Y034139D01*
X025770Y034016D01*X025770Y033920D01*X025737Y033798D01*X025680Y033716D01*
X025594Y033675D01*X025504Y033675D01*X025418Y033716D01*X025389Y033757D01*
X025360Y033839D01*X025990Y034575D02*X026191Y033675D01*X026400Y034575D01*
X042596Y001350D02*X042596Y000650D01*X042914Y000650D01*X043356Y001339D02*
X043130Y001339D01*X043108Y001042D01*X043130Y001074D01*X043197Y001106D01*
X043264Y001106D01*X043334Y001074D01*X043379Y001011D01*X043404Y000915D01*
X043404Y000841D01*X043379Y000745D01*X043334Y000682D01*X043264Y000650D01*
X043197Y000650D01*X043130Y000682D01*X043108Y000714D01*X043086Y000777D01*
X044346Y001350D02*X044346Y000650D01*X044664Y000650D01*X044836Y001339D02*
X045154Y001339D01*X044925Y000650D01*X015286Y003350D02*X015286Y002820D01*
X015254Y002714D01*X015222Y002682D01*X015162Y002650D01*X015095Y002650D01*
X015034Y002682D01*X015003Y002714D01*X014971Y002820D01*X014971Y002883D01*
X015461Y003339D02*X015779Y003339D01*X015550Y002650D01*X035414Y006244D02*
X035366Y006308D01*X035300Y006350D01*X035207Y006350D01*X035140Y006308D01*
X035096Y006244D01*X035096Y006180D01*X035118Y006117D01*X035140Y006085D01*
X035185Y006042D01*X035322Y005979D01*X035366Y005947D01*X035389Y005915D01*
X035414Y005852D01*X035414Y005745D01*X035366Y005682D01*X035300Y005650D01*
X035207Y005650D01*X035140Y005682D01*X035096Y005745D01*X035710Y006212D02*
X035735Y006244D01*X035774Y006339D01*X035774Y005650D01*X047169Y001180D02*
X047147Y001244D01*X047102Y001308D01*X047061Y001350D01*X046975Y001350D01*
X046934Y001308D01*X046892Y001244D01*X046870Y001180D01*X046851Y001085D01*
X046851Y000915D01*X046870Y000820D01*X046892Y000745D01*X046934Y000682D01*
X046975Y000650D01*X047061Y000650D01*X047102Y000682D01*X047147Y000745D01*
X047169Y000820D01*X047385Y001339D02*X047634Y001339D01*X047497Y001074D01*
X047567Y001074D01*X047611Y001042D01*X047634Y001011D01*X047659Y000915D01*
X047659Y000841D01*X047634Y000745D01*X047589Y000682D01*X047522Y000650D01*
X047452Y000650D01*X047385Y000682D01*X047363Y000714D01*X047341Y000777D01*
X047831Y001339D02*X048149Y001339D01*X047920Y000650D01*X050070Y005169D02*
X050006Y005147D01*X049942Y005102D01*X049900Y005061D01*X049900Y004975D01*
X049942Y004934D01*X050006Y004892D01*X050070Y004870D01*X050165Y004851D01*
X050335Y004851D01*X050430Y004870D01*X050505Y004892D01*X050568Y004934D01*
X050600Y004975D01*X050600Y005061D01*X050568Y005102D01*X050505Y005147D01*
X050430Y005169D01*X049911Y005385D02*X049911Y005634D01*X050176Y005497D01*
X050176Y005567D01*X050208Y005611D01*X050239Y005634D01*X050335Y005659D01*
X050409Y005659D01*X050505Y005634D01*X050568Y005589D01*X050600Y005522D01*
X050600Y005452D01*X050568Y005385D01*X050536Y005363D01*X050473Y005341D01*
X049911Y005942D02*X049942Y005875D01*X050006Y005853D01*X050070Y005853D01*
X050144Y005875D01*X050176Y005920D01*X050208Y006012D01*X050239Y006079D01*
X050303Y006124D01*X050367Y006149D01*X050473Y006149D01*X050536Y006124D01*
X050568Y006101D01*X050600Y006035D01*X050600Y005942D01*X050568Y005875D01*
X050536Y005853D01*X050473Y005831D01*X050367Y005831D01*X050303Y005853D01*
X050239Y005898D01*X050208Y005965D01*X050176Y006057D01*X050144Y006101D01*
X050070Y006124D01*X050006Y006124D01*X049942Y006101D01*X049911Y006035D01*
X049911Y005942D01*X007346Y005600D02*X007505Y005600D01*X007572Y005558D01*
X007616Y005494D01*X007639Y005430D01*X007664Y005335D01*X007664Y005165D01*
X007639Y005070D01*X007616Y004995D01*X007572Y004932D01*X007505Y004900D01*
X007346Y004900D01*X007346Y005600D01*X007947Y005589D02*X007880Y005558D01*
X007858Y005494D01*X007858Y005430D01*X007880Y005356D01*X007925Y005324D01*
X008017Y005292D01*X008084Y005261D01*X008129Y005197D01*X008154Y005133D01*
X008154Y005027D01*X008129Y004964D01*X008106Y004932D01*X008040Y004900D01*
X007947Y004900D01*X007880Y004932D01*X007858Y004964D01*X007836Y005027D01*
X007836Y005133D01*X007858Y005197D01*X007903Y005261D01*X007970Y005292D01*
X008062Y005324D01*X008106Y005356D01*X008129Y005430D01*X008129Y005494D01*
X008106Y005558D01*X008040Y005589D01*X007947Y005589D01*X011346Y005600D02*
X011505Y005600D01*X011572Y005558D01*X011616Y005494D01*X011639Y005430D01*
X011664Y005335D01*X011664Y005165D01*X011639Y005070D01*X011616Y004995D01*
X011572Y004932D01*X011505Y004900D01*X011346Y004900D01*X011346Y005600D01*
X011836Y005589D02*X012154Y005589D01*X011925Y004900D01*X017150Y004846D02*
X017150Y005005D01*X017192Y005072D01*X017256Y005116D01*X017320Y005139D01*
X017415Y005164D01*X017585Y005164D01*X017680Y005139D01*X017755Y005116D01*
X017818Y005072D01*X017850Y005005D01*X017850Y004846D01*X017150Y004846D01*
X017161Y005546D02*X017850Y005546D01*X017161Y005546D02*X017617Y005336D01*
X017617Y005654D01*X021650Y004846D02*X021650Y005005D01*X021692Y005072D01*
X021756Y005116D01*X021820Y005139D01*X021915Y005164D01*X022085Y005164D01*
X022180Y005139D01*X022255Y005116D01*X022318Y005072D01*X022350Y005005D01*
X022350Y004846D01*X021650Y004846D01*X021788Y005460D02*X021756Y005485D01*
X021661Y005524D01*X022350Y005524D01*X020150Y004846D02*X020150Y005005D01*
X020192Y005072D01*X020256Y005116D01*X020320Y005139D01*X020415Y005164D01*
X020585Y005164D01*X020680Y005139D01*X020755Y005116D01*X020818Y005072D01*
X020850Y005005D01*X020850Y004846D01*X020150Y004846D01*X020320Y005358D02*
X020288Y005358D01*X020224Y005380D01*X020192Y005403D01*X020150Y005447D01*
X020150Y005540D01*X020192Y005584D01*X020224Y005606D01*X020288Y005629D01*
X020352Y005629D01*X020415Y005606D01*X020521Y005562D01*X020850Y005336D01*
X020850Y005654D01*X018650Y004846D02*X018650Y005005D01*X018692Y005072D01*
X018756Y005116D01*X018820Y005139D01*X018915Y005164D01*X019085Y005164D01*
X019180Y005139D01*X019255Y005116D01*X019318Y005072D01*X019350Y005005D01*
X019350Y004846D01*X018650Y004846D01*X018661Y005380D02*X018661Y005629D01*
X018926Y005492D01*X018926Y005562D01*X018958Y005606D01*X018989Y005629D01*
X019085Y005654D01*X019159Y005654D01*X019255Y005629D01*X019318Y005584D01*
X019350Y005517D01*X019350Y005447D01*X019318Y005380D01*X019286Y005358D01*
X019223Y005336D01*X040226Y006100D02*X040544Y006100D01*X040385Y006100D02*
X040385Y005400D01*X040716Y005761D02*X041034Y005761D01*X041034Y006100D02*
X041034Y005400D01*X040716Y006100D02*X040716Y005400D01*X041250Y006089D02*
X041499Y006089D01*X041362Y005824D01*X041432Y005824D01*X041476Y005792D01*
X041499Y005761D01*X041524Y005665D01*X041524Y005591D01*X041499Y005495D01*
X041454Y005432D01*X041387Y005400D01*X041317Y005400D01*X041250Y005432D01*
X041228Y005464D01*X041206Y005527D01*X044846Y006975D02*X044846Y006477D01*
X044868Y006370D01*X044913Y006307D01*X044983Y006275D01*X045027Y006275D01*
X045094Y006307D01*X045139Y006370D01*X045164Y006477D01*X045164Y006975D01*
X045380Y006964D02*X045629Y006964D01*X045492Y006699D01*X045562Y006699D01*
X045606Y006667D01*X045629Y006636D01*X045654Y006540D01*X045654Y006466D01*
X045629Y006370D01*X045584Y006307D01*X045517Y006275D01*X045447Y006275D01*
X045380Y006307D01*X045358Y006339D01*X045336Y006402D01*X017161Y009975D02*
X017161Y009445D01*X017129Y009339D01*X017097Y009307D01*X017037Y009275D01*
X016970Y009275D01*X016909Y009307D01*X016878Y009339D01*X016846Y009445D01*
X016846Y009508D01*X017546Y009964D02*X017546Y009275D01*X017546Y009964D02*
X017336Y009508D01*X017654Y009508D01*X017411Y013600D02*X017411Y013070D01*
X017379Y012964D01*X017347Y012932D01*X017287Y012900D01*X017220Y012900D01*
X017159Y012932D01*X017128Y012964D01*X017096Y013070D01*X017096Y013133D01*
X017856Y013589D02*X017630Y013589D01*X017608Y013292D01*X017630Y013324D01*
X017697Y013356D01*X017764Y013356D01*X017834Y013324D01*X017879Y013261D01*
X017904Y013165D01*X017904Y013091D01*X017879Y012995D01*X017834Y012932D01*
X017764Y012900D01*X017697Y012900D01*X017630Y012932D01*X017608Y012964D01*
X017586Y013027D01*X023786Y010350D02*X023786Y009820D01*X023754Y009714D01*
X023722Y009682D01*X023662Y009650D01*X023595Y009650D01*X023534Y009682D01*
X023503Y009714D01*X023471Y009820D01*X023471Y009883D01*X023983Y010180D02*
X023983Y010212D01*X024005Y010276D01*X024028Y010308D01*X024072Y010350D01*
X024165Y010350D01*X024209Y010308D01*X024231Y010276D01*X024254Y010212D01*
X024254Y010148D01*X024231Y010085D01*X024187Y009979D01*X023961Y009650D01*
X024279Y009650D01*X020161Y013600D02*X020161Y013070D01*X020129Y012964D01*
X020097Y012932D01*X020037Y012900D01*X019970Y012900D01*X019909Y012932D01*
X019878Y012964D01*X019846Y013070D01*X019846Y013133D01*X020380Y013589D02*
X020629Y013589D01*X020492Y013324D01*X020562Y013324D01*X020606Y013292D01*
X020629Y013261D01*X020654Y013165D01*X020654Y013091D01*X020629Y012995D01*
X020584Y012932D01*X020517Y012900D01*X020447Y012900D01*X020380Y012932D01*
X020358Y012964D01*X020336Y013027D01*X027600Y010096D02*X026900Y010096D01*
X026900Y010300D01*X026942Y010366D01*X026974Y010389D01*X027038Y010414D01*
X027102Y010414D01*X027165Y010389D01*X027208Y010366D01*X027239Y010300D01*
X027239Y010096D01*X027239Y010252D02*X027600Y010414D01*X027038Y010710D02*
X027006Y010735D01*X026911Y010774D01*X027600Y010774D01*X031070Y010169D02*
X031006Y010147D01*X030942Y010102D01*X030900Y010061D01*X030900Y009975D01*
X030942Y009934D01*X031006Y009892D01*X031070Y009870D01*X031165Y009851D01*
X031335Y009851D01*X031430Y009870D01*X031505Y009892D01*X031568Y009934D01*
X031600Y009975D01*X031600Y010061D01*X031568Y010102D01*X031505Y010147D01*
X031430Y010169D01*X031070Y010363D02*X031038Y010363D01*X030974Y010385D01*
X030942Y010408D01*X030900Y010452D01*X030900Y010545D01*X030942Y010589D01*
X030974Y010611D01*X031038Y010634D01*X031102Y010634D01*X031165Y010611D01*
X031271Y010567D01*X031600Y010341D01*X031600Y010659D01*X031038Y010955D02*
X031006Y010980D01*X030911Y011019D01*X031600Y011019D01*X046320Y012544D02*
X046256Y012522D01*X046192Y012477D01*X046150Y012436D01*X046150Y012350D01*
X046192Y012309D01*X046256Y012267D01*X046320Y012245D01*X046415Y012226D01*
X046585Y012226D01*X046680Y012245D01*X046755Y012267D01*X046818Y012309D01*
X046850Y012350D01*X046850Y012436D01*X046818Y012477D01*X046755Y012522D01*
X046680Y012544D01*X046161Y012760D02*X046161Y013009D01*X046426Y012872D01*
X046426Y012942D01*X046458Y012986D01*X046489Y013009D01*X046585Y013034D01*
X046659Y013034D01*X046755Y013009D01*X046818Y012964D01*X046850Y012897D01*
X046850Y012827D01*X046818Y012760D01*X046786Y012738D01*X046723Y012716D01*
X046161Y013416D02*X046850Y013416D01*X046161Y013416D02*X046617Y013206D01*
X046617Y013524D01*X047820Y012544D02*X047756Y012522D01*X047692Y012477D01*
X047650Y012436D01*X047650Y012350D01*X047692Y012309D01*X047756Y012267D01*
X047820Y012245D01*X047915Y012226D01*X048085Y012226D01*X048180Y012245D01*
X048255Y012267D01*X048318Y012309D01*X048350Y012350D01*X048350Y012436D01*
X048318Y012477D01*X048255Y012522D01*X048180Y012544D01*X047661Y012760D02*
X047661Y013009D01*X047926Y012872D01*X047926Y012942D01*X047958Y012986D01*
X047989Y013009D01*X048085Y013034D01*X048159Y013034D01*X048255Y013009D01*
X048318Y012964D01*X048350Y012897D01*X048350Y012827D01*X048318Y012760D01*
X048286Y012738D01*X048223Y012716D01*X047661Y013476D02*X047661Y013250D01*
X047958Y013228D01*X047926Y013250D01*X047894Y013317D01*X047894Y013384D01*
X047926Y013454D01*X047989Y013499D01*X048085Y013524D01*X048159Y013524D01*
X048255Y013499D01*X048318Y013454D01*X048350Y013384D01*X048350Y013317D01*
X048318Y013250D01*X048286Y013228D01*X048223Y013206D01*X044650Y012226D02*
X044650Y012385D01*X044692Y012452D01*X044756Y012496D01*X044820Y012519D01*
X044915Y012544D01*X045085Y012544D01*X045180Y012519D01*X045255Y012496D01*
X045318Y012452D01*X045350Y012385D01*X045350Y012226D01*X044650Y012226D01*
X044788Y012840D02*X044756Y012865D01*X044661Y012904D01*X045350Y012904D01*
X044788Y013330D02*X044756Y013355D01*X044661Y013394D01*X045350Y013394D01*
X043850Y012226D02*X043150Y012226D01*X043150Y012430D01*X043192Y012496D01*
X043224Y012519D01*X043288Y012544D01*X043352Y012544D01*X043415Y012519D01*
X043458Y012496D01*X043489Y012430D01*X043489Y012226D01*X043489Y012382D02*
X043850Y012544D01*X043161Y012760D02*X043161Y013009D01*X043426Y012872D01*
X043426Y012942D01*X043458Y012986D01*X043489Y013009D01*X043585Y013034D01*
X043659Y013034D01*X043755Y013009D01*X043818Y012964D01*X043850Y012897D01*
X043850Y012827D01*X043818Y012760D01*X043786Y012738D01*X043723Y012716D01*
X043161Y013416D02*X043850Y013416D01*X043161Y013416D02*X043617Y013206D01*
X043617Y013524D01*X049919Y015600D02*X049601Y015600D01*X049601Y014900D01*
X049601Y015261D02*X049795Y015261D01*X050091Y015261D02*X050295Y015261D01*
X050361Y015229D01*X050384Y015197D01*X050409Y015133D01*X050409Y015027D01*
X050384Y014964D01*X050361Y014932D01*X050295Y014900D01*X050091Y014900D01*
X050091Y015600D01*X050295Y015600D01*X050361Y015558D01*X050384Y015526D01*
X050409Y015462D01*X050409Y015398D01*X050384Y015335D01*X050361Y015292D01*
X050295Y015261D01*X050603Y015430D02*X050603Y015462D01*X050625Y015526D01*
X050648Y015558D01*X050692Y015600D01*X050785Y015600D01*X050829Y015558D01*
X050851Y015526D01*X050874Y015462D01*X050874Y015398D01*X050851Y015335D01*
X050807Y015229D01*X050581Y014900D01*X050899Y014900D01*X035164Y014225D02*
X035005Y013886D01*X034846Y014225D02*X035005Y013886D01*X035005Y013525D01*
X035460Y014087D02*X035485Y014119D01*X035524Y014214D01*X035524Y013525D01*
X031070Y013044D02*X031006Y013022D01*X030942Y012977D01*X030900Y012936D01*
X030900Y012850D01*X030942Y012809D01*X031006Y012767D01*X031070Y012745D01*
X031165Y012726D01*X031335Y012726D01*X031430Y012745D01*X031505Y012767D01*
X031568Y012809D01*X031600Y012850D01*X031600Y012936D01*X031568Y012977D01*
X031505Y013022D01*X031430Y013044D01*X031070Y013238D02*X031038Y013238D01*
X030974Y013260D01*X030942Y013283D01*X030900Y013327D01*X030900Y013420D01*
X030942Y013464D01*X030974Y013486D01*X031038Y013509D01*X031102Y013509D01*
X031165Y013486D01*X031271Y013442D01*X031600Y013216D01*X031600Y013534D01*
X031070Y013728D02*X031038Y013728D01*X030974Y013750D01*X030942Y013773D01*
X030900Y013817D01*X030900Y013910D01*X030942Y013954D01*X030974Y013976D01*
X031038Y013999D01*X031102Y013999D01*X031165Y013976D01*X031271Y013932D01*
X031600Y013706D01*X031600Y014024D01*X017471Y018850D02*X017471Y018352D01*
X017493Y018245D01*X017538Y018182D01*X017608Y018150D01*X017652Y018150D01*
X017719Y018182D01*X017764Y018245D01*X017789Y018352D01*X017789Y018850D01*
X017983Y018680D02*X017983Y018712D01*X018005Y018776D01*X018028Y018808D01*
X018072Y018850D01*X018165Y018850D01*X018209Y018808D01*X018231Y018776D01*
X018254Y018712D01*X018254Y018648D01*X018231Y018585D01*X018187Y018479D01*
X017961Y018150D01*X018279Y018150D01*X020096Y022225D02*X020096Y021727D01*
X020118Y021620D01*X020163Y021557D01*X020233Y021525D01*X020277Y021525D01*
X020344Y021557D01*X020389Y021620D01*X020414Y021727D01*X020414Y022225D01*
X020710Y022087D02*X020735Y022119D01*X020774Y022214D01*X020774Y021525D01*
X033900Y015221D02*X034600Y015221D01*X034600Y015539D01*X033911Y015755D02*
X033911Y016004D01*X034176Y015867D01*X034176Y015937D01*X034208Y015981D01*
X034239Y016004D01*X034335Y016029D01*X034409Y016029D01*X034505Y016004D01*
X034568Y015959D01*X034600Y015892D01*X034600Y015822D01*X034568Y015755D01*
X034536Y015733D01*X034473Y015711D01*X031919Y016680D02*X031897Y016744D01*
X031852Y016808D01*X031811Y016850D01*X031725Y016850D01*X031684Y016808D01*
X031642Y016744D01*X031620Y016680D01*X031601Y016585D01*X031601Y016415D01*
X031620Y016320D01*X031642Y016245D01*X031684Y016182D01*X031725Y016150D01*
X031811Y016150D01*X031852Y016182D01*X031897Y016245D01*X031919Y016320D01*
X032215Y016712D02*X032240Y016744D01*X032279Y016839D01*X032279Y016150D01*
X032603Y016680D02*X032603Y016712D01*X032625Y016776D01*X032648Y016808D01*
X032692Y016850D01*X032785Y016850D01*X032829Y016808D01*X032851Y016776D01*
X032874Y016712D01*X032874Y016648D01*X032851Y016585D01*X032807Y016479D01*
X032581Y016150D01*X032899Y016150D01*X035919Y016680D02*X035897Y016744D01*
X035852Y016808D01*X035811Y016850D01*X035725Y016850D01*X035684Y016808D01*
X035642Y016744D01*X035620Y016680D01*X035601Y016585D01*X035601Y016415D01*
X035620Y016320D01*X035642Y016245D01*X035684Y016182D01*X035725Y016150D01*
X035811Y016150D01*X035852Y016182D01*X035897Y016245D01*X035919Y016320D01*
X036215Y016712D02*X036240Y016744D01*X036279Y016839D01*X036279Y016150D01*
X036625Y016839D02*X036874Y016839D01*X036737Y016574D01*X036807Y016574D01*
X036851Y016542D01*X036874Y016511D01*X036899Y016415D01*X036899Y016341D01*
X036874Y016245D01*X036829Y016182D01*X036762Y016150D01*X036692Y016150D01*
X036625Y016182D01*X036603Y016214D01*X036581Y016277D01*X042400Y019596D02*
X043100Y019596D01*X043100Y019914D01*X042411Y020197D02*X042442Y020130D01*
X042506Y020108D01*X042570Y020108D01*X042644Y020130D01*X042676Y020175D01*
X042708Y020267D01*X042739Y020334D01*X042803Y020379D01*X042867Y020404D01*
X042973Y020404D01*X043036Y020379D01*X043068Y020356D01*X043100Y020290D01*
X043100Y020197D01*X043068Y020130D01*X043036Y020108D01*X042973Y020086D01*
X042867Y020086D01*X042803Y020108D01*X042739Y020153D01*X042708Y020220D01*
X042676Y020312D01*X042644Y020356D01*X042570Y020379D01*X042506Y020379D01*
X042442Y020356D01*X042411Y020290D01*X042411Y020197D01*X040320Y015044D02*
X040256Y015022D01*X040192Y014977D01*X040150Y014936D01*X040150Y014850D01*
X040192Y014809D01*X040256Y014767D01*X040320Y014745D01*X040415Y014726D01*
X040585Y014726D01*X040680Y014745D01*X040755Y014767D01*X040818Y014809D01*
X040850Y014850D01*X040850Y014936D01*X040818Y014977D01*X040755Y015022D01*
X040680Y015044D01*X040288Y015340D02*X040256Y015365D01*X040161Y015404D01*
X040850Y015404D01*X040256Y015999D02*X040192Y015973D01*X040161Y015900D01*
X040161Y015852D01*X040192Y015779D01*X040288Y015728D01*X040458Y015706D01*
X040617Y015706D01*X040755Y015728D01*X040818Y015779D01*X040850Y015852D01*
X040850Y015875D01*X040818Y015948D01*X040755Y015999D01*X040659Y016024D01*
X040617Y016024D01*X040521Y015999D01*X040458Y015948D01*X040426Y015875D01*
X040426Y015852D01*X040458Y015779D01*X040521Y015728D01*X040617Y015706D01*
X046919Y018680D02*X046897Y018744D01*X046852Y018808D01*X046811Y018850D01*
X046725Y018850D01*X046684Y018808D01*X046642Y018744D01*X046620Y018680D01*
X046601Y018585D01*X046601Y018415D01*X046620Y018320D01*X046642Y018245D01*
X046684Y018182D01*X046725Y018150D01*X046811Y018150D01*X046852Y018182D01*
X046897Y018245D01*X046919Y018320D01*X047215Y018712D02*X047240Y018744D01*
X047279Y018839D01*X047279Y018150D01*X047581Y018839D02*X047899Y018839D01*
X047670Y018150D01*X041846Y017850D02*X041846Y017150D01*X042164Y017150D01*
X042358Y017680D02*X042358Y017712D01*X042380Y017776D01*X042403Y017808D01*
X042447Y017850D01*X042540Y017850D01*X042584Y017808D01*X042606Y017776D01*
X042629Y017712D01*X042629Y017648D01*X042606Y017585D01*X042562Y017479D01*
X042336Y017150D01*X042654Y017150D01*X031919Y020680D02*X031897Y020744D01*
X031852Y020808D01*X031811Y020850D01*X031725Y020850D01*X031684Y020808D01*
X031642Y020744D01*X031620Y020680D01*X031601Y020585D01*X031601Y020415D01*
X031620Y020320D01*X031642Y020245D01*X031684Y020182D01*X031725Y020150D01*
X031811Y020150D01*X031852Y020182D01*X031897Y020245D01*X031919Y020320D01*
X032215Y020712D02*X032240Y020744D01*X032279Y020839D01*X032279Y020150D01*
X032692Y020839D02*X032625Y020808D01*X032603Y020744D01*X032603Y020680D01*
X032625Y020606D01*X032670Y020574D01*X032762Y020542D01*X032829Y020511D01*
X032874Y020447D01*X032899Y020383D01*X032899Y020277D01*X032874Y020214D01*
X032851Y020182D01*X032785Y020150D01*X032692Y020150D01*X032625Y020182D01*
X032603Y020214D01*X032581Y020277D01*X032581Y020383D01*X032603Y020447D01*
X032648Y020511D01*X032715Y020542D01*X032807Y020574D01*X032851Y020606D01*
X032874Y020680D01*X032874Y020744D01*X032851Y020808D01*X032785Y020839D01*
X032692Y020839D01*X034320Y022044D02*X034256Y022022D01*X034192Y021977D01*
X034150Y021936D01*X034150Y021850D01*X034192Y021809D01*X034256Y021767D01*
X034320Y021745D01*X034415Y021726D01*X034585Y021726D01*X034680Y021745D01*
X034755Y021767D01*X034818Y021809D01*X034850Y021850D01*X034850Y021936D01*
X034818Y021977D01*X034755Y022022D01*X034680Y022044D01*X034320Y022238D02*
X034288Y022238D01*X034224Y022260D01*X034192Y022283D01*X034150Y022327D01*
X034150Y022420D01*X034192Y022464D01*X034224Y022486D01*X034288Y022509D01*
X034352Y022509D01*X034415Y022486D01*X034521Y022442D01*X034850Y022216D01*
X034850Y022534D01*X034161Y022843D02*X034192Y022773D01*X034288Y022728D01*
X034458Y022706D01*X034553Y022706D01*X034723Y022728D01*X034818Y022773D01*
X034850Y022843D01*X034850Y022887D01*X034818Y022954D01*X034723Y022999D01*
X034553Y023024D01*X034458Y023024D01*X034288Y022999D01*X034192Y022954D01*
X034161Y022887D01*X034161Y022843D01*X036096Y020600D02*X036096Y019900D01*
X036414Y019900D01*X036796Y020589D02*X036796Y019900D01*X036796Y020589D02*
X036586Y020133D01*X036904Y020133D01*X038346Y019850D02*X038346Y019150D01*
X038664Y019150D01*X038960Y019712D02*X038985Y019744D01*X039024Y019839D01*
X039024Y019150D01*X006851Y022975D02*X007010Y022975D01*X007077Y022933D01*
X007121Y022869D01*X007144Y022805D01*X007169Y022710D01*X007169Y022540D01*
X007144Y022445D01*X007121Y022370D01*X007077Y022307D01*X007010Y022275D01*
X006851Y022275D01*X006851Y022975D01*X007465Y022837D02*X007490Y022869D01*
X007529Y022964D01*X007529Y022275D01*X007968Y022964D02*X007898Y022933D01*
X007853Y022837D01*X007831Y022667D01*X007831Y022572D01*X007853Y022402D01*
X007898Y022307D01*X007968Y022275D01*X008012Y022275D01*X008079Y022307D01*
X008124Y022402D01*X008149Y022572D01*X008149Y022667D01*X008124Y022837D01*
X008079Y022933D01*X008012Y022964D01*X007968Y022964D01*X011971Y022975D02*
X012130Y022975D01*X012197Y022933D01*X012241Y022869D01*X012264Y022805D01*
X012289Y022710D01*X012289Y022540D01*X012264Y022445D01*X012241Y022370D01*
X012197Y022307D01*X012130Y022275D01*X011971Y022275D01*X011971Y022975D01*
X012779Y022742D02*X012754Y022636D01*X012706Y022572D01*X012630Y022540D01*
X012607Y022540D01*X012534Y022572D01*X012483Y022636D01*X012461Y022742D01*
X012461Y022773D01*X012483Y022869D01*X012534Y022933D01*X012607Y022964D01*
X012630Y022964D01*X012706Y022933D01*X012754Y022869D01*X012779Y022742D01*
X012779Y022572D01*X012754Y022402D01*X012706Y022307D01*X012630Y022275D01*
X012582Y022275D01*X012509Y022307D01*X012483Y022370D01*X016320Y024294D02*
X016256Y024272D01*X016192Y024227D01*X016150Y024186D01*X016150Y024100D01*
X016192Y024059D01*X016256Y024017D01*X016320Y023995D01*X016415Y023976D01*
X016585Y023976D01*X016680Y023995D01*X016755Y024017D01*X016818Y024059D01*
X016850Y024100D01*X016850Y024186D01*X016818Y024227D01*X016755Y024272D01*
X016680Y024294D01*X016320Y024488D02*X016288Y024488D01*X016224Y024510D01*
X016192Y024533D01*X016150Y024577D01*X016150Y024670D01*X016192Y024714D01*
X016224Y024736D01*X016288Y024759D01*X016352Y024759D01*X016415Y024736D01*
X016521Y024692D01*X016850Y024466D01*X016850Y024784D01*X016383Y025274D02*
X016489Y025249D01*X016553Y025201D01*X016585Y025125D01*X016585Y025102D01*
X016553Y025029D01*X016489Y024978D01*X016383Y024956D01*X016352Y024956D01*
X016256Y024978D01*X016192Y025029D01*X016161Y025102D01*X016161Y025125D01*
X016192Y025201D01*X016256Y025249D01*X016383Y025274D01*X016553Y025274D01*
X016723Y025249D01*X016818Y025201D01*X016850Y025125D01*X016850Y025077D01*
X016818Y025004D01*X016755Y024978D01*X023544Y024180D02*X023522Y024244D01*
X023477Y024308D01*X023436Y024350D01*X023350Y024350D01*X023309Y024308D01*
X023267Y024244D01*X023245Y024180D01*X023226Y024085D01*X023226Y023915D01*
X023245Y023820D01*X023267Y023745D01*X023309Y023682D01*X023350Y023650D01*
X023436Y023650D01*X023477Y023682D01*X023522Y023745D01*X023544Y023820D01*
X023738Y024180D02*X023738Y024212D01*X023760Y024276D01*X023783Y024308D01*
X023827Y024350D01*X023920Y024350D01*X023964Y024308D01*X023986Y024276D01*
X024009Y024212D01*X024009Y024148D01*X023986Y024085D01*X023942Y023979D01*
X023716Y023650D01*X024034Y023650D01*X024416Y024339D02*X024416Y023650D01*
X024416Y024339D02*X024206Y023883D01*X024524Y023883D01*X045911Y026100D02*
X045911Y025570D01*X045879Y025464D01*X045847Y025432D01*X045787Y025400D01*
X045720Y025400D01*X045659Y025432D01*X045628Y025464D01*X045596Y025570D01*
X045596Y025633D01*X046210Y025962D02*X046235Y025994D01*X046274Y026089D01*
X046274Y025400D01*X028914Y028725D02*X028755Y028386D01*X028596Y028725D02*
X028755Y028386D01*X028755Y028025D01*X029108Y028555D02*X029108Y028587D01*
X029130Y028651D01*X029153Y028683D01*X029197Y028725D01*X029290Y028725D01*
X029334Y028683D01*X029356Y028651D01*X029379Y028587D01*X029379Y028523D01*
X029356Y028460D01*X029312Y028354D01*X029086Y028025D01*X029404Y028025D01*
X031294Y024180D02*X031272Y024244D01*X031227Y024308D01*X031186Y024350D01*
X031100Y024350D01*X031059Y024308D01*X031017Y024244D01*X030995Y024180D01*
X030976Y024085D01*X030976Y023915D01*X030995Y023820D01*X031017Y023745D01*
X031059Y023682D01*X031100Y023650D01*X031186Y023650D01*X031227Y023682D01*
X031272Y023745D01*X031294Y023820D01*X031488Y024180D02*X031488Y024212D01*
X031510Y024276D01*X031533Y024308D01*X031577Y024350D01*X031670Y024350D01*
X031714Y024308D01*X031736Y024276D01*X031759Y024212D01*X031759Y024148D01*
X031736Y024085D01*X031692Y023979D01*X031466Y023650D01*X031784Y023650D01*
X032000Y024339D02*X032249Y024339D01*X032112Y024074D01*X032182Y024074D01*
X032226Y024042D01*X032249Y024011D01*X032274Y023915D01*X032274Y023841D01*
X032249Y023745D01*X032204Y023682D01*X032137Y023650D01*X032067Y023650D01*
X032000Y023682D01*X031978Y023714D01*X031956Y023777D01*X023294Y029680D02*
X023272Y029744D01*X023227Y029808D01*X023186Y029850D01*X023100Y029850D01*
X023059Y029808D01*X023017Y029744D01*X022995Y029680D01*X022976Y029585D01*
X022976Y029415D01*X022995Y029320D01*X023017Y029245D01*X023059Y029182D01*
X023100Y029150D01*X023186Y029150D01*X023227Y029182D01*X023272Y029245D01*
X023294Y029320D01*X023488Y029680D02*X023488Y029712D01*X023510Y029776D01*
X023533Y029808D01*X023577Y029850D01*X023670Y029850D01*X023714Y029808D01*
X023736Y029776D01*X023759Y029712D01*X023759Y029648D01*X023736Y029585D01*
X023692Y029479D01*X023466Y029150D01*X023784Y029150D01*X024249Y029744D02*
X024223Y029808D01*X024150Y029839D01*X024102Y029839D01*X024029Y029808D01*
X023978Y029712D01*X023956Y029542D01*X023956Y029383D01*X023978Y029245D01*
X024029Y029182D01*X024102Y029150D01*X024125Y029150D01*X024198Y029182D01*
X024249Y029245D01*X024274Y029341D01*X024274Y029383D01*X024249Y029479D01*
X024198Y029542D01*X024125Y029574D01*X024102Y029574D01*X024029Y029542D01*
X023978Y029479D01*X023956Y029383D01*X031536Y030100D02*X031536Y029570D01*
X031504Y029464D01*X031472Y029432D01*X031412Y029400D01*X031345Y029400D01*
X031284Y029432D01*X031253Y029464D01*X031221Y029570D01*X031221Y029633D01*
X032004Y029994D02*X031978Y030058D01*X031905Y030089D01*X031857Y030089D01*
X031784Y030058D01*X031733Y029962D01*X031711Y029792D01*X031711Y029633D01*
X031733Y029495D01*X031784Y029432D01*X031857Y029400D01*X031880Y029400D01*
X031953Y029432D01*X032004Y029495D01*X032029Y029591D01*X032029Y029633D01*
X032004Y029729D01*X031953Y029792D01*X031880Y029824D01*X031857Y029824D01*
X031784Y029792D01*X031733Y029729D01*X031711Y029633D01*X008900Y031351D02*
X008900Y031669D01*X008900Y031510D02*X009600Y031510D01*X009239Y031841D02*
X009239Y032159D01*X008900Y032159D02*X009600Y032159D01*X008900Y031841D02*
X009600Y031841D01*X008911Y032331D02*X008911Y032649D01*X009600Y032420D01*
X013650Y031351D02*X013650Y031669D01*X013650Y031510D02*X014350Y031510D01*
X013989Y031841D02*X013989Y032159D01*X013650Y032159D02*X014350Y032159D01*
X013650Y031841D02*X014350Y031841D01*X013756Y032624D02*X013692Y032598D01*
X013661Y032525D01*X013661Y032477D01*X013692Y032404D01*X013788Y032353D01*
X013958Y032331D01*X014117Y032331D01*X014255Y032353D01*X014318Y032404D01*
X014350Y032477D01*X014350Y032500D01*X014318Y032573D01*X014255Y032624D01*
X014159Y032649D01*X014117Y032649D01*X014021Y032624D01*X013958Y032573D01*
X013926Y032500D01*X013926Y032477D01*X013958Y032404D01*X014021Y032353D01*
X014117Y032331D01*X018400Y031351D02*X018400Y031669D01*X018400Y031510D02*
X019100Y031510D01*X018739Y031841D02*X018739Y032159D01*X018400Y032159D02*
X019100Y032159D01*X018400Y031841D02*X019100Y031841D01*X018411Y032541D02*
X019100Y032541D01*X018411Y032541D02*X018867Y032331D01*X018867Y032649D01*
X021226Y030600D02*X021544Y030600D01*X021385Y030600D02*X021385Y029900D01*
X021716Y030261D02*X022034Y030261D01*X022034Y030600D02*X022034Y029900D01*
X021716Y030600D02*X021716Y029900D01*X022476Y030589D02*X022250Y030589D01*
X022228Y030292D01*X022250Y030324D01*X022317Y030356D01*X022384Y030356D01*
X022454Y030324D01*X022499Y030261D01*X022524Y030165D01*X022524Y030091D01*
X022499Y029995D01*X022454Y029932D01*X022384Y029900D01*X022317Y029900D01*
X022250Y029932D01*X022228Y029964D01*X022206Y030027D01*X043150Y031351D02*
X043150Y031669D01*X043150Y031510D02*X043850Y031510D01*X043489Y031841D02*
X043489Y032159D01*X043150Y032159D02*X043850Y032159D01*X043150Y031841D02*
X043850Y031841D01*X043383Y032649D02*X043489Y032624D01*X043553Y032576D01*
X043585Y032500D01*X043585Y032477D01*X043553Y032404D01*X043489Y032353D01*
X043383Y032331D01*X043352Y032331D01*X043256Y032353D01*X043192Y032404D01*
X043161Y032477D01*X043161Y032500D01*X043192Y032576D01*X043256Y032624D01*
X043383Y032649D01*X043553Y032649D01*X043723Y032624D01*X043818Y032576D01*
X043850Y032500D01*X043850Y032452D01*X043818Y032379D01*X043755Y032353D01*
X048400Y031351D02*X048400Y031669D01*X048400Y031510D02*X049100Y031510D01*
X048739Y031841D02*X048739Y032159D01*X048400Y032159D02*X049100Y032159D01*
X048400Y031841D02*X049100Y031841D01*X048411Y032442D02*X048442Y032375D01*
X048506Y032353D01*X048570Y032353D01*X048644Y032375D01*X048676Y032420D01*
X048708Y032512D01*X048739Y032579D01*X048803Y032624D01*X048867Y032649D01*
X048973Y032649D01*X049036Y032624D01*X049068Y032601D01*X049100Y032535D01*
X049100Y032442D01*X049068Y032375D01*X049036Y032353D01*X048973Y032331D01*
X048867Y032331D01*X048803Y032353D01*X048739Y032398D01*X048708Y032465D01*
X048676Y032557D01*X048644Y032601D01*X048570Y032624D01*X048506Y032624D01*
X048442Y032601D01*X048411Y032535D01*X048411Y032442D01*D02*G54D12*
X042400Y004400D02*X043600Y004400D01*X043600Y004400D02*X043600Y001600D01*
X042400Y001600D01*X042400Y004400D01*X042400Y003000D02*X043600Y003000D01*
X044150Y004400D02*X045350Y004400D01*X045350Y004400D02*X045350Y001600D01*
X044150Y001600D01*X044150Y004400D01*X044150Y003000D02*X045350Y003000D01*
X040532Y003908D02*X040486Y003908D01*X040394Y003945D01*X040348Y003982D01*
X040286Y004056D01*X040286Y004209D01*X040348Y004283D01*X040394Y004320D01*
X040486Y004357D01*X040578Y004357D01*X040671Y004320D01*X040825Y004246D01*
X041302Y003871D01*X041302Y004399D01*X040486Y002807D02*X040440Y002849D01*
X040301Y002913D01*X041302Y002913D01*X047250Y001650D02*X047251Y001675D01*
X047254Y001699D01*X047260Y001724D01*X047268Y001747D01*X047278Y001770D01*
X047290Y001791D01*X047305Y001811D01*X047321Y001830D01*X047340Y001847D01*
X047360Y001862D01*X047381Y001875D01*X047403Y001886D01*X047427Y001894D01*
X047451Y001900D01*X047475Y001904D01*X047500Y001905D01*X047525Y001904D01*
X047549Y001900D01*X047573Y001894D01*X047597Y001886D01*X047619Y001875D01*
X047640Y001862D01*X047660Y001847D01*X047679Y001830D01*X047695Y001811D01*
X047710Y001791D01*X047722Y001770D01*X047732Y001747D01*X047740Y001724D01*
X047746Y001699D01*X047749Y001675D01*X047750Y001650D01*X048900Y002850D02*
X048900Y001650D01*X048900Y002850D02*X047750Y002850D01*X047250Y002850D02*
X046100Y002850D01*X046100Y002850D02*X046100Y001650D01*X048900Y001650D02*
X047750Y001650D01*X047250Y001650D02*X046100Y001650D01*X047750Y002850D02*
X047749Y002825D01*X047746Y002801D01*X047740Y002776D01*X047732Y002753D01*
X047722Y002730D01*X047710Y002709D01*X047695Y002689D01*X047679Y002670D01*
X047660Y002653D01*X047640Y002638D01*X047619Y002625D01*X047597Y002614D01*
X047573Y002606D01*X047549Y002600D01*X047525Y002596D01*X047500Y002595D01*
X047475Y002596D01*X047451Y002600D01*X047427Y002606D01*X047403Y002614D01*
X047381Y002625D01*X047360Y002638D01*X047340Y002653D01*X047321Y002670D01*
X047305Y002689D01*X047290Y002709D01*X047278Y002730D01*X047268Y002753D01*
X047260Y002776D01*X047254Y002801D01*X047251Y002825D01*X047250Y002850D01*
X050850Y002750D02*X050825Y002751D01*X050801Y002754D01*X050776Y002760D01*
X050753Y002768D01*X050730Y002778D01*X050709Y002790D01*X050689Y002805D01*
X050670Y002821D01*X050653Y002840D01*X050638Y002860D01*X050625Y002881D01*
X050614Y002903D01*X050606Y002927D01*X050600Y002951D01*X050596Y002975D01*
X050595Y003000D01*X050596Y003025D01*X050600Y003049D01*X050606Y003073D01*
X050614Y003097D01*X050625Y003119D01*X050638Y003140D01*X050653Y003160D01*
X050670Y003179D01*X050689Y003195D01*X050709Y003210D01*X050730Y003222D01*
X050753Y003232D01*X050776Y003240D01*X050801Y003246D01*X050825Y003249D01*
X050850Y003250D01*X049650Y004400D02*X050850Y004400D01*X049650Y004400D02*
X049650Y003250D01*X049650Y002750D02*X049650Y001600D01*X049650Y001600D02*
X050850Y001600D01*X050850Y004400D02*X050850Y003250D01*X050850Y002750D02*
X050850Y001600D01*X049650Y003250D02*X049675Y003249D01*X049699Y003246D01*
X049724Y003240D01*X049747Y003232D01*X049770Y003222D01*X049791Y003210D01*
X049811Y003195D01*X049830Y003179D01*X049847Y003160D01*X049862Y003140D01*
X049875Y003119D01*X049886Y003097D01*X049894Y003073D01*X049900Y003049D01*
X049904Y003025D01*X049905Y003000D01*X049904Y002975D01*X049900Y002951D01*
X049894Y002927D01*X049886Y002903D01*X049875Y002881D01*X049862Y002860D01*
X049847Y002840D01*X049830Y002821D01*X049811Y002805D01*X049791Y002790D01*
X049770Y002778D01*X049747Y002768D01*X049724Y002760D01*X049699Y002754D01*
X049675Y002751D01*X049650Y002750D01*X018100Y008900D02*X016900Y008900D01*
X016900Y006100D01*X018100Y006100D01*X018100Y008900D01*X018100Y006000D02*
X016900Y006000D01*X018100Y006100D02*X018100Y006000D01*X016900Y006100D02*
X016900Y006000D01*X022600Y008900D02*X021400Y008900D01*X021400Y006100D01*
X022600Y006100D01*X022600Y008900D01*X022600Y006000D02*X021400Y006000D01*
X022600Y006100D02*X022600Y006000D01*X021400Y006100D02*X021400Y006000D01*
X021100Y008900D02*X019900Y008900D01*X019900Y006100D01*X021100Y006100D01*
X021100Y008900D01*X021100Y006000D02*X019900Y006000D01*X021100Y006100D02*
X021100Y006000D01*X019900Y006100D02*X019900Y006000D01*X019600Y008900D02*
X018400Y008900D01*X018400Y006100D01*X019600Y006100D01*X019600Y008900D01*
X019600Y006000D02*X018400Y006000D01*X019600Y006100D02*X019600Y006000D01*
X018400Y006100D02*X018400Y006000D01*X029100Y011900D02*X029100Y009100D01*
X027900Y009100D01*X027900Y011900D01*X027900Y011900D02*X029100Y011900D01*
X033100Y010250D02*X033075Y010251D01*X033051Y010254D01*X033026Y010260D01*
X033003Y010268D01*X032980Y010278D01*X032959Y010290D01*X032939Y010305D01*
X032920Y010321D01*X032903Y010340D01*X032888Y010360D01*X032875Y010381D01*
X032864Y010403D01*X032856Y010427D01*X032850Y010451D01*X032846Y010475D01*
X032845Y010500D01*X032846Y010525D01*X032850Y010549D01*X032856Y010573D01*
X032864Y010597D01*X032875Y010619D01*X032888Y010640D01*X032903Y010660D01*
X032920Y010679D01*X032939Y010695D01*X032959Y010710D01*X032980Y010722D01*
X033003Y010732D01*X033026Y010740D01*X033051Y010746D01*X033075Y010749D01*
X033100Y010750D01*X031900Y011900D02*X033100Y011900D01*X031900Y011900D02*
X031900Y010750D01*X031900Y010250D02*X031900Y009100D01*X031900Y009100D02*
X033100Y009100D01*X033100Y011900D02*X033100Y010750D01*X033100Y010250D02*
X033100Y009100D01*X031900Y010750D02*X031925Y010749D01*X031949Y010746D01*
X031974Y010740D01*X031997Y010732D01*X032020Y010722D01*X032041Y010710D01*
X032061Y010695D01*X032080Y010679D01*X032097Y010660D01*X032112Y010640D01*
X032125Y010619D01*X032136Y010597D01*X032144Y010573D01*X032150Y010549D01*
X032154Y010525D01*X032155Y010500D01*X032154Y010475D01*X032150Y010451D01*
X032144Y010427D01*X032136Y010403D01*X032125Y010381D01*X032112Y010360D01*
X032097Y010340D01*X032080Y010321D01*X032061Y010305D01*X032041Y010290D01*
X032020Y010278D01*X031997Y010268D01*X031974Y010260D01*X031949Y010254D01*
X031925Y010251D01*X031900Y010250D01*X047100Y010250D02*X047075Y010251D01*
X047051Y010254D01*X047026Y010260D01*X047003Y010268D01*X046980Y010278D01*
X046959Y010290D01*X046939Y010305D01*X046920Y010321D01*X046903Y010340D01*
X046888Y010360D01*X046875Y010381D01*X046864Y010403D01*X046856Y010427D01*
X046850Y010451D01*X046846Y010475D01*X046845Y010500D01*X046846Y010525D01*
X046850Y010549D01*X046856Y010573D01*X046864Y010597D01*X046875Y010619D01*
X046888Y010640D01*X046903Y010660D01*X046920Y010679D01*X046939Y010695D01*
X046959Y010710D01*X046980Y010722D01*X047003Y010732D01*X047026Y010740D01*
X047051Y010746D01*X047075Y010749D01*X047100Y010750D01*X045900Y011900D02*
X047100Y011900D01*X045900Y011900D02*X045900Y010750D01*X045900Y010250D02*
X045900Y009100D01*X045900Y009100D02*X047100Y009100D01*X047100Y011900D02*
X047100Y010750D01*X047100Y010250D02*X047100Y009100D01*X045900Y010750D02*
X045925Y010749D01*X045949Y010746D01*X045974Y010740D01*X045997Y010732D01*
X046020Y010722D01*X046041Y010710D01*X046061Y010695D01*X046080Y010679D01*
X046097Y010660D01*X046112Y010640D01*X046125Y010619D01*X046136Y010597D01*
X046144Y010573D01*X046150Y010549D01*X046154Y010525D01*X046155Y010500D01*
X046154Y010475D01*X046150Y010451D01*X046144Y010427D01*X046136Y010403D01*
X046125Y010381D01*X046112Y010360D01*X046097Y010340D01*X046080Y010321D01*
X046061Y010305D01*X046041Y010290D01*X046020Y010278D01*X045997Y010268D01*
X045974Y010260D01*X045949Y010254D01*X045925Y010251D01*X045900Y010250D01*
X048600Y010250D02*X048575Y010251D01*X048551Y010254D01*X048526Y010260D01*
X048503Y010268D01*X048480Y010278D01*X048459Y010290D01*X048439Y010305D01*
X048420Y010321D01*X048403Y010340D01*X048388Y010360D01*X048375Y010381D01*
X048364Y010403D01*X048356Y010427D01*X048350Y010451D01*X048346Y010475D01*
X048345Y010500D01*X048346Y010525D01*X048350Y010549D01*X048356Y010573D01*
X048364Y010597D01*X048375Y010619D01*X048388Y010640D01*X048403Y010660D01*
X048420Y010679D01*X048439Y010695D01*X048459Y010710D01*X048480Y010722D01*
X048503Y010732D01*X048526Y010740D01*X048551Y010746D01*X048575Y010749D01*
X048600Y010750D01*X047400Y011900D02*X048600Y011900D01*X047400Y011900D02*
X047400Y010750D01*X047400Y010250D02*X047400Y009100D01*X047400Y009100D02*
X048600Y009100D01*X048600Y011900D02*X048600Y010750D01*X048600Y010250D02*
X048600Y009100D01*X047400Y010750D02*X047425Y010749D01*X047449Y010746D01*
X047474Y010740D01*X047497Y010732D01*X047520Y010722D01*X047541Y010710D01*
X047561Y010695D01*X047580Y010679D01*X047597Y010660D01*X047612Y010640D01*
X047625Y010619D01*X047636Y010597D01*X047644Y010573D01*X047650Y010549D01*
X047654Y010525D01*X047655Y010500D01*X047654Y010475D01*X047650Y010451D01*
X047644Y010427D01*X047636Y010403D01*X047625Y010381D01*X047612Y010360D01*
X047597Y010340D01*X047580Y010321D01*X047561Y010305D01*X047541Y010290D01*
X047520Y010278D01*X047497Y010268D01*X047474Y010260D01*X047449Y010254D01*
X047425Y010251D01*X047400Y010250D01*X045600Y011900D02*X044400Y011900D01*
X044400Y009100D01*X045600Y009100D01*X045600Y011900D01*X045600Y009000D02*
X044400Y009000D01*X045600Y009100D02*X045600Y009000D01*X044400Y009100D02*
X044400Y009000D01*X042900Y009100D02*X042900Y011900D01*X044100Y011900D01*
X044100Y009100D01*X044100Y009100D02*X042900Y009100D01*X031900Y013625D02*
X031925Y013624D01*X031949Y013621D01*X031974Y013615D01*X031997Y013607D01*
X032020Y013597D01*X032041Y013585D01*X032061Y013570D01*X032080Y013554D01*
X032097Y013535D01*X032112Y013515D01*X032125Y013494D01*X032136Y013472D01*
X032144Y013448D01*X032150Y013424D01*X032154Y013400D01*X032155Y013375D01*
X032154Y013350D01*X032150Y013326D01*X032144Y013302D01*X032136Y013278D01*
X032125Y013256D01*X032112Y013235D01*X032097Y013215D01*X032080Y013196D01*
X032061Y013180D01*X032041Y013165D01*X032020Y013153D01*X031997Y013143D01*
X031974Y013135D01*X031949Y013129D01*X031925Y013126D01*X031900Y013125D01*
X033100Y011975D02*X031900Y011975D01*X033100Y011975D02*X033100Y013125D01*
X033100Y013625D02*X033100Y014775D01*X033100Y014775D02*X031900Y014775D01*
X031900Y011975D02*X031900Y013125D01*X031900Y013625D02*X031900Y014775D01*
X033100Y013125D02*X033075Y013126D01*X033051Y013129D01*X033026Y013135D01*
X033003Y013143D01*X032980Y013153D01*X032959Y013165D01*X032939Y013180D01*
X032920Y013196D01*X032903Y013215D01*X032888Y013235D01*X032875Y013256D01*
X032864Y013278D01*X032856Y013302D01*X032850Y013326D01*X032846Y013350D01*
X032845Y013375D01*X032846Y013400D01*X032850Y013424D01*X032856Y013448D01*
X032864Y013472D01*X032875Y013494D01*X032888Y013515D01*X032903Y013535D01*
X032920Y013554D01*X032939Y013570D01*X032959Y013585D01*X032980Y013597D01*
X033003Y013607D01*X033026Y013615D01*X033051Y013621D01*X033075Y013624D01*
X033100Y013625D01*X034650Y018150D02*X034650Y016350D01*X033850Y016350D01*
X033850Y018150D02*X034650Y018150D01*X033850Y016350D02*X033850Y018150D01*
X032000Y017150D02*X032001Y017175D01*X032004Y017199D01*X032010Y017224D01*
X032018Y017247D01*X032028Y017270D01*X032040Y017291D01*X032055Y017311D01*
X032071Y017330D01*X032090Y017347D01*X032110Y017362D01*X032131Y017375D01*
X032153Y017386D01*X032177Y017394D01*X032201Y017400D01*X032225Y017404D01*
X032250Y017405D01*X032275Y017404D01*X032299Y017400D01*X032323Y017394D01*
X032347Y017386D01*X032369Y017375D01*X032390Y017362D01*X032410Y017347D01*
X032429Y017330D01*X032445Y017311D01*X032460Y017291D01*X032472Y017270D01*
X032482Y017247D01*X032490Y017224D01*X032496Y017199D01*X032499Y017175D01*
X032500Y017150D01*X033650Y018350D02*X033650Y017150D01*X033650Y018350D02*
X032500Y018350D01*X032000Y018350D02*X030850Y018350D01*X030850Y018350D02*
X030850Y017150D01*X033650Y017150D02*X032500Y017150D01*X032000Y017150D02*
X030850Y017150D01*X032500Y018350D02*X032499Y018325D01*X032496Y018301D01*
X032490Y018276D01*X032482Y018253D01*X032472Y018230D01*X032460Y018209D01*
X032445Y018189D01*X032429Y018170D01*X032410Y018153D01*X032390Y018138D01*
X032369Y018125D01*X032347Y018114D01*X032323Y018106D01*X032299Y018100D01*
X032275Y018096D01*X032250Y018095D01*X032225Y018096D01*X032201Y018100D01*
X032177Y018106D01*X032153Y018114D01*X032131Y018125D01*X032110Y018138D01*
X032090Y018153D01*X032071Y018170D01*X032055Y018189D01*X032040Y018209D01*
X032028Y018230D01*X032018Y018253D01*X032010Y018276D01*X032004Y018301D01*
X032001Y018325D01*X032000Y018350D01*X036000Y017150D02*X036001Y017175D01*
X036004Y017199D01*X036010Y017224D01*X036018Y017247D01*X036028Y017270D01*
X036040Y017291D01*X036055Y017311D01*X036071Y017330D01*X036090Y017347D01*
X036110Y017362D01*X036131Y017375D01*X036153Y017386D01*X036177Y017394D01*
X036201Y017400D01*X036225Y017404D01*X036250Y017405D01*X036275Y017404D01*
X036299Y017400D01*X036323Y017394D01*X036347Y017386D01*X036369Y017375D01*
X036390Y017362D01*X036410Y017347D01*X036429Y017330D01*X036445Y017311D01*
X036460Y017291D01*X036472Y017270D01*X036482Y017247D01*X036490Y017224D01*
X036496Y017199D01*X036499Y017175D01*X036500Y017150D01*X037650Y018350D02*
X037650Y017150D01*X037650Y018350D02*X036500Y018350D01*X036000Y018350D02*
X034850Y018350D01*X034850Y018350D02*X034850Y017150D01*X037650Y017150D02*
X036500Y017150D01*X036000Y017150D02*X034850Y017150D01*X036500Y018350D02*
X036499Y018325D01*X036496Y018301D01*X036490Y018276D01*X036482Y018253D01*
X036472Y018230D01*X036460Y018209D01*X036445Y018189D01*X036429Y018170D01*
X036410Y018153D01*X036390Y018138D01*X036369Y018125D01*X036347Y018114D01*
X036323Y018106D01*X036299Y018100D01*X036275Y018096D01*X036250Y018095D01*
X036225Y018096D01*X036201Y018100D01*X036177Y018106D01*X036153Y018114D01*
X036131Y018125D01*X036110Y018138D01*X036090Y018153D01*X036071Y018170D01*
X036055Y018189D01*X036040Y018209D01*X036028Y018230D01*X036018Y018253D01*
X036010Y018276D01*X036004Y018301D01*X036001Y018325D01*X036000Y018350D01*
X042150Y020900D02*X042150Y019100D01*X041350Y019100D01*X041350Y020900D02*
X042150Y020900D01*X041350Y019100D02*X041350Y020900D01*X041100Y017500D02*
X041075Y017501D01*X041051Y017504D01*X041026Y017510D01*X041003Y017518D01*
X040980Y017528D01*X040959Y017540D01*X040939Y017555D01*X040920Y017571D01*
X040903Y017590D01*X040888Y017610D01*X040875Y017631D01*X040864Y017653D01*
X040856Y017677D01*X040850Y017701D01*X040846Y017725D01*X040845Y017750D01*
X040846Y017775D01*X040850Y017799D01*X040856Y017823D01*X040864Y017847D01*
X040875Y017869D01*X040888Y017890D01*X040903Y017910D01*X040920Y017929D01*
X040939Y017945D01*X040959Y017960D01*X040980Y017972D01*X041003Y017982D01*
X041026Y017990D01*X041051Y017996D01*X041075Y017999D01*X041100Y018000D01*
X039900Y019150D02*X041100Y019150D01*X039900Y019150D02*X039900Y018000D01*
X039900Y017500D02*X039900Y016350D01*X039900Y016350D02*X041100Y016350D01*
X041100Y019150D02*X041100Y018000D01*X041100Y017500D02*X041100Y016350D01*
X039900Y018000D02*X039925Y017999D01*X039949Y017996D01*X039974Y017990D01*
X039997Y017982D01*X040020Y017972D01*X040041Y017960D01*X040061Y017945D01*
X040080Y017929D01*X040097Y017910D01*X040112Y017890D01*X040125Y017869D01*
X040136Y017847D01*X040144Y017823D01*X040150Y017799D01*X040154Y017775D01*
X040155Y017750D01*X040154Y017725D01*X040150Y017701D01*X040144Y017677D01*
X040136Y017653D01*X040125Y017631D01*X040112Y017610D01*X040097Y017590D01*
X040080Y017571D01*X040061Y017555D01*X040041Y017540D01*X040020Y017528D01*
X039997Y017518D01*X039974Y017510D01*X039949Y017504D01*X039925Y017501D01*
X039900Y017500D01*X045000Y019100D02*X044999Y019075D01*X044996Y019051D01*
X044990Y019026D01*X044982Y019003D01*X044972Y018980D01*X044960Y018959D01*
X044945Y018939D01*X044929Y018920D01*X044910Y018903D01*X044890Y018888D01*
X044869Y018875D01*X044847Y018864D01*X044823Y018856D01*X044799Y018850D01*
X044775Y018846D01*X044750Y018845D01*X044725Y018846D01*X044701Y018850D01*
X044677Y018856D01*X044653Y018864D01*X044631Y018875D01*X044610Y018888D01*
X044590Y018903D01*X044571Y018920D01*X044555Y018939D01*X044540Y018959D01*
X044528Y018980D01*X044518Y019003D01*X044510Y019026D01*X044504Y019051D01*
X044501Y019075D01*X044500Y019100D01*X043350Y017900D02*X043350Y019100D01*
X043350Y017900D02*X044500Y017900D01*X045000Y017900D02*X046150Y017900D01*
X046150Y017900D02*X046150Y019100D01*X043350Y019100D02*X044500Y019100D01*
X045000Y019100D02*X046150Y019100D01*X044500Y017900D02*X044501Y017925D01*
X044504Y017949D01*X044510Y017974D01*X044518Y017997D01*X044528Y018020D01*
X044540Y018041D01*X044555Y018061D01*X044571Y018080D01*X044590Y018097D01*
X044610Y018112D01*X044631Y018125D01*X044653Y018136D01*X044677Y018144D01*
X044701Y018150D01*X044725Y018154D01*X044750Y018155D01*X044775Y018154D01*
X044799Y018150D01*X044823Y018144D01*X044847Y018136D01*X044869Y018125D01*
X044890Y018112D01*X044910Y018097D01*X044929Y018080D01*X044945Y018061D01*
X044960Y018041D01*X044972Y018020D01*X044982Y017997D01*X044990Y017974D01*
X044996Y017949D01*X044999Y017925D01*X045000Y017900D01*X043150Y018100D02*
X041350Y018100D01*X041350Y018900D01*X043150Y018900D02*X043150Y018100D01*
X041350Y018900D02*X043150Y018900D01*X032000Y018650D02*X032001Y018675D01*
X032004Y018699D01*X032010Y018724D01*X032018Y018747D01*X032028Y018770D01*
X032040Y018791D01*X032055Y018811D01*X032071Y018830D01*X032090Y018847D01*
X032110Y018862D01*X032131Y018875D01*X032153Y018886D01*X032177Y018894D01*
X032201Y018900D01*X032225Y018904D01*X032250Y018905D01*X032275Y018904D01*
X032299Y018900D01*X032323Y018894D01*X032347Y018886D01*X032369Y018875D01*
X032390Y018862D01*X032410Y018847D01*X032429Y018830D01*X032445Y018811D01*
X032460Y018791D01*X032472Y018770D01*X032482Y018747D01*X032490Y018724D01*
X032496Y018699D01*X032499Y018675D01*X032500Y018650D01*X033650Y019850D02*
X033650Y018650D01*X033650Y019850D02*X032500Y019850D01*X032000Y019850D02*
X030850Y019850D01*X030850Y019850D02*X030850Y018650D01*X033650Y018650D02*
X032500Y018650D01*X032000Y018650D02*X030850Y018650D01*X032500Y019850D02*
X032499Y019825D01*X032496Y019801D01*X032490Y019776D01*X032482Y019753D01*
X032472Y019730D01*X032460Y019709D01*X032445Y019689D01*X032429Y019670D01*
X032410Y019653D01*X032390Y019638D01*X032369Y019625D01*X032347Y019614D01*
X032323Y019606D01*X032299Y019600D01*X032275Y019596D01*X032250Y019595D01*
X032225Y019596D01*X032201Y019600D01*X032177Y019606D01*X032153Y019614D01*
X032131Y019625D01*X032110Y019638D01*X032090Y019653D01*X032071Y019670D01*
X032055Y019689D01*X032040Y019709D01*X032028Y019730D01*X032018Y019753D01*
X032010Y019776D01*X032004Y019801D01*X032001Y019825D01*X032000Y019850D01*
X033900Y020250D02*X033925Y020249D01*X033949Y020246D01*X033974Y020240D01*
X033997Y020232D01*X034020Y020222D01*X034041Y020210D01*X034061Y020195D01*
X034080Y020179D01*X034097Y020160D01*X034112Y020140D01*X034125Y020119D01*
X034136Y020097D01*X034144Y020073D01*X034150Y020049D01*X034154Y020025D01*
X034155Y020000D01*X034154Y019975D01*X034150Y019951D01*X034144Y019927D01*
X034136Y019903D01*X034125Y019881D01*X034112Y019860D01*X034097Y019840D01*
X034080Y019821D01*X034061Y019805D01*X034041Y019790D01*X034020Y019778D01*
X033997Y019768D01*X033974Y019760D01*X033949Y019754D01*X033925Y019751D01*
X033900Y019750D01*X035100Y018600D02*X033900Y018600D01*X035100Y018600D02*
X035100Y019750D01*X035100Y020250D02*X035100Y021400D01*X035100Y021400D02*
X033900Y021400D01*X033900Y018600D02*X033900Y019750D01*X033900Y020250D02*
X033900Y021400D01*X035100Y019750D02*X035075Y019751D01*X035051Y019754D01*
X035026Y019760D01*X035003Y019768D01*X034980Y019778D01*X034959Y019790D01*
X034939Y019805D01*X034920Y019821D01*X034903Y019840D01*X034888Y019860D01*
X034875Y019881D01*X034864Y019903D01*X034856Y019927D01*X034850Y019951D01*
X034846Y019975D01*X034845Y020000D01*X034846Y020025D01*X034850Y020049D01*
X034856Y020073D01*X034864Y020097D01*X034875Y020119D01*X034888Y020140D01*
X034903Y020160D01*X034920Y020179D01*X034939Y020195D01*X034959Y020210D01*
X034980Y020222D01*X035003Y020232D01*X035026Y020240D01*X035051Y020246D01*
X035075Y020249D01*X035100Y020250D01*X037400Y018850D02*X035600Y018850D01*
X035600Y019650D01*X037400Y019650D02*X037400Y018850D01*X035600Y019650D02*
X037400Y019650D01*X039650Y018100D02*X037850Y018100D01*X037850Y018900D01*
X039650Y018900D02*X039650Y018100D01*X037850Y018900D02*X039650Y018900D01*
X014650Y024875D02*X014675Y024874D01*X014699Y024871D01*X014724Y024865D01*
X014747Y024857D01*X014770Y024847D01*X014791Y024835D01*X014811Y024820D01*
X014830Y024804D01*X014847Y024785D01*X014862Y024765D01*X014875Y024744D01*
X014886Y024722D01*X014894Y024698D01*X014900Y024674D01*X014904Y024650D01*
X014905Y024625D01*X014904Y024600D01*X014900Y024576D01*X014894Y024552D01*
X014886Y024528D01*X014875Y024506D01*X014862Y024485D01*X014847Y024465D01*
X014830Y024446D01*X014811Y024430D01*X014791Y024415D01*X014770Y024403D01*
X014747Y024393D01*X014724Y024385D01*X014699Y024379D01*X014675Y024376D01*
X014650Y024375D01*X015850Y023225D02*X014650Y023225D01*X015850Y023225D02*
X015850Y024375D01*X015850Y024875D02*X015850Y026025D01*X015850Y026025D02*
X014650Y026025D01*X014650Y023225D02*X014650Y024375D01*X014650Y024875D02*
X014650Y026025D01*X015850Y024375D02*X015825Y024376D01*X015801Y024379D01*
X015776Y024385D01*X015753Y024393D01*X015730Y024403D01*X015709Y024415D01*
X015689Y024430D01*X015670Y024446D01*X015653Y024465D01*X015638Y024485D01*
X015625Y024506D01*X015614Y024528D01*X015606Y024552D01*X015600Y024576D01*
X015596Y024600D01*X015595Y024625D01*X015596Y024650D01*X015600Y024674D01*
X015606Y024698D01*X015614Y024722D01*X015625Y024744D01*X015638Y024765D01*
X015653Y024785D01*X015670Y024804D01*X015689Y024820D01*X015709Y024835D01*
X015730Y024847D01*X015753Y024857D01*X015776Y024865D01*X015801Y024871D01*
X015825Y024874D01*X015850Y024875D01*X026500Y024600D02*X026499Y024575D01*
X026496Y024551D01*X026490Y024526D01*X026482Y024503D01*X026472Y024480D01*
X026460Y024459D01*X026445Y024439D01*X026429Y024420D01*X026410Y024403D01*
X026390Y024388D01*X026369Y024375D01*X026347Y024364D01*X026323Y024356D01*
X026299Y024350D01*X026275Y024346D01*X026250Y024345D01*X026225Y024346D01*
X026201Y024350D01*X026177Y024356D01*X026153Y024364D01*X026131Y024375D01*
X026110Y024388D01*X026090Y024403D01*X026071Y024420D01*X026055Y024439D01*
X026040Y024459D01*X026028Y024480D01*X026018Y024503D01*X026010Y024526D01*
X026004Y024551D01*X026001Y024575D01*X026000Y024600D01*X024850Y023400D02*
X024850Y024600D01*X024850Y023400D02*X026000Y023400D01*X026500Y023400D02*
X027650Y023400D01*X027650Y023400D02*X027650Y024600D01*X024850Y024600D02*
X026000Y024600D01*X026500Y024600D02*X027650Y024600D01*X026000Y023400D02*
X026001Y023425D01*X026004Y023449D01*X026010Y023474D01*X026018Y023497D01*
X026028Y023520D01*X026040Y023541D01*X026055Y023561D01*X026071Y023580D01*
X026090Y023597D01*X026110Y023612D01*X026131Y023625D01*X026153Y023636D01*
X026177Y023644D01*X026201Y023650D01*X026225Y023654D01*X026250Y023655D01*
X026275Y023654D01*X026299Y023650D01*X026323Y023644D01*X026347Y023636D01*
X026369Y023625D01*X026390Y023612D01*X026410Y023597D01*X026429Y023580D01*
X026445Y023561D01*X026460Y023541D01*X026472Y023520D01*X026482Y023497D01*
X026490Y023474D01*X026496Y023449D01*X026499Y023425D01*X026500Y023400D01*
X029000Y023400D02*X029001Y023425D01*X029004Y023449D01*X029010Y023474D01*
X029018Y023497D01*X029028Y023520D01*X029040Y023541D01*X029055Y023561D01*
X029071Y023580D01*X029090Y023597D01*X029110Y023612D01*X029131Y023625D01*
X029153Y023636D01*X029177Y023644D01*X029201Y023650D01*X029225Y023654D01*
X029250Y023655D01*X029275Y023654D01*X029299Y023650D01*X029323Y023644D01*
X029347Y023636D01*X029369Y023625D01*X029390Y023612D01*X029410Y023597D01*
X029429Y023580D01*X029445Y023561D01*X029460Y023541D01*X029472Y023520D01*
X029482Y023497D01*X029490Y023474D01*X029496Y023449D01*X029499Y023425D01*
X029500Y023400D01*X030650Y024600D02*X030650Y023400D01*X030650Y024600D02*
X029500Y024600D01*X029000Y024600D02*X027850Y024600D01*X027850Y024600D02*
X027850Y023400D01*X030650Y023400D02*X029500Y023400D01*X029000Y023400D02*
X027850Y023400D01*X029500Y024600D02*X029499Y024575D01*X029496Y024551D01*
X029490Y024526D01*X029482Y024503D01*X029472Y024480D01*X029460Y024459D01*
X029445Y024439D01*X029429Y024420D01*X029410Y024403D01*X029390Y024388D01*
X029369Y024375D01*X029347Y024364D01*X029323Y024356D01*X029299Y024350D01*
X029275Y024346D01*X029250Y024345D01*X029225Y024346D01*X029201Y024350D01*
X029177Y024356D01*X029153Y024364D01*X029131Y024375D01*X029110Y024388D01*
X029090Y024403D01*X029071Y024420D01*X029055Y024439D01*X029040Y024459D01*
X029028Y024480D01*X029018Y024503D01*X029010Y024526D01*X029004Y024551D01*
X029001Y024575D01*X029000Y024600D01*X026250Y030100D02*X026249Y030075D01*
X026246Y030051D01*X026240Y030026D01*X026232Y030003D01*X026222Y029980D01*
X026210Y029959D01*X026195Y029939D01*X026179Y029920D01*X026160Y029903D01*
X026140Y029888D01*X026119Y029875D01*X026097Y029864D01*X026073Y029856D01*
X026049Y029850D01*X026025Y029846D01*X026000Y029845D01*X025975Y029846D01*
X025951Y029850D01*X025927Y029856D01*X025903Y029864D01*X025881Y029875D01*
X025860Y029888D01*X025840Y029903D01*X025821Y029920D01*X025805Y029939D01*
X025790Y029959D01*X025778Y029980D01*X025768Y030003D01*X025760Y030026D01*
X025754Y030051D01*X025751Y030075D01*X025750Y030100D01*X024600Y028900D02*
X024600Y030100D01*X024600Y028900D02*X025750Y028900D01*X026250Y028900D02*
X027400Y028900D01*X027400Y028900D02*X027400Y030100D01*X024600Y030100D02*
X025750Y030100D01*X026250Y030100D02*X027400Y030100D01*X025750Y028900D02*
X025751Y028925D01*X025754Y028949D01*X025760Y028974D01*X025768Y028997D01*
X025778Y029020D01*X025790Y029041D01*X025805Y029061D01*X025821Y029080D01*
X025840Y029097D01*X025860Y029112D01*X025881Y029125D01*X025903Y029136D01*
X025927Y029144D01*X025951Y029150D01*X025975Y029154D01*X026000Y029155D01*
X026025Y029154D01*X026049Y029150D01*X026073Y029144D01*X026097Y029136D01*
X026119Y029125D01*X026140Y029112D01*X026160Y029097D01*X026179Y029080D01*
X026195Y029061D01*X026210Y029041D01*X026222Y029020D01*X026232Y028997D01*
X026240Y028974D01*X026246Y028949D01*X026249Y028925D01*X026250Y028900D01*D02*
G54D14*X048475Y008000D02*X048475Y007600D01*D02*G54D15*X019750Y042500D02*
X002250Y042500D01*X002250Y039000D01*X019750Y039000D01*X019750Y040750D02*
X054750Y040750D01*X026232Y040214D02*X026314Y039578D01*X026254Y040214D02*
X026314Y039727D01*X026314Y039578D01*X026273Y040214D02*X026336Y039727D01*
X026400Y040214D02*X026336Y039727D01*X026314Y039578D01*X026400Y040214D02*
X026482Y039578D01*X026418Y040214D02*X026482Y039727D01*X026482Y039578D01*
X026441Y040214D02*X026500Y039727D01*X026564Y040193D02*X026500Y039727D01*
X026482Y039578D01*X026173Y040214D02*X026336Y040214D01*X026400Y040214D02*
X026441Y040214D01*X026500Y040214D02*X026628Y040214D01*X026191Y040214D02*
X026254Y040193D01*X026213Y040214D02*X026254Y040161D01*X026295Y040214D02*
X026273Y040161D01*X026314Y040214D02*X026273Y040193D01*X026523Y040214D02*
X026564Y040193D01*X026605Y040214D02*X026564Y040193D01*X026950Y040214D02*
X026950Y039578D01*X026977Y040193D02*X026977Y039610D01*X027004Y040214D02*
X027004Y039578D01*X026873Y040214D02*X027191Y040214D01*X027273Y040193D01*
X027296Y040161D01*X027327Y040098D01*X027327Y040034D01*X027296Y039981D01*
X027273Y039949D01*X027191Y039917D01*X027273Y040161D02*X027296Y040098D01*
X027296Y040034D01*X027273Y039981D01*X027191Y040214D02*X027246Y040193D01*
X027273Y040130D01*X027273Y040002D01*X027246Y039949D01*X027191Y039917D01*
X027004Y039917D02*X027191Y039917D01*X027273Y039886D01*X027296Y039854D01*
X027327Y039790D01*X027327Y039705D01*X027296Y039642D01*X027273Y039610D01*
X027191Y039578D01*X026873Y039578D01*X027273Y039854D02*X027296Y039790D01*
X027296Y039705D01*X027273Y039642D01*X027191Y039917D02*X027246Y039886D01*
X027273Y039822D01*X027273Y039673D01*X027246Y039610D01*X027191Y039578D01*
X026895Y040214D02*X026950Y040193D01*X026923Y040214D02*X026950Y040161D01*
X027032Y040214D02*X027004Y040161D01*X027059Y040214D02*X027004Y040193D01*
X026950Y039610D02*X026895Y039578D01*X026950Y039642D02*X026923Y039578D01*
X027004Y039642D02*X027032Y039578D01*X027004Y039610D02*X027059Y039578D01*
X023432Y041964D02*X023432Y041360D01*X023432Y041964D02*X023577Y041328D01*
X023454Y041964D02*X023577Y041423D01*X023473Y041964D02*X023596Y041423D01*
X023723Y041964D02*X023577Y041328D01*X023723Y041964D02*X023723Y041328D01*
X023741Y041943D02*X023741Y041360D01*X023764Y041964D02*X023764Y041328D01*
X023373Y041964D02*X023473Y041964D01*X023723Y041964D02*X023828Y041964D01*
X023373Y041328D02*X023495Y041328D01*X023659Y041328D02*X023828Y041328D01*
X023391Y041964D02*X023432Y041943D01*X023782Y041964D02*X023764Y041911D01*
X023805Y041964D02*X023764Y041943D01*X023432Y041360D02*X023391Y041328D01*
X023432Y041360D02*X023473Y041328D01*X023723Y041360D02*X023682Y041328D01*
X023723Y041392D02*X023700Y041328D01*X023764Y041392D02*X023782Y041328D01*
X023764Y041360D02*X023805Y041328D01*X024268Y041964D02*X024186Y041943D01*
X024127Y041880D01*X024100Y041816D01*X024073Y041699D01*X024073Y041604D01*
X024100Y041477D01*X024127Y041423D01*X024186Y041360D01*X024268Y041328D01*
X024327Y041328D01*X024414Y041360D01*X024468Y041423D01*X024496Y041477D01*
X024528Y041604D01*X024528Y041699D01*X024496Y041816D01*X024468Y041880D01*
X024414Y041943D01*X024327Y041964D01*X024268Y041964D01*X024154Y041880D02*
X024127Y041816D01*X024100Y041731D01*X024100Y041572D01*X024127Y041477D01*
X024154Y041423D01*X024441Y041423D02*X024468Y041477D01*X024496Y041572D01*
X024496Y041731D01*X024468Y041816D01*X024441Y041880D01*X024268Y041964D02*
X024214Y041943D01*X024154Y041848D01*X024127Y041731D01*X024127Y041572D01*
X024154Y041455D01*X024214Y041360D01*X024268Y041328D01*X024327Y041328D02*
X024382Y041360D01*X024441Y041455D01*X024468Y041572D01*X024468Y041731D01*
X024441Y041848D01*X024382Y041943D01*X024327Y041964D01*X024850Y041964D02*
X024850Y041328D01*X024877Y041943D02*X024877Y041360D01*X024904Y041964D02*
X024904Y041328D01*X024773Y041964D02*X025036Y041964D01*X025118Y041943D01*
X025173Y041880D01*X025200Y041816D01*X025228Y041731D01*X025228Y041572D01*
X025200Y041477D01*X025173Y041423D01*X025118Y041360D01*X025036Y041328D01*
X024773Y041328D01*X025146Y041880D02*X025173Y041816D01*X025200Y041731D01*
X025200Y041572D01*X025173Y041477D01*X025146Y041423D01*X025036Y041964D02*
X025091Y041943D01*X025146Y041848D01*X025173Y041731D01*X025173Y041572D01*
X025146Y041455D01*X025091Y041360D01*X025036Y041328D01*X024795Y041964D02*
X024850Y041943D01*X024823Y041964D02*X024850Y041911D01*X024932Y041964D02*
X024904Y041911D01*X024959Y041964D02*X024904Y041943D01*X024850Y041360D02*
X024795Y041328D01*X024850Y041392D02*X024823Y041328D01*X024904Y041392D02*
X024932Y041328D01*X024904Y041360D02*X024959Y041328D01*X025554Y041964D02*
X025554Y041328D01*X025582Y041943D02*X025582Y041360D01*X025614Y041964D02*
X025614Y041328D01*X025473Y041964D02*X025928Y041964D01*X025928Y041784D01*
X025614Y041667D02*X025782Y041667D01*X025782Y041784D02*X025782Y041540D01*
X025473Y041328D02*X025928Y041328D01*X025928Y041508D01*X025500Y041964D02*
X025554Y041943D01*X025527Y041964D02*X025554Y041911D01*X025641Y041964D02*
X025614Y041911D01*X025668Y041964D02*X025614Y041943D01*X025782Y041964D02*
X025928Y041943D01*X025841Y041964D02*X025928Y041911D01*X025868Y041964D02*
X025928Y041880D01*X025896Y041964D02*X025928Y041784D01*X025782Y041784D02*
X025755Y041667D01*X025782Y041540D01*X025782Y041731D02*X025727Y041667D01*
X025782Y041604D01*X025782Y041699D02*X025668Y041667D01*X025782Y041636D01*
X025554Y041360D02*X025500Y041328D01*X025554Y041392D02*X025527Y041328D01*
X025614Y041392D02*X025641Y041328D01*X025614Y041360D02*X025668Y041328D01*
X025782Y041328D02*X025928Y041360D01*X025841Y041328D02*X025928Y041392D01*
X025868Y041328D02*X025928Y041423D01*X025896Y041328D02*X025928Y041508D01*
X026264Y041964D02*X026264Y041328D01*X026291Y041943D02*X026291Y041360D01*
X026323Y041964D02*X026323Y041328D01*X026173Y041964D02*X026414Y041964D01*
X026173Y041328D02*X026628Y041328D01*X026628Y041508D01*X026200Y041964D02*
X026264Y041943D01*X026232Y041964D02*X026264Y041911D01*X026355Y041964D02*
X026323Y041911D01*X026382Y041964D02*X026323Y041943D01*X026264Y041360D02*
X026200Y041328D01*X026264Y041392D02*X026232Y041328D01*X026323Y041392D02*
X026355Y041328D01*X026323Y041360D02*X026382Y041328D01*X026473Y041328D02*
X026628Y041360D01*X026532Y041328D02*X026628Y041392D01*X026564Y041328D02*
X026628Y041423D01*X026596Y041328D02*X026628Y041508D01*X027636Y041964D02*
X027636Y041360D01*X027636Y041964D02*X027955Y041328D01*X027663Y041964D02*
X027932Y041423D01*X027682Y041964D02*X027955Y041423D01*X027955Y041943D02*
X027955Y041328D01*X027572Y041964D02*X027682Y041964D01*X027891Y041964D02*
X028027Y041964D01*X027572Y041328D02*X027704Y041328D01*X027591Y041964D02*
X027636Y041943D01*X027914Y041964D02*X027955Y041943D01*X028005Y041964D02*
X027955Y041943D01*X027636Y041360D02*X027591Y041328D01*X027636Y041360D02*
X027682Y041328D01*X028500Y041964D02*X028323Y041360D01*X028473Y041880D02*
X028623Y041328D01*X028500Y041880D02*X028650Y041328D01*X028500Y041964D02*
X028673Y041328D01*X028373Y041508D02*X028600Y041508D01*X028272Y041328D02*
X028423Y041328D01*X028550Y041328D02*X028727Y041328D01*X028323Y041360D02*
X028295Y041328D01*X028323Y041360D02*X028373Y041328D01*X028623Y041360D02*
X028573Y041328D01*X028623Y041392D02*X028600Y041328D01*X028650Y041392D02*
X028700Y041328D01*X029032Y041964D02*X029032Y041360D01*X029032Y041964D02*
X029177Y041328D01*X029054Y041964D02*X029177Y041423D01*X029073Y041964D02*
X029195Y041423D01*X029323Y041964D02*X029177Y041328D01*X029323Y041964D02*
X029323Y041328D01*X029341Y041943D02*X029341Y041360D01*X029364Y041964D02*
X029364Y041328D01*X028972Y041964D02*X029073Y041964D01*X029323Y041964D02*
X029427Y041964D01*X028972Y041328D02*X029095Y041328D01*X029259Y041328D02*
X029427Y041328D01*X028991Y041964D02*X029032Y041943D01*X029382Y041964D02*
X029364Y041911D01*X029405Y041964D02*X029364Y041943D01*X029032Y041360D02*
X028991Y041328D01*X029032Y041360D02*X029073Y041328D01*X029323Y041360D02*
X029282Y041328D01*X029323Y041392D02*X029300Y041328D01*X029364Y041392D02*
X029382Y041328D01*X029364Y041360D02*X029405Y041328D01*X029754Y041964D02*
X029754Y041328D01*X029782Y041943D02*X029782Y041360D01*X029814Y041964D02*
X029814Y041328D01*X029672Y041964D02*X030127Y041964D01*X030127Y041784D01*
X029814Y041667D02*X029982Y041667D01*X029982Y041784D02*X029982Y041540D01*
X029672Y041328D02*X030127Y041328D01*X030127Y041508D01*X029700Y041964D02*
X029754Y041943D01*X029727Y041964D02*X029754Y041911D01*X029841Y041964D02*
X029814Y041911D01*X029868Y041964D02*X029814Y041943D01*X029982Y041964D02*
X030127Y041943D01*X030041Y041964D02*X030127Y041911D01*X030068Y041964D02*
X030127Y041880D01*X030096Y041964D02*X030127Y041784D01*X029982Y041784D02*
X029955Y041667D01*X029982Y041540D01*X029982Y041731D02*X029927Y041667D01*
X029982Y041604D01*X029982Y041699D02*X029868Y041667D01*X029982Y041636D01*
X029754Y041360D02*X029700Y041328D01*X029754Y041392D02*X029727Y041328D01*
X029814Y041392D02*X029841Y041328D01*X029814Y041360D02*X029868Y041328D01*
X029982Y041328D02*X030127Y041360D01*X030041Y041328D02*X030127Y041392D01*
X030068Y041328D02*X030127Y041423D01*X030096Y041328D02*X030127Y041508D01*
X035714Y041964D02*X035714Y041328D01*X035741Y041943D02*X035741Y041360D01*
X035773Y041964D02*X035773Y041328D01*X035623Y041964D02*X035864Y041964D01*
X035623Y041328D02*X036078Y041328D01*X036078Y041508D01*X035650Y041964D02*
X035714Y041943D01*X035682Y041964D02*X035714Y041911D01*X035805Y041964D02*
X035773Y041911D01*X035832Y041964D02*X035773Y041943D01*X035714Y041360D02*
X035650Y041328D01*X035714Y041392D02*X035682Y041328D01*X035773Y041392D02*
X035805Y041328D01*X035773Y041360D02*X035832Y041328D01*X035923Y041328D02*
X036078Y041360D01*X035982Y041328D02*X036078Y041392D01*X036014Y041328D02*
X036078Y041423D01*X036046Y041328D02*X036078Y041508D01*X036550Y041964D02*
X036373Y041360D01*X036523Y041880D02*X036673Y041328D01*X036550Y041880D02*
X036700Y041328D01*X036550Y041964D02*X036723Y041328D01*X036423Y041508D02*
X036650Y041508D01*X036323Y041328D02*X036473Y041328D01*X036600Y041328D02*
X036778Y041328D01*X036373Y041360D02*X036345Y041328D01*X036373Y041360D02*
X036423Y041328D01*X036673Y041360D02*X036623Y041328D01*X036673Y041392D02*
X036650Y041328D01*X036700Y041392D02*X036750Y041328D01*X037068Y041964D02*
X037223Y041636D01*X037223Y041328D01*X037091Y041964D02*X037245Y041636D01*
X037245Y041360D01*X037109Y041964D02*X037273Y041636D01*X037273Y041328D01*
X037405Y041943D02*X037273Y041636D01*X037023Y041964D02*X037182Y041964D01*
X037336Y041964D02*X037478Y041964D01*X037159Y041328D02*X037336Y041328D01*
X037045Y041964D02*X037091Y041943D01*X037159Y041964D02*X037109Y041943D01*
X037364Y041964D02*X037405Y041943D01*X037450Y041964D02*X037405Y041943D01*
X037223Y041360D02*X037182Y041328D01*X037223Y041392D02*X037200Y041328D01*
X037273Y041392D02*X037291Y041328D01*X037273Y041360D02*X037314Y041328D01*
X037804Y041964D02*X037804Y041328D01*X037832Y041943D02*X037832Y041360D01*
X037864Y041964D02*X037864Y041328D01*X037723Y041964D02*X038178Y041964D01*
X038178Y041784D01*X037864Y041667D02*X038032Y041667D01*X038032Y041784D02*
X038032Y041540D01*X037723Y041328D02*X038178Y041328D01*X038178Y041508D01*
X037750Y041964D02*X037804Y041943D01*X037777Y041964D02*X037804Y041911D01*
X037891Y041964D02*X037864Y041911D01*X037918Y041964D02*X037864Y041943D01*
X038032Y041964D02*X038178Y041943D01*X038091Y041964D02*X038178Y041911D01*
X038118Y041964D02*X038178Y041880D01*X038146Y041964D02*X038178Y041784D01*
X038032Y041784D02*X038005Y041667D01*X038032Y041540D01*X038032Y041731D02*
X037977Y041667D01*X038032Y041604D01*X038032Y041699D02*X037918Y041667D01*
X038032Y041636D01*X037804Y041360D02*X037750Y041328D01*X037804Y041392D02*
X037777Y041328D01*X037864Y041392D02*X037891Y041328D01*X037864Y041360D02*
X037918Y041328D01*X038032Y041328D02*X038178Y041360D01*X038091Y041328D02*
X038178Y041392D01*X038118Y041328D02*X038178Y041423D01*X038146Y041328D02*
X038178Y041508D01*X038495Y041964D02*X038495Y041328D01*X038523Y041943D02*
X038523Y041360D01*X038545Y041964D02*X038545Y041328D01*X038423Y041964D02*
X038723Y041964D01*X038800Y041943D01*X038823Y041911D01*X038850Y041848D01*
X038850Y041784D01*X038823Y041731D01*X038800Y041699D01*X038723Y041667D01*
X038545Y041667D01*X038800Y041911D02*X038823Y041848D01*X038823Y041784D01*
X038800Y041731D01*X038723Y041964D02*X038773Y041943D01*X038800Y041880D01*
X038800Y041752D01*X038773Y041699D01*X038723Y041667D01*X038645Y041667D02*
X038700Y041636D01*X038723Y041572D01*X038773Y041392D01*X038800Y041328D01*
X038850Y041328D01*X038878Y041392D01*X038878Y041455D01*X038773Y041455D02*
X038800Y041392D01*X038823Y041360D01*X038850Y041360D01*X038700Y041636D02*
X038723Y041604D01*X038800Y041423D01*X038823Y041392D01*X038850Y041392D01*
X038878Y041423D01*X038423Y041328D02*X038623Y041328D01*X038445Y041964D02*
X038495Y041943D01*X038473Y041964D02*X038495Y041911D01*X038573Y041964D02*
X038545Y041911D01*X038595Y041964D02*X038545Y041943D01*X038495Y041360D02*
X038445Y041328D01*X038495Y041392D02*X038473Y041328D01*X038545Y041392D02*
X038573Y041328D01*X038545Y041360D02*X038595Y041328D01*X039886Y041964D02*
X039886Y041360D01*X039886Y041964D02*X040205Y041328D01*X039913Y041964D02*
X040182Y041423D01*X039932Y041964D02*X040205Y041423D01*X040205Y041943D02*
X040205Y041328D01*X039822Y041964D02*X039932Y041964D01*X040141Y041964D02*
X040277Y041964D01*X039822Y041328D02*X039954Y041328D01*X039841Y041964D02*
X039886Y041943D01*X040164Y041964D02*X040205Y041943D01*X040255Y041964D02*
X040205Y041943D01*X039886Y041360D02*X039841Y041328D01*X039886Y041360D02*
X039932Y041328D01*X040750Y041964D02*X040573Y041360D01*X040723Y041880D02*
X040873Y041328D01*X040750Y041880D02*X040900Y041328D01*X040750Y041964D02*
X040923Y041328D01*X040623Y041508D02*X040850Y041508D01*X040522Y041328D02*
X040673Y041328D01*X040800Y041328D02*X040977Y041328D01*X040573Y041360D02*
X040545Y041328D01*X040573Y041360D02*X040623Y041328D01*X040873Y041360D02*
X040823Y041328D01*X040873Y041392D02*X040850Y041328D01*X040900Y041392D02*
X040950Y041328D01*X041282Y041964D02*X041282Y041360D01*X041282Y041964D02*
X041427Y041328D01*X041304Y041964D02*X041427Y041423D01*X041323Y041964D02*
X041445Y041423D01*X041573Y041964D02*X041427Y041328D01*X041573Y041964D02*
X041573Y041328D01*X041591Y041943D02*X041591Y041360D01*X041614Y041964D02*
X041614Y041328D01*X041222Y041964D02*X041323Y041964D01*X041573Y041964D02*
X041677Y041964D01*X041222Y041328D02*X041345Y041328D01*X041509Y041328D02*
X041677Y041328D01*X041241Y041964D02*X041282Y041943D01*X041632Y041964D02*
X041614Y041911D01*X041655Y041964D02*X041614Y041943D01*X041282Y041360D02*
X041241Y041328D01*X041282Y041360D02*X041323Y041328D01*X041573Y041360D02*
X041532Y041328D01*X041573Y041392D02*X041550Y041328D01*X041614Y041392D02*
X041632Y041328D01*X041614Y041360D02*X041655Y041328D01*X042004Y041964D02*
X042004Y041328D01*X042032Y041943D02*X042032Y041360D01*X042064Y041964D02*
X042064Y041328D01*X041922Y041964D02*X042377Y041964D01*X042377Y041784D01*
X042064Y041667D02*X042232Y041667D01*X042232Y041784D02*X042232Y041540D01*
X041922Y041328D02*X042377Y041328D01*X042377Y041508D01*X041950Y041964D02*
X042004Y041943D01*X041977Y041964D02*X042004Y041911D01*X042091Y041964D02*
X042064Y041911D01*X042118Y041964D02*X042064Y041943D01*X042232Y041964D02*
X042377Y041943D01*X042291Y041964D02*X042377Y041911D01*X042318Y041964D02*
X042377Y041880D01*X042346Y041964D02*X042377Y041784D01*X042232Y041784D02*
X042205Y041667D01*X042232Y041540D01*X042232Y041731D02*X042177Y041667D01*
X042232Y041604D01*X042232Y041699D02*X042118Y041667D01*X042232Y041636D01*
X042004Y041360D02*X041950Y041328D01*X042004Y041392D02*X041977Y041328D01*
X042064Y041392D02*X042091Y041328D01*X042064Y041360D02*X042118Y041328D01*
X042232Y041328D02*X042377Y041360D01*X042291Y041328D02*X042377Y041392D01*
X042318Y041328D02*X042377Y041423D01*X042346Y041328D02*X042377Y041508D01*
X033750Y042500D02*X033750Y039000D01*X019750Y042500D02*X054750Y042500D01*
X054750Y039000D02*X019750Y039000D01*X019750Y042500D02*X019750Y039000D01*
X054750Y042500D02*X054750Y039000D01*X044250Y042500D02*X044250Y039000D01*
X048300Y041964D02*X048300Y041328D01*X048327Y041943D02*X048327Y041360D01*
X048354Y041964D02*X048354Y041328D01*X048223Y041964D02*X048486Y041964D01*
X048568Y041943D01*X048623Y041880D01*X048650Y041816D01*X048678Y041731D01*
X048678Y041572D01*X048650Y041477D01*X048623Y041423D01*X048568Y041360D01*
X048486Y041328D01*X048223Y041328D01*X048596Y041880D02*X048623Y041816D01*
X048650Y041731D01*X048650Y041572D01*X048623Y041477D01*X048596Y041423D01*
X048486Y041964D02*X048541Y041943D01*X048596Y041848D01*X048623Y041731D01*
X048623Y041572D01*X048596Y041455D01*X048541Y041360D01*X048486Y041328D01*
X048245Y041964D02*X048300Y041943D01*X048273Y041964D02*X048300Y041911D01*
X048382Y041964D02*X048354Y041911D01*X048409Y041964D02*X048354Y041943D01*
X048300Y041360D02*X048245Y041328D01*X048300Y041392D02*X048273Y041328D01*
X048354Y041392D02*X048382Y041328D01*X048354Y041360D02*X048409Y041328D01*
X049150Y041964D02*X048973Y041360D01*X049123Y041880D02*X049273Y041328D01*
X049150Y041880D02*X049300Y041328D01*X049150Y041964D02*X049323Y041328D01*
X049023Y041508D02*X049250Y041508D01*X048923Y041328D02*X049073Y041328D01*
X049200Y041328D02*X049378Y041328D01*X048973Y041360D02*X048945Y041328D01*
X048973Y041360D02*X049023Y041328D01*X049273Y041360D02*X049223Y041328D01*
X049273Y041392D02*X049250Y041328D01*X049300Y041392D02*X049350Y041328D01*
X049623Y041964D02*X049623Y041784D01*X049818Y041964D02*X049818Y041328D01*
X049850Y041943D02*X049850Y041360D01*X049877Y041964D02*X049877Y041328D01*
X050077Y041964D02*X050077Y041784D01*X049623Y041964D02*X050077Y041964D01*
X049736Y041328D02*X049959Y041328D01*X049650Y041964D02*X049623Y041784D01*
X049677Y041964D02*X049623Y041880D01*X049704Y041964D02*X049623Y041911D01*
X049764Y041964D02*X049623Y041943D01*X049932Y041964D02*X050077Y041943D01*
X049991Y041964D02*X050077Y041911D01*X050018Y041964D02*X050077Y041880D01*
X050046Y041964D02*X050077Y041784D01*X049818Y041360D02*X049764Y041328D01*
X049818Y041392D02*X049791Y041328D01*X049877Y041392D02*X049905Y041328D01*
X049877Y041360D02*X049932Y041328D01*X050404Y041964D02*X050404Y041328D01*
X050432Y041943D02*X050432Y041360D01*X050464Y041964D02*X050464Y041328D01*
X050322Y041964D02*X050777Y041964D01*X050777Y041784D01*X050464Y041667D02*
X050632Y041667D01*X050632Y041784D02*X050632Y041540D01*X050322Y041328D02*
X050777Y041328D01*X050777Y041508D01*X050350Y041964D02*X050404Y041943D01*
X050377Y041964D02*X050404Y041911D01*X050491Y041964D02*X050464Y041911D01*
X050518Y041964D02*X050464Y041943D01*X050632Y041964D02*X050777Y041943D01*
X050691Y041964D02*X050777Y041911D01*X050718Y041964D02*X050777Y041880D01*
X050746Y041964D02*X050777Y041784D01*X050632Y041784D02*X050605Y041667D01*
X050632Y041540D01*X050632Y041731D02*X050577Y041667D01*X050632Y041604D01*
X050632Y041699D02*X050518Y041667D01*X050632Y041636D01*X050404Y041360D02*
X050350Y041328D01*X050404Y041392D02*X050377Y041328D01*X050464Y041392D02*
X050491Y041328D01*X050464Y041360D02*X050518Y041328D01*X050632Y041328D02*
X050777Y041360D01*X050691Y041328D02*X050777Y041392D01*X050718Y041328D02*
X050777Y041423D01*X050746Y041328D02*X050777Y041508D01*X046154Y040098D02*
X046154Y040066D01*X046186Y040066D01*X046186Y040098D01*X046154Y040098D01*
X046154Y040130D02*X046186Y040130D01*X046218Y040098D01*X046218Y040066D01*
X046186Y040034D01*X046154Y040034D01*X046123Y040066D01*X046123Y040098D01*
X046154Y040161D01*X046186Y040193D01*X046282Y040214D01*X046414Y040214D01*
X046509Y040193D01*X046541Y040161D01*X046578Y040098D01*X046578Y040034D01*
X046541Y039981D01*X046446Y039917D01*X046282Y039854D01*X046218Y039822D01*
X046154Y039758D01*X046123Y039673D01*X046123Y039578D01*X046509Y040161D02*
X046541Y040098D01*X046541Y040034D01*X046509Y039981D01*X046414Y040214D02*
X046477Y040193D01*X046509Y040098D01*X046509Y040034D01*X046477Y039981D01*
X046414Y039917D01*X046282Y039854D01*X046123Y039642D02*X046154Y039673D01*
X046218Y039673D01*X046377Y039642D01*X046509Y039642D01*X046578Y039673D01*
X046218Y039673D02*X046377Y039610D01*X046509Y039610D01*X046541Y039642D01*
X046218Y039673D02*X046377Y039578D01*X046509Y039578D01*X046541Y039610D01*
X046578Y039673D01*X046578Y039727D01*X047014Y040214D02*X046918Y040193D01*
X046854Y040098D01*X046823Y039949D01*X046823Y039854D01*X046854Y039705D01*
X046918Y039610D01*X047014Y039578D01*X047082Y039578D01*X047177Y039610D01*
X047241Y039705D01*X047278Y039854D01*X047278Y039949D01*X047241Y040098D01*
X047177Y040193D01*X047082Y040214D01*X047014Y040214D01*X046918Y040161D02*
X046886Y040098D01*X046854Y039981D01*X046854Y039822D01*X046886Y039705D01*
X046918Y039642D01*X047177Y039642D02*X047209Y039705D01*X047241Y039822D01*
X047241Y039981D01*X047209Y040098D01*X047177Y040161D01*X047014Y040214D02*
X046950Y040193D01*X046918Y040130D01*X046886Y039981D01*X046886Y039822D01*
X046918Y039673D01*X046950Y039610D01*X047014Y039578D01*X047082Y039578D02*
X047146Y039610D01*X047177Y039673D01*X047209Y039822D01*X047209Y039981D01*
X047177Y040130D01*X047146Y040193D01*X047082Y040214D01*X047727Y040161D02*
X047727Y039578D01*X047745Y040161D02*X047745Y039610D01*X047759Y040214D02*
X047759Y039578D01*X047759Y040214D02*X047714Y040130D01*X047686Y040098D01*
X047673Y039578D02*X047818Y039578D01*X047727Y039610D02*X047700Y039578D01*
X047727Y039642D02*X047714Y039578D01*X047759Y039642D02*X047773Y039578D01*
X047759Y039610D02*X047786Y039578D01*X048577Y040130D02*X048577Y040098D01*
X048609Y040098D01*X048609Y040130D01*X048577Y040130D01*X048609Y040161D02*
X048577Y040161D01*X048546Y040130D01*X048546Y040098D01*X048577Y040066D01*
X048609Y040066D01*X048641Y040098D01*X048641Y040130D01*X048609Y040193D01*
X048546Y040214D01*X048450Y040214D01*X048350Y040193D01*X048286Y040130D01*
X048254Y040066D01*X048223Y039949D01*X048223Y039758D01*X048254Y039673D01*
X048318Y039610D01*X048414Y039578D01*X048482Y039578D01*X048577Y039610D01*
X048641Y039673D01*X048678Y039758D01*X048678Y039790D01*X048641Y039886D01*
X048577Y039949D01*X048482Y039981D01*X048414Y039981D01*X048350Y039949D01*
X048318Y039917D01*X048286Y039854D01*X048318Y040130D02*X048286Y040066D01*
X048254Y039949D01*X048254Y039758D01*X048286Y039673D01*X048318Y039642D01*
X048609Y039673D02*X048641Y039727D01*X048641Y039822D01*X048609Y039886D01*
X048450Y040214D02*X048382Y040193D01*X048350Y040161D01*X048318Y040098D01*
X048286Y039981D01*X048286Y039758D01*X048318Y039673D01*X048350Y039610D01*
X048414Y039578D01*X048482Y039578D02*X048546Y039610D01*X048577Y039642D01*
X048609Y039727D01*X048609Y039822D01*X048577Y039917D01*X048546Y039949D01*
X048482Y039981D01*X048923Y039886D02*X049378Y039886D01*X049378Y039854D01*
X048923Y039886D02*X048923Y039854D01*X049378Y039854D01*X049827Y040161D02*
X049827Y039578D01*X049845Y040161D02*X049845Y039610D01*X049859Y040214D02*
X049859Y039578D01*X049859Y040214D02*X049814Y040130D01*X049786Y040098D01*
X049773Y039578D02*X049918Y039578D01*X049827Y039610D02*X049800Y039578D01*
X049827Y039642D02*X049814Y039578D01*X049859Y039642D02*X049873Y039578D01*
X049859Y039610D02*X049886Y039578D01*X050354Y040098D02*X050354Y040066D01*
X050386Y040066D01*X050386Y040098D01*X050354Y040098D01*X050354Y040130D02*
X050386Y040130D01*X050418Y040098D01*X050418Y040066D01*X050386Y040034D01*
X050354Y040034D01*X050322Y040066D01*X050322Y040098D01*X050354Y040161D01*
X050386Y040193D01*X050482Y040214D01*X050614Y040214D01*X050709Y040193D01*
X050741Y040161D01*X050777Y040098D01*X050777Y040034D01*X050741Y039981D01*
X050646Y039917D01*X050482Y039854D01*X050418Y039822D01*X050354Y039758D01*
X050322Y039673D01*X050322Y039578D01*X050709Y040161D02*X050741Y040098D01*
X050741Y040034D01*X050709Y039981D01*X050614Y040214D02*X050677Y040193D01*
X050709Y040098D01*X050709Y040034D01*X050677Y039981D01*X050614Y039917D01*
X050482Y039854D01*X050322Y039642D02*X050354Y039673D01*X050418Y039673D01*
X050577Y039642D01*X050709Y039642D01*X050777Y039673D01*X050418Y039673D02*
X050577Y039610D01*X050709Y039610D01*X050741Y039642D01*X050418Y039673D02*
X050577Y039578D01*X050709Y039578D01*X050741Y039610D01*X050777Y039673D01*
X050777Y039727D01*X051022Y039886D02*X051477Y039886D01*X051477Y039854D01*
X051022Y039886D02*X051022Y039854D01*X051477Y039854D01*X051754Y040098D02*
X051754Y040066D01*X051786Y040066D01*X051786Y040098D01*X051754Y040098D01*
X051754Y040130D02*X051786Y040130D01*X051818Y040098D01*X051818Y040066D01*
X051786Y040034D01*X051754Y040034D01*X051722Y040066D01*X051722Y040098D01*
X051754Y040161D01*X051786Y040193D01*X051882Y040214D01*X052014Y040214D01*
X052109Y040193D01*X052141Y040161D01*X052177Y040098D01*X052177Y040034D01*
X052141Y039981D01*X052046Y039917D01*X051882Y039854D01*X051818Y039822D01*
X051754Y039758D01*X051722Y039673D01*X051722Y039578D01*X052109Y040161D02*
X052141Y040098D01*X052141Y040034D01*X052109Y039981D01*X052014Y040214D02*
X052077Y040193D01*X052109Y040098D01*X052109Y040034D01*X052077Y039981D01*
X052014Y039917D01*X051882Y039854D01*X051722Y039642D02*X051754Y039673D01*
X051818Y039673D01*X051977Y039642D01*X052109Y039642D01*X052177Y039673D01*
X051818Y039673D02*X051977Y039610D01*X052109Y039610D01*X052141Y039642D01*
X051818Y039673D02*X051977Y039578D01*X052109Y039578D01*X052141Y039610D01*
X052177Y039673D01*X052177Y039727D01*X052582Y040214D02*X052486Y040193D01*
X052454Y040130D01*X052454Y040034D01*X052486Y039981D01*X052582Y039949D01*
X052714Y039949D01*X052809Y039981D01*X052841Y040034D01*X052841Y040130D01*
X052809Y040193D01*X052714Y040214D01*X052582Y040214D01*X052518Y040193D02*
X052486Y040130D01*X052486Y040034D01*X052518Y039981D01*X052777Y039981D02*
X052809Y040034D01*X052809Y040130D01*X052777Y040193D01*X052582Y040214D02*
X052550Y040193D01*X052518Y040130D01*X052518Y040034D01*X052550Y039981D01*
X052582Y039949D01*X052714Y039949D02*X052746Y039981D01*X052777Y040034D01*
X052777Y040130D01*X052746Y040193D01*X052714Y040214D01*X052582Y039949D02*
X052486Y039917D01*X052454Y039886D01*X052422Y039822D01*X052422Y039705D01*
X052454Y039642D01*X052486Y039610D01*X052582Y039578D01*X052714Y039578D01*
X052809Y039610D01*X052841Y039642D01*X052877Y039705D01*X052877Y039822D01*
X052841Y039886D01*X052809Y039917D01*X052714Y039949D01*X052486Y039886D02*
X052454Y039822D01*X052454Y039705D01*X052486Y039642D01*X052809Y039642D02*
X052841Y039705D01*X052841Y039822D01*X052809Y039886D01*X052582Y039949D02*
X052518Y039917D01*X052486Y039822D01*X052486Y039705D01*X052518Y039610D01*
X052582Y039578D01*X052714Y039578D02*X052777Y039610D01*X052809Y039705D01*
X052809Y039822D01*X052777Y039917D01*X052714Y039949D01*X037600Y040214D02*
X037423Y039610D01*X037573Y040130D02*X037723Y039578D01*X037600Y040130D02*
X037750Y039578D01*X037600Y040214D02*X037773Y039578D01*X037473Y039758D02*
X037700Y039758D01*X037373Y039578D02*X037523Y039578D01*X037650Y039578D02*
X037828Y039578D01*X037423Y039610D02*X037395Y039578D01*X037423Y039610D02*
X037473Y039578D01*X037723Y039610D02*X037673Y039578D01*X037723Y039642D02*
X037700Y039578D01*X037750Y039642D02*X037800Y039578D01*X038491Y040130D02*
X038528Y040214D01*X038528Y040034D01*X038491Y040130D01*X038427Y040193D01*
X038327Y040214D01*X038232Y040214D01*X038136Y040193D01*X038073Y040130D01*
X038073Y040034D01*X038104Y039981D01*X038200Y039917D01*X038396Y039854D01*
X038459Y039822D01*X038491Y039758D01*X038491Y039673D01*X038459Y039610D01*
X038104Y040034D02*X038136Y039981D01*X038200Y039949D01*X038396Y039886D01*
X038459Y039854D01*X038491Y039790D01*X038136Y040193D02*X038104Y040130D01*
X038104Y040066D01*X038136Y040002D01*X038200Y039981D01*X038396Y039917D01*
X038491Y039854D01*X038528Y039790D01*X038528Y039705D01*X038491Y039642D01*
X038459Y039610D01*X038364Y039578D01*X038264Y039578D01*X038168Y039610D01*
X038104Y039673D01*X038073Y039758D01*X038073Y039578D01*X038104Y039673D01*
X039191Y040130D02*X039228Y040214D01*X039228Y040034D01*X039191Y040130D01*
X039127Y040193D01*X039027Y040214D01*X038932Y040214D01*X038836Y040193D01*
X038773Y040130D01*X038773Y040034D01*X038804Y039981D01*X038900Y039917D01*
X039096Y039854D01*X039159Y039822D01*X039191Y039758D01*X039191Y039673D01*
X039159Y039610D01*X038804Y040034D02*X038836Y039981D01*X038900Y039949D01*
X039096Y039886D01*X039159Y039854D01*X039191Y039790D01*X038836Y040193D02*
X038804Y040130D01*X038804Y040066D01*X038836Y040002D01*X038900Y039981D01*
X039096Y039917D01*X039191Y039854D01*X039228Y039790D01*X039228Y039705D01*
X039191Y039642D01*X039159Y039610D01*X039064Y039578D01*X038964Y039578D01*
X038868Y039610D01*X038804Y039673D01*X038773Y039758D01*X038773Y039578D01*
X038804Y039673D01*X039518Y040214D02*X039673Y039886D01*X039673Y039578D01*
X039541Y040214D02*X039695Y039886D01*X039695Y039610D01*X039559Y040214D02*
X039723Y039886D01*X039723Y039578D01*X039855Y040193D02*X039723Y039886D01*
X039473Y040214D02*X039632Y040214D01*X039786Y040214D02*X039927Y040214D01*
X039609Y039578D02*X039786Y039578D01*X039495Y040214D02*X039541Y040193D01*
X039609Y040214D02*X039559Y040193D01*X039814Y040214D02*X039855Y040193D01*
X039900Y040214D02*X039855Y040193D01*X039673Y039610D02*X039632Y039578D01*
X039673Y039642D02*X039650Y039578D01*X039723Y039642D02*X039741Y039578D01*
X039723Y039610D02*X039764Y039578D01*X040377Y040161D02*X040377Y039578D01*
X040395Y040161D02*X040395Y039610D01*X040409Y040214D02*X040409Y039578D01*
X040409Y040214D02*X040364Y040130D01*X040336Y040098D01*X040323Y039578D02*
X040468Y039578D01*X040377Y039610D02*X040350Y039578D01*X040377Y039642D02*
X040364Y039578D01*X040409Y039642D02*X040423Y039578D01*X040409Y039610D02*
X040436Y039578D01*X000000Y000000D02*D02*G54D20*X009790Y003000D03*
X012330Y003000D03*X020040Y003000D03*X022580Y003000D03*X025120Y003000D03*
X027660Y003000D03*X003000Y011040D03*X017500Y011625D03*X022000Y010000D03*
X020500Y011625D03*X019000Y010000D03*X054000Y011040D03*X003000Y013580D03*
X054000Y013580D03*X003000Y016120D03*X054000Y016120D03*X003000Y018660D03*
X054000Y018660D03*X003000Y021200D03*X003000Y023740D03*X054000Y021200D03*
X054000Y023740D03*X003000Y026280D03*X054000Y026280D03*X030330Y032000D03*
X027790Y032000D03*X032870Y032000D03*X035410Y032000D03*X037950Y032000D03*D02*
G54D133*X006000Y001000D03*X010000Y001000D03*X014000Y001000D03*X030375Y002865D03*
X038000Y002865D03*X041750Y002250D03*X048250Y001250D03*X051500Y001000D03*
X001000Y005000D03*X009500Y005000D03*X014000Y005000D03*X017500Y005750D03*
X019000Y005750D03*X020500Y005750D03*X022000Y005750D03*X022800Y005700D03*
X027000Y005000D03*X030375Y004135D03*X038000Y004135D03*X042125Y003875D03*
X042125Y004625D03*X041375Y003875D03*X041375Y004625D03*X041375Y005375D03*
X043000Y004625D03*X044750Y004750D03*X044750Y005500D03*X047500Y005125D03*
X049125Y004050D03*X050250Y004750D03*X048250Y005125D03*X052750Y005750D03*
X056000Y005000D03*X001000Y008000D03*X007830Y008500D03*X005500Y006000D03*
X011830Y008500D03*X016500Y008250D03*X023000Y008250D03*X027250Y007500D03*
X028750Y006750D03*X025750Y006500D03*X032500Y008625D03*X030375Y008250D03*
X033375Y007250D03*X034325Y008625D03*X036500Y007125D03*X035000Y007125D03*
X038875Y007500D03*X041500Y008000D03*X048250Y005875D03*X047500Y005875D03*
X049875Y006500D03*X048000Y008000D03*X046525Y008000D03*X047250Y008000D03*
X048750Y008000D03*X049500Y008000D03*X050250Y008000D03*X052125Y008625D03*
X051000Y008000D03*X056000Y008000D03*X001000Y011000D03*X005000Y010000D03*
X014000Y009000D03*X022800Y011050D03*X028500Y008750D03*X027000Y009750D03*
X029625Y010500D03*X031250Y010750D03*X040000Y011000D03*X046500Y008750D03*
X050250Y008750D03*X048000Y008750D03*X047250Y008750D03*X048750Y008750D03*
X049500Y008750D03*X051000Y008750D03*X056000Y011000D03*X001000Y014000D03*
X008825Y014000D03*X007555Y014000D03*X007830Y013000D03*X011830Y013000D03*
X011000Y014000D03*X014000Y014000D03*X016500Y014000D03*X021000Y013500D03*
X023000Y012250D03*X022250Y012250D03*X025500Y012250D03*X028500Y012250D03*
X027550Y012350D03*X029200Y013000D03*X026500Y012250D03*X033500Y014125D03*
X030100Y014200D03*X036175Y014125D03*X043500Y012375D03*X048000Y012875D03*
X046500Y012375D03*X052125Y012000D03*X056000Y014000D03*X001000Y017000D03*
X005500Y015000D03*X018000Y017000D03*X017750Y014625D03*X020125Y016250D03*
X025250Y015500D03*X024250Y016500D03*X025250Y016500D03*X024250Y015500D03*
X023250Y015000D03*X026250Y016500D03*X030250Y015375D03*X031875Y016750D03*
X033375Y016750D03*X032625Y016750D03*X030250Y016250D03*X034250Y015875D03*
X037375Y016750D03*X036625Y016750D03*X035875Y016750D03*X035125Y016750D03*
X040500Y015875D03*X046500Y015000D03*X050500Y017000D03*X047500Y017000D03*
X056000Y017000D03*X001000Y020000D03*X008375Y019125D03*X008375Y017875D03*
X010095Y019500D03*X011365Y019500D03*X012635Y019500D03*X010500Y017500D03*
X013905Y019500D03*X016445Y019500D03*X015175Y017500D03*X016500Y017500D03*
X013500Y017500D03*X020000Y019500D03*X020125Y017625D03*X017500Y019750D03*
X024250Y019500D03*X025250Y017500D03*X025250Y018500D03*X024250Y018500D03*
X024250Y017500D03*X025250Y019500D03*X023250Y017500D03*X023250Y018500D03*
X026250Y019500D03*X026250Y017500D03*X026250Y018500D03*X030250Y017750D03*
X030375Y019750D03*X037875Y019875D03*X038125Y017500D03*X040875Y019625D03*
X040125Y019625D03*X039375Y019500D03*X038625Y019500D03*X039625Y017500D03*
X038875Y017500D03*X042250Y017500D03*X041500Y017500D03*X045250Y017500D03*
X044500Y017500D03*X043750Y017500D03*X043000Y017500D03*X045000Y019625D03*
X044250Y019625D03*X043500Y019625D03*X042750Y019500D03*X045750Y019625D03*
X046000Y017500D03*X046625Y018500D03*X047500Y020000D03*X050500Y020000D03*
X056000Y020000D03*X005500Y021500D03*X012250Y022500D03*X016125Y022625D03*
X020125Y020750D03*X018000Y021500D03*X020500Y022500D03*X021625Y022500D03*
X022500Y022500D03*X027000Y022500D03*X026000Y022500D03*X026250Y020375D03*
X029000Y022875D03*X030375Y021625D03*X032500Y022875D03*X031875Y020250D03*
X031125Y020250D03*X033375Y020250D03*X032625Y020250D03*X030375Y020750D03*
X034500Y021875D03*X035625Y020250D03*X037125Y020250D03*X036375Y020250D03*
X040875Y021875D03*X040875Y021125D03*X040875Y020375D03*X040875Y022625D03*
X042750Y022500D03*X042750Y021750D03*X042750Y021000D03*X042750Y020250D03*
X001000Y023000D03*X014000Y023500D03*X021000Y024000D03*X018000Y024000D03*
X025500Y023000D03*X024500Y024000D03*X023500Y024000D03*X028500Y024875D03*
X027000Y024875D03*X026500Y023000D03*X031000Y024000D03*X031000Y025500D03*
X036500Y023500D03*X034000Y023500D03*X034000Y025500D03*X036500Y025500D03*
X039875Y025750D03*X040125Y024750D03*X040750Y024125D03*X040875Y023375D03*
X042750Y023250D03*X043625Y025750D03*X043375Y024750D03*X042750Y024125D03*
X050500Y023000D03*X047500Y023000D03*X056000Y023000D03*X001000Y026000D03*
X007500Y026000D03*X005000Y026500D03*X011500Y026000D03*X009750Y026000D03*
X015250Y026500D03*X021000Y026500D03*X018000Y026500D03*X024000Y026500D03*
X031000Y028000D03*X036500Y028000D03*X034000Y028000D03*X040750Y028250D03*
X040750Y027375D03*X040125Y026750D03*X042750Y027375D03*X043375Y026750D03*
X042750Y028250D03*X047500Y026000D03*X050500Y026000D03*X056000Y026000D03*
X004000Y029000D03*X001000Y029000D03*X005500Y028800D03*X013500Y028800D03*
X015500Y029000D03*X021000Y029000D03*X018000Y029000D03*X024000Y029000D03*
X026750Y030500D03*X029875Y030375D03*X032000Y030000D03*X036500Y030000D03*
X040750Y030000D03*X040750Y029125D03*X042750Y029125D03*X042750Y030000D03*
X050500Y029000D03*X047500Y029000D03*X056000Y029000D03*X050500Y034000D03*D02*
G54D134*X003000Y003000D03*X054000Y003000D03*X003000Y032000D03*X054000Y032000D03*
D02*G54D135*X007250Y003000D03*X017500Y003000D03*X003000Y008500D03*
X054000Y008500D03*X025250Y032000D03*D02*G54D136*X043000Y005750D03*
X007500Y032000D03*X012250Y032000D03*X017000Y032000D03*X021750Y032000D03*
X041750Y032000D03*X047000Y032000D03*D02*G54D137*X039210Y023210D03*
X044290Y023210D03*X041750Y025750D03*X039210Y028290D03*X044290Y028290D03*D02*
G54D139*X007830Y006950D03*X011830Y006950D03*X007830Y011550D03*X011830Y011550D03*
X007500Y024200D03*X011500Y024200D03*X007500Y028800D03*X011500Y028800D03*D02*
G54D140*X007555Y016518D02*X007555Y015318D01*X008825Y016518D02*X008825Y015318D01*
X010095Y016518D02*X010095Y015318D01*X011365Y016518D02*X011365Y015318D01*
X012635Y016518D02*X012635Y015318D01*X013905Y016518D02*X013905Y015318D01*
X015175Y016518D02*X015175Y015318D01*X016445Y016518D02*X016445Y015318D01*
X008825Y021683D02*X008825Y020483D01*X007555Y021683D02*X007555Y020483D01*
X012635Y021683D02*X012635Y020483D01*X011365Y021683D02*X011365Y020483D01*
X010095Y021683D02*X010095Y020483D01*X016445Y021683D02*X016445Y020483D01*
X015175Y021683D02*X015175Y020483D01*X013905Y021683D02*X013905Y020483D01*D02*
G54D141*X043000Y002250D03*X044750Y002250D03*X050250Y002250D03*X043000Y003750D03*
X044750Y003750D03*X050250Y003750D03*X017500Y008250D03*X017500Y006750D03*
X020500Y008250D03*X020500Y006750D03*X019000Y008250D03*X019000Y006750D03*
X022000Y008250D03*X022000Y006750D03*X028500Y009750D03*X028500Y011250D03*
X032500Y011250D03*X032500Y009750D03*X046500Y011250D03*X046500Y009750D03*
X045000Y011250D03*X045000Y009750D03*X043500Y011250D03*X043500Y009750D03*
X048000Y011250D03*X048000Y009750D03*X032500Y012625D03*X032500Y014125D03*
X040500Y017000D03*X034500Y019250D03*X040500Y018500D03*X034500Y020750D03*
X015250Y023875D03*X015250Y025375D03*D02*G54D142*X021275Y014250D03*
X029225Y014250D03*X021275Y020750D03*X029225Y020750D03*D02*G54D143*
X021350Y017250D03*X021350Y016750D03*X021350Y016250D03*X021350Y015750D03*
X021350Y015250D03*X021350Y014750D03*X029150Y014750D03*X029150Y015250D03*
X029150Y015750D03*X029150Y016250D03*X029150Y016750D03*X029150Y017250D03*
X021350Y020250D03*X021350Y019750D03*X021350Y019250D03*X021350Y018750D03*
X021350Y018250D03*X021350Y017750D03*X029150Y017750D03*X029150Y018250D03*
X029150Y018750D03*X029150Y019250D03*X029150Y019750D03*X029150Y020250D03*D02*
G54D144*X022000Y013525D03*X028500Y013525D03*X022000Y021475D03*X028500Y021475D03*
D02*G54D145*X022500Y013600D03*X023000Y013600D03*X023500Y013600D03*
X024000Y013600D03*X024500Y013600D03*X025000Y013600D03*X025500Y013600D03*
X026000Y013600D03*X026500Y013600D03*X027000Y013600D03*X027500Y013600D03*
X028000Y013600D03*X025500Y021400D03*X025000Y021400D03*X024500Y021400D03*
X024000Y021400D03*X023500Y021400D03*X023000Y021400D03*X022500Y021400D03*
X028000Y021400D03*X027500Y021400D03*X027000Y021400D03*X026500Y021400D03*
X026000Y021400D03*D02*G54D146*X025250Y017500D03*D02*G54D147*X046750Y002250D03*
X048250Y002250D03*X033000Y017750D03*X031500Y017750D03*X033000Y019250D03*
X031500Y019250D03*X037000Y017750D03*X035500Y017750D03*X044000Y018500D03*
X045500Y018500D03*X025500Y024000D03*X030000Y024000D03*X028500Y024000D03*
X027000Y024000D03*X025250Y029500D03*X026750Y029500D03*D02*G54D148*
X026500Y026500D03*X029000Y026500D03*D02*G54D149*X031725Y002865D03*
X039275Y002865D03*X031725Y004135D03*X039275Y004135D03*D02*G54D150*
X034325Y010100D03*X036175Y010100D03*X034325Y012400D03*X036175Y012400D03*D02*
G54D151*X046525Y004050D03*X047175Y004050D03*X047825Y004050D03*X048475Y004050D03*
X046525Y006950D03*X048475Y006950D03*X047825Y006950D03*X047175Y006950D03*D02*
G54D152*X047500Y005500D03*D02*G54D153*X050250Y009800D03*X050250Y013700D03*
G36*X035659Y002489D02*X035659Y003305D01*X033627Y003305D01*X033627Y002489D01*
X035659Y002489D01*G37*G36*X035659Y003759D02*X035659Y004575D01*X033627Y004575D01*
X033627Y003759D01*X035659Y003759D01*G37*G36*X017200Y007700D02*X017500Y007300D01*
X017800Y007700D01*X017200Y007700D01*G37*G36*X021700Y007700D02*X022000Y007300D01*
X022300Y007700D01*X021700Y007700D01*G37*G36*X020200Y007700D02*X020500Y007300D01*
X020800Y007700D01*X020200Y007700D01*G37*G36*X018700Y007700D02*X019000Y007300D01*
X019300Y007700D01*X018700Y007700D01*G37*G36*X046300Y003000D02*X046700Y003000D01*
X046500Y003500D01*X046300Y003000D01*G37*G36*X044700Y010700D02*X045000Y010300D01*
X045300Y010700D01*X044700Y010700D01*G37*G36*X016845Y023200D02*X016045Y023200D01*
X016445Y022200D01*X016845Y023200D01*G37*G36*X020150Y020450D02*X020750Y020750D01*
X020150Y021050D01*X020150Y020450D01*
G37*G36*X034000Y016600D02*X034002Y016580D01*
X034008Y016562D01*X034017Y016544D01*X034029Y016529D01*X034044Y016517D01*
X034062Y016508D01*X034080Y016502D01*X034100Y016500D01*X034400Y016500D01*
X034420Y016502D01*X034438Y016508D01*X034456Y016517D01*X034471Y016529D01*
X034483Y016544D01*X034492Y016562D01*X034498Y016580D01*X034500Y016600D01*
X034500Y016900D01*X034498Y016920D01*X034492Y016938D01*X034483Y016956D01*
X034471Y016971D01*X034456Y016983D01*X034438Y016992D01*X034420Y016998D01*
X034400Y017000D01*X034100Y017000D01*X034080Y016998D01*X034062Y016992D01*
X034044Y016983D01*X034029Y016971D01*X034017Y016956D01*X034008Y016938D01*
X034002Y016920D01*X034000Y016900D01*X034000Y016600D01*G37*G36*X034000Y017600D02*
X034002Y017580D01*X034008Y017562D01*X034017Y017544D01*X034029Y017529D01*
X034044Y017517D01*X034062Y017508D01*X034080Y017502D01*X034100Y017500D01*
X034400Y017500D01*X034420Y017502D01*X034438Y017508D01*X034456Y017517D01*
X034471Y017529D01*X034483Y017544D01*X034492Y017562D01*X034498Y017580D01*
X034500Y017600D01*X034500Y017900D01*X034498Y017920D01*X034492Y017938D01*
X034483Y017956D01*X034471Y017971D01*X034456Y017983D01*X034438Y017992D01*
X034420Y017998D01*X034400Y018000D01*X034100Y018000D01*X034080Y017998D01*
X034062Y017992D01*X034044Y017983D01*X034029Y017971D01*X034017Y017956D01*
X034008Y017938D01*X034002Y017920D01*X034000Y017900D01*X034000Y017600D01*G37*G36*
X038000Y018350D02*X038002Y018330D01*X038008Y018312D01*X038017Y018294D01*
X038029Y018279D01*X038044Y018267D01*X038062Y018258D01*X038080Y018252D01*
X038100Y018250D01*X038400Y018250D01*X038420Y018252D01*X038438Y018258D01*
X038456Y018267D01*X038471Y018279D01*X038483Y018294D01*X038492Y018312D01*
X038498Y018330D01*X038500Y018350D01*X038500Y018650D01*X038498Y018670D01*
X038492Y018688D01*X038483Y018706D01*X038471Y018721D01*X038456Y018733D01*
X038438Y018742D01*X038420Y018748D01*X038400Y018750D01*X038100Y018750D01*
X038080Y018748D01*X038062Y018742D01*X038044Y018733D01*X038029Y018721D01*
X038017Y018706D01*X038008Y018688D01*X038002Y018670D01*X038000Y018650D01*
X038000Y018350D01*G37*G36*X036750Y019100D02*X036752Y019080D01*X036758Y019062D01*
X036767Y019044D01*X036779Y019029D01*X036794Y019017D01*X036812Y019008D01*
X036830Y019002D01*X036850Y019000D01*X037150Y019000D01*X037170Y019002D01*
X037188Y019008D01*X037206Y019017D01*X037221Y019029D01*X037233Y019044D01*
X037242Y019062D01*X037248Y019080D01*X037250Y019100D01*X037250Y019400D01*
X037248Y019420D01*X037242Y019438D01*X037233Y019456D01*X037221Y019471D01*
X037206Y019483D01*X037188Y019492D01*X037170Y019498D01*X037150Y019500D01*
X036850Y019500D01*X036830Y019498D01*X036812Y019492D01*X036794Y019483D01*
X036779Y019471D01*X036767Y019456D01*X036758Y019438D01*X036752Y019420D01*
X036750Y019400D01*X036750Y019100D01*G37*G36*X035750Y019100D02*X035752Y019080D01*
X035758Y019062D01*X035767Y019044D01*X035779Y019029D01*X035794Y019017D01*
X035812Y019008D01*X035830Y019002D01*X035850Y019000D01*X036150Y019000D01*
X036170Y019002D01*X036188Y019008D01*X036206Y019017D01*X036221Y019029D01*
X036233Y019044D01*X036242Y019062D01*X036248Y019080D01*X036250Y019100D01*
X036250Y019400D01*X036248Y019420D01*X036242Y019438D01*X036233Y019456D01*
X036221Y019471D01*X036206Y019483D01*X036188Y019492D01*X036170Y019498D01*
X036150Y019500D01*X035850Y019500D01*X035830Y019498D01*X035812Y019492D01*
X035794Y019483D01*X035779Y019471D01*X035767Y019456D01*X035758Y019438D01*
X035752Y019420D01*X035750Y019400D01*X035750Y019100D01*G37*G36*X039000Y018350D02*
X039002Y018330D01*X039008Y018312D01*X039017Y018294D01*X039029Y018279D01*
X039044Y018267D01*X039062Y018258D01*X039080Y018252D01*X039100Y018250D01*
X039400Y018250D01*X039420Y018252D01*X039438Y018258D01*X039456Y018267D01*
X039471Y018279D01*X039483Y018294D01*X039492Y018312D01*X039498Y018330D01*
X039500Y018350D01*X039500Y018650D01*X039498Y018670D01*X039492Y018688D01*
X039483Y018706D01*X039471Y018721D01*X039456Y018733D01*X039438Y018742D01*
X039420Y018748D01*X039400Y018750D01*X039100Y018750D01*X039080Y018748D01*
X039062Y018742D01*X039044Y018733D01*X039029Y018721D01*X039017Y018706D01*
X039008Y018688D01*X039002Y018670D01*X039000Y018650D01*X039000Y018350D01*G37*G36*
X041500Y018350D02*X041502Y018330D01*X041508Y018312D01*X041517Y018294D01*
X041529Y018279D01*X041544Y018267D01*X041562Y018258D01*X041580Y018252D01*
X041600Y018250D01*X041900Y018250D01*X041920Y018252D01*X041938Y018258D01*
X041956Y018267D01*X041971Y018279D01*X041983Y018294D01*X041992Y018312D01*
X041998Y018330D01*X042000Y018350D01*X042000Y018650D01*X041998Y018670D01*
X041992Y018688D01*X041983Y018706D01*X041971Y018721D01*X041956Y018733D01*
X041938Y018742D01*X041920Y018748D01*X041900Y018750D01*X041600Y018750D01*
X041580Y018748D01*X041562Y018742D01*X041544Y018733D01*X041529Y018721D01*
X041517Y018706D01*X041508Y018688D01*X041502Y018670D01*X041500Y018650D01*
X041500Y018350D01*G37*G36*X041500Y019350D02*X041502Y019330D01*X041508Y019312D01*
X041517Y019294D01*X041529Y019279D01*X041544Y019267D01*X041562Y019258D01*
X041580Y019252D01*X041600Y019250D01*X041900Y019250D01*X041920Y019252D01*
X041938Y019258D01*X041956Y019267D01*X041971Y019279D01*X041983Y019294D01*
X041992Y019312D01*X041998Y019330D01*X042000Y019350D01*X042000Y019650D01*
X041998Y019670D01*X041992Y019688D01*X041983Y019706D01*X041971Y019721D01*
X041956Y019733D01*X041938Y019742D01*X041920Y019748D01*X041900Y019750D01*
X041600Y019750D01*X041580Y019748D01*X041562Y019742D01*X041544Y019733D01*
X041529Y019721D01*X041517Y019706D01*X041508Y019688D01*X041502Y019670D01*
X041500Y019650D01*X041500Y019350D01*G37*G36*X042500Y018350D02*X042502Y018330D01*
X042508Y018312D01*X042517Y018294D01*X042529Y018279D01*X042544Y018267D01*
X042562Y018258D01*X042580Y018252D01*X042600Y018250D01*X042900Y018250D01*
X042920Y018252D01*X042938Y018258D01*X042956Y018267D01*X042971Y018279D01*
X042983Y018294D01*X042992Y018312D01*X042998Y018330D01*X043000Y018350D01*
X043000Y018650D01*X042998Y018670D01*X042992Y018688D01*X042983Y018706D01*
X042971Y018721D01*X042956Y018733D01*X042938Y018742D01*X042920Y018748D01*
X042900Y018750D01*X042600Y018750D01*X042580Y018748D01*X042562Y018742D01*
X042544Y018733D01*X042529Y018721D01*X042517Y018706D01*X042508Y018688D01*
X042502Y018670D01*X042500Y018650D01*X042500Y018350D01*G37*G36*X041500Y020350D02*
X041502Y020330D01*X041508Y020312D01*X041517Y020294D01*X041529Y020279D01*
X041544Y020267D01*X041562Y020258D01*X041580Y020252D01*X041600Y020250D01*
X041900Y020250D01*X041920Y020252D01*X041938Y020258D01*X041956Y020267D01*
X041971Y020279D01*X041983Y020294D01*X041992Y020312D01*X041998Y020330D01*
X042000Y020350D01*X042000Y020650D01*X041998Y020670D01*X041992Y020688D01*
X041983Y020706D01*X041971Y020721D01*X041956Y020733D01*X041938Y020742D01*
X041920Y020748D01*X041900Y020750D01*X041600Y020750D01*X041580Y020748D01*
X041562Y020742D01*X041544Y020733D01*X041529Y020721D01*X041517Y020706D01*
X041508Y020688D01*X041502Y020670D01*X041500Y020650D01*X041500Y020350D01*
G37*G36*
X015564Y040134D02*X015564Y040220D01*X015585Y040220D01*X015585Y040350D01*
X015607Y040350D01*X015607Y040371D01*X016039Y040371D01*X016039Y040307D01*
X016039Y040263D01*X016017Y040263D01*X016017Y040220D01*X016039Y040220D01*
X016039Y040199D01*X016082Y040199D01*X016082Y040177D01*X016147Y040177D01*
X016147Y040155D01*X017962Y040155D01*X017962Y040134D01*X017918Y040134D01*
X017918Y040112D01*X017897Y040112D01*X017897Y040091D01*X017854Y040091D01*
X017854Y040069D01*X017832Y040069D01*X017832Y040047D01*X017789Y040047D01*
X017789Y040026D01*X017767Y040026D01*X017767Y040004D01*X017724Y040004D01*
X017724Y039983D01*X017702Y039983D01*X017702Y039961D01*X015931Y039961D01*
X015931Y039983D01*X015780Y039983D01*X015780Y040004D01*X015715Y040004D01*
X015715Y040026D01*X015650Y040026D01*X015650Y040047D01*X015629Y040047D01*
X015629Y040069D01*X015607Y040069D01*X015607Y040091D01*X015585Y040091D01*
X015585Y040134D01*X015564Y040134D01*G37*G36*X015607Y040371D02*X015607Y040458D01*
X015629Y040458D01*X015629Y040566D01*X015650Y040566D01*X015650Y040674D01*
X015672Y040674D01*X015672Y040782D01*X015693Y040782D01*X015693Y040868D01*
X015715Y040868D01*X015715Y040911D01*X015737Y040911D01*X015737Y040933D01*
X015758Y040933D01*X015758Y040955D01*X015801Y040955D01*X015801Y040976D01*
X015888Y040976D01*X015888Y040998D01*X017292Y040998D01*X017292Y040976D01*
X017335Y040976D01*X017335Y040955D01*X017378Y040955D01*X017378Y040911D01*
X017400Y040911D01*X017400Y040760D01*X017378Y040760D01*X017378Y040609D01*
X017357Y040609D01*X017357Y040587D01*X016925Y040587D01*X016925Y040652D01*
X016946Y040652D01*X016946Y040782D01*X016925Y040782D01*X016925Y040803D01*
X016212Y040803D01*X016212Y040782D01*X016169Y040782D01*X016169Y040760D01*
X016147Y040760D01*X016147Y040739D01*X016125Y040739D01*X016125Y040717D01*
X016104Y040717D01*X016104Y040652D01*X016082Y040652D01*X016082Y040587D01*
X017357Y040587D01*X017357Y040544D01*X017357Y040501D01*X017335Y040501D01*
X017335Y040458D01*X017314Y040458D01*X017314Y040436D01*X017292Y040436D01*
X017292Y040415D01*X017249Y040415D01*X017249Y040393D01*X017162Y040393D01*
X017162Y040371D01*X015607Y040371D01*G37*G36*X002775Y040514D02*X002797Y040514D01*
X002797Y040450D01*X002818Y040450D01*X002818Y040406D01*X002840Y040406D01*
X002840Y040363D01*X002861Y040363D01*X002861Y040320D01*X002883Y040320D01*
X002883Y040298D01*X002905Y040298D01*X002905Y040255D01*X002926Y040255D01*
X002926Y040233D01*X002948Y040233D01*X002948Y040212D01*X002969Y040212D01*
X002969Y040190D01*X002991Y040190D01*X002991Y040169D01*X003013Y040169D01*
X003013Y040147D01*X003034Y040147D01*X003034Y040126D01*X003077Y040126D01*
X003077Y040104D01*X003099Y040104D01*X003099Y040082D01*X003120Y040082D01*
X003120Y040061D01*X003164Y040061D01*X003164Y040039D01*X003186Y040039D01*
X003186Y040017D01*X003229Y040017D01*X003229Y039996D01*X003250Y039996D01*
X003250Y039974D01*X003293Y039974D01*X003293Y039953D01*X003315Y039953D01*
X003315Y039931D01*X003358Y039931D01*X003358Y039909D01*X003401Y039909D01*
X003401Y039888D01*X003445Y039888D01*X003445Y039866D01*X003488Y039866D01*
X003488Y039845D01*X003531Y039845D01*X003531Y039823D01*X003574Y039823D01*
X003574Y039801D01*X003617Y039801D01*X003617Y039780D01*X003661Y039780D01*
X003661Y039758D01*X003704Y039758D01*X003704Y039737D01*X003768Y039737D01*
X003768Y039715D01*X003790Y039715D01*X003790Y039693D01*X003855Y039693D01*
X003855Y039672D01*X003899Y039672D01*X003899Y039650D01*X003942Y039650D01*
X003942Y039629D01*X003985Y039629D01*X003985Y039607D01*X004028Y039607D01*
X004028Y039650D01*X004007Y039650D01*X004007Y039889D01*X004028Y039889D01*
X004028Y039974D01*X004049Y039974D01*X004049Y040040D01*X004071Y040040D01*
X004071Y040104D01*X004093Y040104D01*X004093Y040147D01*X004115Y040147D01*
X004115Y040212D01*X004137Y040212D01*X004137Y040255D01*X004158Y040255D01*
X004158Y040276D01*X004180Y040276D01*X004180Y040320D01*X004201Y040320D01*
X004201Y040363D01*X004223Y040363D01*X004223Y040406D01*X004244Y040406D01*
X004244Y040450D01*X004266Y040450D01*X004266Y040471D01*X004287Y040471D01*
X004287Y040514D01*X004308Y040514D01*X004308Y040536D01*X004331Y040536D01*
X004331Y040579D01*X004352Y040579D01*X004352Y040601D01*X004373Y040601D01*
X004373Y040644D01*X004396Y040644D01*X004396Y040666D01*X004417Y040666D01*
X004417Y040709D01*X004438Y040709D01*X004438Y040752D01*X004460Y040752D01*
X004460Y040774D01*X004482Y040774D01*X004482Y040817D01*X004503Y040817D01*
X004503Y040838D01*X004525Y040838D01*X004525Y040881D01*X004547Y040881D01*
X004547Y040903D01*X004568Y040903D01*X004568Y040946D01*X004589Y040946D01*
X004589Y040990D01*X004611Y040990D01*X004611Y041011D01*X004633Y041011D01*
X004633Y041055D01*X004654Y041055D01*X004654Y041098D01*X004677Y041098D01*
X004677Y041141D01*X004698Y041141D01*X004698Y041163D01*X004093Y041163D01*
X004093Y041141D01*X004071Y041141D01*X004071Y041162D01*X004050Y041162D01*
X004050Y041141D01*X003877Y041141D01*X003877Y041120D01*X003727Y041120D01*
X003727Y041098D01*X003640Y041098D01*X003640Y041077D01*X003552Y041077D01*
X003552Y041055D01*X003488Y041055D01*X003488Y041032D01*X003445Y041032D01*
X003445Y041012D01*X003379Y041012D01*X003379Y040989D01*X003337Y040989D01*
X003337Y040968D01*X003293Y040968D01*X003293Y040946D01*X003271Y040946D01*
X003271Y040925D01*X003229Y040925D01*X003229Y040903D01*X003206Y040903D01*
X003206Y040882D01*X003186Y040882D01*X003186Y040861D01*X003164Y040861D01*
X003164Y040839D01*X003143Y040839D01*X003143Y040817D01*X003121Y040817D01*
X003121Y040860D01*X003143Y040860D01*X003143Y040881D01*X003165Y040881D01*
X003165Y040925D01*X003185Y040925D01*X003185Y040946D01*X003207Y040946D01*
X003207Y040968D01*X003228Y040968D01*X003228Y040990D01*X003251Y040990D01*
X003251Y041011D01*X003272Y041011D01*X003272Y041033D01*X003294Y041033D01*
X003294Y041054D01*X003337Y041054D01*X003337Y041076D01*X003358Y041076D01*
X003358Y041098D01*X003379Y041098D01*X003379Y041119D01*X003423Y041119D01*
X003423Y041140D01*X003445Y041140D01*X003445Y041162D01*X003488Y041162D01*
X003488Y041184D01*X003531Y041184D01*X003531Y041206D01*X003574Y041206D01*
X003574Y041227D01*X003640Y041227D01*X003640Y041249D01*X003683Y041249D01*
X003683Y041270D01*X003747Y041270D01*X003747Y041293D01*X003813Y041293D01*
X003813Y041314D01*X003878Y041314D01*X003878Y041335D01*X003964Y041335D01*
X003964Y041356D01*X004050Y041356D01*X004050Y041378D01*X004157Y041378D01*
X004157Y041400D01*X004287Y041400D01*X004287Y041421D01*X004481Y041421D01*
X004481Y041443D01*X005044Y041443D01*X005044Y041465D01*X005216Y041465D01*
X005216Y041486D01*X005303Y041486D01*X005303Y041508D01*X005367Y041508D01*
X005367Y041530D01*X005433Y041530D01*X005433Y041551D01*X005562Y041551D01*
X005562Y041529D01*X005583Y041529D01*X005583Y041508D01*X005605Y041508D01*
X005605Y041443D01*X005583Y041443D01*X005583Y041378D01*X005562Y041378D01*
X005562Y041335D01*X005540Y041335D01*X005540Y041292D01*X005518Y041292D01*
X005518Y041270D01*X005497Y041270D01*X005497Y041227D01*X005475Y041227D01*
X005475Y041206D01*X005454Y041206D01*X005454Y041163D01*X005432Y041163D01*
X005432Y041141D01*X005410Y041141D01*X005410Y041098D01*X005389Y041098D01*
X005389Y041076D01*X005367Y041076D01*X005367Y041033D01*X005346Y041033D01*
X005346Y041011D01*X005324Y041011D01*X005324Y040990D01*X005303Y040990D01*
X005303Y040968D01*X005281Y040968D01*X005281Y040925D01*X005259Y040925D01*
X005259Y040904D01*X005238Y040904D01*X005238Y040882D01*X005216Y040882D01*
X005216Y040839D01*X005195Y040839D01*X005195Y040817D01*X005173Y040817D01*
X005173Y040796D01*X005151Y040796D01*X005151Y040752D01*X005130Y040752D01*
X005130Y040730D01*X005108Y040730D01*X005108Y040709D01*X005086Y040709D01*
X005086Y040687D01*X005065Y040687D01*X005065Y040644D01*X005043Y040644D01*
X005043Y040622D01*X005022Y040622D01*X005022Y040601D01*X005000Y040601D01*
X005000Y040580D01*X004979Y040580D01*X004979Y040536D01*X004957Y040536D01*
X004957Y040514D01*X004935Y040514D01*X004935Y040493D01*X004914Y040493D01*
X004914Y040450D01*X004892Y040450D01*X004892Y040428D01*X004870Y040428D01*
X004870Y040407D01*X004848Y040407D01*X004848Y040363D01*X004827Y040363D01*
X004827Y040341D01*X004806Y040341D01*X004806Y040320D01*X004784Y040320D01*
X004784Y040277D01*X004762Y040277D01*X004762Y040255D01*X004741Y040255D01*
X004741Y040212D01*X004719Y040212D01*X004719Y040190D01*X004698Y040190D01*
X004698Y040147D01*X004676Y040147D01*X004676Y040125D01*X004654Y040125D01*
X004654Y040082D01*X004633Y040082D01*X004633Y040039D01*X004611Y040039D01*
X004611Y039996D01*X004590Y039996D01*X004590Y039953D01*X004568Y039953D01*
X004568Y039910D01*X004547Y039910D01*X004547Y039867D01*X004525Y039867D01*
X004525Y039802D01*X004503Y039802D01*X004503Y039650D01*X004525Y039650D01*
X004525Y039607D01*X004547Y039607D01*X004547Y039585D01*X004741Y039585D01*
X004741Y039608D01*X004806Y039608D01*X004806Y039629D01*X004849Y039629D01*
X004849Y039650D01*X004870Y039650D01*X004870Y039673D01*X004892Y039673D01*
X004892Y039694D01*X004914Y039694D01*X004914Y039715D01*X004936Y039715D01*
X004936Y039737D01*X004957Y039737D01*X004957Y039758D01*X004979Y039758D01*
X004979Y039801D01*X005000Y039801D01*X005000Y039823D01*X005022Y039823D01*
X005022Y039845D01*X005064Y039845D01*X005064Y039866D01*X005108Y039866D01*
X005108Y039888D01*X005195Y039888D01*X005195Y039866D01*X005238Y039866D01*
X005238Y039823D01*X005259Y039823D01*X005259Y039651D01*X005238Y039651D01*
X005238Y039607D01*X005216Y039607D01*X005216Y039585D01*X005195Y039585D01*
X005195Y039564D01*X005173Y039564D01*X005173Y039543D01*X005151Y039543D01*
X005151Y039520D01*X005130Y039520D01*X005130Y039499D01*X005107Y039499D01*
X005107Y039477D01*X005065Y039477D01*X005065Y039455D01*X005043Y039455D01*
X005043Y039434D01*X005000Y039434D01*X005000Y039412D01*X004957Y039412D01*
X004957Y039391D01*X004892Y039391D01*X004892Y039369D01*X004828Y039369D01*
X004828Y039348D01*X004741Y039348D01*X004741Y039327D01*X004827Y039327D01*
X004827Y039304D01*X004978Y039304D01*X004978Y039283D01*X005173Y039283D01*
X005173Y039304D01*X005324Y039304D01*X005324Y039326D01*X005388Y039326D01*
X005388Y039348D01*X005454Y039348D01*X005454Y039370D01*X005497Y039370D01*
X005497Y039391D01*X005540Y039391D01*X005540Y039413D01*X005562Y039413D01*
X005562Y039435D01*X005605Y039435D01*X005605Y039455D01*X005626Y039455D01*
X005626Y039478D01*X005670Y039478D01*X005670Y039498D01*X005691Y039498D01*
X005691Y039520D01*X005713Y039520D01*X005713Y039542D01*X005735Y039542D01*
X005735Y039564D01*X005756Y039564D01*X005756Y039586D01*X005778Y039586D01*
X005778Y039607D01*X005800Y039607D01*X005800Y039628D01*X005821Y039628D01*
X005821Y039672D01*X005843Y039672D01*X005843Y039694D01*X005864Y039694D01*
X005864Y039715D01*X005886Y039715D01*X005886Y039758D01*X005908Y039758D01*
X005908Y039801D01*X005929Y039801D01*X005929Y039845D01*X005951Y039845D01*
X005951Y039866D01*X005972Y039866D01*X005972Y039931D01*X005994Y039931D01*
X005994Y039974D01*X006015Y039974D01*X006015Y040017D01*X006037Y040017D01*
X006037Y040061D01*X006058Y040061D01*X006058Y040126D01*X006080Y040126D01*
X006080Y040169D01*X006102Y040169D01*X006102Y040233D01*X006124Y040233D01*
X006124Y040297D01*X006146Y040297D01*X006146Y040341D01*X006167Y040341D01*
X006167Y040407D01*X006189Y040407D01*X006189Y040471D01*X006210Y040471D01*
X006210Y040514D01*X006231Y040514D01*X006231Y040579D01*X006253Y040579D01*
X006253Y040644D01*X006275Y040644D01*X006275Y040730D01*X006296Y040730D01*
X006296Y040796D01*X006317Y040796D01*X006317Y040882D01*X006340Y040882D01*
X006340Y040989D01*X006361Y040989D01*X006361Y041119D01*X006382Y041119D01*
X006382Y041595D01*X006360Y041595D01*X006360Y041681D01*X006339Y041681D01*
X006339Y041767D01*X006318Y041767D01*X006318Y041810D01*X006296Y041810D01*
X006296Y041875D01*X006275Y041875D01*X006275Y041897D01*X006253Y041897D01*
X006253Y041940D01*X006232Y041940D01*X006232Y041962D01*X006210Y041962D01*
X006210Y041984D01*X006189Y041984D01*X006189Y042027D01*X006167Y042027D01*
X006167Y042049D01*X006144Y042049D01*X006144Y042070D01*X006101Y042070D01*
X006101Y042091D01*X006079Y042091D01*X006079Y042113D01*X006059Y042113D01*
X006059Y042134D01*X006017Y042134D01*X006017Y042156D01*X005973Y042156D01*
X005973Y042177D01*X005908Y042177D01*X005908Y042200D01*X005864Y042200D01*
X005864Y042092D01*X005842Y042092D01*X005842Y042048D01*X005821Y042048D01*
X005821Y042005D01*X005799Y042005D01*X005799Y041961D01*X005778Y041961D01*
X005778Y041941D01*X005756Y041941D01*X005756Y041919D01*X005735Y041919D01*
X005735Y041897D01*X005713Y041897D01*X005713Y041875D01*X005692Y041875D01*
X005692Y041854D01*X005648Y041854D01*X005648Y041832D01*X005605Y041832D01*
X005605Y041811D01*X005519Y041811D01*X005519Y041788D01*X005367Y041788D01*
X005367Y041811D01*X005302Y041811D01*X005302Y041832D01*X005259Y041832D01*
X005259Y041854D01*X005238Y041854D01*X005238Y041876D01*X005216Y041876D01*
X005216Y041897D01*X005195Y041897D01*X005195Y041919D01*X005173Y041919D01*
X005173Y041962D01*X005152Y041962D01*X005152Y042135D01*X005173Y042135D01*
X005173Y042178D01*X005195Y042178D01*X005195Y042221D01*X005065Y042221D01*
X005065Y042199D01*X004957Y042199D01*X004957Y042178D01*X004870Y042178D01*
X004870Y042156D01*X004784Y042156D01*X004784Y042135D01*X004719Y042135D01*
X004719Y042113D01*X004633Y042113D01*X004633Y042091D01*X004568Y042091D01*
X004568Y042070D01*X004503Y042070D01*X004503Y042048D01*X004460Y042048D01*
X004460Y042026D01*X004395Y042026D01*X004395Y042005D01*X004352Y042005D01*
X004352Y041983D01*X004287Y041983D01*X004287Y041962D01*X004244Y041962D01*
X004244Y041940D01*X004201Y041940D01*X004201Y041919D01*X004158Y041919D01*
X004158Y041897D01*X004114Y041897D01*X004114Y041875D01*X004050Y041875D01*
X004050Y041854D01*X004006Y041854D01*X004006Y041832D01*X003963Y041832D01*
X003963Y041811D01*X003942Y041811D01*X003942Y041789D01*X003898Y041789D01*
X003898Y041767D01*X003855Y041767D01*X003855Y041746D01*X003812Y041746D01*
X003812Y041724D01*X003769Y041724D01*X003769Y041703D01*X003726Y041703D01*
X003726Y041681D01*X003704Y041681D01*X003704Y041659D01*X003661Y041659D01*
X003661Y041638D01*X003617Y041638D01*X003617Y041616D01*X003574Y041616D01*
X003574Y041595D01*X003553Y041595D01*X003553Y041573D01*X003509Y041573D01*
X003509Y041552D01*X003466Y041552D01*X003466Y041530D01*X003445Y041530D01*
X003445Y041508D01*X003402Y041508D01*X003402Y041486D01*X003380Y041486D01*
X003380Y041465D01*X003337Y041465D01*X003337Y041443D01*X003293Y041443D01*
X003293Y041422D01*X003272Y041422D01*X003272Y041400D01*X003229Y041400D01*
X003229Y041379D01*X003207Y041379D01*X003207Y041357D01*X003185Y041357D01*
X003185Y041336D01*X003142Y041336D01*X003142Y041314D01*X003120Y041314D01*
X003120Y041292D01*X003099Y041292D01*X003099Y041271D01*X003077Y041271D01*
X003077Y041249D01*X003056Y041249D01*X003056Y041227D01*X003034Y041227D01*
X003034Y041206D01*X003013Y041206D01*X003013Y041184D01*X002991Y041184D01*
X002991Y041162D01*X002969Y041162D01*X002969Y041141D01*X002948Y041141D01*
X002948Y041098D01*X002926Y041098D01*X002926Y041076D01*X002905Y041076D01*
X002905Y041033D01*X002883Y041033D01*X002883Y041011D01*X002861Y041011D01*
X002861Y040968D01*X002840Y040968D01*X002840Y040925D01*X002818Y040925D01*
X002818Y040860D01*X002797Y040860D01*X002797Y040774D01*X002775Y040774D01*
X002775Y040514D01*G37*G36*X006923Y039961D02*X007420Y039961D01*X007420Y040004D01*
X007441Y040004D01*X007441Y040112D01*X007463Y040112D01*X007463Y040220D01*
X007484Y040220D01*X007484Y040328D01*X007506Y040328D01*X007506Y040436D01*
X007528Y040436D01*X007528Y040566D01*X007549Y040566D01*X007549Y040674D01*
X007571Y040674D01*X007571Y040782D01*X007592Y040782D01*X007592Y040890D01*
X007614Y040890D01*X007614Y040998D01*X007636Y040998D01*X007636Y041106D01*
X007657Y041106D01*X007657Y041235D01*X007679Y041235D01*X007679Y041343D01*
X007700Y041343D01*X007700Y041451D01*X007722Y041451D01*X007722Y041560D01*
X007744Y041560D01*X007744Y041603D01*X007225Y041603D01*X007225Y041603D01*
X007225Y041516D01*X007204Y041516D01*X007204Y041408D01*X007182Y041408D01*
X007182Y041300D01*X007160Y041300D01*X007160Y041171D01*X007139Y041171D01*
X007139Y041063D01*X007117Y041063D01*X007117Y040955D01*X007096Y040955D01*
X007096Y040847D01*X007074Y040847D01*X007074Y040739D01*X007052Y040739D01*
X007052Y040609D01*X007031Y040609D01*X007031Y040501D01*X007009Y040501D01*
X007009Y040393D01*X006988Y040393D01*X006988Y040285D01*X006966Y040285D01*
X006966Y040177D01*X006944Y040177D01*X006944Y040047D01*X006923Y040047D01*
X006923Y039961D01*G37*G36*X007592Y039983D02*X007592Y040047D01*X007614Y040047D01*
X007614Y040155D01*X007636Y040155D01*X007636Y040263D01*X007657Y040263D01*
X007657Y040393D01*X007679Y040393D01*X007679Y040479D01*X007700Y040479D01*
X007700Y040609D01*X007722Y040609D01*X007722Y040717D01*X007744Y040717D01*
X007744Y040825D01*X007765Y040825D01*X007765Y040911D01*X007787Y040911D01*
X007787Y040998D01*X009040Y040998D01*X009040Y040976D01*X009169Y040976D01*
X009169Y040955D01*X009234Y040955D01*X009234Y040933D01*X009299Y040933D01*
X009299Y040911D01*X009342Y040911D01*X009342Y040890D01*X009364Y040890D01*
X009364Y040868D01*X009407Y040868D01*X009407Y040825D01*X009429Y040825D01*
X009429Y040674D01*X009407Y040674D01*X009407Y040544D01*X009385Y040544D01*
X009385Y040393D01*X009364Y040393D01*X009364Y040263D01*X009342Y040263D01*
X009342Y040134D01*X009321Y040134D01*X009321Y039983D01*X008845Y039983D01*
X008845Y040026D01*X008867Y040026D01*X008867Y040134D01*X008889Y040134D01*
X008889Y040285D01*X008910Y040285D01*X008910Y040393D01*X008932Y040393D01*
X008932Y040523D01*X008953Y040523D01*X008953Y040631D01*X008975Y040631D01*
X008975Y040760D01*X008953Y040760D01*X008953Y040782D01*X008910Y040782D01*
X008910Y040803D01*X008197Y040803D01*X008197Y040782D01*X008176Y040782D01*
X008176Y040652D01*X008154Y040652D01*X008154Y040544D01*X008132Y040544D01*
X008132Y040436D01*X008111Y040436D01*X008111Y040307D01*X008089Y040307D01*
X008089Y040220D01*X008068Y040220D01*X008068Y040091D01*X008046Y040091D01*
X008046Y039983D01*X007592Y039983D01*G37*G36*X009472Y040155D02*X009472Y040285D01*
X009493Y040285D01*X009493Y040393D01*X009515Y040393D01*X009515Y040523D01*
X009537Y040523D01*X009537Y040631D01*X009558Y040631D01*X009558Y040739D01*
X009580Y040739D01*X009580Y040868D01*X009601Y040868D01*X009601Y040976D01*
X009623Y040976D01*X009623Y041084D01*X009645Y041084D01*X009645Y041214D01*
X009666Y041214D01*X009666Y041322D01*X009688Y041322D01*X009688Y041408D01*
X010163Y041408D01*X010163Y041387D01*X010142Y041387D01*X010142Y041279D01*
X010120Y041279D01*X010120Y041192D01*X010098Y041192D01*X010098Y041084D01*
X010077Y041084D01*X010077Y040998D01*X010638Y040998D01*X010638Y040955D01*
X010617Y040955D01*X010617Y040825D01*X010595Y040825D01*X010595Y040803D01*
X010034Y040803D01*X010034Y040739D01*X010012Y040739D01*X010012Y040652D01*
X009990Y040652D01*X009990Y040544D01*X009969Y040544D01*X009969Y040436D01*
X009947Y040436D01*X009947Y040350D01*X009925Y040350D01*X009925Y040199D01*
X009947Y040199D01*X009947Y040177D01*X009990Y040177D01*X009990Y040155D01*
X010530Y040155D01*X010530Y040026D01*X010509Y040026D01*X010509Y039961D01*
X009969Y039961D01*X009969Y039983D01*X009731Y039983D01*X009731Y040004D01*
X009666Y040004D01*X009666Y040026D01*X009601Y040026D01*X009601Y040047D01*
X009580Y040047D01*X009580Y040069D01*X009537Y040069D01*X009537Y040091D01*
X009515Y040091D01*X009515Y040112D01*X009493Y040112D01*X009493Y040155D01*
X009472Y040155D01*G37*G36*X010660Y040393D02*X010660Y040479D01*X010682Y040479D01*
X010682Y040587D01*X010703Y040587D01*X010703Y040717D01*X010725Y040717D01*
X010725Y040825D01*X010746Y040825D01*X010746Y040890D01*X010768Y040890D01*
X010768Y040911D01*X010790Y040911D01*X010790Y040933D01*X010811Y040933D01*
X010811Y040955D01*X010854Y040955D01*X010854Y040976D01*X010941Y040976D01*
X010941Y040998D01*X012345Y040998D01*X012345Y040976D01*X012388Y040976D01*
X012388Y040955D01*X012410Y040955D01*X012410Y040933D01*X012431Y040933D01*
X012431Y040695D01*X012410Y040695D01*X012410Y040587D01*X011978Y040587D01*
X011978Y040674D01*X011999Y040674D01*X011999Y040782D01*X011978Y040782D01*
X011978Y040803D01*X011243Y040803D01*X011243Y040782D01*X011200Y040782D01*
X011200Y040760D01*X011178Y040760D01*X011178Y040739D01*X011157Y040739D01*
X011157Y040674D01*X011135Y040674D01*X011135Y040609D01*X011114Y040609D01*
X011114Y040587D01*X012410Y040587D01*X012410Y040544D01*X012388Y040544D01*
X012388Y040479D01*X012367Y040479D01*X012367Y040436D01*X012323Y040436D01*
X012323Y040415D01*X012302Y040415D01*X012302Y040393D01*X010660Y040393D01*G37*G36*
X010617Y040112D02*X010617Y040242D01*X010638Y040242D01*X010638Y040371D01*
X010660Y040371D01*X010660Y040393D01*X011092Y040393D01*X011092Y040307D01*
X011070Y040307D01*X011070Y040199D01*X011114Y040199D01*X011114Y040177D01*
X011178Y040177D01*X011178Y040155D01*X012907Y040155D01*X012907Y040112D01*
X012885Y040112D01*X012885Y039983D01*X012863Y039983D01*X012863Y039961D01*
X011006Y039961D01*X011006Y039983D01*X010833Y039983D01*X010833Y040004D01*
X010768Y040004D01*X010768Y040026D01*X010703Y040026D01*X010703Y040047D01*
X010682Y040047D01*X010682Y040069D01*X010660Y040069D01*X010660Y040091D01*
X010638Y040091D01*X010638Y040112D01*X010617Y040112D01*G37*G36*X012453Y040155D02*
X012453Y040199D01*X012475Y040199D01*X012475Y040307D01*X012496Y040307D01*
X012496Y040415D01*X012518Y040415D01*X012518Y040523D01*X012539Y040523D01*
X012539Y040631D01*X012561Y040631D01*X012561Y040739D01*X012583Y040739D01*
X012583Y040847D01*X012604Y040847D01*X012604Y040890D01*X012626Y040890D01*
X012626Y040911D01*X012647Y040911D01*X012647Y040933D01*X012669Y040933D01*
X012669Y040955D01*X012712Y040955D01*X012712Y040976D01*X012799Y040976D01*
X012799Y040998D01*X014268Y040998D01*X014268Y040955D01*X014246Y040955D01*
X014246Y040890D01*X014224Y040890D01*X014224Y040847D01*X014203Y040847D01*
X014203Y040803D01*X014181Y040803D01*X014181Y040760D01*X014160Y040760D01*
X014160Y040695D01*X014138Y040695D01*X014138Y040652D01*X014116Y040652D01*
X014116Y040609D01*X014095Y040609D01*X014095Y040566D01*X014073Y040566D01*
X014073Y040501D01*X014052Y040501D01*X014052Y040458D01*X014030Y040458D01*
X014030Y040415D01*X014008Y040415D01*X014008Y040371D01*X013987Y040371D01*
X013987Y040328D01*X013965Y040328D01*X013965Y040263D01*X013944Y040263D01*
X013944Y040220D01*X013922Y040220D01*X013922Y040177D01*X013900Y040177D01*
X013900Y040134D01*X013879Y040134D01*X013879Y040069D01*X013857Y040069D01*
X013857Y040026D01*X013836Y040026D01*X013836Y039983D01*X013814Y039983D01*
X013814Y039939D01*X013792Y039939D01*X013792Y039874D01*X013771Y039874D01*
X013771Y039831D01*X013749Y039831D01*X013749Y039788D01*X013728Y039788D01*
X013728Y039745D01*X013706Y039745D01*X013706Y039680D01*X013684Y039680D01*
X013684Y039637D01*X013663Y039637D01*X013663Y039594D01*X013641Y039594D01*
X013641Y039550D01*X013620Y039550D01*X013620Y039637D01*X013641Y039637D01*
X013641Y039766D01*X013663Y039766D01*X013663Y039896D01*X013684Y039896D01*
X013684Y040004D01*X013706Y040004D01*X013706Y040134D01*X013728Y040134D01*
X013728Y040263D01*X013749Y040263D01*X013749Y040393D01*X013771Y040393D01*
X013771Y040523D01*X013792Y040523D01*X013792Y040652D01*X013814Y040652D01*
X013814Y040760D01*X013836Y040760D01*X013836Y040803D01*X013101Y040803D01*
X013101Y040782D01*X013058Y040782D01*X013058Y040760D01*X013036Y040760D01*
X013036Y040739D01*X013015Y040739D01*X013015Y040652D01*X012993Y040652D01*
X012993Y040544D01*X012971Y040544D01*X012971Y040436D01*X012950Y040436D01*
X012950Y040328D01*X012928Y040328D01*X012928Y040220D01*X012907Y040220D01*
X012907Y040155D01*X012453Y040155D01*G37*G36*X013598Y039542D02*X013598Y039564D01*
X013620Y039564D01*X013620Y039542D01*X013598Y039542D01*
G37*G36*X013857Y040998D02*
X013857Y041019D01*X013879Y041019D01*X013879Y041149D01*X013900Y041149D01*
X013900Y041279D01*X013922Y041279D01*X013922Y041408D01*X013944Y041408D01*
X013944Y041495D01*X014440Y041495D01*X014440Y041473D01*X014462Y041473D01*
X014462Y041430D01*X014484Y041430D01*X014484Y041387D01*X014505Y041387D01*
X014505Y041343D01*X014527Y041343D01*X014527Y041322D01*X014548Y041322D01*
X014548Y041279D01*X014570Y041279D01*X014570Y041235D01*X014592Y041235D01*
X014592Y041192D01*X014613Y041192D01*X014613Y041149D01*X014635Y041149D01*
X014635Y041106D01*X014656Y041106D01*X014656Y041084D01*X014678Y041084D01*
X014678Y041041D01*X014700Y041041D01*X014700Y040998D01*X014721Y040998D01*
X014721Y040955D01*X014743Y040955D01*X014743Y040911D01*X014765Y040911D01*
X014765Y040868D01*X014786Y040868D01*X014786Y040847D01*X014808Y040847D01*
X014808Y040803D01*X014462Y040803D01*X014462Y040825D01*X014440Y040825D01*
X014440Y040868D01*X014419Y040868D01*X014419Y040911D01*X014397Y040911D01*
X014397Y040955D01*X014376Y040955D01*X014376Y040976D01*X014354Y040976D01*
X014354Y041019D01*X014332Y041019D01*X014332Y041063D01*X014311Y041063D01*
X014311Y041041D01*X014289Y041041D01*X014289Y040998D01*X013857Y040998D01*G37*G36*
X014462Y040782D02*X014484Y040782D01*X014484Y040739D01*X014505Y040739D01*
X014505Y040717D01*X014527Y040717D01*X014527Y040674D01*X014548Y040674D01*
X014548Y040631D01*X014570Y040631D01*X014570Y040587D01*X014592Y040587D01*
X014592Y040544D01*X014613Y040544D01*X014613Y040501D01*X014635Y040501D01*
X014635Y040479D01*X014656Y040479D01*X014656Y040436D01*X014678Y040436D01*
X014678Y040393D01*X014700Y040393D01*X014700Y040350D01*X014721Y040350D01*
X014721Y040307D01*X014743Y040307D01*X014743Y040263D01*X014765Y040263D01*
X014765Y040242D01*X014786Y040242D01*X014786Y040199D01*X014808Y040199D01*
X014808Y040155D01*X014829Y040155D01*X014829Y040112D01*X014851Y040112D01*
X014851Y040069D01*X014873Y040069D01*X014873Y040047D01*X014894Y040047D01*
X014894Y040004D01*X014916Y040004D01*X014916Y039961D01*X015413Y039961D01*
X015413Y040026D01*X015434Y040026D01*X015434Y040155D01*X015456Y040155D01*
X015456Y040263D01*X015477Y040263D01*X015477Y040393D01*X015499Y040393D01*
X015499Y040523D01*X015521Y040523D01*X015521Y040631D01*X015542Y040631D01*
X015542Y040760D01*X015564Y040760D01*X015564Y040868D01*X015585Y040868D01*
X015585Y040998D01*X015607Y040998D01*X015607Y041127D01*X015629Y041127D01*
X015629Y041257D01*X015650Y041257D01*X015650Y041365D01*X015672Y041365D01*
X015672Y041495D01*X015693Y041495D01*X015693Y041624D01*X015715Y041624D01*
X015715Y041732D01*X015737Y041732D01*X015737Y041819D01*X015715Y041819D01*
X015715Y041776D01*X015693Y041776D01*X015693Y041711D01*X015672Y041711D01*
X015672Y041668D01*X015650Y041668D01*X015650Y041624D01*X015629Y041624D01*
X015629Y041581D01*X015607Y041581D01*X015607Y041538D01*X015585Y041538D01*
X015585Y041495D01*X015564Y041495D01*X015564Y041451D01*X015542Y041451D01*
X015542Y041408D01*X015521Y041408D01*X015521Y041365D01*X015499Y041365D01*
X015499Y041322D01*X015477Y041322D01*X015477Y041279D01*X015456Y041279D01*
X015456Y041214D01*X015434Y041214D01*X015434Y041171D01*X015413Y041171D01*
X015413Y041127D01*X015391Y041127D01*X015391Y041084D01*X015369Y041084D01*
X015369Y041041D01*X015348Y041041D01*X015348Y040998D01*X015326Y040998D01*
X015326Y040955D01*X015305Y040955D01*X015305Y040911D01*X015283Y040911D01*
X015283Y040868D01*X015261Y040868D01*X015261Y040825D01*X015240Y040825D01*
X015240Y040782D01*X015218Y040782D01*X015218Y040717D01*X015197Y040717D01*
X015197Y040674D01*X015175Y040674D01*X015175Y040631D01*X015153Y040631D01*
X015153Y040587D01*X015132Y040587D01*X015132Y040544D01*X015110Y040544D01*
X015110Y040501D01*X015089Y040501D01*X015089Y040458D01*X015067Y040458D01*
X015067Y040415D01*X015024Y040415D01*X015024Y040436D01*X015002Y040436D01*
X015002Y040479D01*X014981Y040479D01*X014981Y040523D01*X014959Y040523D01*
X014959Y040566D01*X014937Y040566D01*X014937Y040609D01*X014916Y040609D01*
X014916Y040631D01*X014894Y040631D01*X014894Y040674D01*X014873Y040674D01*
X014873Y040717D01*X014851Y040717D01*X014851Y040760D01*X014829Y040760D01*
X014829Y040803D01*X014462Y040803D01*X014462Y040782D01*G37*G36*X015261Y041819D02*
X015283Y041819D01*X015283Y041732D01*X015305Y041732D01*X015305Y041668D01*
X015326Y041668D01*X015326Y041624D01*X015348Y041624D01*X015348Y041603D01*
X015369Y041603D01*X015369Y041560D01*X015391Y041560D01*X015391Y041538D01*
X015434Y041538D01*X015434Y041516D01*X015521Y041516D01*X015521Y041538D01*
X015542Y041538D01*X015542Y041624D01*X015521Y041624D01*X015521Y041646D01*
X015499Y041646D01*X015499Y041668D01*X015477Y041668D01*X015477Y041689D01*
X015456Y041689D01*X015456Y041732D01*X015434Y041732D01*X015434Y041797D01*
X015413Y041797D01*X015413Y041927D01*X015434Y041927D01*X015434Y041992D01*
X015456Y041992D01*X015456Y042035D01*X015305Y042035D01*X015305Y042013D01*
X015283Y042013D01*X015283Y041905D01*X015261Y041905D01*X015261Y041819D01*G37*G36*
X015305Y042035D02*X015477Y042035D01*X015477Y042056D01*X015499Y042056D01*
X015499Y042100D01*X015521Y042100D01*X015521Y042121D01*X015564Y042121D01*
X015564Y042143D01*X015607Y042143D01*X015607Y042164D01*X015693Y042164D01*
X015693Y042186D01*X015780Y042186D01*X015780Y042164D01*X015866Y042164D01*
X015866Y042143D01*X015888Y042143D01*X015888Y042121D01*X015931Y042121D01*
X015931Y042100D01*X015953Y042100D01*X015953Y042078D01*X015974Y042078D01*
X015974Y042056D01*X015996Y042056D01*X015996Y042013D01*X016169Y042013D01*
X016169Y042035D01*X016147Y042035D01*X016147Y042078D01*X016125Y042078D01*
X016125Y042121D01*X016104Y042121D01*X016104Y042143D01*X016082Y042143D01*
X016082Y042164D01*X016061Y042164D01*X016061Y042186D01*X016039Y042186D01*
X016039Y042208D01*X016017Y042208D01*X016017Y042229D01*X015996Y042229D01*
X015996Y042251D01*X015953Y042251D01*X015953Y042272D01*X015909Y042272D01*
X015909Y042294D01*X015845Y042294D01*X015845Y042316D01*X015607Y042316D01*
X015607Y042294D01*X015542Y042294D01*X015542Y042272D01*X015499Y042272D01*
X015499Y042251D01*X015477Y042251D01*X015477Y042229D01*X015434Y042229D01*
X015434Y042208D01*X015413Y042208D01*X015413Y042186D01*X015391Y042186D01*
X015391Y042164D01*X015369Y042164D01*X015369Y042121D01*X015348Y042121D01*
X015348Y042100D01*X015326Y042100D01*X015326Y042056D01*X015305Y042056D01*
X015305Y042035D01*G37*G36*X015758Y041451D02*X015780Y041451D01*X015780Y041430D01*
X015823Y041430D01*X015823Y041408D01*X015866Y041408D01*X015866Y041430D01*
X015909Y041430D01*X015909Y041451D01*X015953Y041451D01*X015953Y041473D01*
X015996Y041473D01*X015996Y041495D01*X016017Y041495D01*X016017Y041516D01*
X016039Y041516D01*X016039Y041538D01*X016061Y041538D01*X016061Y041560D01*
X016082Y041560D01*X016082Y041581D01*X016104Y041581D01*X016104Y041624D01*
X016125Y041624D01*X016125Y041646D01*X016147Y041646D01*X016147Y041689D01*
X016169Y041689D01*X016169Y041776D01*X016190Y041776D01*X016190Y041948D01*
X016169Y041948D01*X016169Y042013D01*X016017Y042013D01*X016017Y041970D01*
X016039Y041970D01*X016039Y041754D01*X016017Y041754D01*X016017Y041711D01*
X015996Y041711D01*X015996Y041668D01*X015974Y041668D01*X015974Y041646D01*
X015953Y041646D01*X015953Y041624D01*X015931Y041624D01*X015931Y041603D01*
X015888Y041603D01*X015888Y041581D01*X015845Y041581D01*X015845Y041560D01*
X015801Y041560D01*X015801Y041538D01*X015780Y041538D01*X015780Y041516D01*
X015758Y041516D01*X015758Y041451D01*G37*G36*X017530Y040155D02*X017530Y040177D01*
X017573Y040177D01*X017573Y040199D01*X017594Y040199D01*X017594Y040220D01*
X017638Y040220D01*X017638Y040242D01*X017681Y040242D01*X017681Y040263D01*
X017702Y040263D01*X017702Y040285D01*X017746Y040285D01*X017746Y040307D01*
X017767Y040307D01*X017767Y040328D01*X017789Y040328D01*X017789Y040350D01*
X017832Y040350D01*X017832Y040371D01*X017875Y040371D01*X017875Y040393D01*
X017897Y040393D01*X017897Y040415D01*X017940Y040415D01*X017940Y040436D01*
X017962Y040436D01*X017962Y040458D01*X018502Y040458D01*X018502Y040436D01*
X018523Y040436D01*X018523Y040415D01*X018567Y040415D01*X018567Y040393D01*
X018588Y040393D01*X018588Y040371D01*X018610Y040371D01*X018610Y040350D01*
X018631Y040350D01*X018631Y040328D01*X018675Y040328D01*X018675Y040307D01*
X018696Y040307D01*X018696Y040285D01*X018718Y040285D01*X018718Y040263D01*
X018739Y040263D01*X018739Y040242D01*X018783Y040242D01*X018783Y040220D01*
X018804Y040220D01*X018804Y040199D01*X018826Y040199D01*X018826Y040177D01*
X018847Y040177D01*X018847Y040155D01*X018891Y040155D01*X018891Y040134D01*
X018912Y040134D01*X018912Y040112D01*X018934Y040112D01*X018934Y040091D01*
X018955Y040091D01*X018955Y040069D01*X018977Y040069D01*X018977Y040047D01*
X019020Y040047D01*X019020Y040026D01*X019042Y040026D01*X019042Y040004D01*
X019063Y040004D01*X019063Y039983D01*X019085Y039983D01*X019085Y039961D01*
X018631Y039961D01*X018631Y039983D01*X018588Y039983D01*X018588Y040004D01*
X018567Y040004D01*X018567Y040026D01*X018545Y040026D01*X018545Y040047D01*
X018523Y040047D01*X018523Y040069D01*X018502Y040069D01*X018502Y040091D01*
X018480Y040091D01*X018480Y040112D01*X018437Y040112D01*X018437Y040134D01*
X018415Y040134D01*X018415Y040155D01*X018394Y040155D01*X018394Y040177D01*
X018372Y040177D01*X018372Y040199D01*X018351Y040199D01*X018351Y040220D01*
X018329Y040220D01*X018329Y040242D01*X018286Y040242D01*X018286Y040263D01*
X018264Y040263D01*X018264Y040285D01*X018243Y040285D01*X018243Y040307D01*
X018199Y040307D01*X018199Y040285D01*X018156Y040285D01*X018156Y040263D01*
X018135Y040263D01*X018135Y040242D01*X018091Y040242D01*X018091Y040220D01*
X018048Y040220D01*X018048Y040199D01*X018027Y040199D01*X018027Y040177D01*
X017983Y040177D01*X017983Y040155D01*X017530Y040155D01*G37*G36*X017465Y040976D02*
X017465Y040998D01*X017854Y040998D01*X017854Y040976D01*X017875Y040976D01*
X017875Y040955D01*X017918Y040955D01*X017918Y040933D01*X017940Y040933D01*
X017940Y040911D01*X017962Y040911D01*X017962Y040890D01*X017983Y040890D01*
X017983Y040868D01*X018005Y040868D01*X018005Y040847D01*X018027Y040847D01*
X018027Y040825D01*X018048Y040825D01*X018048Y040803D01*X018070Y040803D01*
X018070Y040782D01*X018091Y040782D01*X018091Y040760D01*X018135Y040760D01*
X018135Y040739D01*X018156Y040739D01*X018156Y040717D01*X018178Y040717D01*
X018178Y040695D01*X018199Y040695D01*X018199Y040674D01*X018221Y040674D01*
X018221Y040652D01*X018264Y040652D01*X018264Y040674D01*X018307Y040674D01*
X018307Y040695D01*X018351Y040695D01*X018351Y040717D01*X018372Y040717D01*
X018372Y040739D01*X018415Y040739D01*X018415Y040760D01*X018437Y040760D01*
X018437Y040782D01*X018480Y040782D01*X018480Y040803D01*X018523Y040803D01*
X018523Y040825D01*X018545Y040825D01*X018545Y040847D01*X018588Y040847D01*
X018588Y040868D01*X018610Y040868D01*X018610Y040890D01*X018653Y040890D01*
X018653Y040911D01*X018675Y040911D01*X018675Y040933D01*X018718Y040933D01*
X018718Y040955D01*X018739Y040955D01*X018739Y040976D01*X018783Y040976D01*
X018783Y040998D01*X019236Y040998D01*X019236Y040976D01*X019193Y040976D01*
X019193Y040955D01*X019171Y040955D01*X019171Y040933D01*X019128Y040933D01*
X019128Y040911D01*X019107Y040911D01*X019107Y040890D01*X019063Y040890D01*
X019063Y040868D01*X019042Y040868D01*X019042Y040847D01*X018999Y040847D01*
X018999Y040825D01*X018977Y040825D01*X018977Y040803D01*X018934Y040803D01*
X018934Y040782D01*X018912Y040782D01*X018912Y040760D01*X018869Y040760D01*
X018869Y040739D01*X018847Y040739D01*X018847Y040717D01*X018804Y040717D01*
X018804Y040695D01*X018783Y040695D01*X018783Y040674D01*X018739Y040674D01*
X018739Y040652D01*X018718Y040652D01*X018718Y040631D01*X018675Y040631D01*
X018675Y040609D01*X018653Y040609D01*X018653Y040587D01*X018610Y040587D01*
X018610Y040566D01*X018588Y040566D01*X018588Y040544D01*X018545Y040544D01*
X018545Y040523D01*X018523Y040523D01*X018523Y040501D01*X018480Y040501D01*
X018480Y040458D01*X018005Y040458D01*X018005Y040523D01*X017983Y040523D01*
X017983Y040544D01*X017940Y040544D01*X017940Y040566D01*X017918Y040566D01*
X017918Y040587D01*X017897Y040587D01*X017897Y040609D01*X017875Y040609D01*
X017875Y040631D01*X017854Y040631D01*X017854Y040652D01*X017832Y040652D01*
X017832Y040674D01*X017810Y040674D01*X017810Y040695D01*X017789Y040695D01*
X017789Y040717D01*X017746Y040717D01*X017746Y040739D01*X017724Y040739D01*
X017724Y040760D01*X017702Y040760D01*X017702Y040782D01*X017681Y040782D01*
X017681Y040803D01*X017659Y040803D01*X017659Y040825D01*X017638Y040825D01*
X017638Y040847D01*X017616Y040847D01*X017616Y040868D01*X017573Y040868D01*
X017573Y040890D01*X017551Y040890D01*X017551Y040911D01*X017530Y040911D01*
X017530Y040933D01*X017508Y040933D01*X017508Y040955D01*X017486Y040955D01*
X017486Y040976D01*X017465Y040976D01*G37*X000000Y000000D02*M02*
