%MOMM*%
%FSLAX33Y33*%
%ADD10C,0.203200*%
%ADD11C,0.120000*%
%ADD12C,0.152400*%
%ADD15C,0.070000*%
%ADD20C,1.400000*%
%ADD133C,0.530000*%
%ADD134C,3.800000*%
%ADD135R,1.400000X1.400000*%
%ADD136C,1.300000*%
%ADD137C,2.100000*%
%ADD141R,0.800000X0.900000*%
%ADD147R,0.900000X0.800000*%
%ADD153R,2.000000X1.300000*%
%ADD155R,1.250000X1.100000*%
%ADD157C,0.113790*%
G90*G71*G01*D02*G54D10*X000000Y000000D02*X057000Y000000D01*X057000Y035000D01*
X000000Y035000D01*X000000Y000000D01*X008520Y001730D02*X008520Y004270D01*
X005980Y001730D02*X005980Y004270D01*X013600Y004270D01*X013600Y001730D01*
X005980Y001730D01*X002050Y018660D02*X002068Y018475D01*X002122Y018296D01*
X002210Y018132D01*X002328Y017988D01*X002472Y017870D01*X002636Y017782D01*
X002815Y017728D01*X003000Y017710D01*X003185Y017728D01*X003364Y017782D01*
X003528Y017870D01*X003672Y017988D01*X003790Y018132D01*X003878Y018296D01*
X003932Y018475D01*X003950Y018660D01*X003932Y018845D01*X003878Y019024D01*
X003790Y019188D01*X003672Y019332D01*X003528Y019450D01*X003364Y019538D01*
X003185Y019592D01*X003000Y019610D01*X002815Y019592D01*X002636Y019538D01*
X002472Y019450D01*X002328Y019332D01*X002210Y019188D01*X002122Y019024D01*
X002068Y018845D01*X002050Y018660D01*X004270Y007230D02*X001730Y007230D01*
X001730Y027550D01*X004270Y027550D01*X004270Y007230D01*X004270Y009770D02*
X001730Y009770D01*X049050Y014550D02*X049050Y008950D01*X051450Y008950D01*
X051450Y014550D01*X049050Y014550D01*X049050Y011750D02*X051450Y011750D01*
X053050Y018660D02*X053068Y018475D01*X053122Y018296D01*X053210Y018132D01*
X053328Y017988D01*X053472Y017870D01*X053636Y017782D01*X053815Y017728D01*
X054000Y017710D01*X054185Y017728D01*X054364Y017782D01*X054528Y017870D01*
X054672Y017988D01*X054790Y018132D01*X054878Y018296D01*X054932Y018475D01*
X054950Y018660D01*X054932Y018845D01*X054878Y019024D01*X054790Y019188D01*
X054672Y019332D01*X054528Y019450D01*X054364Y019538D01*X054185Y019592D01*
X054000Y019610D01*X053815Y019592D01*X053636Y019538D01*X053472Y019450D01*
X053328Y019332D01*X053210Y019188D01*X053122Y019024D01*X053068Y018845D01*
X053050Y018660D01*X055270Y007230D02*X052730Y007230D01*X052730Y027550D01*
X055270Y027550D01*X055270Y007230D01*X055270Y009770D02*X052730Y009770D01*
X026520Y030730D02*X026520Y033270D01*X023980Y033270D02*X023980Y030730D01*
X039220Y030730D01*X039220Y033270D01*X023980Y033270D01*X034394Y032000D02*
X034414Y031802D01*X034471Y031611D01*X034565Y031436D01*X034692Y031282D01*
X034846Y031155D01*X035021Y031061D01*X035212Y031004D01*X035410Y030984D01*
X035608Y031004D01*X035799Y031061D01*X035974Y031155D01*X036128Y031282D01*
X036255Y031436D01*X036349Y031611D01*X036406Y031802D01*X036426Y032000D01*
X036406Y032198D01*X036349Y032389D01*X036255Y032564D01*X036128Y032718D01*
X035974Y032845D01*X035799Y032939D01*X035608Y032996D01*X035410Y033016D01*
X035212Y032996D01*X035021Y032939D01*X034846Y032845D01*X034692Y032718D01*
X034565Y032564D01*X034471Y032389D01*X034414Y032198D01*X034394Y032000D01*D02*
G54D11*X012959Y005475D02*X012959Y004945D01*X012991Y004839D01*X013023Y004807D01*
X013083Y004775D01*X013150Y004775D01*X013211Y004807D01*X013242Y004839D01*
X013274Y004945D01*X013274Y005008D01*X012660Y005337D02*X012635Y005369D01*
X012596Y005464D01*X012596Y004775D01*X012272Y005305D02*X012272Y005337D01*
X012250Y005401D01*X012227Y005433D01*X012183Y005475D01*X012090Y005475D01*
X012046Y005433D01*X012024Y005401D01*X012001Y005337D01*X012001Y005273D01*
X012024Y005210D01*X012068Y005104D01*X012294Y004775D01*X011976Y004775D01*
X033899Y002400D02*X033899Y003100D01*X033695Y003100D01*X033629Y003058D01*
X033606Y003026D01*X033581Y002962D01*X033581Y002898D01*X033606Y002835D01*
X033629Y002792D01*X033695Y002761D01*X033899Y002761D01*X033743Y002761D02*
X033581Y002400D01*X033365Y003089D02*X033116Y003089D01*X033253Y002824D01*
X033183Y002824D01*X033139Y002792D01*X033116Y002761D01*X033091Y002665D01*
X033091Y002591D01*X033116Y002495D01*X033161Y002432D01*X033228Y002400D01*
X033298Y002400D01*X033365Y002432D01*X033387Y002464D01*X033409Y002527D01*
X032897Y002930D02*X032897Y002962D01*X032875Y003026D01*X032852Y003058D01*
X032808Y003100D01*X032715Y003100D01*X032671Y003058D01*X032649Y003026D01*
X032626Y002962D01*X032626Y002898D01*X032649Y002835D01*X032693Y002729D01*
X032919Y002400D01*X032601Y002400D01*X044430Y002914D02*X044494Y002892D01*
X044558Y002847D01*X044600Y002806D01*X044600Y002720D01*X044558Y002679D01*
X044494Y002637D01*X044430Y002615D01*X044335Y002596D01*X044165Y002596D01*
X044070Y002615D01*X043995Y002637D01*X043932Y002679D01*X043900Y002720D01*
X043900Y002806D01*X043932Y002847D01*X043995Y002892D01*X044070Y002914D01*
X044589Y003356D02*X044589Y003130D01*X044292Y003108D01*X044324Y003130D01*
X044356Y003197D01*X044356Y003264D01*X044324Y003334D01*X044261Y003379D01*
X044165Y003404D01*X044091Y003404D01*X043995Y003379D01*X043932Y003334D01*
X043900Y003264D01*X043900Y003197D01*X043932Y003130D01*X043964Y003108D01*
X044027Y003086D01*X017150Y004846D02*X017850Y004846D01*X017850Y005050D01*
X017808Y005116D01*X017776Y005139D01*X017712Y005164D01*X017648Y005164D01*
X017585Y005139D01*X017542Y005116D01*X017511Y005050D01*X017511Y004846D01*
X017511Y005002D02*X017150Y005164D01*X017839Y005447D02*X017808Y005380D01*
X017744Y005358D01*X017680Y005358D01*X017606Y005380D01*X017574Y005425D01*
X017542Y005517D01*X017511Y005584D01*X017447Y005629D01*X017383Y005654D01*
X017277Y005654D01*X017214Y005629D01*X017182Y005606D01*X017150Y005540D01*
X017150Y005447D01*X017182Y005380D01*X017214Y005358D01*X017277Y005336D01*
X017383Y005336D01*X017447Y005358D01*X017511Y005403D01*X017542Y005470D01*
X017574Y005562D01*X017606Y005606D01*X017680Y005629D01*X017744Y005629D01*
X017808Y005606D01*X017839Y005540D01*X017839Y005447D01*X018650Y004846D02*
X019350Y004846D01*X019350Y005050D01*X019308Y005116D01*X019276Y005139D01*
X019212Y005164D01*X019148Y005164D01*X019085Y005139D01*X019042Y005116D01*
X019011Y005050D01*X019011Y004846D01*X019011Y005002D02*X018650Y005164D01*
X019339Y005336D02*X019339Y005654D01*X018650Y005425D01*X021650Y004846D02*
X022350Y004846D01*X022350Y005050D01*X022308Y005116D01*X022276Y005139D01*
X022212Y005164D01*X022148Y005164D01*X022085Y005139D01*X022042Y005116D01*
X022011Y005050D01*X022011Y004846D01*X022011Y005002D02*X021650Y005164D01*
X022339Y005606D02*X022339Y005380D01*X022042Y005358D01*X022074Y005380D01*
X022106Y005447D01*X022106Y005514D01*X022074Y005584D01*X022011Y005629D01*
X021915Y005654D01*X021841Y005654D01*X021745Y005629D01*X021682Y005584D01*
X021650Y005514D01*X021650Y005447D01*X021682Y005380D01*X021714Y005358D01*
X021777Y005336D01*X020150Y004846D02*X020850Y004846D01*X020850Y005050D01*
X020808Y005116D01*X020776Y005139D01*X020712Y005164D01*X020648Y005164D01*
X020585Y005139D01*X020542Y005116D01*X020511Y005050D01*X020511Y004846D01*
X020511Y005002D02*X020150Y005164D01*X020744Y005629D02*X020808Y005603D01*
X020839Y005530D01*X020839Y005482D01*X020808Y005409D01*X020712Y005358D01*
X020542Y005336D01*X020383Y005336D01*X020245Y005358D01*X020182Y005409D01*
X020150Y005482D01*X020150Y005505D01*X020182Y005578D01*X020245Y005629D01*
X020341Y005654D01*X020383Y005654D01*X020479Y005629D01*X020542Y005578D01*
X020574Y005505D01*X020574Y005482D01*X020542Y005409D01*X020479Y005358D01*
X020383Y005336D01*X033581Y005930D02*X033603Y005994D01*X033648Y006058D01*
X033689Y006100D01*X033775Y006100D01*X033816Y006058D01*X033858Y005994D01*
X033880Y005930D01*X033899Y005835D01*X033899Y005665D01*X033880Y005570D01*
X033858Y005495D01*X033816Y005432D01*X033775Y005400D01*X033689Y005400D01*
X033648Y005432D01*X033603Y005495D01*X033581Y005570D01*X033365Y006089D02*
X033116Y006089D01*X033253Y005824D01*X033183Y005824D01*X033139Y005792D01*
X033116Y005761D01*X033091Y005665D01*X033091Y005591D01*X033116Y005495D01*
X033161Y005432D01*X033228Y005400D01*X033298Y005400D01*X033365Y005432D01*
X033387Y005464D01*X033409Y005527D01*X032601Y005867D02*X032626Y005761D01*
X032674Y005697D01*X032750Y005665D01*X032773Y005665D01*X032846Y005697D01*
X032897Y005761D01*X032919Y005867D01*X032919Y005898D01*X032897Y005994D01*
X032846Y006058D01*X032773Y006089D01*X032750Y006089D01*X032674Y006058D01*
X032626Y005994D01*X032601Y005867D01*X032601Y005697D01*X032626Y005527D01*
X032674Y005432D01*X032750Y005400D01*X032798Y005400D01*X032871Y005432D01*
X032897Y005495D01*X033899Y003900D02*X033899Y004600D01*X033695Y004600D01*
X033629Y004558D01*X033606Y004526D01*X033581Y004462D01*X033581Y004398D01*
X033606Y004335D01*X033629Y004292D01*X033695Y004261D01*X033899Y004261D01*
X033743Y004261D02*X033581Y003900D01*X033365Y004589D02*X033116Y004589D01*
X033253Y004324D01*X033183Y004324D01*X033139Y004292D01*X033116Y004261D01*
X033091Y004165D01*X033091Y004091D01*X033116Y003995D01*X033161Y003932D01*
X033228Y003900D01*X033298Y003900D01*X033365Y003932D01*X033387Y003964D01*
X033409Y004027D01*X032875Y004589D02*X032626Y004589D01*X032763Y004324D01*
X032693Y004324D01*X032649Y004292D01*X032626Y004261D01*X032601Y004165D01*
X032601Y004091D01*X032626Y003995D01*X032671Y003932D01*X032738Y003900D01*
X032808Y003900D01*X032875Y003932D01*X032897Y003964D01*X032919Y004027D01*
X046680Y003544D02*X046744Y003522D01*X046808Y003477D01*X046850Y003436D01*
X046850Y003350D01*X046808Y003309D01*X046744Y003267D01*X046680Y003245D01*
X046585Y003226D01*X046415Y003226D01*X046320Y003245D01*X046245Y003267D01*
X046182Y003309D01*X046150Y003350D01*X046150Y003436D01*X046182Y003477D01*
X046245Y003522D01*X046320Y003544D01*X046839Y003760D02*X046839Y004009D01*
X046574Y003872D01*X046574Y003942D01*X046542Y003986D01*X046511Y004009D01*
X046415Y004034D01*X046341Y004034D01*X046245Y004009D01*X046182Y003964D01*
X046150Y003897D01*X046150Y003827D01*X046182Y003760D01*X046214Y003738D01*
X046277Y003716D01*X046744Y004499D02*X046808Y004473D01*X046839Y004400D01*
X046839Y004352D01*X046808Y004279D01*X046712Y004228D01*X046542Y004206D01*
X046383Y004206D01*X046245Y004228D01*X046182Y004279D01*X046150Y004352D01*
X046150Y004375D01*X046182Y004448D01*X046245Y004499D01*X046341Y004524D01*
X046383Y004524D01*X046479Y004499D01*X046542Y004448D01*X046574Y004375D01*
X046574Y004352D01*X046542Y004279D01*X046479Y004228D01*X046383Y004206D01*
X003334Y006850D02*X003334Y006320D01*X003366Y006214D01*X003398Y006182D01*
X003458Y006150D01*X003525Y006150D01*X003586Y006182D01*X003617Y006214D01*
X003649Y006320D01*X003649Y006383D01*X003035Y006712D02*X003010Y006744D01*
X002971Y006839D01*X002971Y006150D01*X002625Y006839D02*X002376Y006839D01*
X002513Y006574D01*X002443Y006574D01*X002399Y006542D01*X002376Y006511D01*
X002351Y006415D01*X002351Y006341D01*X002376Y006245D01*X002421Y006182D01*
X002488Y006150D01*X002558Y006150D01*X002625Y006182D01*X002647Y006214D01*
X002669Y006277D01*X029930Y010169D02*X029994Y010147D01*X030058Y010102D01*
X030100Y010061D01*X030100Y009975D01*X030058Y009934D01*X029994Y009892D01*
X029930Y009870D01*X029835Y009851D01*X029665Y009851D01*X029570Y009870D01*
X029495Y009892D01*X029432Y009934D01*X029400Y009975D01*X029400Y010061D01*
X029432Y010102D01*X029495Y010147D01*X029570Y010169D01*X029962Y010465D02*
X029994Y010490D01*X030089Y010529D01*X029400Y010529D01*X029962Y010955D02*
X029994Y010980D01*X030089Y011019D01*X029400Y011019D01*X046680Y012669D02*
X046744Y012647D01*X046808Y012602D01*X046850Y012561D01*X046850Y012475D01*
X046808Y012434D01*X046744Y012392D01*X046680Y012370D01*X046585Y012351D01*
X046415Y012351D01*X046320Y012370D01*X046245Y012392D01*X046182Y012434D01*
X046150Y012475D01*X046150Y012561D01*X046182Y012602D01*X046245Y012647D01*
X046320Y012669D01*X046839Y012885D02*X046839Y013134D01*X046574Y012997D01*
X046574Y013067D01*X046542Y013111D01*X046511Y013134D01*X046415Y013159D01*
X046341Y013159D01*X046245Y013134D01*X046182Y013089D01*X046150Y013022D01*
X046150Y012952D01*X046182Y012885D01*X046214Y012863D01*X046277Y012841D01*
X046839Y013375D02*X046839Y013624D01*X046574Y013487D01*X046574Y013557D01*
X046542Y013601D01*X046511Y013624D01*X046415Y013649D01*X046341Y013649D01*
X046245Y013624D01*X046182Y013579D01*X046150Y013512D01*X046150Y013442D01*
X046182Y013375D01*X046214Y013353D01*X046277Y013331D01*X048180Y013169D02*
X048244Y013147D01*X048308Y013102D01*X048350Y013061D01*X048350Y012975D01*
X048308Y012934D01*X048244Y012892D01*X048180Y012870D01*X048085Y012851D01*
X047915Y012851D01*X047820Y012870D01*X047745Y012892D01*X047682Y012934D01*
X047650Y012975D01*X047650Y013061D01*X047682Y013102D01*X047745Y013147D01*
X047820Y013169D01*X048339Y013385D02*X048339Y013634D01*X048074Y013497D01*
X048074Y013567D01*X048042Y013611D01*X048011Y013634D01*X047915Y013659D01*
X047841Y013659D01*X047745Y013634D01*X047682Y013589D01*X047650Y013522D01*
X047650Y013452D01*X047682Y013385D01*X047714Y013363D01*X047777Y013341D01*
X048180Y013853D02*X048212Y013853D01*X048276Y013875D01*X048308Y013898D01*
X048350Y013942D01*X048350Y014035D01*X048308Y014079D01*X048276Y014101D01*
X048212Y014124D01*X048148Y014124D01*X048085Y014101D01*X047979Y014057D01*
X047650Y013831D01*X047650Y014149D01*X050600Y015294D02*X050600Y014976D01*
X049900Y014976D01*X050261Y014976D02*X050261Y015170D01*X050261Y015466D02*
X050261Y015670D01*X050229Y015736D01*X050197Y015759D01*X050133Y015784D01*
X050027Y015784D01*X049964Y015759D01*X049932Y015736D01*X049900Y015670D01*
X049900Y015466D01*X050600Y015466D01*X050600Y015670D01*X050558Y015736D01*
X050526Y015759D01*X050462Y015784D01*X050398Y015784D01*X050335Y015759D01*
X050292Y015736D01*X050261Y015670D01*X050462Y016080D02*X050494Y016105D01*
X050589Y016144D01*X049900Y016144D01*X054334Y006850D02*X054334Y006320D01*
X054366Y006214D01*X054398Y006182D01*X054458Y006150D01*X054525Y006150D01*
X054586Y006182D01*X054617Y006214D01*X054649Y006320D01*X054649Y006383D01*
X054035Y006712D02*X054010Y006744D01*X053971Y006839D01*X053971Y006150D01*
X053545Y006712D02*X053520Y006744D01*X053481Y006839D01*X053481Y006150D01*
X007025Y012726D02*X007725Y012726D01*X007725Y012930D01*X007683Y012996D01*
X007651Y013019D01*X007587Y013044D01*X007523Y013044D01*X007460Y013019D01*
X007417Y012996D01*X007386Y012930D01*X007386Y012726D01*X007386Y012882D02*
X007025Y013044D01*X007587Y013340D02*X007619Y013365D01*X007714Y013404D01*
X007025Y013404D01*X007587Y013830D02*X007619Y013855D01*X007714Y013894D01*
X007025Y013894D01*X008525Y012726D02*X009225Y012726D01*X009225Y012930D01*
X009183Y012996D01*X009151Y013019D01*X009087Y013044D01*X009023Y013044D01*
X008960Y013019D01*X008917Y012996D01*X008886Y012930D01*X008886Y012726D01*
X008886Y012882D02*X008525Y013044D01*X009087Y013340D02*X009119Y013365D01*
X009214Y013404D01*X008525Y013404D01*X009055Y013728D02*X009087Y013728D01*
X009151Y013750D01*X009183Y013773D01*X009225Y013817D01*X009225Y013910D01*
X009183Y013954D01*X009151Y013976D01*X009087Y013999D01*X009023Y013999D01*
X008960Y013976D01*X008854Y013932D01*X008525Y013706D01*X008525Y014024D01*
X015430Y015419D02*X015494Y015397D01*X015558Y015352D01*X015600Y015311D01*
X015600Y015225D01*X015558Y015184D01*X015494Y015142D01*X015430Y015120D01*
X015335Y015101D01*X015165Y015101D01*X015070Y015120D01*X014995Y015142D01*
X014932Y015184D01*X014900Y015225D01*X014900Y015311D01*X014932Y015352D01*
X014995Y015397D01*X015070Y015419D01*X015430Y015613D02*X015462Y015613D01*
X015526Y015635D01*X015558Y015658D01*X015600Y015702D01*X015600Y015795D01*
X015558Y015839D01*X015526Y015861D01*X015462Y015884D01*X015398Y015884D01*
X015335Y015861D01*X015229Y015817D01*X014900Y015591D01*X014900Y015909D01*
X015589Y016192D02*X015558Y016125D01*X015494Y016103D01*X015430Y016103D01*
X015356Y016125D01*X015324Y016170D01*X015292Y016262D01*X015261Y016329D01*
X015197Y016374D01*X015133Y016399D01*X015027Y016399D01*X014964Y016374D01*
X014932Y016351D01*X014900Y016285D01*X014900Y016192D01*X014932Y016125D01*
X014964Y016103D01*X015027Y016081D01*X015133Y016081D01*X015197Y016103D01*
X015261Y016148D01*X015292Y016215D01*X015324Y016307D01*X015356Y016351D01*
X015430Y016374D01*X015494Y016374D01*X015558Y016351D01*X015589Y016285D01*
X015589Y016192D01*X020930Y013919D02*X020994Y013897D01*X021058Y013852D01*
X021100Y013811D01*X021100Y013725D01*X021058Y013684D01*X020994Y013642D01*
X020930Y013620D01*X020835Y013601D01*X020665Y013601D01*X020570Y013620D01*
X020495Y013642D01*X020432Y013684D01*X020400Y013725D01*X020400Y013811D01*
X020432Y013852D01*X020495Y013897D01*X020570Y013919D01*X020962Y014215D02*
X020994Y014240D01*X021089Y014279D01*X020400Y014279D01*X021089Y014718D02*
X021058Y014648D01*X020962Y014603D01*X020792Y014581D01*X020697Y014581D01*
X020527Y014603D01*X020432Y014648D01*X020400Y014718D01*X020400Y014762D01*
X020432Y014829D01*X020527Y014874D01*X020697Y014899D01*X020792Y014899D01*
X020962Y014874D01*X021058Y014829D01*X021089Y014762D01*X021089Y014718D01*
X025430Y014164D02*X025494Y014142D01*X025558Y014097D01*X025600Y014056D01*
X025600Y013970D01*X025558Y013929D01*X025494Y013887D01*X025430Y013865D01*
X025335Y013846D01*X025165Y013846D01*X025070Y013865D01*X024995Y013887D01*
X024932Y013929D01*X024900Y013970D01*X024900Y014056D01*X024932Y014097D01*
X024995Y014142D01*X025070Y014164D01*X025589Y014336D02*X025589Y014654D01*
X024900Y014425D01*X030836Y015555D02*X030858Y015619D01*X030903Y015683D01*
X030944Y015725D01*X031030Y015725D01*X031071Y015683D01*X031113Y015619D01*
X031135Y015555D01*X031154Y015460D01*X031154Y015290D01*X031135Y015195D01*
X031113Y015120D01*X031071Y015057D01*X031030Y015025D01*X030944Y015025D01*
X030903Y015057D01*X030858Y015120D01*X030836Y015195D01*X030553Y015714D02*
X030620Y015683D01*X030642Y015619D01*X030642Y015555D01*X030620Y015481D01*
X030575Y015449D01*X030483Y015417D01*X030416Y015386D01*X030371Y015322D01*
X030346Y015258D01*X030346Y015152D01*X030371Y015089D01*X030394Y015057D01*
X030460Y015025D01*X030553Y015025D01*X030620Y015057D01*X030642Y015089D01*
X030664Y015152D01*X030664Y015258D01*X030642Y015322D01*X030597Y015386D01*
X030530Y015417D01*X030438Y015449D01*X030394Y015481D01*X030371Y015555D01*
X030371Y015619D01*X030394Y015683D01*X030460Y015714D01*X030553Y015714D01*
X009404Y017525D02*X009404Y018225D01*X009200Y018225D01*X009134Y018183D01*
X009111Y018151D01*X009086Y018087D01*X009086Y018023D01*X009111Y017960D01*
X009134Y017917D01*X009200Y017886D01*X009404Y017886D01*X009248Y017886D02*
X009086Y017525D01*X008596Y017992D02*X008621Y017886D01*X008669Y017822D01*
X008745Y017790D01*X008768Y017790D01*X008841Y017822D01*X008892Y017886D01*
X008914Y017992D01*X008914Y018023D01*X008892Y018119D01*X008841Y018183D01*
X008768Y018214D01*X008745Y018214D01*X008669Y018183D01*X008621Y018119D01*
X008596Y017992D01*X008596Y017822D01*X008621Y017652D01*X008669Y017557D01*
X008745Y017525D01*X008793Y017525D01*X008866Y017557D01*X008892Y017620D01*
X022086Y017680D02*X022108Y017744D01*X022153Y017808D01*X022194Y017850D01*
X022280Y017850D01*X022321Y017808D01*X022363Y017744D01*X022385Y017680D01*
X022404Y017585D01*X022404Y017415D01*X022385Y017320D01*X022363Y017245D01*
X022321Y017182D01*X022280Y017150D01*X022194Y017150D01*X022153Y017182D01*
X022108Y017245D01*X022086Y017320D01*X021621Y017744D02*X021647Y017808D01*
X021720Y017839D01*X021768Y017839D01*X021841Y017808D01*X021892Y017712D01*
X021914Y017542D01*X021914Y017383D01*X021892Y017245D01*X021841Y017182D01*
X021768Y017150D01*X021745Y017150D01*X021672Y017182D01*X021621Y017245D01*
X021596Y017341D01*X021596Y017383D01*X021621Y017479D01*X021672Y017542D01*
X021745Y017574D01*X021768Y017574D01*X021841Y017542D01*X021892Y017479D01*
X021914Y017383D01*X030836Y016805D02*X030858Y016869D01*X030903Y016933D01*
X030944Y016975D01*X031030Y016975D01*X031071Y016933D01*X031113Y016869D01*
X031135Y016805D01*X031154Y016710D01*X031154Y016540D01*X031135Y016445D01*
X031113Y016370D01*X031071Y016307D01*X031030Y016275D01*X030944Y016275D01*
X030903Y016307D01*X030858Y016370D01*X030836Y016445D01*X030540Y016837D02*
X030515Y016869D01*X030476Y016964D01*X030476Y016275D01*X030836Y018055D02*
X030858Y018119D01*X030903Y018183D01*X030944Y018225D01*X031030Y018225D01*
X031071Y018183D01*X031113Y018119D01*X031135Y018055D01*X031154Y017960D01*
X031154Y017790D01*X031135Y017695D01*X031113Y017620D01*X031071Y017557D01*
X031030Y017525D01*X030944Y017525D01*X030903Y017557D01*X030858Y017620D01*
X030836Y017695D01*X030642Y018055D02*X030642Y018087D01*X030620Y018151D01*
X030597Y018183D01*X030553Y018225D01*X030460Y018225D01*X030416Y018183D01*
X030394Y018151D01*X030371Y018087D01*X030371Y018023D01*X030394Y017960D01*
X030438Y017854D01*X030664Y017525D01*X030346Y017525D01*X031081Y019305D02*
X031103Y019369D01*X031148Y019433D01*X031189Y019475D01*X031275Y019475D01*
X031316Y019433D01*X031358Y019369D01*X031380Y019305D01*X031399Y019210D01*
X031399Y019040D01*X031380Y018945D01*X031358Y018870D01*X031316Y018807D01*
X031275Y018775D01*X031189Y018775D01*X031148Y018807D01*X031103Y018870D01*
X031081Y018945D01*X030785Y019337D02*X030760Y019369D01*X030721Y019464D01*
X030721Y018775D01*X030149Y019464D02*X030375Y019464D01*X030397Y019167D01*
X030375Y019199D01*X030308Y019231D01*X030241Y019231D01*X030171Y019199D01*
X030126Y019136D01*X030101Y019040D01*X030101Y018966D01*X030126Y018870D01*
X030171Y018807D01*X030241Y018775D01*X030308Y018775D01*X030375Y018807D01*
X030397Y018839D01*X030419Y018902D01*X009649Y018775D02*X009649Y019475D01*
X009445Y019475D01*X009379Y019433D01*X009356Y019401D01*X009331Y019337D01*
X009331Y019273D01*X009356Y019210D01*X009379Y019167D01*X009445Y019136D01*
X009649Y019136D01*X009493Y019136D02*X009331Y018775D01*X009035Y019337D02*
X009010Y019369D01*X008971Y019464D01*X008971Y018775D01*X008532Y019464D02*
X008602Y019433D01*X008647Y019337D01*X008669Y019167D01*X008669Y019072D01*
X008647Y018902D01*X008602Y018807D01*X008532Y018775D01*X008488Y018775D01*
X008421Y018807D01*X008376Y018902D01*X008351Y019072D01*X008351Y019167D01*
X008376Y019337D01*X008421Y019433D01*X008488Y019464D01*X008532Y019464D01*
X008680Y021419D02*X008744Y021397D01*X008808Y021352D01*X008850Y021311D01*
X008850Y021225D01*X008808Y021184D01*X008744Y021142D01*X008680Y021120D01*
X008585Y021101D01*X008415Y021101D01*X008320Y021120D01*X008245Y021142D01*
X008182Y021184D01*X008150Y021225D01*X008150Y021311D01*X008182Y021352D01*
X008245Y021397D01*X008320Y021419D01*X008839Y021635D02*X008839Y021884D01*
X008574Y021747D01*X008574Y021817D01*X008542Y021861D01*X008511Y021884D01*
X008415Y021909D01*X008341Y021909D01*X008245Y021884D01*X008182Y021839D01*
X008150Y021772D01*X008150Y021702D01*X008182Y021635D01*X008214Y021613D01*
X008277Y021591D01*X008712Y022205D02*X008744Y022230D01*X008839Y022269D01*
X008150Y022269D01*X015331Y022430D02*X015353Y022494D01*X015398Y022558D01*
X015439Y022600D01*X015525Y022600D01*X015566Y022558D01*X015608Y022494D01*
X015630Y022430D01*X015649Y022335D01*X015649Y022165D01*X015630Y022070D01*
X015608Y021995D01*X015566Y021932D01*X015525Y021900D01*X015439Y021900D01*
X015398Y021932D01*X015353Y021995D01*X015331Y022070D01*X015137Y022430D02*
X015137Y022462D01*X015115Y022526D01*X015092Y022558D01*X015048Y022600D01*
X014955Y022600D01*X014911Y022558D01*X014889Y022526D01*X014866Y022462D01*
X014866Y022398D01*X014889Y022335D01*X014933Y022229D01*X015159Y021900D01*
X014841Y021900D01*X014669Y022589D02*X014351Y022589D01*X014580Y021900D01*
X012331Y022430D02*X012353Y022494D01*X012398Y022558D01*X012439Y022600D01*
X012525Y022600D01*X012566Y022558D01*X012608Y022494D01*X012630Y022430D01*
X012649Y022335D01*X012649Y022165D01*X012630Y022070D01*X012608Y021995D01*
X012566Y021932D01*X012525Y021900D01*X012439Y021900D01*X012398Y021932D01*
X012353Y021995D01*X012331Y022070D01*X012115Y022589D02*X011866Y022589D01*
X012003Y022324D01*X011933Y022324D01*X011889Y022292D01*X011866Y022261D01*
X011841Y022165D01*X011841Y022091D01*X011866Y021995D01*X011911Y021932D01*
X011978Y021900D01*X012048Y021900D01*X012115Y021932D01*X012137Y021964D01*
X012159Y022027D01*X011532Y022589D02*X011602Y022558D01*X011647Y022462D01*
X011669Y022292D01*X011669Y022197D01*X011647Y022027D01*X011602Y021932D01*
X011532Y021900D01*X011488Y021900D01*X011421Y021932D01*X011376Y022027D01*
X011351Y022197D01*X011351Y022292D01*X011376Y022462D01*X011421Y022558D01*
X011488Y022589D01*X011532Y022589D01*X021805Y022794D02*X021869Y022772D01*
X021933Y022727D01*X021975Y022686D01*X021975Y022600D01*X021933Y022559D01*
X021869Y022517D01*X021805Y022495D01*X021710Y022476D01*X021540Y022476D01*
X021445Y022495D01*X021370Y022517D01*X021307Y022559D01*X021275Y022600D01*
X021275Y022686D01*X021307Y022727D01*X021370Y022772D01*X021445Y022794D01*
X021837Y023090D02*X021869Y023115D01*X021964Y023154D01*X021275Y023154D01*
X021742Y023774D02*X021636Y023749D01*X021572Y023701D01*X021540Y023625D01*
X021540Y023602D01*X021572Y023529D01*X021636Y023478D01*X021742Y023456D01*
X021773Y023456D01*X021869Y023478D01*X021933Y023529D01*X021964Y023602D01*
X021964Y023625D01*X021933Y023701D01*X021869Y023749D01*X021742Y023774D01*
X021572Y023774D01*X021402Y023749D01*X021307Y023701D01*X021275Y023625D01*
X021275Y023577D01*X021307Y023504D01*X021370Y023478D01*X023055Y023039D02*
X023119Y023017D01*X023183Y022972D01*X023225Y022931D01*X023225Y022845D01*
X023183Y022804D01*X023119Y022762D01*X023055Y022740D01*X022960Y022721D01*
X022790Y022721D01*X022695Y022740D01*X022620Y022762D01*X022557Y022804D01*
X022525Y022845D01*X022525Y022931D01*X022557Y022972D01*X022620Y023017D01*
X022695Y023039D01*X022992Y023529D02*X022886Y023504D01*X022822Y023456D01*
X022790Y023380D01*X022790Y023357D01*X022822Y023284D01*X022886Y023233D01*
X022992Y023211D01*X023023Y023211D01*X023119Y023233D01*X023183Y023284D01*
X023214Y023357D01*X023214Y023380D01*X023183Y023456D01*X023119Y023504D01*
X022992Y023529D01*X022822Y023529D01*X022652Y023504D01*X022557Y023456D01*
X022525Y023380D01*X022525Y023332D01*X022557Y023259D01*X022620Y023233D01*
X031081Y020555D02*X031103Y020619D01*X031148Y020683D01*X031189Y020725D01*
X031275Y020725D01*X031316Y020683D01*X031358Y020619D01*X031380Y020555D01*
X031399Y020460D01*X031399Y020290D01*X031380Y020195D01*X031358Y020120D01*
X031316Y020057D01*X031275Y020025D01*X031189Y020025D01*X031148Y020057D01*
X031103Y020120D01*X031081Y020195D01*X030785Y020587D02*X030760Y020619D01*
X030721Y020714D01*X030721Y020025D01*X030209Y020714D02*X030209Y020025D01*
X030209Y020714D02*X030419Y020258D01*X030101Y020258D01*X030836Y024305D02*
X030858Y024369D01*X030903Y024433D01*X030944Y024475D01*X031030Y024475D01*
X031071Y024433D01*X031113Y024369D01*X031135Y024305D01*X031154Y024210D01*
X031154Y024040D01*X031135Y023945D01*X031113Y023870D01*X031071Y023807D01*
X031030Y023775D01*X030944Y023775D01*X030903Y023807D01*X030858Y023870D01*
X030836Y023945D01*X030620Y024464D02*X030371Y024464D01*X030508Y024199D01*
X030438Y024199D01*X030394Y024167D01*X030371Y024136D01*X030346Y024040D01*
X030346Y023966D01*X030371Y023870D01*X030416Y023807D01*X030483Y023775D01*
X030553Y023775D01*X030620Y023807D01*X030642Y023839D01*X030664Y023902D01*
X031154Y021275D02*X031154Y021975D01*X030950Y021975D01*X030884Y021933D01*
X030861Y021901D01*X030836Y021837D01*X030836Y021773D01*X030861Y021710D01*
X030884Y021667D01*X030950Y021636D01*X031154Y021636D01*X030998Y021636D02*
X030836Y021275D01*X030642Y021805D02*X030642Y021837D01*X030620Y021901D01*
X030597Y021933D01*X030553Y021975D01*X030460Y021975D01*X030416Y021933D01*
X030394Y021901D01*X030371Y021837D01*X030371Y021773D01*X030394Y021710D01*
X030438Y021604D01*X030664Y021275D01*X030346Y021275D01*X028150Y028346D02*
X028850Y028346D01*X028850Y028550D01*X028808Y028616D01*X028776Y028639D01*
X028712Y028664D01*X028648Y028664D01*X028585Y028639D01*X028542Y028616D01*
X028511Y028550D01*X028511Y028346D01*X028511Y028502D02*X028150Y028664D01*
X028839Y028880D02*X028839Y029129D01*X028574Y028992D01*X028574Y029062D01*
X028542Y029106D01*X028511Y029129D01*X028415Y029154D01*X028341Y029154D01*
X028245Y029129D01*X028182Y029084D01*X028150Y029017D01*X028150Y028947D01*
X028182Y028880D01*X028214Y028858D01*X028277Y028836D01*X026650Y028346D02*
X027350Y028346D01*X027350Y028550D01*X027308Y028616D01*X027276Y028639D01*
X027212Y028664D01*X027148Y028664D01*X027085Y028639D01*X027042Y028616D01*
X027011Y028550D01*X027011Y028346D01*X027011Y028502D02*X026650Y028664D01*
X027339Y029046D02*X026650Y029046D01*X027339Y029046D02*X026883Y028836D01*
X026883Y029154D01*X025339Y034350D02*X025339Y033820D01*X025371Y033714D01*
X025403Y033682D01*X025463Y033650D01*X025530Y033650D01*X025591Y033682D01*
X025622Y033714D01*X025654Y033820D01*X025654Y033883D01*X024871Y034244D02*
X024897Y034308D01*X024970Y034339D01*X025018Y034339D01*X025091Y034308D01*
X025142Y034212D01*X025164Y034042D01*X025164Y033883D01*X025142Y033745D01*
X025091Y033682D01*X025018Y033650D01*X024995Y033650D01*X024922Y033682D01*
X024871Y033745D01*X024846Y033841D01*X024846Y033883D01*X024871Y033979D01*
X024922Y034042D01*X024995Y034074D01*X025018Y034074D01*X025091Y034042D01*
X025142Y033979D01*X025164Y033883D01*D02*G54D12*X034350Y002150D02*
X037150Y002150D01*X037150Y003350D01*X034350Y003350D01*X034350Y003350D02*
X034350Y002150D01*X042400Y003250D02*X042425Y003249D01*X042449Y003246D01*
X042474Y003240D01*X042497Y003232D01*X042520Y003222D01*X042541Y003210D01*
X042561Y003195D01*X042580Y003179D01*X042597Y003160D01*X042612Y003140D01*
X042625Y003119D01*X042636Y003097D01*X042644Y003073D01*X042650Y003049D01*
X042654Y003025D01*X042655Y003000D01*X042654Y002975D01*X042650Y002951D01*
X042644Y002927D01*X042636Y002903D01*X042625Y002881D01*X042612Y002860D01*
X042597Y002840D01*X042580Y002821D01*X042561Y002805D01*X042541Y002790D01*
X042520Y002778D01*X042497Y002768D01*X042474Y002760D01*X042449Y002754D01*
X042425Y002751D01*X042400Y002750D01*X043600Y004400D02*X042400Y004400D01*
X043600Y004400D02*X043600Y003250D01*X043600Y002750D02*X043600Y001600D01*
X043600Y001600D02*X042400Y001600D01*X042400Y004400D02*X042400Y003250D01*
X042400Y002750D02*X042400Y001600D01*X043600Y002750D02*X043575Y002751D01*
X043551Y002754D01*X043526Y002760D01*X043503Y002768D01*X043480Y002778D01*
X043459Y002790D01*X043439Y002805D01*X043420Y002821D01*X043403Y002840D01*
X043388Y002860D01*X043375Y002881D01*X043364Y002903D01*X043356Y002927D01*
X043350Y002951D01*X043346Y002975D01*X043345Y003000D01*X043346Y003025D01*
X043350Y003049D01*X043356Y003073D01*X043364Y003097D01*X043375Y003119D01*
X043388Y003140D01*X043403Y003160D01*X043420Y003179D01*X043439Y003195D01*
X043459Y003210D01*X043480Y003222D01*X043503Y003232D01*X043526Y003240D01*
X043551Y003246D01*X043575Y003249D01*X043600Y003250D01*X018100Y006100D02*
X018100Y008900D01*X016900Y008900D01*X016900Y006100D01*X016900Y006100D02*
X018100Y006100D01*X019600Y006100D02*X019600Y008900D01*X018400Y008900D01*
X018400Y006100D01*X018400Y006100D02*X019600Y006100D01*X022600Y006100D02*
X022600Y008900D01*X021400Y008900D01*X021400Y006100D01*X021400Y006100D02*
X022600Y006100D01*X021100Y006100D02*X021100Y008900D01*X019900Y008900D01*
X019900Y006100D01*X019900Y006100D02*X021100Y006100D01*X035500Y005150D02*
X035501Y005175D01*X035504Y005199D01*X035510Y005224D01*X035518Y005247D01*
X035528Y005270D01*X035540Y005291D01*X035555Y005311D01*X035571Y005330D01*
X035590Y005347D01*X035610Y005362D01*X035631Y005375D01*X035653Y005386D01*
X035677Y005394D01*X035701Y005400D01*X035725Y005404D01*X035750Y005405D01*
X035775Y005404D01*X035799Y005400D01*X035823Y005394D01*X035847Y005386D01*
X035869Y005375D01*X035890Y005362D01*X035910Y005347D01*X035929Y005330D01*
X035945Y005311D01*X035960Y005291D01*X035972Y005270D01*X035982Y005247D01*
X035990Y005224D01*X035996Y005199D01*X035999Y005175D01*X036000Y005150D01*
X034350Y006350D02*X034350Y005150D01*X034350Y006350D02*X035500Y006350D01*
X036000Y006350D02*X037150Y006350D01*X037150Y006350D02*X037150Y005150D01*
X034350Y005150D02*X035500Y005150D01*X036000Y005150D02*X037150Y005150D01*
X036000Y006350D02*X035999Y006325D01*X035996Y006301D01*X035990Y006276D01*
X035982Y006253D01*X035972Y006230D01*X035960Y006209D01*X035945Y006189D01*
X035929Y006170D01*X035910Y006153D01*X035890Y006138D01*X035869Y006125D01*
X035847Y006114D01*X035823Y006106D01*X035799Y006100D01*X035775Y006096D01*
X035750Y006095D01*X035725Y006096D01*X035701Y006100D01*X035677Y006106D01*
X035653Y006114D01*X035631Y006125D01*X035610Y006138D01*X035590Y006153D01*
X035571Y006170D01*X035555Y006189D01*X035540Y006209D01*X035528Y006230D01*
X035518Y006253D01*X035510Y006276D01*X035504Y006301D01*X035501Y006325D01*
X035500Y006350D01*X034350Y003650D02*X037150Y003650D01*X037150Y004850D01*
X034350Y004850D01*X034350Y004850D02*X034350Y003650D01*X047100Y006000D02*
X047075Y006001D01*X047051Y006004D01*X047026Y006010D01*X047003Y006018D01*
X046980Y006028D01*X046959Y006040D01*X046939Y006055D01*X046920Y006071D01*
X046903Y006090D01*X046888Y006110D01*X046875Y006131D01*X046864Y006153D01*
X046856Y006177D01*X046850Y006201D01*X046846Y006225D01*X046845Y006250D01*
X046846Y006275D01*X046850Y006299D01*X046856Y006323D01*X046864Y006347D01*
X046875Y006369D01*X046888Y006390D01*X046903Y006410D01*X046920Y006429D01*
X046939Y006445D01*X046959Y006460D01*X046980Y006472D01*X047003Y006482D01*
X047026Y006490D01*X047051Y006496D01*X047075Y006499D01*X047100Y006500D01*
X045900Y004850D02*X047100Y004850D01*X045900Y004850D02*X045900Y006000D01*
X045900Y006500D02*X045900Y007650D01*X045900Y007650D02*X047100Y007650D01*
X047100Y004850D02*X047100Y006000D01*X047100Y006500D02*X047100Y007650D01*
X045900Y006500D02*X045925Y006499D01*X045949Y006496D01*X045974Y006490D01*
X045997Y006482D01*X046020Y006472D01*X046041Y006460D01*X046061Y006445D01*
X046080Y006429D01*X046097Y006410D01*X046112Y006390D01*X046125Y006369D01*
X046136Y006347D01*X046144Y006323D01*X046150Y006299D01*X046154Y006275D01*
X046155Y006250D01*X046154Y006225D01*X046150Y006201D01*X046144Y006177D01*
X046136Y006153D01*X046125Y006131D01*X046112Y006110D01*X046097Y006090D01*
X046080Y006071D01*X046061Y006055D01*X046041Y006040D01*X046020Y006028D01*
X045997Y006018D01*X045974Y006010D01*X045949Y006004D01*X045925Y006001D01*
X045900Y006000D01*X027900Y010750D02*X027925Y010749D01*X027949Y010746D01*
X027974Y010740D01*X027997Y010732D01*X028020Y010722D01*X028041Y010710D01*
X028061Y010695D01*X028080Y010679D01*X028097Y010660D01*X028112Y010640D01*
X028125Y010619D01*X028136Y010597D01*X028144Y010573D01*X028150Y010549D01*
X028154Y010525D01*X028155Y010500D01*X028154Y010475D01*X028150Y010451D01*
X028144Y010427D01*X028136Y010403D01*X028125Y010381D01*X028112Y010360D01*
X028097Y010340D01*X028080Y010321D01*X028061Y010305D01*X028041Y010290D01*
X028020Y010278D01*X027997Y010268D01*X027974Y010260D01*X027949Y010254D01*
X027925Y010251D01*X027900Y010250D01*X029100Y011900D02*X027900Y011900D01*
X029100Y011900D02*X029100Y010750D01*X029100Y010250D02*X029100Y009100D01*
X029100Y009100D02*X027900Y009100D01*X027900Y011900D02*X027900Y010750D01*
X027900Y010250D02*X027900Y009100D01*X029100Y010250D02*X029075Y010251D01*
X029051Y010254D01*X029026Y010260D01*X029003Y010268D01*X028980Y010278D01*
X028959Y010290D01*X028939Y010305D01*X028920Y010321D01*X028903Y010340D01*
X028888Y010360D01*X028875Y010381D01*X028864Y010403D01*X028856Y010427D01*
X028850Y010451D01*X028846Y010475D01*X028845Y010500D01*X028846Y010525D01*
X028850Y010549D01*X028856Y010573D01*X028864Y010597D01*X028875Y010619D01*
X028888Y010640D01*X028903Y010660D01*X028920Y010679D01*X028939Y010695D01*
X028959Y010710D01*X028980Y010722D01*X029003Y010732D01*X029026Y010740D01*
X029051Y010746D01*X029075Y010749D01*X029100Y010750D01*X045900Y010750D02*
X045925Y010749D01*X045949Y010746D01*X045974Y010740D01*X045997Y010732D01*
X046020Y010722D01*X046041Y010710D01*X046061Y010695D01*X046080Y010679D01*
X046097Y010660D01*X046112Y010640D01*X046125Y010619D01*X046136Y010597D01*
X046144Y010573D01*X046150Y010549D01*X046154Y010525D01*X046155Y010500D01*
X046154Y010475D01*X046150Y010451D01*X046144Y010427D01*X046136Y010403D01*
X046125Y010381D01*X046112Y010360D01*X046097Y010340D01*X046080Y010321D01*
X046061Y010305D01*X046041Y010290D01*X046020Y010278D01*X045997Y010268D01*
X045974Y010260D01*X045949Y010254D01*X045925Y010251D01*X045900Y010250D01*
X047100Y011900D02*X045900Y011900D01*X047100Y011900D02*X047100Y010750D01*
X047100Y010250D02*X047100Y009100D01*X047100Y009100D02*X045900Y009100D01*
X045900Y011900D02*X045900Y010750D01*X045900Y010250D02*X045900Y009100D01*
X047100Y010250D02*X047075Y010251D01*X047051Y010254D01*X047026Y010260D01*
X047003Y010268D01*X046980Y010278D01*X046959Y010290D01*X046939Y010305D01*
X046920Y010321D01*X046903Y010340D01*X046888Y010360D01*X046875Y010381D01*
X046864Y010403D01*X046856Y010427D01*X046850Y010451D01*X046846Y010475D01*
X046845Y010500D01*X046846Y010525D01*X046850Y010549D01*X046856Y010573D01*
X046864Y010597D01*X046875Y010619D01*X046888Y010640D01*X046903Y010660D01*
X046920Y010679D01*X046939Y010695D01*X046959Y010710D01*X046980Y010722D01*
X047003Y010732D01*X047026Y010740D01*X047051Y010746D01*X047075Y010749D01*
X047100Y010750D01*X049300Y008750D02*X048700Y008750D01*X049000Y008450D02*
X049000Y009050D01*X048800Y012450D02*X048800Y009050D01*X047200Y009050D01*
X047200Y012450D01*X047200Y012450D02*X048800Y012450D01*X048000Y010550D02*
X048000Y010950D01*X048200Y010750D02*X047800Y010750D01*X048800Y009050D02*
X048800Y008950D01*X047200Y008950D01*X047200Y009050D01*X007975Y014350D02*
X007975Y017150D01*X006775Y017150D01*X006775Y014350D01*X006775Y014350D02*
X007975Y014350D01*X009475Y014350D02*X009475Y017150D01*X008275Y017150D01*
X008275Y014350D01*X008275Y014350D02*X009475Y014350D01*X017100Y015500D02*
X017075Y015501D01*X017051Y015504D01*X017026Y015510D01*X017003Y015518D01*
X016980Y015528D01*X016959Y015540D01*X016939Y015555D01*X016920Y015571D01*
X016903Y015590D01*X016888Y015610D01*X016875Y015631D01*X016864Y015653D01*
X016856Y015677D01*X016850Y015701D01*X016846Y015725D01*X016845Y015750D01*
X016846Y015775D01*X016850Y015799D01*X016856Y015823D01*X016864Y015847D01*
X016875Y015869D01*X016888Y015890D01*X016903Y015910D01*X016920Y015929D01*
X016939Y015945D01*X016959Y015960D01*X016980Y015972D01*X017003Y015982D01*
X017026Y015990D01*X017051Y015996D01*X017075Y015999D01*X017100Y016000D01*
X015900Y014350D02*X017100Y014350D01*X015900Y014350D02*X015900Y015500D01*
X015900Y016000D02*X015900Y017150D01*X015900Y017150D02*X017100Y017150D01*
X017100Y014350D02*X017100Y015500D01*X017100Y016000D02*X017100Y017150D01*
X015900Y016000D02*X015925Y015999D01*X015949Y015996D01*X015974Y015990D01*
X015997Y015982D01*X016020Y015972D01*X016041Y015960D01*X016061Y015945D01*
X016080Y015929D01*X016097Y015910D01*X016112Y015890D01*X016125Y015869D01*
X016136Y015847D01*X016144Y015823D01*X016150Y015799D01*X016154Y015775D01*
X016155Y015750D01*X016154Y015725D01*X016150Y015701D01*X016144Y015677D01*
X016136Y015653D01*X016125Y015631D01*X016112Y015610D01*X016097Y015590D01*
X016080Y015571D01*X016061Y015555D01*X016041Y015540D01*X016020Y015528D01*
X015997Y015518D01*X015974Y015510D01*X015949Y015504D01*X015925Y015501D01*
X015900Y015500D01*X022600Y014000D02*X022575Y014001D01*X022551Y014004D01*
X022526Y014010D01*X022503Y014018D01*X022480Y014028D01*X022459Y014040D01*
X022439Y014055D01*X022420Y014071D01*X022403Y014090D01*X022388Y014110D01*
X022375Y014131D01*X022364Y014153D01*X022356Y014177D01*X022350Y014201D01*
X022346Y014225D01*X022345Y014250D01*X022346Y014275D01*X022350Y014299D01*
X022356Y014323D01*X022364Y014347D01*X022375Y014369D01*X022388Y014390D01*
X022403Y014410D01*X022420Y014429D01*X022439Y014445D01*X022459Y014460D01*
X022480Y014472D01*X022503Y014482D01*X022526Y014490D01*X022551Y014496D01*
X022575Y014499D01*X022600Y014500D01*X021400Y012850D02*X022600Y012850D01*
X021400Y012850D02*X021400Y014000D01*X021400Y014500D02*X021400Y015650D01*
X021400Y015650D02*X022600Y015650D01*X022600Y012850D02*X022600Y014000D01*
X022600Y014500D02*X022600Y015650D01*X021400Y014500D02*X021425Y014499D01*
X021449Y014496D01*X021474Y014490D01*X021497Y014482D01*X021520Y014472D01*
X021541Y014460D01*X021561Y014445D01*X021580Y014429D01*X021597Y014410D01*
X021612Y014390D01*X021625Y014369D01*X021636Y014347D01*X021644Y014323D01*
X021650Y014299D01*X021654Y014275D01*X021655Y014250D01*X021654Y014225D01*
X021650Y014201D01*X021644Y014177D01*X021636Y014153D01*X021625Y014131D01*
X021612Y014110D01*X021597Y014090D01*X021580Y014071D01*X021561Y014055D01*
X021541Y014040D01*X021520Y014028D01*X021497Y014018D01*X021474Y014010D01*
X021449Y014004D01*X021425Y014001D01*X021400Y014000D01*X027100Y014000D02*
X027075Y014001D01*X027051Y014004D01*X027026Y014010D01*X027003Y014018D01*
X026980Y014028D01*X026959Y014040D01*X026939Y014055D01*X026920Y014071D01*
X026903Y014090D01*X026888Y014110D01*X026875Y014131D01*X026864Y014153D01*
X026856Y014177D01*X026850Y014201D01*X026846Y014225D01*X026845Y014250D01*
X026846Y014275D01*X026850Y014299D01*X026856Y014323D01*X026864Y014347D01*
X026875Y014369D01*X026888Y014390D01*X026903Y014410D01*X026920Y014429D01*
X026939Y014445D01*X026959Y014460D01*X026980Y014472D01*X027003Y014482D01*
X027026Y014490D01*X027051Y014496D01*X027075Y014499D01*X027100Y014500D01*
X025900Y012850D02*X027100Y012850D01*X025900Y012850D02*X025900Y014000D01*
X025900Y014500D02*X025900Y015650D01*X025900Y015650D02*X027100Y015650D01*
X027100Y012850D02*X027100Y014000D01*X027100Y014500D02*X027100Y015650D01*
X025900Y014500D02*X025925Y014499D01*X025949Y014496D01*X025974Y014490D01*
X025997Y014482D01*X026020Y014472D01*X026041Y014460D01*X026061Y014445D01*
X026080Y014429D01*X026097Y014410D01*X026112Y014390D01*X026125Y014369D01*
X026136Y014347D01*X026144Y014323D01*X026150Y014299D01*X026154Y014275D01*
X026155Y014250D01*X026154Y014225D01*X026150Y014201D01*X026144Y014177D01*
X026136Y014153D01*X026125Y014131D01*X026112Y014110D01*X026097Y014090D01*
X026080Y014071D01*X026061Y014055D01*X026041Y014040D01*X026020Y014028D01*
X025997Y014018D01*X025974Y014010D01*X025949Y014004D01*X025925Y014001D01*
X025900Y014000D01*X028750Y015975D02*X028749Y015950D01*X028746Y015926D01*
X028740Y015901D01*X028732Y015878D01*X028722Y015855D01*X028710Y015834D01*
X028695Y015814D01*X028679Y015795D01*X028660Y015778D01*X028640Y015763D01*
X028619Y015750D01*X028597Y015739D01*X028573Y015731D01*X028549Y015725D01*
X028525Y015721D01*X028500Y015720D01*X028475Y015721D01*X028451Y015725D01*
X028427Y015731D01*X028403Y015739D01*X028381Y015750D01*X028360Y015763D01*
X028340Y015778D01*X028321Y015795D01*X028305Y015814D01*X028290Y015834D01*
X028278Y015855D01*X028268Y015878D01*X028260Y015901D01*X028254Y015926D01*
X028251Y015950D01*X028250Y015975D01*X029900Y014775D02*X029900Y015975D01*
X029900Y014775D02*X028750Y014775D01*X028250Y014775D02*X027100Y014775D01*
X027100Y014775D02*X027100Y015975D01*X029900Y015975D02*X028750Y015975D01*
X028250Y015975D02*X027100Y015975D01*X028250Y014775D02*X028251Y014800D01*
X028254Y014824D01*X028260Y014849D01*X028268Y014872D01*X028278Y014895D01*
X028290Y014916D01*X028305Y014936D01*X028321Y014955D01*X028340Y014972D01*
X028360Y014987D01*X028381Y015000D01*X028403Y015011D01*X028427Y015019D01*
X028451Y015025D01*X028475Y015029D01*X028500Y015030D01*X028525Y015029D01*
X028549Y015025D01*X028573Y015019D01*X028597Y015011D01*X028619Y015000D01*
X028640Y014987D01*X028660Y014972D01*X028679Y014955D01*X028695Y014936D01*
X028710Y014916D01*X028722Y014895D01*X028732Y014872D01*X028740Y014849D01*
X028746Y014824D01*X028749Y014800D01*X028750Y014775D01*X005225Y017275D02*
X008025Y017275D01*X008025Y018475D01*X005225Y018475D01*X005225Y018475D02*
X005225Y017275D01*X021750Y015650D02*X021751Y015675D01*X021754Y015699D01*
X021760Y015724D01*X021768Y015747D01*X021778Y015770D01*X021790Y015791D01*
X021805Y015811D01*X021821Y015830D01*X021840Y015847D01*X021860Y015862D01*
X021881Y015875D01*X021903Y015886D01*X021927Y015894D01*X021951Y015900D01*
X021975Y015904D01*X022000Y015905D01*X022025Y015904D01*X022049Y015900D01*
X022073Y015894D01*X022097Y015886D01*X022119Y015875D01*X022140Y015862D01*
X022160Y015847D01*X022179Y015830D01*X022195Y015811D01*X022210Y015791D01*
X022222Y015770D01*X022232Y015747D01*X022240Y015724D01*X022246Y015699D01*
X022249Y015675D01*X022250Y015650D01*X020600Y016850D02*X020600Y015650D01*
X020600Y016850D02*X021750Y016850D01*X022250Y016850D02*X023400Y016850D01*
X023400Y016850D02*X023400Y015650D01*X020600Y015650D02*X021750Y015650D01*
X022250Y015650D02*X023400Y015650D01*X022250Y016850D02*X022249Y016825D01*
X022246Y016801D01*X022240Y016776D01*X022232Y016753D01*X022222Y016730D01*
X022210Y016709D01*X022195Y016689D01*X022179Y016670D01*X022160Y016653D01*
X022140Y016638D01*X022119Y016625D01*X022097Y016614D01*X022073Y016606D01*
X022049Y016600D01*X022025Y016596D01*X022000Y016595D01*X021975Y016596D01*
X021951Y016600D01*X021927Y016606D01*X021903Y016614D01*X021881Y016625D01*
X021860Y016638D01*X021840Y016653D01*X021821Y016670D01*X021805Y016689D01*
X021790Y016709D01*X021778Y016730D01*X021768Y016753D01*X021760Y016776D01*
X021754Y016801D01*X021751Y016825D01*X021750Y016850D01*X028750Y017225D02*
X028749Y017200D01*X028746Y017176D01*X028740Y017151D01*X028732Y017128D01*
X028722Y017105D01*X028710Y017084D01*X028695Y017064D01*X028679Y017045D01*
X028660Y017028D01*X028640Y017013D01*X028619Y017000D01*X028597Y016989D01*
X028573Y016981D01*X028549Y016975D01*X028525Y016971D01*X028500Y016970D01*
X028475Y016971D01*X028451Y016975D01*X028427Y016981D01*X028403Y016989D01*
X028381Y017000D01*X028360Y017013D01*X028340Y017028D01*X028321Y017045D01*
X028305Y017064D01*X028290Y017084D01*X028278Y017105D01*X028268Y017128D01*
X028260Y017151D01*X028254Y017176D01*X028251Y017200D01*X028250Y017225D01*
X029900Y016025D02*X029900Y017225D01*X029900Y016025D02*X028750Y016025D01*
X028250Y016025D02*X027100Y016025D01*X027100Y016025D02*X027100Y017225D01*
X029900Y017225D02*X028750Y017225D01*X028250Y017225D02*X027100Y017225D01*
X028250Y016025D02*X028251Y016050D01*X028254Y016074D01*X028260Y016099D01*
X028268Y016122D01*X028278Y016145D01*X028290Y016166D01*X028305Y016186D01*
X028321Y016205D01*X028340Y016222D01*X028360Y016237D01*X028381Y016250D01*
X028403Y016261D01*X028427Y016269D01*X028451Y016275D01*X028475Y016279D01*
X028500Y016280D01*X028525Y016279D01*X028549Y016275D01*X028573Y016269D01*
X028597Y016261D01*X028619Y016250D01*X028640Y016237D01*X028660Y016222D01*
X028679Y016205D01*X028695Y016186D01*X028710Y016166D01*X028722Y016145D01*
X028732Y016122D01*X028740Y016099D01*X028746Y016074D01*X028749Y016050D01*
X028750Y016025D01*X028750Y018475D02*X028749Y018450D01*X028746Y018426D01*
X028740Y018401D01*X028732Y018378D01*X028722Y018355D01*X028710Y018334D01*
X028695Y018314D01*X028679Y018295D01*X028660Y018278D01*X028640Y018263D01*
X028619Y018250D01*X028597Y018239D01*X028573Y018231D01*X028549Y018225D01*
X028525Y018221D01*X028500Y018220D01*X028475Y018221D01*X028451Y018225D01*
X028427Y018231D01*X028403Y018239D01*X028381Y018250D01*X028360Y018263D01*
X028340Y018278D01*X028321Y018295D01*X028305Y018314D01*X028290Y018334D01*
X028278Y018355D01*X028268Y018378D01*X028260Y018401D01*X028254Y018426D01*
X028251Y018450D01*X028250Y018475D01*X029900Y017275D02*X029900Y018475D01*
X029900Y017275D02*X028750Y017275D01*X028250Y017275D02*X027100Y017275D01*
X027100Y017275D02*X027100Y018475D01*X029900Y018475D02*X028750Y018475D01*
X028250Y018475D02*X027100Y018475D01*X028250Y017275D02*X028251Y017300D01*
X028254Y017324D01*X028260Y017349D01*X028268Y017372D01*X028278Y017395D01*
X028290Y017416D01*X028305Y017436D01*X028321Y017455D01*X028340Y017472D01*
X028360Y017487D01*X028381Y017500D01*X028403Y017511D01*X028427Y017519D01*
X028451Y017525D01*X028475Y017529D01*X028500Y017530D01*X028525Y017529D01*
X028549Y017525D01*X028573Y017519D01*X028597Y017511D01*X028619Y017500D01*
X028640Y017487D01*X028660Y017472D01*X028679Y017455D01*X028695Y017436D01*
X028710Y017416D01*X028722Y017395D01*X028732Y017372D01*X028740Y017349D01*
X028746Y017324D01*X028749Y017300D01*X028750Y017275D01*X028750Y019725D02*
X028749Y019700D01*X028746Y019676D01*X028740Y019651D01*X028732Y019628D01*
X028722Y019605D01*X028710Y019584D01*X028695Y019564D01*X028679Y019545D01*
X028660Y019528D01*X028640Y019513D01*X028619Y019500D01*X028597Y019489D01*
X028573Y019481D01*X028549Y019475D01*X028525Y019471D01*X028500Y019470D01*
X028475Y019471D01*X028451Y019475D01*X028427Y019481D01*X028403Y019489D01*
X028381Y019500D01*X028360Y019513D01*X028340Y019528D01*X028321Y019545D01*
X028305Y019564D01*X028290Y019584D01*X028278Y019605D01*X028268Y019628D01*
X028260Y019651D01*X028254Y019676D01*X028251Y019700D01*X028250Y019725D01*
X029900Y018525D02*X029900Y019725D01*X029900Y018525D02*X028750Y018525D01*
X028250Y018525D02*X027100Y018525D01*X027100Y018525D02*X027100Y019725D01*
X029900Y019725D02*X028750Y019725D01*X028250Y019725D02*X027100Y019725D01*
X028250Y018525D02*X028251Y018550D01*X028254Y018574D01*X028260Y018599D01*
X028268Y018622D01*X028278Y018645D01*X028290Y018666D01*X028305Y018686D01*
X028321Y018705D01*X028340Y018722D01*X028360Y018737D01*X028381Y018750D01*
X028403Y018761D01*X028427Y018769D01*X028451Y018775D01*X028475Y018779D01*
X028500Y018780D01*X028525Y018779D01*X028549Y018775D01*X028573Y018769D01*
X028597Y018761D01*X028619Y018750D01*X028640Y018737D01*X028660Y018722D01*
X028679Y018705D01*X028695Y018686D01*X028710Y018666D01*X028722Y018645D01*
X028732Y018622D01*X028740Y018599D01*X028746Y018574D01*X028749Y018550D01*
X028750Y018525D01*X005225Y018525D02*X008025Y018525D01*X008025Y019725D01*
X005225Y019725D01*X005225Y019725D02*X005225Y018525D01*X010350Y021500D02*
X010325Y021501D01*X010301Y021504D01*X010276Y021510D01*X010253Y021518D01*
X010230Y021528D01*X010209Y021540D01*X010189Y021555D01*X010170Y021571D01*
X010153Y021590D01*X010138Y021610D01*X010125Y021631D01*X010114Y021653D01*
X010106Y021677D01*X010100Y021701D01*X010096Y021725D01*X010095Y021750D01*
X010096Y021775D01*X010100Y021799D01*X010106Y021823D01*X010114Y021847D01*
X010125Y021869D01*X010138Y021890D01*X010153Y021910D01*X010170Y021929D01*
X010189Y021945D01*X010209Y021960D01*X010230Y021972D01*X010253Y021982D01*
X010276Y021990D01*X010301Y021996D01*X010325Y021999D01*X010350Y022000D01*
X009150Y020350D02*X010350Y020350D01*X009150Y020350D02*X009150Y021500D01*
X009150Y022000D02*X009150Y023150D01*X009150Y023150D02*X010350Y023150D01*
X010350Y020350D02*X010350Y021500D01*X010350Y022000D02*X010350Y023150D01*
X009150Y022000D02*X009175Y021999D01*X009199Y021996D01*X009224Y021990D01*
X009247Y021982D01*X009270Y021972D01*X009291Y021960D01*X009311Y021945D01*
X009330Y021929D01*X009347Y021910D01*X009362Y021890D01*X009375Y021869D01*
X009386Y021847D01*X009394Y021823D01*X009400Y021799D01*X009404Y021775D01*
X009405Y021750D01*X009404Y021725D01*X009400Y021701D01*X009394Y021677D01*
X009386Y021653D01*X009375Y021631D01*X009362Y021610D01*X009347Y021590D01*
X009330Y021571D01*X009311Y021555D01*X009291Y021540D01*X009270Y021528D01*
X009247Y021518D01*X009224Y021510D01*X009199Y021504D01*X009175Y021501D01*
X009150Y021500D01*X015250Y021600D02*X015249Y021575D01*X015246Y021551D01*
X015240Y021526D01*X015232Y021503D01*X015222Y021480D01*X015210Y021459D01*
X015195Y021439D01*X015179Y021420D01*X015160Y021403D01*X015140Y021388D01*
X015119Y021375D01*X015097Y021364D01*X015073Y021356D01*X015049Y021350D01*
X015025Y021346D01*X015000Y021345D01*X014975Y021346D01*X014951Y021350D01*
X014927Y021356D01*X014903Y021364D01*X014881Y021375D01*X014860Y021388D01*
X014840Y021403D01*X014821Y021420D01*X014805Y021439D01*X014790Y021459D01*
X014778Y021480D01*X014768Y021503D01*X014760Y021526D01*X014754Y021551D01*
X014751Y021575D01*X014750Y021600D01*X016400Y020400D02*X016400Y021600D01*
X016400Y020400D02*X015250Y020400D01*X014750Y020400D02*X013600Y020400D01*
X013600Y020400D02*X013600Y021600D01*X016400Y021600D02*X015250Y021600D01*
X014750Y021600D02*X013600Y021600D01*X014750Y020400D02*X014751Y020425D01*
X014754Y020449D01*X014760Y020474D01*X014768Y020497D01*X014778Y020520D01*
X014790Y020541D01*X014805Y020561D01*X014821Y020580D01*X014840Y020597D01*
X014860Y020612D01*X014881Y020625D01*X014903Y020636D01*X014927Y020644D01*
X014951Y020650D01*X014975Y020654D01*X015000Y020655D01*X015025Y020654D01*
X015049Y020650D01*X015073Y020644D01*X015097Y020636D01*X015119Y020625D01*
X015140Y020612D01*X015160Y020597D01*X015179Y020580D01*X015195Y020561D01*
X015210Y020541D01*X015222Y020520D01*X015232Y020497D01*X015240Y020474D01*
X015246Y020449D01*X015249Y020425D01*X015250Y020400D01*X012250Y021600D02*
X012249Y021575D01*X012246Y021551D01*X012240Y021526D01*X012232Y021503D01*
X012222Y021480D01*X012210Y021459D01*X012195Y021439D01*X012179Y021420D01*
X012160Y021403D01*X012140Y021388D01*X012119Y021375D01*X012097Y021364D01*
X012073Y021356D01*X012049Y021350D01*X012025Y021346D01*X012000Y021345D01*
X011975Y021346D01*X011951Y021350D01*X011927Y021356D01*X011903Y021364D01*
X011881Y021375D01*X011860Y021388D01*X011840Y021403D01*X011821Y021420D01*
X011805Y021439D01*X011790Y021459D01*X011778Y021480D01*X011768Y021503D01*
X011760Y021526D01*X011754Y021551D01*X011751Y021575D01*X011750Y021600D01*
X013400Y020400D02*X013400Y021600D01*X013400Y020400D02*X012250Y020400D01*
X011750Y020400D02*X010600Y020400D01*X010600Y020400D02*X010600Y021600D01*
X013400Y021600D02*X012250Y021600D01*X011750Y021600D02*X010600Y021600D01*
X011750Y020400D02*X011751Y020425D01*X011754Y020449D01*X011760Y020474D01*
X011768Y020497D01*X011778Y020520D01*X011790Y020541D01*X011805Y020561D01*
X011821Y020580D01*X011840Y020597D01*X011860Y020612D01*X011881Y020625D01*
X011903Y020636D01*X011927Y020644D01*X011951Y020650D01*X011975Y020654D01*
X012000Y020655D01*X012025Y020654D01*X012049Y020650D01*X012073Y020644D01*
X012097Y020636D01*X012119Y020625D01*X012140Y020612D01*X012160Y020597D01*
X012179Y020580D01*X012195Y020561D01*X012210Y020541D01*X012222Y020520D01*
X012232Y020497D01*X012240Y020474D01*X012246Y020449D01*X012249Y020425D01*
X012250Y020400D01*X021025Y021000D02*X021050Y020999D01*X021074Y020996D01*
X021099Y020990D01*X021122Y020982D01*X021145Y020972D01*X021166Y020960D01*
X021186Y020945D01*X021205Y020929D01*X021222Y020910D01*X021237Y020890D01*
X021250Y020869D01*X021261Y020847D01*X021269Y020823D01*X021275Y020799D01*
X021279Y020775D01*X021280Y020750D01*X021279Y020725D01*X021275Y020701D01*
X021269Y020677D01*X021261Y020653D01*X021250Y020631D01*X021237Y020610D01*
X021222Y020590D01*X021205Y020571D01*X021186Y020555D01*X021166Y020540D01*
X021145Y020528D01*X021122Y020518D01*X021099Y020510D01*X021074Y020504D01*
X021050Y020501D01*X021025Y020500D01*X022225Y022150D02*X021025Y022150D01*
X022225Y022150D02*X022225Y021000D01*X022225Y020500D02*X022225Y019350D01*
X022225Y019350D02*X021025Y019350D01*X021025Y022150D02*X021025Y021000D01*
X021025Y020500D02*X021025Y019350D01*X022225Y020500D02*X022200Y020501D01*
X022176Y020504D01*X022151Y020510D01*X022128Y020518D01*X022105Y020528D01*
X022084Y020540D01*X022064Y020555D01*X022045Y020571D01*X022028Y020590D01*
X022013Y020610D01*X022000Y020631D01*X021989Y020653D01*X021981Y020677D01*
X021975Y020701D01*X021971Y020725D01*X021970Y020750D01*X021971Y020775D01*
X021975Y020799D01*X021981Y020823D01*X021989Y020847D01*X022000Y020869D01*
X022013Y020890D01*X022028Y020910D01*X022045Y020929D01*X022064Y020945D01*
X022084Y020960D01*X022105Y020972D01*X022128Y020982D01*X022151Y020990D01*
X022176Y020996D01*X022200Y020999D01*X022225Y021000D01*X022275Y021000D02*
X022300Y020999D01*X022324Y020996D01*X022349Y020990D01*X022372Y020982D01*
X022395Y020972D01*X022416Y020960D01*X022436Y020945D01*X022455Y020929D01*
X022472Y020910D01*X022487Y020890D01*X022500Y020869D01*X022511Y020847D01*
X022519Y020823D01*X022525Y020799D01*X022529Y020775D01*X022530Y020750D01*
X022529Y020725D01*X022525Y020701D01*X022519Y020677D01*X022511Y020653D01*
X022500Y020631D01*X022487Y020610D01*X022472Y020590D01*X022455Y020571D01*
X022436Y020555D01*X022416Y020540D01*X022395Y020528D01*X022372Y020518D01*
X022349Y020510D01*X022324Y020504D01*X022300Y020501D01*X022275Y020500D01*
X023475Y022150D02*X022275Y022150D01*X023475Y022150D02*X023475Y021000D01*
X023475Y020500D02*X023475Y019350D01*X023475Y019350D02*X022275Y019350D01*
X022275Y022150D02*X022275Y021000D01*X022275Y020500D02*X022275Y019350D01*
X023475Y020500D02*X023450Y020501D01*X023426Y020504D01*X023401Y020510D01*
X023378Y020518D01*X023355Y020528D01*X023334Y020540D01*X023314Y020555D01*
X023295Y020571D01*X023278Y020590D01*X023263Y020610D01*X023250Y020631D01*
X023239Y020653D01*X023231Y020677D01*X023225Y020701D01*X023221Y020725D01*
X023220Y020750D01*X023221Y020775D01*X023225Y020799D01*X023231Y020823D01*
X023239Y020847D01*X023250Y020869D01*X023263Y020890D01*X023278Y020910D01*
X023295Y020929D01*X023314Y020945D01*X023334Y020960D01*X023355Y020972D01*
X023378Y020982D01*X023401Y020990D01*X023426Y020996D01*X023450Y020999D01*
X023475Y021000D01*X028750Y020975D02*X028749Y020950D01*X028746Y020926D01*
X028740Y020901D01*X028732Y020878D01*X028722Y020855D01*X028710Y020834D01*
X028695Y020814D01*X028679Y020795D01*X028660Y020778D01*X028640Y020763D01*
X028619Y020750D01*X028597Y020739D01*X028573Y020731D01*X028549Y020725D01*
X028525Y020721D01*X028500Y020720D01*X028475Y020721D01*X028451Y020725D01*
X028427Y020731D01*X028403Y020739D01*X028381Y020750D01*X028360Y020763D01*
X028340Y020778D01*X028321Y020795D01*X028305Y020814D01*X028290Y020834D01*
X028278Y020855D01*X028268Y020878D01*X028260Y020901D01*X028254Y020926D01*
X028251Y020950D01*X028250Y020975D01*X029900Y019775D02*X029900Y020975D01*
X029900Y019775D02*X028750Y019775D01*X028250Y019775D02*X027100Y019775D01*
X027100Y019775D02*X027100Y020975D01*X029900Y020975D02*X028750Y020975D01*
X028250Y020975D02*X027100Y020975D01*X028250Y019775D02*X028251Y019800D01*
X028254Y019824D01*X028260Y019849D01*X028268Y019872D01*X028278Y019895D01*
X028290Y019916D01*X028305Y019936D01*X028321Y019955D01*X028340Y019972D01*
X028360Y019987D01*X028381Y020000D01*X028403Y020011D01*X028427Y020019D01*
X028451Y020025D01*X028475Y020029D01*X028500Y020030D01*X028525Y020029D01*
X028549Y020025D01*X028573Y020019D01*X028597Y020011D01*X028619Y020000D01*
X028640Y019987D01*X028660Y019972D01*X028679Y019955D01*X028695Y019936D01*
X028710Y019916D01*X028722Y019895D01*X028732Y019872D01*X028740Y019849D01*
X028746Y019824D01*X028749Y019800D01*X028750Y019775D01*X030500Y022275D02*
X030501Y022300D01*X030504Y022324D01*X030510Y022349D01*X030518Y022372D01*
X030528Y022395D01*X030540Y022416D01*X030555Y022436D01*X030571Y022455D01*
X030590Y022472D01*X030610Y022487D01*X030631Y022500D01*X030653Y022511D01*
X030677Y022519D01*X030701Y022525D01*X030725Y022529D01*X030750Y022530D01*
X030775Y022529D01*X030799Y022525D01*X030823Y022519D01*X030847Y022511D01*
X030869Y022500D01*X030890Y022487D01*X030910Y022472D01*X030929Y022455D01*
X030945Y022436D01*X030960Y022416D01*X030972Y022395D01*X030982Y022372D01*
X030990Y022349D01*X030996Y022324D01*X030999Y022300D01*X031000Y022275D01*
X029350Y023475D02*X029350Y022275D01*X029350Y023475D02*X030500Y023475D01*
X031000Y023475D02*X032150Y023475D01*X032150Y023475D02*X032150Y022275D01*
X029350Y022275D02*X030500Y022275D01*X031000Y022275D02*X032150Y022275D01*
X031000Y023475D02*X030999Y023450D01*X030996Y023426D01*X030990Y023401D01*
X030982Y023378D01*X030972Y023355D01*X030960Y023334D01*X030945Y023314D01*
X030929Y023295D01*X030910Y023278D01*X030890Y023263D01*X030869Y023250D01*
X030847Y023239D01*X030823Y023231D01*X030799Y023225D01*X030775Y023221D01*
X030750Y023220D01*X030725Y023221D01*X030701Y023225D01*X030677Y023231D01*
X030653Y023239D01*X030631Y023250D01*X030610Y023263D01*X030590Y023278D01*
X030571Y023295D01*X030555Y023314D01*X030540Y023334D01*X030528Y023355D01*
X030518Y023378D01*X030510Y023401D01*X030504Y023426D01*X030501Y023450D01*
X030500Y023475D01*X027100Y021025D02*X029900Y021025D01*X029900Y022225D01*
X027100Y022225D01*X027100Y022225D02*X027100Y021025D01*X027900Y027900D02*
X027900Y025100D01*X029100Y025100D01*X029100Y027900D01*X029100Y027900D02*
X027900Y027900D01*X026400Y027900D02*X026400Y025100D01*X027600Y025100D01*
X027600Y027900D01*X027600Y027900D02*X026400Y027900D01*D02*G54D15*
X019750Y042500D02*X002250Y042500D01*X002250Y039000D01*X019750Y039000D01*
X019750Y040750D02*X054750Y040750D01*X033750Y042500D02*X033750Y039000D01*
X019750Y042500D02*X054750Y042500D01*X054750Y039000D02*X019750Y039000D01*
X019750Y042500D02*X019750Y039000D01*X054750Y042500D02*X054750Y039000D01*
X044250Y042500D02*X044250Y039000D01*X046154Y040098D02*X046154Y040066D01*
X046186Y040066D01*X046186Y040098D01*X046154Y040098D01*X046154Y040130D02*
X046186Y040130D01*X046218Y040098D01*X046218Y040066D01*X046186Y040034D01*
X046154Y040034D01*X046123Y040066D01*X046123Y040098D01*X046154Y040161D01*
X046186Y040193D01*X046282Y040214D01*X046414Y040214D01*X046509Y040193D01*
X046541Y040161D01*X046578Y040098D01*X046578Y040034D01*X046541Y039981D01*
X046446Y039917D01*X046282Y039854D01*X046218Y039822D01*X046154Y039758D01*
X046123Y039673D01*X046123Y039578D01*X046509Y040161D02*X046541Y040098D01*
X046541Y040034D01*X046509Y039981D01*X046414Y040214D02*X046477Y040193D01*
X046509Y040098D01*X046509Y040034D01*X046477Y039981D01*X046414Y039917D01*
X046282Y039854D01*X046123Y039642D02*X046154Y039673D01*X046218Y039673D01*
X046377Y039642D01*X046509Y039642D01*X046578Y039673D01*X046218Y039673D02*
X046377Y039610D01*X046509Y039610D01*X046541Y039642D01*X046218Y039673D02*
X046377Y039578D01*X046509Y039578D01*X046541Y039610D01*X046578Y039673D01*
X046578Y039727D01*X047014Y040214D02*X046918Y040193D01*X046854Y040098D01*
X046823Y039949D01*X046823Y039854D01*X046854Y039705D01*X046918Y039610D01*
X047014Y039578D01*X047082Y039578D01*X047177Y039610D01*X047241Y039705D01*
X047278Y039854D01*X047278Y039949D01*X047241Y040098D01*X047177Y040193D01*
X047082Y040214D01*X047014Y040214D01*X046918Y040161D02*X046886Y040098D01*
X046854Y039981D01*X046854Y039822D01*X046886Y039705D01*X046918Y039642D01*
X047177Y039642D02*X047209Y039705D01*X047241Y039822D01*X047241Y039981D01*
X047209Y040098D01*X047177Y040161D01*X047014Y040214D02*X046950Y040193D01*
X046918Y040130D01*X046886Y039981D01*X046886Y039822D01*X046918Y039673D01*
X046950Y039610D01*X047014Y039578D01*X047082Y039578D02*X047146Y039610D01*
X047177Y039673D01*X047209Y039822D01*X047209Y039981D01*X047177Y040130D01*
X047146Y040193D01*X047082Y040214D01*X047727Y040161D02*X047727Y039578D01*
X047745Y040161D02*X047745Y039610D01*X047759Y040214D02*X047759Y039578D01*
X047759Y040214D02*X047714Y040130D01*X047686Y040098D01*X047673Y039578D02*
X047818Y039578D01*X047727Y039610D02*X047700Y039578D01*X047727Y039642D02*
X047714Y039578D01*X047759Y039642D02*X047773Y039578D01*X047759Y039610D02*
X047786Y039578D01*X048577Y040130D02*X048577Y040098D01*X048609Y040098D01*
X048609Y040130D01*X048577Y040130D01*X048609Y040161D02*X048577Y040161D01*
X048546Y040130D01*X048546Y040098D01*X048577Y040066D01*X048609Y040066D01*
X048641Y040098D01*X048641Y040130D01*X048609Y040193D01*X048546Y040214D01*
X048450Y040214D01*X048350Y040193D01*X048286Y040130D01*X048254Y040066D01*
X048223Y039949D01*X048223Y039758D01*X048254Y039673D01*X048318Y039610D01*
X048414Y039578D01*X048482Y039578D01*X048577Y039610D01*X048641Y039673D01*
X048678Y039758D01*X048678Y039790D01*X048641Y039886D01*X048577Y039949D01*
X048482Y039981D01*X048414Y039981D01*X048350Y039949D01*X048318Y039917D01*
X048286Y039854D01*X048318Y040130D02*X048286Y040066D01*X048254Y039949D01*
X048254Y039758D01*X048286Y039673D01*X048318Y039642D01*X048609Y039673D02*
X048641Y039727D01*X048641Y039822D01*X048609Y039886D01*X048450Y040214D02*
X048382Y040193D01*X048350Y040161D01*X048318Y040098D01*X048286Y039981D01*
X048286Y039758D01*X048318Y039673D01*X048350Y039610D01*X048414Y039578D01*
X048482Y039578D02*X048546Y039610D01*X048577Y039642D01*X048609Y039727D01*
X048609Y039822D01*X048577Y039917D01*X048546Y039949D01*X048482Y039981D01*
X048923Y039886D02*X049378Y039886D01*X049378Y039854D01*X048923Y039886D02*
X048923Y039854D01*X049378Y039854D01*X049827Y040161D02*X049827Y039578D01*
X049845Y040161D02*X049845Y039610D01*X049859Y040214D02*X049859Y039578D01*
X049859Y040214D02*X049814Y040130D01*X049786Y040098D01*X049773Y039578D02*
X049918Y039578D01*X049827Y039610D02*X049800Y039578D01*X049827Y039642D02*
X049814Y039578D01*X049859Y039642D02*X049873Y039578D01*X049859Y039610D02*
X049886Y039578D01*X050354Y040098D02*X050354Y040066D01*X050386Y040066D01*
X050386Y040098D01*X050354Y040098D01*X050354Y040130D02*X050386Y040130D01*
X050418Y040098D01*X050418Y040066D01*X050386Y040034D01*X050354Y040034D01*
X050322Y040066D01*X050322Y040098D01*X050354Y040161D01*X050386Y040193D01*
X050482Y040214D01*X050614Y040214D01*X050709Y040193D01*X050741Y040161D01*
X050777Y040098D01*X050777Y040034D01*X050741Y039981D01*X050646Y039917D01*
X050482Y039854D01*X050418Y039822D01*X050354Y039758D01*X050322Y039673D01*
X050322Y039578D01*X050709Y040161D02*X050741Y040098D01*X050741Y040034D01*
X050709Y039981D01*X050614Y040214D02*X050677Y040193D01*X050709Y040098D01*
X050709Y040034D01*X050677Y039981D01*X050614Y039917D01*X050482Y039854D01*
X050322Y039642D02*X050354Y039673D01*X050418Y039673D01*X050577Y039642D01*
X050709Y039642D01*X050777Y039673D01*X050418Y039673D02*X050577Y039610D01*
X050709Y039610D01*X050741Y039642D01*X050418Y039673D02*X050577Y039578D01*
X050709Y039578D01*X050741Y039610D01*X050777Y039673D01*X050777Y039727D01*
X051022Y039886D02*X051477Y039886D01*X051477Y039854D01*X051022Y039886D02*
X051022Y039854D01*X051477Y039854D01*X051754Y040098D02*X051754Y040066D01*
X051786Y040066D01*X051786Y040098D01*X051754Y040098D01*X051754Y040130D02*
X051786Y040130D01*X051818Y040098D01*X051818Y040066D01*X051786Y040034D01*
X051754Y040034D01*X051722Y040066D01*X051722Y040098D01*X051754Y040161D01*
X051786Y040193D01*X051882Y040214D01*X052014Y040214D01*X052109Y040193D01*
X052141Y040161D01*X052177Y040098D01*X052177Y040034D01*X052141Y039981D01*
X052046Y039917D01*X051882Y039854D01*X051818Y039822D01*X051754Y039758D01*
X051722Y039673D01*X051722Y039578D01*X052109Y040161D02*X052141Y040098D01*
X052141Y040034D01*X052109Y039981D01*X052014Y040214D02*X052077Y040193D01*
X052109Y040098D01*X052109Y040034D01*X052077Y039981D01*X052014Y039917D01*
X051882Y039854D01*X051722Y039642D02*X051754Y039673D01*X051818Y039673D01*
X051977Y039642D01*X052109Y039642D01*X052177Y039673D01*X051818Y039673D02*
X051977Y039610D01*X052109Y039610D01*X052141Y039642D01*X051818Y039673D02*
X051977Y039578D01*X052109Y039578D01*X052141Y039610D01*X052177Y039673D01*
X052177Y039727D01*X052582Y040214D02*X052486Y040193D01*X052454Y040130D01*
X052454Y040034D01*X052486Y039981D01*X052582Y039949D01*X052714Y039949D01*
X052809Y039981D01*X052841Y040034D01*X052841Y040130D01*X052809Y040193D01*
X052714Y040214D01*X052582Y040214D01*X052518Y040193D02*X052486Y040130D01*
X052486Y040034D01*X052518Y039981D01*X052777Y039981D02*X052809Y040034D01*
X052809Y040130D01*X052777Y040193D01*X052582Y040214D02*X052550Y040193D01*
X052518Y040130D01*X052518Y040034D01*X052550Y039981D01*X052582Y039949D01*
X052714Y039949D02*X052746Y039981D01*X052777Y040034D01*X052777Y040130D01*
X052746Y040193D01*X052714Y040214D01*X052582Y039949D02*X052486Y039917D01*
X052454Y039886D01*X052422Y039822D01*X052422Y039705D01*X052454Y039642D01*
X052486Y039610D01*X052582Y039578D01*X052714Y039578D01*X052809Y039610D01*
X052841Y039642D01*X052877Y039705D01*X052877Y039822D01*X052841Y039886D01*
X052809Y039917D01*X052714Y039949D01*X052486Y039886D02*X052454Y039822D01*
X052454Y039705D01*X052486Y039642D01*X052809Y039642D02*X052841Y039705D01*
X052841Y039822D01*X052809Y039886D01*X052582Y039949D02*X052518Y039917D01*
X052486Y039822D01*X052486Y039705D01*X052518Y039610D01*X052582Y039578D01*
X052714Y039578D02*X052777Y039610D01*X052809Y039705D01*X052809Y039822D01*
X052777Y039917D01*X052714Y039949D01*X048300Y041964D02*X048300Y041328D01*
X048327Y041943D02*X048327Y041360D01*X048354Y041964D02*X048354Y041328D01*
X048223Y041964D02*X048486Y041964D01*X048568Y041943D01*X048623Y041880D01*
X048650Y041816D01*X048678Y041731D01*X048678Y041572D01*X048650Y041477D01*
X048623Y041423D01*X048568Y041360D01*X048486Y041328D01*X048223Y041328D01*
X048596Y041880D02*X048623Y041816D01*X048650Y041731D01*X048650Y041572D01*
X048623Y041477D01*X048596Y041423D01*X048486Y041964D02*X048541Y041943D01*
X048596Y041848D01*X048623Y041731D01*X048623Y041572D01*X048596Y041455D01*
X048541Y041360D01*X048486Y041328D01*X048245Y041964D02*X048300Y041943D01*
X048273Y041964D02*X048300Y041911D01*X048382Y041964D02*X048354Y041911D01*
X048409Y041964D02*X048354Y041943D01*X048300Y041360D02*X048245Y041328D01*
X048300Y041392D02*X048273Y041328D01*X048354Y041392D02*X048382Y041328D01*
X048354Y041360D02*X048409Y041328D01*X049150Y041964D02*X048973Y041360D01*
X049123Y041880D02*X049273Y041328D01*X049150Y041880D02*X049300Y041328D01*
X049150Y041964D02*X049323Y041328D01*X049023Y041508D02*X049250Y041508D01*
X048923Y041328D02*X049073Y041328D01*X049200Y041328D02*X049378Y041328D01*
X048973Y041360D02*X048945Y041328D01*X048973Y041360D02*X049023Y041328D01*
X049273Y041360D02*X049223Y041328D01*X049273Y041392D02*X049250Y041328D01*
X049300Y041392D02*X049350Y041328D01*X049623Y041964D02*X049623Y041784D01*
X049818Y041964D02*X049818Y041328D01*X049850Y041943D02*X049850Y041360D01*
X049877Y041964D02*X049877Y041328D01*X050077Y041964D02*X050077Y041784D01*
X049623Y041964D02*X050077Y041964D01*X049736Y041328D02*X049959Y041328D01*
X049650Y041964D02*X049623Y041784D01*X049677Y041964D02*X049623Y041880D01*
X049704Y041964D02*X049623Y041911D01*X049764Y041964D02*X049623Y041943D01*
X049932Y041964D02*X050077Y041943D01*X049991Y041964D02*X050077Y041911D01*
X050018Y041964D02*X050077Y041880D01*X050046Y041964D02*X050077Y041784D01*
X049818Y041360D02*X049764Y041328D01*X049818Y041392D02*X049791Y041328D01*
X049877Y041392D02*X049905Y041328D01*X049877Y041360D02*X049932Y041328D01*
X050404Y041964D02*X050404Y041328D01*X050432Y041943D02*X050432Y041360D01*
X050464Y041964D02*X050464Y041328D01*X050322Y041964D02*X050777Y041964D01*
X050777Y041784D01*X050464Y041667D02*X050632Y041667D01*X050632Y041784D02*
X050632Y041540D01*X050322Y041328D02*X050777Y041328D01*X050777Y041508D01*
X050350Y041964D02*X050404Y041943D01*X050377Y041964D02*X050404Y041911D01*
X050491Y041964D02*X050464Y041911D01*X050518Y041964D02*X050464Y041943D01*
X050632Y041964D02*X050777Y041943D01*X050691Y041964D02*X050777Y041911D01*
X050718Y041964D02*X050777Y041880D01*X050746Y041964D02*X050777Y041784D01*
X050632Y041784D02*X050605Y041667D01*X050632Y041540D01*X050632Y041731D02*
X050577Y041667D01*X050632Y041604D01*X050632Y041699D02*X050518Y041667D01*
X050632Y041636D01*X050404Y041360D02*X050350Y041328D01*X050404Y041392D02*
X050377Y041328D01*X050464Y041392D02*X050491Y041328D01*X050464Y041360D02*
X050518Y041328D01*X050632Y041328D02*X050777Y041360D01*X050691Y041328D02*
X050777Y041392D01*X050718Y041328D02*X050777Y041423D01*X050746Y041328D02*
X050777Y041508D01*X035714Y041964D02*X035714Y041328D01*X035741Y041943D02*
X035741Y041360D01*X035773Y041964D02*X035773Y041328D01*X035623Y041964D02*
X035864Y041964D01*X035623Y041328D02*X036078Y041328D01*X036078Y041508D01*
X035650Y041964D02*X035714Y041943D01*X035682Y041964D02*X035714Y041911D01*
X035805Y041964D02*X035773Y041911D01*X035832Y041964D02*X035773Y041943D01*
X035714Y041360D02*X035650Y041328D01*X035714Y041392D02*X035682Y041328D01*
X035773Y041392D02*X035805Y041328D01*X035773Y041360D02*X035832Y041328D01*
X035923Y041328D02*X036078Y041360D01*X035982Y041328D02*X036078Y041392D01*
X036014Y041328D02*X036078Y041423D01*X036046Y041328D02*X036078Y041508D01*
X036550Y041964D02*X036373Y041360D01*X036523Y041880D02*X036673Y041328D01*
X036550Y041880D02*X036700Y041328D01*X036550Y041964D02*X036723Y041328D01*
X036423Y041508D02*X036650Y041508D01*X036323Y041328D02*X036473Y041328D01*
X036600Y041328D02*X036778Y041328D01*X036373Y041360D02*X036345Y041328D01*
X036373Y041360D02*X036423Y041328D01*X036673Y041360D02*X036623Y041328D01*
X036673Y041392D02*X036650Y041328D01*X036700Y041392D02*X036750Y041328D01*
X037068Y041964D02*X037223Y041636D01*X037223Y041328D01*X037091Y041964D02*
X037245Y041636D01*X037245Y041360D01*X037109Y041964D02*X037273Y041636D01*
X037273Y041328D01*X037405Y041943D02*X037273Y041636D01*X037023Y041964D02*
X037182Y041964D01*X037336Y041964D02*X037478Y041964D01*X037159Y041328D02*
X037336Y041328D01*X037045Y041964D02*X037091Y041943D01*X037159Y041964D02*
X037109Y041943D01*X037364Y041964D02*X037405Y041943D01*X037450Y041964D02*
X037405Y041943D01*X037223Y041360D02*X037182Y041328D01*X037223Y041392D02*
X037200Y041328D01*X037273Y041392D02*X037291Y041328D01*X037273Y041360D02*
X037314Y041328D01*X037804Y041964D02*X037804Y041328D01*X037832Y041943D02*
X037832Y041360D01*X037864Y041964D02*X037864Y041328D01*X037723Y041964D02*
X038178Y041964D01*X038178Y041784D01*X037864Y041667D02*X038032Y041667D01*
X038032Y041784D02*X038032Y041540D01*X037723Y041328D02*X038178Y041328D01*
X038178Y041508D01*X037750Y041964D02*X037804Y041943D01*X037777Y041964D02*
X037804Y041911D01*X037891Y041964D02*X037864Y041911D01*X037918Y041964D02*
X037864Y041943D01*X038032Y041964D02*X038178Y041943D01*X038091Y041964D02*
X038178Y041911D01*X038118Y041964D02*X038178Y041880D01*X038146Y041964D02*
X038178Y041784D01*X038032Y041784D02*X038005Y041667D01*X038032Y041540D01*
X038032Y041731D02*X037977Y041667D01*X038032Y041604D01*X038032Y041699D02*
X037918Y041667D01*X038032Y041636D01*X037804Y041360D02*X037750Y041328D01*
X037804Y041392D02*X037777Y041328D01*X037864Y041392D02*X037891Y041328D01*
X037864Y041360D02*X037918Y041328D01*X038032Y041328D02*X038178Y041360D01*
X038091Y041328D02*X038178Y041392D01*X038118Y041328D02*X038178Y041423D01*
X038146Y041328D02*X038178Y041508D01*X038495Y041964D02*X038495Y041328D01*
X038523Y041943D02*X038523Y041360D01*X038545Y041964D02*X038545Y041328D01*
X038423Y041964D02*X038723Y041964D01*X038800Y041943D01*X038823Y041911D01*
X038850Y041848D01*X038850Y041784D01*X038823Y041731D01*X038800Y041699D01*
X038723Y041667D01*X038545Y041667D01*X038800Y041911D02*X038823Y041848D01*
X038823Y041784D01*X038800Y041731D01*X038723Y041964D02*X038773Y041943D01*
X038800Y041880D01*X038800Y041752D01*X038773Y041699D01*X038723Y041667D01*
X038645Y041667D02*X038700Y041636D01*X038723Y041572D01*X038773Y041392D01*
X038800Y041328D01*X038850Y041328D01*X038878Y041392D01*X038878Y041455D01*
X038773Y041455D02*X038800Y041392D01*X038823Y041360D01*X038850Y041360D01*
X038700Y041636D02*X038723Y041604D01*X038800Y041423D01*X038823Y041392D01*
X038850Y041392D01*X038878Y041423D01*X038423Y041328D02*X038623Y041328D01*
X038445Y041964D02*X038495Y041943D01*X038473Y041964D02*X038495Y041911D01*
X038573Y041964D02*X038545Y041911D01*X038595Y041964D02*X038545Y041943D01*
X038495Y041360D02*X038445Y041328D01*X038495Y041392D02*X038473Y041328D01*
X038545Y041392D02*X038573Y041328D01*X038545Y041360D02*X038595Y041328D01*
X039886Y041964D02*X039886Y041360D01*X039886Y041964D02*X040205Y041328D01*
X039913Y041964D02*X040182Y041423D01*X039932Y041964D02*X040205Y041423D01*
X040205Y041943D02*X040205Y041328D01*X039822Y041964D02*X039932Y041964D01*
X040141Y041964D02*X040277Y041964D01*X039822Y041328D02*X039954Y041328D01*
X039841Y041964D02*X039886Y041943D01*X040164Y041964D02*X040205Y041943D01*
X040255Y041964D02*X040205Y041943D01*X039886Y041360D02*X039841Y041328D01*
X039886Y041360D02*X039932Y041328D01*X040750Y041964D02*X040573Y041360D01*
X040723Y041880D02*X040873Y041328D01*X040750Y041880D02*X040900Y041328D01*
X040750Y041964D02*X040923Y041328D01*X040623Y041508D02*X040850Y041508D01*
X040522Y041328D02*X040673Y041328D01*X040800Y041328D02*X040977Y041328D01*
X040573Y041360D02*X040545Y041328D01*X040573Y041360D02*X040623Y041328D01*
X040873Y041360D02*X040823Y041328D01*X040873Y041392D02*X040850Y041328D01*
X040900Y041392D02*X040950Y041328D01*X041282Y041964D02*X041282Y041360D01*
X041282Y041964D02*X041427Y041328D01*X041304Y041964D02*X041427Y041423D01*
X041323Y041964D02*X041445Y041423D01*X041573Y041964D02*X041427Y041328D01*
X041573Y041964D02*X041573Y041328D01*X041591Y041943D02*X041591Y041360D01*
X041614Y041964D02*X041614Y041328D01*X041222Y041964D02*X041323Y041964D01*
X041573Y041964D02*X041677Y041964D01*X041222Y041328D02*X041345Y041328D01*
X041509Y041328D02*X041677Y041328D01*X041241Y041964D02*X041282Y041943D01*
X041632Y041964D02*X041614Y041911D01*X041655Y041964D02*X041614Y041943D01*
X041282Y041360D02*X041241Y041328D01*X041282Y041360D02*X041323Y041328D01*
X041573Y041360D02*X041532Y041328D01*X041573Y041392D02*X041550Y041328D01*
X041614Y041392D02*X041632Y041328D01*X041614Y041360D02*X041655Y041328D01*
X042004Y041964D02*X042004Y041328D01*X042032Y041943D02*X042032Y041360D01*
X042064Y041964D02*X042064Y041328D01*X041922Y041964D02*X042377Y041964D01*
X042377Y041784D01*X042064Y041667D02*X042232Y041667D01*X042232Y041784D02*
X042232Y041540D01*X041922Y041328D02*X042377Y041328D01*X042377Y041508D01*
X041950Y041964D02*X042004Y041943D01*X041977Y041964D02*X042004Y041911D01*
X042091Y041964D02*X042064Y041911D01*X042118Y041964D02*X042064Y041943D01*
X042232Y041964D02*X042377Y041943D01*X042291Y041964D02*X042377Y041911D01*
X042318Y041964D02*X042377Y041880D01*X042346Y041964D02*X042377Y041784D01*
X042232Y041784D02*X042205Y041667D01*X042232Y041540D01*X042232Y041731D02*
X042177Y041667D01*X042232Y041604D01*X042232Y041699D02*X042118Y041667D01*
X042232Y041636D01*X042004Y041360D02*X041950Y041328D01*X042004Y041392D02*
X041977Y041328D01*X042064Y041392D02*X042091Y041328D01*X042064Y041360D02*
X042118Y041328D01*X042232Y041328D02*X042377Y041360D01*X042291Y041328D02*
X042377Y041392D01*X042318Y041328D02*X042377Y041423D01*X042346Y041328D02*
X042377Y041508D01*X023432Y041964D02*X023432Y041360D01*X023432Y041964D02*
X023577Y041328D01*X023454Y041964D02*X023577Y041423D01*X023473Y041964D02*
X023596Y041423D01*X023723Y041964D02*X023577Y041328D01*X023723Y041964D02*
X023723Y041328D01*X023741Y041943D02*X023741Y041360D01*X023764Y041964D02*
X023764Y041328D01*X023373Y041964D02*X023473Y041964D01*X023723Y041964D02*
X023828Y041964D01*X023373Y041328D02*X023495Y041328D01*X023659Y041328D02*
X023828Y041328D01*X023391Y041964D02*X023432Y041943D01*X023782Y041964D02*
X023764Y041911D01*X023805Y041964D02*X023764Y041943D01*X023432Y041360D02*
X023391Y041328D01*X023432Y041360D02*X023473Y041328D01*X023723Y041360D02*
X023682Y041328D01*X023723Y041392D02*X023700Y041328D01*X023764Y041392D02*
X023782Y041328D01*X023764Y041360D02*X023805Y041328D01*X024268Y041964D02*
X024186Y041943D01*X024127Y041880D01*X024100Y041816D01*X024073Y041699D01*
X024073Y041604D01*X024100Y041477D01*X024127Y041423D01*X024186Y041360D01*
X024268Y041328D01*X024327Y041328D01*X024414Y041360D01*X024468Y041423D01*
X024496Y041477D01*X024528Y041604D01*X024528Y041699D01*X024496Y041816D01*
X024468Y041880D01*X024414Y041943D01*X024327Y041964D01*X024268Y041964D01*
X024154Y041880D02*X024127Y041816D01*X024100Y041731D01*X024100Y041572D01*
X024127Y041477D01*X024154Y041423D01*X024441Y041423D02*X024468Y041477D01*
X024496Y041572D01*X024496Y041731D01*X024468Y041816D01*X024441Y041880D01*
X024268Y041964D02*X024214Y041943D01*X024154Y041848D01*X024127Y041731D01*
X024127Y041572D01*X024154Y041455D01*X024214Y041360D01*X024268Y041328D01*
X024327Y041328D02*X024382Y041360D01*X024441Y041455D01*X024468Y041572D01*
X024468Y041731D01*X024441Y041848D01*X024382Y041943D01*X024327Y041964D01*
X024850Y041964D02*X024850Y041328D01*X024877Y041943D02*X024877Y041360D01*
X024904Y041964D02*X024904Y041328D01*X024773Y041964D02*X025036Y041964D01*
X025118Y041943D01*X025173Y041880D01*X025200Y041816D01*X025228Y041731D01*
X025228Y041572D01*X025200Y041477D01*X025173Y041423D01*X025118Y041360D01*
X025036Y041328D01*X024773Y041328D01*X025146Y041880D02*X025173Y041816D01*
X025200Y041731D01*X025200Y041572D01*X025173Y041477D01*X025146Y041423D01*
X025036Y041964D02*X025091Y041943D01*X025146Y041848D01*X025173Y041731D01*
X025173Y041572D01*X025146Y041455D01*X025091Y041360D01*X025036Y041328D01*
X024795Y041964D02*X024850Y041943D01*X024823Y041964D02*X024850Y041911D01*
X024932Y041964D02*X024904Y041911D01*X024959Y041964D02*X024904Y041943D01*
X024850Y041360D02*X024795Y041328D01*X024850Y041392D02*X024823Y041328D01*
X024904Y041392D02*X024932Y041328D01*X024904Y041360D02*X024959Y041328D01*
X025554Y041964D02*X025554Y041328D01*X025582Y041943D02*X025582Y041360D01*
X025614Y041964D02*X025614Y041328D01*X025473Y041964D02*X025928Y041964D01*
X025928Y041784D01*X025614Y041667D02*X025782Y041667D01*X025782Y041784D02*
X025782Y041540D01*X025473Y041328D02*X025928Y041328D01*X025928Y041508D01*
X025500Y041964D02*X025554Y041943D01*X025527Y041964D02*X025554Y041911D01*
X025641Y041964D02*X025614Y041911D01*X025668Y041964D02*X025614Y041943D01*
X025782Y041964D02*X025928Y041943D01*X025841Y041964D02*X025928Y041911D01*
X025868Y041964D02*X025928Y041880D01*X025896Y041964D02*X025928Y041784D01*
X025782Y041784D02*X025755Y041667D01*X025782Y041540D01*X025782Y041731D02*
X025727Y041667D01*X025782Y041604D01*X025782Y041699D02*X025668Y041667D01*
X025782Y041636D01*X025554Y041360D02*X025500Y041328D01*X025554Y041392D02*
X025527Y041328D01*X025614Y041392D02*X025641Y041328D01*X025614Y041360D02*
X025668Y041328D01*X025782Y041328D02*X025928Y041360D01*X025841Y041328D02*
X025928Y041392D01*X025868Y041328D02*X025928Y041423D01*X025896Y041328D02*
X025928Y041508D01*X026264Y041964D02*X026264Y041328D01*X026291Y041943D02*
X026291Y041360D01*X026323Y041964D02*X026323Y041328D01*X026173Y041964D02*
X026414Y041964D01*X026173Y041328D02*X026628Y041328D01*X026628Y041508D01*
X026200Y041964D02*X026264Y041943D01*X026232Y041964D02*X026264Y041911D01*
X026355Y041964D02*X026323Y041911D01*X026382Y041964D02*X026323Y041943D01*
X026264Y041360D02*X026200Y041328D01*X026264Y041392D02*X026232Y041328D01*
X026323Y041392D02*X026355Y041328D01*X026323Y041360D02*X026382Y041328D01*
X026473Y041328D02*X026628Y041360D01*X026532Y041328D02*X026628Y041392D01*
X026564Y041328D02*X026628Y041423D01*X026596Y041328D02*X026628Y041508D01*
X027636Y041964D02*X027636Y041360D01*X027636Y041964D02*X027955Y041328D01*
X027663Y041964D02*X027932Y041423D01*X027682Y041964D02*X027955Y041423D01*
X027955Y041943D02*X027955Y041328D01*X027572Y041964D02*X027682Y041964D01*
X027891Y041964D02*X028027Y041964D01*X027572Y041328D02*X027704Y041328D01*
X027591Y041964D02*X027636Y041943D01*X027914Y041964D02*X027955Y041943D01*
X028005Y041964D02*X027955Y041943D01*X027636Y041360D02*X027591Y041328D01*
X027636Y041360D02*X027682Y041328D01*X028500Y041964D02*X028323Y041360D01*
X028473Y041880D02*X028623Y041328D01*X028500Y041880D02*X028650Y041328D01*
X028500Y041964D02*X028673Y041328D01*X028373Y041508D02*X028600Y041508D01*
X028272Y041328D02*X028423Y041328D01*X028550Y041328D02*X028727Y041328D01*
X028323Y041360D02*X028295Y041328D01*X028323Y041360D02*X028373Y041328D01*
X028623Y041360D02*X028573Y041328D01*X028623Y041392D02*X028600Y041328D01*
X028650Y041392D02*X028700Y041328D01*X029032Y041964D02*X029032Y041360D01*
X029032Y041964D02*X029177Y041328D01*X029054Y041964D02*X029177Y041423D01*
X029073Y041964D02*X029195Y041423D01*X029323Y041964D02*X029177Y041328D01*
X029323Y041964D02*X029323Y041328D01*X029341Y041943D02*X029341Y041360D01*
X029364Y041964D02*X029364Y041328D01*X028972Y041964D02*X029073Y041964D01*
X029323Y041964D02*X029427Y041964D01*X028972Y041328D02*X029095Y041328D01*
X029259Y041328D02*X029427Y041328D01*X028991Y041964D02*X029032Y041943D01*
X029382Y041964D02*X029364Y041911D01*X029405Y041964D02*X029364Y041943D01*
X029032Y041360D02*X028991Y041328D01*X029032Y041360D02*X029073Y041328D01*
X029323Y041360D02*X029282Y041328D01*X029323Y041392D02*X029300Y041328D01*
X029364Y041392D02*X029382Y041328D01*X029364Y041360D02*X029405Y041328D01*
X029754Y041964D02*X029754Y041328D01*X029782Y041943D02*X029782Y041360D01*
X029814Y041964D02*X029814Y041328D01*X029672Y041964D02*X030127Y041964D01*
X030127Y041784D01*X029814Y041667D02*X029982Y041667D01*X029982Y041784D02*
X029982Y041540D01*X029672Y041328D02*X030127Y041328D01*X030127Y041508D01*
X029700Y041964D02*X029754Y041943D01*X029727Y041964D02*X029754Y041911D01*
X029841Y041964D02*X029814Y041911D01*X029868Y041964D02*X029814Y041943D01*
X029982Y041964D02*X030127Y041943D01*X030041Y041964D02*X030127Y041911D01*
X030068Y041964D02*X030127Y041880D01*X030096Y041964D02*X030127Y041784D01*
X029982Y041784D02*X029955Y041667D01*X029982Y041540D01*X029982Y041731D02*
X029927Y041667D01*X029982Y041604D01*X029982Y041699D02*X029868Y041667D01*
X029982Y041636D01*X029754Y041360D02*X029700Y041328D01*X029754Y041392D02*
X029727Y041328D01*X029814Y041392D02*X029841Y041328D01*X029814Y041360D02*
X029868Y041328D01*X029982Y041328D02*X030127Y041360D01*X030041Y041328D02*
X030127Y041392D01*X030068Y041328D02*X030127Y041423D01*X030096Y041328D02*
X030127Y041508D01*X026232Y040214D02*X026314Y039578D01*X026254Y040214D02*
X026314Y039727D01*X026314Y039578D01*X026273Y040214D02*X026336Y039727D01*
X026400Y040214D02*X026336Y039727D01*X026314Y039578D01*X026400Y040214D02*
X026482Y039578D01*X026418Y040214D02*X026482Y039727D01*X026482Y039578D01*
X026441Y040214D02*X026500Y039727D01*X026564Y040193D02*X026500Y039727D01*
X026482Y039578D01*X026173Y040214D02*X026336Y040214D01*X026400Y040214D02*
X026441Y040214D01*X026500Y040214D02*X026628Y040214D01*X026191Y040214D02*
X026254Y040193D01*X026213Y040214D02*X026254Y040161D01*X026295Y040214D02*
X026273Y040161D01*X026314Y040214D02*X026273Y040193D01*X026523Y040214D02*
X026564Y040193D01*X026605Y040214D02*X026564Y040193D01*X026950Y040214D02*
X026950Y039578D01*X026977Y040193D02*X026977Y039610D01*X027004Y040214D02*
X027004Y039578D01*X026873Y040214D02*X027191Y040214D01*X027273Y040193D01*
X027296Y040161D01*X027327Y040098D01*X027327Y040034D01*X027296Y039981D01*
X027273Y039949D01*X027191Y039917D01*X027273Y040161D02*X027296Y040098D01*
X027296Y040034D01*X027273Y039981D01*X027191Y040214D02*X027246Y040193D01*
X027273Y040130D01*X027273Y040002D01*X027246Y039949D01*X027191Y039917D01*
X027004Y039917D02*X027191Y039917D01*X027273Y039886D01*X027296Y039854D01*
X027327Y039790D01*X027327Y039705D01*X027296Y039642D01*X027273Y039610D01*
X027191Y039578D01*X026873Y039578D01*X027273Y039854D02*X027296Y039790D01*
X027296Y039705D01*X027273Y039642D01*X027191Y039917D02*X027246Y039886D01*
X027273Y039822D01*X027273Y039673D01*X027246Y039610D01*X027191Y039578D01*
X026895Y040214D02*X026950Y040193D01*X026923Y040214D02*X026950Y040161D01*
X027032Y040214D02*X027004Y040161D01*X027059Y040214D02*X027004Y040193D01*
X026950Y039610D02*X026895Y039578D01*X026950Y039642D02*X026923Y039578D01*
X027004Y039642D02*X027032Y039578D01*X027004Y039610D02*X027059Y039578D01*
X037600Y040214D02*X037423Y039610D01*X037573Y040130D02*X037723Y039578D01*
X037600Y040130D02*X037750Y039578D01*X037600Y040214D02*X037773Y039578D01*
X037473Y039758D02*X037700Y039758D01*X037373Y039578D02*X037523Y039578D01*
X037650Y039578D02*X037828Y039578D01*X037423Y039610D02*X037395Y039578D01*
X037423Y039610D02*X037473Y039578D01*X037723Y039610D02*X037673Y039578D01*
X037723Y039642D02*X037700Y039578D01*X037750Y039642D02*X037800Y039578D01*
X038491Y040130D02*X038528Y040214D01*X038528Y040034D01*X038491Y040130D01*
X038427Y040193D01*X038327Y040214D01*X038232Y040214D01*X038136Y040193D01*
X038073Y040130D01*X038073Y040034D01*X038104Y039981D01*X038200Y039917D01*
X038396Y039854D01*X038459Y039822D01*X038491Y039758D01*X038491Y039673D01*
X038459Y039610D01*X038104Y040034D02*X038136Y039981D01*X038200Y039949D01*
X038396Y039886D01*X038459Y039854D01*X038491Y039790D01*X038136Y040193D02*
X038104Y040130D01*X038104Y040066D01*X038136Y040002D01*X038200Y039981D01*
X038396Y039917D01*X038491Y039854D01*X038528Y039790D01*X038528Y039705D01*
X038491Y039642D01*X038459Y039610D01*X038364Y039578D01*X038264Y039578D01*
X038168Y039610D01*X038104Y039673D01*X038073Y039758D01*X038073Y039578D01*
X038104Y039673D01*X039191Y040130D02*X039228Y040214D01*X039228Y040034D01*
X039191Y040130D01*X039127Y040193D01*X039027Y040214D01*X038932Y040214D01*
X038836Y040193D01*X038773Y040130D01*X038773Y040034D01*X038804Y039981D01*
X038900Y039917D01*X039096Y039854D01*X039159Y039822D01*X039191Y039758D01*
X039191Y039673D01*X039159Y039610D01*X038804Y040034D02*X038836Y039981D01*
X038900Y039949D01*X039096Y039886D01*X039159Y039854D01*X039191Y039790D01*
X038836Y040193D02*X038804Y040130D01*X038804Y040066D01*X038836Y040002D01*
X038900Y039981D01*X039096Y039917D01*X039191Y039854D01*X039228Y039790D01*
X039228Y039705D01*X039191Y039642D01*X039159Y039610D01*X039064Y039578D01*
X038964Y039578D01*X038868Y039610D01*X038804Y039673D01*X038773Y039758D01*
X038773Y039578D01*X038804Y039673D01*X039518Y040214D02*X039673Y039886D01*
X039673Y039578D01*X039541Y040214D02*X039695Y039886D01*X039695Y039610D01*
X039559Y040214D02*X039723Y039886D01*X039723Y039578D01*X039855Y040193D02*
X039723Y039886D01*X039473Y040214D02*X039632Y040214D01*X039786Y040214D02*
X039927Y040214D01*X039609Y039578D02*X039786Y039578D01*X039495Y040214D02*
X039541Y040193D01*X039609Y040214D02*X039559Y040193D01*X039814Y040214D02*
X039855Y040193D01*X039900Y040214D02*X039855Y040193D01*X039673Y039610D02*
X039632Y039578D01*X039673Y039642D02*X039650Y039578D01*X039723Y039642D02*
X039741Y039578D01*X039723Y039610D02*X039764Y039578D01*X040204Y040098D02*
X040204Y040066D01*X040236Y040066D01*X040236Y040098D01*X040204Y040098D01*
X040204Y040130D02*X040236Y040130D01*X040268Y040098D01*X040268Y040066D01*
X040236Y040034D01*X040204Y040034D01*X040172Y040066D01*X040172Y040098D01*
X040204Y040161D01*X040236Y040193D01*X040332Y040214D01*X040464Y040214D01*
X040559Y040193D01*X040591Y040161D01*X040627Y040098D01*X040627Y040034D01*
X040591Y039981D01*X040496Y039917D01*X040332Y039854D01*X040268Y039822D01*
X040204Y039758D01*X040172Y039673D01*X040172Y039578D01*X040559Y040161D02*
X040591Y040098D01*X040591Y040034D01*X040559Y039981D01*X040464Y040214D02*
X040527Y040193D01*X040559Y040098D01*X040559Y040034D01*X040527Y039981D01*
X040464Y039917D01*X040332Y039854D01*X040172Y039642D02*X040204Y039673D01*
X040268Y039673D01*X040427Y039642D01*X040559Y039642D01*X040627Y039673D01*
X040268Y039673D02*X040427Y039610D01*X040559Y039610D01*X040591Y039642D01*
X040268Y039673D02*X040427Y039578D01*X040559Y039578D01*X040591Y039610D01*
X040627Y039673D01*X040627Y039727D01*X000000Y000000D02*D02*G54D20*
X009790Y003000D03*X012330Y003000D03*X020040Y003000D03*X022580Y003000D03*
X025120Y003000D03*X027660Y003000D03*X003000Y011040D03*X017500Y011625D03*
X022000Y010000D03*X020500Y011625D03*X019000Y010000D03*X054000Y011040D03*
X003000Y013580D03*X054000Y013580D03*X003000Y016120D03*X054000Y016120D03*
X003000Y018660D03*X054000Y018660D03*X003000Y021200D03*X003000Y023740D03*
X054000Y021200D03*X054000Y023740D03*X003000Y026280D03*X054000Y026280D03*
X030330Y032000D03*X027790Y032000D03*X032870Y032000D03*X035410Y032000D03*
X037950Y032000D03*D02*G54D133*X006000Y001000D03*X010000Y001000D03*
X014000Y001000D03*X030375Y002865D03*X038000Y002865D03*X041750Y002250D03*
X048250Y001250D03*X051500Y001000D03*X001000Y005000D03*X009500Y005000D03*
X014000Y005000D03*X017500Y005750D03*X019000Y005750D03*X020500Y005750D03*
X022000Y005750D03*X022800Y005700D03*X027000Y005000D03*X030375Y004135D03*
X038000Y004135D03*X042125Y003875D03*X042125Y004625D03*X041375Y003875D03*
X041375Y004625D03*X041375Y005375D03*X043000Y004625D03*X044750Y004750D03*
X044750Y005500D03*X047500Y005125D03*X049125Y004050D03*X050250Y004750D03*
X048250Y005125D03*X052750Y005750D03*X056000Y005000D03*X001000Y008000D03*
X007830Y008500D03*X005500Y006000D03*X011830Y008500D03*X016500Y008250D03*
X023000Y008250D03*X027250Y007500D03*X028750Y006750D03*X025750Y006500D03*
X032500Y008625D03*X030375Y008250D03*X033375Y007250D03*X034325Y008625D03*
X036500Y007125D03*X035000Y007125D03*X038875Y007500D03*X041500Y008000D03*
X048250Y005875D03*X047500Y005875D03*X049875Y006500D03*X048000Y008000D03*
X046525Y008000D03*X047250Y008000D03*X048750Y008000D03*X049500Y008000D03*
X050250Y008000D03*X052125Y008625D03*X051000Y008000D03*X056000Y008000D03*
X001000Y011000D03*X005000Y010000D03*X014000Y009000D03*X022800Y011050D03*
X028500Y008750D03*X027000Y009750D03*X029625Y010500D03*X031250Y010750D03*
X040000Y011000D03*X046500Y008750D03*X050250Y008750D03*X048000Y008750D03*
X047250Y008750D03*X048750Y008750D03*X049500Y008750D03*X051000Y008750D03*
X056000Y011000D03*X001000Y014000D03*X008825Y014000D03*X007555Y014000D03*
X007830Y013000D03*X011830Y013000D03*X011000Y014000D03*X014000Y014000D03*
X016500Y014000D03*X021000Y013500D03*X023000Y012250D03*X022250Y012250D03*
X025500Y012250D03*X028500Y012250D03*X027550Y012350D03*X029200Y013000D03*
X026500Y012250D03*X033500Y014125D03*X030100Y014200D03*X036175Y014125D03*
X043500Y012375D03*X048000Y012875D03*X046500Y012375D03*X052125Y012000D03*
X056000Y014000D03*X001000Y017000D03*X005500Y015000D03*X018000Y017000D03*
X017750Y014625D03*X020125Y016250D03*X025250Y015500D03*X024250Y016500D03*
X025250Y016500D03*X024250Y015500D03*X023250Y015000D03*X026250Y016500D03*
X030250Y015375D03*X031875Y016750D03*X033375Y016750D03*X032625Y016750D03*
X030250Y016250D03*X034250Y015875D03*X037375Y016750D03*X036625Y016750D03*
X035875Y016750D03*X035125Y016750D03*X040500Y015875D03*X046500Y015000D03*
X050500Y017000D03*X047500Y017000D03*X056000Y017000D03*X001000Y020000D03*
X008375Y019125D03*X008375Y017875D03*X010095Y019500D03*X011365Y019500D03*
X012635Y019500D03*X010500Y017500D03*X013905Y019500D03*X016445Y019500D03*
X015175Y017500D03*X016500Y017500D03*X013500Y017500D03*X020000Y019500D03*
X020125Y017625D03*X017500Y019750D03*X024250Y019500D03*X025250Y017500D03*
X025250Y018500D03*X024250Y018500D03*X024250Y017500D03*X025250Y019500D03*
X023250Y017500D03*X023250Y018500D03*X026250Y019500D03*X026250Y017500D03*
X026250Y018500D03*X030250Y017750D03*X030375Y019750D03*X037875Y019875D03*
X038125Y017500D03*X040875Y019625D03*X040125Y019625D03*X039375Y019500D03*
X038625Y019500D03*X039625Y017500D03*X038875Y017500D03*X042250Y017500D03*
X041500Y017500D03*X045250Y017500D03*X044500Y017500D03*X043750Y017500D03*
X043000Y017500D03*X045000Y019625D03*X044250Y019625D03*X043500Y019625D03*
X042750Y019500D03*X045750Y019625D03*X046000Y017500D03*X046625Y018500D03*
X047500Y020000D03*X050500Y020000D03*X056000Y020000D03*X005500Y021500D03*
X012250Y022500D03*X016125Y022625D03*X020125Y020750D03*X018000Y021500D03*
X020500Y022500D03*X021625Y022500D03*X022500Y022500D03*X027000Y022500D03*
X026000Y022500D03*X026250Y020375D03*X029000Y022875D03*X030375Y021625D03*
X032500Y022875D03*X031875Y020250D03*X031125Y020250D03*X033375Y020250D03*
X032625Y020250D03*X030375Y020750D03*X034500Y021875D03*X035625Y020250D03*
X037125Y020250D03*X036375Y020250D03*X040875Y021875D03*X040875Y021125D03*
X040875Y020375D03*X040875Y022625D03*X042750Y022500D03*X042750Y021750D03*
X042750Y021000D03*X042750Y020250D03*X001000Y023000D03*X014000Y023500D03*
X021000Y024000D03*X018000Y024000D03*X025500Y023000D03*X024500Y024000D03*
X023500Y024000D03*X028500Y024875D03*X027000Y024875D03*X026500Y023000D03*
X031000Y024000D03*X031000Y025500D03*X036500Y023500D03*X034000Y023500D03*
X034000Y025500D03*X036500Y025500D03*X039875Y025750D03*X040125Y024750D03*
X040750Y024125D03*X040875Y023375D03*X042750Y023250D03*X043625Y025750D03*
X043375Y024750D03*X042750Y024125D03*X050500Y023000D03*X047500Y023000D03*
X056000Y023000D03*X001000Y026000D03*X007500Y026000D03*X005000Y026500D03*
X011500Y026000D03*X009750Y026000D03*X015250Y026500D03*X021000Y026500D03*
X018000Y026500D03*X024000Y026500D03*X031000Y028000D03*X036500Y028000D03*
X034000Y028000D03*X040750Y028250D03*X040750Y027375D03*X040125Y026750D03*
X042750Y027375D03*X043375Y026750D03*X042750Y028250D03*X047500Y026000D03*
X050500Y026000D03*X056000Y026000D03*X004000Y029000D03*X001000Y029000D03*
X005500Y028800D03*X013500Y028800D03*X015500Y029000D03*X021000Y029000D03*
X018000Y029000D03*X024000Y029000D03*X026750Y030500D03*X029875Y030375D03*
X032000Y030000D03*X036500Y030000D03*X040750Y030000D03*X040750Y029125D03*
X042750Y029125D03*X042750Y030000D03*X050500Y029000D03*X047500Y029000D03*
X056000Y029000D03*X050500Y034000D03*D02*G54D134*X003000Y003000D03*
X054000Y003000D03*X003000Y032000D03*X054000Y032000D03*D02*G54D135*
X007250Y003000D03*X017500Y003000D03*X003000Y008500D03*X054000Y008500D03*
X025250Y032000D03*D02*G54D136*X043000Y005750D03*X007500Y032000D03*
X012250Y032000D03*X017000Y032000D03*X021750Y032000D03*X041750Y032000D03*
X047000Y032000D03*D02*G54D137*X039210Y023210D03*X044290Y023210D03*
X041750Y025750D03*X039210Y028290D03*X044290Y028290D03*D02*G54D141*
X043000Y002250D03*X046500Y005500D03*X043000Y003750D03*X017500Y008250D03*
X017500Y006750D03*X020500Y008250D03*X020500Y006750D03*X019000Y008250D03*
X019000Y006750D03*X022000Y008250D03*X022000Y006750D03*X046500Y007000D03*
X028500Y011250D03*X028500Y009750D03*X046500Y011250D03*X046500Y009750D03*
X022000Y013500D03*X026500Y013500D03*X007375Y016500D03*X007375Y015000D03*
X008875Y016500D03*X008875Y015000D03*X016500Y015000D03*X016500Y016500D03*
X022000Y015000D03*X026500Y015000D03*X021625Y020000D03*X022875Y020000D03*
X009750Y021000D03*X009750Y022500D03*X021625Y021500D03*X022875Y021500D03*
X028500Y025750D03*X027000Y025750D03*X028500Y027250D03*X027000Y027250D03*D02*
G54D147*X036500Y002750D03*X035000Y002750D03*X035000Y005750D03*X036500Y005750D03*
X036500Y004250D03*X035000Y004250D03*X021250Y016250D03*X022750Y016250D03*
X029250Y016625D03*X027750Y016625D03*X029250Y015375D03*X027750Y015375D03*
X007375Y017875D03*X005875Y017875D03*X007375Y019125D03*X005875Y019125D03*
X029250Y017875D03*X027750Y017875D03*X029250Y020375D03*X027750Y020375D03*
X029250Y019125D03*X027750Y019125D03*X012750Y021000D03*X011250Y021000D03*
X015750Y021000D03*X014250Y021000D03*X030000Y022875D03*X029250Y021625D03*
X027750Y021625D03*X031500Y022875D03*D02*G54D153*X050250Y009800D03*
X050250Y013700D03*D02*G54D155*X048000Y009825D03*X048000Y011675D03*D02*G54D157*
X036276Y007702D02*X035500Y007782D01*X036276Y007724D02*X035681Y007782D01*
X035500Y007782D01*X036276Y007742D02*X035681Y007804D01*X036276Y007866D02*
X035681Y007804D01*X035500Y007782D01*X036276Y007866D02*X035500Y007946D01*
X036276Y007884D02*X035681Y007946D01*X035500Y007946D01*X036276Y007906D02*
X035681Y007964D01*X036250Y008026D02*X035681Y007964D01*X035500Y007946D01*
X036276Y007645D02*X036276Y007804D01*X036276Y007866D02*X036276Y007906D01*
X036276Y007964D02*X036276Y008088D01*X036276Y007662D02*X036250Y007724D01*
X036276Y007684D02*X036211Y007724D01*X036276Y007764D02*X036211Y007742D01*
X036276Y007782D02*X036250Y007742D01*X036276Y007986D02*X036250Y008026D01*
X036276Y008066D02*X036250Y008026D01*X036276Y008531D02*X036211Y008531D01*
X036211Y008562D01*X036276Y008562D01*X036276Y008531D01*X036276Y008545D02*
X036211Y008545D01*X036250Y008531D02*X036250Y008562D01*X036017Y008531D02*
X035500Y008531D01*X035978Y008545D02*X035539Y008545D01*X036017Y008491D02*
X036017Y008562D01*X035500Y008562D01*X035500Y008491D02*X035500Y008602D01*
X036017Y008505D02*X035978Y008531D01*X036017Y008518D02*X035953Y008531D01*
X035539Y008531D02*X035500Y008505D01*X035578Y008531D02*X035500Y008518D01*
X035578Y008562D02*X035500Y008576D01*X035539Y008562D02*X035500Y008589D01*
X036017Y009108D02*X035500Y009108D01*X035991Y009143D02*X035539Y009143D01*
X036017Y009010D02*X036017Y009179D01*X035500Y009179D01*X035953Y009418D02*
X035991Y009418D01*X035991Y009383D01*X035914Y009383D01*X035914Y009454D01*
X035991Y009454D01*X036017Y009418D01*X036017Y009347D01*X035991Y009281D01*
X035914Y009214D01*X035797Y009179D01*X035500Y009010D02*X035500Y009281D01*
X036017Y009041D02*X035991Y009108D01*X036017Y009077D02*X035953Y009108D01*
X035539Y009108D02*X035500Y009041D01*X035578Y009108D02*X035500Y009077D01*
X035578Y009179D02*X035500Y009214D01*X035539Y009179D02*X035500Y009245D01*
X035797Y009759D02*X035797Y010137D01*X035875Y010137D01*X035953Y010101D01*
X035991Y010066D01*X036017Y009963D01*X036017Y009897D01*X035991Y009790D01*
X035914Y009724D01*X035797Y009693D01*X035720Y009693D01*X035616Y009724D01*
X035539Y009790D01*X035500Y009897D01*X035500Y009963D01*X035539Y010066D01*
X035616Y010137D01*X035836Y010101D02*X035875Y010101D01*X035953Y010066D01*
X035914Y009759D02*X035836Y009724D01*X035681Y009724D01*X035616Y009759D01*
X035797Y010066D02*X035914Y010066D01*X035991Y010034D01*X036017Y009963D01*
X036017Y009897D02*X035991Y009826D01*X035953Y009790D01*X035836Y009759D01*
X035681Y009759D01*X035578Y009790D01*X035539Y009826D01*X035500Y009897D01*
X036276Y010580D02*X035500Y010580D01*X036250Y010593D02*X035539Y010593D01*
X036276Y010540D02*X036276Y010611D01*X035500Y010611D01*X035500Y010540D02*
X035500Y010651D01*X036276Y010553D02*X036250Y010580D01*X036276Y010566D02*
X036211Y010580D01*X035539Y010580D02*X035500Y010553D01*X035578Y010580D02*
X035500Y010566D01*X035578Y010611D02*X035500Y010624D01*X035539Y010611D02*
X035500Y010637D01*X035797Y011125D02*X035797Y011502D01*X035875Y011502D01*
X035953Y011467D01*X035991Y011431D01*X036017Y011329D01*X036017Y011262D01*
X035991Y011156D01*X035914Y011089D01*X035797Y011058D01*X035720Y011058D01*
X035616Y011089D01*X035539Y011156D01*X035500Y011262D01*X035500Y011329D01*
X035539Y011431D01*X035616Y011502D01*X035836Y011467D02*X035875Y011467D01*
X035953Y011431D01*X035914Y011125D02*X035836Y011089D01*X035681Y011089D01*
X035616Y011125D01*X035797Y011431D02*X035914Y011431D01*X035991Y011400D01*
X036017Y011329D01*X036017Y011262D02*X035991Y011191D01*X035953Y011156D01*
X035836Y011125D01*X035681Y011125D01*X035578Y011156D01*X035539Y011191D01*
X035500Y011262D01*X035953Y012140D02*X036017Y012185D01*X035875Y012185D01*
X035953Y012140D01*X035991Y012100D01*X036017Y012021D01*X036017Y011861D01*
X035991Y011777D01*X035953Y011741D01*X035875Y011741D01*X035797Y011777D01*
X035759Y011861D01*X035720Y012061D01*X035681Y012140D01*X035578Y012185D01*
X035991Y011777D02*X035875Y011741D01*X035836Y011777D02*X035797Y011861D01*
X035759Y012061D01*X035720Y012140D01*X035681Y012185D02*X035539Y012140D01*
X035953Y011741D02*X035875Y011777D01*X035836Y011861D01*X035797Y012061D01*
X035759Y012140D01*X035681Y012185D01*X035578Y012185D01*X035539Y012140D01*
X035500Y012061D01*X035500Y011901D01*X035539Y011821D01*X035578Y011777D01*
X035655Y011741D01*X035500Y011741D01*X035578Y011777D01*X035953Y012823D02*
X036017Y012868D01*X035875Y012868D01*X035953Y012823D01*X035991Y012783D01*
X036017Y012703D01*X036017Y012544D01*X035991Y012459D01*X035953Y012424D01*
X035875Y012424D01*X035797Y012459D01*X035759Y012544D01*X035720Y012743D01*
X035681Y012823D01*X035578Y012868D01*X035991Y012459D02*X035875Y012424D01*
X035836Y012459D02*X035797Y012544D01*X035759Y012743D01*X035720Y012823D01*
X035681Y012868D02*X035539Y012823D01*X035953Y012424D02*X035875Y012459D01*
X035836Y012544D01*X035797Y012743D01*X035759Y012823D01*X035681Y012868D01*
X035578Y012868D01*X035539Y012823D01*X035500Y012743D01*X035500Y012584D01*
X035539Y012504D01*X035578Y012459D01*X035655Y012424D01*X035500Y012424D01*
X035578Y012459D01*X036276Y013865D02*X035500Y013865D01*X036250Y013891D02*
X035539Y013891D01*X036276Y013918D02*X035500Y013918D01*X036276Y013789D02*
X036276Y014100D01*X036250Y014180D01*X036211Y014202D01*X036134Y014233D01*
X036056Y014233D01*X035991Y014202D01*X035953Y014180D01*X035914Y014100D01*
X036211Y014180D02*X036134Y014202D01*X036056Y014202D01*X035991Y014180D01*
X036276Y014100D02*X036250Y014153D01*X036172Y014180D01*X036017Y014180D01*
X035953Y014153D01*X035914Y014100D01*X035914Y013918D02*X035914Y014100D01*
X035875Y014180D01*X035836Y014202D01*X035759Y014233D01*X035655Y014233D01*
X035578Y014202D01*X035539Y014180D01*X035500Y014100D01*X035500Y013789D01*
X035836Y014180D02*X035759Y014202D01*X035655Y014202D01*X035578Y014180D01*
X035914Y014100D02*X035875Y014153D01*X035797Y014180D01*X035616Y014180D01*
X035539Y014153D01*X035500Y014100D01*X036276Y013811D02*X036250Y013865D01*
X036276Y013838D02*X036211Y013865D01*X036276Y013945D02*X036211Y013918D01*
X036276Y013971D02*X036250Y013918D01*X035539Y013865D02*X035500Y013811D01*
X035578Y013865D02*X035500Y013838D01*X035578Y013918D02*X035500Y013945D01*
X035539Y013918D02*X035500Y013971D01*X036017Y014658D02*X035991Y014565D01*
X035914Y014503D01*X035797Y014472D01*X035720Y014472D01*X035616Y014503D01*
X035539Y014565D01*X035500Y014658D01*X035500Y014725D01*X035539Y014818D01*
X035616Y014880D01*X035720Y014916D01*X035797Y014916D01*X035914Y014880D01*
X035991Y014818D01*X036017Y014725D01*X036017Y014658D01*X035914Y014534D02*
X035836Y014503D01*X035681Y014503D01*X035616Y014534D01*X035616Y014849D02*
X035681Y014880D01*X035836Y014880D01*X035914Y014849D01*X036017Y014658D02*
X035991Y014596D01*X035953Y014565D01*X035836Y014534D01*X035681Y014534D01*
X035578Y014565D01*X035539Y014596D01*X035500Y014658D01*X035500Y014725D02*
X035539Y014787D01*X035578Y014818D01*X035681Y014849D01*X035836Y014849D01*
X035953Y014818D01*X035991Y014787D01*X036017Y014725D01*X035914Y015212D02*
X035953Y015212D01*X035953Y015239D01*X035875Y015239D01*X035875Y015181D01*
X035953Y015181D01*X035991Y015212D01*X036017Y015270D01*X036017Y015390D01*
X035991Y015448D01*X035953Y015479D01*X035875Y015505D01*X035616Y015505D01*
X035539Y015536D01*X035500Y015567D01*X035953Y015448D02*X035875Y015479D01*
X035616Y015479D01*X035539Y015505D01*X036017Y015390D02*X035991Y015421D01*
X035914Y015448D01*X035616Y015448D01*X035539Y015479D01*X035500Y015567D01*
X035500Y015599D01*X035836Y015448D02*X035797Y015421D01*X035759Y015270D01*
X035720Y015181D01*X035655Y015155D01*X035616Y015155D01*X035539Y015181D01*
X035500Y015270D01*X035500Y015359D01*X035539Y015421D01*X035616Y015448D01*
X035720Y015212D02*X035655Y015181D01*X035616Y015181D01*X035539Y015212D01*
X035797Y015421D02*X035759Y015301D01*X035720Y015239D01*X035655Y015212D01*
X035616Y015212D01*X035539Y015239D01*X035500Y015270D01*X036017Y015935D02*
X035500Y015935D01*X035991Y015971D02*X035539Y015971D01*X036017Y015838D02*
X036017Y016006D01*X035500Y016006D01*X035953Y016246D02*X035991Y016246D01*
X035991Y016210D01*X035914Y016210D01*X035914Y016281D01*X035991Y016281D01*
X036017Y016246D01*X036017Y016175D01*X035991Y016108D01*X035914Y016042D01*
X035797Y016006D01*X035500Y015838D02*X035500Y016108D01*X036017Y015869D02*
X035991Y015935D01*X036017Y015904D02*X035953Y015935D01*X035539Y015935D02*
X035500Y015869D01*X035578Y015935D02*X035500Y015904D01*X035578Y016006D02*
X035500Y016042D01*X035539Y016006D02*X035500Y016073D01*X036276Y016822D02*
X035500Y016822D01*X035500Y016964D01*X036250Y016853D02*X035539Y016853D01*
X036276Y016742D02*X036276Y016880D01*X035500Y016880D01*X035914Y016822D02*
X035978Y016795D01*X036017Y016742D01*X036017Y016684D01*X035978Y016600D01*
X035914Y016547D01*X035797Y016520D01*X035720Y016520D01*X035616Y016547D01*
X035539Y016600D01*X035500Y016684D01*X035500Y016742D01*X035539Y016795D01*
X035616Y016822D01*X035914Y016574D02*X035836Y016547D01*X035681Y016547D01*
X035616Y016574D01*X036017Y016684D02*X035978Y016631D01*X035953Y016600D01*
X035836Y016574D01*X035681Y016574D01*X035578Y016600D01*X035539Y016631D01*
X035500Y016684D01*X036276Y016769D02*X036250Y016822D01*X036276Y016795D02*
X036211Y016822D01*X035578Y016880D02*X035500Y016906D01*X035539Y016880D02*
X035500Y016933D01*X036276Y017957D02*X035500Y017957D01*X036250Y017983D02*
X035539Y017983D01*X036276Y018006D02*X035500Y018006D01*X036276Y017886D02*
X036276Y018179D01*X036250Y018254D01*X036211Y018276D01*X036134Y018303D01*
X036056Y018303D01*X035991Y018276D01*X035953Y018254D01*X035914Y018179D01*
X035914Y018006D01*X036211Y018254D02*X036134Y018276D01*X036056Y018276D01*
X035991Y018254D01*X036276Y018179D02*X036250Y018227D01*X036172Y018254D01*
X036017Y018254D01*X035953Y018227D01*X035914Y018179D01*X035914Y018103D02*
X035875Y018156D01*X035797Y018179D01*X035578Y018227D01*X035500Y018254D01*
X035500Y018303D01*X035578Y018330D01*X035655Y018330D01*X035655Y018227D02*
X035578Y018254D01*X035539Y018276D01*X035539Y018303D01*X035875Y018156D02*
X035836Y018179D01*X035616Y018254D01*X035578Y018276D01*X035578Y018303D01*
X035616Y018330D01*X035500Y017886D02*X035500Y018081D01*X036276Y017908D02*
X036250Y017957D01*X036276Y017935D02*X036211Y017957D01*X036276Y018032D02*
X036211Y018006D01*X036276Y018054D02*X036250Y018006D01*X035539Y017957D02*
X035500Y017908D01*X035578Y017957D02*X035500Y017935D01*X035578Y018006D02*
X035500Y018032D01*X035539Y018006D02*X035500Y018054D01*X035797Y018635D02*
X035797Y019012D01*X035875Y019012D01*X035953Y018977D01*X035991Y018941D01*
X036017Y018839D01*X036017Y018773D01*X035991Y018666D01*X035914Y018600D01*
X035797Y018569D01*X035720Y018569D01*X035616Y018600D01*X035539Y018666D01*
X035500Y018773D01*X035500Y018839D01*X035539Y018941D01*X035616Y019012D01*
X035836Y018977D02*X035875Y018977D01*X035953Y018941D01*X035914Y018635D02*
X035836Y018600D01*X035681Y018600D01*X035616Y018635D01*X035797Y018941D02*
X035914Y018941D01*X035991Y018910D01*X036017Y018839D01*X036017Y018773D02*
X035991Y018702D01*X035953Y018666D01*X035836Y018635D01*X035681Y018635D01*
X035578Y018666D01*X035539Y018702D01*X035500Y018773D01*X036017Y019305D02*
X035500Y019469D01*X036017Y019331D02*X035578Y019469D01*X036017Y019358D02*
X035578Y019500D01*X035991Y019637D02*X035578Y019500D01*X035500Y019469D01*
X036017Y019251D02*X036017Y019442D01*X036017Y019526D02*X036017Y019695D01*
X036017Y019278D02*X035953Y019358D01*X036017Y019415D02*X035991Y019358D01*
X036017Y019580D02*X035991Y019637D01*X036017Y019664D02*X035991Y019637D01*
X035616Y020147D02*X035578Y020134D01*X035539Y020134D01*X035500Y020147D01*
X035500Y020160D01*X035539Y020174D01*X035578Y020174D01*X035616Y020160D01*
X035616Y020147D01*X035578Y020147D02*X035539Y020147D01*X035539Y020160D01*
X035578Y020160D01*X035578Y020147D01*X036276Y020692D02*X035500Y020692D01*
X036250Y020719D02*X035539Y020719D01*X036276Y020745D02*X035500Y020745D01*
X036276Y020617D02*X036276Y020927D01*X036250Y021007D01*X036211Y021029D01*
X036134Y021061D01*X036017Y021061D01*X035953Y021029D01*X035914Y021007D01*
X035875Y020927D01*X035875Y020745D01*X036211Y021007D02*X036134Y021029D01*
X036017Y021029D01*X035953Y021007D01*X036276Y020927D02*X036250Y020981D01*
X036172Y021007D01*X035991Y021007D01*X035914Y020981D01*X035875Y020927D01*
X035500Y020617D02*X035500Y020825D01*X036276Y020639D02*X036250Y020692D01*
X036276Y020666D02*X036211Y020692D01*X036276Y020772D02*X036211Y020745D01*
X036276Y020799D02*X036250Y020745D01*X035539Y020692D02*X035500Y020639D01*
X035578Y020692D02*X035500Y020666D01*X035578Y020745D02*X035500Y020772D01*
X035539Y020745D02*X035500Y020799D01*X036211Y021499D02*X035500Y021499D01*
X036211Y021517D02*X035539Y021517D01*X036276Y021530D02*X035500Y021530D01*
X036276Y021530D02*X036172Y021486D01*X036134Y021459D01*X035500Y021446D02*
X035500Y021588D01*X035539Y021499D02*X035500Y021473D01*X035578Y021499D02*
X035500Y021486D01*X035578Y021530D02*X035500Y021544D01*X035539Y021530D02*
X035500Y021557D01*
G36*X042263Y017254D02*X043685Y017254D01*X043768Y017246D01*X043849Y017222D01*
X043922Y017182D01*X043987Y017129D01*X044040Y017064D01*X044079Y016991D01*
X044103Y016911D01*X044112Y016828D01*X044112Y012560D01*X044103Y012477D01*
X044079Y012397D01*X044040Y012323D01*X043987Y012259D01*X043922Y012205D01*
X043849Y012166D01*X043768Y012142D01*X043685Y012134D01*X039418Y012134D01*
X039335Y012142D01*X039255Y012166D01*X039181Y012205D01*X039117Y012259D01*
X039063Y012323D01*X039024Y012397D01*X039000Y012477D01*X038991Y012560D01*
X038991Y015121D01*X040698Y015121D01*X040698Y013840D01*X042263Y013840D01*
X042263Y017254D01*G37*G36*X037000Y010256D02*X037043Y010256D01*X037043Y010000D01*
X037000Y010000D01*X037000Y010256D01*G37*G36*X037000Y011835D02*X037043Y011835D01*
X037043Y010555D01*X037000Y010555D01*X037000Y011835D01*G37*G36*X037000Y013414D02*
X037043Y013414D01*X037043Y012219D01*X037000Y012219D01*X037000Y013414D01*G37*G36*
X037000Y013969D02*X037043Y013969D01*X037043Y013755D01*X037000Y013755D01*
X037000Y013969D01*G37*G36*X037000Y014993D02*X037043Y014993D01*X037043Y014779D01*
X037000Y014779D01*X037000Y014993D01*G37*G36*X037000Y015377D02*X037043Y015377D01*
X037043Y015163D01*X037000Y015163D01*X037000Y015377D01*G37*G36*X037000Y016529D02*
X037043Y016529D01*X037043Y016273D01*X037000Y016273D01*X037000Y016529D01*G37*G36*
X037000Y016956D02*X037043Y016956D01*X037043Y016700D01*X037000Y016700D01*
X037000Y016956D01*G37*G36*X037000Y017894D02*X037043Y017894D01*X037043Y017553D01*
X037000Y017553D01*X037000Y017894D01*
G37*G36*X037000Y019174D02*X037043Y019174D01*
X037043Y018108D01*X037000Y018108D01*X037000Y019174D01*G37*G36*X037043Y010256D02*
X037085Y010256D01*X037085Y010000D01*X037043Y010000D01*X037043Y010256D01*G37*G36*
X037043Y011878D02*X037085Y011878D01*X037085Y010512D01*X037043Y010512D01*
X037043Y011878D01*G37*G36*X037043Y013414D02*X037085Y013414D01*X037085Y012176D01*
X037043Y012176D01*X037043Y013414D01*G37*G36*X037043Y013969D02*X037085Y013969D01*
X037085Y013755D01*X037043Y013755D01*X037043Y013969D01*G37*G36*X037043Y014993D02*
X037085Y014993D01*X037085Y014779D01*X037043Y014779D01*X037043Y014993D01*G37*G36*
X037043Y015419D02*X037085Y015419D01*X037085Y015206D01*X037043Y015206D01*
X037043Y015419D01*G37*G36*X037043Y016486D02*X037085Y016486D01*X037085Y016230D01*
X037043Y016230D01*X037043Y016486D01*G37*G36*X037043Y016956D02*X037085Y016956D01*
X037085Y016700D01*X037043Y016700D01*X037043Y016956D01*G37*G36*X037043Y017809D02*
X037085Y017809D01*X037085Y017510D01*X037043Y017510D01*X037043Y017809D01*
G37*G36*
X037043Y019174D02*X037085Y019174D01*X037085Y018108D01*X037043Y018108D01*
X037043Y019174D01*G37*G36*X037085Y010256D02*X037128Y010256D01*X037128Y010000D01*
X037085Y010000D01*X037085Y010256D01*G37*G36*X037085Y011878D02*X037128Y011878D01*
X037128Y010512D01*X037085Y010512D01*X037085Y011878D01*G37*G36*X037085Y013456D02*
X037128Y013456D01*X037128Y012176D01*X037085Y012176D01*X037085Y013456D01*G37*G36*
X037085Y013969D02*X037128Y013969D01*X037128Y013755D01*X037085Y013755D01*
X037085Y013969D01*G37*G36*X037085Y014993D02*X037128Y014993D01*X037128Y014779D01*
X037085Y014779D01*X037085Y014993D01*G37*G36*X037085Y015419D02*X037128Y015419D01*
X037128Y015206D01*X037085Y015206D01*X037085Y015419D01*G37*G36*X037085Y016486D02*
X037128Y016486D01*X037128Y016230D01*X037085Y016230D01*X037085Y016486D01*G37*G36*
X037085Y016956D02*X037128Y016956D01*X037128Y016700D01*X037085Y016700D01*
X037085Y016956D01*G37*G36*X037085Y017766D02*X037128Y017766D01*X037128Y017468D01*
X037085Y017468D01*X037085Y017766D01*
G37*G36*X037085Y019174D02*X037128Y019174D01*
X037128Y018108D01*X037085Y018108D01*X037085Y019174D01*G37*G36*X037128Y010256D02*
X037171Y010256D01*X037171Y010000D01*X037128Y010000D01*X037128Y010256D01*G37*G36*
X037128Y011920D02*X037171Y011920D01*X037171Y010512D01*X037128Y010512D01*
X037128Y011920D01*G37*G36*X037128Y013456D02*X037171Y013456D01*X037171Y012134D01*
X037128Y012134D01*X037128Y013456D01*G37*G36*X037128Y013969D02*X037171Y013969D01*
X037171Y013755D01*X037128Y013755D01*X037128Y013969D01*G37*G36*X037128Y014993D02*
X037171Y014993D01*X037171Y014779D01*X037128Y014779D01*X037128Y014993D01*G37*G36*
X037128Y015462D02*X037171Y015462D01*X037171Y015249D01*X037128Y015249D01*
X037128Y015462D01*G37*G36*X037128Y016443D02*X037171Y016443D01*X037171Y016187D01*
X037128Y016187D01*X037128Y016443D01*G37*G36*X037128Y016956D02*X037171Y016956D01*
X037171Y016700D01*X037128Y016700D01*X037128Y016956D01*G37*G36*X037128Y017724D02*
X037171Y017724D01*X037171Y017425D01*X037128Y017425D01*X037128Y017724D01*
G37*G36*
X037128Y019174D02*X037171Y019174D01*X037171Y018108D01*X037128Y018108D01*
X037128Y019174D01*G37*G36*X037171Y010256D02*X037213Y010256D01*X037213Y010000D01*
X037171Y010000D01*X037171Y010256D01*G37*G36*X037171Y011920D02*X037213Y011920D01*
X037213Y010512D01*X037171Y010512D01*X037171Y011920D01*G37*G36*X037171Y013456D02*
X037213Y013456D01*X037213Y012134D01*X037171Y012134D01*X037171Y013456D01*G37*G36*
X037171Y013969D02*X037213Y013969D01*X037213Y013755D01*X037171Y013755D01*
X037171Y013969D01*G37*G36*X037171Y014993D02*X037213Y014993D01*X037213Y014779D01*
X037171Y014779D01*X037171Y014993D01*G37*G36*X037171Y015462D02*X037213Y015462D01*
X037213Y015249D01*X037171Y015249D01*X037171Y015462D01*G37*G36*X037171Y016443D02*
X037213Y016443D01*X037213Y016187D01*X037171Y016187D01*X037171Y016443D01*G37*G36*
X037171Y016956D02*X037213Y016956D01*X037213Y016700D01*X037171Y016700D01*
X037171Y016956D01*G37*G36*X037171Y017681D02*X037213Y017681D01*X037213Y017382D01*
X037171Y017382D01*X037171Y017681D01*
G37*G36*X037171Y018321D02*X037213Y018321D01*
X037213Y018108D01*X037171Y018108D01*X037171Y018321D01*G37*G36*X037213Y010256D02*
X037256Y010256D01*X037256Y010000D01*X037213Y010000D01*X037213Y010256D01*G37*G36*
X037213Y010768D02*X037256Y010768D01*X037256Y010469D01*X037213Y010469D01*
X037213Y010768D01*G37*G36*X037213Y011920D02*X037256Y011920D01*X037256Y011664D01*
X037213Y011664D01*X037213Y011920D01*G37*G36*X037213Y012347D02*X037256Y012347D01*
X037256Y012134D01*X037213Y012134D01*X037213Y012347D01*G37*G36*X037213Y013456D02*
X037256Y013456D01*X037256Y013243D01*X037213Y013243D01*X037213Y013456D01*G37*G36*
X037213Y013969D02*X037256Y013969D01*X037256Y013755D01*X037213Y013755D01*
X037213Y013969D01*G37*G36*X037213Y014993D02*X037256Y014993D01*X037256Y014779D01*
X037213Y014779D01*X037213Y014993D01*G37*G36*X037213Y016401D02*X037256Y016401D01*
X037256Y015291D01*X037213Y015291D01*X037213Y016401D01*G37*G36*X037213Y016956D02*
X037256Y016956D01*X037256Y016700D01*X037213Y016700D01*X037213Y016956D01*
G37*G36*
X037213Y017638D02*X037256Y017638D01*X037256Y017340D01*X037213Y017340D01*
X037213Y017638D01*G37*G36*X037213Y018321D02*X037256Y018321D01*X037256Y018108D01*
X037213Y018108D01*X037213Y018321D01*G37*G36*X037256Y010256D02*X037299Y010256D01*
X037299Y010000D01*X037256Y010000D01*X037256Y010256D01*G37*G36*X037256Y010768D02*
X037299Y010768D01*X037299Y010469D01*X037256Y010469D01*X037256Y010768D01*G37*G36*
X037256Y011920D02*X037299Y011920D01*X037299Y011664D01*X037256Y011664D01*
X037256Y011920D01*G37*G36*X037256Y012347D02*X037299Y012347D01*X037299Y012134D01*
X037256Y012134D01*X037256Y012347D01*G37*G36*X037256Y013456D02*X037299Y013456D01*
X037299Y013243D01*X037256Y013243D01*X037256Y013456D01*G37*G36*X037256Y013969D02*
X037299Y013969D01*X037299Y013755D01*X037256Y013755D01*X037256Y013969D01*G37*G36*
X037256Y014993D02*X037299Y014993D01*X037299Y014779D01*X037256Y014779D01*
X037256Y014993D01*G37*G36*X037256Y016401D02*X037299Y016401D01*X037299Y015291D01*
X037256Y015291D01*X037256Y016401D01*
G37*G36*X037256Y016956D02*X037299Y016956D01*
X037299Y016700D01*X037256Y016700D01*X037256Y016956D01*G37*G36*X037256Y017596D02*
X037299Y017596D01*X037299Y017297D01*X037256Y017297D01*X037256Y017596D01*G37*G36*
X037256Y018321D02*X037299Y018321D01*X037299Y018108D01*X037256Y018108D01*
X037256Y018321D01*G37*G36*X037299Y010256D02*X037341Y010256D01*X037341Y010000D01*
X037299Y010000D01*X037299Y010256D01*G37*G36*X037299Y010768D02*X037341Y010768D01*
X037341Y010469D01*X037299Y010469D01*X037299Y010768D01*G37*G36*X037299Y011920D02*
X037341Y011920D01*X037341Y011664D01*X037299Y011664D01*X037299Y011920D01*G37*G36*
X037299Y012347D02*X037341Y012347D01*X037341Y012134D01*X037299Y012134D01*
X037299Y012347D01*G37*G36*X037299Y013456D02*X037341Y013456D01*X037341Y013243D01*
X037299Y013243D01*X037299Y013456D01*G37*G36*X037299Y013969D02*X037341Y013969D01*
X037341Y013755D01*X037299Y013755D01*X037299Y013969D01*G37*G36*X037299Y014993D02*
X037341Y014993D01*X037341Y014779D01*X037299Y014779D01*X037299Y014993D01*
G37*G36*
X037299Y016358D02*X037341Y016358D01*X037341Y015334D01*X037299Y015334D01*
X037299Y016358D01*G37*G36*X037299Y016956D02*X037341Y016956D01*X037341Y016700D01*
X037299Y016700D01*X037299Y016956D01*G37*G36*X037299Y017553D02*X037341Y017553D01*
X037341Y017254D01*X037299Y017254D01*X037299Y017553D01*G37*G36*X037299Y018321D02*
X037341Y018321D01*X037341Y018108D01*X037299Y018108D01*X037299Y018321D01*G37*G36*
X037341Y010256D02*X037384Y010256D01*X037384Y010000D01*X037341Y010000D01*
X037341Y010256D01*G37*G36*X037341Y010768D02*X037384Y010768D01*X037384Y010469D01*
X037341Y010469D01*X037341Y010768D01*G37*G36*X037341Y011920D02*X037384Y011920D01*
X037384Y011664D01*X037341Y011664D01*X037341Y011920D01*G37*G36*X037341Y012347D02*
X037384Y012347D01*X037384Y012304D01*X037341Y012304D01*X037341Y012347D01*G37*G36*
X037341Y013456D02*X037384Y013456D01*X037384Y013243D01*X037341Y013243D01*
X037341Y013456D01*G37*G36*X037341Y013969D02*X037384Y013969D01*X037384Y013755D01*
X037341Y013755D01*X037341Y013969D01*
G37*G36*X037341Y014993D02*X037384Y014993D01*
X037384Y014779D01*X037341Y014779D01*X037341Y014993D01*G37*G36*X037341Y016358D02*
X037384Y016358D01*X037384Y015334D01*X037341Y015334D01*X037341Y016358D01*G37*G36*
X037341Y016956D02*X037384Y016956D01*X037384Y016700D01*X037341Y016700D01*
X037341Y016956D01*G37*G36*X037341Y017510D02*X037384Y017510D01*X037384Y017212D01*
X037341Y017212D01*X037341Y017510D01*G37*G36*X037341Y018321D02*X037384Y018321D01*
X037384Y018108D01*X037341Y018108D01*X037341Y018321D01*G37*G36*X037384Y010256D02*
X037427Y010256D01*X037427Y010000D01*X037384Y010000D01*X037384Y010256D01*G37*G36*
X037384Y010768D02*X037427Y010768D01*X037427Y010469D01*X037384Y010469D01*
X037384Y010768D01*G37*G36*X037384Y011920D02*X037427Y011920D01*X037427Y011664D01*
X037384Y011664D01*X037384Y011920D01*G37*G36*X037384Y013456D02*X037427Y013456D01*
X037427Y013243D01*X037384Y013243D01*X037384Y013456D01*G37*G36*X037384Y013969D02*
X037427Y013969D01*X037427Y013755D01*X037384Y013755D01*X037384Y013969D01*
G37*G36*
X037384Y014993D02*X037427Y014993D01*X037427Y014779D01*X037384Y014779D01*
X037384Y014993D01*G37*G36*X037384Y016315D02*X037427Y016315D01*X037427Y015377D01*
X037384Y015377D01*X037384Y016315D01*G37*G36*X037384Y016956D02*X037427Y016956D01*
X037427Y016700D01*X037384Y016700D01*X037384Y016956D01*G37*G36*X037384Y017510D02*
X037427Y017510D01*X037427Y017169D01*X037384Y017169D01*X037384Y017510D01*G37*G36*
X037384Y018321D02*X037427Y018321D01*X037427Y018108D01*X037384Y018108D01*
X037384Y018321D01*G37*G36*X037427Y010256D02*X037469Y010256D01*X037469Y010000D01*
X037427Y010000D01*X037427Y010256D01*G37*G36*X037427Y010768D02*X037469Y010768D01*
X037469Y010469D01*X037427Y010469D01*X037427Y010768D01*G37*G36*X037427Y011920D02*
X037469Y011920D01*X037469Y011664D01*X037427Y011664D01*X037427Y011920D01*G37*G36*
X037427Y013456D02*X037469Y013456D01*X037469Y013243D01*X037427Y013243D01*
X037427Y013456D01*G37*G36*X037427Y014011D02*X037469Y014011D01*X037469Y013755D01*
X037427Y013755D01*X037427Y014011D01*
G37*G36*X037427Y014993D02*X037469Y014993D01*
X037469Y014737D01*X037427Y014737D01*X037427Y014993D01*G37*G36*X037427Y015590D02*
X037469Y015590D01*X037469Y015377D01*X037427Y015377D01*X037427Y015590D01*G37*G36*
X037427Y016315D02*X037469Y016315D01*X037469Y016059D01*X037427Y016059D01*
X037427Y016315D01*G37*G36*X037427Y017766D02*X037469Y017766D01*X037469Y016700D01*
X037427Y016700D01*X037427Y017766D01*G37*G36*X037427Y018321D02*X037469Y018321D01*
X037469Y018108D01*X037427Y018108D01*X037427Y018321D01*G37*G36*X037469Y010256D02*
X037512Y010256D01*X037512Y010000D01*X037469Y010000D01*X037469Y010256D01*G37*G36*
X037469Y010768D02*X037512Y010768D01*X037512Y010469D01*X037469Y010469D01*
X037469Y010768D01*G37*G36*X037469Y011920D02*X037512Y011920D01*X037512Y011664D01*
X037469Y011664D01*X037469Y011920D01*G37*G36*X037469Y013456D02*X037512Y013456D01*
X037512Y013243D01*X037469Y013243D01*X037469Y013456D01*G37*G36*X037469Y014993D02*
X037512Y014993D01*X037512Y013755D01*X037469Y013755D01*X037469Y014993D01*
G37*G36*
X037469Y015633D02*X037512Y015633D01*X037512Y015419D01*X037469Y015419D01*
X037469Y015633D01*G37*G36*X037469Y016273D02*X037512Y016273D01*X037512Y016017D01*
X037469Y016017D01*X037469Y016273D01*G37*G36*X037469Y017809D02*X037512Y017809D01*
X037512Y016700D01*X037469Y016700D01*X037469Y017809D01*G37*G36*X037469Y018790D02*
X037512Y018790D01*X037512Y018108D01*X037469Y018108D01*X037469Y018790D01*G37*G36*
X037512Y010256D02*X037555Y010256D01*X037555Y010000D01*X037512Y010000D01*
X037512Y010256D01*G37*G36*X037512Y010768D02*X037555Y010768D01*X037555Y010469D01*
X037512Y010469D01*X037512Y010768D01*G37*G36*X037512Y011920D02*X037555Y011920D01*
X037555Y011664D01*X037512Y011664D01*X037512Y011920D01*G37*G36*X037512Y013456D02*
X037555Y013456D01*X037555Y013243D01*X037512Y013243D01*X037512Y013456D01*G37*G36*
X037512Y014993D02*X037555Y014993D01*X037555Y013755D01*X037512Y013755D01*
X037512Y014993D01*G37*G36*X037512Y015633D02*X037555Y015633D01*X037555Y015419D01*
X037512Y015419D01*X037512Y015633D01*
G37*G36*X037512Y016230D02*X037555Y016230D01*
X037555Y016017D01*X037512Y016017D01*X037512Y016230D01*G37*G36*X037512Y017809D02*
X037555Y017809D01*X037555Y016700D01*X037512Y016700D01*X037512Y017809D01*G37*G36*
X037512Y018790D02*X037555Y018790D01*X037555Y018108D01*X037512Y018108D01*
X037512Y018790D01*G37*G36*X037555Y010256D02*X037597Y010256D01*X037597Y010000D01*
X037555Y010000D01*X037555Y010256D01*G37*G36*X037555Y010768D02*X037597Y010768D01*
X037597Y010469D01*X037555Y010469D01*X037555Y010768D01*G37*G36*X037555Y011920D02*
X037597Y011920D01*X037597Y011195D01*X037555Y011195D01*X037555Y011920D01*G37*G36*
X037555Y013456D02*X037597Y013456D01*X037597Y012304D01*X037555Y012304D01*
X037555Y013456D01*G37*G36*X037555Y014993D02*X037597Y014993D01*X037597Y013755D01*
X037555Y013755D01*X037555Y014993D01*G37*G36*X037555Y015675D02*X037597Y015675D01*
X037597Y015462D01*X037555Y015462D01*X037555Y015675D01*G37*G36*X037555Y016230D02*
X037597Y016230D01*X037597Y015974D01*X037555Y015974D01*X037555Y016230D01*
G37*G36*
X037555Y017852D02*X037597Y017852D01*X037597Y016700D01*X037555Y016700D01*
X037555Y017852D01*G37*G36*X037555Y018790D02*X037597Y018790D01*X037597Y018108D01*
X037555Y018108D01*X037555Y018790D01*G37*G36*X037597Y010256D02*X037640Y010256D01*
X037640Y010000D01*X037597Y010000D01*X037597Y010256D01*G37*G36*X037597Y010768D02*
X037640Y010768D01*X037640Y010469D01*X037597Y010469D01*X037597Y010768D01*G37*G36*
X037597Y011920D02*X037640Y011920D01*X037640Y011195D01*X037597Y011195D01*
X037597Y011920D01*G37*G36*X037597Y013456D02*X037640Y013456D01*X037640Y012262D01*
X037597Y012262D01*X037597Y013456D01*G37*G36*X037597Y014993D02*X037640Y014993D01*
X037640Y013755D01*X037597Y013755D01*X037597Y014993D01*G37*G36*X037597Y015675D02*
X037640Y015675D01*X037640Y015462D01*X037597Y015462D01*X037597Y015675D01*G37*G36*
X037597Y016187D02*X037640Y016187D01*X037640Y015974D01*X037597Y015974D01*
X037597Y016187D01*G37*G36*X037597Y016956D02*X037640Y016956D01*X037640Y016700D01*
X037597Y016700D01*X037597Y016956D01*
G37*G36*X037597Y017852D02*X037640Y017852D01*
X037640Y017596D01*X037597Y017596D01*X037597Y017852D01*G37*G36*X037597Y018790D02*
X037640Y018790D01*X037640Y018108D01*X037597Y018108D01*X037597Y018790D01*G37*G36*
X037640Y010256D02*X037683Y010256D01*X037683Y010000D01*X037640Y010000D01*
X037640Y010256D01*G37*G36*X037640Y010768D02*X037683Y010768D01*X037683Y010469D01*
X037640Y010469D01*X037640Y010768D01*G37*G36*X037640Y011920D02*X037683Y011920D01*
X037683Y011195D01*X037640Y011195D01*X037640Y011920D01*G37*G36*X037640Y013456D02*
X037683Y013456D01*X037683Y012219D01*X037640Y012219D01*X037640Y013456D01*G37*G36*
X037640Y014011D02*X037683Y014011D01*X037683Y013755D01*X037640Y013755D01*
X037640Y014011D01*G37*G36*X037640Y014993D02*X037683Y014993D01*X037683Y014737D01*
X037640Y014737D01*X037640Y014993D01*G37*G36*X037640Y015718D02*X037683Y015718D01*
X037683Y015505D01*X037640Y015505D01*X037640Y015718D01*G37*G36*X037640Y016187D02*
X037683Y016187D01*X037683Y015931D01*X037640Y015931D01*X037640Y016187D01*
G37*G36*
X037640Y016956D02*X037683Y016956D01*X037683Y016700D01*X037640Y016700D01*
X037640Y016956D01*G37*G36*X037640Y017852D02*X037683Y017852D01*X037683Y017638D01*
X037640Y017638D01*X037640Y017852D01*G37*G36*X037640Y018321D02*X037683Y018321D01*
X037683Y018108D01*X037640Y018108D01*X037640Y018321D01*G37*G36*X037683Y010256D02*
X037725Y010256D01*X037725Y010000D01*X037683Y010000D01*X037683Y010256D01*G37*G36*
X037683Y010768D02*X037725Y010768D01*X037725Y010469D01*X037683Y010469D01*
X037683Y010768D01*G37*G36*X037683Y011920D02*X037725Y011920D01*X037725Y011195D01*
X037683Y011195D01*X037683Y011920D01*G37*G36*X037683Y013456D02*X037725Y013456D01*
X037725Y012219D01*X037683Y012219D01*X037683Y013456D01*G37*G36*X037683Y013969D02*
X037725Y013969D01*X037725Y013755D01*X037683Y013755D01*X037683Y013969D01*G37*G36*
X037683Y014993D02*X037725Y014993D01*X037725Y014779D01*X037683Y014779D01*
X037683Y014993D01*G37*G36*X037683Y015718D02*X037725Y015718D01*X037725Y015505D01*
X037683Y015505D01*X037683Y015718D01*
G37*G36*X037683Y016145D02*X037725Y016145D01*
X037725Y015931D01*X037683Y015931D01*X037683Y016145D01*G37*G36*X037683Y016956D02*
X037725Y016956D01*X037725Y016700D01*X037683Y016700D01*X037683Y016956D01*G37*G36*
X037683Y017852D02*X037725Y017852D01*X037725Y017638D01*X037683Y017638D01*
X037683Y017852D01*G37*G36*X037683Y018321D02*X037725Y018321D01*X037725Y018108D01*
X037683Y018108D01*X037683Y018321D01*G37*G36*X037725Y010256D02*X037768Y010256D01*
X037768Y010000D01*X037725Y010000D01*X037725Y010256D01*G37*G36*X037725Y010768D02*
X037768Y010768D01*X037768Y010469D01*X037725Y010469D01*X037725Y010768D01*G37*G36*
X037725Y011920D02*X037768Y011920D01*X037768Y011195D01*X037725Y011195D01*
X037725Y011920D01*G37*G36*X037725Y013414D02*X037768Y013414D01*X037768Y012176D01*
X037725Y012176D01*X037725Y013414D01*G37*G36*X037725Y013969D02*X037768Y013969D01*
X037768Y013755D01*X037725Y013755D01*X037725Y013969D01*G37*G36*X037725Y014993D02*
X037768Y014993D01*X037768Y014779D01*X037725Y014779D01*X037725Y014993D01*
G37*G36*
X037725Y015761D02*X037768Y015761D01*X037768Y015547D01*X037725Y015547D01*
X037725Y015761D01*G37*G36*X037725Y016145D02*X037768Y016145D01*X037768Y015931D01*
X037725Y015931D01*X037725Y016145D01*G37*G36*X037725Y016956D02*X037768Y016956D01*
X037768Y016700D01*X037725Y016700D01*X037725Y016956D01*G37*G36*X037725Y017852D02*
X037768Y017852D01*X037768Y017638D01*X037725Y017638D01*X037725Y017852D01*G37*G36*
X037725Y018321D02*X037768Y018321D01*X037768Y018108D01*X037725Y018108D01*
X037725Y018321D01*G37*G36*X037768Y010256D02*X037811Y010256D01*X037811Y010000D01*
X037768Y010000D01*X037768Y010256D01*G37*G36*X037768Y010768D02*X037811Y010768D01*
X037811Y010469D01*X037768Y010469D01*X037768Y010768D01*G37*G36*X037768Y013328D02*
X037811Y013328D01*X037811Y012176D01*X037768Y012176D01*X037768Y013328D01*G37*G36*
X037768Y013969D02*X037811Y013969D01*X037811Y013755D01*X037768Y013755D01*
X037768Y013969D01*G37*G36*X037768Y014993D02*X037811Y014993D01*X037811Y014779D01*
X037768Y014779D01*X037768Y014993D01*
G37*G36*X037768Y015761D02*X037811Y015761D01*
X037811Y015547D01*X037768Y015547D01*X037768Y015761D01*G37*G36*X037768Y016102D02*
X037811Y016102D01*X037811Y015889D01*X037768Y015889D01*X037768Y016102D01*G37*G36*
X037768Y016956D02*X037811Y016956D01*X037811Y016700D01*X037768Y016700D01*
X037768Y016956D01*G37*G36*X037768Y017852D02*X037811Y017852D01*X037811Y017638D01*
X037768Y017638D01*X037768Y017852D01*G37*G36*X037768Y018321D02*X037811Y018321D01*
X037811Y018108D01*X037768Y018108D01*X037768Y018321D01*G37*G36*X037811Y010256D02*
X037853Y010256D01*X037853Y010000D01*X037811Y010000D01*X037811Y010256D01*G37*G36*
X037811Y010768D02*X037853Y010768D01*X037853Y010469D01*X037811Y010469D01*
X037811Y010768D01*G37*G36*X037811Y012432D02*X037853Y012432D01*X037853Y012176D01*
X037811Y012176D01*X037811Y012432D01*G37*G36*X037811Y013969D02*X037853Y013969D01*
X037853Y013755D01*X037811Y013755D01*X037811Y013969D01*G37*G36*X037811Y014993D02*
X037853Y014993D01*X037853Y014779D01*X037811Y014779D01*X037811Y014993D01*
G37*G36*
X037811Y015803D02*X037853Y015803D01*X037853Y015590D01*X037811Y015590D01*
X037811Y015803D01*G37*G36*X037811Y016102D02*X037853Y016102D01*X037853Y015889D01*
X037811Y015889D01*X037811Y016102D01*G37*G36*X037811Y016956D02*X037853Y016956D01*
X037853Y016700D01*X037811Y016700D01*X037811Y016956D01*G37*G36*X037811Y017852D02*
X037853Y017852D01*X037853Y017638D01*X037811Y017638D01*X037811Y017852D01*G37*G36*
X037811Y018321D02*X037853Y018321D01*X037853Y018108D01*X037811Y018108D01*
X037811Y018321D01*G37*G36*X037853Y010256D02*X037896Y010256D01*X037896Y010000D01*
X037853Y010000D01*X037853Y010256D01*G37*G36*X037853Y010768D02*X037896Y010768D01*
X037896Y010469D01*X037853Y010469D01*X037853Y010768D01*G37*G36*X037853Y012390D02*
X037896Y012390D01*X037896Y012176D01*X037853Y012176D01*X037853Y012390D01*G37*G36*
X037853Y013969D02*X037896Y013969D01*X037896Y013755D01*X037853Y013755D01*
X037853Y013969D01*G37*G36*X037853Y014993D02*X037896Y014993D01*X037896Y014779D01*
X037853Y014779D01*X037853Y014993D01*
G37*G36*X037853Y015803D02*X037896Y015803D01*
X037896Y015633D01*X037853Y015633D01*X037853Y015803D01*G37*G36*X037853Y016059D02*
X037896Y016059D01*X037896Y015846D01*X037853Y015846D01*X037853Y016059D01*G37*G36*
X037853Y016956D02*X037896Y016956D01*X037896Y016700D01*X037853Y016700D01*
X037853Y016956D01*G37*G36*X037853Y017852D02*X037896Y017852D01*X037896Y017596D01*
X037853Y017596D01*X037853Y017852D01*G37*G36*X037853Y018321D02*X037896Y018321D01*
X037896Y018108D01*X037853Y018108D01*X037853Y018321D01*G37*G36*X037896Y010256D02*
X037939Y010256D01*X037939Y010000D01*X037896Y010000D01*X037896Y010256D01*G37*G36*
X037896Y010768D02*X037939Y010768D01*X037939Y010469D01*X037896Y010469D01*
X037896Y010768D01*G37*G36*X037896Y012390D02*X037939Y012390D01*X037939Y012176D01*
X037896Y012176D01*X037896Y012390D01*G37*G36*X037896Y013969D02*X037939Y013969D01*
X037939Y013755D01*X037896Y013755D01*X037896Y013969D01*G37*G36*X037896Y014993D02*
X037939Y014993D01*X037939Y014779D01*X037896Y014779D01*X037896Y014993D01*
G37*G36*
X037896Y016059D02*X037939Y016059D01*X037939Y015633D01*X037896Y015633D01*
X037896Y016059D01*G37*G36*X037896Y016956D02*X037939Y016956D01*X037939Y016700D01*
X037896Y016700D01*X037896Y016956D01*G37*G36*X037896Y017852D02*X037939Y017852D01*
X037939Y017510D01*X037896Y017510D01*X037896Y017852D01*G37*G36*X037896Y019132D02*
X037939Y019132D01*X037939Y018108D01*X037896Y018108D01*X037896Y019132D01*G37*G36*
X037939Y010256D02*X037981Y010256D01*X037981Y010000D01*X037939Y010000D01*
X037939Y010256D01*G37*G36*X037939Y010768D02*X037981Y010768D01*X037981Y010469D01*
X037939Y010469D01*X037939Y010768D01*G37*G36*X037939Y012390D02*X037981Y012390D01*
X037981Y012176D01*X037939Y012176D01*X037939Y012390D01*G37*G36*X037939Y013969D02*
X037981Y013969D01*X037981Y013755D01*X037939Y013755D01*X037939Y013969D01*G37*G36*
X037939Y014993D02*X037981Y014993D01*X037981Y014779D01*X037939Y014779D01*
X037939Y014993D01*G37*G36*X037939Y016017D02*X037981Y016017D01*X037981Y015675D01*
X037939Y015675D01*X037939Y016017D01*
G37*G36*X037939Y017809D02*X037981Y017809D01*
X037981Y016700D01*X037939Y016700D01*X037939Y017809D01*G37*G36*X037939Y019132D02*
X037981Y019132D01*X037981Y018108D01*X037939Y018108D01*X037939Y019132D01*G37*G36*
X037981Y010256D02*X038024Y010256D01*X038024Y010000D01*X037981Y010000D01*
X037981Y010256D01*G37*G36*X037981Y010768D02*X038024Y010768D01*X038024Y010469D01*
X037981Y010469D01*X037981Y010768D01*G37*G36*X037981Y011835D02*X038024Y011835D01*
X038024Y011664D01*X037981Y011664D01*X037981Y011835D01*G37*G36*X037981Y012390D02*
X038024Y012390D01*X038024Y012176D01*X037981Y012176D01*X037981Y012390D01*G37*G36*
X037981Y013371D02*X038024Y013371D01*X038024Y013243D01*X037981Y013243D01*
X037981Y013371D01*G37*G36*X037981Y013969D02*X038024Y013969D01*X038024Y013755D01*
X037981Y013755D01*X037981Y013969D01*G37*G36*X037981Y014993D02*X038024Y014993D01*
X038024Y014779D01*X037981Y014779D01*X037981Y014993D01*G37*G36*X037981Y016017D02*
X038024Y016017D01*X038024Y015675D01*X037981Y015675D01*X037981Y016017D01*
G37*G36*
X037981Y017809D02*X038024Y017809D01*X038024Y016700D01*X037981Y016700D01*
X037981Y017809D01*G37*G36*X037981Y019132D02*X038024Y019132D01*X038024Y018108D01*
X037981Y018108D01*X037981Y019132D01*G37*G36*X038024Y010256D02*X038067Y010256D01*
X038067Y010000D01*X038024Y010000D01*X038024Y010256D01*G37*G36*X038024Y010768D02*
X038067Y010768D01*X038067Y010469D01*X038024Y010469D01*X038024Y010768D01*G37*G36*
X038024Y011920D02*X038067Y011920D01*X038067Y011664D01*X038024Y011664D01*
X038024Y011920D01*G37*G36*X038024Y012390D02*X038067Y012390D01*X038067Y012176D01*
X038024Y012176D01*X038024Y012390D01*G37*G36*X038024Y013456D02*X038067Y013456D01*
X038067Y013243D01*X038024Y013243D01*X038024Y013456D01*G37*G36*X038024Y013969D02*
X038067Y013969D01*X038067Y013755D01*X038024Y013755D01*X038024Y013969D01*G37*G36*
X038024Y014993D02*X038067Y014993D01*X038067Y014779D01*X038024Y014779D01*
X038024Y014993D01*G37*G36*X038024Y015974D02*X038067Y015974D01*X038067Y015718D01*
X038024Y015718D01*X038024Y015974D01*
G37*G36*X038024Y017766D02*X038067Y017766D01*
X038067Y016700D01*X038024Y016700D01*X038024Y017766D01*G37*G36*X038024Y019132D02*
X038067Y019132D01*X038067Y018108D01*X038024Y018108D01*X038024Y019132D01*G37*G36*
X038067Y010256D02*X038109Y010256D01*X038109Y010000D01*X038067Y010000D01*
X038067Y010256D01*G37*G36*X038067Y010768D02*X038109Y010768D01*X038109Y010469D01*
X038067Y010469D01*X038067Y010768D01*G37*G36*X038067Y011920D02*X038109Y011920D01*
X038109Y011664D01*X038067Y011664D01*X038067Y011920D01*G37*G36*X038067Y012390D02*
X038109Y012390D01*X038109Y012176D01*X038067Y012176D01*X038067Y012390D01*G37*G36*
X038067Y013456D02*X038109Y013456D01*X038109Y013243D01*X038067Y013243D01*
X038067Y013456D01*G37*G36*X038067Y013969D02*X038109Y013969D01*X038109Y013755D01*
X038067Y013755D01*X038067Y013969D01*G37*G36*X038067Y014993D02*X038109Y014993D01*
X038109Y014779D01*X038067Y014779D01*X038067Y014993D01*G37*G36*X038067Y015931D02*
X038109Y015931D01*X038109Y015718D01*X038067Y015718D01*X038067Y015931D01*
G37*G36*
X038067Y017681D02*X038109Y017681D01*X038109Y016742D01*X038067Y016742D01*
X038067Y017681D01*G37*G36*X038067Y019132D02*X038109Y019132D01*X038109Y018108D01*
X038067Y018108D01*X038067Y019132D01*G37*G36*X038109Y010256D02*X038152Y010256D01*
X038152Y010000D01*X038109Y010000D01*X038109Y010256D01*G37*G36*X038109Y011920D02*
X038152Y011920D01*X038152Y010512D01*X038109Y010512D01*X038109Y011920D01*G37*G36*
X038109Y013456D02*X038152Y013456D01*X038152Y012176D01*X038109Y012176D01*
X038109Y013456D01*G37*G36*X038152Y010256D02*X038195Y010256D01*X038195Y010000D01*
X038152Y010000D01*X038152Y010256D01*G37*G36*X038152Y011920D02*X038195Y011920D01*
X038195Y010512D01*X038152Y010512D01*X038152Y011920D01*G37*G36*X038152Y013456D02*
X038195Y013456D01*X038195Y012176D01*X038152Y012176D01*X038152Y013456D01*G37*G36*
X038195Y010256D02*X038237Y010256D01*X038237Y010000D01*X038195Y010000D01*
X038195Y010256D01*G37*G36*X038195Y011878D02*X038237Y011878D01*X038237Y010512D01*
X038195Y010512D01*X038195Y011878D01*
G37*G36*X038195Y013456D02*X038237Y013456D01*
X038237Y012219D01*X038195Y012219D01*X038195Y013456D01*G37*G36*X038237Y010256D02*
X038280Y010256D01*X038280Y010000D01*X038237Y010000D01*X038237Y010256D01*G37*G36*
X038237Y011878D02*X038280Y011878D01*X038280Y010512D01*X038237Y010512D01*
X038237Y011878D01*G37*G36*X038237Y013414D02*X038280Y013414D01*X038280Y012219D01*
X038237Y012219D01*X038237Y013414D01*G37*G36*X038280Y010256D02*X038323Y010256D01*
X038323Y010000D01*X038280Y010000D01*X038280Y010256D01*G37*G36*X038280Y011835D02*
X038323Y011835D01*X038323Y010555D01*X038280Y010555D01*X038280Y011835D01*G37*G36*
X038280Y013371D02*X038323Y013371D01*X038323Y012262D01*X038280Y012262D01*
X038280Y013371D01*G37*G36*X039418Y017254D02*X041978Y017254D01*X041978Y014125D01*
X040983Y014125D01*X040983Y015405D01*X038991Y015405D01*X038991Y016828D01*
X039000Y016911D01*X039024Y016991D01*X039063Y017064D01*X039117Y017129D01*
X039181Y017182D01*X039255Y017222D01*X039335Y017246D01*X039418Y017254D01*G37*G36*
X000413Y008100D02*X000413Y008900D01*X001413Y008500D01*X000413Y008100D01*G37*G36*
X051413Y008100D02*X051413Y008900D01*X052413Y008500D01*X051413Y008100D01*
G37*G36*
X017465Y040976D02*X017465Y040998D01*X017854Y040998D01*X017854Y040976D01*
X017875Y040976D01*X017875Y040955D01*X017918Y040955D01*X017918Y040933D01*
X017940Y040933D01*X017940Y040911D01*X017962Y040911D01*X017962Y040890D01*
X017983Y040890D01*X017983Y040868D01*X018005Y040868D01*X018005Y040847D01*
X018027Y040847D01*X018027Y040825D01*X018048Y040825D01*X018048Y040803D01*
X018070Y040803D01*X018070Y040782D01*X018091Y040782D01*X018091Y040760D01*
X018135Y040760D01*X018135Y040739D01*X018156Y040739D01*X018156Y040717D01*
X018178Y040717D01*X018178Y040695D01*X018199Y040695D01*X018199Y040674D01*
X018221Y040674D01*X018221Y040652D01*X018264Y040652D01*X018264Y040674D01*
X018307Y040674D01*X018307Y040695D01*X018351Y040695D01*X018351Y040717D01*
X018372Y040717D01*X018372Y040739D01*X018415Y040739D01*X018415Y040760D01*
X018437Y040760D01*X018437Y040782D01*X018480Y040782D01*X018480Y040803D01*
X018523Y040803D01*X018523Y040825D01*X018545Y040825D01*X018545Y040847D01*
X018588Y040847D01*X018588Y040868D01*X018610Y040868D01*X018610Y040890D01*
X018653Y040890D01*X018653Y040911D01*X018675Y040911D01*X018675Y040933D01*
X018718Y040933D01*X018718Y040955D01*X018739Y040955D01*X018739Y040976D01*
X018783Y040976D01*X018783Y040998D01*X019236Y040998D01*X019236Y040976D01*
X019193Y040976D01*X019193Y040955D01*X019171Y040955D01*X019171Y040933D01*
X019128Y040933D01*X019128Y040911D01*X019107Y040911D01*X019107Y040890D01*
X019063Y040890D01*X019063Y040868D01*X019042Y040868D01*X019042Y040847D01*
X018999Y040847D01*X018999Y040825D01*X018977Y040825D01*X018977Y040803D01*
X018934Y040803D01*X018934Y040782D01*X018912Y040782D01*X018912Y040760D01*
X018869Y040760D01*X018869Y040739D01*X018847Y040739D01*X018847Y040717D01*
X018804Y040717D01*X018804Y040695D01*X018783Y040695D01*X018783Y040674D01*
X018739Y040674D01*X018739Y040652D01*X018718Y040652D01*X018718Y040631D01*
X018675Y040631D01*X018675Y040609D01*X018653Y040609D01*X018653Y040587D01*
X018610Y040587D01*X018610Y040566D01*X018588Y040566D01*X018588Y040544D01*
X018545Y040544D01*X018545Y040523D01*X018523Y040523D01*X018523Y040501D01*
X018480Y040501D01*X018480Y040458D01*X018005Y040458D01*X018005Y040523D01*
X017983Y040523D01*X017983Y040544D01*X017940Y040544D01*X017940Y040566D01*
X017918Y040566D01*X017918Y040587D01*X017897Y040587D01*X017897Y040609D01*
X017875Y040609D01*X017875Y040631D01*X017854Y040631D01*X017854Y040652D01*
X017832Y040652D01*X017832Y040674D01*X017810Y040674D01*X017810Y040695D01*
X017789Y040695D01*X017789Y040717D01*X017746Y040717D01*X017746Y040739D01*
X017724Y040739D01*X017724Y040760D01*X017702Y040760D01*X017702Y040782D01*
X017681Y040782D01*X017681Y040803D01*X017659Y040803D01*X017659Y040825D01*
X017638Y040825D01*X017638Y040847D01*X017616Y040847D01*X017616Y040868D01*
X017573Y040868D01*X017573Y040890D01*X017551Y040890D01*X017551Y040911D01*
X017530Y040911D01*X017530Y040933D01*X017508Y040933D01*X017508Y040955D01*
X017486Y040955D01*X017486Y040976D01*X017465Y040976D01*G37*G36*X017530Y040155D02*
X017530Y040177D01*X017573Y040177D01*X017573Y040199D01*X017594Y040199D01*
X017594Y040220D01*X017638Y040220D01*X017638Y040242D01*X017681Y040242D01*
X017681Y040263D01*X017702Y040263D01*X017702Y040285D01*X017746Y040285D01*
X017746Y040307D01*X017767Y040307D01*X017767Y040328D01*X017789Y040328D01*
X017789Y040350D01*X017832Y040350D01*X017832Y040371D01*X017875Y040371D01*
X017875Y040393D01*X017897Y040393D01*X017897Y040415D01*X017940Y040415D01*
X017940Y040436D01*X017962Y040436D01*X017962Y040458D01*X018502Y040458D01*
X018502Y040436D01*X018523Y040436D01*X018523Y040415D01*X018567Y040415D01*
X018567Y040393D01*X018588Y040393D01*X018588Y040371D01*X018610Y040371D01*
X018610Y040350D01*X018631Y040350D01*X018631Y040328D01*X018675Y040328D01*
X018675Y040307D01*X018696Y040307D01*X018696Y040285D01*X018718Y040285D01*
X018718Y040263D01*X018739Y040263D01*X018739Y040242D01*X018783Y040242D01*
X018783Y040220D01*X018804Y040220D01*X018804Y040199D01*X018826Y040199D01*
X018826Y040177D01*X018847Y040177D01*X018847Y040155D01*X018891Y040155D01*
X018891Y040134D01*X018912Y040134D01*X018912Y040112D01*X018934Y040112D01*
X018934Y040091D01*X018955Y040091D01*X018955Y040069D01*X018977Y040069D01*
X018977Y040047D01*X019020Y040047D01*X019020Y040026D01*X019042Y040026D01*
X019042Y040004D01*X019063Y040004D01*X019063Y039983D01*X019085Y039983D01*
X019085Y039961D01*X018631Y039961D01*X018631Y039983D01*X018588Y039983D01*
X018588Y040004D01*X018567Y040004D01*X018567Y040026D01*X018545Y040026D01*
X018545Y040047D01*X018523Y040047D01*X018523Y040069D01*X018502Y040069D01*
X018502Y040091D01*X018480Y040091D01*X018480Y040112D01*X018437Y040112D01*
X018437Y040134D01*X018415Y040134D01*X018415Y040155D01*X018394Y040155D01*
X018394Y040177D01*X018372Y040177D01*X018372Y040199D01*X018351Y040199D01*
X018351Y040220D01*X018329Y040220D01*X018329Y040242D01*X018286Y040242D01*
X018286Y040263D01*X018264Y040263D01*X018264Y040285D01*X018243Y040285D01*
X018243Y040307D01*X018199Y040307D01*X018199Y040285D01*X018156Y040285D01*
X018156Y040263D01*X018135Y040263D01*X018135Y040242D01*X018091Y040242D01*
X018091Y040220D01*X018048Y040220D01*X018048Y040199D01*X018027Y040199D01*
X018027Y040177D01*X017983Y040177D01*X017983Y040155D01*X017530Y040155D01*G37*G36*
X015758Y041451D02*X015780Y041451D01*X015780Y041430D01*X015823Y041430D01*
X015823Y041408D01*X015866Y041408D01*X015866Y041430D01*X015909Y041430D01*
X015909Y041451D01*X015953Y041451D01*X015953Y041473D01*X015996Y041473D01*
X015996Y041495D01*X016017Y041495D01*X016017Y041516D01*X016039Y041516D01*
X016039Y041538D01*X016061Y041538D01*X016061Y041560D01*X016082Y041560D01*
X016082Y041581D01*X016104Y041581D01*X016104Y041624D01*X016125Y041624D01*
X016125Y041646D01*X016147Y041646D01*X016147Y041689D01*X016169Y041689D01*
X016169Y041776D01*X016190Y041776D01*X016190Y041948D01*X016169Y041948D01*
X016169Y042013D01*X016017Y042013D01*X016017Y041970D01*X016039Y041970D01*
X016039Y041754D01*X016017Y041754D01*X016017Y041711D01*X015996Y041711D01*
X015996Y041668D01*X015974Y041668D01*X015974Y041646D01*X015953Y041646D01*
X015953Y041624D01*X015931Y041624D01*X015931Y041603D01*X015888Y041603D01*
X015888Y041581D01*X015845Y041581D01*X015845Y041560D01*X015801Y041560D01*
X015801Y041538D01*X015780Y041538D01*X015780Y041516D01*X015758Y041516D01*
X015758Y041451D01*G37*G36*X015305Y042035D02*X015477Y042035D01*X015477Y042056D01*
X015499Y042056D01*X015499Y042100D01*X015521Y042100D01*X015521Y042121D01*
X015564Y042121D01*X015564Y042143D01*X015607Y042143D01*X015607Y042164D01*
X015693Y042164D01*X015693Y042186D01*X015780Y042186D01*X015780Y042164D01*
X015866Y042164D01*X015866Y042143D01*X015888Y042143D01*X015888Y042121D01*
X015931Y042121D01*X015931Y042100D01*X015953Y042100D01*X015953Y042078D01*
X015974Y042078D01*X015974Y042056D01*X015996Y042056D01*X015996Y042013D01*
X016169Y042013D01*X016169Y042035D01*X016147Y042035D01*X016147Y042078D01*
X016125Y042078D01*X016125Y042121D01*X016104Y042121D01*X016104Y042143D01*
X016082Y042143D01*X016082Y042164D01*X016061Y042164D01*X016061Y042186D01*
X016039Y042186D01*X016039Y042208D01*X016017Y042208D01*X016017Y042229D01*
X015996Y042229D01*X015996Y042251D01*X015953Y042251D01*X015953Y042272D01*
X015909Y042272D01*X015909Y042294D01*X015845Y042294D01*X015845Y042316D01*
X015607Y042316D01*X015607Y042294D01*X015542Y042294D01*X015542Y042272D01*
X015499Y042272D01*X015499Y042251D01*X015477Y042251D01*X015477Y042229D01*
X015434Y042229D01*X015434Y042208D01*X015413Y042208D01*X015413Y042186D01*
X015391Y042186D01*X015391Y042164D01*X015369Y042164D01*X015369Y042121D01*
X015348Y042121D01*X015348Y042100D01*X015326Y042100D01*X015326Y042056D01*
X015305Y042056D01*X015305Y042035D01*G37*G36*X015261Y041819D02*X015283Y041819D01*
X015283Y041732D01*X015305Y041732D01*X015305Y041668D01*X015326Y041668D01*
X015326Y041624D01*X015348Y041624D01*X015348Y041603D01*X015369Y041603D01*
X015369Y041560D01*X015391Y041560D01*X015391Y041538D01*X015434Y041538D01*
X015434Y041516D01*X015521Y041516D01*X015521Y041538D01*X015542Y041538D01*
X015542Y041624D01*X015521Y041624D01*X015521Y041646D01*X015499Y041646D01*
X015499Y041668D01*X015477Y041668D01*X015477Y041689D01*X015456Y041689D01*
X015456Y041732D01*X015434Y041732D01*X015434Y041797D01*X015413Y041797D01*
X015413Y041927D01*X015434Y041927D01*X015434Y041992D01*X015456Y041992D01*
X015456Y042035D01*X015305Y042035D01*X015305Y042013D01*X015283Y042013D01*
X015283Y041905D01*X015261Y041905D01*X015261Y041819D01*G37*G36*X014462Y040782D02*
X014484Y040782D01*X014484Y040739D01*X014505Y040739D01*X014505Y040717D01*
X014527Y040717D01*X014527Y040674D01*X014548Y040674D01*X014548Y040631D01*
X014570Y040631D01*X014570Y040587D01*X014592Y040587D01*X014592Y040544D01*
X014613Y040544D01*X014613Y040501D01*X014635Y040501D01*X014635Y040479D01*
X014656Y040479D01*X014656Y040436D01*X014678Y040436D01*X014678Y040393D01*
X014700Y040393D01*X014700Y040350D01*X014721Y040350D01*X014721Y040307D01*
X014743Y040307D01*X014743Y040263D01*X014765Y040263D01*X014765Y040242D01*
X014786Y040242D01*X014786Y040199D01*X014808Y040199D01*X014808Y040155D01*
X014829Y040155D01*X014829Y040112D01*X014851Y040112D01*X014851Y040069D01*
X014873Y040069D01*X014873Y040047D01*X014894Y040047D01*X014894Y040004D01*
X014916Y040004D01*X014916Y039961D01*X015413Y039961D01*X015413Y040026D01*
X015434Y040026D01*X015434Y040155D01*X015456Y040155D01*X015456Y040263D01*
X015477Y040263D01*X015477Y040393D01*X015499Y040393D01*X015499Y040523D01*
X015521Y040523D01*X015521Y040631D01*X015542Y040631D01*X015542Y040760D01*
X015564Y040760D01*X015564Y040868D01*X015585Y040868D01*X015585Y040998D01*
X015607Y040998D01*X015607Y041127D01*X015629Y041127D01*X015629Y041257D01*
X015650Y041257D01*X015650Y041365D01*X015672Y041365D01*X015672Y041495D01*
X015693Y041495D01*X015693Y041624D01*X015715Y041624D01*X015715Y041732D01*
X015737Y041732D01*X015737Y041819D01*X015715Y041819D01*X015715Y041776D01*
X015693Y041776D01*X015693Y041711D01*X015672Y041711D01*X015672Y041668D01*
X015650Y041668D01*X015650Y041624D01*X015629Y041624D01*X015629Y041581D01*
X015607Y041581D01*X015607Y041538D01*X015585Y041538D01*X015585Y041495D01*
X015564Y041495D01*X015564Y041451D01*X015542Y041451D01*X015542Y041408D01*
X015521Y041408D01*X015521Y041365D01*X015499Y041365D01*X015499Y041322D01*
X015477Y041322D01*X015477Y041279D01*X015456Y041279D01*X015456Y041214D01*
X015434Y041214D01*X015434Y041171D01*X015413Y041171D01*X015413Y041127D01*
X015391Y041127D01*X015391Y041084D01*X015369Y041084D01*X015369Y041041D01*
X015348Y041041D01*X015348Y040998D01*X015326Y040998D01*X015326Y040955D01*
X015305Y040955D01*X015305Y040911D01*X015283Y040911D01*X015283Y040868D01*
X015261Y040868D01*X015261Y040825D01*X015240Y040825D01*X015240Y040782D01*
X015218Y040782D01*X015218Y040717D01*X015197Y040717D01*X015197Y040674D01*
X015175Y040674D01*X015175Y040631D01*X015153Y040631D01*X015153Y040587D01*
X015132Y040587D01*X015132Y040544D01*X015110Y040544D01*X015110Y040501D01*
X015089Y040501D01*X015089Y040458D01*X015067Y040458D01*X015067Y040415D01*
X015024Y040415D01*X015024Y040436D01*X015002Y040436D01*X015002Y040479D01*
X014981Y040479D01*X014981Y040523D01*X014959Y040523D01*X014959Y040566D01*
X014937Y040566D01*X014937Y040609D01*X014916Y040609D01*X014916Y040631D01*
X014894Y040631D01*X014894Y040674D01*X014873Y040674D01*X014873Y040717D01*
X014851Y040717D01*X014851Y040760D01*X014829Y040760D01*X014829Y040803D01*
X014462Y040803D01*X014462Y040782D01*G37*G36*X013857Y040998D02*X013857Y041019D01*
X013879Y041019D01*X013879Y041149D01*X013900Y041149D01*X013900Y041279D01*
X013922Y041279D01*X013922Y041408D01*X013944Y041408D01*X013944Y041495D01*
X014440Y041495D01*X014440Y041473D01*X014462Y041473D01*X014462Y041430D01*
X014484Y041430D01*X014484Y041387D01*X014505Y041387D01*X014505Y041343D01*
X014527Y041343D01*X014527Y041322D01*X014548Y041322D01*X014548Y041279D01*
X014570Y041279D01*X014570Y041235D01*X014592Y041235D01*X014592Y041192D01*
X014613Y041192D01*X014613Y041149D01*X014635Y041149D01*X014635Y041106D01*
X014656Y041106D01*X014656Y041084D01*X014678Y041084D01*X014678Y041041D01*
X014700Y041041D01*X014700Y040998D01*X014721Y040998D01*X014721Y040955D01*
X014743Y040955D01*X014743Y040911D01*X014765Y040911D01*X014765Y040868D01*
X014786Y040868D01*X014786Y040847D01*X014808Y040847D01*X014808Y040803D01*
X014462Y040803D01*X014462Y040825D01*X014440Y040825D01*X014440Y040868D01*
X014419Y040868D01*X014419Y040911D01*X014397Y040911D01*X014397Y040955D01*
X014376Y040955D01*X014376Y040976D01*X014354Y040976D01*X014354Y041019D01*
X014332Y041019D01*X014332Y041063D01*X014311Y041063D01*X014311Y041041D01*
X014289Y041041D01*X014289Y040998D01*X013857Y040998D01*G37*G36*X013598Y039542D02*
X013598Y039564D01*X013620Y039564D01*X013620Y039542D01*X013598Y039542D01*G37*G36*
X012453Y040155D02*X012453Y040199D01*X012475Y040199D01*X012475Y040307D01*
X012496Y040307D01*X012496Y040415D01*X012518Y040415D01*X012518Y040523D01*
X012539Y040523D01*X012539Y040631D01*X012561Y040631D01*X012561Y040739D01*
X012583Y040739D01*X012583Y040847D01*X012604Y040847D01*X012604Y040890D01*
X012626Y040890D01*X012626Y040911D01*X012647Y040911D01*X012647Y040933D01*
X012669Y040933D01*X012669Y040955D01*X012712Y040955D01*X012712Y040976D01*
X012799Y040976D01*X012799Y040998D01*X014268Y040998D01*X014268Y040955D01*
X014246Y040955D01*X014246Y040890D01*X014224Y040890D01*X014224Y040847D01*
X014203Y040847D01*X014203Y040803D01*X014181Y040803D01*X014181Y040760D01*
X014160Y040760D01*X014160Y040695D01*X014138Y040695D01*X014138Y040652D01*
X014116Y040652D01*X014116Y040609D01*X014095Y040609D01*X014095Y040566D01*
X014073Y040566D01*X014073Y040501D01*X014052Y040501D01*X014052Y040458D01*
X014030Y040458D01*X014030Y040415D01*X014008Y040415D01*X014008Y040371D01*
X013987Y040371D01*X013987Y040328D01*X013965Y040328D01*X013965Y040263D01*
X013944Y040263D01*X013944Y040220D01*X013922Y040220D01*X013922Y040177D01*
X013900Y040177D01*X013900Y040134D01*X013879Y040134D01*X013879Y040069D01*
X013857Y040069D01*X013857Y040026D01*X013836Y040026D01*X013836Y039983D01*
X013814Y039983D01*X013814Y039939D01*X013792Y039939D01*X013792Y039874D01*
X013771Y039874D01*X013771Y039831D01*X013749Y039831D01*X013749Y039788D01*
X013728Y039788D01*X013728Y039745D01*X013706Y039745D01*X013706Y039680D01*
X013684Y039680D01*X013684Y039637D01*X013663Y039637D01*X013663Y039594D01*
X013641Y039594D01*X013641Y039550D01*X013620Y039550D01*X013620Y039637D01*
X013641Y039637D01*X013641Y039766D01*X013663Y039766D01*X013663Y039896D01*
X013684Y039896D01*X013684Y040004D01*X013706Y040004D01*X013706Y040134D01*
X013728Y040134D01*X013728Y040263D01*X013749Y040263D01*X013749Y040393D01*
X013771Y040393D01*X013771Y040523D01*X013792Y040523D01*X013792Y040652D01*
X013814Y040652D01*X013814Y040760D01*X013836Y040760D01*X013836Y040803D01*
X013101Y040803D01*X013101Y040782D01*X013058Y040782D01*X013058Y040760D01*
X013036Y040760D01*X013036Y040739D01*X013015Y040739D01*X013015Y040652D01*
X012993Y040652D01*X012993Y040544D01*X012971Y040544D01*X012971Y040436D01*
X012950Y040436D01*X012950Y040328D01*X012928Y040328D01*X012928Y040220D01*
X012907Y040220D01*X012907Y040155D01*X012453Y040155D01*G37*G36*X010617Y040112D02*
X010617Y040242D01*X010638Y040242D01*X010638Y040371D01*X010660Y040371D01*
X010660Y040393D01*X011092Y040393D01*X011092Y040307D01*X011070Y040307D01*
X011070Y040199D01*X011114Y040199D01*X011114Y040177D01*X011178Y040177D01*
X011178Y040155D01*X012907Y040155D01*X012907Y040112D01*X012885Y040112D01*
X012885Y039983D01*X012863Y039983D01*X012863Y039961D01*X011006Y039961D01*
X011006Y039983D01*X010833Y039983D01*X010833Y040004D01*X010768Y040004D01*
X010768Y040026D01*X010703Y040026D01*X010703Y040047D01*X010682Y040047D01*
X010682Y040069D01*X010660Y040069D01*X010660Y040091D01*X010638Y040091D01*
X010638Y040112D01*X010617Y040112D01*
G37*G36*X010660Y040393D02*X010660Y040479D01*
X010682Y040479D01*X010682Y040587D01*X010703Y040587D01*X010703Y040717D01*
X010725Y040717D01*X010725Y040825D01*X010746Y040825D01*X010746Y040890D01*
X010768Y040890D01*X010768Y040911D01*X010790Y040911D01*X010790Y040933D01*
X010811Y040933D01*X010811Y040955D01*X010854Y040955D01*X010854Y040976D01*
X010941Y040976D01*X010941Y040998D01*X012345Y040998D01*X012345Y040976D01*
X012388Y040976D01*X012388Y040955D01*X012410Y040955D01*X012410Y040933D01*
X012431Y040933D01*X012431Y040695D01*X012410Y040695D01*X012410Y040587D01*
X011978Y040587D01*X011978Y040674D01*X011999Y040674D01*X011999Y040782D01*
X011978Y040782D01*X011978Y040803D01*X011243Y040803D01*X011243Y040782D01*
X011200Y040782D01*X011200Y040760D01*X011178Y040760D01*X011178Y040739D01*
X011157Y040739D01*X011157Y040674D01*X011135Y040674D01*X011135Y040609D01*
X011114Y040609D01*X011114Y040587D01*X012410Y040587D01*X012410Y040544D01*
X012388Y040544D01*X012388Y040479D01*X012367Y040479D01*X012367Y040436D01*
X012323Y040436D01*X012323Y040415D01*X012302Y040415D01*X012302Y040393D01*
X010660Y040393D01*G37*G36*X009472Y040155D02*X009472Y040285D01*X009493Y040285D01*
X009493Y040393D01*X009515Y040393D01*X009515Y040523D01*X009537Y040523D01*
X009537Y040631D01*X009558Y040631D01*X009558Y040739D01*X009580Y040739D01*
X009580Y040868D01*X009601Y040868D01*X009601Y040976D01*X009623Y040976D01*
X009623Y041084D01*X009645Y041084D01*X009645Y041214D01*X009666Y041214D01*
X009666Y041322D01*X009688Y041322D01*X009688Y041408D01*X010163Y041408D01*
X010163Y041387D01*X010142Y041387D01*X010142Y041279D01*X010120Y041279D01*
X010120Y041192D01*X010098Y041192D01*X010098Y041084D01*X010077Y041084D01*
X010077Y040998D01*X010638Y040998D01*X010638Y040955D01*X010617Y040955D01*
X010617Y040825D01*X010595Y040825D01*X010595Y040803D01*X010034Y040803D01*
X010034Y040739D01*X010012Y040739D01*X010012Y040652D01*X009990Y040652D01*
X009990Y040544D01*X009969Y040544D01*X009969Y040436D01*X009947Y040436D01*
X009947Y040350D01*X009925Y040350D01*X009925Y040199D01*X009947Y040199D01*
X009947Y040177D01*X009990Y040177D01*X009990Y040155D01*X010530Y040155D01*
X010530Y040026D01*X010509Y040026D01*X010509Y039961D01*X009969Y039961D01*
X009969Y039983D01*X009731Y039983D01*X009731Y040004D01*X009666Y040004D01*
X009666Y040026D01*X009601Y040026D01*X009601Y040047D01*X009580Y040047D01*
X009580Y040069D01*X009537Y040069D01*X009537Y040091D01*X009515Y040091D01*
X009515Y040112D01*X009493Y040112D01*X009493Y040155D01*X009472Y040155D01*G37*G36*
X007592Y039983D02*X007592Y040047D01*X007614Y040047D01*X007614Y040155D01*
X007636Y040155D01*X007636Y040263D01*X007657Y040263D01*X007657Y040393D01*
X007679Y040393D01*X007679Y040479D01*X007700Y040479D01*X007700Y040609D01*
X007722Y040609D01*X007722Y040717D01*X007744Y040717D01*X007744Y040825D01*
X007765Y040825D01*X007765Y040911D01*X007787Y040911D01*X007787Y040998D01*
X009040Y040998D01*X009040Y040976D01*X009169Y040976D01*X009169Y040955D01*
X009234Y040955D01*X009234Y040933D01*X009299Y040933D01*X009299Y040911D01*
X009342Y040911D01*X009342Y040890D01*X009364Y040890D01*X009364Y040868D01*
X009407Y040868D01*X009407Y040825D01*X009429Y040825D01*X009429Y040674D01*
X009407Y040674D01*X009407Y040544D01*X009385Y040544D01*X009385Y040393D01*
X009364Y040393D01*X009364Y040263D01*X009342Y040263D01*X009342Y040134D01*
X009321Y040134D01*X009321Y039983D01*X008845Y039983D01*X008845Y040026D01*
X008867Y040026D01*X008867Y040134D01*X008889Y040134D01*X008889Y040285D01*
X008910Y040285D01*X008910Y040393D01*X008932Y040393D01*X008932Y040523D01*
X008953Y040523D01*X008953Y040631D01*X008975Y040631D01*X008975Y040760D01*
X008953Y040760D01*X008953Y040782D01*X008910Y040782D01*X008910Y040803D01*
X008197Y040803D01*X008197Y040782D01*X008176Y040782D01*X008176Y040652D01*
X008154Y040652D01*X008154Y040544D01*X008132Y040544D01*X008132Y040436D01*
X008111Y040436D01*X008111Y040307D01*X008089Y040307D01*X008089Y040220D01*
X008068Y040220D01*X008068Y040091D01*X008046Y040091D01*X008046Y039983D01*
X007592Y039983D01*G37*G36*X006923Y039961D02*X007420Y039961D01*X007420Y040004D01*
X007441Y040004D01*X007441Y040112D01*X007463Y040112D01*X007463Y040220D01*
X007484Y040220D01*X007484Y040328D01*X007506Y040328D01*X007506Y040436D01*
X007528Y040436D01*X007528Y040566D01*X007549Y040566D01*X007549Y040674D01*
X007571Y040674D01*X007571Y040782D01*X007592Y040782D01*X007592Y040890D01*
X007614Y040890D01*X007614Y040998D01*X007636Y040998D01*X007636Y041106D01*
X007657Y041106D01*X007657Y041235D01*X007679Y041235D01*X007679Y041343D01*
X007700Y041343D01*X007700Y041451D01*X007722Y041451D01*X007722Y041560D01*
X007744Y041560D01*X007744Y041603D01*X007225Y041603D01*X007225Y041603D01*
X007225Y041516D01*X007204Y041516D01*X007204Y041408D01*X007182Y041408D01*
X007182Y041300D01*X007160Y041300D01*X007160Y041171D01*X007139Y041171D01*
X007139Y041063D01*X007117Y041063D01*X007117Y040955D01*X007096Y040955D01*
X007096Y040847D01*X007074Y040847D01*X007074Y040739D01*X007052Y040739D01*
X007052Y040609D01*X007031Y040609D01*X007031Y040501D01*X007009Y040501D01*
X007009Y040393D01*X006988Y040393D01*X006988Y040285D01*X006966Y040285D01*
X006966Y040177D01*X006944Y040177D01*X006944Y040047D01*X006923Y040047D01*
X006923Y039961D01*G37*G36*X002775Y040514D02*X002797Y040514D01*X002797Y040450D01*
X002818Y040450D01*X002818Y040406D01*X002840Y040406D01*X002840Y040363D01*
X002861Y040363D01*X002861Y040320D01*X002883Y040320D01*X002883Y040298D01*
X002905Y040298D01*X002905Y040255D01*X002926Y040255D01*X002926Y040233D01*
X002948Y040233D01*X002948Y040212D01*X002969Y040212D01*X002969Y040190D01*
X002991Y040190D01*X002991Y040169D01*X003013Y040169D01*X003013Y040147D01*
X003034Y040147D01*X003034Y040126D01*X003077Y040126D01*X003077Y040104D01*
X003099Y040104D01*X003099Y040082D01*X003120Y040082D01*X003120Y040061D01*
X003164Y040061D01*X003164Y040039D01*X003186Y040039D01*X003186Y040017D01*
X003229Y040017D01*X003229Y039996D01*X003250Y039996D01*X003250Y039974D01*
X003293Y039974D01*X003293Y039953D01*X003315Y039953D01*X003315Y039931D01*
X003358Y039931D01*X003358Y039909D01*X003401Y039909D01*X003401Y039888D01*
X003445Y039888D01*X003445Y039866D01*X003488Y039866D01*X003488Y039845D01*
X003531Y039845D01*X003531Y039823D01*X003574Y039823D01*X003574Y039801D01*
X003617Y039801D01*X003617Y039780D01*X003661Y039780D01*X003661Y039758D01*
X003704Y039758D01*X003704Y039737D01*X003768Y039737D01*X003768Y039715D01*
X003790Y039715D01*X003790Y039693D01*X003855Y039693D01*X003855Y039672D01*
X003899Y039672D01*X003899Y039650D01*X003942Y039650D01*X003942Y039629D01*
X003985Y039629D01*X003985Y039607D01*X004028Y039607D01*X004028Y039650D01*
X004007Y039650D01*X004007Y039889D01*X004028Y039889D01*X004028Y039974D01*
X004049Y039974D01*X004049Y040040D01*X004071Y040040D01*X004071Y040104D01*
X004093Y040104D01*X004093Y040147D01*X004115Y040147D01*X004115Y040212D01*
X004137Y040212D01*X004137Y040255D01*X004158Y040255D01*X004158Y040276D01*
X004180Y040276D01*X004180Y040320D01*X004201Y040320D01*X004201Y040363D01*
X004223Y040363D01*X004223Y040406D01*X004244Y040406D01*X004244Y040450D01*
X004266Y040450D01*X004266Y040471D01*X004287Y040471D01*X004287Y040514D01*
X004308Y040514D01*X004308Y040536D01*X004331Y040536D01*X004331Y040579D01*
X004352Y040579D01*X004352Y040601D01*X004373Y040601D01*X004373Y040644D01*
X004396Y040644D01*X004396Y040666D01*X004417Y040666D01*X004417Y040709D01*
X004438Y040709D01*X004438Y040752D01*X004460Y040752D01*X004460Y040774D01*
X004482Y040774D01*X004482Y040817D01*X004503Y040817D01*X004503Y040838D01*
X004525Y040838D01*X004525Y040881D01*X004547Y040881D01*X004547Y040903D01*
X004568Y040903D01*X004568Y040946D01*X004589Y040946D01*X004589Y040990D01*
X004611Y040990D01*X004611Y041011D01*X004633Y041011D01*X004633Y041055D01*
X004654Y041055D01*X004654Y041098D01*X004677Y041098D01*X004677Y041141D01*
X004698Y041141D01*X004698Y041163D01*X004093Y041163D01*X004093Y041141D01*
X004071Y041141D01*X004071Y041162D01*X004050Y041162D01*X004050Y041141D01*
X003877Y041141D01*X003877Y041120D01*X003727Y041120D01*X003727Y041098D01*
X003640Y041098D01*X003640Y041077D01*X003552Y041077D01*X003552Y041055D01*
X003488Y041055D01*X003488Y041032D01*X003445Y041032D01*X003445Y041012D01*
X003379Y041012D01*X003379Y040989D01*X003337Y040989D01*X003337Y040968D01*
X003293Y040968D01*X003293Y040946D01*X003271Y040946D01*X003271Y040925D01*
X003229Y040925D01*X003229Y040903D01*X003206Y040903D01*X003206Y040882D01*
X003186Y040882D01*X003186Y040861D01*X003164Y040861D01*X003164Y040839D01*
X003143Y040839D01*X003143Y040817D01*X003121Y040817D01*X003121Y040860D01*
X003143Y040860D01*X003143Y040881D01*X003165Y040881D01*X003165Y040925D01*
X003185Y040925D01*X003185Y040946D01*X003207Y040946D01*X003207Y040968D01*
X003228Y040968D01*X003228Y040990D01*X003251Y040990D01*X003251Y041011D01*
X003272Y041011D01*X003272Y041033D01*X003294Y041033D01*X003294Y041054D01*
X003337Y041054D01*X003337Y041076D01*X003358Y041076D01*X003358Y041098D01*
X003379Y041098D01*X003379Y041119D01*X003423Y041119D01*X003423Y041140D01*
X003445Y041140D01*X003445Y041162D01*X003488Y041162D01*X003488Y041184D01*
X003531Y041184D01*X003531Y041206D01*X003574Y041206D01*X003574Y041227D01*
X003640Y041227D01*X003640Y041249D01*X003683Y041249D01*X003683Y041270D01*
X003747Y041270D01*X003747Y041293D01*X003813Y041293D01*X003813Y041314D01*
X003878Y041314D01*X003878Y041335D01*X003964Y041335D01*X003964Y041356D01*
X004050Y041356D01*X004050Y041378D01*X004157Y041378D01*X004157Y041400D01*
X004287Y041400D01*X004287Y041421D01*X004481Y041421D01*X004481Y041443D01*
X005044Y041443D01*X005044Y041465D01*X005216Y041465D01*X005216Y041486D01*
X005303Y041486D01*X005303Y041508D01*X005367Y041508D01*X005367Y041530D01*
X005433Y041530D01*X005433Y041551D01*X005562Y041551D01*X005562Y041529D01*
X005583Y041529D01*X005583Y041508D01*X005605Y041508D01*X005605Y041443D01*
X005583Y041443D01*X005583Y041378D01*X005562Y041378D01*X005562Y041335D01*
X005540Y041335D01*X005540Y041292D01*X005518Y041292D01*X005518Y041270D01*
X005497Y041270D01*X005497Y041227D01*X005475Y041227D01*X005475Y041206D01*
X005454Y041206D01*X005454Y041163D01*X005432Y041163D01*X005432Y041141D01*
X005410Y041141D01*X005410Y041098D01*X005389Y041098D01*X005389Y041076D01*
X005367Y041076D01*X005367Y041033D01*X005346Y041033D01*X005346Y041011D01*
X005324Y041011D01*X005324Y040990D01*X005303Y040990D01*X005303Y040968D01*
X005281Y040968D01*X005281Y040925D01*X005259Y040925D01*X005259Y040904D01*
X005238Y040904D01*X005238Y040882D01*X005216Y040882D01*X005216Y040839D01*
X005195Y040839D01*X005195Y040817D01*X005173Y040817D01*X005173Y040796D01*
X005151Y040796D01*X005151Y040752D01*X005130Y040752D01*X005130Y040730D01*
X005108Y040730D01*X005108Y040709D01*X005086Y040709D01*X005086Y040687D01*
X005065Y040687D01*X005065Y040644D01*X005043Y040644D01*X005043Y040622D01*
X005022Y040622D01*X005022Y040601D01*X005000Y040601D01*X005000Y040580D01*
X004979Y040580D01*X004979Y040536D01*X004957Y040536D01*X004957Y040514D01*
X004935Y040514D01*X004935Y040493D01*X004914Y040493D01*X004914Y040450D01*
X004892Y040450D01*X004892Y040428D01*X004870Y040428D01*X004870Y040407D01*
X004848Y040407D01*X004848Y040363D01*X004827Y040363D01*X004827Y040341D01*
X004806Y040341D01*X004806Y040320D01*X004784Y040320D01*X004784Y040277D01*
X004762Y040277D01*X004762Y040255D01*X004741Y040255D01*X004741Y040212D01*
X004719Y040212D01*X004719Y040190D01*X004698Y040190D01*X004698Y040147D01*
X004676Y040147D01*X004676Y040125D01*X004654Y040125D01*X004654Y040082D01*
X004633Y040082D01*X004633Y040039D01*X004611Y040039D01*X004611Y039996D01*
X004590Y039996D01*X004590Y039953D01*X004568Y039953D01*X004568Y039910D01*
X004547Y039910D01*X004547Y039867D01*X004525Y039867D01*X004525Y039802D01*
X004503Y039802D01*X004503Y039650D01*X004525Y039650D01*X004525Y039607D01*
X004547Y039607D01*X004547Y039585D01*X004741Y039585D01*X004741Y039608D01*
X004806Y039608D01*X004806Y039629D01*X004849Y039629D01*X004849Y039650D01*
X004870Y039650D01*X004870Y039673D01*X004892Y039673D01*X004892Y039694D01*
X004914Y039694D01*X004914Y039715D01*X004936Y039715D01*X004936Y039737D01*
X004957Y039737D01*X004957Y039758D01*X004979Y039758D01*X004979Y039801D01*
X005000Y039801D01*X005000Y039823D01*X005022Y039823D01*X005022Y039845D01*
X005064Y039845D01*X005064Y039866D01*X005108Y039866D01*X005108Y039888D01*
X005195Y039888D01*X005195Y039866D01*X005238Y039866D01*X005238Y039823D01*
X005259Y039823D01*X005259Y039651D01*X005238Y039651D01*X005238Y039607D01*
X005216Y039607D01*X005216Y039585D01*X005195Y039585D01*X005195Y039564D01*
X005173Y039564D01*X005173Y039543D01*X005151Y039543D01*X005151Y039520D01*
X005130Y039520D01*X005130Y039499D01*X005107Y039499D01*X005107Y039477D01*
X005065Y039477D01*X005065Y039455D01*X005043Y039455D01*X005043Y039434D01*
X005000Y039434D01*X005000Y039412D01*X004957Y039412D01*X004957Y039391D01*
X004892Y039391D01*X004892Y039369D01*X004828Y039369D01*X004828Y039348D01*
X004741Y039348D01*X004741Y039327D01*X004827Y039327D01*X004827Y039304D01*
X004978Y039304D01*X004978Y039283D01*X005173Y039283D01*X005173Y039304D01*
X005324Y039304D01*X005324Y039326D01*X005388Y039326D01*X005388Y039348D01*
X005454Y039348D01*X005454Y039370D01*X005497Y039370D01*X005497Y039391D01*
X005540Y039391D01*X005540Y039413D01*X005562Y039413D01*X005562Y039435D01*
X005605Y039435D01*X005605Y039455D01*X005626Y039455D01*X005626Y039478D01*
X005670Y039478D01*X005670Y039498D01*X005691Y039498D01*X005691Y039520D01*
X005713Y039520D01*X005713Y039542D01*X005735Y039542D01*X005735Y039564D01*
X005756Y039564D01*X005756Y039586D01*X005778Y039586D01*X005778Y039607D01*
X005800Y039607D01*X005800Y039628D01*X005821Y039628D01*X005821Y039672D01*
X005843Y039672D01*X005843Y039694D01*X005864Y039694D01*X005864Y039715D01*
X005886Y039715D01*X005886Y039758D01*X005908Y039758D01*X005908Y039801D01*
X005929Y039801D01*X005929Y039845D01*X005951Y039845D01*X005951Y039866D01*
X005972Y039866D01*X005972Y039931D01*X005994Y039931D01*X005994Y039974D01*
X006015Y039974D01*X006015Y040017D01*X006037Y040017D01*X006037Y040061D01*
X006058Y040061D01*X006058Y040126D01*X006080Y040126D01*X006080Y040169D01*
X006102Y040169D01*X006102Y040233D01*X006124Y040233D01*X006124Y040297D01*
X006146Y040297D01*X006146Y040341D01*X006167Y040341D01*X006167Y040407D01*
X006189Y040407D01*X006189Y040471D01*X006210Y040471D01*X006210Y040514D01*
X006231Y040514D01*X006231Y040579D01*X006253Y040579D01*X006253Y040644D01*
X006275Y040644D01*X006275Y040730D01*X006296Y040730D01*X006296Y040796D01*
X006317Y040796D01*X006317Y040882D01*X006340Y040882D01*X006340Y040989D01*
X006361Y040989D01*X006361Y041119D01*X006382Y041119D01*X006382Y041595D01*
X006360Y041595D01*X006360Y041681D01*X006339Y041681D01*X006339Y041767D01*
X006318Y041767D01*X006318Y041810D01*X006296Y041810D01*X006296Y041875D01*
X006275Y041875D01*X006275Y041897D01*X006253Y041897D01*X006253Y041940D01*
X006232Y041940D01*X006232Y041962D01*X006210Y041962D01*X006210Y041984D01*
X006189Y041984D01*X006189Y042027D01*X006167Y042027D01*X006167Y042049D01*
X006144Y042049D01*X006144Y042070D01*X006101Y042070D01*X006101Y042091D01*
X006079Y042091D01*X006079Y042113D01*X006059Y042113D01*X006059Y042134D01*
X006017Y042134D01*X006017Y042156D01*X005973Y042156D01*X005973Y042177D01*
X005908Y042177D01*X005908Y042200D01*X005864Y042200D01*X005864Y042092D01*
X005842Y042092D01*X005842Y042048D01*X005821Y042048D01*X005821Y042005D01*
X005799Y042005D01*X005799Y041961D01*X005778Y041961D01*X005778Y041941D01*
X005756Y041941D01*X005756Y041919D01*X005735Y041919D01*X005735Y041897D01*
X005713Y041897D01*X005713Y041875D01*X005692Y041875D01*X005692Y041854D01*
X005648Y041854D01*X005648Y041832D01*X005605Y041832D01*X005605Y041811D01*
X005519Y041811D01*X005519Y041788D01*X005367Y041788D01*X005367Y041811D01*
X005302Y041811D01*X005302Y041832D01*X005259Y041832D01*X005259Y041854D01*
X005238Y041854D01*X005238Y041876D01*X005216Y041876D01*X005216Y041897D01*
X005195Y041897D01*X005195Y041919D01*X005173Y041919D01*X005173Y041962D01*
X005152Y041962D01*X005152Y042135D01*X005173Y042135D01*X005173Y042178D01*
X005195Y042178D01*X005195Y042221D01*X005065Y042221D01*X005065Y042199D01*
X004957Y042199D01*X004957Y042178D01*X004870Y042178D01*X004870Y042156D01*
X004784Y042156D01*X004784Y042135D01*X004719Y042135D01*X004719Y042113D01*
X004633Y042113D01*X004633Y042091D01*X004568Y042091D01*X004568Y042070D01*
X004503Y042070D01*X004503Y042048D01*X004460Y042048D01*X004460Y042026D01*
X004395Y042026D01*X004395Y042005D01*X004352Y042005D01*X004352Y041983D01*
X004287Y041983D01*X004287Y041962D01*X004244Y041962D01*X004244Y041940D01*
X004201Y041940D01*X004201Y041919D01*X004158Y041919D01*X004158Y041897D01*
X004114Y041897D01*X004114Y041875D01*X004050Y041875D01*X004050Y041854D01*
X004006Y041854D01*X004006Y041832D01*X003963Y041832D01*X003963Y041811D01*
X003942Y041811D01*X003942Y041789D01*X003898Y041789D01*X003898Y041767D01*
X003855Y041767D01*X003855Y041746D01*X003812Y041746D01*X003812Y041724D01*
X003769Y041724D01*X003769Y041703D01*X003726Y041703D01*X003726Y041681D01*
X003704Y041681D01*X003704Y041659D01*X003661Y041659D01*X003661Y041638D01*
X003617Y041638D01*X003617Y041616D01*X003574Y041616D01*X003574Y041595D01*
X003553Y041595D01*X003553Y041573D01*X003509Y041573D01*X003509Y041552D01*
X003466Y041552D01*X003466Y041530D01*X003445Y041530D01*X003445Y041508D01*
X003402Y041508D01*X003402Y041486D01*X003380Y041486D01*X003380Y041465D01*
X003337Y041465D01*X003337Y041443D01*X003293Y041443D01*X003293Y041422D01*
X003272Y041422D01*X003272Y041400D01*X003229Y041400D01*X003229Y041379D01*
X003207Y041379D01*X003207Y041357D01*X003185Y041357D01*X003185Y041336D01*
X003142Y041336D01*X003142Y041314D01*X003120Y041314D01*X003120Y041292D01*
X003099Y041292D01*X003099Y041271D01*X003077Y041271D01*X003077Y041249D01*
X003056Y041249D01*X003056Y041227D01*X003034Y041227D01*X003034Y041206D01*
X003013Y041206D01*X003013Y041184D01*X002991Y041184D01*X002991Y041162D01*
X002969Y041162D01*X002969Y041141D01*X002948Y041141D01*X002948Y041098D01*
X002926Y041098D01*X002926Y041076D01*X002905Y041076D01*X002905Y041033D01*
X002883Y041033D01*X002883Y041011D01*X002861Y041011D01*X002861Y040968D01*
X002840Y040968D01*X002840Y040925D01*X002818Y040925D01*X002818Y040860D01*
X002797Y040860D01*X002797Y040774D01*X002775Y040774D01*X002775Y040514D01*G37*G36*
X015607Y040371D02*X015607Y040458D01*X015629Y040458D01*X015629Y040566D01*
X015650Y040566D01*X015650Y040674D01*X015672Y040674D01*X015672Y040782D01*
X015693Y040782D01*X015693Y040868D01*X015715Y040868D01*X015715Y040911D01*
X015737Y040911D01*X015737Y040933D01*X015758Y040933D01*X015758Y040955D01*
X015801Y040955D01*X015801Y040976D01*X015888Y040976D01*X015888Y040998D01*
X017292Y040998D01*X017292Y040976D01*X017335Y040976D01*X017335Y040955D01*
X017378Y040955D01*X017378Y040911D01*X017400Y040911D01*X017400Y040760D01*
X017378Y040760D01*X017378Y040609D01*X017357Y040609D01*X017357Y040587D01*
X016925Y040587D01*X016925Y040652D01*X016946Y040652D01*X016946Y040782D01*
X016925Y040782D01*X016925Y040803D01*X016212Y040803D01*X016212Y040782D01*
X016169Y040782D01*X016169Y040760D01*X016147Y040760D01*X016147Y040739D01*
X016125Y040739D01*X016125Y040717D01*X016104Y040717D01*X016104Y040652D01*
X016082Y040652D01*X016082Y040587D01*X017357Y040587D01*X017357Y040544D01*
X017357Y040501D01*X017335Y040501D01*X017335Y040458D01*X017314Y040458D01*
X017314Y040436D01*X017292Y040436D01*X017292Y040415D01*X017249Y040415D01*
X017249Y040393D01*X017162Y040393D01*X017162Y040371D01*X015607Y040371D01*G37*G36*
X015564Y040134D02*X015564Y040220D01*X015585Y040220D01*X015585Y040350D01*
X015607Y040350D01*X015607Y040371D01*X016039Y040371D01*X016039Y040307D01*
X016039Y040263D01*X016017Y040263D01*X016017Y040220D01*X016039Y040220D01*
X016039Y040199D01*X016082Y040199D01*X016082Y040177D01*X016147Y040177D01*
X016147Y040155D01*X017962Y040155D01*X017962Y040134D01*X017918Y040134D01*
X017918Y040112D01*X017897Y040112D01*X017897Y040091D01*X017854Y040091D01*
X017854Y040069D01*X017832Y040069D01*X017832Y040047D01*X017789Y040047D01*
X017789Y040026D01*X017767Y040026D01*X017767Y040004D01*X017724Y040004D01*
X017724Y039983D01*X017702Y039983D01*X017702Y039961D01*X015931Y039961D01*
X015931Y039983D01*X015780Y039983D01*X015780Y040004D01*X015715Y040004D01*
X015715Y040026D01*X015650Y040026D01*X015650Y040047D01*X015629Y040047D01*
X015629Y040069D01*X015607Y040069D01*X015607Y040091D01*X015585Y040091D01*
X015585Y040134D01*X015564Y040134D01*G37*X000000Y000000D02*M02*
