%MOMM*%
%FSLAX33Y33*%
%ADD10C,0.203200*%
%ADD14C,0.070000*%
%ADD17C,1.300000*%
%ADD71R,1.300000X1.300000*%
%ADD25C,1.400000*%
%ADD73R,1.400000X1.400000*%
%ADD133C,0.200000*%
%ADD134C,0.500000*%
%ADD135C,0.750000*%
%ADD136C,0.250000*%
%ADD137C,1.000000*%
%ADD138C,0.325000*%
%ADD139C,0.530000*%
%ADD140C,1.200000*%
%ADD141R,1.200000X1.200000*%
%ADD142C,1.050000*%
%ADD143C,2.100000*%
%ADD144C,0.100000*%
%ADD145R,0.800000X0.900000*%
%ADD146R,2.800000X2.000000*%
%ADD147C,0.635000*%
%ADD148R,0.900000X0.800000*%
%ADD149R,2.000000X1.300000*%
%ADD150R,0.900000X0.250000*%
%ADD151R,0.789000X0.254000*%
%ADD152R,0.254000X0.789000*%
%ADD153R,0.250000X0.900000*%
%ADD154R,6.600000X6.600000*%
%ADD155R,0.900000X0.325000*%
%ADD156R,1.650000X2.400000*%
%ADD157R,1.300000X1.050000*%
%ADD158R,1.900000X1.100000*%
%ADD159R,1.100000X1.250000*%
%ADD160R,1.300000X2.000000*%
%ADD190C,1.000000*%
%ADD191C,0.530000*%
G90*G71*G01*D02*G54D10*X000000Y000000D02*X057000Y000000D01*X057000Y035000D01*
X000000Y035000D01*X000000Y000000D01*D02*G54D14*X019750Y042500D02*
X002250Y042500D01*X002250Y039000D01*X019750Y039000D01*X019750Y040750D02*
X054750Y040750D01*X033750Y042500D02*X033750Y039000D01*X019750Y042500D02*
X054750Y042500D01*X054750Y039000D02*X019750Y039000D01*X019750Y042500D02*
X019750Y039000D01*X054750Y042500D02*X054750Y039000D01*X044250Y042500D02*
X044250Y039000D01*X046154Y040098D02*X046154Y040066D01*X046186Y040066D01*
X046186Y040098D01*X046154Y040098D01*X046154Y040130D02*X046186Y040130D01*
X046218Y040098D01*X046218Y040066D01*X046186Y040034D01*X046154Y040034D01*
X046123Y040066D01*X046123Y040098D01*X046154Y040161D01*X046186Y040193D01*
X046282Y040214D01*X046414Y040214D01*X046509Y040193D01*X046541Y040161D01*
X046578Y040098D01*X046578Y040034D01*X046541Y039981D01*X046446Y039917D01*
X046282Y039854D01*X046218Y039822D01*X046154Y039758D01*X046123Y039673D01*
X046123Y039578D01*X046509Y040161D02*X046541Y040098D01*X046541Y040034D01*
X046509Y039981D01*X046414Y040214D02*X046477Y040193D01*X046509Y040098D01*
X046509Y040034D01*X046477Y039981D01*X046414Y039917D01*X046282Y039854D01*
X046123Y039642D02*X046154Y039673D01*X046218Y039673D01*X046377Y039642D01*
X046509Y039642D01*X046578Y039673D01*X046218Y039673D02*X046377Y039610D01*
X046509Y039610D01*X046541Y039642D01*X046218Y039673D02*X046377Y039578D01*
X046509Y039578D01*X046541Y039610D01*X046578Y039673D01*X046578Y039727D01*
X047014Y040214D02*X046918Y040193D01*X046854Y040098D01*X046823Y039949D01*
X046823Y039854D01*X046854Y039705D01*X046918Y039610D01*X047014Y039578D01*
X047082Y039578D01*X047177Y039610D01*X047241Y039705D01*X047278Y039854D01*
X047278Y039949D01*X047241Y040098D01*X047177Y040193D01*X047082Y040214D01*
X047014Y040214D01*X046918Y040161D02*X046886Y040098D01*X046854Y039981D01*
X046854Y039822D01*X046886Y039705D01*X046918Y039642D01*X047177Y039642D02*
X047209Y039705D01*X047241Y039822D01*X047241Y039981D01*X047209Y040098D01*
X047177Y040161D01*X047014Y040214D02*X046950Y040193D01*X046918Y040130D01*
X046886Y039981D01*X046886Y039822D01*X046918Y039673D01*X046950Y039610D01*
X047014Y039578D01*X047082Y039578D02*X047146Y039610D01*X047177Y039673D01*
X047209Y039822D01*X047209Y039981D01*X047177Y040130D01*X047146Y040193D01*
X047082Y040214D01*X047727Y040161D02*X047727Y039578D01*X047745Y040161D02*
X047745Y039610D01*X047759Y040214D02*X047759Y039578D01*X047759Y040214D02*
X047714Y040130D01*X047686Y040098D01*X047673Y039578D02*X047818Y039578D01*
X047727Y039610D02*X047700Y039578D01*X047727Y039642D02*X047714Y039578D01*
X047759Y039642D02*X047773Y039578D01*X047759Y039610D02*X047786Y039578D01*
X048577Y040130D02*X048577Y040098D01*X048609Y040098D01*X048609Y040130D01*
X048577Y040130D01*X048609Y040161D02*X048577Y040161D01*X048546Y040130D01*
X048546Y040098D01*X048577Y040066D01*X048609Y040066D01*X048641Y040098D01*
X048641Y040130D01*X048609Y040193D01*X048546Y040214D01*X048450Y040214D01*
X048350Y040193D01*X048286Y040130D01*X048254Y040066D01*X048223Y039949D01*
X048223Y039758D01*X048254Y039673D01*X048318Y039610D01*X048414Y039578D01*
X048482Y039578D01*X048577Y039610D01*X048641Y039673D01*X048678Y039758D01*
X048678Y039790D01*X048641Y039886D01*X048577Y039949D01*X048482Y039981D01*
X048414Y039981D01*X048350Y039949D01*X048318Y039917D01*X048286Y039854D01*
X048318Y040130D02*X048286Y040066D01*X048254Y039949D01*X048254Y039758D01*
X048286Y039673D01*X048318Y039642D01*X048609Y039673D02*X048641Y039727D01*
X048641Y039822D01*X048609Y039886D01*X048450Y040214D02*X048382Y040193D01*
X048350Y040161D01*X048318Y040098D01*X048286Y039981D01*X048286Y039758D01*
X048318Y039673D01*X048350Y039610D01*X048414Y039578D01*X048482Y039578D02*
X048546Y039610D01*X048577Y039642D01*X048609Y039727D01*X048609Y039822D01*
X048577Y039917D01*X048546Y039949D01*X048482Y039981D01*X049141Y039673D02*
X049127Y039642D01*X049127Y039610D01*X049141Y039578D01*X049155Y039578D01*
X049168Y039610D01*X049168Y039642D01*X049155Y039673D01*X049141Y039673D01*
X049141Y039642D02*X049141Y039610D01*X049155Y039610D01*X049155Y039642D01*
X049141Y039642D01*X049827Y040161D02*X049827Y039578D01*X049845Y040161D02*
X049845Y039610D01*X049859Y040214D02*X049859Y039578D01*X049859Y040214D02*
X049814Y040130D01*X049786Y040098D01*X049773Y039578D02*X049918Y039578D01*
X049827Y039610D02*X049800Y039578D01*X049827Y039642D02*X049814Y039578D01*
X049859Y039642D02*X049873Y039578D01*X049859Y039610D02*X049886Y039578D01*
X050514Y040214D02*X050418Y040193D01*X050354Y040098D01*X050322Y039949D01*
X050322Y039854D01*X050354Y039705D01*X050418Y039610D01*X050514Y039578D01*
X050582Y039578D01*X050677Y039610D01*X050741Y039705D01*X050777Y039854D01*
X050777Y039949D01*X050741Y040098D01*X050677Y040193D01*X050582Y040214D01*
X050514Y040214D01*X050418Y040161D02*X050386Y040098D01*X050354Y039981D01*
X050354Y039822D01*X050386Y039705D01*X050418Y039642D01*X050677Y039642D02*
X050709Y039705D01*X050741Y039822D01*X050741Y039981D01*X050709Y040098D01*
X050677Y040161D01*X050514Y040214D02*X050450Y040193D01*X050418Y040130D01*
X050386Y039981D01*X050386Y039822D01*X050418Y039673D01*X050450Y039610D01*
X050514Y039578D01*X050582Y039578D02*X050646Y039610D01*X050677Y039673D01*
X050709Y039822D01*X050709Y039981D01*X050677Y040130D01*X050646Y040193D01*
X050582Y040214D01*X051241Y039673D02*X051227Y039642D01*X051227Y039610D01*
X051241Y039578D01*X051255Y039578D01*X051268Y039610D01*X051268Y039642D01*
X051255Y039673D01*X051241Y039673D01*X051241Y039642D02*X051241Y039610D01*
X051255Y039610D01*X051255Y039642D01*X051241Y039642D01*X051914Y040214D02*
X051818Y040193D01*X051754Y040098D01*X051722Y039949D01*X051722Y039854D01*
X051754Y039705D01*X051818Y039610D01*X051914Y039578D01*X051982Y039578D01*
X052077Y039610D01*X052141Y039705D01*X052177Y039854D01*X052177Y039949D01*
X052141Y040098D01*X052077Y040193D01*X051982Y040214D01*X051914Y040214D01*
X051818Y040161D02*X051786Y040098D01*X051754Y039981D01*X051754Y039822D01*
X051786Y039705D01*X051818Y039642D01*X052077Y039642D02*X052109Y039705D01*
X052141Y039822D01*X052141Y039981D01*X052109Y040098D01*X052077Y040161D01*
X051914Y040214D02*X051850Y040193D01*X051818Y040130D01*X051786Y039981D01*
X051786Y039822D01*X051818Y039673D01*X051850Y039610D01*X051914Y039578D01*
X051982Y039578D02*X052046Y039610D01*X052077Y039673D01*X052109Y039822D01*
X052109Y039981D01*X052077Y040130D01*X052046Y040193D01*X051982Y040214D01*
X052677Y040130D02*X052677Y039578D01*X052705Y040161D02*X052705Y039610D01*
X052732Y040214D02*X052732Y039578D01*X052732Y040214D02*X052422Y039758D01*
X052877Y039758D01*X052591Y039578D02*X052818Y039578D01*X052677Y039610D02*
X052618Y039578D01*X052677Y039642D02*X052645Y039578D01*X052732Y039642D02*
X052759Y039578D01*X052732Y039610D02*X052791Y039578D01*X048300Y041964D02*
X048300Y041328D01*X048327Y041943D02*X048327Y041360D01*X048354Y041964D02*
X048354Y041328D01*X048223Y041964D02*X048486Y041964D01*X048568Y041943D01*
X048623Y041880D01*X048650Y041816D01*X048678Y041731D01*X048678Y041572D01*
X048650Y041477D01*X048623Y041423D01*X048568Y041360D01*X048486Y041328D01*
X048223Y041328D01*X048596Y041880D02*X048623Y041816D01*X048650Y041731D01*
X048650Y041572D01*X048623Y041477D01*X048596Y041423D01*X048486Y041964D02*
X048541Y041943D01*X048596Y041848D01*X048623Y041731D01*X048623Y041572D01*
X048596Y041455D01*X048541Y041360D01*X048486Y041328D01*X048245Y041964D02*
X048300Y041943D01*X048273Y041964D02*X048300Y041911D01*X048382Y041964D02*
X048354Y041911D01*X048409Y041964D02*X048354Y041943D01*X048300Y041360D02*
X048245Y041328D01*X048300Y041392D02*X048273Y041328D01*X048354Y041392D02*
X048382Y041328D01*X048354Y041360D02*X048409Y041328D01*X049150Y041964D02*
X048973Y041360D01*X049123Y041880D02*X049273Y041328D01*X049150Y041880D02*
X049300Y041328D01*X049150Y041964D02*X049323Y041328D01*X049023Y041508D02*
X049250Y041508D01*X048923Y041328D02*X049073Y041328D01*X049200Y041328D02*
X049378Y041328D01*X048973Y041360D02*X048945Y041328D01*X048973Y041360D02*
X049023Y041328D01*X049273Y041360D02*X049223Y041328D01*X049273Y041392D02*
X049250Y041328D01*X049300Y041392D02*X049350Y041328D01*X049623Y041964D02*
X049623Y041784D01*X049818Y041964D02*X049818Y041328D01*X049850Y041943D02*
X049850Y041360D01*X049877Y041964D02*X049877Y041328D01*X050077Y041964D02*
X050077Y041784D01*X049623Y041964D02*X050077Y041964D01*X049736Y041328D02*
X049959Y041328D01*X049650Y041964D02*X049623Y041784D01*X049677Y041964D02*
X049623Y041880D01*X049704Y041964D02*X049623Y041911D01*X049764Y041964D02*
X049623Y041943D01*X049932Y041964D02*X050077Y041943D01*X049991Y041964D02*
X050077Y041911D01*X050018Y041964D02*X050077Y041880D01*X050046Y041964D02*
X050077Y041784D01*X049818Y041360D02*X049764Y041328D01*X049818Y041392D02*
X049791Y041328D01*X049877Y041392D02*X049905Y041328D01*X049877Y041360D02*
X049932Y041328D01*X050404Y041964D02*X050404Y041328D01*X050432Y041943D02*
X050432Y041360D01*X050464Y041964D02*X050464Y041328D01*X050322Y041964D02*
X050777Y041964D01*X050777Y041784D01*X050464Y041667D02*X050632Y041667D01*
X050632Y041784D02*X050632Y041540D01*X050322Y041328D02*X050777Y041328D01*
X050777Y041508D01*X050350Y041964D02*X050404Y041943D01*X050377Y041964D02*
X050404Y041911D01*X050491Y041964D02*X050464Y041911D01*X050518Y041964D02*
X050464Y041943D01*X050632Y041964D02*X050777Y041943D01*X050691Y041964D02*
X050777Y041911D01*X050718Y041964D02*X050777Y041880D01*X050746Y041964D02*
X050777Y041784D01*X050632Y041784D02*X050605Y041667D01*X050632Y041540D01*
X050632Y041731D02*X050577Y041667D01*X050632Y041604D01*X050632Y041699D02*
X050518Y041667D01*X050632Y041636D01*X050404Y041360D02*X050350Y041328D01*
X050404Y041392D02*X050377Y041328D01*X050464Y041392D02*X050491Y041328D01*
X050464Y041360D02*X050518Y041328D01*X050632Y041328D02*X050777Y041360D01*
X050691Y041328D02*X050777Y041392D01*X050718Y041328D02*X050777Y041423D01*
X050746Y041328D02*X050777Y041508D01*X035714Y041964D02*X035714Y041328D01*
X035741Y041943D02*X035741Y041360D01*X035773Y041964D02*X035773Y041328D01*
X035623Y041964D02*X035864Y041964D01*X035623Y041328D02*X036078Y041328D01*
X036078Y041508D01*X035650Y041964D02*X035714Y041943D01*X035682Y041964D02*
X035714Y041911D01*X035805Y041964D02*X035773Y041911D01*X035832Y041964D02*
X035773Y041943D01*X035714Y041360D02*X035650Y041328D01*X035714Y041392D02*
X035682Y041328D01*X035773Y041392D02*X035805Y041328D01*X035773Y041360D02*
X035832Y041328D01*X035923Y041328D02*X036078Y041360D01*X035982Y041328D02*
X036078Y041392D01*X036014Y041328D02*X036078Y041423D01*X036046Y041328D02*
X036078Y041508D01*X036550Y041964D02*X036373Y041360D01*X036523Y041880D02*
X036673Y041328D01*X036550Y041880D02*X036700Y041328D01*X036550Y041964D02*
X036723Y041328D01*X036423Y041508D02*X036650Y041508D01*X036323Y041328D02*
X036473Y041328D01*X036600Y041328D02*X036778Y041328D01*X036373Y041360D02*
X036345Y041328D01*X036373Y041360D02*X036423Y041328D01*X036673Y041360D02*
X036623Y041328D01*X036673Y041392D02*X036650Y041328D01*X036700Y041392D02*
X036750Y041328D01*X037068Y041964D02*X037223Y041636D01*X037223Y041328D01*
X037091Y041964D02*X037245Y041636D01*X037245Y041360D01*X037109Y041964D02*
X037273Y041636D01*X037273Y041328D01*X037405Y041943D02*X037273Y041636D01*
X037023Y041964D02*X037182Y041964D01*X037336Y041964D02*X037478Y041964D01*
X037159Y041328D02*X037336Y041328D01*X037045Y041964D02*X037091Y041943D01*
X037159Y041964D02*X037109Y041943D01*X037364Y041964D02*X037405Y041943D01*
X037450Y041964D02*X037405Y041943D01*X037223Y041360D02*X037182Y041328D01*
X037223Y041392D02*X037200Y041328D01*X037273Y041392D02*X037291Y041328D01*
X037273Y041360D02*X037314Y041328D01*X037804Y041964D02*X037804Y041328D01*
X037832Y041943D02*X037832Y041360D01*X037864Y041964D02*X037864Y041328D01*
X037723Y041964D02*X038178Y041964D01*X038178Y041784D01*X037864Y041667D02*
X038032Y041667D01*X038032Y041784D02*X038032Y041540D01*X037723Y041328D02*
X038178Y041328D01*X038178Y041508D01*X037750Y041964D02*X037804Y041943D01*
X037777Y041964D02*X037804Y041911D01*X037891Y041964D02*X037864Y041911D01*
X037918Y041964D02*X037864Y041943D01*X038032Y041964D02*X038178Y041943D01*
X038091Y041964D02*X038178Y041911D01*X038118Y041964D02*X038178Y041880D01*
X038146Y041964D02*X038178Y041784D01*X038032Y041784D02*X038005Y041667D01*
X038032Y041540D01*X038032Y041731D02*X037977Y041667D01*X038032Y041604D01*
X038032Y041699D02*X037918Y041667D01*X038032Y041636D01*X037804Y041360D02*
X037750Y041328D01*X037804Y041392D02*X037777Y041328D01*X037864Y041392D02*
X037891Y041328D01*X037864Y041360D02*X037918Y041328D01*X038032Y041328D02*
X038178Y041360D01*X038091Y041328D02*X038178Y041392D01*X038118Y041328D02*
X038178Y041423D01*X038146Y041328D02*X038178Y041508D01*X038495Y041964D02*
X038495Y041328D01*X038523Y041943D02*X038523Y041360D01*X038545Y041964D02*
X038545Y041328D01*X038423Y041964D02*X038723Y041964D01*X038800Y041943D01*
X038823Y041911D01*X038850Y041848D01*X038850Y041784D01*X038823Y041731D01*
X038800Y041699D01*X038723Y041667D01*X038545Y041667D01*X038800Y041911D02*
X038823Y041848D01*X038823Y041784D01*X038800Y041731D01*X038723Y041964D02*
X038773Y041943D01*X038800Y041880D01*X038800Y041752D01*X038773Y041699D01*
X038723Y041667D01*X038645Y041667D02*X038700Y041636D01*X038723Y041572D01*
X038773Y041392D01*X038800Y041328D01*X038850Y041328D01*X038878Y041392D01*
X038878Y041455D01*X038773Y041455D02*X038800Y041392D01*X038823Y041360D01*
X038850Y041360D01*X038700Y041636D02*X038723Y041604D01*X038800Y041423D01*
X038823Y041392D01*X038850Y041392D01*X038878Y041423D01*X038423Y041328D02*
X038623Y041328D01*X038445Y041964D02*X038495Y041943D01*X038473Y041964D02*
X038495Y041911D01*X038573Y041964D02*X038545Y041911D01*X038595Y041964D02*
X038545Y041943D01*X038495Y041360D02*X038445Y041328D01*X038495Y041392D02*
X038473Y041328D01*X038545Y041392D02*X038573Y041328D01*X038545Y041360D02*
X038595Y041328D01*X039886Y041964D02*X039886Y041360D01*X039886Y041964D02*
X040205Y041328D01*X039913Y041964D02*X040182Y041423D01*X039932Y041964D02*
X040205Y041423D01*X040205Y041943D02*X040205Y041328D01*X039822Y041964D02*
X039932Y041964D01*X040141Y041964D02*X040277Y041964D01*X039822Y041328D02*
X039954Y041328D01*X039841Y041964D02*X039886Y041943D01*X040164Y041964D02*
X040205Y041943D01*X040255Y041964D02*X040205Y041943D01*X039886Y041360D02*
X039841Y041328D01*X039886Y041360D02*X039932Y041328D01*X040750Y041964D02*
X040573Y041360D01*X040723Y041880D02*X040873Y041328D01*X040750Y041880D02*
X040900Y041328D01*X040750Y041964D02*X040923Y041328D01*X040623Y041508D02*
X040850Y041508D01*X040522Y041328D02*X040673Y041328D01*X040800Y041328D02*
X040977Y041328D01*X040573Y041360D02*X040545Y041328D01*X040573Y041360D02*
X040623Y041328D01*X040873Y041360D02*X040823Y041328D01*X040873Y041392D02*
X040850Y041328D01*X040900Y041392D02*X040950Y041328D01*X041282Y041964D02*
X041282Y041360D01*X041282Y041964D02*X041427Y041328D01*X041304Y041964D02*
X041427Y041423D01*X041323Y041964D02*X041445Y041423D01*X041573Y041964D02*
X041427Y041328D01*X041573Y041964D02*X041573Y041328D01*X041591Y041943D02*
X041591Y041360D01*X041614Y041964D02*X041614Y041328D01*X041222Y041964D02*
X041323Y041964D01*X041573Y041964D02*X041677Y041964D01*X041222Y041328D02*
X041345Y041328D01*X041509Y041328D02*X041677Y041328D01*X041241Y041964D02*
X041282Y041943D01*X041632Y041964D02*X041614Y041911D01*X041655Y041964D02*
X041614Y041943D01*X041282Y041360D02*X041241Y041328D01*X041282Y041360D02*
X041323Y041328D01*X041573Y041360D02*X041532Y041328D01*X041573Y041392D02*
X041550Y041328D01*X041614Y041392D02*X041632Y041328D01*X041614Y041360D02*
X041655Y041328D01*X042004Y041964D02*X042004Y041328D01*X042032Y041943D02*
X042032Y041360D01*X042064Y041964D02*X042064Y041328D01*X041922Y041964D02*
X042377Y041964D01*X042377Y041784D01*X042064Y041667D02*X042232Y041667D01*
X042232Y041784D02*X042232Y041540D01*X041922Y041328D02*X042377Y041328D01*
X042377Y041508D01*X041950Y041964D02*X042004Y041943D01*X041977Y041964D02*
X042004Y041911D01*X042091Y041964D02*X042064Y041911D01*X042118Y041964D02*
X042064Y041943D01*X042232Y041964D02*X042377Y041943D01*X042291Y041964D02*
X042377Y041911D01*X042318Y041964D02*X042377Y041880D01*X042346Y041964D02*
X042377Y041784D01*X042232Y041784D02*X042205Y041667D01*X042232Y041540D01*
X042232Y041731D02*X042177Y041667D01*X042232Y041604D01*X042232Y041699D02*
X042118Y041667D01*X042232Y041636D01*X042004Y041360D02*X041950Y041328D01*
X042004Y041392D02*X041977Y041328D01*X042064Y041392D02*X042091Y041328D01*
X042064Y041360D02*X042118Y041328D01*X042232Y041328D02*X042377Y041360D01*
X042291Y041328D02*X042377Y041392D01*X042318Y041328D02*X042377Y041423D01*
X042346Y041328D02*X042377Y041508D01*X023432Y041964D02*X023432Y041360D01*
X023432Y041964D02*X023577Y041328D01*X023454Y041964D02*X023577Y041423D01*
X023473Y041964D02*X023596Y041423D01*X023723Y041964D02*X023577Y041328D01*
X023723Y041964D02*X023723Y041328D01*X023741Y041943D02*X023741Y041360D01*
X023764Y041964D02*X023764Y041328D01*X023373Y041964D02*X023473Y041964D01*
X023723Y041964D02*X023828Y041964D01*X023373Y041328D02*X023495Y041328D01*
X023659Y041328D02*X023828Y041328D01*X023391Y041964D02*X023432Y041943D01*
X023782Y041964D02*X023764Y041911D01*X023805Y041964D02*X023764Y041943D01*
X023432Y041360D02*X023391Y041328D01*X023432Y041360D02*X023473Y041328D01*
X023723Y041360D02*X023682Y041328D01*X023723Y041392D02*X023700Y041328D01*
X023764Y041392D02*X023782Y041328D01*X023764Y041360D02*X023805Y041328D01*
X024268Y041964D02*X024186Y041943D01*X024127Y041880D01*X024100Y041816D01*
X024073Y041699D01*X024073Y041604D01*X024100Y041477D01*X024127Y041423D01*
X024186Y041360D01*X024268Y041328D01*X024327Y041328D01*X024414Y041360D01*
X024468Y041423D01*X024496Y041477D01*X024528Y041604D01*X024528Y041699D01*
X024496Y041816D01*X024468Y041880D01*X024414Y041943D01*X024327Y041964D01*
X024268Y041964D01*X024154Y041880D02*X024127Y041816D01*X024100Y041731D01*
X024100Y041572D01*X024127Y041477D01*X024154Y041423D01*X024441Y041423D02*
X024468Y041477D01*X024496Y041572D01*X024496Y041731D01*X024468Y041816D01*
X024441Y041880D01*X024268Y041964D02*X024214Y041943D01*X024154Y041848D01*
X024127Y041731D01*X024127Y041572D01*X024154Y041455D01*X024214Y041360D01*
X024268Y041328D01*X024327Y041328D02*X024382Y041360D01*X024441Y041455D01*
X024468Y041572D01*X024468Y041731D01*X024441Y041848D01*X024382Y041943D01*
X024327Y041964D01*X024850Y041964D02*X024850Y041328D01*X024877Y041943D02*
X024877Y041360D01*X024904Y041964D02*X024904Y041328D01*X024773Y041964D02*
X025036Y041964D01*X025118Y041943D01*X025173Y041880D01*X025200Y041816D01*
X025228Y041731D01*X025228Y041572D01*X025200Y041477D01*X025173Y041423D01*
X025118Y041360D01*X025036Y041328D01*X024773Y041328D01*X025146Y041880D02*
X025173Y041816D01*X025200Y041731D01*X025200Y041572D01*X025173Y041477D01*
X025146Y041423D01*X025036Y041964D02*X025091Y041943D01*X025146Y041848D01*
X025173Y041731D01*X025173Y041572D01*X025146Y041455D01*X025091Y041360D01*
X025036Y041328D01*X024795Y041964D02*X024850Y041943D01*X024823Y041964D02*
X024850Y041911D01*X024932Y041964D02*X024904Y041911D01*X024959Y041964D02*
X024904Y041943D01*X024850Y041360D02*X024795Y041328D01*X024850Y041392D02*
X024823Y041328D01*X024904Y041392D02*X024932Y041328D01*X024904Y041360D02*
X024959Y041328D01*X025554Y041964D02*X025554Y041328D01*X025582Y041943D02*
X025582Y041360D01*X025614Y041964D02*X025614Y041328D01*X025473Y041964D02*
X025928Y041964D01*X025928Y041784D01*X025614Y041667D02*X025782Y041667D01*
X025782Y041784D02*X025782Y041540D01*X025473Y041328D02*X025928Y041328D01*
X025928Y041508D01*X025500Y041964D02*X025554Y041943D01*X025527Y041964D02*
X025554Y041911D01*X025641Y041964D02*X025614Y041911D01*X025668Y041964D02*
X025614Y041943D01*X025782Y041964D02*X025928Y041943D01*X025841Y041964D02*
X025928Y041911D01*X025868Y041964D02*X025928Y041880D01*X025896Y041964D02*
X025928Y041784D01*X025782Y041784D02*X025755Y041667D01*X025782Y041540D01*
X025782Y041731D02*X025727Y041667D01*X025782Y041604D01*X025782Y041699D02*
X025668Y041667D01*X025782Y041636D01*X025554Y041360D02*X025500Y041328D01*
X025554Y041392D02*X025527Y041328D01*X025614Y041392D02*X025641Y041328D01*
X025614Y041360D02*X025668Y041328D01*X025782Y041328D02*X025928Y041360D01*
X025841Y041328D02*X025928Y041392D01*X025868Y041328D02*X025928Y041423D01*
X025896Y041328D02*X025928Y041508D01*X026264Y041964D02*X026264Y041328D01*
X026291Y041943D02*X026291Y041360D01*X026323Y041964D02*X026323Y041328D01*
X026173Y041964D02*X026414Y041964D01*X026173Y041328D02*X026628Y041328D01*
X026628Y041508D01*X026200Y041964D02*X026264Y041943D01*X026232Y041964D02*
X026264Y041911D01*X026355Y041964D02*X026323Y041911D01*X026382Y041964D02*
X026323Y041943D01*X026264Y041360D02*X026200Y041328D01*X026264Y041392D02*
X026232Y041328D01*X026323Y041392D02*X026355Y041328D01*X026323Y041360D02*
X026382Y041328D01*X026473Y041328D02*X026628Y041360D01*X026532Y041328D02*
X026628Y041392D01*X026564Y041328D02*X026628Y041423D01*X026596Y041328D02*
X026628Y041508D01*X027636Y041964D02*X027636Y041360D01*X027636Y041964D02*
X027955Y041328D01*X027663Y041964D02*X027932Y041423D01*X027682Y041964D02*
X027955Y041423D01*X027955Y041943D02*X027955Y041328D01*X027572Y041964D02*
X027682Y041964D01*X027891Y041964D02*X028027Y041964D01*X027572Y041328D02*
X027704Y041328D01*X027591Y041964D02*X027636Y041943D01*X027914Y041964D02*
X027955Y041943D01*X028005Y041964D02*X027955Y041943D01*X027636Y041360D02*
X027591Y041328D01*X027636Y041360D02*X027682Y041328D01*X028500Y041964D02*
X028323Y041360D01*X028473Y041880D02*X028623Y041328D01*X028500Y041880D02*
X028650Y041328D01*X028500Y041964D02*X028673Y041328D01*X028373Y041508D02*
X028600Y041508D01*X028272Y041328D02*X028423Y041328D01*X028550Y041328D02*
X028727Y041328D01*X028323Y041360D02*X028295Y041328D01*X028323Y041360D02*
X028373Y041328D01*X028623Y041360D02*X028573Y041328D01*X028623Y041392D02*
X028600Y041328D01*X028650Y041392D02*X028700Y041328D01*X029032Y041964D02*
X029032Y041360D01*X029032Y041964D02*X029177Y041328D01*X029054Y041964D02*
X029177Y041423D01*X029073Y041964D02*X029195Y041423D01*X029323Y041964D02*
X029177Y041328D01*X029323Y041964D02*X029323Y041328D01*X029341Y041943D02*
X029341Y041360D01*X029364Y041964D02*X029364Y041328D01*X028972Y041964D02*
X029073Y041964D01*X029323Y041964D02*X029427Y041964D01*X028972Y041328D02*
X029095Y041328D01*X029259Y041328D02*X029427Y041328D01*X028991Y041964D02*
X029032Y041943D01*X029382Y041964D02*X029364Y041911D01*X029405Y041964D02*
X029364Y041943D01*X029032Y041360D02*X028991Y041328D01*X029032Y041360D02*
X029073Y041328D01*X029323Y041360D02*X029282Y041328D01*X029323Y041392D02*
X029300Y041328D01*X029364Y041392D02*X029382Y041328D01*X029364Y041360D02*
X029405Y041328D01*X029754Y041964D02*X029754Y041328D01*X029782Y041943D02*
X029782Y041360D01*X029814Y041964D02*X029814Y041328D01*X029672Y041964D02*
X030127Y041964D01*X030127Y041784D01*X029814Y041667D02*X029982Y041667D01*
X029982Y041784D02*X029982Y041540D01*X029672Y041328D02*X030127Y041328D01*
X030127Y041508D01*X029700Y041964D02*X029754Y041943D01*X029727Y041964D02*
X029754Y041911D01*X029841Y041964D02*X029814Y041911D01*X029868Y041964D02*
X029814Y041943D01*X029982Y041964D02*X030127Y041943D01*X030041Y041964D02*
X030127Y041911D01*X030068Y041964D02*X030127Y041880D01*X030096Y041964D02*
X030127Y041784D01*X029982Y041784D02*X029955Y041667D01*X029982Y041540D01*
X029982Y041731D02*X029927Y041667D01*X029982Y041604D01*X029982Y041699D02*
X029868Y041667D01*X029982Y041636D01*X029754Y041360D02*X029700Y041328D01*
X029754Y041392D02*X029727Y041328D01*X029814Y041392D02*X029841Y041328D01*
X029814Y041360D02*X029868Y041328D01*X029982Y041328D02*X030127Y041360D01*
X030041Y041328D02*X030127Y041392D01*X030068Y041328D02*X030127Y041423D01*
X030096Y041328D02*X030127Y041508D01*X026232Y040214D02*X026314Y039578D01*
X026254Y040214D02*X026314Y039727D01*X026314Y039578D01*X026273Y040214D02*
X026336Y039727D01*X026400Y040214D02*X026336Y039727D01*X026314Y039578D01*
X026400Y040214D02*X026482Y039578D01*X026418Y040214D02*X026482Y039727D01*
X026482Y039578D01*X026441Y040214D02*X026500Y039727D01*X026564Y040193D02*
X026500Y039727D01*X026482Y039578D01*X026173Y040214D02*X026336Y040214D01*
X026400Y040214D02*X026441Y040214D01*X026500Y040214D02*X026628Y040214D01*
X026191Y040214D02*X026254Y040193D01*X026213Y040214D02*X026254Y040161D01*
X026295Y040214D02*X026273Y040161D01*X026314Y040214D02*X026273Y040193D01*
X026523Y040214D02*X026564Y040193D01*X026605Y040214D02*X026564Y040193D01*
X026950Y040214D02*X026950Y039578D01*X026977Y040193D02*X026977Y039610D01*
X027004Y040214D02*X027004Y039578D01*X026873Y040214D02*X027191Y040214D01*
X027273Y040193D01*X027296Y040161D01*X027327Y040098D01*X027327Y040034D01*
X027296Y039981D01*X027273Y039949D01*X027191Y039917D01*X027273Y040161D02*
X027296Y040098D01*X027296Y040034D01*X027273Y039981D01*X027191Y040214D02*
X027246Y040193D01*X027273Y040130D01*X027273Y040002D01*X027246Y039949D01*
X027191Y039917D01*X027004Y039917D02*X027191Y039917D01*X027273Y039886D01*
X027296Y039854D01*X027327Y039790D01*X027327Y039705D01*X027296Y039642D01*
X027273Y039610D01*X027191Y039578D01*X026873Y039578D01*X027273Y039854D02*
X027296Y039790D01*X027296Y039705D01*X027273Y039642D01*X027191Y039917D02*
X027246Y039886D01*X027273Y039822D01*X027273Y039673D01*X027246Y039610D01*
X027191Y039578D01*X026895Y040214D02*X026950Y040193D01*X026923Y040214D02*
X026950Y040161D01*X027032Y040214D02*X027004Y040161D01*X027059Y040214D02*
X027004Y040193D01*X026950Y039610D02*X026895Y039578D01*X026950Y039642D02*
X026923Y039578D01*X027004Y039642D02*X027032Y039578D01*X027004Y039610D02*
X027059Y039578D01*X038146Y040130D02*X038178Y040214D01*X038178Y040034D01*
X038146Y040130D01*X038082Y040193D01*X038023Y040214D01*X037932Y040214D01*
X037841Y040193D01*X037782Y040130D01*X037750Y040066D01*X037723Y039981D01*
X037723Y039822D01*X037750Y039727D01*X037782Y039673D01*X037841Y039610D01*
X037932Y039578D01*X038023Y039578D01*X038082Y039610D01*X038146Y039673D01*
X038178Y039727D01*X037809Y040130D02*X037782Y040066D01*X037750Y039981D01*
X037750Y039822D01*X037782Y039727D01*X037809Y039673D01*X037932Y040214D02*
X037873Y040193D01*X037809Y040098D01*X037782Y039981D01*X037782Y039822D01*
X037809Y039705D01*X037873Y039610D01*X037932Y039578D01*X038618Y040214D02*
X038536Y040193D01*X038477Y040130D01*X038450Y040066D01*X038423Y039949D01*
X038423Y039854D01*X038450Y039727D01*X038477Y039673D01*X038536Y039610D01*
X038618Y039578D01*X038677Y039578D01*X038764Y039610D01*X038818Y039673D01*
X038846Y039727D01*X038878Y039854D01*X038878Y039949D01*X038846Y040066D01*
X038818Y040130D01*X038764Y040193D01*X038677Y040214D01*X038618Y040214D01*
X038504Y040130D02*X038477Y040066D01*X038450Y039981D01*X038450Y039822D01*
X038477Y039727D01*X038504Y039673D01*X038791Y039673D02*X038818Y039727D01*
X038846Y039822D01*X038846Y039981D01*X038818Y040066D01*X038791Y040130D01*
X038618Y040214D02*X038564Y040193D01*X038504Y040098D01*X038477Y039981D01*
X038477Y039822D01*X038504Y039705D01*X038564Y039610D01*X038618Y039578D01*
X038677Y039578D02*X038732Y039610D01*X038791Y039705D01*X038818Y039822D01*
X038818Y039981D01*X038791Y040098D01*X038732Y040193D01*X038677Y040214D01*
X039182Y040214D02*X039182Y039610D01*X039182Y040214D02*X039327Y039578D01*
X039204Y040214D02*X039327Y039673D01*X039223Y040214D02*X039345Y039673D01*
X039473Y040214D02*X039327Y039578D01*X039473Y040214D02*X039473Y039578D01*
X039491Y040193D02*X039491Y039610D01*X039514Y040214D02*X039514Y039578D01*
X039123Y040214D02*X039223Y040214D01*X039473Y040214D02*X039577Y040214D01*
X039123Y039578D02*X039245Y039578D01*X039409Y039578D02*X039577Y039578D01*
X039141Y040214D02*X039182Y040193D01*X039532Y040214D02*X039514Y040161D01*
X039555Y040214D02*X039514Y040193D01*X039182Y039610D02*X039141Y039578D01*
X039182Y039610D02*X039223Y039578D01*X039473Y039610D02*X039432Y039578D01*
X039473Y039642D02*X039450Y039578D01*X039514Y039642D02*X039532Y039578D01*
X039514Y039610D02*X039555Y039578D01*X039900Y040214D02*X039900Y039578D01*
X039927Y040193D02*X039927Y039610D01*X039954Y040214D02*X039954Y039578D01*
X039822Y040214D02*X040141Y040214D01*X040223Y040193D01*X040246Y040161D01*
X040277Y040098D01*X040277Y040002D01*X040246Y039949D01*X040223Y039917D01*
X040141Y039886D01*X039954Y039886D01*X040223Y040161D02*X040246Y040098D01*
X040246Y040002D01*X040223Y039949D01*X040141Y040214D02*X040196Y040193D01*
X040223Y040130D01*X040223Y039981D01*X040196Y039917D01*X040141Y039886D01*
X039822Y039578D02*X040036Y039578D01*X039845Y040214D02*X039900Y040193D01*
X039873Y040214D02*X039900Y040161D01*X039982Y040214D02*X039954Y040161D01*
X040009Y040214D02*X039954Y040193D01*X039900Y039610D02*X039845Y039578D01*
X039900Y039642D02*X039873Y039578D01*X039954Y039642D02*X039982Y039578D01*
X039954Y039610D02*X040009Y039578D01*X000000Y000000D02*D02*G54D17*
X032000Y003000D03*X032000Y005000D03*X038380Y010800D03*X040920Y010800D03*
X046000Y010800D03*X043460Y010800D03*X038380Y013340D03*X035840Y013340D03*
X040920Y013340D03*X046000Y013340D03*X043460Y013340D03*X054000Y016000D03*
X038380Y028580D03*X040920Y028580D03*X046000Y028580D03*X043460Y028580D03*
X038380Y031120D03*X035840Y031120D03*X040920Y031120D03*X046000Y031120D03*
X043460Y031120D03*D02*G54D71*X035840Y010800D03*X035840Y028580D03*D02*G54D25*
X015460Y003000D03*X018000Y003000D03*X026000Y016000D03*X026000Y018000D03*
X026000Y020000D03*X026000Y022000D03*D02*G54D73*X020540Y003000D03*D02*G54D133*
X004000Y019750D02*X004000Y019865D01*X004000Y021250D02*X004000Y021135D01*
X011000Y005000D02*X011000Y007200D01*X011000Y003000D02*X011000Y005000D01*
X007000Y005000D02*X007000Y007200D01*X008000Y027000D02*X008000Y024175D01*
X007500Y023675D02*X008000Y024175D01*X020000Y005000D02*X020000Y007200D01*
X020000Y003540D02*X020000Y005000D01*X016000Y005000D02*X016000Y007200D01*
X015250Y016000D02*X015250Y016055D01*X027000Y020000D02*X027000Y021000D01*
X026000Y022000D02*X027000Y021000D01*X022250Y029000D02*X022250Y027750D01*
X024000Y026000D02*X022250Y027750D01*X032500Y025250D02*X032500Y023650D01*
X032500Y014500D02*X032500Y015850D01*X032000Y015000D02*X032000Y015850D01*
X028000Y009000D02*X028000Y016000D01*X032000Y011250D02*X032000Y009000D01*
X034500Y010500D02*X034500Y015850D01*X034000Y011000D02*X034000Y015850D01*
X033500Y010500D02*X033500Y015850D01*X033000Y011000D02*X033000Y015850D01*
X030000Y011250D02*X030000Y009000D01*X035000Y025250D02*X035000Y023650D01*
X042350Y016250D02*X042350Y015575D01*X037500Y023650D02*X037500Y024500D01*
X038000Y025000D02*X037500Y024500D01*X037000Y023650D02*X037000Y024750D01*
X037750Y025500D02*X037000Y024750D01*X038000Y015850D02*X038000Y015000D01*
X036500Y026000D02*X036500Y023650D01*X035500Y025500D02*X035500Y023650D01*
X036000Y025750D02*X036000Y023650D01*X044250Y017500D02*X044250Y018250D01*
X043500Y019000D02*X044250Y018250D01*X044650Y017500D02*X044650Y017425D01*
X046250Y015500D02*X046250Y016250D01*X046000Y016500D02*X046250Y016250D01*
X043500Y018000D02*X043500Y016500D01*X031000Y008000D02*X029000Y008000D01*
X028000Y009000D02*X029000Y008000D01*X044650Y017500D02*X044250Y017500D01*
X046250Y017500D02*X044650Y017500D01*X046000Y016500D02*X043500Y016500D01*
X043500Y016500D02*X042600Y016500D01*X042350Y016250D02*X042600Y016500D01*
X016750Y018000D02*X018000Y018000D01*X016750Y016000D02*X018000Y016000D01*
X030850Y018000D02*X029000Y018000D01*X027000Y020000D02*X029000Y018000D01*
X030850Y017500D02*X028500Y017500D01*X026000Y020000D02*X028500Y017500D01*
X026000Y018000D02*X023750Y018000D01*X030850Y017000D02*X027000Y017000D01*
X026000Y018000D02*X027000Y017000D01*X026000Y016000D02*X023750Y016000D01*
X030850Y016500D02*X026500Y016500D01*X026000Y016000D02*X026500Y016500D01*
X007675Y017325D02*X006418Y017325D01*X007945Y016055D02*X006418Y016055D01*
X022250Y018000D02*X020750Y018000D01*X020750Y016000D02*X022250Y016000D01*
X031250Y012750D02*X032000Y012750D01*X013325Y017325D02*X011583Y017325D01*
X015250Y018000D02*X014000Y018000D01*X013325Y017325D02*X014000Y018000D01*
X015250Y016055D02*X011583Y016055D01*X040250Y019500D02*X038650Y019500D01*
X043500Y019000D02*X040750Y019000D01*X040250Y019500D02*X040750Y019000D01*
X040500Y018500D02*X043000Y018500D01*X043500Y018000D02*X043000Y018500D01*
X038650Y019000D02*X040000Y019000D01*X040500Y018500D02*X040000Y019000D01*
X026500Y025500D02*X032250Y025500D01*X032500Y025250D02*X032250Y025500D01*
X029000Y021000D02*X030850Y021000D01*X026000Y022000D02*X023750Y022000D01*
X026000Y020000D02*X023750Y020000D01*X004345Y018595D02*X006418Y018595D01*
X004000Y019865D02*X006418Y019865D01*X004000Y021135D02*X006418Y021135D01*
X007500Y023675D02*X006418Y023675D01*X004345Y022405D02*X006418Y022405D01*
X004695Y024945D02*X006418Y024945D01*X020750Y022000D02*X022250Y022000D01*
X022250Y020000D02*X020750Y020000D01*X046000Y024750D02*X045250Y024750D01*
X045000Y025000D02*X045250Y024750D01*X041750Y024250D02*X043000Y024250D01*
X038000Y025000D02*X041000Y025000D01*X041750Y024250D02*X041000Y025000D01*
X043000Y024250D02*X044250Y024250D01*X045000Y025000D02*X044250Y024250D01*
X037750Y025500D02*X040500Y025500D01*X041750Y026750D02*X040500Y025500D01*
X040500Y023500D02*X039150Y023500D01*X038650Y023000D02*X039150Y023500D01*
X007750Y027000D02*X008000Y027000D01*X041750Y026750D02*X043000Y026750D01*
X043000Y026750D02*X044250Y026750D01*X045000Y026000D02*X044250Y026750D01*
X046000Y026250D02*X045250Y026250D01*X045000Y026000D02*X045250Y026250D01*
X029270Y027500D02*X035000Y027500D01*X036500Y026000D02*X035000Y027500D01*
X026460Y026500D02*X034500Y026500D01*X035500Y025500D02*X034500Y026500D01*
X024000Y026000D02*X034250Y026000D01*X035000Y025250D02*X034250Y026000D01*
X024730Y029500D02*X022750Y029500D01*X022250Y029000D02*X022750Y029500D01*
X028500Y027000D02*X034750Y027000D01*X036000Y025750D02*X034750Y027000D01*
X009000Y003000D02*X007000Y005000D01*X018000Y003000D02*X016000Y005000D01*
X020540Y003000D02*X020000Y003540D01*X033000Y010000D02*X033500Y010500D01*
X032000Y009000D02*X031000Y008000D01*X034000Y010000D02*X034500Y010500D01*
X032000Y014000D02*X032500Y014500D01*X031000Y013000D02*X031250Y012750D01*
X008000Y017000D02*X007675Y017325D01*X008000Y016000D02*X007945Y016055D01*
X004000Y018250D02*X004345Y018595D01*X004000Y022750D02*X004345Y022405D01*
X004000Y024250D02*X004695Y024945D01*X026000Y025000D02*X026500Y025500D01*
X026000Y024000D02*X029000Y021000D01*X041000Y023000D02*X040500Y023500D01*
X024460Y028500D02*X026460Y026500D01*X025730Y028500D02*X024730Y029500D01*
X027000Y028500D02*X028500Y027000D01*X028270Y028500D02*X029270Y027500D01*D02*
G54D134*X004000Y016750D02*X004000Y015000D01*X010250Y025445D02*X010250Y027000D01*
X019250Y020000D02*X019250Y019250D01*X019000Y019000D02*X019250Y019250D01*
X019250Y028500D02*X019250Y027250D01*X019000Y027000D02*X019250Y027250D01*
X019250Y016000D02*X019250Y015250D01*X019000Y015000D02*X019250Y015250D01*
X019250Y018000D02*X019250Y018750D01*X019000Y019000D02*X019250Y018750D01*
X019250Y022000D02*X019250Y022750D01*X019000Y023000D02*X019250Y022750D01*
X020750Y028500D02*X020750Y027250D01*X021000Y027000D02*X020750Y027250D01*
X044650Y015575D02*X044650Y013740D01*X044250Y013340D02*X044650Y013740D01*
X047500Y024750D02*X047500Y023500D01*X048000Y023000D02*X047500Y023500D01*
X047500Y026250D02*X047500Y024750D01*X043250Y002500D02*X045000Y002500D01*
X044250Y013340D02*X043460Y013340D01*X042350Y017425D02*X041425Y017425D01*
X041000Y017000D02*X041425Y017425D01*X047750Y017500D02*X048500Y017500D01*
X049000Y017000D02*X048500Y017500D01*X047750Y015500D02*X048500Y015500D01*
X049000Y016000D02*X048500Y015500D01*X030000Y012750D02*X029250Y012750D01*
X029000Y013000D02*X029250Y012750D01*X011583Y023675D02*X012675Y023675D01*
X013000Y024000D02*X012675Y023675D01*X051000Y019250D02*X051500Y019250D01*
X052000Y018750D02*X051500Y019250D01*X045000Y023000D02*X046000Y023000D01*
X055000Y019250D02*X054500Y019250D01*X054000Y018750D02*X054500Y019250D01*
X045000Y019000D02*X046000Y019000D01*X011583Y024945D02*X010750Y024945D01*
X010250Y025445D02*X010750Y024945D01*X006250Y027000D02*X005000Y027000D01*
X011750Y027000D02*X013000Y027000D01*X010250Y027000D02*X009000Y027000D01*
X042500Y005000D02*X042000Y004500D01*X034750Y019750D02*X035000Y020000D01*D02*
G54D135*X015460Y003000D02*X016460Y003000D01*X015460Y003000D02*X015460Y004000D01*
X015460Y003000D02*X014460Y003000D01*X015460Y003000D02*X015460Y002000D01*
X035840Y028580D02*X036790Y028580D01*X035840Y028580D02*X035840Y029530D01*
X035840Y028580D02*X034890Y028580D01*X035840Y028580D02*X035840Y027630D01*
X043460Y028580D02*X044132Y029252D01*X043460Y028580D02*X042788Y029252D01*
X043460Y028580D02*X042788Y027908D01*X043460Y028580D02*X044132Y027908D01*
X046000Y028580D02*X046950Y028580D01*X046000Y028580D02*X046000Y029530D01*
X046000Y028580D02*X045050Y028580D01*X046000Y028580D02*X046000Y027630D01*
X035840Y031120D02*X036790Y031120D01*X035840Y031120D02*X035840Y032070D01*
X035840Y031120D02*X034890Y031120D01*X035840Y031120D02*X035840Y030170D01*
X038380Y031120D02*X039330Y031120D01*X038380Y031120D02*X038380Y032070D01*
X038380Y031120D02*X037430Y031120D01*X038380Y031120D02*X038380Y030170D01*
X040920Y031120D02*X041870Y031120D01*X040920Y031120D02*X040920Y032070D01*
X040920Y031120D02*X039970Y031120D01*X040920Y031120D02*X040920Y030170D01*
X043460Y031120D02*X044410Y031120D01*X043460Y031120D02*X043460Y032070D01*
X043460Y031120D02*X042510Y031120D01*X043460Y031120D02*X043460Y030170D01*
X046000Y031120D02*X046950Y031120D01*X046000Y031120D02*X046000Y032070D01*
X046000Y031120D02*X045050Y031120D01*X046000Y031120D02*X046000Y030170D01*
X007000Y003000D02*X007000Y003900D01*X007000Y003000D02*X006100Y003000D01*
X007000Y003000D02*X007000Y002100D01*X029540Y003000D02*X030365Y003000D01*
X029540Y003000D02*X029540Y003825D01*X029540Y003000D02*X029540Y002175D01*
X030810Y028500D02*X031635Y028500D01*X030810Y028500D02*X030810Y029325D01*
X054540Y026460D02*X055890Y026460D01*X054540Y026460D02*X054540Y027810D01*
X054540Y026460D02*X053190Y026460D01*X054540Y026460D02*X054540Y025110D01*
X049460Y026460D02*X050415Y027415D01*X049460Y026460D02*X048505Y027415D01*
X049460Y026460D02*X048505Y025505D01*X049460Y026460D02*X050415Y025505D01*
X054540Y031540D02*X055890Y031540D01*X054540Y031540D02*X054540Y032890D01*
X054540Y031540D02*X053190Y031540D01*X054540Y031540D02*X054540Y030190D01*
X049460Y031540D02*X050810Y031540D01*X049460Y031540D02*X049460Y032890D01*
X049460Y031540D02*X048110Y031540D01*X049460Y031540D02*X049460Y030190D01*
X035840Y010800D02*X036790Y010800D01*X035840Y010800D02*X035840Y011750D01*
X035840Y010800D02*X035840Y009850D01*X046000Y010800D02*X046672Y011472D01*
X046000Y010800D02*X045328Y011472D01*X046000Y010800D02*X045328Y010128D01*
X046000Y010800D02*X046672Y010128D01*X035840Y013340D02*X036512Y014012D01*
X035840Y013340D02*X035168Y014012D01*X035840Y013340D02*X035168Y012668D01*
X035840Y013340D02*X036512Y012668D01*X038380Y013340D02*X039052Y014012D01*
X038380Y013340D02*X037708Y014012D01*X038380Y013340D02*X037708Y012668D01*
X038380Y013340D02*X039052Y012668D01*X040920Y013340D02*X041870Y013340D01*
X040920Y013340D02*X040920Y014290D01*X040920Y013340D02*X039970Y013340D01*
X040920Y013340D02*X040920Y012390D01*X043460Y013340D02*X044410Y013340D01*
X043460Y013340D02*X043460Y014290D01*X043460Y013340D02*X042510Y013340D01*
X043460Y013340D02*X043460Y012390D01*X046000Y013340D02*X046672Y014012D01*
X046000Y013340D02*X045328Y014012D01*X046000Y013340D02*X045328Y012668D01*
X046000Y013340D02*X046672Y012668D01*X032000Y005000D02*X032672Y005672D01*
X032000Y005000D02*X031328Y005672D01*X032000Y005000D02*X031328Y004328D01*
X032000Y005000D02*X032672Y004328D01*X011000Y011800D02*X011000Y014000D01*
X007000Y011800D02*X007000Y014000D01*X016000Y011800D02*X016000Y014000D01*
X020000Y011800D02*X020000Y014000D01*X051250Y002000D02*X050000Y002000D01*
X052750Y002000D02*X052875Y002000D01*X051250Y006000D02*X050000Y006000D01*
X051250Y004000D02*X050000Y004000D01*X051075Y008000D02*X050000Y008000D01*
X052750Y004000D02*X052875Y004000D01*X052750Y006000D02*X052875Y006000D01*D02*
G54D136*X032000Y025000D02*X032000Y023650D01*X031500Y023650D02*X031500Y024500D01*
X031000Y025000D02*X031500Y024500D01*X031500Y015850D02*X031500Y015500D01*
X031000Y015000D02*X031500Y015500D01*X040000Y017250D02*X040000Y016000D01*
X038000Y023650D02*X038000Y024000D01*X036000Y015850D02*X036000Y015000D01*
X038650Y018000D02*X039250Y018000D01*X040000Y017250D02*X039250Y018000D01*
X031000Y015000D02*X030000Y015000D01*X031000Y025000D02*X030000Y025000D01*
X041000Y021000D02*X038650Y021000D01*X042250Y021500D02*X041500Y021500D01*
X041000Y021000D02*X041500Y021500D01*X041500Y020000D02*X042250Y020000D01*
X038650Y020500D02*X041000Y020500D01*X041500Y020000D02*X041000Y020500D01*
X030850Y023000D02*X029000Y023000D01*X030850Y018500D02*X029500Y018500D01*
X029000Y019000D02*X029500Y018500D01*X038650Y018500D02*X039500Y018500D01*
X040000Y018000D02*X039500Y018500D01*X038650Y020000D02*X040000Y020000D01*
X038650Y021500D02*X039500Y021500D01*X040000Y022000D02*X039500Y021500D01*
X038650Y022000D02*X040000Y022000D01*X038000Y024000D02*X040000Y024000D01*
X038650Y022500D02*X039500Y022500D01*X040000Y023000D02*X039500Y022500D01*D02*
G54D137*X034500Y006950D02*X034500Y007000D01*X034000Y007000D02*X034000Y008000D01*
X035000Y003050D02*X035000Y002000D01*X034000Y003050D02*X034000Y002000D01*
X034000Y002000D02*X034000Y001000D01*X035000Y002000D02*X035000Y001000D01*
X041000Y006313D02*X041000Y007000D01*X040000Y007000D02*X040000Y006313D01*
X041000Y007000D02*X041000Y008000D01*X040000Y008000D02*X040000Y007000D01*
X037500Y007000D02*X037500Y006950D01*X037000Y003050D02*X037000Y002000D01*
X038000Y003050D02*X038000Y002000D01*X037000Y002000D02*X037000Y001000D01*
X038000Y002000D02*X038000Y001000D01*X047500Y007000D02*X047500Y006950D01*
X048000Y008000D02*X048000Y007000D01*X045000Y008000D02*X045000Y007000D01*
X044000Y006313D02*X044000Y007000D01*X045000Y007000D02*X045000Y006313D01*
X044000Y007000D02*X044000Y008000D01*X048000Y013000D02*X048000Y014000D01*
X048000Y010000D02*X048000Y011000D01*X049000Y013000D02*X049000Y011000D01*
X048000Y013000D02*X048000Y011000D01*X048000Y003050D02*X048000Y002000D01*
X047000Y003050D02*X047000Y002000D01*X047000Y002000D02*X047000Y001000D01*
X048000Y002000D02*X048000Y001000D01*X050050Y010500D02*X050050Y010000D01*
X050050Y010500D02*X050050Y011000D01*X050050Y013500D02*X050050Y013000D01*
X050050Y013500D02*X050050Y014000D01*X053950Y013500D02*X053950Y014000D01*
X053950Y013500D02*X053950Y013000D01*X053950Y010500D02*X053950Y011000D01*
X053950Y010500D02*X053950Y010000D01*X056000Y013000D02*X056000Y014000D01*
X056000Y010000D02*X056000Y011000D01*X055000Y013000D02*X055000Y011000D01*
X056000Y013000D02*X056000Y011000D01*X055000Y008000D02*X055000Y010000D01*
X055000Y008000D02*X055000Y006000D01*X055000Y006000D02*X055000Y004000D01*
X055000Y004000D02*X055000Y002000D01*X056000Y002000D02*X056000Y004000D01*
X056000Y006000D02*X056000Y008000D01*X056000Y006000D02*X056000Y004000D01*
X056000Y008000D02*X056000Y010000D01*X037500Y003050D02*X037000Y003050D01*
X037500Y003050D02*X038000Y003050D01*X037000Y001000D02*X038000Y001000D01*
X034500Y003050D02*X035000Y003050D01*X034500Y003050D02*X034000Y003050D01*
X034000Y001000D02*X035000Y001000D01*X052875Y002000D02*X055000Y002000D01*
X047500Y003050D02*X048000Y003050D01*X047500Y003050D02*X047000Y003050D01*
X047000Y001000D02*X048000Y001000D01*X055000Y002000D02*X056000Y002000D01*
X040000Y006313D02*X041000Y006313D01*X041000Y007000D02*X040000Y007000D01*
X041000Y008000D02*X040000Y008000D01*X037500Y007000D02*X040000Y007000D01*
X034500Y007000D02*X037500Y007000D01*X034000Y008000D02*X040000Y008000D01*
X034500Y007000D02*X034000Y007000D01*X045000Y007000D02*X047500Y007000D01*
X048000Y007000D02*X047500Y007000D01*X045000Y008000D02*X048000Y008000D01*
X044000Y008000D02*X045000Y008000D01*X044000Y007000D02*X045000Y007000D01*
X045000Y006313D02*X044000Y006313D01*X050050Y010000D02*X049000Y010000D01*
X050050Y011000D02*X049000Y011000D01*X049000Y010000D02*X048000Y010000D01*
X049000Y011000D02*X048000Y011000D01*X052875Y004000D02*X055000Y004000D01*
X052925Y008000D02*X055000Y008000D01*X053950Y011000D02*X055000Y011000D01*
X053950Y010000D02*X055000Y010000D01*X052875Y006000D02*X055000Y006000D01*
X055000Y010000D02*X056000Y010000D01*X055000Y011000D02*X056000Y011000D01*
X055000Y006000D02*X056000Y006000D01*X055000Y004000D02*X056000Y004000D01*
X055000Y008000D02*X056000Y008000D01*X050050Y013000D02*X049000Y013000D01*
X050050Y014000D02*X049000Y014000D01*X049000Y014000D02*X048000Y014000D01*
X049000Y013000D02*X048000Y013000D01*X053950Y014000D02*X055000Y014000D01*
X053950Y013000D02*X055000Y013000D01*X055000Y014000D02*X056000Y014000D01*
X055000Y013000D02*X056000Y013000D01*D02*G54D138*X041000Y005975D02*
X041000Y006313D01*X040000Y005975D02*X040000Y006313D01*X040000Y004175D02*
X040000Y003000D01*X040500Y002500D02*X040000Y003000D01*X042000Y004025D02*
X042000Y004500D01*X044000Y005975D02*X044000Y006313D01*X045000Y004525D02*
X045000Y005975D01*X045000Y005975D02*X045000Y006313D01*X040500Y002500D02*
X041750Y002500D01*X041050Y005975D02*X041000Y005975D01*X041050Y005975D02*
X040000Y005975D01*X041050Y004675D02*X040500Y004675D01*X040000Y004175D02*
X040500Y004675D01*X043950Y005975D02*X045000Y005975D01*X043950Y005975D02*
X044000Y005975D01*X043950Y004025D02*X044500Y004025D01*X045000Y004525D02*
X044500Y004025D01*X041050Y004025D02*X042000Y004025D01*D02*G54D139*
X052000Y021750D02*X052000Y029000D01*X048500Y020750D02*X049000Y020750D01*
X050000Y020750D02*X051000Y020750D01*X052000Y020750D02*X053000Y020750D01*
X052000Y020750D02*X051000Y020750D01*X055000Y020750D02*X054000Y020750D01*
X043750Y021500D02*X045000Y021500D01*X046750Y021500D02*X045000Y021500D01*
X046250Y020000D02*X045000Y020000D01*X045000Y020000D02*X043750Y020000D01*
X047750Y020000D02*X048500Y020750D01*X047750Y021500D02*X048500Y020750D01*D02*
G54D140*X007000Y003000D03*X009000Y003000D03*D02*G54D141*X011000Y003000D03*D02*
G54D142*X025730Y003000D03*X024460Y003000D03*X029540Y003000D03*X028270Y003000D03*
X027000Y003000D03*X023190Y028500D03*X024460Y028500D03*X025730Y028500D03*
X027000Y028500D03*X028270Y028500D03*X029540Y028500D03*X030810Y028500D03*D02*
G54D143*X049460Y026460D03*X054540Y026460D03*X052000Y029000D03*X049460Y031540D03*
X054540Y031540D03*D02*G54D144*X000550Y000550D02*X033319Y000550D01*
X033319Y000550D02*X033200Y000669D01*X033200Y000669D02*X033200Y003381D01*
X033200Y003381D02*X033200Y003382D01*X033200Y003382D02*X033200Y006669D01*
X033200Y006669D02*X033200Y006669D01*X033200Y006669D02*X033200Y008331D01*
X033200Y008331D02*X033669Y008800D01*X033669Y008800D02*X041331Y008800D01*
X041331Y008800D02*X041800Y008331D01*X041800Y008331D02*X041800Y006500D01*
X041800Y006500D02*X043200Y006500D01*X043200Y006500D02*X043200Y008331D01*
X043200Y008331D02*X043669Y008800D01*X043669Y008800D02*X048331Y008800D01*
X048331Y008800D02*X048800Y008331D01*X048800Y008331D02*X048800Y006669D01*
X048800Y006669D02*X048800Y006669D01*X048800Y006669D02*X048800Y006500D01*
X048800Y006500D02*X048800Y006500D01*X048800Y006500D02*X048800Y003500D01*
X048800Y003500D02*X048800Y003500D01*X048800Y003500D02*X048800Y003382D01*
X048800Y003382D02*X048800Y003381D01*X048800Y003381D02*X048800Y000669D01*
X048800Y000669D02*X048682Y000550D01*X048682Y000550D02*X056450Y000550D01*
X056450Y000550D02*X056450Y001319D01*X056450Y001319D02*X056331Y001200D01*
X056331Y001200D02*X052544Y001200D01*X052544Y001200D02*X052444Y001300D01*
X052444Y001300D02*X050500Y001300D01*X050500Y001300D02*X050500Y002700D01*
X050500Y002700D02*X051650Y002700D01*X051650Y002700D02*X051650Y002700D01*
X051650Y002700D02*X052350Y002700D01*X052350Y002700D02*X052350Y002700D01*
X052350Y002700D02*X052444Y002700D01*X052444Y002700D02*X052544Y002800D01*
X052544Y002800D02*X054200Y002800D01*X054200Y002800D02*X054200Y003200D01*
X054200Y003200D02*X052544Y003200D01*X052544Y003200D02*X052444Y003300D01*
X052444Y003300D02*X050500Y003300D01*X050500Y003300D02*X050500Y004700D01*
X050500Y004700D02*X051650Y004700D01*X051650Y004700D02*X051650Y004700D01*
X051650Y004700D02*X052350Y004700D01*X052350Y004700D02*X052350Y004700D01*
X052350Y004700D02*X052444Y004700D01*X052444Y004700D02*X052544Y004800D01*
X052544Y004800D02*X054200Y004800D01*X054200Y004800D02*X054200Y005200D01*
X054200Y005200D02*X052544Y005200D01*X052544Y005200D02*X052444Y005300D01*
X052444Y005300D02*X050500Y005300D01*X050500Y005300D02*X050500Y006700D01*
X050500Y006700D02*X051650Y006700D01*X051650Y006700D02*X051650Y006700D01*
X051650Y006700D02*X052350Y006700D01*X052350Y006700D02*X052350Y006700D01*
X052350Y006700D02*X052444Y006700D01*X052444Y006700D02*X052544Y006800D01*
X052544Y006800D02*X054200Y006800D01*X054200Y006800D02*X054200Y007200D01*
X054200Y007200D02*X053775Y007200D01*X053775Y007200D02*X053775Y007075D01*
X053775Y007075D02*X050225Y007075D01*X050225Y007075D02*X050225Y008925D01*
X050225Y008925D02*X051425Y008925D01*X051425Y008925D02*X051425Y008925D01*
X051425Y008925D02*X052575Y008925D01*X052575Y008925D02*X052575Y008925D01*
X052575Y008925D02*X053775Y008925D01*X053775Y008925D02*X053775Y008800D01*
X053775Y008800D02*X054200Y008800D01*X054200Y008800D02*X054200Y009200D01*
X054200Y009200D02*X053619Y009200D01*X053619Y009200D02*X053619Y009200D01*
X053619Y009200D02*X050382Y009200D01*X050382Y009200D02*X050381Y009200D01*
X050381Y009200D02*X047669Y009200D01*X047669Y009200D02*X047200Y009669D01*
X047200Y009669D02*X047200Y014331D01*X047200Y014331D02*X047669Y014800D01*
X047669Y014800D02*X045600Y014800D01*X045600Y014800D02*X045600Y014750D01*
X045600Y014750D02*X043700Y014750D01*X043700Y014750D02*X043700Y016100D01*
X043700Y016100D02*X043300Y016100D01*X043300Y016100D02*X043300Y014750D01*
X043300Y014750D02*X041400Y014750D01*X041400Y014750D02*X041400Y016400D01*
X041400Y016400D02*X041950Y016400D01*X041950Y016400D02*X041950Y016416D01*
X041950Y016416D02*X042134Y016600D01*X042134Y016600D02*X041400Y016600D01*
X041400Y016600D02*X041400Y018100D01*X041400Y018100D02*X040565Y018100D01*
X040565Y018100D02*X040565Y017766D01*X040565Y017766D02*X040325Y017526D01*
X040325Y017526D02*X040425Y017426D01*X040425Y017426D02*X040425Y016374D01*
X040425Y016374D02*X040565Y016234D01*X040565Y016234D02*X040565Y015766D01*
X040565Y015766D02*X040234Y015435D01*X040234Y015435D02*X039766Y015435D01*
X039766Y015435D02*X039435Y015766D01*X039435Y015766D02*X039435Y016234D01*
X039435Y016234D02*X039575Y016374D01*X039575Y016374D02*X039575Y017074D01*
X039575Y017074D02*X039400Y017249D01*X039400Y017249D02*X039400Y016927D01*
X039400Y016927D02*X039420Y016927D01*X039420Y016927D02*X039420Y016073D01*
X039420Y016073D02*X038427Y016073D01*X038427Y016073D02*X038427Y015372D01*
X038427Y015372D02*X038565Y015234D01*X038565Y015234D02*X038565Y014766D01*
X038565Y014766D02*X038234Y014435D01*X038234Y014435D02*X037766Y014435D01*
X037766Y014435D02*X037435Y014766D01*X037435Y014766D02*X037435Y015100D01*
X037435Y015100D02*X036565Y015100D01*X036565Y015100D02*X036565Y014766D01*
X036565Y014766D02*X036234Y014435D01*X036234Y014435D02*X035766Y014435D01*
X035766Y014435D02*X035435Y014766D01*X035435Y014766D02*X035435Y015100D01*
X035435Y015100D02*X034900Y015100D01*X034900Y015100D02*X034900Y013744D01*
X034900Y013744D02*X035447Y014290D01*X035447Y014290D02*X036234Y014290D01*
X036234Y014290D02*X036790Y013734D01*X036790Y013734D02*X036790Y012947D01*
X036790Y012947D02*X036234Y012390D01*X036234Y012390D02*X035447Y012390D01*
X035447Y012390D02*X034900Y012936D01*X034900Y012936D02*X034900Y011750D01*
X034900Y011750D02*X036790Y011750D01*X036790Y011750D02*X036790Y009850D01*
X036790Y009850D02*X034890Y009850D01*X034890Y009850D02*X034890Y010324D01*
X034890Y010324D02*X034565Y009999D01*X034565Y009999D02*X034565Y009766D01*
X034565Y009766D02*X034234Y009435D01*X034234Y009435D02*X033766Y009435D01*
X033766Y009435D02*X033500Y009701D01*X033500Y009701D02*X033234Y009435D01*
X033234Y009435D02*X032766Y009435D01*X032766Y009435D02*X032435Y009766D01*
X032435Y009766D02*X032435Y010234D01*X032435Y010234D02*X032701Y010500D01*
X032701Y010500D02*X032700Y010501D01*X032700Y010501D02*X032700Y010500D01*
X032700Y010500D02*X032400Y010500D01*X032400Y010500D02*X032400Y009731D01*
X032400Y009731D02*X032800Y009331D01*X032800Y009331D02*X032800Y008669D01*
X032800Y008669D02*X032331Y008200D01*X032331Y008200D02*X031766Y008200D01*
X031766Y008200D02*X031166Y007600D01*X031166Y007600D02*X028834Y007600D01*
X028834Y007600D02*X027600Y008834D01*X027600Y008834D02*X027600Y015601D01*
X027600Y015601D02*X027435Y015766D01*X027435Y015766D02*X027435Y016100D01*
X027435Y016100D02*X027000Y016100D01*X027000Y016100D02*X027000Y015586D01*
X027000Y015586D02*X026414Y015000D01*X026414Y015000D02*X025586Y015000D01*
X025586Y015000D02*X025000Y015586D01*X025000Y015586D02*X025000Y015600D01*
X025000Y015600D02*X024500Y015600D01*X024500Y015600D02*X024500Y015300D01*
X024500Y015300D02*X023400Y015300D01*X023400Y015300D02*X023400Y015300D01*
X023400Y015300D02*X022600Y015300D01*X022600Y015300D02*X022600Y015300D01*
X022600Y015300D02*X018500Y015300D01*X018500Y015300D02*X018500Y015701D01*
X018500Y015701D02*X018234Y015435D01*X018234Y015435D02*X017766Y015435D01*
X017766Y015435D02*X017601Y015600D01*X017601Y015600D02*X017500Y015600D01*
X017500Y015600D02*X017500Y015300D01*X017500Y015300D02*X014500Y015300D01*
X014500Y015300D02*X014500Y015655D01*X014500Y015655D02*X012800Y015655D01*
X012800Y015655D02*X012800Y015438D01*X012800Y015438D02*X010365Y015438D01*
X010365Y015438D02*X010365Y016673D01*X010365Y016673D02*X012800Y016673D01*
X012800Y016673D02*X012800Y016455D01*X012800Y016455D02*X014500Y016455D01*
X014500Y016455D02*X014500Y016700D01*X014500Y016700D02*X015650Y016700D01*
X015650Y016700D02*X015650Y016700D01*X015650Y016700D02*X016350Y016700D01*
X016350Y016700D02*X016350Y016700D01*X016350Y016700D02*X017500Y016700D01*
X017500Y016700D02*X017500Y016400D01*X017500Y016400D02*X017601Y016400D01*
X017601Y016400D02*X017766Y016565D01*X017766Y016565D02*X018234Y016565D01*
X018234Y016565D02*X018500Y016299D01*X018500Y016299D02*X018500Y016700D01*
X018500Y016700D02*X019650Y016700D01*X019650Y016700D02*X019650Y016700D01*
X019650Y016700D02*X020350Y016700D01*X020350Y016700D02*X020350Y016700D01*
X020350Y016700D02*X022600Y016700D01*X022600Y016700D02*X022600Y016700D01*
X022600Y016700D02*X023400Y016700D01*X023400Y016700D02*X023400Y016700D01*
X023400Y016700D02*X024500Y016700D01*X024500Y016700D02*X024500Y016400D01*
X024500Y016400D02*X025000Y016400D01*X025000Y016400D02*X025000Y016414D01*
X025000Y016414D02*X025586Y017000D01*X025586Y017000D02*X025000Y017586D01*
X025000Y017586D02*X025000Y017600D01*X025000Y017600D02*X024500Y017600D01*
X024500Y017600D02*X024500Y017300D01*X024500Y017300D02*X023400Y017300D01*
X023400Y017300D02*X023400Y017300D01*X023400Y017300D02*X022600Y017300D01*
X022600Y017300D02*X022600Y017300D01*X022600Y017300D02*X018500Y017300D01*
X018500Y017300D02*X018500Y017701D01*X018500Y017701D02*X018234Y017435D01*
X018234Y017435D02*X017766Y017435D01*X017766Y017435D02*X017601Y017600D01*
X017601Y017600D02*X017500Y017600D01*X017500Y017600D02*X017500Y017300D01*
X017500Y017300D02*X014500Y017300D01*X014500Y017300D02*X014500Y017600D01*
X014500Y017600D02*X014166Y017600D01*X014166Y017600D02*X013491Y016925D01*
X013491Y016925D02*X012800Y016925D01*X012800Y016925D02*X012800Y016708D01*
X012800Y016708D02*X010365Y016708D01*X010365Y016708D02*X010365Y017943D01*
X010365Y017943D02*X012800Y017943D01*X012800Y017943D02*X012800Y017725D01*
X012800Y017725D02*X013159Y017725D01*X013159Y017725D02*X013834Y018400D01*
X013834Y018400D02*X014500Y018400D01*X014500Y018400D02*X014500Y018700D01*
X014500Y018700D02*X015650Y018700D01*X015650Y018700D02*X015650Y018700D01*
X015650Y018700D02*X016350Y018700D01*X016350Y018700D02*X016350Y018700D01*
X016350Y018700D02*X017500Y018700D01*X017500Y018700D02*X017500Y018400D01*
X017500Y018400D02*X017601Y018400D01*X017601Y018400D02*X017766Y018565D01*
X017766Y018565D02*X018234Y018565D01*X018234Y018565D02*X018500Y018299D01*
X018500Y018299D02*X018500Y018700D01*X018500Y018700D02*X019650Y018700D01*
X019650Y018700D02*X019650Y018700D01*X019650Y018700D02*X020350Y018700D01*
X020350Y018700D02*X020350Y018700D01*X020350Y018700D02*X022600Y018700D01*
X022600Y018700D02*X022600Y018700D01*X022600Y018700D02*X023400Y018700D01*
X023400Y018700D02*X023400Y018700D01*X023400Y018700D02*X024500Y018700D01*
X024500Y018700D02*X024500Y018400D01*X024500Y018400D02*X025000Y018400D01*
X025000Y018400D02*X025000Y018414D01*X025000Y018414D02*X025586Y019000D01*
X025586Y019000D02*X025000Y019586D01*X025000Y019586D02*X025000Y019600D01*
X025000Y019600D02*X024500Y019600D01*X024500Y019600D02*X024500Y019300D01*
X024500Y019300D02*X023400Y019300D01*X023400Y019300D02*X023400Y019300D01*
X023400Y019300D02*X022600Y019300D01*X022600Y019300D02*X022600Y019300D01*
X022600Y019300D02*X018500Y019300D01*X018500Y019300D02*X018500Y020700D01*
X018500Y020700D02*X019650Y020700D01*X019650Y020700D02*X019650Y020700D01*
X019650Y020700D02*X020350Y020700D01*X020350Y020700D02*X020350Y020700D01*
X020350Y020700D02*X022600Y020700D01*X022600Y020700D02*X022600Y020700D01*
X022600Y020700D02*X023400Y020700D01*X023400Y020700D02*X023400Y020700D01*
X023400Y020700D02*X024500Y020700D01*X024500Y020700D02*X024500Y020400D01*
X024500Y020400D02*X025000Y020400D01*X025000Y020400D02*X025000Y020414D01*
X025000Y020414D02*X025586Y021000D01*X025586Y021000D02*X025000Y021586D01*
X025000Y021586D02*X025000Y021600D01*X025000Y021600D02*X024500Y021600D01*
X024500Y021600D02*X024500Y021300D01*X024500Y021300D02*X023400Y021300D01*
X023400Y021300D02*X023400Y021300D01*X023400Y021300D02*X022600Y021300D01*
X022600Y021300D02*X022600Y021300D01*X022600Y021300D02*X018500Y021300D01*
X018500Y021300D02*X018500Y022700D01*X018500Y022700D02*X019650Y022700D01*
X019650Y022700D02*X019650Y022700D01*X019650Y022700D02*X020350Y022700D01*
X020350Y022700D02*X020350Y022700D01*X020350Y022700D02*X022600Y022700D01*
X022600Y022700D02*X022600Y022700D01*X022600Y022700D02*X023400Y022700D01*
X023400Y022700D02*X023400Y022700D01*X023400Y022700D02*X024500Y022700D01*
X024500Y022700D02*X024500Y022400D01*X024500Y022400D02*X025000Y022400D01*
X025000Y022400D02*X025000Y022414D01*X025000Y022414D02*X025586Y023000D01*
X025586Y023000D02*X026414Y023000D01*X026414Y023000D02*X027000Y022414D01*
X027000Y022414D02*X027000Y021586D01*X027000Y021586D02*X026990Y021576D01*
X026990Y021576D02*X027400Y021166D01*X027400Y021166D02*X027400Y020166D01*
X027400Y020166D02*X028435Y019131D01*X028435Y019131D02*X028435Y019234D01*
X028435Y019234D02*X028766Y019565D01*X028766Y019565D02*X029234Y019565D01*
X029234Y019565D02*X029565Y019234D01*X029565Y019234D02*X029565Y019036D01*
X029565Y019036D02*X029676Y018925D01*X029676Y018925D02*X030100Y018925D01*
X030100Y018925D02*X030100Y020600D01*X030100Y020600D02*X028834Y020600D01*
X028834Y020600D02*X025999Y023435D01*X025999Y023435D02*X025766Y023435D01*
X025766Y023435D02*X025435Y023766D01*X025435Y023766D02*X025435Y024234D01*
X025435Y024234D02*X025701Y024500D01*X025701Y024500D02*X025435Y024766D01*
X025435Y024766D02*X025435Y025234D01*X025435Y025234D02*X025766Y025565D01*
X025766Y025565D02*X025999Y025565D01*X025999Y025565D02*X026034Y025600D01*
X026034Y025600D02*X023834Y025600D01*X023834Y025600D02*X021850Y027584D01*
X021850Y027584D02*X021850Y029166D01*X021850Y029166D02*X022584Y029900D01*
X022584Y029900D02*X024896Y029900D01*X024896Y029900D02*X025471Y029325D01*
X025471Y029325D02*X026072Y029325D01*X026072Y029325D02*X026365Y029032D01*
X026365Y029032D02*X026658Y029325D01*X026658Y029325D02*X027342Y029325D01*
X027342Y029325D02*X027635Y029032D01*X027635Y029032D02*X027928Y029325D01*
X027928Y029325D02*X028612Y029325D01*X028612Y029325D02*X028905Y029032D01*
X028905Y029032D02*X029198Y029325D01*X029198Y029325D02*X029882Y029325D01*
X029882Y029325D02*X030175Y029032D01*X030175Y029032D02*X030468Y029325D01*
X030468Y029325D02*X031152Y029325D01*X031152Y029325D02*X031635Y028842D01*
X031635Y028842D02*X031635Y028158D01*X031635Y028158D02*X031377Y027900D01*
X031377Y027900D02*X034890Y027900D01*X034890Y027900D02*X034890Y029530D01*
X034890Y029530D02*X036790Y029530D01*X036790Y029530D02*X036790Y027630D01*
X036790Y027630D02*X035436Y027630D01*X035436Y027630D02*X036900Y026166D01*
X036900Y026166D02*X036900Y025216D01*X036900Y025216D02*X037584Y025900D01*
X037584Y025900D02*X040334Y025900D01*X040334Y025900D02*X041584Y027150D01*
X041584Y027150D02*X041750Y027150D01*X041750Y027150D02*X041750Y027600D01*
X041750Y027600D02*X044250Y027600D01*X044250Y027600D02*X044250Y027150D01*
X044250Y027150D02*X044416Y027150D01*X044416Y027150D02*X045000Y026566D01*
X045000Y026566D02*X045084Y026650D01*X045084Y026650D02*X045250Y026650D01*
X045250Y026650D02*X045250Y026950D01*X045250Y026950D02*X046400Y026950D01*
X046400Y026950D02*X046400Y026950D01*X046400Y026950D02*X047100Y026950D01*
X047100Y026950D02*X047100Y026950D01*X047100Y026950D02*X048110Y026950D01*
X048110Y026950D02*X048110Y027019D01*X048110Y027019D02*X048901Y027810D01*
X048901Y027810D02*X050019Y027810D01*X050019Y027810D02*X050810Y027019D01*
X050810Y027019D02*X050810Y025901D01*X050810Y025901D02*X050019Y025110D01*
X050019Y025110D02*X048901Y025110D01*X048901Y025110D02*X048250Y025761D01*
X048250Y025761D02*X048250Y025550D01*X048250Y025550D02*X045349Y025550D01*
X045349Y025550D02*X045299Y025500D01*X045299Y025500D02*X045349Y025450D01*
X045349Y025450D02*X046400Y025450D01*X046400Y025450D02*X046400Y025450D01*
X046400Y025450D02*X047100Y025450D01*X047100Y025450D02*X047100Y025450D01*
X047100Y025450D02*X048250Y025450D01*X048250Y025450D02*X048250Y024050D01*
X048250Y024050D02*X045250Y024050D01*X045250Y024050D02*X045250Y024350D01*
X045250Y024350D02*X045084Y024350D01*X045084Y024350D02*X045000Y024434D01*
X045000Y024434D02*X044416Y023850D01*X044416Y023850D02*X044250Y023850D01*
X044250Y023850D02*X044250Y023400D01*X044250Y023400D02*X041750Y023400D01*
X041750Y023400D02*X041750Y023850D01*X041750Y023850D02*X041584Y023850D01*
X041584Y023850D02*X040834Y024600D01*X040834Y024600D02*X038166Y024600D01*
X038166Y024600D02*X037991Y024425D01*X037991Y024425D02*X039626Y024425D01*
X039626Y024425D02*X039766Y024565D01*X039766Y024565D02*X040234Y024565D01*
X040234Y024565D02*X040565Y024234D01*X040565Y024234D02*X040565Y023900D01*
X040565Y023900D02*X040666Y023900D01*X040666Y023900D02*X041001Y023565D01*
X041001Y023565D02*X041234Y023565D01*X041234Y023565D02*X041565Y023234D01*
X041565Y023234D02*X041565Y022766D01*X041565Y022766D02*X041234Y022435D01*
X041234Y022435D02*X040766Y022435D01*X040766Y022435D02*X040500Y022701D01*
X040500Y022701D02*X040299Y022500D01*X040299Y022500D02*X040565Y022234D01*
X040565Y022234D02*X040565Y021766D01*X040565Y021766D02*X040259Y021460D01*
X040259Y021460D02*X040809Y021460D01*X040809Y021460D02*X041309Y021960D01*
X041309Y021960D02*X041500Y021960D01*X041500Y021960D02*X041500Y022200D01*
X041500Y022200D02*X042650Y022200D01*X042650Y022200D02*X042650Y022200D01*
X042650Y022200D02*X043350Y022200D01*X043350Y022200D02*X043350Y022200D01*
X043350Y022200D02*X044300Y022200D01*X044300Y022200D02*X044300Y023750D01*
X044300Y023750D02*X045700Y023750D01*X045700Y023750D02*X045700Y022600D01*
X045700Y022600D02*X045700Y022600D01*X045700Y022600D02*X045700Y022100D01*
X045700Y022100D02*X046999Y022100D01*X046999Y022100D02*X047105Y021993D01*
X047105Y021993D02*X047123Y021984D01*X047123Y021984D02*X047184Y021934D01*
X047184Y021934D02*X047234Y021873D01*X047234Y021873D02*X047243Y021855D01*
X047243Y021855D02*X047250Y021849D01*X047250Y021849D02*X047257Y021856D01*
X047257Y021856D02*X047267Y021873D01*X047267Y021873D02*X047316Y021933D01*
X047316Y021933D02*X047377Y021984D01*X047377Y021984D02*X047395Y021993D01*
X047395Y021993D02*X047501Y022100D01*X047501Y022100D02*X047999Y022100D01*
X047999Y022100D02*X048105Y021993D01*X048105Y021993D02*X048123Y021984D01*
X048123Y021984D02*X048184Y021934D01*X048184Y021934D02*X048234Y021873D01*
X048234Y021873D02*X048243Y021855D01*X048243Y021855D02*X048749Y021350D01*
X048749Y021350D02*X049249Y021350D01*X049249Y021350D02*X049355Y021243D01*
X049355Y021243D02*X049373Y021234D01*X049373Y021234D02*X049434Y021184D01*
X049434Y021184D02*X049484Y021123D01*X049484Y021123D02*X049493Y021105D01*
X049493Y021105D02*X049500Y021099D01*X049500Y021099D02*X049507Y021106D01*
X049507Y021106D02*X049517Y021123D01*X049517Y021123D02*X049566Y021183D01*
X049566Y021183D02*X049627Y021234D01*X049627Y021234D02*X049645Y021243D01*
X049645Y021243D02*X049751Y021350D01*X049751Y021350D02*X050300Y021350D01*
X050300Y021350D02*X050300Y021500D01*X050300Y021500D02*X051401Y021500D01*
X051401Y021500D02*X051400Y021501D01*X051400Y021501D02*X051400Y027691D01*
X051400Y027691D02*X050650Y028441D01*X050650Y028441D02*X050650Y029559D01*
X050650Y029559D02*X051441Y030350D01*X051441Y030350D02*X052559Y030350D01*
X052559Y030350D02*X053350Y029559D01*X053350Y029559D02*X053350Y028441D01*
X053350Y028441D02*X052600Y027691D01*X052600Y027691D02*X052600Y021501D01*
X052600Y021501D02*X052493Y021395D01*X052493Y021395D02*X052484Y021377D01*
X052484Y021377D02*X052462Y021350D01*X052462Y021350D02*X053249Y021350D01*
X053249Y021350D02*X053355Y021243D01*X053355Y021243D02*X053373Y021234D01*
X053373Y021234D02*X053434Y021184D01*X053434Y021184D02*X053484Y021123D01*
X053484Y021123D02*X053493Y021105D01*X053493Y021105D02*X053500Y021099D01*
X053500Y021099D02*X053507Y021106D01*X053507Y021106D02*X053517Y021123D01*
X053517Y021123D02*X053566Y021183D01*X053566Y021183D02*X053627Y021234D01*
X053627Y021234D02*X053645Y021243D01*X053645Y021243D02*X053751Y021350D01*
X053751Y021350D02*X054300Y021350D01*X054300Y021350D02*X054300Y021500D01*
X054300Y021500D02*X055700Y021500D01*X055700Y021500D02*X055700Y020350D01*
X055700Y020350D02*X055700Y020350D01*X055700Y020350D02*X055700Y019650D01*
X055700Y019650D02*X055700Y019650D01*X055700Y019650D02*X055700Y018500D01*
X055700Y018500D02*X054300Y018500D01*X054300Y018500D02*X054300Y020150D01*
X054300Y020150D02*X053751Y020150D01*X053751Y020150D02*X053644Y020257D01*
X053644Y020257D02*X053627Y020267D01*X053627Y020267D02*X053566Y020316D01*
X053566Y020316D02*X053517Y020377D01*X053517Y020377D02*X053507Y020394D01*
X053507Y020394D02*X053500Y020401D01*X053500Y020401D02*X053493Y020395D01*
X053493Y020395D02*X053484Y020377D01*X053484Y020377D02*X053433Y020316D01*
X053433Y020316D02*X053373Y020267D01*X053373Y020267D02*X053356Y020257D01*
X053356Y020257D02*X053249Y020150D01*X053249Y020150D02*X051700Y020150D01*
X051700Y020150D02*X051700Y019650D01*X051700Y019650D02*X051700Y019650D01*
X051700Y019650D02*X051700Y018500D01*X051700Y018500D02*X050300Y018500D01*
X050300Y018500D02*X050300Y020150D01*X050300Y020150D02*X049751Y020150D01*
X049751Y020150D02*X049644Y020257D01*X049644Y020257D02*X049627Y020267D01*
X049627Y020267D02*X049566Y020316D01*X049566Y020316D02*X049517Y020377D01*
X049517Y020377D02*X049507Y020394D01*X049507Y020394D02*X049500Y020401D01*
X049500Y020401D02*X049493Y020395D01*X049493Y020395D02*X049484Y020377D01*
X049484Y020377D02*X049433Y020316D01*X049433Y020316D02*X049373Y020267D01*
X049373Y020267D02*X049356Y020257D01*X049356Y020257D02*X049249Y020150D01*
X049249Y020150D02*X048749Y020150D01*X048749Y020150D02*X048500Y019901D01*
X048500Y019901D02*X048500Y019300D01*X048500Y019300D02*X045522Y019300D01*
X045522Y019300D02*X045544Y019228D01*X045544Y019228D02*X045550Y019165D01*
X045550Y019165D02*X045550Y018835D01*X045550Y018835D02*X045544Y018772D01*
X045544Y018772D02*X045521Y018697D01*X045521Y018697D02*X045484Y018627D01*
X045484Y018627D02*X045433Y018566D01*X045433Y018566D02*X045373Y018517D01*
X045373Y018517D02*X045304Y018479D01*X045304Y018479D02*X045228Y018456D01*
X045228Y018456D02*X045165Y018450D01*X045165Y018450D02*X044835Y018450D01*
X044835Y018450D02*X044772Y018456D01*X044772Y018456D02*X044696Y018479D01*
X044696Y018479D02*X044627Y018517D01*X044627Y018517D02*X044566Y018566D01*
X044566Y018566D02*X044517Y018627D01*X044517Y018627D02*X044479Y018696D01*
X044479Y018696D02*X044456Y018772D01*X044456Y018772D02*X044450Y018835D01*
X044450Y018835D02*X044450Y019165D01*X044450Y019165D02*X044456Y019228D01*
X044456Y019228D02*X044478Y019300D01*X044478Y019300D02*X043766Y019300D01*
X043766Y019300D02*X044650Y018416D01*X044650Y018416D02*X044650Y018250D01*
X044650Y018250D02*X045600Y018250D01*X045600Y018250D02*X045600Y018200D01*
X045600Y018200D02*X046650Y018200D01*X046650Y018200D02*X046650Y018200D01*
X046650Y018200D02*X047350Y018200D01*X047350Y018200D02*X047350Y018200D01*
X047350Y018200D02*X048500Y018200D01*X048500Y018200D02*X048500Y016800D01*
X048500Y016800D02*X046266Y016800D01*X046266Y016800D02*X046650Y016416D01*
X046650Y016416D02*X046650Y016200D01*X046650Y016200D02*X047350Y016200D01*
X047350Y016200D02*X047350Y016200D01*X047350Y016200D02*X048500Y016200D01*
X048500Y016200D02*X048500Y014800D01*X048500Y014800D02*X050381Y014800D01*
X050381Y014800D02*X050382Y014800D01*X050382Y014800D02*X050500Y014800D01*
X050500Y014800D02*X050500Y014800D01*X050500Y014800D02*X053500Y014800D01*
X053500Y014800D02*X053500Y014800D01*X053500Y014800D02*X053619Y014800D01*
X053619Y014800D02*X053619Y014800D01*X053619Y014800D02*X056331Y014800D01*
X056331Y014800D02*X056450Y014682D01*X056450Y014682D02*X056450Y034450D01*
X056450Y034450D02*X000550Y034450D01*X000550Y034450D02*X000550Y000550D01*
X002376Y030450D02*X003624Y030450D01*X003624Y030450D02*X004550Y031376D01*
X004550Y031376D02*X004550Y032624D01*X004550Y032624D02*X003624Y033550D01*
X003624Y033550D02*X002376Y033550D01*X002376Y033550D02*X001450Y032624D01*
X001450Y032624D02*X001450Y031376D01*X001450Y031376D02*X002376Y030450D01*
X004700Y016000D02*X004700Y017150D01*X004700Y017150D02*X004700Y017150D01*
X004700Y017150D02*X004700Y017850D01*X004700Y017850D02*X004700Y017850D01*
X004700Y017850D02*X004700Y018195D01*X004700Y018195D02*X005200Y018195D01*
X005200Y018195D02*X005200Y017978D01*X005200Y017978D02*X007635Y017978D01*
X007635Y017978D02*X007635Y019213D01*X007635Y019213D02*X005200Y019213D01*
X005200Y019213D02*X005200Y018995D01*X005200Y018995D02*X004700Y018995D01*
X004700Y018995D02*X004700Y019465D01*X004700Y019465D02*X005200Y019465D01*
X005200Y019465D02*X005200Y019248D01*X005200Y019248D02*X007635Y019248D01*
X007635Y019248D02*X007635Y020483D01*X007635Y020483D02*X005200Y020483D01*
X005200Y020483D02*X005200Y020265D01*X005200Y020265D02*X004700Y020265D01*
X004700Y020265D02*X004700Y020735D01*X004700Y020735D02*X005200Y020735D01*
X005200Y020735D02*X005200Y020518D01*X005200Y020518D02*X007635Y020518D01*
X007635Y020518D02*X007635Y021753D01*X007635Y021753D02*X005200Y021753D01*
X005200Y021753D02*X005200Y021535D01*X005200Y021535D02*X004700Y021535D01*
X004700Y021535D02*X004700Y022005D01*X004700Y022005D02*X005200Y022005D01*
X005200Y022005D02*X005200Y021788D01*X005200Y021788D02*X007635Y021788D01*
X007635Y021788D02*X007635Y023023D01*X007635Y023023D02*X005200Y023023D01*
X005200Y023023D02*X005200Y022805D01*X005200Y022805D02*X004700Y022805D01*
X004700Y022805D02*X004700Y023150D01*X004700Y023150D02*X004700Y023150D01*
X004700Y023150D02*X004700Y023850D01*X004700Y023850D02*X004700Y023850D01*
X004700Y023850D02*X004700Y024384D01*X004700Y024384D02*X004861Y024545D01*
X004861Y024545D02*X005200Y024545D01*X005200Y024545D02*X005200Y024328D01*
X005200Y024328D02*X007587Y024328D01*X007587Y024328D02*X007552Y024293D01*
X007552Y024293D02*X005200Y024293D01*X005200Y024293D02*X005200Y023058D01*
X005200Y023058D02*X007635Y023058D01*X007635Y023058D02*X007635Y023275D01*
X007635Y023275D02*X007666Y023275D01*X007666Y023275D02*X008400Y024009D01*
X008400Y024009D02*X008400Y026300D01*X008400Y026300D02*X008500Y026300D01*
X008500Y026300D02*X008500Y026701D01*X008500Y026701D02*X008766Y026435D01*
X008766Y026435D02*X009234Y026435D01*X009234Y026435D02*X009249Y026450D01*
X009249Y026450D02*X009500Y026450D01*X009500Y026450D02*X009500Y026300D01*
X009500Y026300D02*X009700Y026300D01*X009700Y026300D02*X009700Y025217D01*
X009700Y025217D02*X010365Y024552D01*X010365Y024552D02*X010365Y024328D01*
X010365Y024328D02*X012800Y024328D01*X012800Y024328D02*X012800Y025563D01*
X012800Y025563D02*X010910Y025563D01*X010910Y025563D02*X010800Y025673D01*
X010800Y025673D02*X010800Y026300D01*X010800Y026300D02*X012500Y026300D01*
X012500Y026300D02*X012500Y027700D01*X012500Y027700D02*X011350Y027700D01*
X011350Y027700D02*X011350Y027700D01*X011350Y027700D02*X010650Y027700D01*
X010650Y027700D02*X010650Y027700D01*X010650Y027700D02*X009500Y027700D01*
X009500Y027700D02*X009500Y027550D01*X009500Y027550D02*X009249Y027550D01*
X009249Y027550D02*X009234Y027565D01*X009234Y027565D02*X008766Y027565D01*
X008766Y027565D02*X008500Y027299D01*X008500Y027299D02*X008500Y027700D01*
X008500Y027700D02*X007350Y027700D01*X007350Y027700D02*X007350Y027700D01*
X007350Y027700D02*X006650Y027700D01*X006650Y027700D02*X006650Y027700D01*
X006650Y027700D02*X005500Y027700D01*X005500Y027700D02*X005500Y026300D01*
X005500Y026300D02*X007600Y026300D01*X007600Y026300D02*X007600Y025563D01*
X007600Y025563D02*X005200Y025563D01*X005200Y025563D02*X005200Y025345D01*
X005200Y025345D02*X004529Y025345D01*X004529Y025345D02*X004184Y025000D01*
X004184Y025000D02*X003300Y025000D01*X003300Y025000D02*X003300Y016000D01*
X003300Y016000D02*X004700Y016000D01*X002376Y001450D02*X003624Y001450D01*
X003624Y001450D02*X004550Y002376D01*X004550Y002376D02*X004550Y003624D01*
X004550Y003624D02*X003624Y004550D01*X003624Y004550D02*X002376Y004550D01*
X002376Y004550D02*X001450Y003624D01*X001450Y003624D02*X001450Y002376D01*
X001450Y002376D02*X002376Y001450D01*X007635Y015438D02*X007635Y015566D01*
X007635Y015566D02*X007766Y015435D01*X007766Y015435D02*X008234Y015435D01*
X008234Y015435D02*X008565Y015766D01*X008565Y015766D02*X008565Y016234D01*
X008565Y016234D02*X008299Y016500D01*X008299Y016500D02*X008565Y016766D01*
X008565Y016766D02*X008565Y017234D01*X008565Y017234D02*X008234Y017565D01*
X008234Y017565D02*X008001Y017565D01*X008001Y017565D02*X007841Y017725D01*
X007841Y017725D02*X007635Y017725D01*X007635Y017725D02*X007635Y017943D01*
X007635Y017943D02*X005200Y017943D01*X005200Y017943D02*X005200Y016708D01*
X005200Y016708D02*X007493Y016708D01*X007493Y016708D02*X007528Y016673D01*
X007528Y016673D02*X005200Y016673D01*X005200Y016673D02*X005200Y015438D01*
X005200Y015438D02*X007635Y015438D01*X006600Y005900D02*X006600Y005399D01*
X006600Y005399D02*X006435Y005234D01*X006435Y005234D02*X006435Y004766D01*
X006435Y004766D02*X006766Y004435D01*X006766Y004435D02*X006999Y004435D01*
X006999Y004435D02*X008100Y003334D01*X008100Y003334D02*X008100Y002627D01*
X008100Y002627D02*X008627Y002100D01*X008627Y002100D02*X009373Y002100D01*
X009373Y002100D02*X009900Y002627D01*X009900Y002627D02*X009900Y003373D01*
X009900Y003373D02*X009373Y003900D01*X009373Y003900D02*X008666Y003900D01*
X008666Y003900D02*X007565Y005001D01*X007565Y005001D02*X007565Y005234D01*
X007565Y005234D02*X007400Y005399D01*X007400Y005399D02*X007400Y005900D01*
X007400Y005900D02*X008700Y005900D01*X008700Y005900D02*X008700Y008200D01*
X008700Y008200D02*X008700Y008200D01*X008700Y008200D02*X008700Y010800D01*
X008700Y010800D02*X008700Y010800D01*X008700Y010800D02*X008700Y013100D01*
X008700Y013100D02*X005300Y013100D01*X005300Y013100D02*X005300Y005900D01*
X005300Y005900D02*X006600Y005900D01*X006627Y002100D02*X007373Y002100D01*
X007373Y002100D02*X007900Y002627D01*X007900Y002627D02*X007900Y003373D01*
X007900Y003373D02*X007373Y003900D01*X007373Y003900D02*X006627Y003900D01*
X006627Y003900D02*X006100Y003373D01*X006100Y003373D02*X006100Y002627D01*
X006100Y002627D02*X006627Y002100D01*X012800Y023058D02*X012800Y024293D01*
X012800Y024293D02*X010365Y024293D01*X010365Y024293D02*X010365Y023058D01*
X010365Y023058D02*X012800Y023058D01*X012800Y021788D02*X012800Y023023D01*
X012800Y023023D02*X010365Y023023D01*X010365Y023023D02*X010365Y021788D01*
X010365Y021788D02*X012800Y021788D01*X012800Y020518D02*X012800Y021753D01*
X012800Y021753D02*X010365Y021753D01*X010365Y021753D02*X010365Y020518D01*
X010365Y020518D02*X012800Y020518D01*X012800Y019248D02*X012800Y020483D01*
X012800Y020483D02*X010365Y020483D01*X010365Y020483D02*X010365Y019248D01*
X010365Y019248D02*X012800Y019248D01*X012800Y017978D02*X012800Y019213D01*
X012800Y019213D02*X010365Y019213D01*X010365Y019213D02*X010365Y017978D01*
X010365Y017978D02*X012800Y017978D01*X020200Y027800D02*X020200Y027022D01*
X020200Y027022D02*X020435Y026787D01*X020435Y026787D02*X020435Y026766D01*
X020435Y026766D02*X020766Y026435D01*X020766Y026435D02*X021234Y026435D01*
X021234Y026435D02*X021565Y026766D01*X021565Y026766D02*X021565Y027234D01*
X021565Y027234D02*X021300Y027499D01*X021300Y027499D02*X021300Y027800D01*
X021300Y027800D02*X021500Y027800D01*X021500Y027800D02*X021500Y029200D01*
X021500Y029200D02*X020350Y029200D01*X020350Y029200D02*X020350Y029200D01*
X020350Y029200D02*X019650Y029200D01*X019650Y029200D02*X019650Y029200D01*
X019650Y029200D02*X018500Y029200D01*X018500Y029200D02*X018500Y027800D01*
X018500Y027800D02*X020200Y027800D01*X035447Y030170D02*X036234Y030170D01*
X036234Y030170D02*X036790Y030727D01*X036790Y030727D02*X036790Y031514D01*
X036790Y031514D02*X036234Y032070D01*X036234Y032070D02*X035447Y032070D01*
X035447Y032070D02*X034890Y031514D01*X034890Y031514D02*X034890Y030727D01*
X034890Y030727D02*X035447Y030170D01*X037987Y030170D02*X038774Y030170D01*
X038774Y030170D02*X039330Y030727D01*X039330Y030727D02*X039330Y031514D01*
X039330Y031514D02*X038774Y032070D01*X038774Y032070D02*X037987Y032070D01*
X037987Y032070D02*X037430Y031514D01*X037430Y031514D02*X037430Y030727D01*
X037430Y030727D02*X037987Y030170D01*X037987Y027630D02*X038774Y027630D01*
X038774Y027630D02*X039330Y028187D01*X039330Y028187D02*X039330Y028974D01*
X039330Y028974D02*X038774Y029530D01*X038774Y029530D02*X037987Y029530D01*
X037987Y029530D02*X037430Y028974D01*X037430Y028974D02*X037430Y028187D01*
X037430Y028187D02*X037987Y027630D01*X040527Y030170D02*X041314Y030170D01*
X041314Y030170D02*X041870Y030727D01*X041870Y030727D02*X041870Y031514D01*
X041870Y031514D02*X041314Y032070D01*X041314Y032070D02*X040527Y032070D01*
X040527Y032070D02*X039970Y031514D01*X039970Y031514D02*X039970Y030727D01*
X039970Y030727D02*X040527Y030170D01*X040527Y027630D02*X041314Y027630D01*
X041314Y027630D02*X041870Y028187D01*X041870Y028187D02*X041870Y028974D01*
X041870Y028974D02*X041314Y029530D01*X041314Y029530D02*X040527Y029530D01*
X040527Y029530D02*X039970Y028974D01*X039970Y028974D02*X039970Y028187D01*
X039970Y028187D02*X040527Y027630D01*X043067Y030170D02*X043854Y030170D01*
X043854Y030170D02*X044410Y030727D01*X044410Y030727D02*X044410Y031514D01*
X044410Y031514D02*X043854Y032070D01*X043854Y032070D02*X043067Y032070D01*
X043067Y032070D02*X042510Y031514D01*X042510Y031514D02*X042510Y030727D01*
X042510Y030727D02*X043067Y030170D01*X043067Y027630D02*X043854Y027630D01*
X043854Y027630D02*X044410Y028187D01*X044410Y028187D02*X044410Y028974D01*
X044410Y028974D02*X043854Y029530D01*X043854Y029530D02*X043067Y029530D01*
X043067Y029530D02*X042510Y028974D01*X042510Y028974D02*X042510Y028187D01*
X042510Y028187D02*X043067Y027630D01*X045607Y030170D02*X046394Y030170D01*
X046394Y030170D02*X046950Y030727D01*X046950Y030727D02*X046950Y031514D01*
X046950Y031514D02*X046394Y032070D01*X046394Y032070D02*X045607Y032070D01*
X045607Y032070D02*X045050Y031514D01*X045050Y031514D02*X045050Y030727D01*
X045050Y030727D02*X045607Y030170D01*X045607Y027630D02*X046394Y027630D01*
X046394Y027630D02*X046950Y028187D01*X046950Y028187D02*X046950Y028974D01*
X046950Y028974D02*X046394Y029530D01*X046394Y029530D02*X045607Y029530D01*
X045607Y029530D02*X045050Y028974D01*X045050Y028974D02*X045050Y028187D01*
X045050Y028187D02*X045607Y027630D01*X048901Y030190D02*X050019Y030190D01*
X050019Y030190D02*X050810Y030981D01*X050810Y030981D02*X050810Y032099D01*
X050810Y032099D02*X050019Y032890D01*X050019Y032890D02*X048901Y032890D01*
X048901Y032890D02*X048110Y032099D01*X048110Y032099D02*X048110Y030981D01*
X048110Y030981D02*X048901Y030190D01*X053981Y030190D02*X055099Y030190D01*
X055099Y030190D02*X055890Y030981D01*X055890Y030981D02*X055890Y032099D01*
X055890Y032099D02*X055099Y032890D01*X055099Y032890D02*X053981Y032890D01*
X053981Y032890D02*X053190Y032099D01*X053190Y032099D02*X053190Y030981D01*
X053190Y030981D02*X053981Y030190D01*X053981Y025110D02*X055099Y025110D01*
X055099Y025110D02*X055890Y025901D01*X055890Y025901D02*X055890Y027019D01*
X055890Y027019D02*X055099Y027810D01*X055099Y027810D02*X053981Y027810D01*
X053981Y027810D02*X053190Y027019D01*X053190Y027019D02*X053190Y025901D01*
X053190Y025901D02*X053981Y025110D01*X050876Y014950D02*X052124Y014950D01*
X052124Y014950D02*X053050Y015876D01*X053050Y015876D02*X053050Y015607D01*
X053050Y015607D02*X053607Y015050D01*X053607Y015050D02*X054394Y015050D01*
X054394Y015050D02*X054950Y015607D01*X054950Y015607D02*X054950Y016394D01*
X054950Y016394D02*X054394Y016950D01*X054394Y016950D02*X053607Y016950D01*
X053607Y016950D02*X053050Y016394D01*X053050Y016394D02*X053050Y017124D01*
X053050Y017124D02*X052124Y018050D01*X052124Y018050D02*X050876Y018050D01*
X050876Y018050D02*X049950Y017124D01*X049950Y017124D02*X049950Y015876D01*
X049950Y015876D02*X050876Y014950D01*X010600Y005900D02*X010600Y005399D01*
X010600Y005399D02*X010435Y005234D01*X010435Y005234D02*X010435Y004766D01*
X010435Y004766D02*X010600Y004601D01*X010600Y004601D02*X010600Y003900D01*
X010600Y003900D02*X010100Y003900D01*X010100Y003900D02*X010100Y002100D01*
X010100Y002100D02*X011900Y002100D01*X011900Y002100D02*X011900Y003900D01*
X011900Y003900D02*X011400Y003900D01*X011400Y003900D02*X011400Y004601D01*
X011400Y004601D02*X011565Y004766D01*X011565Y004766D02*X011565Y005234D01*
X011565Y005234D02*X011400Y005399D01*X011400Y005399D02*X011400Y005900D01*
X011400Y005900D02*X012700Y005900D01*X012700Y005900D02*X012700Y008200D01*
X012700Y008200D02*X012700Y008200D01*X012700Y008200D02*X012700Y010800D01*
X012700Y010800D02*X012700Y010800D01*X012700Y010800D02*X012700Y013100D01*
X012700Y013100D02*X009300Y013100D01*X009300Y013100D02*X009300Y005900D01*
X009300Y005900D02*X010600Y005900D01*X015600Y005900D02*X015600Y005399D01*
X015600Y005399D02*X015435Y005234D01*X015435Y005234D02*X015435Y004766D01*
X015435Y004766D02*X015766Y004435D01*X015766Y004435D02*X015999Y004435D01*
X015999Y004435D02*X017010Y003424D01*X017010Y003424D02*X017000Y003414D01*
X017000Y003414D02*X017000Y002586D01*X017000Y002586D02*X017586Y002000D01*
X017586Y002000D02*X018414Y002000D01*X018414Y002000D02*X019000Y002586D01*
X019000Y002586D02*X019000Y003414D01*X019000Y003414D02*X018414Y004000D01*
X018414Y004000D02*X017586Y004000D01*X017586Y004000D02*X017576Y003990D01*
X017576Y003990D02*X016565Y005001D01*X016565Y005001D02*X016565Y005234D01*
X016565Y005234D02*X016400Y005399D01*X016400Y005399D02*X016400Y005900D01*
X016400Y005900D02*X017700Y005900D01*X017700Y005900D02*X017700Y008200D01*
X017700Y008200D02*X017700Y008200D01*X017700Y008200D02*X017700Y010800D01*
X017700Y010800D02*X017700Y010800D01*X017700Y010800D02*X017700Y013100D01*
X017700Y013100D02*X014300Y013100D01*X014300Y013100D02*X014300Y005900D01*
X014300Y005900D02*X015600Y005900D01*X015046Y002000D02*X015874Y002000D01*
X015874Y002000D02*X016460Y002586D01*X016460Y002586D02*X016460Y003414D01*
X016460Y003414D02*X015874Y004000D01*X015874Y004000D02*X015046Y004000D01*
X015046Y004000D02*X014460Y003414D01*X014460Y003414D02*X014460Y002586D01*
X014460Y002586D02*X015046Y002000D01*X019600Y005900D02*X019600Y005399D01*
X019600Y005399D02*X019435Y005234D01*X019435Y005234D02*X019435Y004766D01*
X019435Y004766D02*X019600Y004601D01*X019600Y004601D02*X019600Y004000D01*
X019600Y004000D02*X019540Y004000D01*X019540Y004000D02*X019540Y002000D01*
X019540Y002000D02*X021540Y002000D01*X021540Y002000D02*X021540Y004000D01*
X021540Y004000D02*X020400Y004000D01*X020400Y004000D02*X020400Y004601D01*
X020400Y004601D02*X020565Y004766D01*X020565Y004766D02*X020565Y005234D01*
X020565Y005234D02*X020400Y005399D01*X020400Y005399D02*X020400Y005900D01*
X020400Y005900D02*X021700Y005900D01*X021700Y005900D02*X021700Y008200D01*
X021700Y008200D02*X021700Y008200D01*X021700Y008200D02*X021700Y010800D01*
X021700Y010800D02*X021700Y010800D01*X021700Y010800D02*X021700Y013100D01*
X021700Y013100D02*X018300Y013100D01*X018300Y013100D02*X018300Y005900D01*
X018300Y005900D02*X019600Y005900D01*X024118Y002175D02*X024802Y002175D01*
X024802Y002175D02*X025095Y002468D01*X025095Y002468D02*X025388Y002175D01*
X025388Y002175D02*X026072Y002175D01*X026072Y002175D02*X026365Y002468D01*
X026365Y002468D02*X026658Y002175D01*X026658Y002175D02*X027342Y002175D01*
X027342Y002175D02*X027635Y002468D01*X027635Y002468D02*X027928Y002175D01*
X027928Y002175D02*X028612Y002175D01*X028612Y002175D02*X028905Y002468D01*
X028905Y002468D02*X029198Y002175D01*X029198Y002175D02*X029882Y002175D01*
X029882Y002175D02*X030365Y002658D01*X030365Y002658D02*X030365Y003342D01*
X030365Y003342D02*X029882Y003825D01*X029882Y003825D02*X029198Y003825D01*
X029198Y003825D02*X028905Y003532D01*X028905Y003532D02*X028612Y003825D01*
X028612Y003825D02*X027928Y003825D01*X027928Y003825D02*X027635Y003532D01*
X027635Y003532D02*X027342Y003825D01*X027342Y003825D02*X026658Y003825D01*
X026658Y003825D02*X026365Y003532D01*X026365Y003532D02*X026072Y003825D01*
X026072Y003825D02*X025388Y003825D01*X025388Y003825D02*X025095Y003532D01*
X025095Y003532D02*X024802Y003825D01*X024802Y003825D02*X024118Y003825D01*
X024118Y003825D02*X023635Y003342D01*X023635Y003342D02*X023635Y002658D01*
X023635Y002658D02*X024118Y002175D01*X031607Y004050D02*X032394Y004050D01*
X032394Y004050D02*X032950Y004607D01*X032950Y004607D02*X032950Y005394D01*
X032950Y005394D02*X032394Y005950D01*X032394Y005950D02*X031607Y005950D01*
X031607Y005950D02*X031050Y005394D01*X031050Y005394D02*X031050Y004607D01*
X031050Y004607D02*X031607Y004050D01*X031607Y002050D02*X032394Y002050D01*
X032394Y002050D02*X032950Y002607D01*X032950Y002607D02*X032950Y003394D01*
X032950Y003394D02*X032394Y003950D01*X032394Y003950D02*X031607Y003950D01*
X031607Y003950D02*X031050Y003394D01*X031050Y003394D02*X031050Y002607D01*
X031050Y002607D02*X031607Y002050D01*X037987Y012390D02*X038774Y012390D01*
X038774Y012390D02*X039330Y012947D01*X039330Y012947D02*X039330Y013734D01*
X039330Y013734D02*X038774Y014290D01*X038774Y014290D02*X037987Y014290D01*
X037987Y014290D02*X037430Y013734D01*X037430Y013734D02*X037430Y012947D01*
X037430Y012947D02*X037987Y012390D01*X037987Y009850D02*X038774Y009850D01*
X038774Y009850D02*X039330Y010407D01*X039330Y010407D02*X039330Y011194D01*
X039330Y011194D02*X038774Y011750D01*X038774Y011750D02*X037987Y011750D01*
X037987Y011750D02*X037430Y011194D01*X037430Y011194D02*X037430Y010407D01*
X037430Y010407D02*X037987Y009850D01*X040527Y012390D02*X041314Y012390D01*
X041314Y012390D02*X041870Y012947D01*X041870Y012947D02*X041870Y013734D01*
X041870Y013734D02*X041314Y014290D01*X041314Y014290D02*X040527Y014290D01*
X040527Y014290D02*X039970Y013734D01*X039970Y013734D02*X039970Y012947D01*
X039970Y012947D02*X040527Y012390D01*X040527Y009850D02*X041314Y009850D01*
X041314Y009850D02*X041870Y010407D01*X041870Y010407D02*X041870Y011194D01*
X041870Y011194D02*X041314Y011750D01*X041314Y011750D02*X040527Y011750D01*
X040527Y011750D02*X039970Y011194D01*X039970Y011194D02*X039970Y010407D01*
X039970Y010407D02*X040527Y009850D01*X043067Y012390D02*X043854Y012390D01*
X043854Y012390D02*X044410Y012947D01*X044410Y012947D02*X044410Y013734D01*
X044410Y013734D02*X043854Y014290D01*X043854Y014290D02*X043067Y014290D01*
X043067Y014290D02*X042510Y013734D01*X042510Y013734D02*X042510Y012947D01*
X042510Y012947D02*X043067Y012390D01*X043067Y009850D02*X043854Y009850D01*
X043854Y009850D02*X044410Y010407D01*X044410Y010407D02*X044410Y011194D01*
X044410Y011194D02*X043854Y011750D01*X043854Y011750D02*X043067Y011750D01*
X043067Y011750D02*X042510Y011194D01*X042510Y011194D02*X042510Y010407D01*
X042510Y010407D02*X043067Y009850D01*X045607Y012390D02*X046394Y012390D01*
X046394Y012390D02*X046950Y012947D01*X046950Y012947D02*X046950Y013734D01*
X046950Y013734D02*X046394Y014290D01*X046394Y014290D02*X045607Y014290D01*
X045607Y014290D02*X045050Y013734D01*X045050Y013734D02*X045050Y012947D01*
X045050Y012947D02*X045607Y012390D01*X045607Y009850D02*X046394Y009850D01*
X046394Y009850D02*X046950Y010407D01*X046950Y010407D02*X046950Y011194D01*
X046950Y011194D02*X046394Y011750D01*X046394Y011750D02*X045607Y011750D01*
X045607Y011750D02*X045050Y011194D01*X045050Y011194D02*X045050Y010407D01*
X045050Y010407D02*X045607Y009850D01*X026299Y024500D02*X026565Y024234D01*
X026565Y024234D02*X026565Y024001D01*X026565Y024001D02*X029166Y021400D01*
X029166Y021400D02*X030100Y021400D01*X030100Y021400D02*X030100Y022573D01*
X030100Y022573D02*X030081Y022573D01*X030081Y022573D02*X030081Y023427D01*
X030081Y023427D02*X031073Y023427D01*X031073Y023427D02*X031073Y024326D01*
X031073Y024326D02*X030824Y024575D01*X030824Y024575D02*X030374Y024575D01*
X030374Y024575D02*X030234Y024435D01*X030234Y024435D02*X029766Y024435D01*
X029766Y024435D02*X029435Y024766D01*X029435Y024766D02*X029435Y025100D01*
X029435Y025100D02*X026666Y025100D01*X026666Y025100D02*X026565Y024999D01*
X026565Y024999D02*X026565Y024766D01*X026565Y024766D02*X026299Y024500D01*
X030400Y009731D02*X030800Y009331D01*X030800Y009331D02*X030800Y008669D01*
X030800Y008669D02*X030532Y008400D01*X030532Y008400D02*X030834Y008400D01*
X030834Y008400D02*X031200Y008766D01*X031200Y008766D02*X031200Y009331D01*
X031200Y009331D02*X031600Y009731D01*X031600Y009731D02*X031600Y010500D01*
X031600Y010500D02*X031300Y010500D01*X031300Y010500D02*X031300Y012350D01*
X031300Y012350D02*X031084Y012350D01*X031084Y012350D02*X030999Y012435D01*
X030999Y012435D02*X030766Y012435D01*X030766Y012435D02*X030700Y012501D01*
X030700Y012501D02*X030700Y012350D01*X030700Y012350D02*X030700Y012350D01*
X030700Y012350D02*X030700Y011650D01*X030700Y011650D02*X030700Y011650D01*
X030700Y011650D02*X030700Y010500D01*X030700Y010500D02*X030400Y010500D01*
X030400Y010500D02*X030400Y009731D01*X028400Y009166D02*X029166Y008400D01*
X029166Y008400D02*X029469Y008400D01*X029469Y008400D02*X029200Y008669D01*
X029200Y008669D02*X029200Y009331D01*X029200Y009331D02*X029600Y009731D01*
X029600Y009731D02*X029600Y010500D01*X029600Y010500D02*X029300Y010500D01*
X029300Y010500D02*X029300Y013500D01*X029300Y013500D02*X030700Y013500D01*
X030700Y013500D02*X030700Y013499D01*X030700Y013499D02*X030766Y013565D01*
X030766Y013565D02*X031234Y013565D01*X031234Y013565D02*X031300Y013499D01*
X031300Y013499D02*X031300Y013500D01*X031300Y013500D02*X031701Y013500D01*
X031701Y013500D02*X031435Y013766D01*X031435Y013766D02*X031435Y014234D01*
X031435Y014234D02*X031701Y014500D01*X031701Y014500D02*X031435Y014766D01*
X031435Y014766D02*X031435Y014834D01*X031435Y014834D02*X031176Y014575D01*
X031176Y014575D02*X030374Y014575D01*X030374Y014575D02*X030234Y014435D01*
X030234Y014435D02*X029766Y014435D01*X029766Y014435D02*X029435Y014766D01*
X029435Y014766D02*X029435Y015234D01*X029435Y015234D02*X029766Y015565D01*
X029766Y015565D02*X030234Y015565D01*X030234Y015565D02*X030374Y015425D01*
X030374Y015425D02*X030824Y015425D01*X030824Y015425D02*X031073Y015674D01*
X031073Y015674D02*X031073Y016073D01*X031073Y016073D02*X030081Y016073D01*
X030081Y016073D02*X030081Y016100D01*X030081Y016100D02*X028565Y016100D01*
X028565Y016100D02*X028565Y015766D01*X028565Y015766D02*X028400Y015601D01*
X028400Y015601D02*X028400Y009166D01*X038682Y000550D02*X046319Y000550D01*
X046319Y000550D02*X046200Y000669D01*X046200Y000669D02*X046200Y003381D01*
X046200Y003381D02*X046200Y003382D01*X046200Y003382D02*X046200Y006200D01*
X046200Y006200D02*X045800Y006200D01*X045800Y006200D02*X045800Y005981D01*
X045800Y005981D02*X045463Y005644D01*X045463Y005644D02*X045463Y004333D01*
X045463Y004333D02*X044700Y003571D01*X044700Y003571D02*X044700Y003563D01*
X044700Y003563D02*X044692Y003563D01*X044692Y003563D02*X044692Y003562D01*
X044692Y003562D02*X043758Y003562D01*X043758Y003562D02*X043758Y003563D01*
X043758Y003563D02*X043625Y003563D01*X043625Y003563D02*X043625Y003500D01*
X043625Y003500D02*X041375Y003500D01*X041375Y003500D02*X041375Y003563D01*
X041375Y003563D02*X040463Y003563D01*X040463Y003563D02*X040463Y003192D01*
X040463Y003192D02*X040692Y002963D01*X040692Y002963D02*X041000Y002963D01*
X041000Y002963D02*X041000Y003200D01*X041000Y003200D02*X042150Y003200D01*
X042150Y003200D02*X042150Y003200D01*X042150Y003200D02*X042850Y003200D01*
X042850Y003200D02*X042850Y003200D01*X042850Y003200D02*X044000Y003200D01*
X044000Y003200D02*X044000Y001800D01*X044000Y001800D02*X041000Y001800D01*
X041000Y001800D02*X041000Y002037D01*X041000Y002037D02*X040308Y002037D01*
X040308Y002037D02*X039537Y002808D01*X039537Y002808D02*X039537Y004367D01*
X039537Y004367D02*X040300Y005129D01*X040300Y005129D02*X040300Y005512D01*
X040300Y005512D02*X039669Y005512D01*X039669Y005512D02*X039200Y005981D01*
X039200Y005981D02*X039200Y006200D01*X039200Y006200D02*X038800Y006200D01*
X038800Y006200D02*X038800Y003500D01*X038800Y003500D02*X038800Y003500D01*
X038800Y003500D02*X038800Y003382D01*X038800Y003382D02*X038800Y003381D01*
X038800Y003381D02*X038800Y000669D01*X038800Y000669D02*X038682Y000550D01*D02*
G54D145*X030000Y011250D03*X032000Y011250D03*X030000Y012750D03*X032000Y012750D03*
X004000Y016750D03*X004000Y019750D03*X004000Y018250D03*X051000Y019250D03*
X055000Y019250D03*X004000Y022750D03*X004000Y021250D03*X045000Y021500D03*
X045000Y023000D03*X051000Y020750D03*X055000Y020750D03*X004000Y024250D03*D02*
G54D146*X007000Y007200D03*X011000Y007200D03*X016000Y007200D03*X020000Y007200D03*
X007000Y011800D03*X011000Y011800D03*X016000Y011800D03*X020000Y011800D03*D02*
G54D147*X005818Y017325D02*X007018Y017325D01*X005818Y016055D02*X007018Y016055D01*
X010983Y016055D02*X012183Y016055D01*X010983Y017325D02*X012183Y017325D01*
X005818Y019865D02*X007018Y019865D01*X005818Y018595D02*X007018Y018595D01*
X010983Y018595D02*X012183Y018595D01*X010983Y019865D02*X012183Y019865D01*
X005818Y022405D02*X007018Y022405D01*X005818Y021135D02*X007018Y021135D01*
X010983Y021135D02*X012183Y021135D01*X010983Y022405D02*X012183Y022405D01*
X005818Y024945D02*X007018Y024945D01*X005818Y023675D02*X007018Y023675D01*
X010983Y023675D02*X012183Y023675D01*X010983Y024945D02*X012183Y024945D01*D02*
G54D148*X041750Y002500D03*X043250Y002500D03*X051250Y002000D03*X052750Y002000D03*
X051250Y004000D03*X052750Y004000D03*X051250Y006000D03*X052750Y006000D03*
X016750Y016000D03*X015250Y016000D03*X019250Y016000D03*X020750Y016000D03*
X023750Y016000D03*X022250Y016000D03*X046250Y015500D03*X046250Y017500D03*
X047750Y015500D03*X047750Y017500D03*X016750Y018000D03*X015250Y018000D03*
X019250Y018000D03*X020750Y018000D03*X019250Y020000D03*X020750Y020000D03*
X023750Y018000D03*X022250Y018000D03*X023750Y020000D03*X022250Y020000D03*
X042250Y020000D03*X043750Y020000D03*X046250Y020000D03*X047750Y020000D03*
X019250Y022000D03*X020750Y022000D03*X023750Y022000D03*X022250Y022000D03*
X042250Y021500D03*X043750Y021500D03*X046000Y024750D03*X046000Y026250D03*
X047500Y024750D03*X047500Y026250D03*X007750Y027000D03*X006250Y027000D03*
X010250Y027000D03*X011750Y027000D03*X020750Y028500D03*X019250Y028500D03*D02*
G54D149*X034500Y003050D03*X037500Y003050D03*X047500Y003050D03*X034500Y006950D03*
X037500Y006950D03*X047500Y006950D03*D02*G54D150*X030850Y017000D03*
X038650Y017000D03*X030850Y020000D03*X030850Y019500D03*X030850Y019000D03*
X030850Y018500D03*X030850Y018000D03*X030850Y017500D03*X038650Y017500D03*
X038650Y018000D03*X038650Y018500D03*X038650Y019000D03*X038650Y019500D03*
X038650Y020000D03*X030850Y022500D03*X030850Y022000D03*X030850Y021500D03*
X030850Y021000D03*X030850Y020500D03*X038650Y020500D03*X038650Y021000D03*
X038650Y021500D03*X038650Y022000D03*X038650Y022500D03*D02*G54D151*
X030775Y016500D03*X038725Y016500D03*X030775Y023000D03*X038725Y023000D03*D02*
G54D152*X031500Y015775D03*X038000Y015775D03*X031500Y023725D03*X038000Y023725D03*
D02*G54D153*X032000Y015850D03*X032500Y015850D03*X033000Y015850D03*
X033500Y015850D03*X034000Y015850D03*X034500Y015850D03*X035000Y015850D03*
X035500Y015850D03*X036000Y015850D03*X036500Y015850D03*X037000Y015850D03*
X037500Y015850D03*X034000Y023650D03*X033500Y023650D03*X033000Y023650D03*
X032500Y023650D03*X032000Y023650D03*X037500Y023650D03*X037000Y023650D03*
X036500Y023650D03*X036000Y023650D03*X035500Y023650D03*X035000Y023650D03*
X034500Y023650D03*D02*G54D154*X034750Y019750D03*D02*G54D155*X041050Y005975D03*
X041050Y005325D03*X041050Y004675D03*X041050Y004025D03*X043950Y004025D03*
X043950Y004675D03*X043950Y005325D03*X043950Y005975D03*D02*G54D156*
X042500Y005000D03*D02*G54D157*X042350Y015575D03*X042350Y017425D03*
X044650Y015575D03*X044650Y017425D03*D02*G54D158*X043000Y024250D03*
X043000Y026750D03*D02*G54D159*X051075Y008000D03*X052925Y008000D03*D02*G54D160*
X050050Y010500D03*X053950Y010500D03*X050050Y013500D03*X053950Y013500D03*D02*
G54D190*X030000Y009000D03*X032000Y009000D03*X003000Y003000D03*X003000Y032000D03*
X051500Y016500D03*D02*G54D191*X037000Y002000D03*X037000Y001000D03*
X038000Y002000D03*X038000Y001000D03*X034000Y002000D03*X034000Y001000D03*
X035000Y002000D03*X035000Y001000D03*X045000Y002500D03*X050000Y002000D03*
X047000Y002000D03*X047000Y001000D03*X048000Y002000D03*X048000Y001000D03*
X055000Y002000D03*X056000Y002000D03*X007000Y005000D03*X011000Y005000D03*
X016000Y005000D03*X020000Y005000D03*X042000Y004500D03*X042000Y005500D03*
X043000Y005500D03*X043000Y004500D03*X050000Y004000D03*X055000Y004000D03*
X056000Y004000D03*X004000Y006000D03*X002000Y006000D03*X004000Y008000D03*
X002000Y008000D03*X024000Y008000D03*X024000Y006000D03*X026000Y008000D03*
X041000Y007000D03*X040000Y007000D03*X040000Y008000D03*X041000Y008000D03*
X045000Y008000D03*X045000Y007000D03*X044000Y007000D03*X044000Y008000D03*
X050000Y006000D03*X050000Y008000D03*X055000Y008000D03*X056000Y008000D03*
X055000Y006000D03*X056000Y006000D03*X004000Y010000D03*X002000Y010000D03*
X024000Y010000D03*X026000Y010000D03*X033000Y010000D03*X033000Y011000D03*
X031000Y011000D03*X034000Y010000D03*X034000Y011000D03*X049000Y010000D03*
X048000Y010000D03*X049000Y011000D03*X048000Y011000D03*X055000Y010000D03*
X056000Y010000D03*X055000Y011000D03*X056000Y011000D03*X004000Y012000D03*
X002000Y012000D03*X002000Y014000D03*X004000Y014000D03*X007000Y014000D03*
X011000Y014000D03*X016000Y014000D03*X020000Y014000D03*X024000Y012000D03*
X029000Y013000D03*X026000Y012000D03*X032000Y014000D03*X031000Y013000D03*
X049000Y013000D03*X048000Y013000D03*X049000Y014000D03*X048000Y014000D03*
X055000Y013000D03*X056000Y013000D03*X055000Y014000D03*X056000Y014000D03*
X004000Y015000D03*X002000Y016000D03*X008000Y017000D03*X008000Y016000D03*
X018000Y016000D03*X019000Y015000D03*X028000Y016000D03*X032000Y015000D03*
X033000Y017000D03*X032000Y017000D03*X030000Y015000D03*X038000Y015000D03*
X036000Y017000D03*X035000Y017000D03*X034000Y017000D03*X037000Y015000D03*
X036000Y015000D03*X040000Y016000D03*X041000Y017000D03*X049000Y017000D03*
X049000Y016000D03*X002000Y018000D03*X002000Y020000D03*X008000Y020000D03*
X008000Y018000D03*X010000Y020000D03*X010000Y018000D03*X016000Y020000D03*
X018000Y018000D03*X019000Y019000D03*X018000Y020000D03*X029000Y019000D03*
X033000Y018000D03*X032000Y018000D03*X033000Y020000D03*X032000Y020000D03*
X033000Y019000D03*X035000Y020000D03*X035000Y019000D03*X035000Y018000D03*
X034000Y019000D03*X034000Y018000D03*X034000Y020000D03*X036000Y020000D03*
X036000Y019000D03*X036000Y018000D03*X040000Y018000D03*X040000Y020000D03*
X046000Y019000D03*X049000Y019750D03*X050000Y019750D03*X048000Y019000D03*
X047000Y019000D03*X052000Y018750D03*X054000Y018750D03*X052000Y019750D03*
X053000Y019750D03*X054000Y019750D03*X002000Y022000D03*X008000Y022000D03*
X010000Y022000D03*X016000Y022000D03*X018000Y022000D03*X033000Y021000D03*
X032000Y021000D03*X033000Y022000D03*X036000Y021000D03*X035000Y022000D03*
X035000Y021000D03*X034000Y022000D03*X034000Y021000D03*X036000Y022000D03*
X042000Y022500D03*X040000Y022000D03*X043000Y022500D03*X044000Y022500D03*
X050000Y021750D03*X049000Y021750D03*X053000Y021750D03*X054000Y021750D03*
X051000Y021750D03*X055000Y021750D03*X002000Y024000D03*X013000Y024000D03*
X016000Y024000D03*X019000Y023000D03*X018000Y024000D03*X020000Y024000D03*
X026000Y025000D03*X026000Y024000D03*X029000Y023000D03*X032000Y025000D03*
X030000Y025000D03*X041000Y023000D03*X040000Y024000D03*X040000Y023000D03*
X045000Y025000D03*X046000Y023000D03*X048000Y023000D03*X050000Y024000D03*
X054000Y024000D03*X002000Y026000D03*X004000Y028000D03*X002000Y028000D03*
X005000Y027000D03*X013000Y027000D03*X009000Y027000D03*X016000Y026000D03*
X016000Y028000D03*X019000Y027000D03*X018000Y026000D03*X018000Y028000D03*
X020000Y026000D03*X021000Y027000D03*X022000Y026000D03*X040000Y026000D03*
X045000Y026000D03*X004000Y030000D03*X002000Y030000D03*X014000Y030000D03*
X034000Y030000D03*X016000Y032000D03*X014000Y032000D03*X018000Y032000D03*
X020000Y032000D03*X022000Y032000D03*X024000Y032000D03*X028000Y032000D03*
X026000Y032000D03*X030000Y032000D03*X032000Y032000D03*X034000Y032000D03*
G36*X000550Y000550D02*X033319Y000550D01*X033200Y000669D01*X033200Y003381D01*
X033200Y003382D01*X033200Y006669D01*X033200Y006669D01*X033200Y008331D01*
X033669Y008800D01*X041331Y008800D01*X041800Y008331D01*X041800Y006500D01*
X043200Y006500D01*X043200Y008331D01*X043669Y008800D01*X048331Y008800D01*
X048800Y008331D01*X048800Y006669D01*X048800Y006669D01*X048800Y006500D01*
X048800Y006500D01*X048800Y003500D01*X048800Y003500D01*X048800Y003382D01*
X048800Y003381D01*X048800Y000669D01*X048682Y000550D01*X056450Y000550D01*
X056450Y001319D01*X056331Y001200D01*X052544Y001200D01*X052444Y001300D01*
X050500Y001300D01*X050500Y002700D01*X051650Y002700D01*X051650Y002700D01*
X052350Y002700D01*X052350Y002700D01*X052444Y002700D01*X052544Y002800D01*
X054200Y002800D01*X054200Y003200D01*X052544Y003200D01*X052444Y003300D01*
X050500Y003300D01*X050500Y004700D01*X051650Y004700D01*X051650Y004700D01*
X052350Y004700D01*X052350Y004700D01*X052444Y004700D01*X052544Y004800D01*
X054200Y004800D01*X054200Y005200D01*X052544Y005200D01*X052444Y005300D01*
X050500Y005300D01*X050500Y006700D01*X051650Y006700D01*X051650Y006700D01*
X052350Y006700D01*X052350Y006700D01*X052444Y006700D01*X052544Y006800D01*
X054200Y006800D01*X054200Y007200D01*X053775Y007200D01*X053775Y007075D01*
X050225Y007075D01*X050225Y008925D01*X051425Y008925D01*X051425Y008925D01*
X052575Y008925D01*X052575Y008925D01*X053775Y008925D01*X053775Y008800D01*
X054200Y008800D01*X054200Y009200D01*X053619Y009200D01*X053619Y009200D01*
X050382Y009200D01*X050381Y009200D01*X047669Y009200D01*X047200Y009669D01*
X047200Y014331D01*X047669Y014800D01*X046394Y014800D01*X046394Y014290D01*
X046950Y013734D01*X046950Y012947D01*X046394Y012390D01*X046394Y011750D01*
X046950Y011194D01*X046950Y010407D01*X046394Y009850D01*X045607Y009850D01*
X045050Y010407D01*X045050Y011194D01*X045607Y011750D01*X046394Y011750D01*
X046394Y012390D01*X045607Y012390D01*X045050Y012947D01*X045050Y013734D01*
X045607Y014290D01*X046394Y014290D01*X046394Y014800D01*X045600Y014800D01*
X045600Y014750D01*X043854Y014750D01*X043854Y014290D01*X044410Y013734D01*
X044410Y012947D01*X043854Y012390D01*X043854Y011750D01*X044410Y011194D01*
X044410Y010407D01*X043854Y009850D01*X043067Y009850D01*X042510Y010407D01*
X042510Y011194D01*X043067Y011750D01*X043854Y011750D01*X043854Y012390D01*
X043067Y012390D01*X042510Y012947D01*X042510Y013734D01*X043067Y014290D01*
X043854Y014290D01*X043854Y014750D01*X043700Y014750D01*X043700Y016100D01*
X043300Y016100D01*X043300Y014750D01*X041400Y014750D01*X041400Y016400D01*
X041950Y016400D01*X041950Y016416D01*X042134Y016600D01*X041400Y016600D01*
X041400Y018100D01*X041314Y018100D01*X041314Y014290D01*X041870Y013734D01*
X041870Y012947D01*X041314Y012390D01*X041314Y011750D01*X041870Y011194D01*
X041870Y010407D01*X041314Y009850D01*X040527Y009850D01*X039970Y010407D01*
X039970Y011194D01*X040527Y011750D01*X041314Y011750D01*X041314Y012390D01*
X040527Y012390D01*X039970Y012947D01*X039970Y013734D01*X040527Y014290D01*
X041314Y014290D01*X041314Y018100D01*X040565Y018100D01*X040565Y017766D01*
X040325Y017526D01*X040425Y017426D01*X040425Y016374D01*X040565Y016234D01*
X040565Y015766D01*X040234Y015435D01*X039766Y015435D01*X039435Y015766D01*
X039435Y016234D01*X039575Y016374D01*X039575Y017074D01*X039400Y017249D01*
X039400Y016927D01*X039420Y016927D01*X039420Y016073D01*X038774Y016073D01*
X038774Y014290D01*X039330Y013734D01*X039330Y012947D01*X038774Y012390D01*
X038774Y011750D01*X039330Y011194D01*X039330Y010407D01*X038774Y009850D01*
X037987Y009850D01*X037430Y010407D01*X037430Y011194D01*X037987Y011750D01*
X038774Y011750D01*X038774Y012390D01*X037987Y012390D01*X037430Y012947D01*
X037430Y013734D01*X037987Y014290D01*X038774Y014290D01*X038774Y016073D01*
X038427Y016073D01*X038427Y015372D01*X038565Y015234D01*X038565Y014766D01*
X038234Y014435D01*X037766Y014435D01*X037435Y014766D01*X037435Y015100D01*
X036565Y015100D01*X036565Y014766D01*X036234Y014435D01*X035766Y014435D01*
X035435Y014766D01*X035435Y015100D01*X034900Y015100D01*X034900Y013744D01*
X035447Y014290D01*X036234Y014290D01*X036790Y013734D01*X036790Y012947D01*
X036234Y012390D01*X035447Y012390D01*X034900Y012936D01*X034900Y011750D01*
X036790Y011750D01*X036790Y009850D01*X034890Y009850D01*X034890Y010324D01*
X034565Y009999D01*X034565Y009766D01*X034234Y009435D01*X033766Y009435D01*
X033500Y009701D01*X033234Y009435D01*X032766Y009435D01*X032435Y009766D01*
X032435Y010234D01*X032701Y010500D01*X032700Y010501D01*X032700Y010500D01*
X032400Y010500D01*X032400Y009731D01*X032800Y009331D01*X032800Y008669D01*
X032394Y008262D01*X032394Y005950D01*X032950Y005394D01*X032950Y004607D01*
X032394Y004050D01*X032394Y003950D01*X032950Y003394D01*X032950Y002607D01*
X032394Y002050D01*X031607Y002050D01*X031050Y002607D01*X031050Y003394D01*
X031607Y003950D01*X032394Y003950D01*X032394Y004050D01*X031607Y004050D01*
X031050Y004607D01*X031050Y005394D01*X031607Y005950D01*X032394Y005950D01*
X032394Y008262D01*X032331Y008200D01*X031766Y008200D01*X031166Y007600D01*
X029882Y007600D01*X029882Y003825D01*X030365Y003342D01*X030365Y002658D01*
X029882Y002175D01*X029198Y002175D01*X028905Y002468D01*X028612Y002175D01*
X027928Y002175D01*X027635Y002468D01*X027342Y002175D01*X026658Y002175D01*
X026365Y002468D01*X026072Y002175D01*X025388Y002175D01*X025095Y002468D01*
X024802Y002175D01*X024118Y002175D01*X023635Y002658D01*X023635Y003342D01*
X024118Y003825D01*X024802Y003825D01*X025095Y003532D01*X025388Y003825D01*
X026072Y003825D01*X026365Y003532D01*X026658Y003825D01*X027342Y003825D01*
X027635Y003532D01*X027928Y003825D01*X028612Y003825D01*X028905Y003532D01*
X029198Y003825D01*X029882Y003825D01*X029882Y007600D01*X028834Y007600D01*
X027600Y008834D01*X027600Y015601D01*X027435Y015766D01*X027435Y016100D01*
X027000Y016100D01*X027000Y015586D01*X026414Y015000D01*X025586Y015000D01*
X025000Y015586D01*X025000Y015600D01*X024500Y015600D01*X024500Y015300D01*
X023400Y015300D01*X023400Y015300D01*X022600Y015300D01*X022600Y015300D01*
X021700Y015300D01*X021700Y010800D01*X021700Y010800D01*X021700Y008200D01*
X021700Y008200D01*X021700Y005900D01*X020400Y005900D01*X020400Y005399D01*
X020565Y005234D01*X020565Y004766D01*X020400Y004601D01*X020400Y004000D01*
X021540Y004000D01*X021540Y002000D01*X019540Y002000D01*X019540Y004000D01*
X019600Y004000D01*X019600Y004601D01*X019435Y004766D01*X019435Y005234D01*
X019600Y005399D01*X019600Y005900D01*X018300Y005900D01*X018300Y013100D01*
X021700Y013100D01*X021700Y015300D01*X018500Y015300D01*X018500Y015701D01*
X018234Y015435D01*X017766Y015435D01*X017700Y015501D01*X017700Y010800D01*
X017700Y010800D01*X017700Y008200D01*X017700Y008200D01*X017700Y005900D01*
X016400Y005900D01*X016400Y005399D01*X016565Y005234D01*X016565Y005001D01*
X017576Y003990D01*X017586Y004000D01*X018414Y004000D01*X019000Y003414D01*
X019000Y002586D01*X018414Y002000D01*X017586Y002000D01*X017000Y002586D01*
X017000Y003414D01*X017010Y003424D01*X015999Y004435D01*X015874Y004435D01*
X015874Y004000D01*X016460Y003414D01*X016460Y002586D01*X015874Y002000D01*
X015046Y002000D01*X014460Y002586D01*X014460Y003414D01*X015046Y004000D01*
X015874Y004000D01*X015874Y004435D01*X015766Y004435D01*X015435Y004766D01*
X015435Y005234D01*X015600Y005399D01*X015600Y005900D01*X014300Y005900D01*
X014300Y013100D01*X017700Y013100D01*X017700Y015501D01*X017601Y015600D01*
X017500Y015600D01*X017500Y015300D01*X014500Y015300D01*X014500Y015655D01*
X012800Y015655D01*X012800Y015438D01*X012700Y015438D01*X012700Y010800D01*
X012700Y010800D01*X012700Y008200D01*X012700Y008200D01*X012700Y005900D01*
X011400Y005900D01*X011400Y005399D01*X011565Y005234D01*X011565Y004766D01*
X011400Y004601D01*X011400Y003900D01*X011900Y003900D01*X011900Y002100D01*
X010100Y002100D01*X010100Y003900D01*X010600Y003900D01*X010600Y004601D01*
X010435Y004766D01*X010435Y005234D01*X010600Y005399D01*X010600Y005900D01*
X009300Y005900D01*X009300Y013100D01*X012700Y013100D01*X012700Y015438D01*
X010365Y015438D01*X010365Y016673D01*X012800Y016673D01*X012800Y016455D01*
X014500Y016455D01*X014500Y016700D01*X015650Y016700D01*X015650Y016700D01*
X016350Y016700D01*X016350Y016700D01*X017500Y016700D01*X017500Y016400D01*
X017601Y016400D01*X017766Y016565D01*X018234Y016565D01*X018500Y016299D01*
X018500Y016700D01*X019650Y016700D01*X019650Y016700D01*X020350Y016700D01*
X020350Y016700D01*X022600Y016700D01*X022600Y016700D01*X023400Y016700D01*
X023400Y016700D01*X024500Y016700D01*X024500Y016400D01*X025000Y016400D01*
X025000Y016414D01*X025586Y017000D01*X025000Y017586D01*X025000Y017600D01*
X024500Y017600D01*X024500Y017300D01*X023400Y017300D01*X023400Y017300D01*
X022600Y017300D01*X022600Y017300D01*X018500Y017300D01*X018500Y017701D01*
X018234Y017435D01*X017766Y017435D01*X017601Y017600D01*X017500Y017600D01*
X017500Y017300D01*X014500Y017300D01*X014500Y017600D01*X014166Y017600D01*
X013491Y016925D01*X012800Y016925D01*X012800Y016708D01*X010365Y016708D01*
X010365Y017943D01*X012800Y017943D01*X012800Y017725D01*X013159Y017725D01*
X013834Y018400D01*X014500Y018400D01*X014500Y018700D01*X015650Y018700D01*
X015650Y018700D01*X016350Y018700D01*X016350Y018700D01*X017500Y018700D01*
X017500Y018400D01*X017601Y018400D01*X017766Y018565D01*X018234Y018565D01*
X018500Y018299D01*X018500Y018700D01*X019650Y018700D01*X019650Y018700D01*
X020350Y018700D01*X020350Y018700D01*X022600Y018700D01*X022600Y018700D01*
X023400Y018700D01*X023400Y018700D01*X024500Y018700D01*X024500Y018400D01*
X025000Y018400D01*X025000Y018414D01*X025586Y019000D01*X025000Y019586D01*
X025000Y019600D01*X024500Y019600D01*X024500Y019300D01*X023400Y019300D01*
X023400Y019300D01*X022600Y019300D01*X022600Y019300D01*X018500Y019300D01*
X018500Y020700D01*X019650Y020700D01*X019650Y020700D01*X020350Y020700D01*
X020350Y020700D01*X022600Y020700D01*X022600Y020700D01*X023400Y020700D01*
X023400Y020700D01*X024500Y020700D01*X024500Y020400D01*X025000Y020400D01*
X025000Y020414D01*X025586Y021000D01*X025000Y021586D01*X025000Y021600D01*
X024500Y021600D01*X024500Y021300D01*X023400Y021300D01*X023400Y021300D01*
X022600Y021300D01*X022600Y021300D01*X018500Y021300D01*X018500Y022700D01*
X019650Y022700D01*X019650Y022700D01*X020350Y022700D01*X020350Y022700D01*
X022600Y022700D01*X022600Y022700D01*X023400Y022700D01*X023400Y022700D01*
X024500Y022700D01*X024500Y022400D01*X025000Y022400D01*X025000Y022414D01*
X025586Y023000D01*X026414Y023000D01*X027000Y022414D01*X027000Y021586D01*
X026990Y021576D01*X027400Y021166D01*X027400Y020166D01*X028435Y019131D01*
X028435Y019234D01*X028766Y019565D01*X029234Y019565D01*X029565Y019234D01*
X029565Y019036D01*X029676Y018925D01*X030100Y018925D01*X030100Y020600D01*
X028834Y020600D01*X025999Y023435D01*X025766Y023435D01*X025435Y023766D01*
X025435Y024234D01*X025701Y024500D01*X025435Y024766D01*X025435Y025234D01*
X025766Y025565D01*X025999Y025565D01*X026034Y025600D01*X023834Y025600D01*
X021850Y027584D01*X021850Y029166D01*X022584Y029900D01*X024896Y029900D01*
X025471Y029325D01*X026072Y029325D01*X026365Y029032D01*X026658Y029325D01*
X027342Y029325D01*X027635Y029032D01*X027928Y029325D01*X028612Y029325D01*
X028905Y029032D01*X029198Y029325D01*X029882Y029325D01*X030175Y029032D01*
X030468Y029325D01*X031152Y029325D01*X031635Y028842D01*X031635Y028158D01*
X031377Y027900D01*X034890Y027900D01*X034890Y029530D01*X036790Y029530D01*
X036790Y027630D01*X035436Y027630D01*X036900Y026166D01*X036900Y025216D01*
X037584Y025900D01*X040334Y025900D01*X041584Y027150D01*X041750Y027150D01*
X041750Y027600D01*X044250Y027600D01*X044250Y027150D01*X044416Y027150D01*
X045000Y026566D01*X045084Y026650D01*X045250Y026650D01*X045250Y026950D01*
X046400Y026950D01*X046400Y026950D01*X047100Y026950D01*X047100Y026950D01*
X048110Y026950D01*X048110Y027019D01*X048901Y027810D01*X050019Y027810D01*
X050810Y027019D01*X050810Y025901D01*X050019Y025110D01*X048901Y025110D01*
X048250Y025761D01*X048250Y025550D01*X045349Y025550D01*X045299Y025500D01*
X045349Y025450D01*X046400Y025450D01*X046400Y025450D01*X047100Y025450D01*
X047100Y025450D01*X048250Y025450D01*X048250Y024050D01*X045250Y024050D01*
X045250Y024350D01*X045084Y024350D01*X045000Y024434D01*X044416Y023850D01*
X044250Y023850D01*X044250Y023400D01*X041750Y023400D01*X041750Y023850D01*
X041584Y023850D01*X040834Y024600D01*X038166Y024600D01*X037991Y024425D01*
X039626Y024425D01*X039766Y024565D01*X040234Y024565D01*X040565Y024234D01*
X040565Y023900D01*X040666Y023900D01*X041001Y023565D01*X041234Y023565D01*
X041565Y023234D01*X041565Y022766D01*X041234Y022435D01*X040766Y022435D01*
X040500Y022701D01*X040299Y022500D01*X040565Y022234D01*X040565Y021766D01*
X040259Y021460D01*X040809Y021460D01*X041309Y021960D01*X041500Y021960D01*
X041500Y022200D01*X042650Y022200D01*X042650Y022200D01*X043350Y022200D01*
X043350Y022200D01*X044300Y022200D01*X044300Y023750D01*X045700Y023750D01*
X045700Y022600D01*X045700Y022600D01*X045700Y022100D01*X046999Y022100D01*
X047105Y021993D01*X047123Y021984D01*X047184Y021934D01*X047234Y021873D01*
X047243Y021855D01*X047250Y021849D01*X047257Y021856D01*X047267Y021873D01*
X047316Y021933D01*X047377Y021984D01*X047395Y021993D01*X047501Y022100D01*
X047999Y022100D01*X048105Y021993D01*X048123Y021984D01*X048184Y021934D01*
X048234Y021873D01*X048243Y021855D01*X048749Y021350D01*X049249Y021350D01*
X049355Y021243D01*X049373Y021234D01*X049434Y021184D01*X049484Y021123D01*
X049493Y021105D01*X049500Y021099D01*X049507Y021106D01*X049517Y021123D01*
X049566Y021183D01*X049627Y021234D01*X049645Y021243D01*X049751Y021350D01*
X050300Y021350D01*X050300Y021500D01*X051401Y021500D01*X051400Y021501D01*
X051400Y027691D01*X050650Y028441D01*X050650Y029559D01*X051441Y030350D01*
X052559Y030350D01*X053350Y029559D01*X053350Y028441D01*X052600Y027691D01*
X052600Y021501D01*X052493Y021395D01*X052484Y021377D01*X052462Y021350D01*
X053249Y021350D01*X053355Y021243D01*X053373Y021234D01*X053434Y021184D01*
X053484Y021123D01*X053493Y021105D01*X053500Y021099D01*X053507Y021106D01*
X053517Y021123D01*X053566Y021183D01*X053627Y021234D01*X053645Y021243D01*
X053751Y021350D01*X054300Y021350D01*X054300Y021500D01*X055700Y021500D01*
X055700Y020350D01*X055700Y020350D01*X055700Y019650D01*X055700Y019650D01*
X055700Y018500D01*X054300Y018500D01*X054300Y020150D01*X053751Y020150D01*
X053644Y020257D01*X053627Y020267D01*X053566Y020316D01*X053517Y020377D01*
X053507Y020394D01*X053500Y020401D01*X053493Y020395D01*X053484Y020377D01*
X053433Y020316D01*X053373Y020267D01*X053356Y020257D01*X053249Y020150D01*
X052124Y020150D01*X052124Y018050D01*X053050Y017124D01*X053050Y016394D01*
X053607Y016950D01*X054394Y016950D01*X054950Y016394D01*X054950Y015607D01*
X054394Y015050D01*X053607Y015050D01*X053050Y015607D01*X053050Y015876D01*
X052124Y014950D01*X050876Y014950D01*X049950Y015876D01*X049950Y017124D01*
X050876Y018050D01*X052124Y018050D01*X052124Y020150D01*X051700Y020150D01*
X051700Y019650D01*X051700Y019650D01*X051700Y018500D01*X050300Y018500D01*
X050300Y020150D01*X049751Y020150D01*X049644Y020257D01*X049627Y020267D01*
X049566Y020316D01*X049517Y020377D01*X049507Y020394D01*X049500Y020401D01*
X049493Y020395D01*X049484Y020377D01*X049433Y020316D01*X049373Y020267D01*
X049356Y020257D01*X049249Y020150D01*X048749Y020150D01*X048500Y019901D01*
X048500Y019300D01*X045522Y019300D01*X045544Y019228D01*X045550Y019165D01*
X045550Y018835D01*X045544Y018772D01*X045521Y018697D01*X045484Y018627D01*
X045433Y018566D01*X045373Y018517D01*X045304Y018479D01*X045228Y018456D01*
X045165Y018450D01*X044835Y018450D01*X044772Y018456D01*X044696Y018479D01*
X044627Y018517D01*X044566Y018566D01*X044517Y018627D01*X044479Y018696D01*
X044456Y018772D01*X044450Y018835D01*X044450Y019165D01*X044456Y019228D01*
X044478Y019300D01*X043766Y019300D01*X044650Y018416D01*X044650Y018250D01*
X045600Y018250D01*X045600Y018200D01*X046650Y018200D01*X046650Y018200D01*
X047350Y018200D01*X047350Y018200D01*X048500Y018200D01*X048500Y016800D01*
X046266Y016800D01*X046650Y016416D01*X046650Y016200D01*X047350Y016200D01*
X047350Y016200D01*X048500Y016200D01*X048500Y014800D01*X050381Y014800D01*
X050382Y014800D01*X050500Y014800D01*X050500Y014800D01*X053500Y014800D01*
X053500Y014800D01*X053619Y014800D01*X053619Y014800D01*X056331Y014800D01*
X056450Y014682D01*X056450Y034450D01*X055099Y034450D01*X055099Y032890D01*
X055890Y032099D01*X055890Y030981D01*X055099Y030190D01*X055099Y027810D01*
X055890Y027019D01*X055890Y025901D01*X055099Y025110D01*X053981Y025110D01*
X053190Y025901D01*X053190Y027019D01*X053981Y027810D01*X055099Y027810D01*
X055099Y030190D01*X053981Y030190D01*X053190Y030981D01*X053190Y032099D01*
X053981Y032890D01*X055099Y032890D01*X055099Y034450D01*X050019Y034450D01*
X050019Y032890D01*X050810Y032099D01*X050810Y030981D01*X050019Y030190D01*
X048901Y030190D01*X048110Y030981D01*X048110Y032099D01*X048901Y032890D01*
X050019Y032890D01*X050019Y034450D01*X046394Y034450D01*X046394Y032070D01*
X046950Y031514D01*X046950Y030727D01*X046394Y030170D01*X046394Y029530D01*
X046950Y028974D01*X046950Y028187D01*X046394Y027630D01*X045607Y027630D01*
X045050Y028187D01*X045050Y028974D01*X045607Y029530D01*X046394Y029530D01*
X046394Y030170D01*X045607Y030170D01*X045050Y030727D01*X045050Y031514D01*
X045607Y032070D01*X046394Y032070D01*X046394Y034450D01*X043854Y034450D01*
X043854Y032070D01*X044410Y031514D01*X044410Y030727D01*X043854Y030170D01*
X043854Y029530D01*X044410Y028974D01*X044410Y028187D01*X043854Y027630D01*
X043067Y027630D01*X042510Y028187D01*X042510Y028974D01*X043067Y029530D01*
X043854Y029530D01*X043854Y030170D01*X043067Y030170D01*X042510Y030727D01*
X042510Y031514D01*X043067Y032070D01*X043854Y032070D01*X043854Y034450D01*
X041314Y034450D01*X041314Y032070D01*X041870Y031514D01*X041870Y030727D01*
X041314Y030170D01*X041314Y029530D01*X041870Y028974D01*X041870Y028187D01*
X041314Y027630D01*X040527Y027630D01*X039970Y028187D01*X039970Y028974D01*
X040527Y029530D01*X041314Y029530D01*X041314Y030170D01*X040527Y030170D01*
X039970Y030727D01*X039970Y031514D01*X040527Y032070D01*X041314Y032070D01*
X041314Y034450D01*X038774Y034450D01*X038774Y032070D01*X039330Y031514D01*
X039330Y030727D01*X038774Y030170D01*X038774Y029530D01*X039330Y028974D01*
X039330Y028187D01*X038774Y027630D01*X037987Y027630D01*X037430Y028187D01*
X037430Y028974D01*X037987Y029530D01*X038774Y029530D01*X038774Y030170D01*
X037987Y030170D01*X037430Y030727D01*X037430Y031514D01*X037987Y032070D01*
X038774Y032070D01*X038774Y034450D01*X036234Y034450D01*X036234Y032070D01*
X036790Y031514D01*X036790Y030727D01*X036234Y030170D01*X035447Y030170D01*
X034890Y030727D01*X034890Y031514D01*X035447Y032070D01*X036234Y032070D01*
X036234Y034450D01*X020350Y034450D01*X020350Y029200D01*X021500Y029200D01*
X021500Y027800D01*X021300Y027800D01*X021300Y027499D01*X021565Y027234D01*
X021565Y026766D01*X021234Y026435D01*X020766Y026435D01*X020435Y026766D01*
X020435Y026787D01*X020200Y027022D01*X020200Y027800D01*X018500Y027800D01*
X018500Y029200D01*X019650Y029200D01*X019650Y029200D01*X020350Y029200D01*
X020350Y034450D01*X011350Y034450D01*X011350Y027700D01*X012500Y027700D01*
X012500Y026300D01*X010800Y026300D01*X010800Y025673D01*X010910Y025563D01*
X012800Y025563D01*X012800Y017978D01*X010365Y017978D01*X010365Y019213D01*
X012800Y019213D01*X012800Y019248D01*X010365Y019248D01*X010365Y020483D01*
X012800Y020483D01*X012800Y020518D01*X010365Y020518D01*X010365Y021753D01*
X012800Y021753D01*X012800Y021788D01*X010365Y021788D01*X010365Y023023D01*
X012800Y023023D01*X012800Y023058D01*X010365Y023058D01*X010365Y024293D01*
X012800Y024293D01*X012800Y024328D01*X010365Y024328D01*X010365Y024552D01*
X009700Y025217D01*X009700Y026300D01*X009500Y026300D01*X009500Y026450D01*
X009249Y026450D01*X009234Y026435D01*X008766Y026435D01*X008700Y026501D01*
X008700Y010800D01*X008700Y010800D01*X008700Y008200D01*X008700Y008200D01*
X008700Y005900D01*X007400Y005900D01*X007400Y005399D01*X007565Y005234D01*
X007565Y005001D01*X008666Y003900D01*X009373Y003900D01*X009900Y003373D01*
X009900Y002627D01*X009373Y002100D01*X008627Y002100D01*X008100Y002627D01*
X008100Y003334D01*X007373Y004061D01*X007373Y003900D01*X007900Y003373D01*
X007900Y002627D01*X007373Y002100D01*X006627Y002100D01*X006100Y002627D01*
X006100Y003373D01*X006627Y003900D01*X007373Y003900D01*X007373Y004061D01*
X006999Y004435D01*X006766Y004435D01*X006435Y004766D01*X006435Y005234D01*
X006600Y005399D01*X006600Y005900D01*X005300Y005900D01*X005300Y013100D01*
X008700Y013100D01*X008700Y026501D01*X008500Y026701D01*X008500Y026300D01*
X008400Y026300D01*X008400Y024009D01*X007666Y023275D01*X007635Y023275D01*
X007635Y023058D01*X005200Y023058D01*X005200Y024293D01*X007552Y024293D01*
X007587Y024328D01*X005200Y024328D01*X005200Y024545D01*X004861Y024545D01*
X004700Y024384D01*X004700Y023850D01*X004700Y023850D01*X004700Y023150D01*
X004700Y023150D01*X004700Y022805D01*X005200Y022805D01*X005200Y023023D01*
X007635Y023023D01*X007635Y021788D01*X005200Y021788D01*X005200Y022005D01*
X004700Y022005D01*X004700Y021535D01*X005200Y021535D01*X005200Y021753D01*
X007635Y021753D01*X007635Y020518D01*X005200Y020518D01*X005200Y020735D01*
X004700Y020735D01*X004700Y020265D01*X005200Y020265D01*X005200Y020483D01*
X007635Y020483D01*X007635Y019248D01*X005200Y019248D01*X005200Y019465D01*
X004700Y019465D01*X004700Y018995D01*X005200Y018995D01*X005200Y019213D01*
X007635Y019213D01*X007635Y017725D01*X007841Y017725D01*X008001Y017565D01*
X008234Y017565D01*X008565Y017234D01*X008565Y016766D01*X008299Y016500D01*
X008565Y016234D01*X008565Y015766D01*X008234Y015435D01*X007766Y015435D01*
X007635Y015566D01*X007635Y015438D01*X005200Y015438D01*X005200Y016673D01*
X007528Y016673D01*X007493Y016708D01*X005200Y016708D01*X005200Y017943D01*
X007635Y017943D01*X007635Y017978D01*X005200Y017978D01*X005200Y018195D01*
X004700Y018195D01*X004700Y017850D01*X004700Y017850D01*X004700Y017150D01*
X004700Y017150D01*X004700Y016000D01*X003624Y016000D01*X003624Y004550D01*
X004550Y003624D01*X004550Y002376D01*X003624Y001450D01*X002376Y001450D01*
X001450Y002376D01*X001450Y003624D01*X002376Y004550D01*X003624Y004550D01*
X003624Y016000D01*X003300Y016000D01*X003300Y025000D01*X004184Y025000D01*
X004529Y025345D01*X005200Y025345D01*X005200Y025563D01*X007600Y025563D01*
X007600Y026300D01*X005500Y026300D01*X005500Y027700D01*X006650Y027700D01*
X006650Y027700D01*X007350Y027700D01*X007350Y027700D01*X008500Y027700D01*
X008500Y027299D01*X008766Y027565D01*X009234Y027565D01*X009249Y027550D01*
X009500Y027550D01*X009500Y027700D01*X010650Y027700D01*X010650Y027700D01*
X011350Y027700D01*X011350Y034450D01*X003624Y034450D01*X003624Y033550D01*
X004550Y032624D01*X004550Y031376D01*X003624Y030450D01*X002376Y030450D01*
X001450Y031376D01*X001450Y032624D01*X002376Y033550D01*X003624Y033550D01*
X003624Y034450D01*X000550Y034450D01*X000550Y000550D01*G37*G36*X026299Y024500D02*
X026565Y024234D01*X026565Y024001D01*X029166Y021400D01*X030100Y021400D01*
X030100Y022573D01*X030081Y022573D01*X030081Y023427D01*X031073Y023427D01*
X031073Y024326D01*X030824Y024575D01*X030374Y024575D01*X030234Y024435D01*
X029766Y024435D01*X029435Y024766D01*X029435Y025100D01*X026666Y025100D01*
X026565Y024999D01*X026565Y024766D01*X026299Y024500D01*G37*G36*X030400Y009731D02*
X030800Y009331D01*X030800Y008669D01*X030532Y008400D01*X030834Y008400D01*
X031200Y008766D01*X031200Y009331D01*X031600Y009731D01*X031600Y010500D01*
X031300Y010500D01*X031300Y012350D01*X031084Y012350D01*X030999Y012435D01*
X030766Y012435D01*X030700Y012501D01*X030700Y012350D01*X030700Y012350D01*
X030700Y011650D01*X030700Y011650D01*X030700Y010500D01*X030400Y010500D01*
X030400Y009731D01*G37*G36*X028400Y009166D02*X029166Y008400D01*X029469Y008400D01*
X029200Y008669D01*X029200Y009331D01*X029600Y009731D01*X029600Y010500D01*
X029300Y010500D01*X029300Y013500D01*X030700Y013500D01*X030700Y013499D01*
X030766Y013565D01*X031234Y013565D01*X031300Y013499D01*X031300Y013500D01*
X031701Y013500D01*X031435Y013766D01*X031435Y014234D01*X031701Y014500D01*
X031435Y014766D01*X031435Y014834D01*X031176Y014575D01*X030374Y014575D01*
X030234Y014435D01*X029766Y014435D01*X029435Y014766D01*X029435Y015234D01*
X029766Y015565D01*X030234Y015565D01*X030374Y015425D01*X030824Y015425D01*
X031073Y015674D01*X031073Y016073D01*X030081Y016073D01*X030081Y016100D01*
X028565Y016100D01*X028565Y015766D01*X028400Y015601D01*X028400Y009166D01*G37*G36*
X038682Y000550D02*X046319Y000550D01*X046200Y000669D01*X046200Y003381D01*
X046200Y003382D01*X046200Y006200D01*X045800Y006200D01*X045800Y005981D01*
X045463Y005644D01*X045463Y004333D01*X044700Y003571D01*X044700Y003563D01*
X044692Y003563D01*X044692Y003562D01*X043758Y003562D01*X043758Y003563D01*
X043625Y003563D01*X043625Y003500D01*X041375Y003500D01*X041375Y003563D01*
X040463Y003563D01*X040463Y003192D01*X040692Y002963D01*X041000Y002963D01*
X041000Y003200D01*X042150Y003200D01*X042150Y003200D01*X042850Y003200D01*
X042850Y003200D01*X044000Y003200D01*X044000Y001800D01*X041000Y001800D01*
X041000Y002037D01*X040308Y002037D01*X039537Y002808D01*X039537Y004367D01*
X040300Y005129D01*X040300Y005512D01*X039669Y005512D01*X039200Y005981D01*
X039200Y006200D01*X038800Y006200D01*X038800Y003500D01*X038800Y003500D01*
X038800Y003382D01*X038800Y003381D01*X038800Y000669D01*X038682Y000550D01*G37*G36*
X044750Y018850D02*X044752Y018830D01*X044758Y018812D01*X044767Y018794D01*
X044779Y018779D01*X044794Y018767D01*X044812Y018758D01*X044830Y018752D01*
X044850Y018750D01*X045150Y018750D01*X045170Y018752D01*X045188Y018758D01*
X045206Y018767D01*X045221Y018779D01*X045233Y018794D01*X045242Y018812D01*
X045248Y018830D01*X045250Y018850D01*X045250Y019150D01*X045248Y019170D01*
X045242Y019188D01*X045233Y019206D01*X045221Y019221D01*X045206Y019233D01*
X045188Y019242D01*X045170Y019248D01*X045150Y019250D01*X044850Y019250D01*
X044830Y019248D01*X044812Y019242D01*X044794Y019233D01*X044779Y019221D01*
X044767Y019206D01*X044758Y019188D01*X044752Y019170D01*X044750Y019150D01*
X044750Y018850D01*G37*G36*X044750Y019850D02*X044752Y019830D01*X044758Y019812D01*
X044767Y019794D01*X044779Y019779D01*X044794Y019767D01*X044812Y019758D01*
X044830Y019752D01*X044850Y019750D01*X045150Y019750D01*X045170Y019752D01*
X045188Y019758D01*X045206Y019767D01*X045221Y019779D01*X045233Y019794D01*
X045242Y019812D01*X045248Y019830D01*X045250Y019850D01*X045250Y020150D01*
X045248Y020170D01*X045242Y020188D01*X045233Y020206D01*X045221Y020221D01*
X045206Y020233D01*X045188Y020242D01*X045170Y020248D01*X045150Y020250D01*
X044850Y020250D01*X044830Y020248D01*X044812Y020242D01*X044794Y020233D01*
X044779Y020221D01*X044767Y020206D01*X044758Y020188D01*X044752Y020170D01*
X044750Y020150D01*X044750Y019850D01*G37*G36*X046500Y021350D02*X046502Y021330D01*
X046508Y021312D01*X046517Y021294D01*X046529Y021279D01*X046544Y021267D01*
X046562Y021258D01*X046580Y021252D01*X046600Y021250D01*X046900Y021250D01*
X046920Y021252D01*X046938Y021258D01*X046956Y021267D01*X046971Y021279D01*
X046983Y021294D01*X046992Y021312D01*X046998Y021330D01*X047000Y021350D01*
X047000Y021650D01*X046998Y021670D01*X046992Y021688D01*X046983Y021706D01*
X046971Y021721D01*X046956Y021733D01*X046938Y021742D01*X046920Y021748D01*
X046900Y021750D01*X046600Y021750D01*X046580Y021748D01*X046562Y021742D01*
X046544Y021733D01*X046529Y021721D01*X046517Y021706D01*X046508Y021688D01*
X046502Y021670D01*X046500Y021650D01*X046500Y021350D01*G37*G36*X049750Y020600D02*
X049752Y020580D01*X049758Y020562D01*X049767Y020544D01*X049779Y020529D01*
X049794Y020517D01*X049812Y020508D01*X049830Y020502D01*X049850Y020500D01*
X050150Y020500D01*X050170Y020502D01*X050188Y020508D01*X050206Y020517D01*
X050221Y020529D01*X050233Y020544D01*X050242Y020562D01*X050248Y020580D01*
X050250Y020600D01*X050250Y020900D01*X050248Y020920D01*X050242Y020938D01*
X050233Y020956D01*X050221Y020971D01*X050206Y020983D01*X050188Y020992D01*
X050170Y020998D01*X050150Y021000D01*X049850Y021000D01*X049830Y020998D01*
X049812Y020992D01*X049794Y020983D01*X049779Y020971D01*X049767Y020956D01*
X049758Y020938D01*X049752Y020920D01*X049750Y020900D01*X049750Y020600D01*G37*G36*
X048750Y020600D02*X048752Y020580D01*X048758Y020562D01*X048767Y020544D01*
X048779Y020529D01*X048794Y020517D01*X048812Y020508D01*X048830Y020502D01*
X048850Y020500D01*X049150Y020500D01*X049170Y020502D01*X049188Y020508D01*
X049206Y020517D01*X049221Y020529D01*X049233Y020544D01*X049242Y020562D01*
X049248Y020580D01*X049250Y020600D01*X049250Y020900D01*X049248Y020920D01*
X049242Y020938D01*X049233Y020956D01*X049221Y020971D01*X049206Y020983D01*
X049188Y020992D01*X049170Y020998D01*X049150Y021000D01*X048850Y021000D01*
X048830Y020998D01*X048812Y020992D01*X048794Y020983D01*X048779Y020971D01*
X048767Y020956D01*X048758Y020938D01*X048752Y020920D01*X048750Y020900D01*
X048750Y020600D01*
G37*G36*X047500Y021350D02*X047502Y021330D01*X047508Y021312D01*
X047517Y021294D01*X047529Y021279D01*X047544Y021267D01*X047562Y021258D01*
X047580Y021252D01*X047600Y021250D01*X047900Y021250D01*X047920Y021252D01*
X047938Y021258D01*X047956Y021267D01*X047971Y021279D01*X047983Y021294D01*
X047992Y021312D01*X047998Y021330D01*X048000Y021350D01*X048000Y021650D01*
X047998Y021670D01*X047992Y021688D01*X047983Y021706D01*X047971Y021721D01*
X047956Y021733D01*X047938Y021742D01*X047920Y021748D01*X047900Y021750D01*
X047600Y021750D01*X047580Y021748D01*X047562Y021742D01*X047544Y021733D01*
X047529Y021721D01*X047517Y021706D01*X047508Y021688D01*X047502Y021670D01*
X047500Y021650D01*X047500Y021350D01*G37*G36*X053750Y020600D02*X053752Y020580D01*
X053758Y020562D01*X053767Y020544D01*X053779Y020529D01*X053794Y020517D01*
X053812Y020508D01*X053830Y020502D01*X053850Y020500D01*X054150Y020500D01*
X054170Y020502D01*X054188Y020508D01*X054206Y020517D01*X054221Y020529D01*
X054233Y020544D01*X054242Y020562D01*X054248Y020580D01*X054250Y020600D01*
X054250Y020900D01*X054248Y020920D01*X054242Y020938D01*X054233Y020956D01*
X054221Y020971D01*X054206Y020983D01*X054188Y020992D01*X054170Y020998D01*
X054150Y021000D01*X053850Y021000D01*X053830Y020998D01*X053812Y020992D01*
X053794Y020983D01*X053779Y020971D01*X053767Y020956D01*X053758Y020938D01*
X053752Y020920D01*X053750Y020900D01*X053750Y020600D01*G37*G36*X052750Y020600D02*
X052752Y020580D01*X052758Y020562D01*X052767Y020544D01*X052779Y020529D01*
X052794Y020517D01*X052812Y020508D01*X052830Y020502D01*X052850Y020500D01*
X053150Y020500D01*X053170Y020502D01*X053188Y020508D01*X053206Y020517D01*
X053221Y020529D01*X053233Y020544D01*X053242Y020562D01*X053248Y020580D01*
X053250Y020600D01*X053250Y020900D01*X053248Y020920D01*X053242Y020938D01*
X053233Y020956D01*X053221Y020971D01*X053206Y020983D01*X053188Y020992D01*
X053170Y020998D01*X053150Y021000D01*X052850Y021000D01*X052830Y020998D01*
X052812Y020992D01*X052794Y020983D01*X052779Y020971D01*X052767Y020956D01*
X052758Y020938D01*X052752Y020920D01*X052750Y020900D01*X052750Y020600D01*G37*G36*
X051750Y021600D02*X051752Y021580D01*X051758Y021562D01*X051767Y021544D01*
X051779Y021529D01*X051794Y021517D01*X051812Y021508D01*X051830Y021502D01*
X051850Y021500D01*X052150Y021500D01*X052170Y021502D01*X052188Y021508D01*
X052206Y021517D01*X052221Y021529D01*X052233Y021544D01*X052242Y021562D01*
X052248Y021580D01*X052250Y021600D01*X052250Y021900D01*X052248Y021920D01*
X052242Y021938D01*X052233Y021956D01*X052221Y021971D01*X052206Y021983D01*
X052188Y021992D01*X052170Y021998D01*X052150Y022000D01*X051850Y022000D01*
X051830Y021998D01*X051812Y021992D01*X051794Y021983D01*X051779Y021971D01*
X051767Y021956D01*X051758Y021938D01*X051752Y021920D01*X051750Y021900D01*
X051750Y021600D01*G37*G36*X051750Y020600D02*X051752Y020580D01*X051758Y020562D01*
X051767Y020544D01*X051779Y020529D01*X051794Y020517D01*X051812Y020508D01*
X051830Y020502D01*X051850Y020500D01*X052150Y020500D01*X052170Y020502D01*
X052188Y020508D01*X052206Y020517D01*X052221Y020529D01*X052233Y020544D01*
X052242Y020562D01*X052248Y020580D01*X052250Y020600D01*X052250Y020900D01*
X052248Y020920D01*X052242Y020938D01*X052233Y020956D01*X052221Y020971D01*
X052206Y020983D01*X052188Y020992D01*X052170Y020998D01*X052150Y021000D01*
X051850Y021000D01*X051830Y020998D01*X051812Y020992D01*X051794Y020983D01*
X051779Y020971D01*X051767Y020956D01*X051758Y020938D01*X051752Y020920D01*
X051750Y020900D01*X051750Y020600D01*G37*G36*X017465Y040976D02*X017465Y040998D01*
X017854Y040998D01*X017854Y040976D01*X017875Y040976D01*X017875Y040955D01*
X017918Y040955D01*X017918Y040933D01*X017940Y040933D01*X017940Y040911D01*
X017962Y040911D01*X017962Y040890D01*X017983Y040890D01*X017983Y040868D01*
X018005Y040868D01*X018005Y040847D01*X018027Y040847D01*X018027Y040825D01*
X018048Y040825D01*X018048Y040803D01*X018070Y040803D01*X018070Y040782D01*
X018091Y040782D01*X018091Y040760D01*X018135Y040760D01*X018135Y040739D01*
X018156Y040739D01*X018156Y040717D01*X018178Y040717D01*X018178Y040695D01*
X018199Y040695D01*X018199Y040674D01*X018221Y040674D01*X018221Y040652D01*
X018264Y040652D01*X018264Y040674D01*X018307Y040674D01*X018307Y040695D01*
X018351Y040695D01*X018351Y040717D01*X018372Y040717D01*X018372Y040739D01*
X018415Y040739D01*X018415Y040760D01*X018437Y040760D01*X018437Y040782D01*
X018480Y040782D01*X018480Y040803D01*X018523Y040803D01*X018523Y040825D01*
X018545Y040825D01*X018545Y040847D01*X018588Y040847D01*X018588Y040868D01*
X018610Y040868D01*X018610Y040890D01*X018653Y040890D01*X018653Y040911D01*
X018675Y040911D01*X018675Y040933D01*X018718Y040933D01*X018718Y040955D01*
X018739Y040955D01*X018739Y040976D01*X018783Y040976D01*X018783Y040998D01*
X019236Y040998D01*X019236Y040976D01*X019193Y040976D01*X019193Y040955D01*
X019171Y040955D01*X019171Y040933D01*X019128Y040933D01*X019128Y040911D01*
X019107Y040911D01*X019107Y040890D01*X019063Y040890D01*X019063Y040868D01*
X019042Y040868D01*X019042Y040847D01*X018999Y040847D01*X018999Y040825D01*
X018977Y040825D01*X018977Y040803D01*X018934Y040803D01*X018934Y040782D01*
X018912Y040782D01*X018912Y040760D01*X018869Y040760D01*X018869Y040739D01*
X018847Y040739D01*X018847Y040717D01*X018804Y040717D01*X018804Y040695D01*
X018783Y040695D01*X018783Y040674D01*X018739Y040674D01*X018739Y040652D01*
X018718Y040652D01*X018718Y040631D01*X018675Y040631D01*X018675Y040609D01*
X018653Y040609D01*X018653Y040587D01*X018610Y040587D01*X018610Y040566D01*
X018588Y040566D01*X018588Y040544D01*X018545Y040544D01*X018545Y040523D01*
X018523Y040523D01*X018523Y040501D01*X018480Y040501D01*X018480Y040458D01*
X018005Y040458D01*X018005Y040523D01*X017983Y040523D01*X017983Y040544D01*
X017940Y040544D01*X017940Y040566D01*X017918Y040566D01*X017918Y040587D01*
X017897Y040587D01*X017897Y040609D01*X017875Y040609D01*X017875Y040631D01*
X017854Y040631D01*X017854Y040652D01*X017832Y040652D01*X017832Y040674D01*
X017810Y040674D01*X017810Y040695D01*X017789Y040695D01*X017789Y040717D01*
X017746Y040717D01*X017746Y040739D01*X017724Y040739D01*X017724Y040760D01*
X017702Y040760D01*X017702Y040782D01*X017681Y040782D01*X017681Y040803D01*
X017659Y040803D01*X017659Y040825D01*X017638Y040825D01*X017638Y040847D01*
X017616Y040847D01*X017616Y040868D01*X017573Y040868D01*X017573Y040890D01*
X017551Y040890D01*X017551Y040911D01*X017530Y040911D01*X017530Y040933D01*
X017508Y040933D01*X017508Y040955D01*X017486Y040955D01*X017486Y040976D01*
X017465Y040976D01*G37*G36*X017530Y040155D02*X017530Y040177D01*X017573Y040177D01*
X017573Y040199D01*X017594Y040199D01*X017594Y040220D01*X017638Y040220D01*
X017638Y040242D01*X017681Y040242D01*X017681Y040263D01*X017702Y040263D01*
X017702Y040285D01*X017746Y040285D01*X017746Y040307D01*X017767Y040307D01*
X017767Y040328D01*X017789Y040328D01*X017789Y040350D01*X017832Y040350D01*
X017832Y040371D01*X017875Y040371D01*X017875Y040393D01*X017897Y040393D01*
X017897Y040415D01*X017940Y040415D01*X017940Y040436D01*X017962Y040436D01*
X017962Y040458D01*X018502Y040458D01*X018502Y040436D01*X018523Y040436D01*
X018523Y040415D01*X018567Y040415D01*X018567Y040393D01*X018588Y040393D01*
X018588Y040371D01*X018610Y040371D01*X018610Y040350D01*X018631Y040350D01*
X018631Y040328D01*X018675Y040328D01*X018675Y040307D01*X018696Y040307D01*
X018696Y040285D01*X018718Y040285D01*X018718Y040263D01*X018739Y040263D01*
X018739Y040242D01*X018783Y040242D01*X018783Y040220D01*X018804Y040220D01*
X018804Y040199D01*X018826Y040199D01*X018826Y040177D01*X018847Y040177D01*
X018847Y040155D01*X018891Y040155D01*X018891Y040134D01*X018912Y040134D01*
X018912Y040112D01*X018934Y040112D01*X018934Y040091D01*X018955Y040091D01*
X018955Y040069D01*X018977Y040069D01*X018977Y040047D01*X019020Y040047D01*
X019020Y040026D01*X019042Y040026D01*X019042Y040004D01*X019063Y040004D01*
X019063Y039983D01*X019085Y039983D01*X019085Y039961D01*X018631Y039961D01*
X018631Y039983D01*X018588Y039983D01*X018588Y040004D01*X018567Y040004D01*
X018567Y040026D01*X018545Y040026D01*X018545Y040047D01*X018523Y040047D01*
X018523Y040069D01*X018502Y040069D01*X018502Y040091D01*X018480Y040091D01*
X018480Y040112D01*X018437Y040112D01*X018437Y040134D01*X018415Y040134D01*
X018415Y040155D01*X018394Y040155D01*X018394Y040177D01*X018372Y040177D01*
X018372Y040199D01*X018351Y040199D01*X018351Y040220D01*X018329Y040220D01*
X018329Y040242D01*X018286Y040242D01*X018286Y040263D01*X018264Y040263D01*
X018264Y040285D01*X018243Y040285D01*X018243Y040307D01*X018199Y040307D01*
X018199Y040285D01*X018156Y040285D01*X018156Y040263D01*X018135Y040263D01*
X018135Y040242D01*X018091Y040242D01*X018091Y040220D01*X018048Y040220D01*
X018048Y040199D01*X018027Y040199D01*X018027Y040177D01*X017983Y040177D01*
X017983Y040155D01*X017530Y040155D01*G37*G36*X015758Y041451D02*X015780Y041451D01*
X015780Y041430D01*X015823Y041430D01*X015823Y041408D01*X015866Y041408D01*
X015866Y041430D01*X015909Y041430D01*X015909Y041451D01*X015953Y041451D01*
X015953Y041473D01*X015996Y041473D01*X015996Y041495D01*X016017Y041495D01*
X016017Y041516D01*X016039Y041516D01*X016039Y041538D01*X016061Y041538D01*
X016061Y041560D01*X016082Y041560D01*X016082Y041581D01*X016104Y041581D01*
X016104Y041624D01*X016125Y041624D01*X016125Y041646D01*X016147Y041646D01*
X016147Y041689D01*X016169Y041689D01*X016169Y041776D01*X016190Y041776D01*
X016190Y041948D01*X016169Y041948D01*X016169Y042013D01*X016017Y042013D01*
X016017Y041970D01*X016039Y041970D01*X016039Y041754D01*X016017Y041754D01*
X016017Y041711D01*X015996Y041711D01*X015996Y041668D01*X015974Y041668D01*
X015974Y041646D01*X015953Y041646D01*X015953Y041624D01*X015931Y041624D01*
X015931Y041603D01*X015888Y041603D01*X015888Y041581D01*X015845Y041581D01*
X015845Y041560D01*X015801Y041560D01*X015801Y041538D01*X015780Y041538D01*
X015780Y041516D01*X015758Y041516D01*X015758Y041451D01*G37*G36*X015305Y042035D02*
X015477Y042035D01*X015477Y042056D01*X015499Y042056D01*X015499Y042100D01*
X015521Y042100D01*X015521Y042121D01*X015564Y042121D01*X015564Y042143D01*
X015607Y042143D01*X015607Y042164D01*X015693Y042164D01*X015693Y042186D01*
X015780Y042186D01*X015780Y042164D01*X015866Y042164D01*X015866Y042143D01*
X015888Y042143D01*X015888Y042121D01*X015931Y042121D01*X015931Y042100D01*
X015953Y042100D01*X015953Y042078D01*X015974Y042078D01*X015974Y042056D01*
X015996Y042056D01*X015996Y042013D01*X016169Y042013D01*X016169Y042035D01*
X016147Y042035D01*X016147Y042078D01*X016125Y042078D01*X016125Y042121D01*
X016104Y042121D01*X016104Y042143D01*X016082Y042143D01*X016082Y042164D01*
X016061Y042164D01*X016061Y042186D01*X016039Y042186D01*X016039Y042208D01*
X016017Y042208D01*X016017Y042229D01*X015996Y042229D01*X015996Y042251D01*
X015953Y042251D01*X015953Y042272D01*X015909Y042272D01*X015909Y042294D01*
X015845Y042294D01*X015845Y042316D01*X015607Y042316D01*X015607Y042294D01*
X015542Y042294D01*X015542Y042272D01*X015499Y042272D01*X015499Y042251D01*
X015477Y042251D01*X015477Y042229D01*X015434Y042229D01*X015434Y042208D01*
X015413Y042208D01*X015413Y042186D01*X015391Y042186D01*X015391Y042164D01*
X015369Y042164D01*X015369Y042121D01*X015348Y042121D01*X015348Y042100D01*
X015326Y042100D01*X015326Y042056D01*X015305Y042056D01*X015305Y042035D01*G37*G36*
X015261Y041819D02*X015283Y041819D01*X015283Y041732D01*X015305Y041732D01*
X015305Y041668D01*X015326Y041668D01*X015326Y041624D01*X015348Y041624D01*
X015348Y041603D01*X015369Y041603D01*X015369Y041560D01*X015391Y041560D01*
X015391Y041538D01*X015434Y041538D01*X015434Y041516D01*X015521Y041516D01*
X015521Y041538D01*X015542Y041538D01*X015542Y041624D01*X015521Y041624D01*
X015521Y041646D01*X015499Y041646D01*X015499Y041668D01*X015477Y041668D01*
X015477Y041689D01*X015456Y041689D01*X015456Y041732D01*X015434Y041732D01*
X015434Y041797D01*X015413Y041797D01*X015413Y041927D01*X015434Y041927D01*
X015434Y041992D01*X015456Y041992D01*X015456Y042035D01*X015305Y042035D01*
X015305Y042013D01*X015283Y042013D01*X015283Y041905D01*X015261Y041905D01*
X015261Y041819D01*
G37*G36*X014462Y040782D02*X014484Y040782D01*X014484Y040739D01*
X014505Y040739D01*X014505Y040717D01*X014527Y040717D01*X014527Y040674D01*
X014548Y040674D01*X014548Y040631D01*X014570Y040631D01*X014570Y040587D01*
X014592Y040587D01*X014592Y040544D01*X014613Y040544D01*X014613Y040501D01*
X014635Y040501D01*X014635Y040479D01*X014656Y040479D01*X014656Y040436D01*
X014678Y040436D01*X014678Y040393D01*X014700Y040393D01*X014700Y040350D01*
X014721Y040350D01*X014721Y040307D01*X014743Y040307D01*X014743Y040263D01*
X014765Y040263D01*X014765Y040242D01*X014786Y040242D01*X014786Y040199D01*
X014808Y040199D01*X014808Y040155D01*X014829Y040155D01*X014829Y040112D01*
X014851Y040112D01*X014851Y040069D01*X014873Y040069D01*X014873Y040047D01*
X014894Y040047D01*X014894Y040004D01*X014916Y040004D01*X014916Y039961D01*
X015413Y039961D01*X015413Y040026D01*X015434Y040026D01*X015434Y040155D01*
X015456Y040155D01*X015456Y040263D01*X015477Y040263D01*X015477Y040393D01*
X015499Y040393D01*X015499Y040523D01*X015521Y040523D01*X015521Y040631D01*
X015542Y040631D01*X015542Y040760D01*X015564Y040760D01*X015564Y040868D01*
X015585Y040868D01*X015585Y040998D01*X015607Y040998D01*X015607Y041127D01*
X015629Y041127D01*X015629Y041257D01*X015650Y041257D01*X015650Y041365D01*
X015672Y041365D01*X015672Y041495D01*X015693Y041495D01*X015693Y041624D01*
X015715Y041624D01*X015715Y041732D01*X015737Y041732D01*X015737Y041819D01*
X015715Y041819D01*X015715Y041776D01*X015693Y041776D01*X015693Y041711D01*
X015672Y041711D01*X015672Y041668D01*X015650Y041668D01*X015650Y041624D01*
X015629Y041624D01*X015629Y041581D01*X015607Y041581D01*X015607Y041538D01*
X015585Y041538D01*X015585Y041495D01*X015564Y041495D01*X015564Y041451D01*
X015542Y041451D01*X015542Y041408D01*X015521Y041408D01*X015521Y041365D01*
X015499Y041365D01*X015499Y041322D01*X015477Y041322D01*X015477Y041279D01*
X015456Y041279D01*X015456Y041214D01*X015434Y041214D01*X015434Y041171D01*
X015413Y041171D01*X015413Y041127D01*X015391Y041127D01*X015391Y041084D01*
X015369Y041084D01*X015369Y041041D01*X015348Y041041D01*X015348Y040998D01*
X015326Y040998D01*X015326Y040955D01*X015305Y040955D01*X015305Y040911D01*
X015283Y040911D01*X015283Y040868D01*X015261Y040868D01*X015261Y040825D01*
X015240Y040825D01*X015240Y040782D01*X015218Y040782D01*X015218Y040717D01*
X015197Y040717D01*X015197Y040674D01*X015175Y040674D01*X015175Y040631D01*
X015153Y040631D01*X015153Y040587D01*X015132Y040587D01*X015132Y040544D01*
X015110Y040544D01*X015110Y040501D01*X015089Y040501D01*X015089Y040458D01*
X015067Y040458D01*X015067Y040415D01*X015024Y040415D01*X015024Y040436D01*
X015002Y040436D01*X015002Y040479D01*X014981Y040479D01*X014981Y040523D01*
X014959Y040523D01*X014959Y040566D01*X014937Y040566D01*X014937Y040609D01*
X014916Y040609D01*X014916Y040631D01*X014894Y040631D01*X014894Y040674D01*
X014873Y040674D01*X014873Y040717D01*X014851Y040717D01*X014851Y040760D01*
X014829Y040760D01*X014829Y040803D01*X014462Y040803D01*X014462Y040782D01*G37*G36*
X013857Y040998D02*X013857Y041019D01*X013879Y041019D01*X013879Y041149D01*
X013900Y041149D01*X013900Y041279D01*X013922Y041279D01*X013922Y041408D01*
X013944Y041408D01*X013944Y041495D01*X014440Y041495D01*X014440Y041473D01*
X014462Y041473D01*X014462Y041430D01*X014484Y041430D01*X014484Y041387D01*
X014505Y041387D01*X014505Y041343D01*X014527Y041343D01*X014527Y041322D01*
X014548Y041322D01*X014548Y041279D01*X014570Y041279D01*X014570Y041235D01*
X014592Y041235D01*X014592Y041192D01*X014613Y041192D01*X014613Y041149D01*
X014635Y041149D01*X014635Y041106D01*X014656Y041106D01*X014656Y041084D01*
X014678Y041084D01*X014678Y041041D01*X014700Y041041D01*X014700Y040998D01*
X014721Y040998D01*X014721Y040955D01*X014743Y040955D01*X014743Y040911D01*
X014765Y040911D01*X014765Y040868D01*X014786Y040868D01*X014786Y040847D01*
X014808Y040847D01*X014808Y040803D01*X014462Y040803D01*X014462Y040825D01*
X014440Y040825D01*X014440Y040868D01*X014419Y040868D01*X014419Y040911D01*
X014397Y040911D01*X014397Y040955D01*X014376Y040955D01*X014376Y040976D01*
X014354Y040976D01*X014354Y041019D01*X014332Y041019D01*X014332Y041063D01*
X014311Y041063D01*X014311Y041041D01*X014289Y041041D01*X014289Y040998D01*
X013857Y040998D01*G37*G36*X013598Y039542D02*X013598Y039564D01*X013620Y039564D01*
X013620Y039542D01*X013598Y039542D01*G37*G36*X012453Y040155D02*X012453Y040199D01*
X012475Y040199D01*X012475Y040307D01*X012496Y040307D01*X012496Y040415D01*
X012518Y040415D01*X012518Y040523D01*X012539Y040523D01*X012539Y040631D01*
X012561Y040631D01*X012561Y040739D01*X012583Y040739D01*X012583Y040847D01*
X012604Y040847D01*X012604Y040890D01*X012626Y040890D01*X012626Y040911D01*
X012647Y040911D01*X012647Y040933D01*X012669Y040933D01*X012669Y040955D01*
X012712Y040955D01*X012712Y040976D01*X012799Y040976D01*X012799Y040998D01*
X014268Y040998D01*X014268Y040955D01*X014246Y040955D01*X014246Y040890D01*
X014224Y040890D01*X014224Y040847D01*X014203Y040847D01*X014203Y040803D01*
X014181Y040803D01*X014181Y040760D01*X014160Y040760D01*X014160Y040695D01*
X014138Y040695D01*X014138Y040652D01*X014116Y040652D01*X014116Y040609D01*
X014095Y040609D01*X014095Y040566D01*X014073Y040566D01*X014073Y040501D01*
X014052Y040501D01*X014052Y040458D01*X014030Y040458D01*X014030Y040415D01*
X014008Y040415D01*X014008Y040371D01*X013987Y040371D01*X013987Y040328D01*
X013965Y040328D01*X013965Y040263D01*X013944Y040263D01*X013944Y040220D01*
X013922Y040220D01*X013922Y040177D01*X013900Y040177D01*X013900Y040134D01*
X013879Y040134D01*X013879Y040069D01*X013857Y040069D01*X013857Y040026D01*
X013836Y040026D01*X013836Y039983D01*X013814Y039983D01*X013814Y039939D01*
X013792Y039939D01*X013792Y039874D01*X013771Y039874D01*X013771Y039831D01*
X013749Y039831D01*X013749Y039788D01*X013728Y039788D01*X013728Y039745D01*
X013706Y039745D01*X013706Y039680D01*X013684Y039680D01*X013684Y039637D01*
X013663Y039637D01*X013663Y039594D01*X013641Y039594D01*X013641Y039550D01*
X013620Y039550D01*X013620Y039637D01*X013641Y039637D01*X013641Y039766D01*
X013663Y039766D01*X013663Y039896D01*X013684Y039896D01*X013684Y040004D01*
X013706Y040004D01*X013706Y040134D01*X013728Y040134D01*X013728Y040263D01*
X013749Y040263D01*X013749Y040393D01*X013771Y040393D01*X013771Y040523D01*
X013792Y040523D01*X013792Y040652D01*X013814Y040652D01*X013814Y040760D01*
X013836Y040760D01*X013836Y040803D01*X013101Y040803D01*X013101Y040782D01*
X013058Y040782D01*X013058Y040760D01*X013036Y040760D01*X013036Y040739D01*
X013015Y040739D01*X013015Y040652D01*X012993Y040652D01*X012993Y040544D01*
X012971Y040544D01*X012971Y040436D01*X012950Y040436D01*X012950Y040328D01*
X012928Y040328D01*X012928Y040220D01*X012907Y040220D01*X012907Y040155D01*
X012453Y040155D01*G37*G36*X010617Y040112D02*X010617Y040242D01*X010638Y040242D01*
X010638Y040371D01*X010660Y040371D01*X010660Y040393D01*X011092Y040393D01*
X011092Y040307D01*X011070Y040307D01*X011070Y040199D01*X011114Y040199D01*
X011114Y040177D01*X011178Y040177D01*X011178Y040155D01*X012907Y040155D01*
X012907Y040112D01*X012885Y040112D01*X012885Y039983D01*X012863Y039983D01*
X012863Y039961D01*X011006Y039961D01*X011006Y039983D01*X010833Y039983D01*
X010833Y040004D01*X010768Y040004D01*X010768Y040026D01*X010703Y040026D01*
X010703Y040047D01*X010682Y040047D01*X010682Y040069D01*X010660Y040069D01*
X010660Y040091D01*X010638Y040091D01*X010638Y040112D01*X010617Y040112D01*G37*G36*
X010660Y040393D02*X010660Y040479D01*X010682Y040479D01*X010682Y040587D01*
X010703Y040587D01*X010703Y040717D01*X010725Y040717D01*X010725Y040825D01*
X010746Y040825D01*X010746Y040890D01*X010768Y040890D01*X010768Y040911D01*
X010790Y040911D01*X010790Y040933D01*X010811Y040933D01*X010811Y040955D01*
X010854Y040955D01*X010854Y040976D01*X010941Y040976D01*X010941Y040998D01*
X012345Y040998D01*X012345Y040976D01*X012388Y040976D01*X012388Y040955D01*
X012410Y040955D01*X012410Y040933D01*X012431Y040933D01*X012431Y040695D01*
X012410Y040695D01*X012410Y040587D01*X011978Y040587D01*X011978Y040674D01*
X011999Y040674D01*X011999Y040782D01*X011978Y040782D01*X011978Y040803D01*
X011243Y040803D01*X011243Y040782D01*X011200Y040782D01*X011200Y040760D01*
X011178Y040760D01*X011178Y040739D01*X011157Y040739D01*X011157Y040674D01*
X011135Y040674D01*X011135Y040609D01*X011114Y040609D01*X011114Y040587D01*
X012410Y040587D01*X012410Y040544D01*X012388Y040544D01*X012388Y040479D01*
X012367Y040479D01*X012367Y040436D01*X012323Y040436D01*X012323Y040415D01*
X012302Y040415D01*X012302Y040393D01*X010660Y040393D01*G37*G36*X009472Y040155D02*
X009472Y040285D01*X009493Y040285D01*X009493Y040393D01*X009515Y040393D01*
X009515Y040523D01*X009537Y040523D01*X009537Y040631D01*X009558Y040631D01*
X009558Y040739D01*X009580Y040739D01*X009580Y040868D01*X009601Y040868D01*
X009601Y040976D01*X009623Y040976D01*X009623Y041084D01*X009645Y041084D01*
X009645Y041214D01*X009666Y041214D01*X009666Y041322D01*X009688Y041322D01*
X009688Y041408D01*X010163Y041408D01*X010163Y041387D01*X010142Y041387D01*
X010142Y041279D01*X010120Y041279D01*X010120Y041192D01*X010098Y041192D01*
X010098Y041084D01*X010077Y041084D01*X010077Y040998D01*X010638Y040998D01*
X010638Y040955D01*X010617Y040955D01*X010617Y040825D01*X010595Y040825D01*
X010595Y040803D01*X010034Y040803D01*X010034Y040739D01*X010012Y040739D01*
X010012Y040652D01*X009990Y040652D01*X009990Y040544D01*X009969Y040544D01*
X009969Y040436D01*X009947Y040436D01*X009947Y040350D01*X009925Y040350D01*
X009925Y040199D01*X009947Y040199D01*X009947Y040177D01*X009990Y040177D01*
X009990Y040155D01*X010530Y040155D01*X010530Y040026D01*X010509Y040026D01*
X010509Y039961D01*X009969Y039961D01*X009969Y039983D01*X009731Y039983D01*
X009731Y040004D01*X009666Y040004D01*X009666Y040026D01*X009601Y040026D01*
X009601Y040047D01*X009580Y040047D01*X009580Y040069D01*X009537Y040069D01*
X009537Y040091D01*X009515Y040091D01*X009515Y040112D01*X009493Y040112D01*
X009493Y040155D01*X009472Y040155D01*G37*G36*X007592Y039983D02*X007592Y040047D01*
X007614Y040047D01*X007614Y040155D01*X007636Y040155D01*X007636Y040263D01*
X007657Y040263D01*X007657Y040393D01*X007679Y040393D01*X007679Y040479D01*
X007700Y040479D01*X007700Y040609D01*X007722Y040609D01*X007722Y040717D01*
X007744Y040717D01*X007744Y040825D01*X007765Y040825D01*X007765Y040911D01*
X007787Y040911D01*X007787Y040998D01*X009040Y040998D01*X009040Y040976D01*
X009169Y040976D01*X009169Y040955D01*X009234Y040955D01*X009234Y040933D01*
X009299Y040933D01*X009299Y040911D01*X009342Y040911D01*X009342Y040890D01*
X009364Y040890D01*X009364Y040868D01*X009407Y040868D01*X009407Y040825D01*
X009429Y040825D01*X009429Y040674D01*X009407Y040674D01*X009407Y040544D01*
X009385Y040544D01*X009385Y040393D01*X009364Y040393D01*X009364Y040263D01*
X009342Y040263D01*X009342Y040134D01*X009321Y040134D01*X009321Y039983D01*
X008845Y039983D01*X008845Y040026D01*X008867Y040026D01*X008867Y040134D01*
X008889Y040134D01*X008889Y040285D01*X008910Y040285D01*X008910Y040393D01*
X008932Y040393D01*X008932Y040523D01*X008953Y040523D01*X008953Y040631D01*
X008975Y040631D01*X008975Y040760D01*X008953Y040760D01*X008953Y040782D01*
X008910Y040782D01*X008910Y040803D01*X008197Y040803D01*X008197Y040782D01*
X008176Y040782D01*X008176Y040652D01*X008154Y040652D01*X008154Y040544D01*
X008132Y040544D01*X008132Y040436D01*X008111Y040436D01*X008111Y040307D01*
X008089Y040307D01*X008089Y040220D01*X008068Y040220D01*X008068Y040091D01*
X008046Y040091D01*X008046Y039983D01*X007592Y039983D01*G37*G36*X006923Y039961D02*
X007420Y039961D01*X007420Y040004D01*X007441Y040004D01*X007441Y040112D01*
X007463Y040112D01*X007463Y040220D01*X007484Y040220D01*X007484Y040328D01*
X007506Y040328D01*X007506Y040436D01*X007528Y040436D01*X007528Y040566D01*
X007549Y040566D01*X007549Y040674D01*X007571Y040674D01*X007571Y040782D01*
X007592Y040782D01*X007592Y040890D01*X007614Y040890D01*X007614Y040998D01*
X007636Y040998D01*X007636Y041106D01*X007657Y041106D01*X007657Y041235D01*
X007679Y041235D01*X007679Y041343D01*X007700Y041343D01*X007700Y041451D01*
X007722Y041451D01*X007722Y041560D01*X007744Y041560D01*X007744Y041603D01*
X007225Y041603D01*X007225Y041603D01*X007225Y041516D01*X007204Y041516D01*
X007204Y041408D01*X007182Y041408D01*X007182Y041300D01*X007160Y041300D01*
X007160Y041171D01*X007139Y041171D01*X007139Y041063D01*X007117Y041063D01*
X007117Y040955D01*X007096Y040955D01*X007096Y040847D01*X007074Y040847D01*
X007074Y040739D01*X007052Y040739D01*X007052Y040609D01*X007031Y040609D01*
X007031Y040501D01*X007009Y040501D01*X007009Y040393D01*X006988Y040393D01*
X006988Y040285D01*X006966Y040285D01*X006966Y040177D01*X006944Y040177D01*
X006944Y040047D01*X006923Y040047D01*X006923Y039961D01*G37*G36*X002775Y040514D02*
X002797Y040514D01*X002797Y040450D01*X002818Y040450D01*X002818Y040406D01*
X002840Y040406D01*X002840Y040363D01*X002861Y040363D01*X002861Y040320D01*
X002883Y040320D01*X002883Y040298D01*X002905Y040298D01*X002905Y040255D01*
X002926Y040255D01*X002926Y040233D01*X002948Y040233D01*X002948Y040212D01*
X002969Y040212D01*X002969Y040190D01*X002991Y040190D01*X002991Y040169D01*
X003013Y040169D01*X003013Y040147D01*X003034Y040147D01*X003034Y040126D01*
X003077Y040126D01*X003077Y040104D01*X003099Y040104D01*X003099Y040082D01*
X003120Y040082D01*X003120Y040061D01*X003164Y040061D01*X003164Y040039D01*
X003186Y040039D01*X003186Y040017D01*X003229Y040017D01*X003229Y039996D01*
X003250Y039996D01*X003250Y039974D01*X003293Y039974D01*X003293Y039953D01*
X003315Y039953D01*X003315Y039931D01*X003358Y039931D01*X003358Y039909D01*
X003401Y039909D01*X003401Y039888D01*X003445Y039888D01*X003445Y039866D01*
X003488Y039866D01*X003488Y039845D01*X003531Y039845D01*X003531Y039823D01*
X003574Y039823D01*X003574Y039801D01*X003617Y039801D01*X003617Y039780D01*
X003661Y039780D01*X003661Y039758D01*X003704Y039758D01*X003704Y039737D01*
X003768Y039737D01*X003768Y039715D01*X003790Y039715D01*X003790Y039693D01*
X003855Y039693D01*X003855Y039672D01*X003899Y039672D01*X003899Y039650D01*
X003942Y039650D01*X003942Y039629D01*X003985Y039629D01*X003985Y039607D01*
X004028Y039607D01*X004028Y039650D01*X004007Y039650D01*X004007Y039889D01*
X004028Y039889D01*X004028Y039974D01*X004049Y039974D01*X004049Y040040D01*
X004071Y040040D01*X004071Y040104D01*X004093Y040104D01*X004093Y040147D01*
X004115Y040147D01*X004115Y040212D01*X004137Y040212D01*X004137Y040255D01*
X004158Y040255D01*X004158Y040276D01*X004180Y040276D01*X004180Y040320D01*
X004201Y040320D01*X004201Y040363D01*X004223Y040363D01*X004223Y040406D01*
X004244Y040406D01*X004244Y040450D01*X004266Y040450D01*X004266Y040471D01*
X004287Y040471D01*X004287Y040514D01*X004308Y040514D01*X004308Y040536D01*
X004331Y040536D01*X004331Y040579D01*X004352Y040579D01*X004352Y040601D01*
X004373Y040601D01*X004373Y040644D01*X004396Y040644D01*X004396Y040666D01*
X004417Y040666D01*X004417Y040709D01*X004438Y040709D01*X004438Y040752D01*
X004460Y040752D01*X004460Y040774D01*X004482Y040774D01*X004482Y040817D01*
X004503Y040817D01*X004503Y040838D01*X004525Y040838D01*X004525Y040881D01*
X004547Y040881D01*X004547Y040903D01*X004568Y040903D01*X004568Y040946D01*
X004589Y040946D01*X004589Y040990D01*X004611Y040990D01*X004611Y041011D01*
X004633Y041011D01*X004633Y041055D01*X004654Y041055D01*X004654Y041098D01*
X004677Y041098D01*X004677Y041141D01*X004698Y041141D01*X004698Y041163D01*
X004093Y041163D01*X004093Y041141D01*X004071Y041141D01*X004071Y041162D01*
X004050Y041162D01*X004050Y041141D01*X003877Y041141D01*X003877Y041120D01*
X003727Y041120D01*X003727Y041098D01*X003640Y041098D01*X003640Y041077D01*
X003552Y041077D01*X003552Y041055D01*X003488Y041055D01*X003488Y041032D01*
X003445Y041032D01*X003445Y041012D01*X003379Y041012D01*X003379Y040989D01*
X003337Y040989D01*X003337Y040968D01*X003293Y040968D01*X003293Y040946D01*
X003271Y040946D01*X003271Y040925D01*X003229Y040925D01*X003229Y040903D01*
X003206Y040903D01*X003206Y040882D01*X003186Y040882D01*X003186Y040861D01*
X003164Y040861D01*X003164Y040839D01*X003143Y040839D01*X003143Y040817D01*
X003121Y040817D01*X003121Y040860D01*X003143Y040860D01*X003143Y040881D01*
X003165Y040881D01*X003165Y040925D01*X003185Y040925D01*X003185Y040946D01*
X003207Y040946D01*X003207Y040968D01*X003228Y040968D01*X003228Y040990D01*
X003251Y040990D01*X003251Y041011D01*X003272Y041011D01*X003272Y041033D01*
X003294Y041033D01*X003294Y041054D01*X003337Y041054D01*X003337Y041076D01*
X003358Y041076D01*X003358Y041098D01*X003379Y041098D01*X003379Y041119D01*
X003423Y041119D01*X003423Y041140D01*X003445Y041140D01*X003445Y041162D01*
X003488Y041162D01*X003488Y041184D01*X003531Y041184D01*X003531Y041206D01*
X003574Y041206D01*X003574Y041227D01*X003640Y041227D01*X003640Y041249D01*
X003683Y041249D01*X003683Y041270D01*X003747Y041270D01*X003747Y041293D01*
X003813Y041293D01*X003813Y041314D01*X003878Y041314D01*X003878Y041335D01*
X003964Y041335D01*X003964Y041356D01*X004050Y041356D01*X004050Y041378D01*
X004157Y041378D01*X004157Y041400D01*X004287Y041400D01*X004287Y041421D01*
X004481Y041421D01*X004481Y041443D01*X005044Y041443D01*X005044Y041465D01*
X005216Y041465D01*X005216Y041486D01*X005303Y041486D01*X005303Y041508D01*
X005367Y041508D01*X005367Y041530D01*X005433Y041530D01*X005433Y041551D01*
X005562Y041551D01*X005562Y041529D01*X005583Y041529D01*X005583Y041508D01*
X005605Y041508D01*X005605Y041443D01*X005583Y041443D01*X005583Y041378D01*
X005562Y041378D01*X005562Y041335D01*X005540Y041335D01*X005540Y041292D01*
X005518Y041292D01*X005518Y041270D01*X005497Y041270D01*X005497Y041227D01*
X005475Y041227D01*X005475Y041206D01*X005454Y041206D01*X005454Y041163D01*
X005432Y041163D01*X005432Y041141D01*X005410Y041141D01*X005410Y041098D01*
X005389Y041098D01*X005389Y041076D01*X005367Y041076D01*X005367Y041033D01*
X005346Y041033D01*X005346Y041011D01*X005324Y041011D01*X005324Y040990D01*
X005303Y040990D01*X005303Y040968D01*X005281Y040968D01*X005281Y040925D01*
X005259Y040925D01*X005259Y040904D01*X005238Y040904D01*X005238Y040882D01*
X005216Y040882D01*X005216Y040839D01*X005195Y040839D01*X005195Y040817D01*
X005173Y040817D01*X005173Y040796D01*X005151Y040796D01*X005151Y040752D01*
X005130Y040752D01*X005130Y040730D01*X005108Y040730D01*X005108Y040709D01*
X005086Y040709D01*X005086Y040687D01*X005065Y040687D01*X005065Y040644D01*
X005043Y040644D01*X005043Y040622D01*X005022Y040622D01*X005022Y040601D01*
X005000Y040601D01*X005000Y040580D01*X004979Y040580D01*X004979Y040536D01*
X004957Y040536D01*X004957Y040514D01*X004935Y040514D01*X004935Y040493D01*
X004914Y040493D01*X004914Y040450D01*X004892Y040450D01*X004892Y040428D01*
X004870Y040428D01*X004870Y040407D01*X004848Y040407D01*X004848Y040363D01*
X004827Y040363D01*X004827Y040341D01*X004806Y040341D01*X004806Y040320D01*
X004784Y040320D01*X004784Y040277D01*X004762Y040277D01*X004762Y040255D01*
X004741Y040255D01*X004741Y040212D01*X004719Y040212D01*X004719Y040190D01*
X004698Y040190D01*X004698Y040147D01*X004676Y040147D01*X004676Y040125D01*
X004654Y040125D01*X004654Y040082D01*X004633Y040082D01*X004633Y040039D01*
X004611Y040039D01*X004611Y039996D01*X004590Y039996D01*X004590Y039953D01*
X004568Y039953D01*X004568Y039910D01*X004547Y039910D01*X004547Y039867D01*
X004525Y039867D01*X004525Y039802D01*X004503Y039802D01*X004503Y039650D01*
X004525Y039650D01*X004525Y039607D01*X004547Y039607D01*X004547Y039585D01*
X004741Y039585D01*X004741Y039608D01*X004806Y039608D01*X004806Y039629D01*
X004849Y039629D01*X004849Y039650D01*X004870Y039650D01*X004870Y039673D01*
X004892Y039673D01*X004892Y039694D01*X004914Y039694D01*X004914Y039715D01*
X004936Y039715D01*X004936Y039737D01*X004957Y039737D01*X004957Y039758D01*
X004979Y039758D01*X004979Y039801D01*X005000Y039801D01*X005000Y039823D01*
X005022Y039823D01*X005022Y039845D01*X005064Y039845D01*X005064Y039866D01*
X005108Y039866D01*X005108Y039888D01*X005195Y039888D01*X005195Y039866D01*
X005238Y039866D01*X005238Y039823D01*X005259Y039823D01*X005259Y039651D01*
X005238Y039651D01*X005238Y039607D01*X005216Y039607D01*X005216Y039585D01*
X005195Y039585D01*X005195Y039564D01*X005173Y039564D01*X005173Y039543D01*
X005151Y039543D01*X005151Y039520D01*X005130Y039520D01*X005130Y039499D01*
X005107Y039499D01*X005107Y039477D01*X005065Y039477D01*X005065Y039455D01*
X005043Y039455D01*X005043Y039434D01*X005000Y039434D01*X005000Y039412D01*
X004957Y039412D01*X004957Y039391D01*X004892Y039391D01*X004892Y039369D01*
X004828Y039369D01*X004828Y039348D01*X004741Y039348D01*X004741Y039327D01*
X004827Y039327D01*X004827Y039304D01*X004978Y039304D01*X004978Y039283D01*
X005173Y039283D01*X005173Y039304D01*X005324Y039304D01*X005324Y039326D01*
X005388Y039326D01*X005388Y039348D01*X005454Y039348D01*X005454Y039370D01*
X005497Y039370D01*X005497Y039391D01*X005540Y039391D01*X005540Y039413D01*
X005562Y039413D01*X005562Y039435D01*X005605Y039435D01*X005605Y039455D01*
X005626Y039455D01*X005626Y039478D01*X005670Y039478D01*X005670Y039498D01*
X005691Y039498D01*X005691Y039520D01*X005713Y039520D01*X005713Y039542D01*
X005735Y039542D01*X005735Y039564D01*X005756Y039564D01*X005756Y039586D01*
X005778Y039586D01*X005778Y039607D01*X005800Y039607D01*X005800Y039628D01*
X005821Y039628D01*X005821Y039672D01*X005843Y039672D01*X005843Y039694D01*
X005864Y039694D01*X005864Y039715D01*X005886Y039715D01*X005886Y039758D01*
X005908Y039758D01*X005908Y039801D01*X005929Y039801D01*X005929Y039845D01*
X005951Y039845D01*X005951Y039866D01*X005972Y039866D01*X005972Y039931D01*
X005994Y039931D01*X005994Y039974D01*X006015Y039974D01*X006015Y040017D01*
X006037Y040017D01*X006037Y040061D01*X006058Y040061D01*X006058Y040126D01*
X006080Y040126D01*X006080Y040169D01*X006102Y040169D01*X006102Y040233D01*
X006124Y040233D01*X006124Y040297D01*X006146Y040297D01*X006146Y040341D01*
X006167Y040341D01*X006167Y040407D01*X006189Y040407D01*X006189Y040471D01*
X006210Y040471D01*X006210Y040514D01*X006231Y040514D01*X006231Y040579D01*
X006253Y040579D01*X006253Y040644D01*X006275Y040644D01*X006275Y040730D01*
X006296Y040730D01*X006296Y040796D01*X006317Y040796D01*X006317Y040882D01*
X006340Y040882D01*X006340Y040989D01*X006361Y040989D01*X006361Y041119D01*
X006382Y041119D01*X006382Y041595D01*X006360Y041595D01*X006360Y041681D01*
X006339Y041681D01*X006339Y041767D01*X006318Y041767D01*X006318Y041810D01*
X006296Y041810D01*X006296Y041875D01*X006275Y041875D01*X006275Y041897D01*
X006253Y041897D01*X006253Y041940D01*X006232Y041940D01*X006232Y041962D01*
X006210Y041962D01*X006210Y041984D01*X006189Y041984D01*X006189Y042027D01*
X006167Y042027D01*X006167Y042049D01*X006144Y042049D01*X006144Y042070D01*
X006101Y042070D01*X006101Y042091D01*X006079Y042091D01*X006079Y042113D01*
X006059Y042113D01*X006059Y042134D01*X006017Y042134D01*X006017Y042156D01*
X005973Y042156D01*X005973Y042177D01*X005908Y042177D01*X005908Y042200D01*
X005864Y042200D01*X005864Y042092D01*X005842Y042092D01*X005842Y042048D01*
X005821Y042048D01*X005821Y042005D01*X005799Y042005D01*X005799Y041961D01*
X005778Y041961D01*X005778Y041941D01*X005756Y041941D01*X005756Y041919D01*
X005735Y041919D01*X005735Y041897D01*X005713Y041897D01*X005713Y041875D01*
X005692Y041875D01*X005692Y041854D01*X005648Y041854D01*X005648Y041832D01*
X005605Y041832D01*X005605Y041811D01*X005519Y041811D01*X005519Y041788D01*
X005367Y041788D01*X005367Y041811D01*X005302Y041811D01*X005302Y041832D01*
X005259Y041832D01*X005259Y041854D01*X005238Y041854D01*X005238Y041876D01*
X005216Y041876D01*X005216Y041897D01*X005195Y041897D01*X005195Y041919D01*
X005173Y041919D01*X005173Y041962D01*X005152Y041962D01*X005152Y042135D01*
X005173Y042135D01*X005173Y042178D01*X005195Y042178D01*X005195Y042221D01*
X005065Y042221D01*X005065Y042199D01*X004957Y042199D01*X004957Y042178D01*
X004870Y042178D01*X004870Y042156D01*X004784Y042156D01*X004784Y042135D01*
X004719Y042135D01*X004719Y042113D01*X004633Y042113D01*X004633Y042091D01*
X004568Y042091D01*X004568Y042070D01*X004503Y042070D01*X004503Y042048D01*
X004460Y042048D01*X004460Y042026D01*X004395Y042026D01*X004395Y042005D01*
X004352Y042005D01*X004352Y041983D01*X004287Y041983D01*X004287Y041962D01*
X004244Y041962D01*X004244Y041940D01*X004201Y041940D01*X004201Y041919D01*
X004158Y041919D01*X004158Y041897D01*X004114Y041897D01*X004114Y041875D01*
X004050Y041875D01*X004050Y041854D01*X004006Y041854D01*X004006Y041832D01*
X003963Y041832D01*X003963Y041811D01*X003942Y041811D01*X003942Y041789D01*
X003898Y041789D01*X003898Y041767D01*X003855Y041767D01*X003855Y041746D01*
X003812Y041746D01*X003812Y041724D01*X003769Y041724D01*X003769Y041703D01*
X003726Y041703D01*X003726Y041681D01*X003704Y041681D01*X003704Y041659D01*
X003661Y041659D01*X003661Y041638D01*X003617Y041638D01*X003617Y041616D01*
X003574Y041616D01*X003574Y041595D01*X003553Y041595D01*X003553Y041573D01*
X003509Y041573D01*X003509Y041552D01*X003466Y041552D01*X003466Y041530D01*
X003445Y041530D01*X003445Y041508D01*X003402Y041508D01*X003402Y041486D01*
X003380Y041486D01*X003380Y041465D01*X003337Y041465D01*X003337Y041443D01*
X003293Y041443D01*X003293Y041422D01*X003272Y041422D01*X003272Y041400D01*
X003229Y041400D01*X003229Y041379D01*X003207Y041379D01*X003207Y041357D01*
X003185Y041357D01*X003185Y041336D01*X003142Y041336D01*X003142Y041314D01*
X003120Y041314D01*X003120Y041292D01*X003099Y041292D01*X003099Y041271D01*
X003077Y041271D01*X003077Y041249D01*X003056Y041249D01*X003056Y041227D01*
X003034Y041227D01*X003034Y041206D01*X003013Y041206D01*X003013Y041184D01*
X002991Y041184D01*X002991Y041162D01*X002969Y041162D01*X002969Y041141D01*
X002948Y041141D01*X002948Y041098D01*X002926Y041098D01*X002926Y041076D01*
X002905Y041076D01*X002905Y041033D01*X002883Y041033D01*X002883Y041011D01*
X002861Y041011D01*X002861Y040968D01*X002840Y040968D01*X002840Y040925D01*
X002818Y040925D01*X002818Y040860D01*X002797Y040860D01*X002797Y040774D01*
X002775Y040774D01*X002775Y040514D01*
G37*G36*X015607Y040371D02*X015607Y040458D01*
X015629Y040458D01*X015629Y040566D01*X015650Y040566D01*X015650Y040674D01*
X015672Y040674D01*X015672Y040782D01*X015693Y040782D01*X015693Y040868D01*
X015715Y040868D01*X015715Y040911D01*X015737Y040911D01*X015737Y040933D01*
X015758Y040933D01*X015758Y040955D01*X015801Y040955D01*X015801Y040976D01*
X015888Y040976D01*X015888Y040998D01*X017292Y040998D01*X017292Y040976D01*
X017335Y040976D01*X017335Y040955D01*X017378Y040955D01*X017378Y040911D01*
X017400Y040911D01*X017400Y040760D01*X017378Y040760D01*X017378Y040609D01*
X017357Y040609D01*X017357Y040587D01*X016925Y040587D01*X016925Y040652D01*
X016946Y040652D01*X016946Y040782D01*X016925Y040782D01*X016925Y040803D01*
X016212Y040803D01*X016212Y040782D01*X016169Y040782D01*X016169Y040760D01*
X016147Y040760D01*X016147Y040739D01*X016125Y040739D01*X016125Y040717D01*
X016104Y040717D01*X016104Y040652D01*X016082Y040652D01*X016082Y040587D01*
X017357Y040587D01*X017357Y040544D01*X017357Y040501D01*X017335Y040501D01*
X017335Y040458D01*X017314Y040458D01*X017314Y040436D01*X017292Y040436D01*
X017292Y040415D01*X017249Y040415D01*X017249Y040393D01*X017162Y040393D01*
X017162Y040371D01*X015607Y040371D01*G37*G36*X015564Y040134D02*X015564Y040220D01*
X015585Y040220D01*X015585Y040350D01*X015607Y040350D01*X015607Y040371D01*
X016039Y040371D01*X016039Y040307D01*X016039Y040263D01*X016017Y040263D01*
X016017Y040220D01*X016039Y040220D01*X016039Y040199D01*X016082Y040199D01*
X016082Y040177D01*X016147Y040177D01*X016147Y040155D01*X017962Y040155D01*
X017962Y040134D01*X017918Y040134D01*X017918Y040112D01*X017897Y040112D01*
X017897Y040091D01*X017854Y040091D01*X017854Y040069D01*X017832Y040069D01*
X017832Y040047D01*X017789Y040047D01*X017789Y040026D01*X017767Y040026D01*
X017767Y040004D01*X017724Y040004D01*X017724Y039983D01*X017702Y039983D01*
X017702Y039961D01*X015931Y039961D01*X015931Y039983D01*X015780Y039983D01*
X015780Y040004D01*X015715Y040004D01*X015715Y040026D01*X015650Y040026D01*
X015650Y040047D01*X015629Y040047D01*X015629Y040069D01*X015607Y040069D01*
X015607Y040091D01*X015585Y040091D01*X015585Y040134D01*X015564Y040134D01*G37*
X000000Y000000D02*M02*
