%MOMM*%
%FSLAX33Y33*%
%ADD10C,0.203200*%
%ADD14C,0.070000*%
%ADD17C,1.300000*%
%ADD71R,1.300000X1.300000*%
%ADD25C,1.400000*%
%ADD73R,1.400000X1.400000*%
%ADD135C,0.750000*%
%ADD140C,1.200000*%
%ADD141R,1.200000X1.200000*%
%ADD142C,1.050000*%
%ADD143C,2.100000*%
%ADD144C,0.100000*%
%ADD191C,0.530000*%
G90*G71*G01*D02*G54D10*X000000Y000000D02*X057000Y000000D01*X057000Y035000D01*
X000000Y035000D01*X000000Y000000D01*D02*G54D14*X019750Y042500D02*
X002250Y042500D01*X002250Y039000D01*X019750Y039000D01*X019750Y040750D02*
X054750Y040750D01*X033750Y042500D02*X033750Y039000D01*X019750Y042500D02*
X054750Y042500D01*X054750Y039000D02*X019750Y039000D01*X019750Y042500D02*
X019750Y039000D01*X054750Y042500D02*X054750Y039000D01*X044250Y042500D02*
X044250Y039000D01*X046154Y040098D02*X046154Y040066D01*X046186Y040066D01*
X046186Y040098D01*X046154Y040098D01*X046154Y040130D02*X046186Y040130D01*
X046218Y040098D01*X046218Y040066D01*X046186Y040034D01*X046154Y040034D01*
X046123Y040066D01*X046123Y040098D01*X046154Y040161D01*X046186Y040193D01*
X046282Y040214D01*X046414Y040214D01*X046509Y040193D01*X046541Y040161D01*
X046578Y040098D01*X046578Y040034D01*X046541Y039981D01*X046446Y039917D01*
X046282Y039854D01*X046218Y039822D01*X046154Y039758D01*X046123Y039673D01*
X046123Y039578D01*X046509Y040161D02*X046541Y040098D01*X046541Y040034D01*
X046509Y039981D01*X046414Y040214D02*X046477Y040193D01*X046509Y040098D01*
X046509Y040034D01*X046477Y039981D01*X046414Y039917D01*X046282Y039854D01*
X046123Y039642D02*X046154Y039673D01*X046218Y039673D01*X046377Y039642D01*
X046509Y039642D01*X046578Y039673D01*X046218Y039673D02*X046377Y039610D01*
X046509Y039610D01*X046541Y039642D01*X046218Y039673D02*X046377Y039578D01*
X046509Y039578D01*X046541Y039610D01*X046578Y039673D01*X046578Y039727D01*
X047014Y040214D02*X046918Y040193D01*X046854Y040098D01*X046823Y039949D01*
X046823Y039854D01*X046854Y039705D01*X046918Y039610D01*X047014Y039578D01*
X047082Y039578D01*X047177Y039610D01*X047241Y039705D01*X047278Y039854D01*
X047278Y039949D01*X047241Y040098D01*X047177Y040193D01*X047082Y040214D01*
X047014Y040214D01*X046918Y040161D02*X046886Y040098D01*X046854Y039981D01*
X046854Y039822D01*X046886Y039705D01*X046918Y039642D01*X047177Y039642D02*
X047209Y039705D01*X047241Y039822D01*X047241Y039981D01*X047209Y040098D01*
X047177Y040161D01*X047014Y040214D02*X046950Y040193D01*X046918Y040130D01*
X046886Y039981D01*X046886Y039822D01*X046918Y039673D01*X046950Y039610D01*
X047014Y039578D01*X047082Y039578D02*X047146Y039610D01*X047177Y039673D01*
X047209Y039822D01*X047209Y039981D01*X047177Y040130D01*X047146Y040193D01*
X047082Y040214D01*X047727Y040161D02*X047727Y039578D01*X047745Y040161D02*
X047745Y039610D01*X047759Y040214D02*X047759Y039578D01*X047759Y040214D02*
X047714Y040130D01*X047686Y040098D01*X047673Y039578D02*X047818Y039578D01*
X047727Y039610D02*X047700Y039578D01*X047727Y039642D02*X047714Y039578D01*
X047759Y039642D02*X047773Y039578D01*X047759Y039610D02*X047786Y039578D01*
X048577Y040130D02*X048577Y040098D01*X048609Y040098D01*X048609Y040130D01*
X048577Y040130D01*X048609Y040161D02*X048577Y040161D01*X048546Y040130D01*
X048546Y040098D01*X048577Y040066D01*X048609Y040066D01*X048641Y040098D01*
X048641Y040130D01*X048609Y040193D01*X048546Y040214D01*X048450Y040214D01*
X048350Y040193D01*X048286Y040130D01*X048254Y040066D01*X048223Y039949D01*
X048223Y039758D01*X048254Y039673D01*X048318Y039610D01*X048414Y039578D01*
X048482Y039578D01*X048577Y039610D01*X048641Y039673D01*X048678Y039758D01*
X048678Y039790D01*X048641Y039886D01*X048577Y039949D01*X048482Y039981D01*
X048414Y039981D01*X048350Y039949D01*X048318Y039917D01*X048286Y039854D01*
X048318Y040130D02*X048286Y040066D01*X048254Y039949D01*X048254Y039758D01*
X048286Y039673D01*X048318Y039642D01*X048609Y039673D02*X048641Y039727D01*
X048641Y039822D01*X048609Y039886D01*X048450Y040214D02*X048382Y040193D01*
X048350Y040161D01*X048318Y040098D01*X048286Y039981D01*X048286Y039758D01*
X048318Y039673D01*X048350Y039610D01*X048414Y039578D01*X048482Y039578D02*
X048546Y039610D01*X048577Y039642D01*X048609Y039727D01*X048609Y039822D01*
X048577Y039917D01*X048546Y039949D01*X048482Y039981D01*X049141Y039673D02*
X049127Y039642D01*X049127Y039610D01*X049141Y039578D01*X049155Y039578D01*
X049168Y039610D01*X049168Y039642D01*X049155Y039673D01*X049141Y039673D01*
X049141Y039642D02*X049141Y039610D01*X049155Y039610D01*X049155Y039642D01*
X049141Y039642D01*X049827Y040161D02*X049827Y039578D01*X049845Y040161D02*
X049845Y039610D01*X049859Y040214D02*X049859Y039578D01*X049859Y040214D02*
X049814Y040130D01*X049786Y040098D01*X049773Y039578D02*X049918Y039578D01*
X049827Y039610D02*X049800Y039578D01*X049827Y039642D02*X049814Y039578D01*
X049859Y039642D02*X049873Y039578D01*X049859Y039610D02*X049886Y039578D01*
X050514Y040214D02*X050418Y040193D01*X050354Y040098D01*X050322Y039949D01*
X050322Y039854D01*X050354Y039705D01*X050418Y039610D01*X050514Y039578D01*
X050582Y039578D01*X050677Y039610D01*X050741Y039705D01*X050777Y039854D01*
X050777Y039949D01*X050741Y040098D01*X050677Y040193D01*X050582Y040214D01*
X050514Y040214D01*X050418Y040161D02*X050386Y040098D01*X050354Y039981D01*
X050354Y039822D01*X050386Y039705D01*X050418Y039642D01*X050677Y039642D02*
X050709Y039705D01*X050741Y039822D01*X050741Y039981D01*X050709Y040098D01*
X050677Y040161D01*X050514Y040214D02*X050450Y040193D01*X050418Y040130D01*
X050386Y039981D01*X050386Y039822D01*X050418Y039673D01*X050450Y039610D01*
X050514Y039578D01*X050582Y039578D02*X050646Y039610D01*X050677Y039673D01*
X050709Y039822D01*X050709Y039981D01*X050677Y040130D01*X050646Y040193D01*
X050582Y040214D01*X051241Y039673D02*X051227Y039642D01*X051227Y039610D01*
X051241Y039578D01*X051255Y039578D01*X051268Y039610D01*X051268Y039642D01*
X051255Y039673D01*X051241Y039673D01*X051241Y039642D02*X051241Y039610D01*
X051255Y039610D01*X051255Y039642D01*X051241Y039642D01*X051914Y040214D02*
X051818Y040193D01*X051754Y040098D01*X051722Y039949D01*X051722Y039854D01*
X051754Y039705D01*X051818Y039610D01*X051914Y039578D01*X051982Y039578D01*
X052077Y039610D01*X052141Y039705D01*X052177Y039854D01*X052177Y039949D01*
X052141Y040098D01*X052077Y040193D01*X051982Y040214D01*X051914Y040214D01*
X051818Y040161D02*X051786Y040098D01*X051754Y039981D01*X051754Y039822D01*
X051786Y039705D01*X051818Y039642D01*X052077Y039642D02*X052109Y039705D01*
X052141Y039822D01*X052141Y039981D01*X052109Y040098D01*X052077Y040161D01*
X051914Y040214D02*X051850Y040193D01*X051818Y040130D01*X051786Y039981D01*
X051786Y039822D01*X051818Y039673D01*X051850Y039610D01*X051914Y039578D01*
X051982Y039578D02*X052046Y039610D01*X052077Y039673D01*X052109Y039822D01*
X052109Y039981D01*X052077Y040130D01*X052046Y040193D01*X051982Y040214D01*
X052677Y040130D02*X052677Y039578D01*X052705Y040161D02*X052705Y039610D01*
X052732Y040214D02*X052732Y039578D01*X052732Y040214D02*X052422Y039758D01*
X052877Y039758D01*X052591Y039578D02*X052818Y039578D01*X052677Y039610D02*
X052618Y039578D01*X052677Y039642D02*X052645Y039578D01*X052732Y039642D02*
X052759Y039578D01*X052732Y039610D02*X052791Y039578D01*X048300Y041964D02*
X048300Y041328D01*X048327Y041943D02*X048327Y041360D01*X048354Y041964D02*
X048354Y041328D01*X048223Y041964D02*X048486Y041964D01*X048568Y041943D01*
X048623Y041880D01*X048650Y041816D01*X048678Y041731D01*X048678Y041572D01*
X048650Y041477D01*X048623Y041423D01*X048568Y041360D01*X048486Y041328D01*
X048223Y041328D01*X048596Y041880D02*X048623Y041816D01*X048650Y041731D01*
X048650Y041572D01*X048623Y041477D01*X048596Y041423D01*X048486Y041964D02*
X048541Y041943D01*X048596Y041848D01*X048623Y041731D01*X048623Y041572D01*
X048596Y041455D01*X048541Y041360D01*X048486Y041328D01*X048245Y041964D02*
X048300Y041943D01*X048273Y041964D02*X048300Y041911D01*X048382Y041964D02*
X048354Y041911D01*X048409Y041964D02*X048354Y041943D01*X048300Y041360D02*
X048245Y041328D01*X048300Y041392D02*X048273Y041328D01*X048354Y041392D02*
X048382Y041328D01*X048354Y041360D02*X048409Y041328D01*X049150Y041964D02*
X048973Y041360D01*X049123Y041880D02*X049273Y041328D01*X049150Y041880D02*
X049300Y041328D01*X049150Y041964D02*X049323Y041328D01*X049023Y041508D02*
X049250Y041508D01*X048923Y041328D02*X049073Y041328D01*X049200Y041328D02*
X049378Y041328D01*X048973Y041360D02*X048945Y041328D01*X048973Y041360D02*
X049023Y041328D01*X049273Y041360D02*X049223Y041328D01*X049273Y041392D02*
X049250Y041328D01*X049300Y041392D02*X049350Y041328D01*X049623Y041964D02*
X049623Y041784D01*X049818Y041964D02*X049818Y041328D01*X049850Y041943D02*
X049850Y041360D01*X049877Y041964D02*X049877Y041328D01*X050077Y041964D02*
X050077Y041784D01*X049623Y041964D02*X050077Y041964D01*X049736Y041328D02*
X049959Y041328D01*X049650Y041964D02*X049623Y041784D01*X049677Y041964D02*
X049623Y041880D01*X049704Y041964D02*X049623Y041911D01*X049764Y041964D02*
X049623Y041943D01*X049932Y041964D02*X050077Y041943D01*X049991Y041964D02*
X050077Y041911D01*X050018Y041964D02*X050077Y041880D01*X050046Y041964D02*
X050077Y041784D01*X049818Y041360D02*X049764Y041328D01*X049818Y041392D02*
X049791Y041328D01*X049877Y041392D02*X049905Y041328D01*X049877Y041360D02*
X049932Y041328D01*X050404Y041964D02*X050404Y041328D01*X050432Y041943D02*
X050432Y041360D01*X050464Y041964D02*X050464Y041328D01*X050322Y041964D02*
X050777Y041964D01*X050777Y041784D01*X050464Y041667D02*X050632Y041667D01*
X050632Y041784D02*X050632Y041540D01*X050322Y041328D02*X050777Y041328D01*
X050777Y041508D01*X050350Y041964D02*X050404Y041943D01*X050377Y041964D02*
X050404Y041911D01*X050491Y041964D02*X050464Y041911D01*X050518Y041964D02*
X050464Y041943D01*X050632Y041964D02*X050777Y041943D01*X050691Y041964D02*
X050777Y041911D01*X050718Y041964D02*X050777Y041880D01*X050746Y041964D02*
X050777Y041784D01*X050632Y041784D02*X050605Y041667D01*X050632Y041540D01*
X050632Y041731D02*X050577Y041667D01*X050632Y041604D01*X050632Y041699D02*
X050518Y041667D01*X050632Y041636D01*X050404Y041360D02*X050350Y041328D01*
X050404Y041392D02*X050377Y041328D01*X050464Y041392D02*X050491Y041328D01*
X050464Y041360D02*X050518Y041328D01*X050632Y041328D02*X050777Y041360D01*
X050691Y041328D02*X050777Y041392D01*X050718Y041328D02*X050777Y041423D01*
X050746Y041328D02*X050777Y041508D01*X035714Y041964D02*X035714Y041328D01*
X035741Y041943D02*X035741Y041360D01*X035773Y041964D02*X035773Y041328D01*
X035623Y041964D02*X035864Y041964D01*X035623Y041328D02*X036078Y041328D01*
X036078Y041508D01*X035650Y041964D02*X035714Y041943D01*X035682Y041964D02*
X035714Y041911D01*X035805Y041964D02*X035773Y041911D01*X035832Y041964D02*
X035773Y041943D01*X035714Y041360D02*X035650Y041328D01*X035714Y041392D02*
X035682Y041328D01*X035773Y041392D02*X035805Y041328D01*X035773Y041360D02*
X035832Y041328D01*X035923Y041328D02*X036078Y041360D01*X035982Y041328D02*
X036078Y041392D01*X036014Y041328D02*X036078Y041423D01*X036046Y041328D02*
X036078Y041508D01*X036550Y041964D02*X036373Y041360D01*X036523Y041880D02*
X036673Y041328D01*X036550Y041880D02*X036700Y041328D01*X036550Y041964D02*
X036723Y041328D01*X036423Y041508D02*X036650Y041508D01*X036323Y041328D02*
X036473Y041328D01*X036600Y041328D02*X036778Y041328D01*X036373Y041360D02*
X036345Y041328D01*X036373Y041360D02*X036423Y041328D01*X036673Y041360D02*
X036623Y041328D01*X036673Y041392D02*X036650Y041328D01*X036700Y041392D02*
X036750Y041328D01*X037068Y041964D02*X037223Y041636D01*X037223Y041328D01*
X037091Y041964D02*X037245Y041636D01*X037245Y041360D01*X037109Y041964D02*
X037273Y041636D01*X037273Y041328D01*X037405Y041943D02*X037273Y041636D01*
X037023Y041964D02*X037182Y041964D01*X037336Y041964D02*X037478Y041964D01*
X037159Y041328D02*X037336Y041328D01*X037045Y041964D02*X037091Y041943D01*
X037159Y041964D02*X037109Y041943D01*X037364Y041964D02*X037405Y041943D01*
X037450Y041964D02*X037405Y041943D01*X037223Y041360D02*X037182Y041328D01*
X037223Y041392D02*X037200Y041328D01*X037273Y041392D02*X037291Y041328D01*
X037273Y041360D02*X037314Y041328D01*X037804Y041964D02*X037804Y041328D01*
X037832Y041943D02*X037832Y041360D01*X037864Y041964D02*X037864Y041328D01*
X037723Y041964D02*X038178Y041964D01*X038178Y041784D01*X037864Y041667D02*
X038032Y041667D01*X038032Y041784D02*X038032Y041540D01*X037723Y041328D02*
X038178Y041328D01*X038178Y041508D01*X037750Y041964D02*X037804Y041943D01*
X037777Y041964D02*X037804Y041911D01*X037891Y041964D02*X037864Y041911D01*
X037918Y041964D02*X037864Y041943D01*X038032Y041964D02*X038178Y041943D01*
X038091Y041964D02*X038178Y041911D01*X038118Y041964D02*X038178Y041880D01*
X038146Y041964D02*X038178Y041784D01*X038032Y041784D02*X038005Y041667D01*
X038032Y041540D01*X038032Y041731D02*X037977Y041667D01*X038032Y041604D01*
X038032Y041699D02*X037918Y041667D01*X038032Y041636D01*X037804Y041360D02*
X037750Y041328D01*X037804Y041392D02*X037777Y041328D01*X037864Y041392D02*
X037891Y041328D01*X037864Y041360D02*X037918Y041328D01*X038032Y041328D02*
X038178Y041360D01*X038091Y041328D02*X038178Y041392D01*X038118Y041328D02*
X038178Y041423D01*X038146Y041328D02*X038178Y041508D01*X038495Y041964D02*
X038495Y041328D01*X038523Y041943D02*X038523Y041360D01*X038545Y041964D02*
X038545Y041328D01*X038423Y041964D02*X038723Y041964D01*X038800Y041943D01*
X038823Y041911D01*X038850Y041848D01*X038850Y041784D01*X038823Y041731D01*
X038800Y041699D01*X038723Y041667D01*X038545Y041667D01*X038800Y041911D02*
X038823Y041848D01*X038823Y041784D01*X038800Y041731D01*X038723Y041964D02*
X038773Y041943D01*X038800Y041880D01*X038800Y041752D01*X038773Y041699D01*
X038723Y041667D01*X038645Y041667D02*X038700Y041636D01*X038723Y041572D01*
X038773Y041392D01*X038800Y041328D01*X038850Y041328D01*X038878Y041392D01*
X038878Y041455D01*X038773Y041455D02*X038800Y041392D01*X038823Y041360D01*
X038850Y041360D01*X038700Y041636D02*X038723Y041604D01*X038800Y041423D01*
X038823Y041392D01*X038850Y041392D01*X038878Y041423D01*X038423Y041328D02*
X038623Y041328D01*X038445Y041964D02*X038495Y041943D01*X038473Y041964D02*
X038495Y041911D01*X038573Y041964D02*X038545Y041911D01*X038595Y041964D02*
X038545Y041943D01*X038495Y041360D02*X038445Y041328D01*X038495Y041392D02*
X038473Y041328D01*X038545Y041392D02*X038573Y041328D01*X038545Y041360D02*
X038595Y041328D01*X039886Y041964D02*X039886Y041360D01*X039886Y041964D02*
X040205Y041328D01*X039913Y041964D02*X040182Y041423D01*X039932Y041964D02*
X040205Y041423D01*X040205Y041943D02*X040205Y041328D01*X039822Y041964D02*
X039932Y041964D01*X040141Y041964D02*X040277Y041964D01*X039822Y041328D02*
X039954Y041328D01*X039841Y041964D02*X039886Y041943D01*X040164Y041964D02*
X040205Y041943D01*X040255Y041964D02*X040205Y041943D01*X039886Y041360D02*
X039841Y041328D01*X039886Y041360D02*X039932Y041328D01*X040750Y041964D02*
X040573Y041360D01*X040723Y041880D02*X040873Y041328D01*X040750Y041880D02*
X040900Y041328D01*X040750Y041964D02*X040923Y041328D01*X040623Y041508D02*
X040850Y041508D01*X040522Y041328D02*X040673Y041328D01*X040800Y041328D02*
X040977Y041328D01*X040573Y041360D02*X040545Y041328D01*X040573Y041360D02*
X040623Y041328D01*X040873Y041360D02*X040823Y041328D01*X040873Y041392D02*
X040850Y041328D01*X040900Y041392D02*X040950Y041328D01*X041282Y041964D02*
X041282Y041360D01*X041282Y041964D02*X041427Y041328D01*X041304Y041964D02*
X041427Y041423D01*X041323Y041964D02*X041445Y041423D01*X041573Y041964D02*
X041427Y041328D01*X041573Y041964D02*X041573Y041328D01*X041591Y041943D02*
X041591Y041360D01*X041614Y041964D02*X041614Y041328D01*X041222Y041964D02*
X041323Y041964D01*X041573Y041964D02*X041677Y041964D01*X041222Y041328D02*
X041345Y041328D01*X041509Y041328D02*X041677Y041328D01*X041241Y041964D02*
X041282Y041943D01*X041632Y041964D02*X041614Y041911D01*X041655Y041964D02*
X041614Y041943D01*X041282Y041360D02*X041241Y041328D01*X041282Y041360D02*
X041323Y041328D01*X041573Y041360D02*X041532Y041328D01*X041573Y041392D02*
X041550Y041328D01*X041614Y041392D02*X041632Y041328D01*X041614Y041360D02*
X041655Y041328D01*X042004Y041964D02*X042004Y041328D01*X042032Y041943D02*
X042032Y041360D01*X042064Y041964D02*X042064Y041328D01*X041922Y041964D02*
X042377Y041964D01*X042377Y041784D01*X042064Y041667D02*X042232Y041667D01*
X042232Y041784D02*X042232Y041540D01*X041922Y041328D02*X042377Y041328D01*
X042377Y041508D01*X041950Y041964D02*X042004Y041943D01*X041977Y041964D02*
X042004Y041911D01*X042091Y041964D02*X042064Y041911D01*X042118Y041964D02*
X042064Y041943D01*X042232Y041964D02*X042377Y041943D01*X042291Y041964D02*
X042377Y041911D01*X042318Y041964D02*X042377Y041880D01*X042346Y041964D02*
X042377Y041784D01*X042232Y041784D02*X042205Y041667D01*X042232Y041540D01*
X042232Y041731D02*X042177Y041667D01*X042232Y041604D01*X042232Y041699D02*
X042118Y041667D01*X042232Y041636D01*X042004Y041360D02*X041950Y041328D01*
X042004Y041392D02*X041977Y041328D01*X042064Y041392D02*X042091Y041328D01*
X042064Y041360D02*X042118Y041328D01*X042232Y041328D02*X042377Y041360D01*
X042291Y041328D02*X042377Y041392D01*X042318Y041328D02*X042377Y041423D01*
X042346Y041328D02*X042377Y041508D01*X023432Y041964D02*X023432Y041360D01*
X023432Y041964D02*X023577Y041328D01*X023454Y041964D02*X023577Y041423D01*
X023473Y041964D02*X023596Y041423D01*X023723Y041964D02*X023577Y041328D01*
X023723Y041964D02*X023723Y041328D01*X023741Y041943D02*X023741Y041360D01*
X023764Y041964D02*X023764Y041328D01*X023373Y041964D02*X023473Y041964D01*
X023723Y041964D02*X023828Y041964D01*X023373Y041328D02*X023495Y041328D01*
X023659Y041328D02*X023828Y041328D01*X023391Y041964D02*X023432Y041943D01*
X023782Y041964D02*X023764Y041911D01*X023805Y041964D02*X023764Y041943D01*
X023432Y041360D02*X023391Y041328D01*X023432Y041360D02*X023473Y041328D01*
X023723Y041360D02*X023682Y041328D01*X023723Y041392D02*X023700Y041328D01*
X023764Y041392D02*X023782Y041328D01*X023764Y041360D02*X023805Y041328D01*
X024268Y041964D02*X024186Y041943D01*X024127Y041880D01*X024100Y041816D01*
X024073Y041699D01*X024073Y041604D01*X024100Y041477D01*X024127Y041423D01*
X024186Y041360D01*X024268Y041328D01*X024327Y041328D01*X024414Y041360D01*
X024468Y041423D01*X024496Y041477D01*X024528Y041604D01*X024528Y041699D01*
X024496Y041816D01*X024468Y041880D01*X024414Y041943D01*X024327Y041964D01*
X024268Y041964D01*X024154Y041880D02*X024127Y041816D01*X024100Y041731D01*
X024100Y041572D01*X024127Y041477D01*X024154Y041423D01*X024441Y041423D02*
X024468Y041477D01*X024496Y041572D01*X024496Y041731D01*X024468Y041816D01*
X024441Y041880D01*X024268Y041964D02*X024214Y041943D01*X024154Y041848D01*
X024127Y041731D01*X024127Y041572D01*X024154Y041455D01*X024214Y041360D01*
X024268Y041328D01*X024327Y041328D02*X024382Y041360D01*X024441Y041455D01*
X024468Y041572D01*X024468Y041731D01*X024441Y041848D01*X024382Y041943D01*
X024327Y041964D01*X024850Y041964D02*X024850Y041328D01*X024877Y041943D02*
X024877Y041360D01*X024904Y041964D02*X024904Y041328D01*X024773Y041964D02*
X025036Y041964D01*X025118Y041943D01*X025173Y041880D01*X025200Y041816D01*
X025228Y041731D01*X025228Y041572D01*X025200Y041477D01*X025173Y041423D01*
X025118Y041360D01*X025036Y041328D01*X024773Y041328D01*X025146Y041880D02*
X025173Y041816D01*X025200Y041731D01*X025200Y041572D01*X025173Y041477D01*
X025146Y041423D01*X025036Y041964D02*X025091Y041943D01*X025146Y041848D01*
X025173Y041731D01*X025173Y041572D01*X025146Y041455D01*X025091Y041360D01*
X025036Y041328D01*X024795Y041964D02*X024850Y041943D01*X024823Y041964D02*
X024850Y041911D01*X024932Y041964D02*X024904Y041911D01*X024959Y041964D02*
X024904Y041943D01*X024850Y041360D02*X024795Y041328D01*X024850Y041392D02*
X024823Y041328D01*X024904Y041392D02*X024932Y041328D01*X024904Y041360D02*
X024959Y041328D01*X025554Y041964D02*X025554Y041328D01*X025582Y041943D02*
X025582Y041360D01*X025614Y041964D02*X025614Y041328D01*X025473Y041964D02*
X025928Y041964D01*X025928Y041784D01*X025614Y041667D02*X025782Y041667D01*
X025782Y041784D02*X025782Y041540D01*X025473Y041328D02*X025928Y041328D01*
X025928Y041508D01*X025500Y041964D02*X025554Y041943D01*X025527Y041964D02*
X025554Y041911D01*X025641Y041964D02*X025614Y041911D01*X025668Y041964D02*
X025614Y041943D01*X025782Y041964D02*X025928Y041943D01*X025841Y041964D02*
X025928Y041911D01*X025868Y041964D02*X025928Y041880D01*X025896Y041964D02*
X025928Y041784D01*X025782Y041784D02*X025755Y041667D01*X025782Y041540D01*
X025782Y041731D02*X025727Y041667D01*X025782Y041604D01*X025782Y041699D02*
X025668Y041667D01*X025782Y041636D01*X025554Y041360D02*X025500Y041328D01*
X025554Y041392D02*X025527Y041328D01*X025614Y041392D02*X025641Y041328D01*
X025614Y041360D02*X025668Y041328D01*X025782Y041328D02*X025928Y041360D01*
X025841Y041328D02*X025928Y041392D01*X025868Y041328D02*X025928Y041423D01*
X025896Y041328D02*X025928Y041508D01*X026264Y041964D02*X026264Y041328D01*
X026291Y041943D02*X026291Y041360D01*X026323Y041964D02*X026323Y041328D01*
X026173Y041964D02*X026414Y041964D01*X026173Y041328D02*X026628Y041328D01*
X026628Y041508D01*X026200Y041964D02*X026264Y041943D01*X026232Y041964D02*
X026264Y041911D01*X026355Y041964D02*X026323Y041911D01*X026382Y041964D02*
X026323Y041943D01*X026264Y041360D02*X026200Y041328D01*X026264Y041392D02*
X026232Y041328D01*X026323Y041392D02*X026355Y041328D01*X026323Y041360D02*
X026382Y041328D01*X026473Y041328D02*X026628Y041360D01*X026532Y041328D02*
X026628Y041392D01*X026564Y041328D02*X026628Y041423D01*X026596Y041328D02*
X026628Y041508D01*X027636Y041964D02*X027636Y041360D01*X027636Y041964D02*
X027955Y041328D01*X027663Y041964D02*X027932Y041423D01*X027682Y041964D02*
X027955Y041423D01*X027955Y041943D02*X027955Y041328D01*X027572Y041964D02*
X027682Y041964D01*X027891Y041964D02*X028027Y041964D01*X027572Y041328D02*
X027704Y041328D01*X027591Y041964D02*X027636Y041943D01*X027914Y041964D02*
X027955Y041943D01*X028005Y041964D02*X027955Y041943D01*X027636Y041360D02*
X027591Y041328D01*X027636Y041360D02*X027682Y041328D01*X028500Y041964D02*
X028323Y041360D01*X028473Y041880D02*X028623Y041328D01*X028500Y041880D02*
X028650Y041328D01*X028500Y041964D02*X028673Y041328D01*X028373Y041508D02*
X028600Y041508D01*X028272Y041328D02*X028423Y041328D01*X028550Y041328D02*
X028727Y041328D01*X028323Y041360D02*X028295Y041328D01*X028323Y041360D02*
X028373Y041328D01*X028623Y041360D02*X028573Y041328D01*X028623Y041392D02*
X028600Y041328D01*X028650Y041392D02*X028700Y041328D01*X029032Y041964D02*
X029032Y041360D01*X029032Y041964D02*X029177Y041328D01*X029054Y041964D02*
X029177Y041423D01*X029073Y041964D02*X029195Y041423D01*X029323Y041964D02*
X029177Y041328D01*X029323Y041964D02*X029323Y041328D01*X029341Y041943D02*
X029341Y041360D01*X029364Y041964D02*X029364Y041328D01*X028972Y041964D02*
X029073Y041964D01*X029323Y041964D02*X029427Y041964D01*X028972Y041328D02*
X029095Y041328D01*X029259Y041328D02*X029427Y041328D01*X028991Y041964D02*
X029032Y041943D01*X029382Y041964D02*X029364Y041911D01*X029405Y041964D02*
X029364Y041943D01*X029032Y041360D02*X028991Y041328D01*X029032Y041360D02*
X029073Y041328D01*X029323Y041360D02*X029282Y041328D01*X029323Y041392D02*
X029300Y041328D01*X029364Y041392D02*X029382Y041328D01*X029364Y041360D02*
X029405Y041328D01*X029754Y041964D02*X029754Y041328D01*X029782Y041943D02*
X029782Y041360D01*X029814Y041964D02*X029814Y041328D01*X029672Y041964D02*
X030127Y041964D01*X030127Y041784D01*X029814Y041667D02*X029982Y041667D01*
X029982Y041784D02*X029982Y041540D01*X029672Y041328D02*X030127Y041328D01*
X030127Y041508D01*X029700Y041964D02*X029754Y041943D01*X029727Y041964D02*
X029754Y041911D01*X029841Y041964D02*X029814Y041911D01*X029868Y041964D02*
X029814Y041943D01*X029982Y041964D02*X030127Y041943D01*X030041Y041964D02*
X030127Y041911D01*X030068Y041964D02*X030127Y041880D01*X030096Y041964D02*
X030127Y041784D01*X029982Y041784D02*X029955Y041667D01*X029982Y041540D01*
X029982Y041731D02*X029927Y041667D01*X029982Y041604D01*X029982Y041699D02*
X029868Y041667D01*X029982Y041636D01*X029754Y041360D02*X029700Y041328D01*
X029754Y041392D02*X029727Y041328D01*X029814Y041392D02*X029841Y041328D01*
X029814Y041360D02*X029868Y041328D01*X029982Y041328D02*X030127Y041360D01*
X030041Y041328D02*X030127Y041392D01*X030068Y041328D02*X030127Y041423D01*
X030096Y041328D02*X030127Y041508D01*X026232Y040214D02*X026314Y039578D01*
X026254Y040214D02*X026314Y039727D01*X026314Y039578D01*X026273Y040214D02*
X026336Y039727D01*X026400Y040214D02*X026336Y039727D01*X026314Y039578D01*
X026400Y040214D02*X026482Y039578D01*X026418Y040214D02*X026482Y039727D01*
X026482Y039578D01*X026441Y040214D02*X026500Y039727D01*X026564Y040193D02*
X026500Y039727D01*X026482Y039578D01*X026173Y040214D02*X026336Y040214D01*
X026400Y040214D02*X026441Y040214D01*X026500Y040214D02*X026628Y040214D01*
X026191Y040214D02*X026254Y040193D01*X026213Y040214D02*X026254Y040161D01*
X026295Y040214D02*X026273Y040161D01*X026314Y040214D02*X026273Y040193D01*
X026523Y040214D02*X026564Y040193D01*X026605Y040214D02*X026564Y040193D01*
X026950Y040214D02*X026950Y039578D01*X026977Y040193D02*X026977Y039610D01*
X027004Y040214D02*X027004Y039578D01*X026873Y040214D02*X027191Y040214D01*
X027273Y040193D01*X027296Y040161D01*X027327Y040098D01*X027327Y040034D01*
X027296Y039981D01*X027273Y039949D01*X027191Y039917D01*X027273Y040161D02*
X027296Y040098D01*X027296Y040034D01*X027273Y039981D01*X027191Y040214D02*
X027246Y040193D01*X027273Y040130D01*X027273Y040002D01*X027246Y039949D01*
X027191Y039917D01*X027004Y039917D02*X027191Y039917D01*X027273Y039886D01*
X027296Y039854D01*X027327Y039790D01*X027327Y039705D01*X027296Y039642D01*
X027273Y039610D01*X027191Y039578D01*X026873Y039578D01*X027273Y039854D02*
X027296Y039790D01*X027296Y039705D01*X027273Y039642D01*X027191Y039917D02*
X027246Y039886D01*X027273Y039822D01*X027273Y039673D01*X027246Y039610D01*
X027191Y039578D01*X026895Y040214D02*X026950Y040193D01*X026923Y040214D02*
X026950Y040161D01*X027032Y040214D02*X027004Y040161D01*X027059Y040214D02*
X027004Y040193D01*X026950Y039610D02*X026895Y039578D01*X026950Y039642D02*
X026923Y039578D01*X027004Y039642D02*X027032Y039578D01*X027004Y039610D02*
X027059Y039578D01*X038123Y040214D02*X038300Y039578D01*X038145Y040214D02*
X038300Y039673D01*X038300Y039578D01*X038173Y040214D02*X038323Y039673D01*
X038473Y040193D02*X038300Y039578D01*X038073Y040214D02*X038245Y040214D01*
X038373Y040214D02*X038528Y040214D01*X038095Y040214D02*X038145Y040161D01*
X038195Y040214D02*X038173Y040161D01*X038223Y040214D02*X038173Y040193D01*
X038423Y040214D02*X038473Y040193D01*X038500Y040214D02*X038473Y040193D01*
X039196Y040130D02*X039228Y040214D01*X039228Y040034D01*X039196Y040130D01*
X039132Y040193D01*X039073Y040214D01*X038982Y040214D01*X038891Y040193D01*
X038832Y040130D01*X038800Y040066D01*X038773Y039981D01*X038773Y039822D01*
X038800Y039727D01*X038832Y039673D01*X038891Y039610D01*X038982Y039578D01*
X039073Y039578D01*X039132Y039610D01*X039196Y039673D01*X039228Y039727D01*
X038859Y040130D02*X038832Y040066D01*X038800Y039981D01*X038800Y039822D01*
X038832Y039727D01*X038859Y039673D01*X038982Y040214D02*X038923Y040193D01*
X038859Y040098D01*X038832Y039981D01*X038832Y039822D01*X038859Y039705D01*
X038923Y039610D01*X038982Y039578D01*X039896Y040130D02*X039927Y040214D01*
X039927Y040034D01*X039896Y040130D01*X039832Y040193D01*X039773Y040214D01*
X039682Y040214D01*X039591Y040193D01*X039532Y040130D01*X039500Y040066D01*
X039473Y039981D01*X039473Y039822D01*X039500Y039727D01*X039532Y039673D01*
X039591Y039610D01*X039682Y039578D01*X039773Y039578D01*X039832Y039610D01*
X039896Y039673D01*X039927Y039727D01*X039559Y040130D02*X039532Y040066D01*
X039500Y039981D01*X039500Y039822D01*X039532Y039727D01*X039559Y039673D01*
X039682Y040214D02*X039623Y040193D01*X039559Y040098D01*X039532Y039981D01*
X039532Y039822D01*X039559Y039705D01*X039623Y039610D01*X039682Y039578D01*
X000000Y000000D02*D02*G54D17*X032000Y003000D03*X032000Y005000D03*
X038380Y010800D03*X040920Y010800D03*X046000Y010800D03*X043460Y010800D03*
X038380Y013340D03*X035840Y013340D03*X040920Y013340D03*X046000Y013340D03*
X043460Y013340D03*X054000Y016000D03*X038380Y028580D03*X040920Y028580D03*
X046000Y028580D03*X043460Y028580D03*X038380Y031120D03*X035840Y031120D03*
X040920Y031120D03*X046000Y031120D03*X043460Y031120D03*D02*G54D71*
X035840Y010800D03*X035840Y028580D03*D02*G54D25*X015460Y003000D03*
X018000Y003000D03*X026000Y016000D03*X026000Y018000D03*X026000Y020000D03*
X026000Y022000D03*D02*G54D73*X020540Y003000D03*D02*G54D135*X032000Y003000D02*
X032950Y003000D01*X032000Y003000D02*X031050Y003000D01*X032000Y003000D02*
X032000Y002050D01*X023190Y028500D02*X023190Y029325D01*X023190Y028500D02*
X022365Y028500D01*X023190Y028500D02*X023190Y027675D01*X054000Y016000D02*
X054950Y016000D01*X054000Y016000D02*X054000Y016950D01*X054000Y016000D02*
X053050Y016000D01*X054000Y016000D02*X054000Y015050D01*X038380Y010800D02*
X039330Y010800D01*X038380Y010800D02*X038380Y011750D01*X038380Y010800D02*
X038380Y009850D01*X040920Y010800D02*X041870Y010800D01*X040920Y010800D02*
X040920Y011750D01*X040920Y010800D02*X039970Y010800D01*X040920Y010800D02*
X040920Y009850D01*X043460Y010800D02*X044410Y010800D01*X043460Y010800D02*
X043460Y011750D01*X043460Y010800D02*X042510Y010800D01*X043460Y010800D02*
X043460Y009850D01*D02*G54D140*X007000Y003000D03*X009000Y003000D03*D02*G54D141*
X011000Y003000D03*D02*G54D142*X025730Y003000D03*X024460Y003000D03*
X029540Y003000D03*X028270Y003000D03*X027000Y003000D03*X023190Y028500D03*
X024460Y028500D03*X025730Y028500D03*X027000Y028500D03*X028270Y028500D03*
X029540Y028500D03*X030810Y028500D03*D02*G54D143*X049460Y026460D03*
X054540Y026460D03*X052000Y029000D03*X049460Y031540D03*X054540Y031540D03*D02*
G54D144*X000550Y000550D02*X035700Y000550D01*X035700Y000550D02*X035700Y002879D01*
X035700Y002879D02*X034879Y003700D01*X034879Y003700D02*X032644Y003700D01*
X032644Y003700D02*X032950Y003394D01*X032950Y003394D02*X032950Y002607D01*
X032950Y002607D02*X032394Y002050D01*X032394Y002050D02*X031607Y002050D01*
X031607Y002050D02*X031050Y002607D01*X031050Y002607D02*X031050Y003394D01*
X031050Y003394D02*X031357Y003700D01*X031357Y003700D02*X030007Y003700D01*
X030007Y003700D02*X030365Y003342D01*X030365Y003342D02*X030365Y002658D01*
X030365Y002658D02*X029882Y002175D01*X029882Y002175D02*X029198Y002175D01*
X029198Y002175D02*X028905Y002468D01*X028905Y002468D02*X028612Y002175D01*
X028612Y002175D02*X027928Y002175D01*X027928Y002175D02*X027635Y002468D01*
X027635Y002468D02*X027342Y002175D01*X027342Y002175D02*X026658Y002175D01*
X026658Y002175D02*X026365Y002468D01*X026365Y002468D02*X026072Y002175D01*
X026072Y002175D02*X025388Y002175D01*X025388Y002175D02*X025095Y002468D01*
X025095Y002468D02*X024802Y002175D01*X024802Y002175D02*X024118Y002175D01*
X024118Y002175D02*X023635Y002658D01*X023635Y002658D02*X023635Y003342D01*
X023635Y003342D02*X023993Y003700D01*X023993Y003700D02*X021540Y003700D01*
X021540Y003700D02*X021540Y002000D01*X021540Y002000D02*X019540Y002000D01*
X019540Y002000D02*X019540Y003700D01*X019540Y003700D02*X018714Y003700D01*
X018714Y003700D02*X019000Y003414D01*X019000Y003414D02*X019000Y002586D01*
X019000Y002586D02*X018414Y002000D01*X018414Y002000D02*X017586Y002000D01*
X017586Y002000D02*X017000Y002586D01*X017000Y002586D02*X017000Y003414D01*
X017000Y003414D02*X017286Y003700D01*X017286Y003700D02*X016174Y003700D01*
X016174Y003700D02*X016460Y003414D01*X016460Y003414D02*X016460Y002586D01*
X016460Y002586D02*X015874Y002000D01*X015874Y002000D02*X015046Y002000D01*
X015046Y002000D02*X014460Y002586D01*X014460Y002586D02*X014460Y003414D01*
X014460Y003414D02*X014746Y003700D01*X014746Y003700D02*X011900Y003700D01*
X011900Y003700D02*X011900Y002100D01*X011900Y002100D02*X010100Y002100D01*
X010100Y002100D02*X010100Y003900D01*X010100Y003900D02*X011679Y003900D01*
X011679Y003900D02*X011144Y004435D01*X011144Y004435D02*X010766Y004435D01*
X010766Y004435D02*X010435Y004766D01*X010435Y004766D02*X010435Y005234D01*
X010435Y005234D02*X010700Y005499D01*X010700Y005499D02*X010700Y013501D01*
X010700Y013501D02*X010435Y013766D01*X010435Y013766D02*X010435Y014234D01*
X010435Y014234D02*X010700Y014499D01*X010700Y014499D02*X010700Y034450D01*
X010700Y034450D02*X000550Y034450D01*X000550Y034450D02*X000550Y000550D01*
X001766Y029435D02*X002234Y029435D01*X002234Y029435D02*X002565Y029766D01*
X002565Y029766D02*X002565Y030234D01*X002565Y030234D02*X002234Y030565D01*
X002234Y030565D02*X001766Y030565D01*X001766Y030565D02*X001435Y030234D01*
X001435Y030234D02*X001435Y029766D01*X001435Y029766D02*X001766Y029435D01*
X001766Y027435D02*X002234Y027435D01*X002234Y027435D02*X002565Y027766D01*
X002565Y027766D02*X002565Y028234D01*X002565Y028234D02*X002234Y028565D01*
X002234Y028565D02*X001766Y028565D01*X001766Y028565D02*X001435Y028234D01*
X001435Y028234D02*X001435Y027766D01*X001435Y027766D02*X001766Y027435D01*
X001766Y025435D02*X002234Y025435D01*X002234Y025435D02*X002565Y025766D01*
X002565Y025766D02*X002565Y026234D01*X002565Y026234D02*X002234Y026565D01*
X002234Y026565D02*X001766Y026565D01*X001766Y026565D02*X001435Y026234D01*
X001435Y026234D02*X001435Y025766D01*X001435Y025766D02*X001766Y025435D01*
X001766Y023435D02*X002234Y023435D01*X002234Y023435D02*X002565Y023766D01*
X002565Y023766D02*X002565Y024234D01*X002565Y024234D02*X002234Y024565D01*
X002234Y024565D02*X001766Y024565D01*X001766Y024565D02*X001435Y024234D01*
X001435Y024234D02*X001435Y023766D01*X001435Y023766D02*X001766Y023435D01*
X001766Y021435D02*X002234Y021435D01*X002234Y021435D02*X002565Y021766D01*
X002565Y021766D02*X002565Y022234D01*X002565Y022234D02*X002234Y022565D01*
X002234Y022565D02*X001766Y022565D01*X001766Y022565D02*X001435Y022234D01*
X001435Y022234D02*X001435Y021766D01*X001435Y021766D02*X001766Y021435D01*
X001766Y019435D02*X002234Y019435D01*X002234Y019435D02*X002565Y019766D01*
X002565Y019766D02*X002565Y020234D01*X002565Y020234D02*X002234Y020565D01*
X002234Y020565D02*X001766Y020565D01*X001766Y020565D02*X001435Y020234D01*
X001435Y020234D02*X001435Y019766D01*X001435Y019766D02*X001766Y019435D01*
X001766Y017435D02*X002234Y017435D01*X002234Y017435D02*X002565Y017766D01*
X002565Y017766D02*X002565Y018234D01*X002565Y018234D02*X002234Y018565D01*
X002234Y018565D02*X001766Y018565D01*X001766Y018565D02*X001435Y018234D01*
X001435Y018234D02*X001435Y017766D01*X001435Y017766D02*X001766Y017435D01*
X001766Y015435D02*X002234Y015435D01*X002234Y015435D02*X002565Y015766D01*
X002565Y015766D02*X002565Y016234D01*X002565Y016234D02*X002234Y016565D01*
X002234Y016565D02*X001766Y016565D01*X001766Y016565D02*X001435Y016234D01*
X001435Y016234D02*X001435Y015766D01*X001435Y015766D02*X001766Y015435D01*
X001766Y013435D02*X002234Y013435D01*X002234Y013435D02*X002565Y013766D01*
X002565Y013766D02*X002565Y014234D01*X002565Y014234D02*X002234Y014565D01*
X002234Y014565D02*X001766Y014565D01*X001766Y014565D02*X001435Y014234D01*
X001435Y014234D02*X001435Y013766D01*X001435Y013766D02*X001766Y013435D01*
X001766Y011435D02*X002234Y011435D01*X002234Y011435D02*X002565Y011766D01*
X002565Y011766D02*X002565Y012234D01*X002565Y012234D02*X002234Y012565D01*
X002234Y012565D02*X001766Y012565D01*X001766Y012565D02*X001435Y012234D01*
X001435Y012234D02*X001435Y011766D01*X001435Y011766D02*X001766Y011435D01*
X001766Y009435D02*X002234Y009435D01*X002234Y009435D02*X002565Y009766D01*
X002565Y009766D02*X002565Y010234D01*X002565Y010234D02*X002234Y010565D01*
X002234Y010565D02*X001766Y010565D01*X001766Y010565D02*X001435Y010234D01*
X001435Y010234D02*X001435Y009766D01*X001435Y009766D02*X001766Y009435D01*
X001766Y007435D02*X002234Y007435D01*X002234Y007435D02*X002565Y007766D01*
X002565Y007766D02*X002565Y008234D01*X002565Y008234D02*X002234Y008565D01*
X002234Y008565D02*X001766Y008565D01*X001766Y008565D02*X001435Y008234D01*
X001435Y008234D02*X001435Y007766D01*X001435Y007766D02*X001766Y007435D01*
X001766Y005435D02*X002234Y005435D01*X002234Y005435D02*X002565Y005766D01*
X002565Y005766D02*X002565Y006234D01*X002565Y006234D02*X002234Y006565D01*
X002234Y006565D02*X001766Y006565D01*X001766Y006565D02*X001435Y006234D01*
X001435Y006234D02*X001435Y005766D01*X001435Y005766D02*X001766Y005435D01*
X003766Y029435D02*X004234Y029435D01*X004234Y029435D02*X004565Y029766D01*
X004565Y029766D02*X004565Y030234D01*X004565Y030234D02*X004234Y030565D01*
X004234Y030565D02*X003766Y030565D01*X003766Y030565D02*X003435Y030234D01*
X003435Y030234D02*X003435Y029766D01*X003435Y029766D02*X003766Y029435D01*
X003766Y027435D02*X004234Y027435D01*X004234Y027435D02*X004565Y027766D01*
X004565Y027766D02*X004565Y028234D01*X004565Y028234D02*X004234Y028565D01*
X004234Y028565D02*X003766Y028565D01*X003766Y028565D02*X003435Y028234D01*
X003435Y028234D02*X003435Y027766D01*X003435Y027766D02*X003766Y027435D01*
X003766Y013435D02*X004234Y013435D01*X004234Y013435D02*X004565Y013766D01*
X004565Y013766D02*X004565Y014234D01*X004565Y014234D02*X004299Y014500D01*
X004299Y014500D02*X004565Y014766D01*X004565Y014766D02*X004565Y015234D01*
X004565Y015234D02*X004234Y015565D01*X004234Y015565D02*X003766Y015565D01*
X003766Y015565D02*X003435Y015234D01*X003435Y015234D02*X003435Y014766D01*
X003435Y014766D02*X003701Y014500D01*X003701Y014500D02*X003435Y014234D01*
X003435Y014234D02*X003435Y013766D01*X003435Y013766D02*X003766Y013435D01*
X003766Y011435D02*X004234Y011435D01*X004234Y011435D02*X004565Y011766D01*
X004565Y011766D02*X004565Y012234D01*X004565Y012234D02*X004234Y012565D01*
X004234Y012565D02*X003766Y012565D01*X003766Y012565D02*X003435Y012234D01*
X003435Y012234D02*X003435Y011766D01*X003435Y011766D02*X003766Y011435D01*
X003766Y009435D02*X004234Y009435D01*X004234Y009435D02*X004565Y009766D01*
X004565Y009766D02*X004565Y010234D01*X004565Y010234D02*X004234Y010565D01*
X004234Y010565D02*X003766Y010565D01*X003766Y010565D02*X003435Y010234D01*
X003435Y010234D02*X003435Y009766D01*X003435Y009766D02*X003766Y009435D01*
X003766Y007435D02*X004234Y007435D01*X004234Y007435D02*X004565Y007766D01*
X004565Y007766D02*X004565Y008234D01*X004565Y008234D02*X004234Y008565D01*
X004234Y008565D02*X003766Y008565D01*X003766Y008565D02*X003435Y008234D01*
X003435Y008234D02*X003435Y007766D01*X003435Y007766D02*X003766Y007435D01*
X003766Y005435D02*X004234Y005435D01*X004234Y005435D02*X004565Y005766D01*
X004565Y005766D02*X004565Y006234D01*X004565Y006234D02*X004234Y006565D01*
X004234Y006565D02*X003766Y006565D01*X003766Y006565D02*X003435Y006234D01*
X003435Y006234D02*X003435Y005766D01*X003435Y005766D02*X003766Y005435D01*
X004766Y026435D02*X005234Y026435D01*X005234Y026435D02*X005565Y026766D01*
X005565Y026766D02*X005565Y027234D01*X005565Y027234D02*X005234Y027565D01*
X005234Y027565D02*X004766Y027565D01*X004766Y027565D02*X004435Y027234D01*
X004435Y027234D02*X004435Y026766D01*X004435Y026766D02*X004766Y026435D01*
X006766Y013435D02*X007234Y013435D01*X007234Y013435D02*X007565Y013766D01*
X007565Y013766D02*X007565Y014234D01*X007565Y014234D02*X007234Y014565D01*
X007234Y014565D02*X006766Y014565D01*X006766Y014565D02*X006435Y014234D01*
X006435Y014234D02*X006435Y013766D01*X006435Y013766D02*X006766Y013435D01*
X006766Y004435D02*X007234Y004435D01*X007234Y004435D02*X007565Y004766D01*
X007565Y004766D02*X007565Y005234D01*X007565Y005234D02*X007234Y005565D01*
X007234Y005565D02*X006766Y005565D01*X006766Y005565D02*X006435Y005234D01*
X006435Y005234D02*X006435Y004766D01*X006435Y004766D02*X006766Y004435D01*
X006627Y002100D02*X007373Y002100D01*X007373Y002100D02*X007900Y002627D01*
X007900Y002627D02*X007900Y003373D01*X007900Y003373D02*X007373Y003900D01*
X007373Y003900D02*X006627Y003900D01*X006627Y003900D02*X006100Y003373D01*
X006100Y003373D02*X006100Y002627D01*X006100Y002627D02*X006627Y002100D01*
X007766Y021435D02*X008234Y021435D01*X008234Y021435D02*X008565Y021766D01*
X008565Y021766D02*X008565Y022234D01*X008565Y022234D02*X008234Y022565D01*
X008234Y022565D02*X007766Y022565D01*X007766Y022565D02*X007435Y022234D01*
X007435Y022234D02*X007435Y021766D01*X007435Y021766D02*X007766Y021435D01*
X007766Y019435D02*X008234Y019435D01*X008234Y019435D02*X008565Y019766D01*
X008565Y019766D02*X008565Y020234D01*X008565Y020234D02*X008234Y020565D01*
X008234Y020565D02*X007766Y020565D01*X007766Y020565D02*X007435Y020234D01*
X007435Y020234D02*X007435Y019766D01*X007435Y019766D02*X007766Y019435D01*
X007766Y015435D02*X008234Y015435D01*X008234Y015435D02*X008565Y015766D01*
X008565Y015766D02*X008565Y016234D01*X008565Y016234D02*X008299Y016500D01*
X008299Y016500D02*X008565Y016766D01*X008565Y016766D02*X008565Y017234D01*
X008565Y017234D02*X008299Y017500D01*X008299Y017500D02*X008565Y017766D01*
X008565Y017766D02*X008565Y018234D01*X008565Y018234D02*X008234Y018565D01*
X008234Y018565D02*X007766Y018565D01*X007766Y018565D02*X007435Y018234D01*
X007435Y018234D02*X007435Y017766D01*X007435Y017766D02*X007701Y017500D01*
X007701Y017500D02*X007435Y017234D01*X007435Y017234D02*X007435Y016766D01*
X007435Y016766D02*X007701Y016500D01*X007701Y016500D02*X007435Y016234D01*
X007435Y016234D02*X007435Y015766D01*X007435Y015766D02*X007766Y015435D01*
X008627Y002100D02*X009373Y002100D01*X009373Y002100D02*X009900Y002627D01*
X009900Y002627D02*X009900Y003373D01*X009900Y003373D02*X009373Y003900D01*
X009373Y003900D02*X008627Y003900D01*X008627Y003900D02*X008100Y003373D01*
X008100Y003373D02*X008100Y002627D01*X008100Y002627D02*X008627Y002100D01*
X009766Y021435D02*X010234Y021435D01*X010234Y021435D02*X010565Y021766D01*
X010565Y021766D02*X010565Y022234D01*X010565Y022234D02*X010234Y022565D01*
X010234Y022565D02*X009766Y022565D01*X009766Y022565D02*X009435Y022234D01*
X009435Y022234D02*X009435Y021766D01*X009435Y021766D02*X009766Y021435D01*
X009766Y019435D02*X010234Y019435D01*X010234Y019435D02*X010565Y019766D01*
X010565Y019766D02*X010565Y020234D01*X010565Y020234D02*X010234Y020565D01*
X010234Y020565D02*X009766Y020565D01*X009766Y020565D02*X009435Y020234D01*
X009435Y020234D02*X009435Y019766D01*X009435Y019766D02*X009766Y019435D01*
X009766Y017435D02*X010234Y017435D01*X010234Y017435D02*X010565Y017766D01*
X010565Y017766D02*X010565Y018234D01*X010565Y018234D02*X010234Y018565D01*
X010234Y018565D02*X009766Y018565D01*X009766Y018565D02*X009435Y018234D01*
X009435Y018234D02*X009435Y017766D01*X009435Y017766D02*X009766Y017435D01*
X011300Y005499D02*X011565Y005234D01*X011565Y005234D02*X011565Y004863D01*
X011565Y004863D02*X012128Y004300D01*X012128Y004300D02*X031357Y004300D01*
X031357Y004300D02*X031050Y004607D01*X031050Y004607D02*X031050Y005394D01*
X031050Y005394D02*X031607Y005950D01*X031607Y005950D02*X032394Y005950D01*
X032394Y005950D02*X032950Y005394D01*X032950Y005394D02*X032950Y004607D01*
X032950Y004607D02*X032644Y004300D01*X032644Y004300D02*X034813Y004300D01*
X034813Y004300D02*X034900Y004328D01*X034900Y004328D02*X034987Y004300D01*
X034987Y004300D02*X035121Y004300D01*X035121Y004300D02*X035185Y004236D01*
X035185Y004236D02*X035240Y004218D01*X035240Y004218D02*X035320Y004108D01*
X035320Y004108D02*X036046Y003382D01*X036046Y003382D02*X036090Y003368D01*
X036090Y003368D02*X036188Y003232D01*X036188Y003232D02*X036300Y003121D01*
X036300Y003121D02*X036300Y000550D01*X036300Y000550D02*X045700Y000550D01*
X045700Y000550D02*X045700Y008700D01*X045700Y008700D02*X037879Y008700D01*
X037879Y008700D02*X036729Y009850D01*X036729Y009850D02*X034890Y009850D01*
X034890Y009850D02*X034890Y011750D01*X034890Y011750D02*X036700Y011750D01*
X036700Y011750D02*X036700Y012857D01*X036700Y012857D02*X036234Y012390D01*
X036234Y012390D02*X035447Y012390D01*X035447Y012390D02*X034890Y012947D01*
X034890Y012947D02*X034890Y013734D01*X034890Y013734D02*X035447Y014290D01*
X035447Y014290D02*X036234Y014290D01*X036234Y014290D02*X036700Y013824D01*
X036700Y013824D02*X036700Y014501D01*X036700Y014501D02*X036435Y014766D01*
X036435Y014766D02*X036435Y015144D01*X036435Y015144D02*X035700Y015879D01*
X035700Y015879D02*X035700Y016501D01*X035700Y016501D02*X035500Y016701D01*
X035500Y016701D02*X035234Y016435D01*X035234Y016435D02*X034766Y016435D01*
X034766Y016435D02*X034500Y016701D01*X034500Y016701D02*X034234Y016435D01*
X034234Y016435D02*X033766Y016435D01*X033766Y016435D02*X033500Y016701D01*
X033500Y016701D02*X033234Y016435D01*X033234Y016435D02*X032766Y016435D01*
X032766Y016435D02*X032500Y016701D01*X032500Y016701D02*X032234Y016435D01*
X032234Y016435D02*X031766Y016435D01*X031766Y016435D02*X031435Y016766D01*
X031435Y016766D02*X031435Y017234D01*X031435Y017234D02*X031701Y017500D01*
X031701Y017500D02*X031435Y017766D01*X031435Y017766D02*X031435Y018234D01*
X031435Y018234D02*X031766Y018565D01*X031766Y018565D02*X032234Y018565D01*
X032234Y018565D02*X032500Y018299D01*X032500Y018299D02*X032701Y018500D01*
X032701Y018500D02*X032435Y018766D01*X032435Y018766D02*X032435Y019234D01*
X032435Y019234D02*X032701Y019500D01*X032701Y019500D02*X032500Y019701D01*
X032500Y019701D02*X032234Y019435D01*X032234Y019435D02*X031766Y019435D01*
X031766Y019435D02*X031435Y019766D01*X031435Y019766D02*X031435Y020234D01*
X031435Y020234D02*X031701Y020500D01*X031701Y020500D02*X031435Y020766D01*
X031435Y020766D02*X031435Y021234D01*X031435Y021234D02*X031766Y021565D01*
X031766Y021565D02*X032234Y021565D01*X032234Y021565D02*X032500Y021299D01*
X032500Y021299D02*X032701Y021500D01*X032701Y021500D02*X032435Y021766D01*
X032435Y021766D02*X032435Y022234D01*X032435Y022234D02*X032766Y022565D01*
X032766Y022565D02*X033234Y022565D01*X033234Y022565D02*X033500Y022299D01*
X033500Y022299D02*X033766Y022565D01*X033766Y022565D02*X034234Y022565D01*
X034234Y022565D02*X034500Y022299D01*X034500Y022299D02*X034766Y022565D01*
X034766Y022565D02*X035014Y022565D01*X035014Y022565D02*X034879Y022700D01*
X034879Y022700D02*X029499Y022700D01*X029499Y022700D02*X029234Y022435D01*
X029234Y022435D02*X028766Y022435D01*X028766Y022435D02*X028435Y022766D01*
X028435Y022766D02*X028435Y023144D01*X028435Y023144D02*X027700Y023879D01*
X027700Y023879D02*X027700Y025121D01*X027700Y025121D02*X028879Y026300D01*
X028879Y026300D02*X038121Y026300D01*X038121Y026300D02*X039300Y025121D01*
X039300Y025121D02*X039300Y018121D01*X039300Y018121D02*X040121Y017300D01*
X040121Y017300D02*X040501Y017300D01*X040501Y017300D02*X040766Y017565D01*
X040766Y017565D02*X041234Y017565D01*X041234Y017565D02*X041565Y017234D01*
X041565Y017234D02*X041565Y016856D01*X041565Y016856D02*X042300Y016121D01*
X042300Y016121D02*X042300Y015300D01*X042300Y015300D02*X051700Y015300D01*
X051700Y015300D02*X051700Y017121D01*X051700Y017121D02*X052879Y018300D01*
X052879Y018300D02*X053651Y018300D01*X053651Y018300D02*X053435Y018516D01*
X053435Y018516D02*X053435Y018984D01*X053435Y018984D02*X053701Y019250D01*
X053701Y019250D02*X053500Y019451D01*X053500Y019451D02*X053234Y019185D01*
X053234Y019185D02*X052766Y019185D01*X052766Y019185D02*X052500Y019451D01*
X052500Y019451D02*X052299Y019250D01*X052299Y019250D02*X052565Y018984D01*
X052565Y018984D02*X052565Y018516D01*X052565Y018516D02*X052234Y018185D01*
X052234Y018185D02*X051766Y018185D01*X051766Y018185D02*X051435Y018516D01*
X051435Y018516D02*X051435Y018984D01*X051435Y018984D02*X051701Y019250D01*
X051701Y019250D02*X051435Y019516D01*X051435Y019516D02*X051435Y019984D01*
X051435Y019984D02*X051766Y020315D01*X051766Y020315D02*X052234Y020315D01*
X052234Y020315D02*X052500Y020049D01*X052500Y020049D02*X052766Y020315D01*
X052766Y020315D02*X053234Y020315D01*X053234Y020315D02*X053500Y020049D01*
X053500Y020049D02*X053766Y020315D01*X053766Y020315D02*X054234Y020315D01*
X054234Y020315D02*X054565Y019984D01*X054565Y019984D02*X054565Y019516D01*
X054565Y019516D02*X054299Y019250D01*X054299Y019250D02*X054565Y018984D01*
X054565Y018984D02*X054565Y018516D01*X054565Y018516D02*X054349Y018300D01*
X054349Y018300D02*X056450Y018300D01*X056450Y018300D02*X056450Y034450D01*
X056450Y034450D02*X011300Y034450D01*X011300Y034450D02*X011300Y014499D01*
X011300Y014499D02*X011565Y014234D01*X011565Y014234D02*X011565Y013766D01*
X011565Y013766D02*X011300Y013501D01*X011300Y013501D02*X011300Y005499D01*
X012766Y026435D02*X013234Y026435D01*X013234Y026435D02*X013565Y026766D01*
X013565Y026766D02*X013565Y027234D01*X013565Y027234D02*X013234Y027565D01*
X013234Y027565D02*X012766Y027565D01*X012766Y027565D02*X012435Y027234D01*
X012435Y027234D02*X012435Y026766D01*X012435Y026766D02*X012766Y026435D01*
X012766Y023435D02*X013234Y023435D01*X013234Y023435D02*X013565Y023766D01*
X013565Y023766D02*X013565Y024234D01*X013565Y024234D02*X013234Y024565D01*
X013234Y024565D02*X012766Y024565D01*X012766Y024565D02*X012435Y024234D01*
X012435Y024234D02*X012435Y023766D01*X012435Y023766D02*X012766Y023435D01*
X013766Y031435D02*X014234Y031435D01*X014234Y031435D02*X014565Y031766D01*
X014565Y031766D02*X014565Y032234D01*X014565Y032234D02*X014234Y032565D01*
X014234Y032565D02*X013766Y032565D01*X013766Y032565D02*X013435Y032234D01*
X013435Y032234D02*X013435Y031766D01*X013435Y031766D02*X013766Y031435D01*
X013766Y029435D02*X014234Y029435D01*X014234Y029435D02*X014565Y029766D01*
X014565Y029766D02*X014565Y030234D01*X014565Y030234D02*X014234Y030565D01*
X014234Y030565D02*X013766Y030565D01*X013766Y030565D02*X013435Y030234D01*
X013435Y030234D02*X013435Y029766D01*X013435Y029766D02*X013766Y029435D01*
X015766Y031435D02*X016234Y031435D01*X016234Y031435D02*X016565Y031766D01*
X016565Y031766D02*X016565Y032234D01*X016565Y032234D02*X016234Y032565D01*
X016234Y032565D02*X015766Y032565D01*X015766Y032565D02*X015435Y032234D01*
X015435Y032234D02*X015435Y031766D01*X015435Y031766D02*X015766Y031435D01*
X015766Y027435D02*X016234Y027435D01*X016234Y027435D02*X016565Y027766D01*
X016565Y027766D02*X016565Y028234D01*X016565Y028234D02*X016234Y028565D01*
X016234Y028565D02*X015766Y028565D01*X015766Y028565D02*X015435Y028234D01*
X015435Y028234D02*X015435Y027766D01*X015435Y027766D02*X015766Y027435D01*
X015766Y025435D02*X016234Y025435D01*X016234Y025435D02*X016565Y025766D01*
X016565Y025766D02*X016565Y026234D01*X016565Y026234D02*X016234Y026565D01*
X016234Y026565D02*X015766Y026565D01*X015766Y026565D02*X015435Y026234D01*
X015435Y026234D02*X015435Y025766D01*X015435Y025766D02*X015766Y025435D01*
X015766Y023435D02*X016234Y023435D01*X016234Y023435D02*X016565Y023766D01*
X016565Y023766D02*X016565Y024234D01*X016565Y024234D02*X016234Y024565D01*
X016234Y024565D02*X015766Y024565D01*X015766Y024565D02*X015435Y024234D01*
X015435Y024234D02*X015435Y023766D01*X015435Y023766D02*X015766Y023435D01*
X015766Y021435D02*X016234Y021435D01*X016234Y021435D02*X016565Y021766D01*
X016565Y021766D02*X016565Y022234D01*X016565Y022234D02*X016234Y022565D01*
X016234Y022565D02*X015766Y022565D01*X015766Y022565D02*X015435Y022234D01*
X015435Y022234D02*X015435Y021766D01*X015435Y021766D02*X015766Y021435D01*
X015766Y019435D02*X016234Y019435D01*X016234Y019435D02*X016565Y019766D01*
X016565Y019766D02*X016565Y020234D01*X016565Y020234D02*X016234Y020565D01*
X016234Y020565D02*X015766Y020565D01*X015766Y020565D02*X015435Y020234D01*
X015435Y020234D02*X015435Y019766D01*X015435Y019766D02*X015766Y019435D01*
X015766Y013435D02*X016234Y013435D01*X016234Y013435D02*X016565Y013766D01*
X016565Y013766D02*X016565Y014234D01*X016565Y014234D02*X016234Y014565D01*
X016234Y014565D02*X015766Y014565D01*X015766Y014565D02*X015435Y014234D01*
X015435Y014234D02*X015435Y013766D01*X015435Y013766D02*X015766Y013435D01*
X015766Y004435D02*X016234Y004435D01*X016234Y004435D02*X016565Y004766D01*
X016565Y004766D02*X016565Y005234D01*X016565Y005234D02*X016234Y005565D01*
X016234Y005565D02*X015766Y005565D01*X015766Y005565D02*X015435Y005234D01*
X015435Y005234D02*X015435Y004766D01*X015435Y004766D02*X015766Y004435D01*
X017766Y031435D02*X018234Y031435D01*X018234Y031435D02*X018565Y031766D01*
X018565Y031766D02*X018565Y032234D01*X018565Y032234D02*X018234Y032565D01*
X018234Y032565D02*X017766Y032565D01*X017766Y032565D02*X017435Y032234D01*
X017435Y032234D02*X017435Y031766D01*X017435Y031766D02*X017766Y031435D01*
X017766Y027435D02*X018234Y027435D01*X018234Y027435D02*X018565Y027766D01*
X018565Y027766D02*X018565Y028234D01*X018565Y028234D02*X018234Y028565D01*
X018234Y028565D02*X017766Y028565D01*X017766Y028565D02*X017435Y028234D01*
X017435Y028234D02*X017435Y027766D01*X017435Y027766D02*X017766Y027435D01*
X017766Y025435D02*X018234Y025435D01*X018234Y025435D02*X018565Y025766D01*
X018565Y025766D02*X018565Y026234D01*X018565Y026234D02*X018234Y026565D01*
X018234Y026565D02*X017766Y026565D01*X017766Y026565D02*X017435Y026234D01*
X017435Y026234D02*X017435Y025766D01*X017435Y025766D02*X017766Y025435D01*
X017766Y023435D02*X018234Y023435D01*X018234Y023435D02*X018565Y023766D01*
X018565Y023766D02*X018565Y024234D01*X018565Y024234D02*X018234Y024565D01*
X018234Y024565D02*X017766Y024565D01*X017766Y024565D02*X017435Y024234D01*
X017435Y024234D02*X017435Y023766D01*X017435Y023766D02*X017766Y023435D01*
X017766Y021435D02*X018234Y021435D01*X018234Y021435D02*X018565Y021766D01*
X018565Y021766D02*X018565Y022234D01*X018565Y022234D02*X018234Y022565D01*
X018234Y022565D02*X017766Y022565D01*X017766Y022565D02*X017435Y022234D01*
X017435Y022234D02*X017435Y021766D01*X017435Y021766D02*X017766Y021435D01*
X017766Y019435D02*X018234Y019435D01*X018234Y019435D02*X018565Y019766D01*
X018565Y019766D02*X018565Y020234D01*X018565Y020234D02*X018234Y020565D01*
X018234Y020565D02*X017766Y020565D01*X017766Y020565D02*X017435Y020234D01*
X017435Y020234D02*X017435Y019766D01*X017435Y019766D02*X017766Y019435D01*
X017766Y017435D02*X018234Y017435D01*X018234Y017435D02*X018565Y017766D01*
X018565Y017766D02*X018565Y018234D01*X018565Y018234D02*X018234Y018565D01*
X018234Y018565D02*X017766Y018565D01*X017766Y018565D02*X017435Y018234D01*
X017435Y018234D02*X017435Y017766D01*X017435Y017766D02*X017766Y017435D01*
X017766Y015435D02*X018234Y015435D01*X018234Y015435D02*X018565Y015766D01*
X018565Y015766D02*X018565Y016234D01*X018565Y016234D02*X018234Y016565D01*
X018234Y016565D02*X017766Y016565D01*X017766Y016565D02*X017435Y016234D01*
X017435Y016234D02*X017435Y015766D01*X017435Y015766D02*X017766Y015435D01*
X018766Y026435D02*X019234Y026435D01*X019234Y026435D02*X019565Y026766D01*
X019565Y026766D02*X019565Y027234D01*X019565Y027234D02*X019234Y027565D01*
X019234Y027565D02*X018766Y027565D01*X018766Y027565D02*X018435Y027234D01*
X018435Y027234D02*X018435Y026766D01*X018435Y026766D02*X018766Y026435D01*
X018766Y022435D02*X019234Y022435D01*X019234Y022435D02*X019565Y022766D01*
X019565Y022766D02*X019565Y023234D01*X019565Y023234D02*X019234Y023565D01*
X019234Y023565D02*X018766Y023565D01*X018766Y023565D02*X018435Y023234D01*
X018435Y023234D02*X018435Y022766D01*X018435Y022766D02*X018766Y022435D01*
X018766Y018435D02*X019234Y018435D01*X019234Y018435D02*X019565Y018766D01*
X019565Y018766D02*X019565Y019234D01*X019565Y019234D02*X019234Y019565D01*
X019234Y019565D02*X018766Y019565D01*X018766Y019565D02*X018435Y019234D01*
X018435Y019234D02*X018435Y018766D01*X018435Y018766D02*X018766Y018435D01*
X018766Y014435D02*X019234Y014435D01*X019234Y014435D02*X019565Y014766D01*
X019565Y014766D02*X019565Y015234D01*X019565Y015234D02*X019234Y015565D01*
X019234Y015565D02*X018766Y015565D01*X018766Y015565D02*X018435Y015234D01*
X018435Y015234D02*X018435Y014766D01*X018435Y014766D02*X018766Y014435D01*
X019766Y031435D02*X020234Y031435D01*X020234Y031435D02*X020565Y031766D01*
X020565Y031766D02*X020565Y032234D01*X020565Y032234D02*X020234Y032565D01*
X020234Y032565D02*X019766Y032565D01*X019766Y032565D02*X019435Y032234D01*
X019435Y032234D02*X019435Y031766D01*X019435Y031766D02*X019766Y031435D01*
X019766Y025435D02*X020234Y025435D01*X020234Y025435D02*X020565Y025766D01*
X020565Y025766D02*X020565Y026234D01*X020565Y026234D02*X020234Y026565D01*
X020234Y026565D02*X019766Y026565D01*X019766Y026565D02*X019435Y026234D01*
X019435Y026234D02*X019435Y025766D01*X019435Y025766D02*X019766Y025435D01*
X019766Y023435D02*X020234Y023435D01*X020234Y023435D02*X020565Y023766D01*
X020565Y023766D02*X020565Y024234D01*X020565Y024234D02*X020234Y024565D01*
X020234Y024565D02*X019766Y024565D01*X019766Y024565D02*X019435Y024234D01*
X019435Y024234D02*X019435Y023766D01*X019435Y023766D02*X019766Y023435D01*
X019766Y013435D02*X020234Y013435D01*X020234Y013435D02*X020565Y013766D01*
X020565Y013766D02*X020565Y014234D01*X020565Y014234D02*X020234Y014565D01*
X020234Y014565D02*X019766Y014565D01*X019766Y014565D02*X019435Y014234D01*
X019435Y014234D02*X019435Y013766D01*X019435Y013766D02*X019766Y013435D01*
X019766Y004435D02*X020234Y004435D01*X020234Y004435D02*X020565Y004766D01*
X020565Y004766D02*X020565Y005234D01*X020565Y005234D02*X020234Y005565D01*
X020234Y005565D02*X019766Y005565D01*X019766Y005565D02*X019435Y005234D01*
X019435Y005234D02*X019435Y004766D01*X019435Y004766D02*X019766Y004435D01*
X021766Y031435D02*X022234Y031435D01*X022234Y031435D02*X022565Y031766D01*
X022565Y031766D02*X022565Y032234D01*X022565Y032234D02*X022234Y032565D01*
X022234Y032565D02*X021766Y032565D01*X021766Y032565D02*X021435Y032234D01*
X021435Y032234D02*X021435Y031766D01*X021435Y031766D02*X021766Y031435D01*
X021766Y025435D02*X022234Y025435D01*X022234Y025435D02*X022565Y025766D01*
X022565Y025766D02*X022565Y026234D01*X022565Y026234D02*X022234Y026565D01*
X022234Y026565D02*X021766Y026565D01*X021766Y026565D02*X021435Y026234D01*
X021435Y026234D02*X021435Y025766D01*X021435Y025766D02*X021766Y025435D01*
X023766Y031435D02*X024234Y031435D01*X024234Y031435D02*X024565Y031766D01*
X024565Y031766D02*X024565Y032234D01*X024565Y032234D02*X024234Y032565D01*
X024234Y032565D02*X023766Y032565D01*X023766Y032565D02*X023435Y032234D01*
X023435Y032234D02*X023435Y031766D01*X023435Y031766D02*X023766Y031435D01*
X025766Y031435D02*X026234Y031435D01*X026234Y031435D02*X026565Y031766D01*
X026565Y031766D02*X026565Y032234D01*X026565Y032234D02*X026234Y032565D01*
X026234Y032565D02*X025766Y032565D01*X025766Y032565D02*X025435Y032234D01*
X025435Y032234D02*X025435Y031766D01*X025435Y031766D02*X025766Y031435D01*
X027766Y031435D02*X028234Y031435D01*X028234Y031435D02*X028565Y031766D01*
X028565Y031766D02*X028565Y032234D01*X028565Y032234D02*X028234Y032565D01*
X028234Y032565D02*X027766Y032565D01*X027766Y032565D02*X027435Y032234D01*
X027435Y032234D02*X027435Y031766D01*X027435Y031766D02*X027766Y031435D01*
X029766Y031435D02*X030234Y031435D01*X030234Y031435D02*X030565Y031766D01*
X030565Y031766D02*X030565Y032234D01*X030565Y032234D02*X030234Y032565D01*
X030234Y032565D02*X029766Y032565D01*X029766Y032565D02*X029435Y032234D01*
X029435Y032234D02*X029435Y031766D01*X029435Y031766D02*X029766Y031435D01*
X022848Y027675D02*X023532Y027675D01*X023532Y027675D02*X023825Y027968D01*
X023825Y027968D02*X024118Y027675D01*X024118Y027675D02*X024802Y027675D01*
X024802Y027675D02*X025095Y027968D01*X025095Y027968D02*X025388Y027675D01*
X025388Y027675D02*X026072Y027675D01*X026072Y027675D02*X026365Y027968D01*
X026365Y027968D02*X026658Y027675D01*X026658Y027675D02*X027342Y027675D01*
X027342Y027675D02*X027635Y027968D01*X027635Y027968D02*X027928Y027675D01*
X027928Y027675D02*X028612Y027675D01*X028612Y027675D02*X028905Y027968D01*
X028905Y027968D02*X029198Y027675D01*X029198Y027675D02*X029882Y027675D01*
X029882Y027675D02*X030175Y027968D01*X030175Y027968D02*X030468Y027675D01*
X030468Y027675D02*X031152Y027675D01*X031152Y027675D02*X031635Y028158D01*
X031635Y028158D02*X031635Y028842D01*X031635Y028842D02*X031152Y029325D01*
X031152Y029325D02*X030468Y029325D01*X030468Y029325D02*X030175Y029032D01*
X030175Y029032D02*X029882Y029325D01*X029882Y029325D02*X029198Y029325D01*
X029198Y029325D02*X028905Y029032D01*X028905Y029032D02*X028612Y029325D01*
X028612Y029325D02*X027928Y029325D01*X027928Y029325D02*X027635Y029032D01*
X027635Y029032D02*X027342Y029325D01*X027342Y029325D02*X026658Y029325D01*
X026658Y029325D02*X026365Y029032D01*X026365Y029032D02*X026072Y029325D01*
X026072Y029325D02*X025388Y029325D01*X025388Y029325D02*X025095Y029032D01*
X025095Y029032D02*X024802Y029325D01*X024802Y029325D02*X024118Y029325D01*
X024118Y029325D02*X023825Y029032D01*X023825Y029032D02*X023532Y029325D01*
X023532Y029325D02*X022848Y029325D01*X022848Y029325D02*X022365Y028842D01*
X022365Y028842D02*X022365Y028158D01*X022365Y028158D02*X022848Y027675D01*
X023766Y011435D02*X024234Y011435D01*X024234Y011435D02*X024565Y011766D01*
X024565Y011766D02*X024565Y012234D01*X024565Y012234D02*X024234Y012565D01*
X024234Y012565D02*X023766Y012565D01*X023766Y012565D02*X023435Y012234D01*
X023435Y012234D02*X023435Y011766D01*X023435Y011766D02*X023766Y011435D01*
X023766Y009435D02*X024234Y009435D01*X024234Y009435D02*X024565Y009766D01*
X024565Y009766D02*X024565Y010234D01*X024565Y010234D02*X024234Y010565D01*
X024234Y010565D02*X023766Y010565D01*X023766Y010565D02*X023435Y010234D01*
X023435Y010234D02*X023435Y009766D01*X023435Y009766D02*X023766Y009435D01*
X023766Y007435D02*X024234Y007435D01*X024234Y007435D02*X024565Y007766D01*
X024565Y007766D02*X024565Y008234D01*X024565Y008234D02*X024234Y008565D01*
X024234Y008565D02*X023766Y008565D01*X023766Y008565D02*X023435Y008234D01*
X023435Y008234D02*X023435Y007766D01*X023435Y007766D02*X023766Y007435D01*
X023766Y005435D02*X024234Y005435D01*X024234Y005435D02*X024565Y005766D01*
X024565Y005766D02*X024565Y006234D01*X024565Y006234D02*X024234Y006565D01*
X024234Y006565D02*X023766Y006565D01*X023766Y006565D02*X023435Y006234D01*
X023435Y006234D02*X023435Y005766D01*X023435Y005766D02*X023766Y005435D01*
X025766Y023435D02*X026234Y023435D01*X026234Y023435D02*X026565Y023766D01*
X026565Y023766D02*X026565Y024234D01*X026565Y024234D02*X026299Y024500D01*
X026299Y024500D02*X026565Y024766D01*X026565Y024766D02*X026565Y025234D01*
X026565Y025234D02*X026234Y025565D01*X026234Y025565D02*X025766Y025565D01*
X025766Y025565D02*X025435Y025234D01*X025435Y025234D02*X025435Y024766D01*
X025435Y024766D02*X025701Y024500D01*X025701Y024500D02*X025435Y024234D01*
X025435Y024234D02*X025435Y023766D01*X025435Y023766D02*X025766Y023435D01*
X025586Y015000D02*X026414Y015000D01*X026414Y015000D02*X027000Y015586D01*
X027000Y015586D02*X027000Y016414D01*X027000Y016414D02*X026414Y017000D01*
X026414Y017000D02*X027000Y017586D01*X027000Y017586D02*X027000Y018414D01*
X027000Y018414D02*X026414Y019000D01*X026414Y019000D02*X027000Y019586D01*
X027000Y019586D02*X027000Y020414D01*X027000Y020414D02*X026414Y021000D01*
X026414Y021000D02*X027000Y021586D01*X027000Y021586D02*X027000Y022414D01*
X027000Y022414D02*X026414Y023000D01*X026414Y023000D02*X025586Y023000D01*
X025586Y023000D02*X025000Y022414D01*X025000Y022414D02*X025000Y021586D01*
X025000Y021586D02*X025586Y021000D01*X025586Y021000D02*X025000Y020414D01*
X025000Y020414D02*X025000Y019586D01*X025000Y019586D02*X025586Y019000D01*
X025586Y019000D02*X025000Y018414D01*X025000Y018414D02*X025000Y017586D01*
X025000Y017586D02*X025586Y017000D01*X025586Y017000D02*X025000Y016414D01*
X025000Y016414D02*X025000Y015586D01*X025000Y015586D02*X025586Y015000D01*
X025766Y011435D02*X026234Y011435D01*X026234Y011435D02*X026565Y011766D01*
X026565Y011766D02*X026565Y012234D01*X026565Y012234D02*X026234Y012565D01*
X026234Y012565D02*X025766Y012565D01*X025766Y012565D02*X025435Y012234D01*
X025435Y012234D02*X025435Y011766D01*X025435Y011766D02*X025766Y011435D01*
X025766Y009435D02*X026234Y009435D01*X026234Y009435D02*X026565Y009766D01*
X026565Y009766D02*X026565Y010234D01*X026565Y010234D02*X026234Y010565D01*
X026234Y010565D02*X025766Y010565D01*X025766Y010565D02*X025435Y010234D01*
X025435Y010234D02*X025435Y009766D01*X025435Y009766D02*X025766Y009435D01*
X025766Y007435D02*X026234Y007435D01*X026234Y007435D02*X026565Y007766D01*
X026565Y007766D02*X026565Y008234D01*X026565Y008234D02*X026234Y008565D01*
X026234Y008565D02*X025766Y008565D01*X025766Y008565D02*X025435Y008234D01*
X025435Y008234D02*X025435Y007766D01*X025435Y007766D02*X025766Y007435D01*
X031766Y031435D02*X032234Y031435D01*X032234Y031435D02*X032565Y031766D01*
X032565Y031766D02*X032565Y032234D01*X032565Y032234D02*X032234Y032565D01*
X032234Y032565D02*X031766Y032565D01*X031766Y032565D02*X031435Y032234D01*
X031435Y032234D02*X031435Y031766D01*X031435Y031766D02*X031766Y031435D01*
X033766Y031435D02*X034234Y031435D01*X034234Y031435D02*X034565Y031766D01*
X034565Y031766D02*X034565Y032234D01*X034565Y032234D02*X034234Y032565D01*
X034234Y032565D02*X033766Y032565D01*X033766Y032565D02*X033435Y032234D01*
X033435Y032234D02*X033435Y031766D01*X033435Y031766D02*X033766Y031435D01*
X033766Y029435D02*X034234Y029435D01*X034234Y029435D02*X034565Y029766D01*
X034565Y029766D02*X034565Y030234D01*X034565Y030234D02*X034234Y030565D01*
X034234Y030565D02*X033766Y030565D01*X033766Y030565D02*X033435Y030234D01*
X033435Y030234D02*X033435Y029766D01*X033435Y029766D02*X033766Y029435D01*
X035447Y030170D02*X036234Y030170D01*X036234Y030170D02*X036790Y030727D01*
X036790Y030727D02*X036790Y031514D01*X036790Y031514D02*X036234Y032070D01*
X036234Y032070D02*X035447Y032070D01*X035447Y032070D02*X034890Y031514D01*
X034890Y031514D02*X034890Y030727D01*X034890Y030727D02*X035447Y030170D01*
X036790Y027630D02*X036790Y029530D01*X036790Y029530D02*X034890Y029530D01*
X034890Y029530D02*X034890Y027630D01*X034890Y027630D02*X036790Y027630D01*
X037987Y030170D02*X038774Y030170D01*X038774Y030170D02*X039330Y030727D01*
X039330Y030727D02*X039330Y031514D01*X039330Y031514D02*X038774Y032070D01*
X038774Y032070D02*X037987Y032070D01*X037987Y032070D02*X037430Y031514D01*
X037430Y031514D02*X037430Y030727D01*X037430Y030727D02*X037987Y030170D01*
X037987Y027630D02*X038774Y027630D01*X038774Y027630D02*X039330Y028187D01*
X039330Y028187D02*X039330Y028974D01*X039330Y028974D02*X038774Y029530D01*
X038774Y029530D02*X037987Y029530D01*X037987Y029530D02*X037430Y028974D01*
X037430Y028974D02*X037430Y028187D01*X037430Y028187D02*X037987Y027630D01*
X040527Y030170D02*X041314Y030170D01*X041314Y030170D02*X041870Y030727D01*
X041870Y030727D02*X041870Y031514D01*X041870Y031514D02*X041314Y032070D01*
X041314Y032070D02*X040527Y032070D01*X040527Y032070D02*X039970Y031514D01*
X039970Y031514D02*X039970Y030727D01*X039970Y030727D02*X040527Y030170D01*
X040527Y027630D02*X041314Y027630D01*X041314Y027630D02*X041870Y028187D01*
X041870Y028187D02*X041870Y028974D01*X041870Y028974D02*X041314Y029530D01*
X041314Y029530D02*X040527Y029530D01*X040527Y029530D02*X039970Y028974D01*
X039970Y028974D02*X039970Y028187D01*X039970Y028187D02*X040527Y027630D01*
X039766Y025435D02*X040234Y025435D01*X040234Y025435D02*X040565Y025766D01*
X040565Y025766D02*X040565Y026234D01*X040565Y026234D02*X040234Y026565D01*
X040234Y026565D02*X039766Y026565D01*X039766Y026565D02*X039435Y026234D01*
X039435Y026234D02*X039435Y025766D01*X039435Y025766D02*X039766Y025435D01*
X040766Y022435D02*X041234Y022435D01*X041234Y022435D02*X041435Y022636D01*
X041435Y022636D02*X041435Y022266D01*X041435Y022266D02*X041766Y021935D01*
X041766Y021935D02*X042234Y021935D01*X042234Y021935D02*X042500Y022201D01*
X042500Y022201D02*X042766Y021935D01*X042766Y021935D02*X043234Y021935D01*
X043234Y021935D02*X043500Y022201D01*X043500Y022201D02*X043766Y021935D01*
X043766Y021935D02*X044234Y021935D01*X044234Y021935D02*X044565Y022266D01*
X044565Y022266D02*X044565Y022734D01*X044565Y022734D02*X044234Y023065D01*
X044234Y023065D02*X043766Y023065D01*X043766Y023065D02*X043500Y022799D01*
X043500Y022799D02*X043234Y023065D01*X043234Y023065D02*X042766Y023065D01*
X042766Y023065D02*X042500Y022799D01*X042500Y022799D02*X042234Y023065D01*
X042234Y023065D02*X041766Y023065D01*X041766Y023065D02*X041565Y022864D01*
X041565Y022864D02*X041565Y023234D01*X041565Y023234D02*X041234Y023565D01*
X041234Y023565D02*X040766Y023565D01*X040766Y023565D02*X040435Y023234D01*
X040435Y023234D02*X040435Y022766D01*X040435Y022766D02*X040766Y022435D01*
X043067Y030170D02*X043854Y030170D01*X043854Y030170D02*X044410Y030727D01*
X044410Y030727D02*X044410Y031514D01*X044410Y031514D02*X043854Y032070D01*
X043854Y032070D02*X043067Y032070D01*X043067Y032070D02*X042510Y031514D01*
X042510Y031514D02*X042510Y030727D01*X042510Y030727D02*X043067Y030170D01*
X043067Y027630D02*X043854Y027630D01*X043854Y027630D02*X044410Y028187D01*
X044410Y028187D02*X044410Y028974D01*X044410Y028974D02*X043854Y029530D01*
X043854Y029530D02*X043067Y029530D01*X043067Y029530D02*X042510Y028974D01*
X042510Y028974D02*X042510Y028187D01*X042510Y028187D02*X043067Y027630D01*
X045607Y030170D02*X046394Y030170D01*X046394Y030170D02*X046950Y030727D01*
X046950Y030727D02*X046950Y031514D01*X046950Y031514D02*X046394Y032070D01*
X046394Y032070D02*X045607Y032070D01*X045607Y032070D02*X045050Y031514D01*
X045050Y031514D02*X045050Y030727D01*X045050Y030727D02*X045607Y030170D01*
X045607Y027630D02*X046394Y027630D01*X046394Y027630D02*X046950Y028187D01*
X046950Y028187D02*X046950Y028974D01*X046950Y028974D02*X046394Y029530D01*
X046394Y029530D02*X045607Y029530D01*X045607Y029530D02*X045050Y028974D01*
X045050Y028974D02*X045050Y028187D01*X045050Y028187D02*X045607Y027630D01*
X044766Y024435D02*X045234Y024435D01*X045234Y024435D02*X045565Y024766D01*
X045565Y024766D02*X045565Y025234D01*X045565Y025234D02*X045299Y025500D01*
X045299Y025500D02*X045565Y025766D01*X045565Y025766D02*X045565Y026234D01*
X045565Y026234D02*X045234Y026565D01*X045234Y026565D02*X044766Y026565D01*
X044766Y026565D02*X044435Y026234D01*X044435Y026234D02*X044435Y025766D01*
X044435Y025766D02*X044701Y025500D01*X044701Y025500D02*X044435Y025234D01*
X044435Y025234D02*X044435Y024766D01*X044435Y024766D02*X044766Y024435D01*
X045766Y022435D02*X046234Y022435D01*X046234Y022435D02*X046565Y022766D01*
X046565Y022766D02*X046565Y023234D01*X046565Y023234D02*X046234Y023565D01*
X046234Y023565D02*X045766Y023565D01*X045766Y023565D02*X045435Y023234D01*
X045435Y023234D02*X045435Y022766D01*X045435Y022766D02*X045766Y022435D01*
X048901Y030190D02*X050019Y030190D01*X050019Y030190D02*X050810Y030981D01*
X050810Y030981D02*X050810Y032099D01*X050810Y032099D02*X050019Y032890D01*
X050019Y032890D02*X048901Y032890D01*X048901Y032890D02*X048110Y032099D01*
X048110Y032099D02*X048110Y030981D01*X048110Y030981D02*X048901Y030190D01*
X048901Y025110D02*X050019Y025110D01*X050019Y025110D02*X050810Y025901D01*
X050810Y025901D02*X050810Y027019D01*X050810Y027019D02*X050019Y027810D01*
X050019Y027810D02*X048901Y027810D01*X048901Y027810D02*X048110Y027019D01*
X048110Y027019D02*X048110Y025901D01*X048110Y025901D02*X048901Y025110D01*
X047766Y022435D02*X048234Y022435D01*X048234Y022435D02*X048565Y022766D01*
X048565Y022766D02*X048565Y023234D01*X048565Y023234D02*X048234Y023565D01*
X048234Y023565D02*X047766Y023565D01*X047766Y023565D02*X047435Y023234D01*
X047435Y023234D02*X047435Y022766D01*X047435Y022766D02*X047766Y022435D01*
X045766Y018435D02*X046234Y018435D01*X046234Y018435D02*X046500Y018701D01*
X046500Y018701D02*X046766Y018435D01*X046766Y018435D02*X047234Y018435D01*
X047234Y018435D02*X047500Y018701D01*X047500Y018701D02*X047766Y018435D01*
X047766Y018435D02*X048234Y018435D01*X048234Y018435D02*X048565Y018766D01*
X048565Y018766D02*X048565Y019234D01*X048565Y019234D02*X048234Y019565D01*
X048234Y019565D02*X047766Y019565D01*X047766Y019565D02*X047500Y019299D01*
X047500Y019299D02*X047234Y019565D01*X047234Y019565D02*X046766Y019565D01*
X046766Y019565D02*X046500Y019299D01*X046500Y019299D02*X046234Y019565D01*
X046234Y019565D02*X045766Y019565D01*X045766Y019565D02*X045435Y019234D01*
X045435Y019234D02*X045435Y018766D01*X045435Y018766D02*X045766Y018435D01*
X049766Y023435D02*X050234Y023435D01*X050234Y023435D02*X050565Y023766D01*
X050565Y023766D02*X050565Y024234D01*X050565Y024234D02*X050234Y024565D01*
X050234Y024565D02*X049766Y024565D01*X049766Y024565D02*X049435Y024234D01*
X049435Y024234D02*X049435Y023766D01*X049435Y023766D02*X049766Y023435D01*
X051441Y027650D02*X052559Y027650D01*X052559Y027650D02*X053350Y028441D01*
X053350Y028441D02*X053350Y029559D01*X053350Y029559D02*X052559Y030350D01*
X052559Y030350D02*X051441Y030350D01*X051441Y030350D02*X050650Y029559D01*
X050650Y029559D02*X050650Y028441D01*X050650Y028441D02*X051441Y027650D01*
X048766Y021185D02*X049234Y021185D01*X049234Y021185D02*X049500Y021451D01*
X049500Y021451D02*X049766Y021185D01*X049766Y021185D02*X050234Y021185D01*
X050234Y021185D02*X050500Y021451D01*X050500Y021451D02*X050766Y021185D01*
X050766Y021185D02*X051234Y021185D01*X051234Y021185D02*X051565Y021516D01*
X051565Y021516D02*X051565Y021984D01*X051565Y021984D02*X051234Y022315D01*
X051234Y022315D02*X050766Y022315D01*X050766Y022315D02*X050500Y022049D01*
X050500Y022049D02*X050234Y022315D01*X050234Y022315D02*X049766Y022315D01*
X049766Y022315D02*X049500Y022049D01*X049500Y022049D02*X049234Y022315D01*
X049234Y022315D02*X048766Y022315D01*X048766Y022315D02*X048435Y021984D01*
X048435Y021984D02*X048435Y021516D01*X048435Y021516D02*X048766Y021185D01*
X048766Y019185D02*X049234Y019185D01*X049234Y019185D02*X049500Y019451D01*
X049500Y019451D02*X049766Y019185D01*X049766Y019185D02*X050234Y019185D01*
X050234Y019185D02*X050565Y019516D01*X050565Y019516D02*X050565Y019984D01*
X050565Y019984D02*X050234Y020315D01*X050234Y020315D02*X049766Y020315D01*
X049766Y020315D02*X049500Y020049D01*X049500Y020049D02*X049234Y020315D01*
X049234Y020315D02*X048766Y020315D01*X048766Y020315D02*X048435Y019984D01*
X048435Y019984D02*X048435Y019516D01*X048435Y019516D02*X048766Y019185D01*
X048766Y015435D02*X049234Y015435D01*X049234Y015435D02*X049565Y015766D01*
X049565Y015766D02*X049565Y016234D01*X049565Y016234D02*X049299Y016500D01*
X049299Y016500D02*X049565Y016766D01*X049565Y016766D02*X049565Y017234D01*
X049565Y017234D02*X049234Y017565D01*X049234Y017565D02*X048766Y017565D01*
X048766Y017565D02*X048435Y017234D01*X048435Y017234D02*X048435Y016766D01*
X048435Y016766D02*X048701Y016500D01*X048701Y016500D02*X048435Y016234D01*
X048435Y016234D02*X048435Y015766D01*X048435Y015766D02*X048766Y015435D01*
X053981Y030190D02*X055099Y030190D01*X055099Y030190D02*X055890Y030981D01*
X055890Y030981D02*X055890Y032099D01*X055890Y032099D02*X055099Y032890D01*
X055099Y032890D02*X053981Y032890D01*X053981Y032890D02*X053190Y032099D01*
X053190Y032099D02*X053190Y030981D01*X053190Y030981D02*X053981Y030190D01*
X053981Y025110D02*X055099Y025110D01*X055099Y025110D02*X055890Y025901D01*
X055890Y025901D02*X055890Y027019D01*X055890Y027019D02*X055099Y027810D01*
X055099Y027810D02*X053981Y027810D01*X053981Y027810D02*X053190Y027019D01*
X053190Y027019D02*X053190Y025901D01*X053190Y025901D02*X053981Y025110D01*
X053766Y023435D02*X054234Y023435D01*X054234Y023435D02*X054565Y023766D01*
X054565Y023766D02*X054565Y024234D01*X054565Y024234D02*X054234Y024565D01*
X054234Y024565D02*X053766Y024565D01*X053766Y024565D02*X053435Y024234D01*
X053435Y024234D02*X053435Y023766D01*X053435Y023766D02*X053766Y023435D01*
X052766Y021185D02*X053234Y021185D01*X053234Y021185D02*X053500Y021451D01*
X053500Y021451D02*X053766Y021185D01*X053766Y021185D02*X054234Y021185D01*
X054234Y021185D02*X054500Y021451D01*X054500Y021451D02*X054766Y021185D01*
X054766Y021185D02*X055234Y021185D01*X055234Y021185D02*X055565Y021516D01*
X055565Y021516D02*X055565Y021984D01*X055565Y021984D02*X055234Y022315D01*
X055234Y022315D02*X054766Y022315D01*X054766Y022315D02*X054500Y022049D01*
X054500Y022049D02*X054234Y022315D01*X054234Y022315D02*X053766Y022315D01*
X053766Y022315D02*X053500Y022049D01*X053500Y022049D02*X053234Y022315D01*
X053234Y022315D02*X052766Y022315D01*X052766Y022315D02*X052435Y021984D01*
X052435Y021984D02*X052435Y021516D01*X052435Y021516D02*X052766Y021185D01*
X027766Y015435D02*X028234Y015435D01*X028234Y015435D02*X028565Y015766D01*
X028565Y015766D02*X028565Y016234D01*X028565Y016234D02*X028234Y016565D01*
X028234Y016565D02*X027766Y016565D01*X027766Y016565D02*X027435Y016234D01*
X027435Y016234D02*X027435Y015766D01*X027435Y015766D02*X027766Y015435D01*
X028766Y012435D02*X029234Y012435D01*X029234Y012435D02*X029565Y012766D01*
X029565Y012766D02*X029565Y013234D01*X029565Y013234D02*X029234Y013565D01*
X029234Y013565D02*X028766Y013565D01*X028766Y013565D02*X028435Y013234D01*
X028435Y013234D02*X028435Y012766D01*X028435Y012766D02*X028766Y012435D01*
X030766Y012435D02*X031234Y012435D01*X031234Y012435D02*X031565Y012766D01*
X031565Y012766D02*X031565Y013234D01*X031565Y013234D02*X031234Y013565D01*
X031234Y013565D02*X030766Y013565D01*X030766Y013565D02*X030435Y013234D01*
X030435Y013234D02*X030435Y012766D01*X030435Y012766D02*X030766Y012435D01*
X030766Y010435D02*X031234Y010435D01*X031234Y010435D02*X031565Y010766D01*
X031565Y010766D02*X031565Y011234D01*X031565Y011234D02*X031234Y011565D01*
X031234Y011565D02*X030766Y011565D01*X030766Y011565D02*X030435Y011234D01*
X030435Y011234D02*X030435Y010766D01*X030435Y010766D02*X030766Y010435D01*
X031766Y013435D02*X032234Y013435D01*X032234Y013435D02*X032565Y013766D01*
X032565Y013766D02*X032565Y014234D01*X032565Y014234D02*X032299Y014500D01*
X032299Y014500D02*X032565Y014766D01*X032565Y014766D02*X032565Y015234D01*
X032565Y015234D02*X032234Y015565D01*X032234Y015565D02*X031766Y015565D01*
X031766Y015565D02*X031435Y015234D01*X031435Y015234D02*X031435Y014766D01*
X031435Y014766D02*X031701Y014500D01*X031701Y014500D02*X031435Y014234D01*
X031435Y014234D02*X031435Y013766D01*X031435Y013766D02*X031766Y013435D01*
X032766Y009435D02*X033234Y009435D01*X033234Y009435D02*X033500Y009701D01*
X033500Y009701D02*X033766Y009435D01*X033766Y009435D02*X034234Y009435D01*
X034234Y009435D02*X034565Y009766D01*X034565Y009766D02*X034565Y010234D01*
X034565Y010234D02*X034299Y010500D01*X034299Y010500D02*X034565Y010766D01*
X034565Y010766D02*X034565Y011234D01*X034565Y011234D02*X034234Y011565D01*
X034234Y011565D02*X033766Y011565D01*X033766Y011565D02*X033500Y011299D01*
X033500Y011299D02*X033234Y011565D01*X033234Y011565D02*X032766Y011565D01*
X032766Y011565D02*X032435Y011234D01*X032435Y011234D02*X032435Y010766D01*
X032435Y010766D02*X032701Y010500D01*X032701Y010500D02*X032435Y010234D01*
X032435Y010234D02*X032435Y009766D01*X032435Y009766D02*X032766Y009435D01*
X039766Y006435D02*X040234Y006435D01*X040234Y006435D02*X040500Y006701D01*
X040500Y006701D02*X040766Y006435D01*X040766Y006435D02*X041234Y006435D01*
X041234Y006435D02*X041565Y006766D01*X041565Y006766D02*X041565Y007234D01*
X041565Y007234D02*X041299Y007500D01*X041299Y007500D02*X041565Y007766D01*
X041565Y007766D02*X041565Y008234D01*X041565Y008234D02*X041234Y008565D01*
X041234Y008565D02*X040766Y008565D01*X040766Y008565D02*X040500Y008299D01*
X040500Y008299D02*X040234Y008565D01*X040234Y008565D02*X039766Y008565D01*
X039766Y008565D02*X039435Y008234D01*X039435Y008234D02*X039435Y007766D01*
X039435Y007766D02*X039701Y007500D01*X039701Y007500D02*X039435Y007234D01*
X039435Y007234D02*X039435Y006766D01*X039435Y006766D02*X039766Y006435D01*
X041766Y003935D02*X042234Y003935D01*X042234Y003935D02*X042500Y004201D01*
X042500Y004201D02*X042766Y003935D01*X042766Y003935D02*X043234Y003935D01*
X043234Y003935D02*X043565Y004266D01*X043565Y004266D02*X043565Y004734D01*
X043565Y004734D02*X043299Y005000D01*X043299Y005000D02*X043565Y005266D01*
X043565Y005266D02*X043565Y005734D01*X043565Y005734D02*X043234Y006065D01*
X043234Y006065D02*X042766Y006065D01*X042766Y006065D02*X042500Y005799D01*
X042500Y005799D02*X042234Y006065D01*X042234Y006065D02*X041766Y006065D01*
X041766Y006065D02*X041435Y005734D01*X041435Y005734D02*X041435Y005266D01*
X041435Y005266D02*X041701Y005000D01*X041701Y005000D02*X041435Y004734D01*
X041435Y004734D02*X041435Y004266D01*X041435Y004266D02*X041766Y003935D01*
X043766Y006435D02*X044234Y006435D01*X044234Y006435D02*X044500Y006701D01*
X044500Y006701D02*X044766Y006435D01*X044766Y006435D02*X045234Y006435D01*
X045234Y006435D02*X045565Y006766D01*X045565Y006766D02*X045565Y007234D01*
X045565Y007234D02*X045299Y007500D01*X045299Y007500D02*X045565Y007766D01*
X045565Y007766D02*X045565Y008234D01*X045565Y008234D02*X045234Y008565D01*
X045234Y008565D02*X044766Y008565D01*X044766Y008565D02*X044500Y008299D01*
X044500Y008299D02*X044234Y008565D01*X044234Y008565D02*X043766Y008565D01*
X043766Y008565D02*X043435Y008234D01*X043435Y008234D02*X043435Y007766D01*
X043435Y007766D02*X043701Y007500D01*X043701Y007500D02*X043435Y007234D01*
X043435Y007234D02*X043435Y006766D01*X043435Y006766D02*X043766Y006435D01*
X044766Y001935D02*X045234Y001935D01*X045234Y001935D02*X045565Y002266D01*
X045565Y002266D02*X045565Y002734D01*X045565Y002734D02*X045234Y003065D01*
X045234Y003065D02*X044766Y003065D01*X044766Y003065D02*X044435Y002734D01*
X044435Y002734D02*X044435Y002266D01*X044435Y002266D02*X044766Y001935D01*
X046300Y000550D02*X056450Y000550D01*X056450Y000550D02*X056450Y017700D01*
X056450Y017700D02*X053128Y017700D01*X053128Y017700D02*X052300Y016872D01*
X052300Y016872D02*X052300Y009879D01*X052300Y009879D02*X051121Y008700D01*
X051121Y008700D02*X046300Y008700D01*X046300Y008700D02*X046300Y000550D01*
X049766Y007435D02*X050234Y007435D01*X050234Y007435D02*X050565Y007766D01*
X050565Y007766D02*X050565Y008234D01*X050565Y008234D02*X050234Y008565D01*
X050234Y008565D02*X049766Y008565D01*X049766Y008565D02*X049435Y008234D01*
X049435Y008234D02*X049435Y007766D01*X049435Y007766D02*X049766Y007435D01*
X049766Y005435D02*X050234Y005435D01*X050234Y005435D02*X050565Y005766D01*
X050565Y005766D02*X050565Y006234D01*X050565Y006234D02*X050234Y006565D01*
X050234Y006565D02*X049766Y006565D01*X049766Y006565D02*X049435Y006234D01*
X049435Y006234D02*X049435Y005766D01*X049435Y005766D02*X049766Y005435D01*
X049766Y003435D02*X050234Y003435D01*X050234Y003435D02*X050565Y003766D01*
X050565Y003766D02*X050565Y004234D01*X050565Y004234D02*X050234Y004565D01*
X050234Y004565D02*X049766Y004565D01*X049766Y004565D02*X049435Y004234D01*
X049435Y004234D02*X049435Y003766D01*X049435Y003766D02*X049766Y003435D01*
X049766Y001435D02*X050234Y001435D01*X050234Y001435D02*X050565Y001766D01*
X050565Y001766D02*X050565Y002234D01*X050565Y002234D02*X050234Y002565D01*
X050234Y002565D02*X049766Y002565D01*X049766Y002565D02*X049435Y002234D01*
X049435Y002234D02*X049435Y001766D01*X049435Y001766D02*X049766Y001435D01*
X053607Y015050D02*X054394Y015050D01*X054394Y015050D02*X054950Y015607D01*
X054950Y015607D02*X054950Y016394D01*X054950Y016394D02*X054394Y016950D01*
X054394Y016950D02*X053607Y016950D01*X053607Y016950D02*X053050Y016394D01*
X053050Y016394D02*X053050Y015607D01*X053050Y015607D02*X053607Y015050D01*
X028300Y024128D02*X028863Y023565D01*X028863Y023565D02*X029234Y023565D01*
X029234Y023565D02*X029499Y023300D01*X029499Y023300D02*X034813Y023300D01*
X034813Y023300D02*X034900Y023328D01*X034900Y023328D02*X034987Y023300D01*
X034987Y023300D02*X035121Y023300D01*X035121Y023300D02*X035185Y023236D01*
X035185Y023236D02*X035240Y023218D01*X035240Y023218D02*X035320Y023108D01*
X035320Y023108D02*X035863Y022565D01*X035863Y022565D02*X036234Y022565D01*
X036234Y022565D02*X036565Y022234D01*X036565Y022234D02*X036565Y021766D01*
X036565Y021766D02*X036300Y021501D01*X036300Y021501D02*X036300Y021499D01*
X036300Y021499D02*X036565Y021234D01*X036565Y021234D02*X036565Y020766D01*
X036565Y020766D02*X036300Y020501D01*X036300Y020501D02*X036300Y020499D01*
X036300Y020499D02*X036565Y020234D01*X036565Y020234D02*X036565Y019766D01*
X036565Y019766D02*X036300Y019501D01*X036300Y019501D02*X036300Y019499D01*
X036300Y019499D02*X036565Y019234D01*X036565Y019234D02*X036565Y018766D01*
X036565Y018766D02*X036300Y018501D01*X036300Y018501D02*X036300Y018499D01*
X036300Y018499D02*X036565Y018234D01*X036565Y018234D02*X036565Y017766D01*
X036565Y017766D02*X036300Y017501D01*X036300Y017501D02*X036300Y017499D01*
X036300Y017499D02*X036565Y017234D01*X036565Y017234D02*X036565Y016766D01*
X036565Y016766D02*X036300Y016501D01*X036300Y016501D02*X036300Y016128D01*
X036300Y016128D02*X036863Y015565D01*X036863Y015565D02*X037234Y015565D01*
X037234Y015565D02*X037499Y015300D01*X037499Y015300D02*X037501Y015300D01*
X037501Y015300D02*X037766Y015565D01*X037766Y015565D02*X038234Y015565D01*
X038234Y015565D02*X038499Y015300D01*X038499Y015300D02*X041700Y015300D01*
X041700Y015300D02*X041700Y015872D01*X041700Y015872D02*X041137Y016435D01*
X041137Y016435D02*X040766Y016435D01*X040766Y016435D02*X040501Y016700D01*
X040501Y016700D02*X040187Y016700D01*X040187Y016700D02*X040100Y016672D01*
X040100Y016672D02*X040013Y016700D01*X040013Y016700D02*X039879Y016700D01*
X039879Y016700D02*X039815Y016764D01*X039815Y016764D02*X039760Y016782D01*
X039760Y016782D02*X039680Y016892D01*X039680Y016892D02*X038955Y017618D01*
X038955Y017618D02*X038910Y017632D01*X038910Y017632D02*X038812Y017768D01*
X038812Y017768D02*X038700Y017879D01*X038700Y017879D02*X038700Y024872D01*
X038700Y024872D02*X037872Y025700D01*X037872Y025700D02*X029128Y025700D01*
X029128Y025700D02*X028300Y024872D01*X028300Y024872D02*X028300Y024128D01*
X031766Y024435D02*X032234Y024435D01*X032234Y024435D02*X032565Y024766D01*
X032565Y024766D02*X032565Y025234D01*X032565Y025234D02*X032234Y025565D01*
X032234Y025565D02*X031766Y025565D01*X031766Y025565D02*X031435Y025234D01*
X031435Y025234D02*X031435Y024766D01*X031435Y024766D02*X031766Y024435D01*
X037300Y010128D02*X038128Y009300D01*X038128Y009300D02*X045663Y009300D01*
X045663Y009300D02*X045750Y009328D01*X045750Y009328D02*X045837Y009300D01*
X045837Y009300D02*X046163Y009300D01*X046163Y009300D02*X046250Y009328D01*
X046250Y009328D02*X046337Y009300D01*X046337Y009300D02*X050872Y009300D01*
X050872Y009300D02*X051700Y010128D01*X051700Y010128D02*X051700Y014688D01*
X051700Y014688D02*X051663Y014700D01*X051663Y014700D02*X042337Y014700D01*
X042337Y014700D02*X042250Y014672D01*X042250Y014672D02*X042163Y014700D01*
X042163Y014700D02*X038499Y014700D01*X038499Y014700D02*X038234Y014435D01*
X038234Y014435D02*X037766Y014435D01*X037766Y014435D02*X037501Y014700D01*
X037501Y014700D02*X037499Y014700D01*X037499Y014700D02*X037300Y014501D01*
X037300Y014501D02*X037300Y010128D01*X037987Y012390D02*X038774Y012390D01*
X038774Y012390D02*X039330Y012947D01*X039330Y012947D02*X039330Y013734D01*
X039330Y013734D02*X038774Y014290D01*X038774Y014290D02*X037987Y014290D01*
X037987Y014290D02*X037430Y013734D01*X037430Y013734D02*X037430Y012947D01*
X037430Y012947D02*X037987Y012390D01*X037987Y009850D02*X038774Y009850D01*
X038774Y009850D02*X039330Y010407D01*X039330Y010407D02*X039330Y011194D01*
X039330Y011194D02*X038774Y011750D01*X038774Y011750D02*X037987Y011750D01*
X037987Y011750D02*X037430Y011194D01*X037430Y011194D02*X037430Y010407D01*
X037430Y010407D02*X037987Y009850D01*X040527Y012390D02*X041314Y012390D01*
X041314Y012390D02*X041870Y012947D01*X041870Y012947D02*X041870Y013734D01*
X041870Y013734D02*X041314Y014290D01*X041314Y014290D02*X040527Y014290D01*
X040527Y014290D02*X039970Y013734D01*X039970Y013734D02*X039970Y012947D01*
X039970Y012947D02*X040527Y012390D01*X040527Y009850D02*X041314Y009850D01*
X041314Y009850D02*X041870Y010407D01*X041870Y010407D02*X041870Y011194D01*
X041870Y011194D02*X041314Y011750D01*X041314Y011750D02*X040527Y011750D01*
X040527Y011750D02*X039970Y011194D01*X039970Y011194D02*X039970Y010407D01*
X039970Y010407D02*X040527Y009850D01*X043067Y012390D02*X043854Y012390D01*
X043854Y012390D02*X044410Y012947D01*X044410Y012947D02*X044410Y013734D01*
X044410Y013734D02*X043854Y014290D01*X043854Y014290D02*X043067Y014290D01*
X043067Y014290D02*X042510Y013734D01*X042510Y013734D02*X042510Y012947D01*
X042510Y012947D02*X043067Y012390D01*X043067Y009850D02*X043854Y009850D01*
X043854Y009850D02*X044410Y010407D01*X044410Y010407D02*X044410Y011194D01*
X044410Y011194D02*X043854Y011750D01*X043854Y011750D02*X043067Y011750D01*
X043067Y011750D02*X042510Y011194D01*X042510Y011194D02*X042510Y010407D01*
X042510Y010407D02*X043067Y009850D01*X045607Y012390D02*X046394Y012390D01*
X046394Y012390D02*X046950Y012947D01*X046950Y012947D02*X046950Y013734D01*
X046950Y013734D02*X046394Y014290D01*X046394Y014290D02*X045607Y014290D01*
X045607Y014290D02*X045050Y013734D01*X045050Y013734D02*X045050Y012947D01*
X045050Y012947D02*X045607Y012390D01*X045607Y009850D02*X046394Y009850D01*
X046394Y009850D02*X046950Y010407D01*X046950Y010407D02*X046950Y011194D01*
X046950Y011194D02*X046394Y011750D01*X046394Y011750D02*X045607Y011750D01*
X045607Y011750D02*X045050Y011194D01*X045050Y011194D02*X045050Y010407D01*
X045050Y010407D02*X045607Y009850D01*D02*G54D191*X037000Y002000D03*
X037000Y001000D03*X038000Y002000D03*X038000Y001000D03*X034000Y002000D03*
X034000Y001000D03*X035000Y002000D03*X035000Y001000D03*X045000Y002500D03*
X050000Y002000D03*X047000Y002000D03*X047000Y001000D03*X048000Y002000D03*
X048000Y001000D03*X055000Y002000D03*X056000Y002000D03*X007000Y005000D03*
X011000Y005000D03*X016000Y005000D03*X020000Y005000D03*X042000Y004500D03*
X042000Y005500D03*X043000Y005500D03*X043000Y004500D03*X050000Y004000D03*
X055000Y004000D03*X056000Y004000D03*X004000Y006000D03*X002000Y006000D03*
X004000Y008000D03*X002000Y008000D03*X024000Y008000D03*X024000Y006000D03*
X026000Y008000D03*X041000Y007000D03*X040000Y007000D03*X040000Y008000D03*
X041000Y008000D03*X045000Y008000D03*X045000Y007000D03*X044000Y007000D03*
X044000Y008000D03*X050000Y006000D03*X050000Y008000D03*X055000Y008000D03*
X056000Y008000D03*X055000Y006000D03*X056000Y006000D03*X004000Y010000D03*
X002000Y010000D03*X024000Y010000D03*X026000Y010000D03*X033000Y010000D03*
X033000Y011000D03*X031000Y011000D03*X034000Y010000D03*X034000Y011000D03*
X049000Y010000D03*X048000Y010000D03*X049000Y011000D03*X048000Y011000D03*
X055000Y010000D03*X056000Y010000D03*X055000Y011000D03*X056000Y011000D03*
X004000Y012000D03*X002000Y012000D03*X002000Y014000D03*X004000Y014000D03*
X007000Y014000D03*X011000Y014000D03*X016000Y014000D03*X020000Y014000D03*
X024000Y012000D03*X029000Y013000D03*X026000Y012000D03*X032000Y014000D03*
X031000Y013000D03*X049000Y013000D03*X048000Y013000D03*X049000Y014000D03*
X048000Y014000D03*X055000Y013000D03*X056000Y013000D03*X055000Y014000D03*
X056000Y014000D03*X004000Y015000D03*X002000Y016000D03*X008000Y017000D03*
X008000Y016000D03*X018000Y016000D03*X019000Y015000D03*X028000Y016000D03*
X032000Y015000D03*X033000Y017000D03*X032000Y017000D03*X030000Y015000D03*
X038000Y015000D03*X036000Y017000D03*X035000Y017000D03*X034000Y017000D03*
X037000Y015000D03*X036000Y015000D03*X040000Y016000D03*X041000Y017000D03*
X049000Y017000D03*X049000Y016000D03*X002000Y018000D03*X002000Y020000D03*
X008000Y020000D03*X008000Y018000D03*X010000Y020000D03*X010000Y018000D03*
X016000Y020000D03*X018000Y018000D03*X019000Y019000D03*X018000Y020000D03*
X029000Y019000D03*X033000Y018000D03*X032000Y018000D03*X033000Y020000D03*
X032000Y020000D03*X033000Y019000D03*X035000Y020000D03*X035000Y019000D03*
X035000Y018000D03*X034000Y019000D03*X034000Y018000D03*X034000Y020000D03*
X036000Y020000D03*X036000Y019000D03*X036000Y018000D03*X040000Y018000D03*
X040000Y020000D03*X046000Y019000D03*X049000Y019750D03*X050000Y019750D03*
X048000Y019000D03*X047000Y019000D03*X052000Y018750D03*X054000Y018750D03*
X052000Y019750D03*X053000Y019750D03*X054000Y019750D03*X002000Y022000D03*
X008000Y022000D03*X010000Y022000D03*X016000Y022000D03*X018000Y022000D03*
X033000Y021000D03*X032000Y021000D03*X033000Y022000D03*X036000Y021000D03*
X035000Y022000D03*X035000Y021000D03*X034000Y022000D03*X034000Y021000D03*
X036000Y022000D03*X042000Y022500D03*X040000Y022000D03*X043000Y022500D03*
X044000Y022500D03*X050000Y021750D03*X049000Y021750D03*X053000Y021750D03*
X054000Y021750D03*X051000Y021750D03*X055000Y021750D03*X002000Y024000D03*
X013000Y024000D03*X016000Y024000D03*X019000Y023000D03*X018000Y024000D03*
X020000Y024000D03*X026000Y025000D03*X026000Y024000D03*X029000Y023000D03*
X032000Y025000D03*X030000Y025000D03*X041000Y023000D03*X040000Y024000D03*
X040000Y023000D03*X045000Y025000D03*X046000Y023000D03*X048000Y023000D03*
X050000Y024000D03*X054000Y024000D03*X002000Y026000D03*X004000Y028000D03*
X002000Y028000D03*X005000Y027000D03*X013000Y027000D03*X009000Y027000D03*
X016000Y026000D03*X016000Y028000D03*X019000Y027000D03*X018000Y026000D03*
X018000Y028000D03*X020000Y026000D03*X021000Y027000D03*X022000Y026000D03*
X040000Y026000D03*X045000Y026000D03*X004000Y030000D03*X002000Y030000D03*
X014000Y030000D03*X034000Y030000D03*X016000Y032000D03*X014000Y032000D03*
X018000Y032000D03*X020000Y032000D03*X022000Y032000D03*X024000Y032000D03*
X028000Y032000D03*X026000Y032000D03*X030000Y032000D03*X032000Y032000D03*
X034000Y032000D03*
G36*X000550Y000550D02*X035700Y000550D01*X035700Y002879D01*X034879Y003700D01*
X032644Y003700D01*X032950Y003394D01*X032950Y002607D01*X032394Y002050D01*
X031607Y002050D01*X031050Y002607D01*X031050Y003394D01*X031357Y003700D01*
X030007Y003700D01*X030365Y003342D01*X030365Y002658D01*X029882Y002175D01*
X029198Y002175D01*X028905Y002468D01*X028612Y002175D01*X027928Y002175D01*
X027635Y002468D01*X027342Y002175D01*X026658Y002175D01*X026365Y002468D01*
X026072Y002175D01*X025388Y002175D01*X025095Y002468D01*X024802Y002175D01*
X024118Y002175D01*X023635Y002658D01*X023635Y003342D01*X023993Y003700D01*
X021540Y003700D01*X021540Y002000D01*X019540Y002000D01*X019540Y003700D01*
X018714Y003700D01*X019000Y003414D01*X019000Y002586D01*X018414Y002000D01*
X017586Y002000D01*X017000Y002586D01*X017000Y003414D01*X017286Y003700D01*
X016174Y003700D01*X016460Y003414D01*X016460Y002586D01*X015874Y002000D01*
X015046Y002000D01*X014460Y002586D01*X014460Y003414D01*X014746Y003700D01*
X011900Y003700D01*X011900Y002100D01*X010100Y002100D01*X010100Y003900D01*
X011679Y003900D01*X011144Y004435D01*X010766Y004435D01*X010435Y004766D01*
X010435Y005234D01*X010700Y005499D01*X010700Y013501D01*X010435Y013766D01*
X010435Y014234D01*X010700Y014499D01*X010700Y034450D01*X010234Y034450D01*
X010234Y022565D01*X010565Y022234D01*X010565Y021766D01*X010234Y021435D01*
X010234Y020565D01*X010565Y020234D01*X010565Y019766D01*X010234Y019435D01*
X010234Y018565D01*X010565Y018234D01*X010565Y017766D01*X010234Y017435D01*
X009766Y017435D01*X009435Y017766D01*X009435Y018234D01*X009766Y018565D01*
X010234Y018565D01*X010234Y019435D01*X009766Y019435D01*X009435Y019766D01*
X009435Y020234D01*X009766Y020565D01*X010234Y020565D01*X010234Y021435D01*
X009766Y021435D01*X009435Y021766D01*X009435Y022234D01*X009766Y022565D01*
X010234Y022565D01*X010234Y034450D01*X009373Y034450D01*X009373Y003900D01*
X009900Y003373D01*X009900Y002627D01*X009373Y002100D01*X008627Y002100D01*
X008100Y002627D01*X008100Y003373D01*X008627Y003900D01*X009373Y003900D01*
X009373Y034450D01*X008234Y034450D01*X008234Y022565D01*X008565Y022234D01*
X008565Y021766D01*X008234Y021435D01*X008234Y020565D01*X008565Y020234D01*
X008565Y019766D01*X008234Y019435D01*X008234Y018565D01*X008565Y018234D01*
X008565Y017766D01*X008299Y017500D01*X008565Y017234D01*X008565Y016766D01*
X008299Y016500D01*X008565Y016234D01*X008565Y015766D01*X008234Y015435D01*
X007766Y015435D01*X007435Y015766D01*X007435Y016234D01*X007701Y016500D01*
X007435Y016766D01*X007435Y017234D01*X007701Y017500D01*X007435Y017766D01*
X007435Y018234D01*X007766Y018565D01*X008234Y018565D01*X008234Y019435D01*
X007766Y019435D01*X007435Y019766D01*X007435Y020234D01*X007766Y020565D01*
X008234Y020565D01*X008234Y021435D01*X007766Y021435D01*X007435Y021766D01*
X007435Y022234D01*X007766Y022565D01*X008234Y022565D01*X008234Y034450D01*
X007234Y034450D01*X007234Y014565D01*X007565Y014234D01*X007565Y013766D01*
X007234Y013435D01*X007234Y005565D01*X007565Y005234D01*X007565Y004766D01*
X007373Y004574D01*X007373Y003900D01*X007900Y003373D01*X007900Y002627D01*
X007373Y002100D01*X006627Y002100D01*X006100Y002627D01*X006100Y003373D01*
X006627Y003900D01*X007373Y003900D01*X007373Y004574D01*X007234Y004435D01*
X006766Y004435D01*X006435Y004766D01*X006435Y005234D01*X006766Y005565D01*
X007234Y005565D01*X007234Y013435D01*X006766Y013435D01*X006435Y013766D01*
X006435Y014234D01*X006766Y014565D01*X007234Y014565D01*X007234Y034450D01*
X005234Y034450D01*X005234Y027565D01*X005565Y027234D01*X005565Y026766D01*
X005234Y026435D01*X004766Y026435D01*X004435Y026766D01*X004435Y027234D01*
X004766Y027565D01*X005234Y027565D01*X005234Y034450D01*X004234Y034450D01*
X004234Y030565D01*X004565Y030234D01*X004565Y029766D01*X004234Y029435D01*
X004234Y028565D01*X004565Y028234D01*X004565Y027766D01*X004234Y027435D01*
X004234Y015565D01*X004565Y015234D01*X004565Y014766D01*X004299Y014500D01*
X004565Y014234D01*X004565Y013766D01*X004234Y013435D01*X004234Y012565D01*
X004565Y012234D01*X004565Y011766D01*X004234Y011435D01*X004234Y010565D01*
X004565Y010234D01*X004565Y009766D01*X004234Y009435D01*X004234Y008565D01*
X004565Y008234D01*X004565Y007766D01*X004234Y007435D01*X004234Y006565D01*
X004565Y006234D01*X004565Y005766D01*X004234Y005435D01*X003766Y005435D01*
X003435Y005766D01*X003435Y006234D01*X003766Y006565D01*X004234Y006565D01*
X004234Y007435D01*X003766Y007435D01*X003435Y007766D01*X003435Y008234D01*
X003766Y008565D01*X004234Y008565D01*X004234Y009435D01*X003766Y009435D01*
X003435Y009766D01*X003435Y010234D01*X003766Y010565D01*X004234Y010565D01*
X004234Y011435D01*X003766Y011435D01*X003435Y011766D01*X003435Y012234D01*
X003766Y012565D01*X004234Y012565D01*X004234Y013435D01*X003766Y013435D01*
X003435Y013766D01*X003435Y014234D01*X003701Y014500D01*X003435Y014766D01*
X003435Y015234D01*X003766Y015565D01*X004234Y015565D01*X004234Y027435D01*
X003766Y027435D01*X003435Y027766D01*X003435Y028234D01*X003766Y028565D01*
X004234Y028565D01*X004234Y029435D01*X003766Y029435D01*X003435Y029766D01*
X003435Y030234D01*X003766Y030565D01*X004234Y030565D01*X004234Y034450D01*
X002234Y034450D01*X002234Y030565D01*X002565Y030234D01*X002565Y029766D01*
X002234Y029435D01*X002234Y028565D01*X002565Y028234D01*X002565Y027766D01*
X002234Y027435D01*X002234Y026565D01*X002565Y026234D01*X002565Y025766D01*
X002234Y025435D01*X002234Y024565D01*X002565Y024234D01*X002565Y023766D01*
X002234Y023435D01*X002234Y022565D01*X002565Y022234D01*X002565Y021766D01*
X002234Y021435D01*X002234Y020565D01*X002565Y020234D01*X002565Y019766D01*
X002234Y019435D01*X002234Y018565D01*X002565Y018234D01*X002565Y017766D01*
X002234Y017435D01*X002234Y016565D01*X002565Y016234D01*X002565Y015766D01*
X002234Y015435D01*X002234Y014565D01*X002565Y014234D01*X002565Y013766D01*
X002234Y013435D01*X002234Y012565D01*X002565Y012234D01*X002565Y011766D01*
X002234Y011435D01*X002234Y010565D01*X002565Y010234D01*X002565Y009766D01*
X002234Y009435D01*X002234Y008565D01*X002565Y008234D01*X002565Y007766D01*
X002234Y007435D01*X002234Y006565D01*X002565Y006234D01*X002565Y005766D01*
X002234Y005435D01*X001766Y005435D01*X001435Y005766D01*X001435Y006234D01*
X001766Y006565D01*X002234Y006565D01*X002234Y007435D01*X001766Y007435D01*
X001435Y007766D01*X001435Y008234D01*X001766Y008565D01*X002234Y008565D01*
X002234Y009435D01*X001766Y009435D01*X001435Y009766D01*X001435Y010234D01*
X001766Y010565D01*X002234Y010565D01*X002234Y011435D01*X001766Y011435D01*
X001435Y011766D01*X001435Y012234D01*X001766Y012565D01*X002234Y012565D01*
X002234Y013435D01*X001766Y013435D01*X001435Y013766D01*X001435Y014234D01*
X001766Y014565D01*X002234Y014565D01*X002234Y015435D01*X001766Y015435D01*
X001435Y015766D01*X001435Y016234D01*X001766Y016565D01*X002234Y016565D01*
X002234Y017435D01*X001766Y017435D01*X001435Y017766D01*X001435Y018234D01*
X001766Y018565D01*X002234Y018565D01*X002234Y019435D01*X001766Y019435D01*
X001435Y019766D01*X001435Y020234D01*X001766Y020565D01*X002234Y020565D01*
X002234Y021435D01*X001766Y021435D01*X001435Y021766D01*X001435Y022234D01*
X001766Y022565D01*X002234Y022565D01*X002234Y023435D01*X001766Y023435D01*
X001435Y023766D01*X001435Y024234D01*X001766Y024565D01*X002234Y024565D01*
X002234Y025435D01*X001766Y025435D01*X001435Y025766D01*X001435Y026234D01*
X001766Y026565D01*X002234Y026565D01*X002234Y027435D01*X001766Y027435D01*
X001435Y027766D01*X001435Y028234D01*X001766Y028565D01*X002234Y028565D01*
X002234Y029435D01*X001766Y029435D01*X001435Y029766D01*X001435Y030234D01*
X001766Y030565D01*X002234Y030565D01*X002234Y034450D01*X000550Y034450D01*
X000550Y000550D01*G37*G36*X011300Y005499D02*X011565Y005234D01*X011565Y004863D01*
X012128Y004300D01*X031357Y004300D01*X031050Y004607D01*X031050Y005394D01*
X031607Y005950D01*X032394Y005950D01*X032950Y005394D01*X032950Y004607D01*
X032644Y004300D01*X034813Y004300D01*X034900Y004328D01*X034987Y004300D01*
X035121Y004300D01*X035185Y004236D01*X035240Y004218D01*X035320Y004108D01*
X036046Y003382D01*X036090Y003368D01*X036188Y003232D01*X036300Y003121D01*
X036300Y000550D01*X045700Y000550D01*X045700Y008700D01*X045234Y008700D01*
X045234Y008565D01*X045565Y008234D01*X045565Y007766D01*X045299Y007500D01*
X045565Y007234D01*X045565Y006766D01*X045234Y006435D01*X045234Y003065D01*
X045565Y002734D01*X045565Y002266D01*X045234Y001935D01*X044766Y001935D01*
X044435Y002266D01*X044435Y002734D01*X044766Y003065D01*X045234Y003065D01*
X045234Y006435D01*X044766Y006435D01*X044500Y006701D01*X044234Y006435D01*
X043766Y006435D01*X043435Y006766D01*X043435Y007234D01*X043701Y007500D01*
X043435Y007766D01*X043435Y008234D01*X043766Y008565D01*X044234Y008565D01*
X044500Y008299D01*X044766Y008565D01*X045234Y008565D01*X045234Y008700D01*
X043234Y008700D01*X043234Y006065D01*X043565Y005734D01*X043565Y005266D01*
X043299Y005000D01*X043565Y004734D01*X043565Y004266D01*X043234Y003935D01*
X042766Y003935D01*X042500Y004201D01*X042234Y003935D01*X041766Y003935D01*
X041435Y004266D01*X041435Y004734D01*X041701Y005000D01*X041435Y005266D01*
X041435Y005734D01*X041766Y006065D01*X042234Y006065D01*X042500Y005799D01*
X042766Y006065D01*X043234Y006065D01*X043234Y008700D01*X041234Y008700D01*
X041234Y008565D01*X041565Y008234D01*X041565Y007766D01*X041299Y007500D01*
X041565Y007234D01*X041565Y006766D01*X041234Y006435D01*X040766Y006435D01*
X040500Y006701D01*X040234Y006435D01*X039766Y006435D01*X039435Y006766D01*
X039435Y007234D01*X039701Y007500D01*X039435Y007766D01*X039435Y008234D01*
X039766Y008565D01*X040234Y008565D01*X040500Y008299D01*X040766Y008565D01*
X041234Y008565D01*X041234Y008700D01*X037879Y008700D01*X036729Y009850D01*
X034890Y009850D01*X034890Y011750D01*X036700Y011750D01*X036700Y012857D01*
X036234Y012390D01*X035447Y012390D01*X034890Y012947D01*X034890Y013734D01*
X035447Y014290D01*X036234Y014290D01*X036700Y013824D01*X036700Y014501D01*
X036435Y014766D01*X036435Y015144D01*X035700Y015879D01*X035700Y016501D01*
X035500Y016701D01*X035234Y016435D01*X034766Y016435D01*X034500Y016701D01*
X034234Y016435D01*X034234Y011565D01*X034565Y011234D01*X034565Y010766D01*
X034299Y010500D01*X034565Y010234D01*X034565Y009766D01*X034234Y009435D01*
X033766Y009435D01*X033500Y009701D01*X033234Y009435D01*X032766Y009435D01*
X032435Y009766D01*X032435Y010234D01*X032701Y010500D01*X032435Y010766D01*
X032435Y011234D01*X032766Y011565D01*X033234Y011565D01*X033500Y011299D01*
X033766Y011565D01*X034234Y011565D01*X034234Y016435D01*X033766Y016435D01*
X033500Y016701D01*X033234Y016435D01*X032766Y016435D01*X032500Y016701D01*
X032234Y016435D01*X032234Y015565D01*X032565Y015234D01*X032565Y014766D01*
X032299Y014500D01*X032565Y014234D01*X032565Y013766D01*X032234Y013435D01*
X031766Y013435D01*X031435Y013766D01*X031435Y014234D01*X031701Y014500D01*
X031435Y014766D01*X031435Y015234D01*X031766Y015565D01*X032234Y015565D01*
X032234Y016435D01*X031766Y016435D01*X031435Y016766D01*X031435Y017234D01*
X031701Y017500D01*X031435Y017766D01*X031435Y018234D01*X031766Y018565D01*
X032234Y018565D01*X032500Y018299D01*X032701Y018500D01*X032435Y018766D01*
X032435Y019234D01*X032701Y019500D01*X032500Y019701D01*X032234Y019435D01*
X031766Y019435D01*X031435Y019766D01*X031435Y020234D01*X031701Y020500D01*
X031435Y020766D01*X031435Y021234D01*X031766Y021565D01*X032234Y021565D01*
X032500Y021299D01*X032701Y021500D01*X032435Y021766D01*X032435Y022234D01*
X032766Y022565D01*X033234Y022565D01*X033500Y022299D01*X033766Y022565D01*
X034234Y022565D01*X034500Y022299D01*X034766Y022565D01*X035014Y022565D01*
X034879Y022700D01*X031234Y022700D01*X031234Y013565D01*X031565Y013234D01*
X031565Y012766D01*X031234Y012435D01*X031234Y011565D01*X031565Y011234D01*
X031565Y010766D01*X031234Y010435D01*X030766Y010435D01*X030435Y010766D01*
X030435Y011234D01*X030766Y011565D01*X031234Y011565D01*X031234Y012435D01*
X030766Y012435D01*X030435Y012766D01*X030435Y013234D01*X030766Y013565D01*
X031234Y013565D01*X031234Y022700D01*X029499Y022700D01*X029234Y022435D01*
X029234Y013565D01*X029565Y013234D01*X029565Y012766D01*X029234Y012435D01*
X028766Y012435D01*X028435Y012766D01*X028435Y013234D01*X028766Y013565D01*
X029234Y013565D01*X029234Y022435D01*X028766Y022435D01*X028435Y022766D01*
X028435Y023144D01*X028234Y023345D01*X028234Y016565D01*X028565Y016234D01*
X028565Y015766D01*X028234Y015435D01*X027766Y015435D01*X027435Y015766D01*
X027435Y016234D01*X027766Y016565D01*X028234Y016565D01*X028234Y023345D01*
X027700Y023879D01*X027700Y025121D01*X028879Y026300D01*X038121Y026300D01*
X039300Y025121D01*X039300Y018121D01*X040121Y017300D01*X040501Y017300D01*
X040766Y017565D01*X041234Y017565D01*X041565Y017234D01*X041565Y016856D01*
X042300Y016121D01*X042300Y015300D01*X051700Y015300D01*X051700Y017121D01*
X052879Y018300D01*X053651Y018300D01*X053435Y018516D01*X053435Y018984D01*
X053701Y019250D01*X053500Y019451D01*X053234Y019185D01*X052766Y019185D01*
X052500Y019451D01*X052299Y019250D01*X052565Y018984D01*X052565Y018516D01*
X052234Y018185D01*X051766Y018185D01*X051435Y018516D01*X051435Y018984D01*
X051701Y019250D01*X051435Y019516D01*X051435Y019984D01*X051766Y020315D01*
X052234Y020315D01*X052500Y020049D01*X052766Y020315D01*X053234Y020315D01*
X053500Y020049D01*X053766Y020315D01*X054234Y020315D01*X054565Y019984D01*
X054565Y019516D01*X054299Y019250D01*X054565Y018984D01*X054565Y018516D01*
X054349Y018300D01*X056450Y018300D01*X056450Y034450D01*X055099Y034450D01*
X055099Y032890D01*X055890Y032099D01*X055890Y030981D01*X055099Y030190D01*
X055099Y027810D01*X055890Y027019D01*X055890Y025901D01*X055234Y025245D01*
X055234Y022315D01*X055565Y021984D01*X055565Y021516D01*X055234Y021185D01*
X054766Y021185D01*X054500Y021451D01*X054234Y021185D01*X053766Y021185D01*
X053500Y021451D01*X053234Y021185D01*X052766Y021185D01*X052435Y021516D01*
X052435Y021984D01*X052766Y022315D01*X053234Y022315D01*X053500Y022049D01*
X053766Y022315D01*X054234Y022315D01*X054500Y022049D01*X054766Y022315D01*
X055234Y022315D01*X055234Y025245D01*X055099Y025110D01*X054234Y025110D01*
X054234Y024565D01*X054565Y024234D01*X054565Y023766D01*X054234Y023435D01*
X053766Y023435D01*X053435Y023766D01*X053435Y024234D01*X053766Y024565D01*
X054234Y024565D01*X054234Y025110D01*X053981Y025110D01*X053190Y025901D01*
X053190Y027019D01*X053981Y027810D01*X055099Y027810D01*X055099Y030190D01*
X053981Y030190D01*X053190Y030981D01*X053190Y032099D01*X053981Y032890D01*
X055099Y032890D01*X055099Y034450D01*X052559Y034450D01*X052559Y030350D01*
X053350Y029559D01*X053350Y028441D01*X052559Y027650D01*X051441Y027650D01*
X051234Y027857D01*X051234Y022315D01*X051565Y021984D01*X051565Y021516D01*
X051234Y021185D01*X050766Y021185D01*X050500Y021451D01*X050234Y021185D01*
X050234Y020315D01*X050565Y019984D01*X050565Y019516D01*X050234Y019185D01*
X049766Y019185D01*X049500Y019451D01*X049234Y019185D01*X049234Y017565D01*
X049565Y017234D01*X049565Y016766D01*X049299Y016500D01*X049565Y016234D01*
X049565Y015766D01*X049234Y015435D01*X048766Y015435D01*X048435Y015766D01*
X048435Y016234D01*X048701Y016500D01*X048435Y016766D01*X048435Y017234D01*
X048766Y017565D01*X049234Y017565D01*X049234Y019185D01*X048766Y019185D01*
X048435Y019516D01*X048435Y019984D01*X048766Y020315D01*X049234Y020315D01*
X049500Y020049D01*X049766Y020315D01*X050234Y020315D01*X050234Y021185D01*
X049766Y021185D01*X049500Y021451D01*X049234Y021185D01*X048766Y021185D01*
X048435Y021516D01*X048435Y021984D01*X048766Y022315D01*X049234Y022315D01*
X049500Y022049D01*X049766Y022315D01*X050234Y022315D01*X050500Y022049D01*
X050766Y022315D01*X051234Y022315D01*X051234Y027857D01*X050650Y028441D01*
X050650Y029559D01*X051441Y030350D01*X052559Y030350D01*X052559Y034450D01*
X050019Y034450D01*X050019Y032890D01*X050810Y032099D01*X050810Y030981D01*
X050019Y030190D01*X050019Y027810D01*X050810Y027019D01*X050810Y025901D01*
X050234Y025325D01*X050234Y024565D01*X050565Y024234D01*X050565Y023766D01*
X050234Y023435D01*X049766Y023435D01*X049435Y023766D01*X049435Y024234D01*
X049766Y024565D01*X050234Y024565D01*X050234Y025325D01*X050019Y025110D01*
X048901Y025110D01*X048234Y025777D01*X048234Y023565D01*X048565Y023234D01*
X048565Y022766D01*X048234Y022435D01*X048234Y019565D01*X048565Y019234D01*
X048565Y018766D01*X048234Y018435D01*X047766Y018435D01*X047500Y018701D01*
X047234Y018435D01*X046766Y018435D01*X046500Y018701D01*X046234Y018435D01*
X045766Y018435D01*X045435Y018766D01*X045435Y019234D01*X045766Y019565D01*
X046234Y019565D01*X046500Y019299D01*X046766Y019565D01*X047234Y019565D01*
X047500Y019299D01*X047766Y019565D01*X048234Y019565D01*X048234Y022435D01*
X047766Y022435D01*X047435Y022766D01*X047435Y023234D01*X047766Y023565D01*
X048234Y023565D01*X048234Y025777D01*X048110Y025901D01*X048110Y027019D01*
X048901Y027810D01*X050019Y027810D01*X050019Y030190D01*X048901Y030190D01*
X048110Y030981D01*X048110Y032099D01*X048901Y032890D01*X050019Y032890D01*
X050019Y034450D01*X046394Y034450D01*X046394Y032070D01*X046950Y031514D01*
X046950Y030727D01*X046394Y030170D01*X046394Y029530D01*X046950Y028974D01*
X046950Y028187D01*X046394Y027630D01*X046234Y027630D01*X046234Y023565D01*
X046565Y023234D01*X046565Y022766D01*X046234Y022435D01*X045766Y022435D01*
X045435Y022766D01*X045435Y023234D01*X045766Y023565D01*X046234Y023565D01*
X046234Y027630D01*X045607Y027630D01*X045234Y028002D01*X045234Y026565D01*
X045565Y026234D01*X045565Y025766D01*X045299Y025500D01*X045565Y025234D01*
X045565Y024766D01*X045234Y024435D01*X044766Y024435D01*X044435Y024766D01*
X044435Y025234D01*X044701Y025500D01*X044435Y025766D01*X044435Y026234D01*
X044766Y026565D01*X045234Y026565D01*X045234Y028002D01*X045050Y028187D01*
X045050Y028974D01*X045607Y029530D01*X046394Y029530D01*X046394Y030170D01*
X045607Y030170D01*X045050Y030727D01*X045050Y031514D01*X045607Y032070D01*
X046394Y032070D01*X046394Y034450D01*X043854Y034450D01*X043854Y032070D01*
X044410Y031514D01*X044410Y030727D01*X043854Y030170D01*X043854Y029530D01*
X044410Y028974D01*X044410Y028187D01*X043854Y027630D01*X043067Y027630D01*
X042510Y028187D01*X042510Y028974D01*X043067Y029530D01*X043854Y029530D01*
X043854Y030170D01*X043067Y030170D01*X042510Y030727D01*X042510Y031514D01*
X043067Y032070D01*X043854Y032070D01*X043854Y034450D01*X041314Y034450D01*
X041314Y032070D01*X041870Y031514D01*X041870Y030727D01*X041314Y030170D01*
X041314Y029530D01*X041870Y028974D01*X041870Y028187D01*X041314Y027630D01*
X041234Y027630D01*X041234Y023565D01*X041565Y023234D01*X041565Y022864D01*
X041766Y023065D01*X042234Y023065D01*X042500Y022799D01*X042766Y023065D01*
X043234Y023065D01*X043500Y022799D01*X043766Y023065D01*X044234Y023065D01*
X044565Y022734D01*X044565Y022266D01*X044234Y021935D01*X043766Y021935D01*
X043500Y022201D01*X043234Y021935D01*X042766Y021935D01*X042500Y022201D01*
X042234Y021935D01*X041766Y021935D01*X041435Y022266D01*X041435Y022636D01*
X041234Y022435D01*X040766Y022435D01*X040435Y022766D01*X040435Y023234D01*
X040766Y023565D01*X041234Y023565D01*X041234Y027630D01*X040527Y027630D01*
X040234Y027922D01*X040234Y026565D01*X040565Y026234D01*X040565Y025766D01*
X040234Y025435D01*X039766Y025435D01*X039435Y025766D01*X039435Y026234D01*
X039766Y026565D01*X040234Y026565D01*X040234Y027922D01*X039970Y028187D01*
X039970Y028974D01*X040527Y029530D01*X041314Y029530D01*X041314Y030170D01*
X040527Y030170D01*X039970Y030727D01*X039970Y031514D01*X040527Y032070D01*
X041314Y032070D01*X041314Y034450D01*X038774Y034450D01*X038774Y032070D01*
X039330Y031514D01*X039330Y030727D01*X038774Y030170D01*X038774Y029530D01*
X039330Y028974D01*X039330Y028187D01*X038774Y027630D01*X037987Y027630D01*
X037430Y028187D01*X037430Y028974D01*X037987Y029530D01*X038774Y029530D01*
X038774Y030170D01*X037987Y030170D01*X037430Y030727D01*X037430Y031514D01*
X037987Y032070D01*X038774Y032070D01*X038774Y034450D01*X036234Y034450D01*
X036234Y032070D01*X036790Y031514D01*X036790Y027630D01*X034890Y027630D01*
X034890Y029530D01*X036790Y029530D01*X036790Y030727D01*X036234Y030170D01*
X035447Y030170D01*X034890Y030727D01*X034890Y031514D01*X035447Y032070D01*
X036234Y032070D01*X036234Y034450D01*X034234Y034450D01*X034234Y032565D01*
X034565Y032234D01*X034565Y031766D01*X034234Y031435D01*X034234Y030565D01*
X034565Y030234D01*X034565Y029766D01*X034234Y029435D01*X033766Y029435D01*
X033435Y029766D01*X033435Y030234D01*X033766Y030565D01*X034234Y030565D01*
X034234Y031435D01*X033766Y031435D01*X033435Y031766D01*X033435Y032234D01*
X033766Y032565D01*X034234Y032565D01*X034234Y034450D01*X032234Y034450D01*
X032234Y032565D01*X032565Y032234D01*X032565Y031766D01*X032234Y031435D01*
X031766Y031435D01*X031435Y031766D01*X031435Y032234D01*X031766Y032565D01*
X032234Y032565D01*X032234Y034450D01*X031152Y034450D01*X031152Y029325D01*
X031635Y028842D01*X031635Y028158D01*X031152Y027675D01*X030468Y027675D01*
X030175Y027968D01*X029882Y027675D01*X029198Y027675D01*X028905Y027968D01*
X028612Y027675D01*X027928Y027675D01*X027635Y027968D01*X027342Y027675D01*
X026658Y027675D01*X026365Y027968D01*X026234Y027837D01*X026234Y025565D01*
X026565Y025234D01*X026565Y024766D01*X026299Y024500D01*X026565Y024234D01*
X026565Y023766D01*X026414Y023615D01*X026414Y023000D01*X027000Y022414D01*
X027000Y021586D01*X026414Y021000D01*X027000Y020414D01*X027000Y019586D01*
X026414Y019000D01*X027000Y018414D01*X027000Y017586D01*X026414Y017000D01*
X027000Y016414D01*X027000Y015586D01*X026414Y015000D01*X026234Y015000D01*
X026234Y012565D01*X026565Y012234D01*X026565Y011766D01*X026234Y011435D01*
X026234Y010565D01*X026565Y010234D01*X026565Y009766D01*X026234Y009435D01*
X026234Y008565D01*X026565Y008234D01*X026565Y007766D01*X026234Y007435D01*
X025766Y007435D01*X025435Y007766D01*X025435Y008234D01*X025766Y008565D01*
X026234Y008565D01*X026234Y009435D01*X025766Y009435D01*X025435Y009766D01*
X025435Y010234D01*X025766Y010565D01*X026234Y010565D01*X026234Y011435D01*
X025766Y011435D01*X025435Y011766D01*X025435Y012234D01*X025766Y012565D01*
X026234Y012565D01*X026234Y015000D01*X025586Y015000D01*X025000Y015586D01*
X025000Y016414D01*X025586Y017000D01*X025000Y017586D01*X025000Y018414D01*
X025586Y019000D01*X025000Y019586D01*X025000Y020414D01*X025586Y021000D01*
X025000Y021586D01*X025000Y022414D01*X025586Y023000D01*X026414Y023000D01*
X026414Y023615D01*X026234Y023435D01*X025766Y023435D01*X025435Y023766D01*
X025435Y024234D01*X025701Y024500D01*X025435Y024766D01*X025435Y025234D01*
X025766Y025565D01*X026234Y025565D01*X026234Y027837D01*X026072Y027675D01*
X025388Y027675D01*X025095Y027968D01*X024802Y027675D01*X024234Y027675D01*
X024234Y012565D01*X024565Y012234D01*X024565Y011766D01*X024234Y011435D01*
X024234Y010565D01*X024565Y010234D01*X024565Y009766D01*X024234Y009435D01*
X024234Y008565D01*X024565Y008234D01*X024565Y007766D01*X024234Y007435D01*
X024234Y006565D01*X024565Y006234D01*X024565Y005766D01*X024234Y005435D01*
X023766Y005435D01*X023435Y005766D01*X023435Y006234D01*X023766Y006565D01*
X024234Y006565D01*X024234Y007435D01*X023766Y007435D01*X023435Y007766D01*
X023435Y008234D01*X023766Y008565D01*X024234Y008565D01*X024234Y009435D01*
X023766Y009435D01*X023435Y009766D01*X023435Y010234D01*X023766Y010565D01*
X024234Y010565D01*X024234Y011435D01*X023766Y011435D01*X023435Y011766D01*
X023435Y012234D01*X023766Y012565D01*X024234Y012565D01*X024234Y027675D01*
X024118Y027675D01*X023825Y027968D01*X023532Y027675D01*X022848Y027675D01*
X022365Y028158D01*X022365Y028842D01*X022848Y029325D01*X023532Y029325D01*
X023825Y029032D01*X024118Y029325D01*X024802Y029325D01*X025095Y029032D01*
X025388Y029325D01*X026072Y029325D01*X026365Y029032D01*X026658Y029325D01*
X027342Y029325D01*X027635Y029032D01*X027928Y029325D01*X028612Y029325D01*
X028905Y029032D01*X029198Y029325D01*X029882Y029325D01*X030175Y029032D01*
X030468Y029325D01*X031152Y029325D01*X031152Y034450D01*X030234Y034450D01*
X030234Y032565D01*X030565Y032234D01*X030565Y031766D01*X030234Y031435D01*
X029766Y031435D01*X029435Y031766D01*X029435Y032234D01*X029766Y032565D01*
X030234Y032565D01*X030234Y034450D01*X028234Y034450D01*X028234Y032565D01*
X028565Y032234D01*X028565Y031766D01*X028234Y031435D01*X027766Y031435D01*
X027435Y031766D01*X027435Y032234D01*X027766Y032565D01*X028234Y032565D01*
X028234Y034450D01*X026234Y034450D01*X026234Y032565D01*X026565Y032234D01*
X026565Y031766D01*X026234Y031435D01*X025766Y031435D01*X025435Y031766D01*
X025435Y032234D01*X025766Y032565D01*X026234Y032565D01*X026234Y034450D01*
X024234Y034450D01*X024234Y032565D01*X024565Y032234D01*X024565Y031766D01*
X024234Y031435D01*X023766Y031435D01*X023435Y031766D01*X023435Y032234D01*
X023766Y032565D01*X024234Y032565D01*X024234Y034450D01*X022234Y034450D01*
X022234Y032565D01*X022565Y032234D01*X022565Y031766D01*X022234Y031435D01*
X022234Y026565D01*X022565Y026234D01*X022565Y025766D01*X022234Y025435D01*
X021766Y025435D01*X021435Y025766D01*X021435Y026234D01*X021766Y026565D01*
X022234Y026565D01*X022234Y031435D01*X021766Y031435D01*X021435Y031766D01*
X021435Y032234D01*X021766Y032565D01*X022234Y032565D01*X022234Y034450D01*
X020234Y034450D01*X020234Y032565D01*X020565Y032234D01*X020565Y031766D01*
X020234Y031435D01*X020234Y026565D01*X020565Y026234D01*X020565Y025766D01*
X020234Y025435D01*X020234Y024565D01*X020565Y024234D01*X020565Y023766D01*
X020234Y023435D01*X020234Y014565D01*X020565Y014234D01*X020565Y013766D01*
X020234Y013435D01*X020234Y005565D01*X020565Y005234D01*X020565Y004766D01*
X020234Y004435D01*X019766Y004435D01*X019435Y004766D01*X019435Y005234D01*
X019766Y005565D01*X020234Y005565D01*X020234Y013435D01*X019766Y013435D01*
X019435Y013766D01*X019435Y014234D01*X019766Y014565D01*X020234Y014565D01*
X020234Y023435D01*X019766Y023435D01*X019435Y023766D01*X019435Y024234D01*
X019766Y024565D01*X020234Y024565D01*X020234Y025435D01*X019766Y025435D01*
X019435Y025766D01*X019435Y026234D01*X019766Y026565D01*X020234Y026565D01*
X020234Y031435D01*X019766Y031435D01*X019435Y031766D01*X019435Y032234D01*
X019766Y032565D01*X020234Y032565D01*X020234Y034450D01*X019234Y034450D01*
X019234Y027565D01*X019565Y027234D01*X019565Y026766D01*X019234Y026435D01*
X019234Y023565D01*X019565Y023234D01*X019565Y022766D01*X019234Y022435D01*
X019234Y019565D01*X019565Y019234D01*X019565Y018766D01*X019234Y018435D01*
X019234Y015565D01*X019565Y015234D01*X019565Y014766D01*X019234Y014435D01*
X018766Y014435D01*X018435Y014766D01*X018435Y015234D01*X018766Y015565D01*
X019234Y015565D01*X019234Y018435D01*X018766Y018435D01*X018435Y018766D01*
X018435Y019234D01*X018766Y019565D01*X019234Y019565D01*X019234Y022435D01*
X018766Y022435D01*X018435Y022766D01*X018435Y023234D01*X018766Y023565D01*
X019234Y023565D01*X019234Y026435D01*X018766Y026435D01*X018435Y026766D01*
X018435Y027234D01*X018766Y027565D01*X019234Y027565D01*X019234Y034450D01*
X018234Y034450D01*X018234Y032565D01*X018565Y032234D01*X018565Y031766D01*
X018234Y031435D01*X018234Y028565D01*X018565Y028234D01*X018565Y027766D01*
X018234Y027435D01*X018234Y026565D01*X018565Y026234D01*X018565Y025766D01*
X018234Y025435D01*X018234Y024565D01*X018565Y024234D01*X018565Y023766D01*
X018234Y023435D01*X018234Y022565D01*X018565Y022234D01*X018565Y021766D01*
X018234Y021435D01*X018234Y020565D01*X018565Y020234D01*X018565Y019766D01*
X018234Y019435D01*X018234Y018565D01*X018565Y018234D01*X018565Y017766D01*
X018234Y017435D01*X018234Y016565D01*X018565Y016234D01*X018565Y015766D01*
X018234Y015435D01*X017766Y015435D01*X017435Y015766D01*X017435Y016234D01*
X017766Y016565D01*X018234Y016565D01*X018234Y017435D01*X017766Y017435D01*
X017435Y017766D01*X017435Y018234D01*X017766Y018565D01*X018234Y018565D01*
X018234Y019435D01*X017766Y019435D01*X017435Y019766D01*X017435Y020234D01*
X017766Y020565D01*X018234Y020565D01*X018234Y021435D01*X017766Y021435D01*
X017435Y021766D01*X017435Y022234D01*X017766Y022565D01*X018234Y022565D01*
X018234Y023435D01*X017766Y023435D01*X017435Y023766D01*X017435Y024234D01*
X017766Y024565D01*X018234Y024565D01*X018234Y025435D01*X017766Y025435D01*
X017435Y025766D01*X017435Y026234D01*X017766Y026565D01*X018234Y026565D01*
X018234Y027435D01*X017766Y027435D01*X017435Y027766D01*X017435Y028234D01*
X017766Y028565D01*X018234Y028565D01*X018234Y031435D01*X017766Y031435D01*
X017435Y031766D01*X017435Y032234D01*X017766Y032565D01*X018234Y032565D01*
X018234Y034450D01*X016234Y034450D01*X016234Y032565D01*X016565Y032234D01*
X016565Y031766D01*X016234Y031435D01*X016234Y028565D01*X016565Y028234D01*
X016565Y027766D01*X016234Y027435D01*X016234Y026565D01*X016565Y026234D01*
X016565Y025766D01*X016234Y025435D01*X016234Y024565D01*X016565Y024234D01*
X016565Y023766D01*X016234Y023435D01*X016234Y022565D01*X016565Y022234D01*
X016565Y021766D01*X016234Y021435D01*X016234Y020565D01*X016565Y020234D01*
X016565Y019766D01*X016234Y019435D01*X016234Y014565D01*X016565Y014234D01*
X016565Y013766D01*X016234Y013435D01*X016234Y005565D01*X016565Y005234D01*
X016565Y004766D01*X016234Y004435D01*X015766Y004435D01*X015435Y004766D01*
X015435Y005234D01*X015766Y005565D01*X016234Y005565D01*X016234Y013435D01*
X015766Y013435D01*X015435Y013766D01*X015435Y014234D01*X015766Y014565D01*
X016234Y014565D01*X016234Y019435D01*X015766Y019435D01*X015435Y019766D01*
X015435Y020234D01*X015766Y020565D01*X016234Y020565D01*X016234Y021435D01*
X015766Y021435D01*X015435Y021766D01*X015435Y022234D01*X015766Y022565D01*
X016234Y022565D01*X016234Y023435D01*X015766Y023435D01*X015435Y023766D01*
X015435Y024234D01*X015766Y024565D01*X016234Y024565D01*X016234Y025435D01*
X015766Y025435D01*X015435Y025766D01*X015435Y026234D01*X015766Y026565D01*
X016234Y026565D01*X016234Y027435D01*X015766Y027435D01*X015435Y027766D01*
X015435Y028234D01*X015766Y028565D01*X016234Y028565D01*X016234Y031435D01*
X015766Y031435D01*X015435Y031766D01*X015435Y032234D01*X015766Y032565D01*
X016234Y032565D01*X016234Y034450D01*X014234Y034450D01*X014234Y032565D01*
X014565Y032234D01*X014565Y031766D01*X014234Y031435D01*X014234Y030565D01*
X014565Y030234D01*X014565Y029766D01*X014234Y029435D01*X013766Y029435D01*
X013435Y029766D01*X013435Y030234D01*X013766Y030565D01*X014234Y030565D01*
X014234Y031435D01*X013766Y031435D01*X013435Y031766D01*X013435Y032234D01*
X013766Y032565D01*X014234Y032565D01*X014234Y034450D01*X013234Y034450D01*
X013234Y027565D01*X013565Y027234D01*X013565Y026766D01*X013234Y026435D01*
X013234Y024565D01*X013565Y024234D01*X013565Y023766D01*X013234Y023435D01*
X012766Y023435D01*X012435Y023766D01*X012435Y024234D01*X012766Y024565D01*
X013234Y024565D01*X013234Y026435D01*X012766Y026435D01*X012435Y026766D01*
X012435Y027234D01*X012766Y027565D01*X013234Y027565D01*X013234Y034450D01*
X011300Y034450D01*X011300Y014499D01*X011565Y014234D01*X011565Y013766D01*
X011300Y013501D01*X011300Y005499D01*G37*G36*X046300Y000550D02*X056450Y000550D01*
X056450Y017700D01*X054394Y017700D01*X054394Y016950D01*X054950Y016394D01*
X054950Y015607D01*X054394Y015050D01*X053607Y015050D01*X053050Y015607D01*
X053050Y016394D01*X053607Y016950D01*X054394Y016950D01*X054394Y017700D01*
X053128Y017700D01*X052300Y016872D01*X052300Y009879D01*X051121Y008700D01*
X050234Y008700D01*X050234Y008565D01*X050565Y008234D01*X050565Y007766D01*
X050234Y007435D01*X050234Y006565D01*X050565Y006234D01*X050565Y005766D01*
X050234Y005435D01*X050234Y004565D01*X050565Y004234D01*X050565Y003766D01*
X050234Y003435D01*X050234Y002565D01*X050565Y002234D01*X050565Y001766D01*
X050234Y001435D01*X049766Y001435D01*X049435Y001766D01*X049435Y002234D01*
X049766Y002565D01*X050234Y002565D01*X050234Y003435D01*X049766Y003435D01*
X049435Y003766D01*X049435Y004234D01*X049766Y004565D01*X050234Y004565D01*
X050234Y005435D01*X049766Y005435D01*X049435Y005766D01*X049435Y006234D01*
X049766Y006565D01*X050234Y006565D01*X050234Y007435D01*X049766Y007435D01*
X049435Y007766D01*X049435Y008234D01*X049766Y008565D01*X050234Y008565D01*
X050234Y008700D01*X046300Y008700D01*X046300Y000550D01*G37*G36*X028300Y024128D02*
X028863Y023565D01*X029234Y023565D01*X029499Y023300D01*X034813Y023300D01*
X034900Y023328D01*X034987Y023300D01*X035121Y023300D01*X035185Y023236D01*
X035240Y023218D01*X035320Y023108D01*X035863Y022565D01*X036234Y022565D01*
X036565Y022234D01*X036565Y021766D01*X036300Y021501D01*X036300Y021499D01*
X036565Y021234D01*X036565Y020766D01*X036300Y020501D01*X036300Y020499D01*
X036565Y020234D01*X036565Y019766D01*X036300Y019501D01*X036300Y019499D01*
X036565Y019234D01*X036565Y018766D01*X036300Y018501D01*X036300Y018499D01*
X036565Y018234D01*X036565Y017766D01*X036300Y017501D01*X036300Y017499D01*
X036565Y017234D01*X036565Y016766D01*X036300Y016501D01*X036300Y016128D01*
X036863Y015565D01*X037234Y015565D01*X037499Y015300D01*X037501Y015300D01*
X037766Y015565D01*X038234Y015565D01*X038499Y015300D01*X041700Y015300D01*
X041700Y015872D01*X041137Y016435D01*X040766Y016435D01*X040501Y016700D01*
X040187Y016700D01*X040100Y016672D01*X040013Y016700D01*X039879Y016700D01*
X039815Y016764D01*X039760Y016782D01*X039680Y016892D01*X038955Y017618D01*
X038910Y017632D01*X038812Y017768D01*X038700Y017879D01*X038700Y024872D01*
X037872Y025700D01*X032234Y025700D01*X032234Y025565D01*X032565Y025234D01*
X032565Y024766D01*X032234Y024435D01*X031766Y024435D01*X031435Y024766D01*
X031435Y025234D01*X031766Y025565D01*X032234Y025565D01*X032234Y025700D01*
X029128Y025700D01*X028300Y024872D01*X028300Y024128D01*G37*G36*X037300Y010128D02*
X038128Y009300D01*X045663Y009300D01*X045750Y009328D01*X045837Y009300D01*
X046163Y009300D01*X046250Y009328D01*X046337Y009300D01*X050872Y009300D01*
X051700Y010128D01*X051700Y014688D01*X051663Y014700D01*X046394Y014700D01*
X046394Y014290D01*X046950Y013734D01*X046950Y012947D01*X046394Y012390D01*
X046394Y011750D01*X046950Y011194D01*X046950Y010407D01*X046394Y009850D01*
X045607Y009850D01*X045050Y010407D01*X045050Y011194D01*X045607Y011750D01*
X046394Y011750D01*X046394Y012390D01*X045607Y012390D01*X045050Y012947D01*
X045050Y013734D01*X045607Y014290D01*X046394Y014290D01*X046394Y014700D01*
X043854Y014700D01*X043854Y014290D01*X044410Y013734D01*X044410Y012947D01*
X043854Y012390D01*X043854Y011750D01*X044410Y011194D01*X044410Y010407D01*
X043854Y009850D01*X043067Y009850D01*X042510Y010407D01*X042510Y011194D01*
X043067Y011750D01*X043854Y011750D01*X043854Y012390D01*X043067Y012390D01*
X042510Y012947D01*X042510Y013734D01*X043067Y014290D01*X043854Y014290D01*
X043854Y014700D01*X042337Y014700D01*X042250Y014672D01*X042163Y014700D01*
X041314Y014700D01*X041314Y014290D01*X041870Y013734D01*X041870Y012947D01*
X041314Y012390D01*X041314Y011750D01*X041870Y011194D01*X041870Y010407D01*
X041314Y009850D01*X040527Y009850D01*X039970Y010407D01*X039970Y011194D01*
X040527Y011750D01*X041314Y011750D01*X041314Y012390D01*X040527Y012390D01*
X039970Y012947D01*X039970Y013734D01*X040527Y014290D01*X041314Y014290D01*
X041314Y014700D01*X038774Y014700D01*X038774Y014290D01*X039330Y013734D01*
X039330Y012947D01*X038774Y012390D01*X038774Y011750D01*X039330Y011194D01*
X039330Y010407D01*X038774Y009850D01*X037987Y009850D01*X037430Y010407D01*
X037430Y011194D01*X037987Y011750D01*X038774Y011750D01*X038774Y012390D01*
X037987Y012390D01*X037430Y012947D01*X037430Y013734D01*X037987Y014290D01*
X038774Y014290D01*X038774Y014700D01*X038499Y014700D01*X038234Y014435D01*
X037766Y014435D01*X037501Y014700D01*X037499Y014700D01*X037300Y014501D01*
X037300Y010128D01*G37*G36*X017465Y040976D02*X017465Y040998D01*X017854Y040998D01*
X017854Y040976D01*X017875Y040976D01*X017875Y040955D01*X017918Y040955D01*
X017918Y040933D01*X017940Y040933D01*X017940Y040911D01*X017962Y040911D01*
X017962Y040890D01*X017983Y040890D01*X017983Y040868D01*X018005Y040868D01*
X018005Y040847D01*X018027Y040847D01*X018027Y040825D01*X018048Y040825D01*
X018048Y040803D01*X018070Y040803D01*X018070Y040782D01*X018091Y040782D01*
X018091Y040760D01*X018135Y040760D01*X018135Y040739D01*X018156Y040739D01*
X018156Y040717D01*X018178Y040717D01*X018178Y040695D01*X018199Y040695D01*
X018199Y040674D01*X018221Y040674D01*X018221Y040652D01*X018264Y040652D01*
X018264Y040674D01*X018307Y040674D01*X018307Y040695D01*X018351Y040695D01*
X018351Y040717D01*X018372Y040717D01*X018372Y040739D01*X018415Y040739D01*
X018415Y040760D01*X018437Y040760D01*X018437Y040782D01*X018480Y040782D01*
X018480Y040803D01*X018523Y040803D01*X018523Y040825D01*X018545Y040825D01*
X018545Y040847D01*X018588Y040847D01*X018588Y040868D01*X018610Y040868D01*
X018610Y040890D01*X018653Y040890D01*X018653Y040911D01*X018675Y040911D01*
X018675Y040933D01*X018718Y040933D01*X018718Y040955D01*X018739Y040955D01*
X018739Y040976D01*X018783Y040976D01*X018783Y040998D01*X019236Y040998D01*
X019236Y040976D01*X019193Y040976D01*X019193Y040955D01*X019171Y040955D01*
X019171Y040933D01*X019128Y040933D01*X019128Y040911D01*X019107Y040911D01*
X019107Y040890D01*X019063Y040890D01*X019063Y040868D01*X019042Y040868D01*
X019042Y040847D01*X018999Y040847D01*X018999Y040825D01*X018977Y040825D01*
X018977Y040803D01*X018934Y040803D01*X018934Y040782D01*X018912Y040782D01*
X018912Y040760D01*X018869Y040760D01*X018869Y040739D01*X018847Y040739D01*
X018847Y040717D01*X018804Y040717D01*X018804Y040695D01*X018783Y040695D01*
X018783Y040674D01*X018739Y040674D01*X018739Y040652D01*X018718Y040652D01*
X018718Y040631D01*X018675Y040631D01*X018675Y040609D01*X018653Y040609D01*
X018653Y040587D01*X018610Y040587D01*X018610Y040566D01*X018588Y040566D01*
X018588Y040544D01*X018545Y040544D01*X018545Y040523D01*X018523Y040523D01*
X018523Y040501D01*X018480Y040501D01*X018480Y040458D01*X018005Y040458D01*
X018005Y040523D01*X017983Y040523D01*X017983Y040544D01*X017940Y040544D01*
X017940Y040566D01*X017918Y040566D01*X017918Y040587D01*X017897Y040587D01*
X017897Y040609D01*X017875Y040609D01*X017875Y040631D01*X017854Y040631D01*
X017854Y040652D01*X017832Y040652D01*X017832Y040674D01*X017810Y040674D01*
X017810Y040695D01*X017789Y040695D01*X017789Y040717D01*X017746Y040717D01*
X017746Y040739D01*X017724Y040739D01*X017724Y040760D01*X017702Y040760D01*
X017702Y040782D01*X017681Y040782D01*X017681Y040803D01*X017659Y040803D01*
X017659Y040825D01*X017638Y040825D01*X017638Y040847D01*X017616Y040847D01*
X017616Y040868D01*X017573Y040868D01*X017573Y040890D01*X017551Y040890D01*
X017551Y040911D01*X017530Y040911D01*X017530Y040933D01*X017508Y040933D01*
X017508Y040955D01*X017486Y040955D01*X017486Y040976D01*X017465Y040976D01*G37*G36*
X017530Y040155D02*X017530Y040177D01*X017573Y040177D01*X017573Y040199D01*
X017594Y040199D01*X017594Y040220D01*X017638Y040220D01*X017638Y040242D01*
X017681Y040242D01*X017681Y040263D01*X017702Y040263D01*X017702Y040285D01*
X017746Y040285D01*X017746Y040307D01*X017767Y040307D01*X017767Y040328D01*
X017789Y040328D01*X017789Y040350D01*X017832Y040350D01*X017832Y040371D01*
X017875Y040371D01*X017875Y040393D01*X017897Y040393D01*X017897Y040415D01*
X017940Y040415D01*X017940Y040436D01*X017962Y040436D01*X017962Y040458D01*
X018502Y040458D01*X018502Y040436D01*X018523Y040436D01*X018523Y040415D01*
X018567Y040415D01*X018567Y040393D01*X018588Y040393D01*X018588Y040371D01*
X018610Y040371D01*X018610Y040350D01*X018631Y040350D01*X018631Y040328D01*
X018675Y040328D01*X018675Y040307D01*X018696Y040307D01*X018696Y040285D01*
X018718Y040285D01*X018718Y040263D01*X018739Y040263D01*X018739Y040242D01*
X018783Y040242D01*X018783Y040220D01*X018804Y040220D01*X018804Y040199D01*
X018826Y040199D01*X018826Y040177D01*X018847Y040177D01*X018847Y040155D01*
X018891Y040155D01*X018891Y040134D01*X018912Y040134D01*X018912Y040112D01*
X018934Y040112D01*X018934Y040091D01*X018955Y040091D01*X018955Y040069D01*
X018977Y040069D01*X018977Y040047D01*X019020Y040047D01*X019020Y040026D01*
X019042Y040026D01*X019042Y040004D01*X019063Y040004D01*X019063Y039983D01*
X019085Y039983D01*X019085Y039961D01*X018631Y039961D01*X018631Y039983D01*
X018588Y039983D01*X018588Y040004D01*X018567Y040004D01*X018567Y040026D01*
X018545Y040026D01*X018545Y040047D01*X018523Y040047D01*X018523Y040069D01*
X018502Y040069D01*X018502Y040091D01*X018480Y040091D01*X018480Y040112D01*
X018437Y040112D01*X018437Y040134D01*X018415Y040134D01*X018415Y040155D01*
X018394Y040155D01*X018394Y040177D01*X018372Y040177D01*X018372Y040199D01*
X018351Y040199D01*X018351Y040220D01*X018329Y040220D01*X018329Y040242D01*
X018286Y040242D01*X018286Y040263D01*X018264Y040263D01*X018264Y040285D01*
X018243Y040285D01*X018243Y040307D01*X018199Y040307D01*X018199Y040285D01*
X018156Y040285D01*X018156Y040263D01*X018135Y040263D01*X018135Y040242D01*
X018091Y040242D01*X018091Y040220D01*X018048Y040220D01*X018048Y040199D01*
X018027Y040199D01*X018027Y040177D01*X017983Y040177D01*X017983Y040155D01*
X017530Y040155D01*G37*G36*X015758Y041451D02*X015780Y041451D01*X015780Y041430D01*
X015823Y041430D01*X015823Y041408D01*X015866Y041408D01*X015866Y041430D01*
X015909Y041430D01*X015909Y041451D01*X015953Y041451D01*X015953Y041473D01*
X015996Y041473D01*X015996Y041495D01*X016017Y041495D01*X016017Y041516D01*
X016039Y041516D01*X016039Y041538D01*X016061Y041538D01*X016061Y041560D01*
X016082Y041560D01*X016082Y041581D01*X016104Y041581D01*X016104Y041624D01*
X016125Y041624D01*X016125Y041646D01*X016147Y041646D01*X016147Y041689D01*
X016169Y041689D01*X016169Y041776D01*X016190Y041776D01*X016190Y041948D01*
X016169Y041948D01*X016169Y042013D01*X016017Y042013D01*X016017Y041970D01*
X016039Y041970D01*X016039Y041754D01*X016017Y041754D01*X016017Y041711D01*
X015996Y041711D01*X015996Y041668D01*X015974Y041668D01*X015974Y041646D01*
X015953Y041646D01*X015953Y041624D01*X015931Y041624D01*X015931Y041603D01*
X015888Y041603D01*X015888Y041581D01*X015845Y041581D01*X015845Y041560D01*
X015801Y041560D01*X015801Y041538D01*X015780Y041538D01*X015780Y041516D01*
X015758Y041516D01*X015758Y041451D01*G37*G36*X015305Y042035D02*X015477Y042035D01*
X015477Y042056D01*X015499Y042056D01*X015499Y042100D01*X015521Y042100D01*
X015521Y042121D01*X015564Y042121D01*X015564Y042143D01*X015607Y042143D01*
X015607Y042164D01*X015693Y042164D01*X015693Y042186D01*X015780Y042186D01*
X015780Y042164D01*X015866Y042164D01*X015866Y042143D01*X015888Y042143D01*
X015888Y042121D01*X015931Y042121D01*X015931Y042100D01*X015953Y042100D01*
X015953Y042078D01*X015974Y042078D01*X015974Y042056D01*X015996Y042056D01*
X015996Y042013D01*X016169Y042013D01*X016169Y042035D01*X016147Y042035D01*
X016147Y042078D01*X016125Y042078D01*X016125Y042121D01*X016104Y042121D01*
X016104Y042143D01*X016082Y042143D01*X016082Y042164D01*X016061Y042164D01*
X016061Y042186D01*X016039Y042186D01*X016039Y042208D01*X016017Y042208D01*
X016017Y042229D01*X015996Y042229D01*X015996Y042251D01*X015953Y042251D01*
X015953Y042272D01*X015909Y042272D01*X015909Y042294D01*X015845Y042294D01*
X015845Y042316D01*X015607Y042316D01*X015607Y042294D01*X015542Y042294D01*
X015542Y042272D01*X015499Y042272D01*X015499Y042251D01*X015477Y042251D01*
X015477Y042229D01*X015434Y042229D01*X015434Y042208D01*X015413Y042208D01*
X015413Y042186D01*X015391Y042186D01*X015391Y042164D01*X015369Y042164D01*
X015369Y042121D01*X015348Y042121D01*X015348Y042100D01*X015326Y042100D01*
X015326Y042056D01*X015305Y042056D01*X015305Y042035D01*G37*G36*X015261Y041819D02*
X015283Y041819D01*X015283Y041732D01*X015305Y041732D01*X015305Y041668D01*
X015326Y041668D01*X015326Y041624D01*X015348Y041624D01*X015348Y041603D01*
X015369Y041603D01*X015369Y041560D01*X015391Y041560D01*X015391Y041538D01*
X015434Y041538D01*X015434Y041516D01*X015521Y041516D01*X015521Y041538D01*
X015542Y041538D01*X015542Y041624D01*X015521Y041624D01*X015521Y041646D01*
X015499Y041646D01*X015499Y041668D01*X015477Y041668D01*X015477Y041689D01*
X015456Y041689D01*X015456Y041732D01*X015434Y041732D01*X015434Y041797D01*
X015413Y041797D01*X015413Y041927D01*X015434Y041927D01*X015434Y041992D01*
X015456Y041992D01*X015456Y042035D01*X015305Y042035D01*X015305Y042013D01*
X015283Y042013D01*X015283Y041905D01*X015261Y041905D01*X015261Y041819D01*
G37*G36*
X014462Y040782D02*X014484Y040782D01*X014484Y040739D01*X014505Y040739D01*
X014505Y040717D01*X014527Y040717D01*X014527Y040674D01*X014548Y040674D01*
X014548Y040631D01*X014570Y040631D01*X014570Y040587D01*X014592Y040587D01*
X014592Y040544D01*X014613Y040544D01*X014613Y040501D01*X014635Y040501D01*
X014635Y040479D01*X014656Y040479D01*X014656Y040436D01*X014678Y040436D01*
X014678Y040393D01*X014700Y040393D01*X014700Y040350D01*X014721Y040350D01*
X014721Y040307D01*X014743Y040307D01*X014743Y040263D01*X014765Y040263D01*
X014765Y040242D01*X014786Y040242D01*X014786Y040199D01*X014808Y040199D01*
X014808Y040155D01*X014829Y040155D01*X014829Y040112D01*X014851Y040112D01*
X014851Y040069D01*X014873Y040069D01*X014873Y040047D01*X014894Y040047D01*
X014894Y040004D01*X014916Y040004D01*X014916Y039961D01*X015413Y039961D01*
X015413Y040026D01*X015434Y040026D01*X015434Y040155D01*X015456Y040155D01*
X015456Y040263D01*X015477Y040263D01*X015477Y040393D01*X015499Y040393D01*
X015499Y040523D01*X015521Y040523D01*X015521Y040631D01*X015542Y040631D01*
X015542Y040760D01*X015564Y040760D01*X015564Y040868D01*X015585Y040868D01*
X015585Y040998D01*X015607Y040998D01*X015607Y041127D01*X015629Y041127D01*
X015629Y041257D01*X015650Y041257D01*X015650Y041365D01*X015672Y041365D01*
X015672Y041495D01*X015693Y041495D01*X015693Y041624D01*X015715Y041624D01*
X015715Y041732D01*X015737Y041732D01*X015737Y041819D01*X015715Y041819D01*
X015715Y041776D01*X015693Y041776D01*X015693Y041711D01*X015672Y041711D01*
X015672Y041668D01*X015650Y041668D01*X015650Y041624D01*X015629Y041624D01*
X015629Y041581D01*X015607Y041581D01*X015607Y041538D01*X015585Y041538D01*
X015585Y041495D01*X015564Y041495D01*X015564Y041451D01*X015542Y041451D01*
X015542Y041408D01*X015521Y041408D01*X015521Y041365D01*X015499Y041365D01*
X015499Y041322D01*X015477Y041322D01*X015477Y041279D01*X015456Y041279D01*
X015456Y041214D01*X015434Y041214D01*X015434Y041171D01*X015413Y041171D01*
X015413Y041127D01*X015391Y041127D01*X015391Y041084D01*X015369Y041084D01*
X015369Y041041D01*X015348Y041041D01*X015348Y040998D01*X015326Y040998D01*
X015326Y040955D01*X015305Y040955D01*X015305Y040911D01*X015283Y040911D01*
X015283Y040868D01*X015261Y040868D01*X015261Y040825D01*X015240Y040825D01*
X015240Y040782D01*X015218Y040782D01*X015218Y040717D01*X015197Y040717D01*
X015197Y040674D01*X015175Y040674D01*X015175Y040631D01*X015153Y040631D01*
X015153Y040587D01*X015132Y040587D01*X015132Y040544D01*X015110Y040544D01*
X015110Y040501D01*X015089Y040501D01*X015089Y040458D01*X015067Y040458D01*
X015067Y040415D01*X015024Y040415D01*X015024Y040436D01*X015002Y040436D01*
X015002Y040479D01*X014981Y040479D01*X014981Y040523D01*X014959Y040523D01*
X014959Y040566D01*X014937Y040566D01*X014937Y040609D01*X014916Y040609D01*
X014916Y040631D01*X014894Y040631D01*X014894Y040674D01*X014873Y040674D01*
X014873Y040717D01*X014851Y040717D01*X014851Y040760D01*X014829Y040760D01*
X014829Y040803D01*X014462Y040803D01*X014462Y040782D01*G37*G36*X013857Y040998D02*
X013857Y041019D01*X013879Y041019D01*X013879Y041149D01*X013900Y041149D01*
X013900Y041279D01*X013922Y041279D01*X013922Y041408D01*X013944Y041408D01*
X013944Y041495D01*X014440Y041495D01*X014440Y041473D01*X014462Y041473D01*
X014462Y041430D01*X014484Y041430D01*X014484Y041387D01*X014505Y041387D01*
X014505Y041343D01*X014527Y041343D01*X014527Y041322D01*X014548Y041322D01*
X014548Y041279D01*X014570Y041279D01*X014570Y041235D01*X014592Y041235D01*
X014592Y041192D01*X014613Y041192D01*X014613Y041149D01*X014635Y041149D01*
X014635Y041106D01*X014656Y041106D01*X014656Y041084D01*X014678Y041084D01*
X014678Y041041D01*X014700Y041041D01*X014700Y040998D01*X014721Y040998D01*
X014721Y040955D01*X014743Y040955D01*X014743Y040911D01*X014765Y040911D01*
X014765Y040868D01*X014786Y040868D01*X014786Y040847D01*X014808Y040847D01*
X014808Y040803D01*X014462Y040803D01*X014462Y040825D01*X014440Y040825D01*
X014440Y040868D01*X014419Y040868D01*X014419Y040911D01*X014397Y040911D01*
X014397Y040955D01*X014376Y040955D01*X014376Y040976D01*X014354Y040976D01*
X014354Y041019D01*X014332Y041019D01*X014332Y041063D01*X014311Y041063D01*
X014311Y041041D01*X014289Y041041D01*X014289Y040998D01*X013857Y040998D01*G37*G36*
X013598Y039542D02*X013598Y039564D01*X013620Y039564D01*X013620Y039542D01*
X013598Y039542D01*G37*G36*X012453Y040155D02*X012453Y040199D01*X012475Y040199D01*
X012475Y040307D01*X012496Y040307D01*X012496Y040415D01*X012518Y040415D01*
X012518Y040523D01*X012539Y040523D01*X012539Y040631D01*X012561Y040631D01*
X012561Y040739D01*X012583Y040739D01*X012583Y040847D01*X012604Y040847D01*
X012604Y040890D01*X012626Y040890D01*X012626Y040911D01*X012647Y040911D01*
X012647Y040933D01*X012669Y040933D01*X012669Y040955D01*X012712Y040955D01*
X012712Y040976D01*X012799Y040976D01*X012799Y040998D01*X014268Y040998D01*
X014268Y040955D01*X014246Y040955D01*X014246Y040890D01*X014224Y040890D01*
X014224Y040847D01*X014203Y040847D01*X014203Y040803D01*X014181Y040803D01*
X014181Y040760D01*X014160Y040760D01*X014160Y040695D01*X014138Y040695D01*
X014138Y040652D01*X014116Y040652D01*X014116Y040609D01*X014095Y040609D01*
X014095Y040566D01*X014073Y040566D01*X014073Y040501D01*X014052Y040501D01*
X014052Y040458D01*X014030Y040458D01*X014030Y040415D01*X014008Y040415D01*
X014008Y040371D01*X013987Y040371D01*X013987Y040328D01*X013965Y040328D01*
X013965Y040263D01*X013944Y040263D01*X013944Y040220D01*X013922Y040220D01*
X013922Y040177D01*X013900Y040177D01*X013900Y040134D01*X013879Y040134D01*
X013879Y040069D01*X013857Y040069D01*X013857Y040026D01*X013836Y040026D01*
X013836Y039983D01*X013814Y039983D01*X013814Y039939D01*X013792Y039939D01*
X013792Y039874D01*X013771Y039874D01*X013771Y039831D01*X013749Y039831D01*
X013749Y039788D01*X013728Y039788D01*X013728Y039745D01*X013706Y039745D01*
X013706Y039680D01*X013684Y039680D01*X013684Y039637D01*X013663Y039637D01*
X013663Y039594D01*X013641Y039594D01*X013641Y039550D01*X013620Y039550D01*
X013620Y039637D01*X013641Y039637D01*X013641Y039766D01*X013663Y039766D01*
X013663Y039896D01*X013684Y039896D01*X013684Y040004D01*X013706Y040004D01*
X013706Y040134D01*X013728Y040134D01*X013728Y040263D01*X013749Y040263D01*
X013749Y040393D01*X013771Y040393D01*X013771Y040523D01*X013792Y040523D01*
X013792Y040652D01*X013814Y040652D01*X013814Y040760D01*X013836Y040760D01*
X013836Y040803D01*X013101Y040803D01*X013101Y040782D01*X013058Y040782D01*
X013058Y040760D01*X013036Y040760D01*X013036Y040739D01*X013015Y040739D01*
X013015Y040652D01*X012993Y040652D01*X012993Y040544D01*X012971Y040544D01*
X012971Y040436D01*X012950Y040436D01*X012950Y040328D01*X012928Y040328D01*
X012928Y040220D01*X012907Y040220D01*X012907Y040155D01*X012453Y040155D01*G37*G36*
X010617Y040112D02*X010617Y040242D01*X010638Y040242D01*X010638Y040371D01*
X010660Y040371D01*X010660Y040393D01*X011092Y040393D01*X011092Y040307D01*
X011070Y040307D01*X011070Y040199D01*X011114Y040199D01*X011114Y040177D01*
X011178Y040177D01*X011178Y040155D01*X012907Y040155D01*X012907Y040112D01*
X012885Y040112D01*X012885Y039983D01*X012863Y039983D01*X012863Y039961D01*
X011006Y039961D01*X011006Y039983D01*X010833Y039983D01*X010833Y040004D01*
X010768Y040004D01*X010768Y040026D01*X010703Y040026D01*X010703Y040047D01*
X010682Y040047D01*X010682Y040069D01*X010660Y040069D01*X010660Y040091D01*
X010638Y040091D01*X010638Y040112D01*X010617Y040112D01*G37*G36*X010660Y040393D02*
X010660Y040479D01*X010682Y040479D01*X010682Y040587D01*X010703Y040587D01*
X010703Y040717D01*X010725Y040717D01*X010725Y040825D01*X010746Y040825D01*
X010746Y040890D01*X010768Y040890D01*X010768Y040911D01*X010790Y040911D01*
X010790Y040933D01*X010811Y040933D01*X010811Y040955D01*X010854Y040955D01*
X010854Y040976D01*X010941Y040976D01*X010941Y040998D01*X012345Y040998D01*
X012345Y040976D01*X012388Y040976D01*X012388Y040955D01*X012410Y040955D01*
X012410Y040933D01*X012431Y040933D01*X012431Y040695D01*X012410Y040695D01*
X012410Y040587D01*X011978Y040587D01*X011978Y040674D01*X011999Y040674D01*
X011999Y040782D01*X011978Y040782D01*X011978Y040803D01*X011243Y040803D01*
X011243Y040782D01*X011200Y040782D01*X011200Y040760D01*X011178Y040760D01*
X011178Y040739D01*X011157Y040739D01*X011157Y040674D01*X011135Y040674D01*
X011135Y040609D01*X011114Y040609D01*X011114Y040587D01*X012410Y040587D01*
X012410Y040544D01*X012388Y040544D01*X012388Y040479D01*X012367Y040479D01*
X012367Y040436D01*X012323Y040436D01*X012323Y040415D01*X012302Y040415D01*
X012302Y040393D01*X010660Y040393D01*G37*G36*X009472Y040155D02*X009472Y040285D01*
X009493Y040285D01*X009493Y040393D01*X009515Y040393D01*X009515Y040523D01*
X009537Y040523D01*X009537Y040631D01*X009558Y040631D01*X009558Y040739D01*
X009580Y040739D01*X009580Y040868D01*X009601Y040868D01*X009601Y040976D01*
X009623Y040976D01*X009623Y041084D01*X009645Y041084D01*X009645Y041214D01*
X009666Y041214D01*X009666Y041322D01*X009688Y041322D01*X009688Y041408D01*
X010163Y041408D01*X010163Y041387D01*X010142Y041387D01*X010142Y041279D01*
X010120Y041279D01*X010120Y041192D01*X010098Y041192D01*X010098Y041084D01*
X010077Y041084D01*X010077Y040998D01*X010638Y040998D01*X010638Y040955D01*
X010617Y040955D01*X010617Y040825D01*X010595Y040825D01*X010595Y040803D01*
X010034Y040803D01*X010034Y040739D01*X010012Y040739D01*X010012Y040652D01*
X009990Y040652D01*X009990Y040544D01*X009969Y040544D01*X009969Y040436D01*
X009947Y040436D01*X009947Y040350D01*X009925Y040350D01*X009925Y040199D01*
X009947Y040199D01*X009947Y040177D01*X009990Y040177D01*X009990Y040155D01*
X010530Y040155D01*X010530Y040026D01*X010509Y040026D01*X010509Y039961D01*
X009969Y039961D01*X009969Y039983D01*X009731Y039983D01*X009731Y040004D01*
X009666Y040004D01*X009666Y040026D01*X009601Y040026D01*X009601Y040047D01*
X009580Y040047D01*X009580Y040069D01*X009537Y040069D01*X009537Y040091D01*
X009515Y040091D01*X009515Y040112D01*X009493Y040112D01*X009493Y040155D01*
X009472Y040155D01*G37*G36*X007592Y039983D02*X007592Y040047D01*X007614Y040047D01*
X007614Y040155D01*X007636Y040155D01*X007636Y040263D01*X007657Y040263D01*
X007657Y040393D01*X007679Y040393D01*X007679Y040479D01*X007700Y040479D01*
X007700Y040609D01*X007722Y040609D01*X007722Y040717D01*X007744Y040717D01*
X007744Y040825D01*X007765Y040825D01*X007765Y040911D01*X007787Y040911D01*
X007787Y040998D01*X009040Y040998D01*X009040Y040976D01*X009169Y040976D01*
X009169Y040955D01*X009234Y040955D01*X009234Y040933D01*X009299Y040933D01*
X009299Y040911D01*X009342Y040911D01*X009342Y040890D01*X009364Y040890D01*
X009364Y040868D01*X009407Y040868D01*X009407Y040825D01*X009429Y040825D01*
X009429Y040674D01*X009407Y040674D01*X009407Y040544D01*X009385Y040544D01*
X009385Y040393D01*X009364Y040393D01*X009364Y040263D01*X009342Y040263D01*
X009342Y040134D01*X009321Y040134D01*X009321Y039983D01*X008845Y039983D01*
X008845Y040026D01*X008867Y040026D01*X008867Y040134D01*X008889Y040134D01*
X008889Y040285D01*X008910Y040285D01*X008910Y040393D01*X008932Y040393D01*
X008932Y040523D01*X008953Y040523D01*X008953Y040631D01*X008975Y040631D01*
X008975Y040760D01*X008953Y040760D01*X008953Y040782D01*X008910Y040782D01*
X008910Y040803D01*X008197Y040803D01*X008197Y040782D01*X008176Y040782D01*
X008176Y040652D01*X008154Y040652D01*X008154Y040544D01*X008132Y040544D01*
X008132Y040436D01*X008111Y040436D01*X008111Y040307D01*X008089Y040307D01*
X008089Y040220D01*X008068Y040220D01*X008068Y040091D01*X008046Y040091D01*
X008046Y039983D01*X007592Y039983D01*G37*G36*X006923Y039961D02*X007420Y039961D01*
X007420Y040004D01*X007441Y040004D01*X007441Y040112D01*X007463Y040112D01*
X007463Y040220D01*X007484Y040220D01*X007484Y040328D01*X007506Y040328D01*
X007506Y040436D01*X007528Y040436D01*X007528Y040566D01*X007549Y040566D01*
X007549Y040674D01*X007571Y040674D01*X007571Y040782D01*X007592Y040782D01*
X007592Y040890D01*X007614Y040890D01*X007614Y040998D01*X007636Y040998D01*
X007636Y041106D01*X007657Y041106D01*X007657Y041235D01*X007679Y041235D01*
X007679Y041343D01*X007700Y041343D01*X007700Y041451D01*X007722Y041451D01*
X007722Y041560D01*X007744Y041560D01*X007744Y041603D01*X007225Y041603D01*
X007225Y041603D01*X007225Y041516D01*X007204Y041516D01*X007204Y041408D01*
X007182Y041408D01*X007182Y041300D01*X007160Y041300D01*X007160Y041171D01*
X007139Y041171D01*X007139Y041063D01*X007117Y041063D01*X007117Y040955D01*
X007096Y040955D01*X007096Y040847D01*X007074Y040847D01*X007074Y040739D01*
X007052Y040739D01*X007052Y040609D01*X007031Y040609D01*X007031Y040501D01*
X007009Y040501D01*X007009Y040393D01*X006988Y040393D01*X006988Y040285D01*
X006966Y040285D01*X006966Y040177D01*X006944Y040177D01*X006944Y040047D01*
X006923Y040047D01*X006923Y039961D01*G37*G36*X002775Y040514D02*X002797Y040514D01*
X002797Y040450D01*X002818Y040450D01*X002818Y040406D01*X002840Y040406D01*
X002840Y040363D01*X002861Y040363D01*X002861Y040320D01*X002883Y040320D01*
X002883Y040298D01*X002905Y040298D01*X002905Y040255D01*X002926Y040255D01*
X002926Y040233D01*X002948Y040233D01*X002948Y040212D01*X002969Y040212D01*
X002969Y040190D01*X002991Y040190D01*X002991Y040169D01*X003013Y040169D01*
X003013Y040147D01*X003034Y040147D01*X003034Y040126D01*X003077Y040126D01*
X003077Y040104D01*X003099Y040104D01*X003099Y040082D01*X003120Y040082D01*
X003120Y040061D01*X003164Y040061D01*X003164Y040039D01*X003186Y040039D01*
X003186Y040017D01*X003229Y040017D01*X003229Y039996D01*X003250Y039996D01*
X003250Y039974D01*X003293Y039974D01*X003293Y039953D01*X003315Y039953D01*
X003315Y039931D01*X003358Y039931D01*X003358Y039909D01*X003401Y039909D01*
X003401Y039888D01*X003445Y039888D01*X003445Y039866D01*X003488Y039866D01*
X003488Y039845D01*X003531Y039845D01*X003531Y039823D01*X003574Y039823D01*
X003574Y039801D01*X003617Y039801D01*X003617Y039780D01*X003661Y039780D01*
X003661Y039758D01*X003704Y039758D01*X003704Y039737D01*X003768Y039737D01*
X003768Y039715D01*X003790Y039715D01*X003790Y039693D01*X003855Y039693D01*
X003855Y039672D01*X003899Y039672D01*X003899Y039650D01*X003942Y039650D01*
X003942Y039629D01*X003985Y039629D01*X003985Y039607D01*X004028Y039607D01*
X004028Y039650D01*X004007Y039650D01*X004007Y039889D01*X004028Y039889D01*
X004028Y039974D01*X004049Y039974D01*X004049Y040040D01*X004071Y040040D01*
X004071Y040104D01*X004093Y040104D01*X004093Y040147D01*X004115Y040147D01*
X004115Y040212D01*X004137Y040212D01*X004137Y040255D01*X004158Y040255D01*
X004158Y040276D01*X004180Y040276D01*X004180Y040320D01*X004201Y040320D01*
X004201Y040363D01*X004223Y040363D01*X004223Y040406D01*X004244Y040406D01*
X004244Y040450D01*X004266Y040450D01*X004266Y040471D01*X004287Y040471D01*
X004287Y040514D01*X004308Y040514D01*X004308Y040536D01*X004331Y040536D01*
X004331Y040579D01*X004352Y040579D01*X004352Y040601D01*X004373Y040601D01*
X004373Y040644D01*X004396Y040644D01*X004396Y040666D01*X004417Y040666D01*
X004417Y040709D01*X004438Y040709D01*X004438Y040752D01*X004460Y040752D01*
X004460Y040774D01*X004482Y040774D01*X004482Y040817D01*X004503Y040817D01*
X004503Y040838D01*X004525Y040838D01*X004525Y040881D01*X004547Y040881D01*
X004547Y040903D01*X004568Y040903D01*X004568Y040946D01*X004589Y040946D01*
X004589Y040990D01*X004611Y040990D01*X004611Y041011D01*X004633Y041011D01*
X004633Y041055D01*X004654Y041055D01*X004654Y041098D01*X004677Y041098D01*
X004677Y041141D01*X004698Y041141D01*X004698Y041163D01*X004093Y041163D01*
X004093Y041141D01*X004071Y041141D01*X004071Y041162D01*X004050Y041162D01*
X004050Y041141D01*X003877Y041141D01*X003877Y041120D01*X003727Y041120D01*
X003727Y041098D01*X003640Y041098D01*X003640Y041077D01*X003552Y041077D01*
X003552Y041055D01*X003488Y041055D01*X003488Y041032D01*X003445Y041032D01*
X003445Y041012D01*X003379Y041012D01*X003379Y040989D01*X003337Y040989D01*
X003337Y040968D01*X003293Y040968D01*X003293Y040946D01*X003271Y040946D01*
X003271Y040925D01*X003229Y040925D01*X003229Y040903D01*X003206Y040903D01*
X003206Y040882D01*X003186Y040882D01*X003186Y040861D01*X003164Y040861D01*
X003164Y040839D01*X003143Y040839D01*X003143Y040817D01*X003121Y040817D01*
X003121Y040860D01*X003143Y040860D01*X003143Y040881D01*X003165Y040881D01*
X003165Y040925D01*X003185Y040925D01*X003185Y040946D01*X003207Y040946D01*
X003207Y040968D01*X003228Y040968D01*X003228Y040990D01*X003251Y040990D01*
X003251Y041011D01*X003272Y041011D01*X003272Y041033D01*X003294Y041033D01*
X003294Y041054D01*X003337Y041054D01*X003337Y041076D01*X003358Y041076D01*
X003358Y041098D01*X003379Y041098D01*X003379Y041119D01*X003423Y041119D01*
X003423Y041140D01*X003445Y041140D01*X003445Y041162D01*X003488Y041162D01*
X003488Y041184D01*X003531Y041184D01*X003531Y041206D01*X003574Y041206D01*
X003574Y041227D01*X003640Y041227D01*X003640Y041249D01*X003683Y041249D01*
X003683Y041270D01*X003747Y041270D01*X003747Y041293D01*X003813Y041293D01*
X003813Y041314D01*X003878Y041314D01*X003878Y041335D01*X003964Y041335D01*
X003964Y041356D01*X004050Y041356D01*X004050Y041378D01*X004157Y041378D01*
X004157Y041400D01*X004287Y041400D01*X004287Y041421D01*X004481Y041421D01*
X004481Y041443D01*X005044Y041443D01*X005044Y041465D01*X005216Y041465D01*
X005216Y041486D01*X005303Y041486D01*X005303Y041508D01*X005367Y041508D01*
X005367Y041530D01*X005433Y041530D01*X005433Y041551D01*X005562Y041551D01*
X005562Y041529D01*X005583Y041529D01*X005583Y041508D01*X005605Y041508D01*
X005605Y041443D01*X005583Y041443D01*X005583Y041378D01*X005562Y041378D01*
X005562Y041335D01*X005540Y041335D01*X005540Y041292D01*X005518Y041292D01*
X005518Y041270D01*X005497Y041270D01*X005497Y041227D01*X005475Y041227D01*
X005475Y041206D01*X005454Y041206D01*X005454Y041163D01*X005432Y041163D01*
X005432Y041141D01*X005410Y041141D01*X005410Y041098D01*X005389Y041098D01*
X005389Y041076D01*X005367Y041076D01*X005367Y041033D01*X005346Y041033D01*
X005346Y041011D01*X005324Y041011D01*X005324Y040990D01*X005303Y040990D01*
X005303Y040968D01*X005281Y040968D01*X005281Y040925D01*X005259Y040925D01*
X005259Y040904D01*X005238Y040904D01*X005238Y040882D01*X005216Y040882D01*
X005216Y040839D01*X005195Y040839D01*X005195Y040817D01*X005173Y040817D01*
X005173Y040796D01*X005151Y040796D01*X005151Y040752D01*X005130Y040752D01*
X005130Y040730D01*X005108Y040730D01*X005108Y040709D01*X005086Y040709D01*
X005086Y040687D01*X005065Y040687D01*X005065Y040644D01*X005043Y040644D01*
X005043Y040622D01*X005022Y040622D01*X005022Y040601D01*X005000Y040601D01*
X005000Y040580D01*X004979Y040580D01*X004979Y040536D01*X004957Y040536D01*
X004957Y040514D01*X004935Y040514D01*X004935Y040493D01*X004914Y040493D01*
X004914Y040450D01*X004892Y040450D01*X004892Y040428D01*X004870Y040428D01*
X004870Y040407D01*X004848Y040407D01*X004848Y040363D01*X004827Y040363D01*
X004827Y040341D01*X004806Y040341D01*X004806Y040320D01*X004784Y040320D01*
X004784Y040277D01*X004762Y040277D01*X004762Y040255D01*X004741Y040255D01*
X004741Y040212D01*X004719Y040212D01*X004719Y040190D01*X004698Y040190D01*
X004698Y040147D01*X004676Y040147D01*X004676Y040125D01*X004654Y040125D01*
X004654Y040082D01*X004633Y040082D01*X004633Y040039D01*X004611Y040039D01*
X004611Y039996D01*X004590Y039996D01*X004590Y039953D01*X004568Y039953D01*
X004568Y039910D01*X004547Y039910D01*X004547Y039867D01*X004525Y039867D01*
X004525Y039802D01*X004503Y039802D01*X004503Y039650D01*X004525Y039650D01*
X004525Y039607D01*X004547Y039607D01*X004547Y039585D01*X004741Y039585D01*
X004741Y039608D01*X004806Y039608D01*X004806Y039629D01*X004849Y039629D01*
X004849Y039650D01*X004870Y039650D01*X004870Y039673D01*X004892Y039673D01*
X004892Y039694D01*X004914Y039694D01*X004914Y039715D01*X004936Y039715D01*
X004936Y039737D01*X004957Y039737D01*X004957Y039758D01*X004979Y039758D01*
X004979Y039801D01*X005000Y039801D01*X005000Y039823D01*X005022Y039823D01*
X005022Y039845D01*X005064Y039845D01*X005064Y039866D01*X005108Y039866D01*
X005108Y039888D01*X005195Y039888D01*X005195Y039866D01*X005238Y039866D01*
X005238Y039823D01*X005259Y039823D01*X005259Y039651D01*X005238Y039651D01*
X005238Y039607D01*X005216Y039607D01*X005216Y039585D01*X005195Y039585D01*
X005195Y039564D01*X005173Y039564D01*X005173Y039543D01*X005151Y039543D01*
X005151Y039520D01*X005130Y039520D01*X005130Y039499D01*X005107Y039499D01*
X005107Y039477D01*X005065Y039477D01*X005065Y039455D01*X005043Y039455D01*
X005043Y039434D01*X005000Y039434D01*X005000Y039412D01*X004957Y039412D01*
X004957Y039391D01*X004892Y039391D01*X004892Y039369D01*X004828Y039369D01*
X004828Y039348D01*X004741Y039348D01*X004741Y039327D01*X004827Y039327D01*
X004827Y039304D01*X004978Y039304D01*X004978Y039283D01*X005173Y039283D01*
X005173Y039304D01*X005324Y039304D01*X005324Y039326D01*X005388Y039326D01*
X005388Y039348D01*X005454Y039348D01*X005454Y039370D01*X005497Y039370D01*
X005497Y039391D01*X005540Y039391D01*X005540Y039413D01*X005562Y039413D01*
X005562Y039435D01*X005605Y039435D01*X005605Y039455D01*X005626Y039455D01*
X005626Y039478D01*X005670Y039478D01*X005670Y039498D01*X005691Y039498D01*
X005691Y039520D01*X005713Y039520D01*X005713Y039542D01*X005735Y039542D01*
X005735Y039564D01*X005756Y039564D01*X005756Y039586D01*X005778Y039586D01*
X005778Y039607D01*X005800Y039607D01*X005800Y039628D01*X005821Y039628D01*
X005821Y039672D01*X005843Y039672D01*X005843Y039694D01*X005864Y039694D01*
X005864Y039715D01*X005886Y039715D01*X005886Y039758D01*X005908Y039758D01*
X005908Y039801D01*X005929Y039801D01*X005929Y039845D01*X005951Y039845D01*
X005951Y039866D01*X005972Y039866D01*X005972Y039931D01*X005994Y039931D01*
X005994Y039974D01*X006015Y039974D01*X006015Y040017D01*X006037Y040017D01*
X006037Y040061D01*X006058Y040061D01*X006058Y040126D01*X006080Y040126D01*
X006080Y040169D01*X006102Y040169D01*X006102Y040233D01*X006124Y040233D01*
X006124Y040297D01*X006146Y040297D01*X006146Y040341D01*X006167Y040341D01*
X006167Y040407D01*X006189Y040407D01*X006189Y040471D01*X006210Y040471D01*
X006210Y040514D01*X006231Y040514D01*X006231Y040579D01*X006253Y040579D01*
X006253Y040644D01*X006275Y040644D01*X006275Y040730D01*X006296Y040730D01*
X006296Y040796D01*X006317Y040796D01*X006317Y040882D01*X006340Y040882D01*
X006340Y040989D01*X006361Y040989D01*X006361Y041119D01*X006382Y041119D01*
X006382Y041595D01*X006360Y041595D01*X006360Y041681D01*X006339Y041681D01*
X006339Y041767D01*X006318Y041767D01*X006318Y041810D01*X006296Y041810D01*
X006296Y041875D01*X006275Y041875D01*X006275Y041897D01*X006253Y041897D01*
X006253Y041940D01*X006232Y041940D01*X006232Y041962D01*X006210Y041962D01*
X006210Y041984D01*X006189Y041984D01*X006189Y042027D01*X006167Y042027D01*
X006167Y042049D01*X006144Y042049D01*X006144Y042070D01*X006101Y042070D01*
X006101Y042091D01*X006079Y042091D01*X006079Y042113D01*X006059Y042113D01*
X006059Y042134D01*X006017Y042134D01*X006017Y042156D01*X005973Y042156D01*
X005973Y042177D01*X005908Y042177D01*X005908Y042200D01*X005864Y042200D01*
X005864Y042092D01*X005842Y042092D01*X005842Y042048D01*X005821Y042048D01*
X005821Y042005D01*X005799Y042005D01*X005799Y041961D01*X005778Y041961D01*
X005778Y041941D01*X005756Y041941D01*X005756Y041919D01*X005735Y041919D01*
X005735Y041897D01*X005713Y041897D01*X005713Y041875D01*X005692Y041875D01*
X005692Y041854D01*X005648Y041854D01*X005648Y041832D01*X005605Y041832D01*
X005605Y041811D01*X005519Y041811D01*X005519Y041788D01*X005367Y041788D01*
X005367Y041811D01*X005302Y041811D01*X005302Y041832D01*X005259Y041832D01*
X005259Y041854D01*X005238Y041854D01*X005238Y041876D01*X005216Y041876D01*
X005216Y041897D01*X005195Y041897D01*X005195Y041919D01*X005173Y041919D01*
X005173Y041962D01*X005152Y041962D01*X005152Y042135D01*X005173Y042135D01*
X005173Y042178D01*X005195Y042178D01*X005195Y042221D01*X005065Y042221D01*
X005065Y042199D01*X004957Y042199D01*X004957Y042178D01*X004870Y042178D01*
X004870Y042156D01*X004784Y042156D01*X004784Y042135D01*X004719Y042135D01*
X004719Y042113D01*X004633Y042113D01*X004633Y042091D01*X004568Y042091D01*
X004568Y042070D01*X004503Y042070D01*X004503Y042048D01*X004460Y042048D01*
X004460Y042026D01*X004395Y042026D01*X004395Y042005D01*X004352Y042005D01*
X004352Y041983D01*X004287Y041983D01*X004287Y041962D01*X004244Y041962D01*
X004244Y041940D01*X004201Y041940D01*X004201Y041919D01*X004158Y041919D01*
X004158Y041897D01*X004114Y041897D01*X004114Y041875D01*X004050Y041875D01*
X004050Y041854D01*X004006Y041854D01*X004006Y041832D01*X003963Y041832D01*
X003963Y041811D01*X003942Y041811D01*X003942Y041789D01*X003898Y041789D01*
X003898Y041767D01*X003855Y041767D01*X003855Y041746D01*X003812Y041746D01*
X003812Y041724D01*X003769Y041724D01*X003769Y041703D01*X003726Y041703D01*
X003726Y041681D01*X003704Y041681D01*X003704Y041659D01*X003661Y041659D01*
X003661Y041638D01*X003617Y041638D01*X003617Y041616D01*X003574Y041616D01*
X003574Y041595D01*X003553Y041595D01*X003553Y041573D01*X003509Y041573D01*
X003509Y041552D01*X003466Y041552D01*X003466Y041530D01*X003445Y041530D01*
X003445Y041508D01*X003402Y041508D01*X003402Y041486D01*X003380Y041486D01*
X003380Y041465D01*X003337Y041465D01*X003337Y041443D01*X003293Y041443D01*
X003293Y041422D01*X003272Y041422D01*X003272Y041400D01*X003229Y041400D01*
X003229Y041379D01*X003207Y041379D01*X003207Y041357D01*X003185Y041357D01*
X003185Y041336D01*X003142Y041336D01*X003142Y041314D01*X003120Y041314D01*
X003120Y041292D01*X003099Y041292D01*X003099Y041271D01*X003077Y041271D01*
X003077Y041249D01*X003056Y041249D01*X003056Y041227D01*X003034Y041227D01*
X003034Y041206D01*X003013Y041206D01*X003013Y041184D01*X002991Y041184D01*
X002991Y041162D01*X002969Y041162D01*X002969Y041141D01*X002948Y041141D01*
X002948Y041098D01*X002926Y041098D01*X002926Y041076D01*X002905Y041076D01*
X002905Y041033D01*X002883Y041033D01*X002883Y041011D01*X002861Y041011D01*
X002861Y040968D01*X002840Y040968D01*X002840Y040925D01*X002818Y040925D01*
X002818Y040860D01*X002797Y040860D01*X002797Y040774D01*X002775Y040774D01*
X002775Y040514D01*
G37*G36*X015607Y040371D02*X015607Y040458D01*X015629Y040458D01*
X015629Y040566D01*X015650Y040566D01*X015650Y040674D01*X015672Y040674D01*
X015672Y040782D01*X015693Y040782D01*X015693Y040868D01*X015715Y040868D01*
X015715Y040911D01*X015737Y040911D01*X015737Y040933D01*X015758Y040933D01*
X015758Y040955D01*X015801Y040955D01*X015801Y040976D01*X015888Y040976D01*
X015888Y040998D01*X017292Y040998D01*X017292Y040976D01*X017335Y040976D01*
X017335Y040955D01*X017378Y040955D01*X017378Y040911D01*X017400Y040911D01*
X017400Y040760D01*X017378Y040760D01*X017378Y040609D01*X017357Y040609D01*
X017357Y040587D01*X016925Y040587D01*X016925Y040652D01*X016946Y040652D01*
X016946Y040782D01*X016925Y040782D01*X016925Y040803D01*X016212Y040803D01*
X016212Y040782D01*X016169Y040782D01*X016169Y040760D01*X016147Y040760D01*
X016147Y040739D01*X016125Y040739D01*X016125Y040717D01*X016104Y040717D01*
X016104Y040652D01*X016082Y040652D01*X016082Y040587D01*X017357Y040587D01*
X017357Y040544D01*X017357Y040501D01*X017335Y040501D01*X017335Y040458D01*
X017314Y040458D01*X017314Y040436D01*X017292Y040436D01*X017292Y040415D01*
X017249Y040415D01*X017249Y040393D01*X017162Y040393D01*X017162Y040371D01*
X015607Y040371D01*G37*G36*X015564Y040134D02*X015564Y040220D01*X015585Y040220D01*
X015585Y040350D01*X015607Y040350D01*X015607Y040371D01*X016039Y040371D01*
X016039Y040307D01*X016039Y040263D01*X016017Y040263D01*X016017Y040220D01*
X016039Y040220D01*X016039Y040199D01*X016082Y040199D01*X016082Y040177D01*
X016147Y040177D01*X016147Y040155D01*X017962Y040155D01*X017962Y040134D01*
X017918Y040134D01*X017918Y040112D01*X017897Y040112D01*X017897Y040091D01*
X017854Y040091D01*X017854Y040069D01*X017832Y040069D01*X017832Y040047D01*
X017789Y040047D01*X017789Y040026D01*X017767Y040026D01*X017767Y040004D01*
X017724Y040004D01*X017724Y039983D01*X017702Y039983D01*X017702Y039961D01*
X015931Y039961D01*X015931Y039983D01*X015780Y039983D01*X015780Y040004D01*
X015715Y040004D01*X015715Y040026D01*X015650Y040026D01*X015650Y040047D01*
X015629Y040047D01*X015629Y040069D01*X015607Y040069D01*X015607Y040091D01*
X015585Y040091D01*X015585Y040134D01*X015564Y040134D01*G37*X000000Y000000D02*M02*
