%MOMM*%
%FSLAX33Y33*%
%ADD10C,0.203200*%
%ADD14C,0.070000*%
%ADD16R,0.900000X1.000000*%
%ADD17C,1.300000*%
%ADD70R,1.000000X0.900000*%
%ADD71R,1.300000X1.300000*%
%ADD20C,1.500000*%
%ADD21R,1.500000X1.500000*%
%ADD22C,1.150000*%
%ADD25C,1.400000*%
%ADD73R,1.400000X1.400000*%
%ADD131C,2.200000*%
%ADD132C,2.500000*%
G90*G71*G01*D02*G54D10*X000000Y000000D02*X057000Y000000D01*X057000Y035000D01*
X000000Y035000D01*X000000Y000000D01*D02*G54D14*X019750Y042500D02*
X002250Y042500D01*X002250Y039000D01*X019750Y039000D01*X019750Y040750D02*
X054750Y040750D01*X033750Y042500D02*X033750Y039000D01*X019750Y042500D02*
X054750Y042500D01*X054750Y039000D02*X019750Y039000D01*X019750Y042500D02*
X019750Y039000D01*X054750Y042500D02*X054750Y039000D01*X044250Y042500D02*
X044250Y039000D01*X046154Y040098D02*X046154Y040066D01*X046186Y040066D01*
X046186Y040098D01*X046154Y040098D01*X046154Y040130D02*X046186Y040130D01*
X046218Y040098D01*X046218Y040066D01*X046186Y040034D01*X046154Y040034D01*
X046123Y040066D01*X046123Y040098D01*X046154Y040161D01*X046186Y040193D01*
X046282Y040214D01*X046414Y040214D01*X046509Y040193D01*X046541Y040161D01*
X046578Y040098D01*X046578Y040034D01*X046541Y039981D01*X046446Y039917D01*
X046282Y039854D01*X046218Y039822D01*X046154Y039758D01*X046123Y039673D01*
X046123Y039578D01*X046509Y040161D02*X046541Y040098D01*X046541Y040034D01*
X046509Y039981D01*X046414Y040214D02*X046477Y040193D01*X046509Y040098D01*
X046509Y040034D01*X046477Y039981D01*X046414Y039917D01*X046282Y039854D01*
X046123Y039642D02*X046154Y039673D01*X046218Y039673D01*X046377Y039642D01*
X046509Y039642D01*X046578Y039673D01*X046218Y039673D02*X046377Y039610D01*
X046509Y039610D01*X046541Y039642D01*X046218Y039673D02*X046377Y039578D01*
X046509Y039578D01*X046541Y039610D01*X046578Y039673D01*X046578Y039727D01*
X047014Y040214D02*X046918Y040193D01*X046854Y040098D01*X046823Y039949D01*
X046823Y039854D01*X046854Y039705D01*X046918Y039610D01*X047014Y039578D01*
X047082Y039578D01*X047177Y039610D01*X047241Y039705D01*X047278Y039854D01*
X047278Y039949D01*X047241Y040098D01*X047177Y040193D01*X047082Y040214D01*
X047014Y040214D01*X046918Y040161D02*X046886Y040098D01*X046854Y039981D01*
X046854Y039822D01*X046886Y039705D01*X046918Y039642D01*X047177Y039642D02*
X047209Y039705D01*X047241Y039822D01*X047241Y039981D01*X047209Y040098D01*
X047177Y040161D01*X047014Y040214D02*X046950Y040193D01*X046918Y040130D01*
X046886Y039981D01*X046886Y039822D01*X046918Y039673D01*X046950Y039610D01*
X047014Y039578D01*X047082Y039578D02*X047146Y039610D01*X047177Y039673D01*
X047209Y039822D01*X047209Y039981D01*X047177Y040130D01*X047146Y040193D01*
X047082Y040214D01*X047727Y040161D02*X047727Y039578D01*X047745Y040161D02*
X047745Y039610D01*X047759Y040214D02*X047759Y039578D01*X047759Y040214D02*
X047714Y040130D01*X047686Y040098D01*X047673Y039578D02*X047818Y039578D01*
X047727Y039610D02*X047700Y039578D01*X047727Y039642D02*X047714Y039578D01*
X047759Y039642D02*X047773Y039578D01*X047759Y039610D02*X047786Y039578D01*
X048577Y040130D02*X048577Y040098D01*X048609Y040098D01*X048609Y040130D01*
X048577Y040130D01*X048609Y040161D02*X048577Y040161D01*X048546Y040130D01*
X048546Y040098D01*X048577Y040066D01*X048609Y040066D01*X048641Y040098D01*
X048641Y040130D01*X048609Y040193D01*X048546Y040214D01*X048450Y040214D01*
X048350Y040193D01*X048286Y040130D01*X048254Y040066D01*X048223Y039949D01*
X048223Y039758D01*X048254Y039673D01*X048318Y039610D01*X048414Y039578D01*
X048482Y039578D01*X048577Y039610D01*X048641Y039673D01*X048678Y039758D01*
X048678Y039790D01*X048641Y039886D01*X048577Y039949D01*X048482Y039981D01*
X048414Y039981D01*X048350Y039949D01*X048318Y039917D01*X048286Y039854D01*
X048318Y040130D02*X048286Y040066D01*X048254Y039949D01*X048254Y039758D01*
X048286Y039673D01*X048318Y039642D01*X048609Y039673D02*X048641Y039727D01*
X048641Y039822D01*X048609Y039886D01*X048450Y040214D02*X048382Y040193D01*
X048350Y040161D01*X048318Y040098D01*X048286Y039981D01*X048286Y039758D01*
X048318Y039673D01*X048350Y039610D01*X048414Y039578D01*X048482Y039578D02*
X048546Y039610D01*X048577Y039642D01*X048609Y039727D01*X048609Y039822D01*
X048577Y039917D01*X048546Y039949D01*X048482Y039981D01*X049141Y039673D02*
X049127Y039642D01*X049127Y039610D01*X049141Y039578D01*X049155Y039578D01*
X049168Y039610D01*X049168Y039642D01*X049155Y039673D01*X049141Y039673D01*
X049141Y039642D02*X049141Y039610D01*X049155Y039610D01*X049155Y039642D01*
X049141Y039642D01*X049827Y040161D02*X049827Y039578D01*X049845Y040161D02*
X049845Y039610D01*X049859Y040214D02*X049859Y039578D01*X049859Y040214D02*
X049814Y040130D01*X049786Y040098D01*X049773Y039578D02*X049918Y039578D01*
X049827Y039610D02*X049800Y039578D01*X049827Y039642D02*X049814Y039578D01*
X049859Y039642D02*X049873Y039578D01*X049859Y039610D02*X049886Y039578D01*
X050514Y040214D02*X050418Y040193D01*X050354Y040098D01*X050322Y039949D01*
X050322Y039854D01*X050354Y039705D01*X050418Y039610D01*X050514Y039578D01*
X050582Y039578D01*X050677Y039610D01*X050741Y039705D01*X050777Y039854D01*
X050777Y039949D01*X050741Y040098D01*X050677Y040193D01*X050582Y040214D01*
X050514Y040214D01*X050418Y040161D02*X050386Y040098D01*X050354Y039981D01*
X050354Y039822D01*X050386Y039705D01*X050418Y039642D01*X050677Y039642D02*
X050709Y039705D01*X050741Y039822D01*X050741Y039981D01*X050709Y040098D01*
X050677Y040161D01*X050514Y040214D02*X050450Y040193D01*X050418Y040130D01*
X050386Y039981D01*X050386Y039822D01*X050418Y039673D01*X050450Y039610D01*
X050514Y039578D01*X050582Y039578D02*X050646Y039610D01*X050677Y039673D01*
X050709Y039822D01*X050709Y039981D01*X050677Y040130D01*X050646Y040193D01*
X050582Y040214D01*X051241Y039673D02*X051227Y039642D01*X051227Y039610D01*
X051241Y039578D01*X051255Y039578D01*X051268Y039610D01*X051268Y039642D01*
X051255Y039673D01*X051241Y039673D01*X051241Y039642D02*X051241Y039610D01*
X051255Y039610D01*X051255Y039642D01*X051241Y039642D01*X051914Y040214D02*
X051818Y040193D01*X051754Y040098D01*X051722Y039949D01*X051722Y039854D01*
X051754Y039705D01*X051818Y039610D01*X051914Y039578D01*X051982Y039578D01*
X052077Y039610D01*X052141Y039705D01*X052177Y039854D01*X052177Y039949D01*
X052141Y040098D01*X052077Y040193D01*X051982Y040214D01*X051914Y040214D01*
X051818Y040161D02*X051786Y040098D01*X051754Y039981D01*X051754Y039822D01*
X051786Y039705D01*X051818Y039642D01*X052077Y039642D02*X052109Y039705D01*
X052141Y039822D01*X052141Y039981D01*X052109Y040098D01*X052077Y040161D01*
X051914Y040214D02*X051850Y040193D01*X051818Y040130D01*X051786Y039981D01*
X051786Y039822D01*X051818Y039673D01*X051850Y039610D01*X051914Y039578D01*
X051982Y039578D02*X052046Y039610D01*X052077Y039673D01*X052109Y039822D01*
X052109Y039981D01*X052077Y040130D01*X052046Y040193D01*X051982Y040214D01*
X052677Y040130D02*X052677Y039578D01*X052705Y040161D02*X052705Y039610D01*
X052732Y040214D02*X052732Y039578D01*X052732Y040214D02*X052422Y039758D01*
X052877Y039758D01*X052591Y039578D02*X052818Y039578D01*X052677Y039610D02*
X052618Y039578D01*X052677Y039642D02*X052645Y039578D01*X052732Y039642D02*
X052759Y039578D01*X052732Y039610D02*X052791Y039578D01*X048300Y041964D02*
X048300Y041328D01*X048327Y041943D02*X048327Y041360D01*X048354Y041964D02*
X048354Y041328D01*X048223Y041964D02*X048486Y041964D01*X048568Y041943D01*
X048623Y041880D01*X048650Y041816D01*X048678Y041731D01*X048678Y041572D01*
X048650Y041477D01*X048623Y041423D01*X048568Y041360D01*X048486Y041328D01*
X048223Y041328D01*X048596Y041880D02*X048623Y041816D01*X048650Y041731D01*
X048650Y041572D01*X048623Y041477D01*X048596Y041423D01*X048486Y041964D02*
X048541Y041943D01*X048596Y041848D01*X048623Y041731D01*X048623Y041572D01*
X048596Y041455D01*X048541Y041360D01*X048486Y041328D01*X048245Y041964D02*
X048300Y041943D01*X048273Y041964D02*X048300Y041911D01*X048382Y041964D02*
X048354Y041911D01*X048409Y041964D02*X048354Y041943D01*X048300Y041360D02*
X048245Y041328D01*X048300Y041392D02*X048273Y041328D01*X048354Y041392D02*
X048382Y041328D01*X048354Y041360D02*X048409Y041328D01*X049150Y041964D02*
X048973Y041360D01*X049123Y041880D02*X049273Y041328D01*X049150Y041880D02*
X049300Y041328D01*X049150Y041964D02*X049323Y041328D01*X049023Y041508D02*
X049250Y041508D01*X048923Y041328D02*X049073Y041328D01*X049200Y041328D02*
X049378Y041328D01*X048973Y041360D02*X048945Y041328D01*X048973Y041360D02*
X049023Y041328D01*X049273Y041360D02*X049223Y041328D01*X049273Y041392D02*
X049250Y041328D01*X049300Y041392D02*X049350Y041328D01*X049623Y041964D02*
X049623Y041784D01*X049818Y041964D02*X049818Y041328D01*X049850Y041943D02*
X049850Y041360D01*X049877Y041964D02*X049877Y041328D01*X050077Y041964D02*
X050077Y041784D01*X049623Y041964D02*X050077Y041964D01*X049736Y041328D02*
X049959Y041328D01*X049650Y041964D02*X049623Y041784D01*X049677Y041964D02*
X049623Y041880D01*X049704Y041964D02*X049623Y041911D01*X049764Y041964D02*
X049623Y041943D01*X049932Y041964D02*X050077Y041943D01*X049991Y041964D02*
X050077Y041911D01*X050018Y041964D02*X050077Y041880D01*X050046Y041964D02*
X050077Y041784D01*X049818Y041360D02*X049764Y041328D01*X049818Y041392D02*
X049791Y041328D01*X049877Y041392D02*X049905Y041328D01*X049877Y041360D02*
X049932Y041328D01*X050404Y041964D02*X050404Y041328D01*X050432Y041943D02*
X050432Y041360D01*X050464Y041964D02*X050464Y041328D01*X050322Y041964D02*
X050777Y041964D01*X050777Y041784D01*X050464Y041667D02*X050632Y041667D01*
X050632Y041784D02*X050632Y041540D01*X050322Y041328D02*X050777Y041328D01*
X050777Y041508D01*X050350Y041964D02*X050404Y041943D01*X050377Y041964D02*
X050404Y041911D01*X050491Y041964D02*X050464Y041911D01*X050518Y041964D02*
X050464Y041943D01*X050632Y041964D02*X050777Y041943D01*X050691Y041964D02*
X050777Y041911D01*X050718Y041964D02*X050777Y041880D01*X050746Y041964D02*
X050777Y041784D01*X050632Y041784D02*X050605Y041667D01*X050632Y041540D01*
X050632Y041731D02*X050577Y041667D01*X050632Y041604D01*X050632Y041699D02*
X050518Y041667D01*X050632Y041636D01*X050404Y041360D02*X050350Y041328D01*
X050404Y041392D02*X050377Y041328D01*X050464Y041392D02*X050491Y041328D01*
X050464Y041360D02*X050518Y041328D01*X050632Y041328D02*X050777Y041360D01*
X050691Y041328D02*X050777Y041392D01*X050718Y041328D02*X050777Y041423D01*
X050746Y041328D02*X050777Y041508D01*X035714Y041964D02*X035714Y041328D01*
X035741Y041943D02*X035741Y041360D01*X035773Y041964D02*X035773Y041328D01*
X035623Y041964D02*X035864Y041964D01*X035623Y041328D02*X036078Y041328D01*
X036078Y041508D01*X035650Y041964D02*X035714Y041943D01*X035682Y041964D02*
X035714Y041911D01*X035805Y041964D02*X035773Y041911D01*X035832Y041964D02*
X035773Y041943D01*X035714Y041360D02*X035650Y041328D01*X035714Y041392D02*
X035682Y041328D01*X035773Y041392D02*X035805Y041328D01*X035773Y041360D02*
X035832Y041328D01*X035923Y041328D02*X036078Y041360D01*X035982Y041328D02*
X036078Y041392D01*X036014Y041328D02*X036078Y041423D01*X036046Y041328D02*
X036078Y041508D01*X036550Y041964D02*X036373Y041360D01*X036523Y041880D02*
X036673Y041328D01*X036550Y041880D02*X036700Y041328D01*X036550Y041964D02*
X036723Y041328D01*X036423Y041508D02*X036650Y041508D01*X036323Y041328D02*
X036473Y041328D01*X036600Y041328D02*X036778Y041328D01*X036373Y041360D02*
X036345Y041328D01*X036373Y041360D02*X036423Y041328D01*X036673Y041360D02*
X036623Y041328D01*X036673Y041392D02*X036650Y041328D01*X036700Y041392D02*
X036750Y041328D01*X037068Y041964D02*X037223Y041636D01*X037223Y041328D01*
X037091Y041964D02*X037245Y041636D01*X037245Y041360D01*X037109Y041964D02*
X037273Y041636D01*X037273Y041328D01*X037405Y041943D02*X037273Y041636D01*
X037023Y041964D02*X037182Y041964D01*X037336Y041964D02*X037478Y041964D01*
X037159Y041328D02*X037336Y041328D01*X037045Y041964D02*X037091Y041943D01*
X037159Y041964D02*X037109Y041943D01*X037364Y041964D02*X037405Y041943D01*
X037450Y041964D02*X037405Y041943D01*X037223Y041360D02*X037182Y041328D01*
X037223Y041392D02*X037200Y041328D01*X037273Y041392D02*X037291Y041328D01*
X037273Y041360D02*X037314Y041328D01*X037804Y041964D02*X037804Y041328D01*
X037832Y041943D02*X037832Y041360D01*X037864Y041964D02*X037864Y041328D01*
X037723Y041964D02*X038178Y041964D01*X038178Y041784D01*X037864Y041667D02*
X038032Y041667D01*X038032Y041784D02*X038032Y041540D01*X037723Y041328D02*
X038178Y041328D01*X038178Y041508D01*X037750Y041964D02*X037804Y041943D01*
X037777Y041964D02*X037804Y041911D01*X037891Y041964D02*X037864Y041911D01*
X037918Y041964D02*X037864Y041943D01*X038032Y041964D02*X038178Y041943D01*
X038091Y041964D02*X038178Y041911D01*X038118Y041964D02*X038178Y041880D01*
X038146Y041964D02*X038178Y041784D01*X038032Y041784D02*X038005Y041667D01*
X038032Y041540D01*X038032Y041731D02*X037977Y041667D01*X038032Y041604D01*
X038032Y041699D02*X037918Y041667D01*X038032Y041636D01*X037804Y041360D02*
X037750Y041328D01*X037804Y041392D02*X037777Y041328D01*X037864Y041392D02*
X037891Y041328D01*X037864Y041360D02*X037918Y041328D01*X038032Y041328D02*
X038178Y041360D01*X038091Y041328D02*X038178Y041392D01*X038118Y041328D02*
X038178Y041423D01*X038146Y041328D02*X038178Y041508D01*X038495Y041964D02*
X038495Y041328D01*X038523Y041943D02*X038523Y041360D01*X038545Y041964D02*
X038545Y041328D01*X038423Y041964D02*X038723Y041964D01*X038800Y041943D01*
X038823Y041911D01*X038850Y041848D01*X038850Y041784D01*X038823Y041731D01*
X038800Y041699D01*X038723Y041667D01*X038545Y041667D01*X038800Y041911D02*
X038823Y041848D01*X038823Y041784D01*X038800Y041731D01*X038723Y041964D02*
X038773Y041943D01*X038800Y041880D01*X038800Y041752D01*X038773Y041699D01*
X038723Y041667D01*X038645Y041667D02*X038700Y041636D01*X038723Y041572D01*
X038773Y041392D01*X038800Y041328D01*X038850Y041328D01*X038878Y041392D01*
X038878Y041455D01*X038773Y041455D02*X038800Y041392D01*X038823Y041360D01*
X038850Y041360D01*X038700Y041636D02*X038723Y041604D01*X038800Y041423D01*
X038823Y041392D01*X038850Y041392D01*X038878Y041423D01*X038423Y041328D02*
X038623Y041328D01*X038445Y041964D02*X038495Y041943D01*X038473Y041964D02*
X038495Y041911D01*X038573Y041964D02*X038545Y041911D01*X038595Y041964D02*
X038545Y041943D01*X038495Y041360D02*X038445Y041328D01*X038495Y041392D02*
X038473Y041328D01*X038545Y041392D02*X038573Y041328D01*X038545Y041360D02*
X038595Y041328D01*X039886Y041964D02*X039886Y041360D01*X039886Y041964D02*
X040205Y041328D01*X039913Y041964D02*X040182Y041423D01*X039932Y041964D02*
X040205Y041423D01*X040205Y041943D02*X040205Y041328D01*X039822Y041964D02*
X039932Y041964D01*X040141Y041964D02*X040277Y041964D01*X039822Y041328D02*
X039954Y041328D01*X039841Y041964D02*X039886Y041943D01*X040164Y041964D02*
X040205Y041943D01*X040255Y041964D02*X040205Y041943D01*X039886Y041360D02*
X039841Y041328D01*X039886Y041360D02*X039932Y041328D01*X040750Y041964D02*
X040573Y041360D01*X040723Y041880D02*X040873Y041328D01*X040750Y041880D02*
X040900Y041328D01*X040750Y041964D02*X040923Y041328D01*X040623Y041508D02*
X040850Y041508D01*X040522Y041328D02*X040673Y041328D01*X040800Y041328D02*
X040977Y041328D01*X040573Y041360D02*X040545Y041328D01*X040573Y041360D02*
X040623Y041328D01*X040873Y041360D02*X040823Y041328D01*X040873Y041392D02*
X040850Y041328D01*X040900Y041392D02*X040950Y041328D01*X041282Y041964D02*
X041282Y041360D01*X041282Y041964D02*X041427Y041328D01*X041304Y041964D02*
X041427Y041423D01*X041323Y041964D02*X041445Y041423D01*X041573Y041964D02*
X041427Y041328D01*X041573Y041964D02*X041573Y041328D01*X041591Y041943D02*
X041591Y041360D01*X041614Y041964D02*X041614Y041328D01*X041222Y041964D02*
X041323Y041964D01*X041573Y041964D02*X041677Y041964D01*X041222Y041328D02*
X041345Y041328D01*X041509Y041328D02*X041677Y041328D01*X041241Y041964D02*
X041282Y041943D01*X041632Y041964D02*X041614Y041911D01*X041655Y041964D02*
X041614Y041943D01*X041282Y041360D02*X041241Y041328D01*X041282Y041360D02*
X041323Y041328D01*X041573Y041360D02*X041532Y041328D01*X041573Y041392D02*
X041550Y041328D01*X041614Y041392D02*X041632Y041328D01*X041614Y041360D02*
X041655Y041328D01*X042004Y041964D02*X042004Y041328D01*X042032Y041943D02*
X042032Y041360D01*X042064Y041964D02*X042064Y041328D01*X041922Y041964D02*
X042377Y041964D01*X042377Y041784D01*X042064Y041667D02*X042232Y041667D01*
X042232Y041784D02*X042232Y041540D01*X041922Y041328D02*X042377Y041328D01*
X042377Y041508D01*X041950Y041964D02*X042004Y041943D01*X041977Y041964D02*
X042004Y041911D01*X042091Y041964D02*X042064Y041911D01*X042118Y041964D02*
X042064Y041943D01*X042232Y041964D02*X042377Y041943D01*X042291Y041964D02*
X042377Y041911D01*X042318Y041964D02*X042377Y041880D01*X042346Y041964D02*
X042377Y041784D01*X042232Y041784D02*X042205Y041667D01*X042232Y041540D01*
X042232Y041731D02*X042177Y041667D01*X042232Y041604D01*X042232Y041699D02*
X042118Y041667D01*X042232Y041636D01*X042004Y041360D02*X041950Y041328D01*
X042004Y041392D02*X041977Y041328D01*X042064Y041392D02*X042091Y041328D01*
X042064Y041360D02*X042118Y041328D01*X042232Y041328D02*X042377Y041360D01*
X042291Y041328D02*X042377Y041392D01*X042318Y041328D02*X042377Y041423D01*
X042346Y041328D02*X042377Y041508D01*X023432Y041964D02*X023432Y041360D01*
X023432Y041964D02*X023577Y041328D01*X023454Y041964D02*X023577Y041423D01*
X023473Y041964D02*X023596Y041423D01*X023723Y041964D02*X023577Y041328D01*
X023723Y041964D02*X023723Y041328D01*X023741Y041943D02*X023741Y041360D01*
X023764Y041964D02*X023764Y041328D01*X023373Y041964D02*X023473Y041964D01*
X023723Y041964D02*X023828Y041964D01*X023373Y041328D02*X023495Y041328D01*
X023659Y041328D02*X023828Y041328D01*X023391Y041964D02*X023432Y041943D01*
X023782Y041964D02*X023764Y041911D01*X023805Y041964D02*X023764Y041943D01*
X023432Y041360D02*X023391Y041328D01*X023432Y041360D02*X023473Y041328D01*
X023723Y041360D02*X023682Y041328D01*X023723Y041392D02*X023700Y041328D01*
X023764Y041392D02*X023782Y041328D01*X023764Y041360D02*X023805Y041328D01*
X024268Y041964D02*X024186Y041943D01*X024127Y041880D01*X024100Y041816D01*
X024073Y041699D01*X024073Y041604D01*X024100Y041477D01*X024127Y041423D01*
X024186Y041360D01*X024268Y041328D01*X024327Y041328D01*X024414Y041360D01*
X024468Y041423D01*X024496Y041477D01*X024528Y041604D01*X024528Y041699D01*
X024496Y041816D01*X024468Y041880D01*X024414Y041943D01*X024327Y041964D01*
X024268Y041964D01*X024154Y041880D02*X024127Y041816D01*X024100Y041731D01*
X024100Y041572D01*X024127Y041477D01*X024154Y041423D01*X024441Y041423D02*
X024468Y041477D01*X024496Y041572D01*X024496Y041731D01*X024468Y041816D01*
X024441Y041880D01*X024268Y041964D02*X024214Y041943D01*X024154Y041848D01*
X024127Y041731D01*X024127Y041572D01*X024154Y041455D01*X024214Y041360D01*
X024268Y041328D01*X024327Y041328D02*X024382Y041360D01*X024441Y041455D01*
X024468Y041572D01*X024468Y041731D01*X024441Y041848D01*X024382Y041943D01*
X024327Y041964D01*X024850Y041964D02*X024850Y041328D01*X024877Y041943D02*
X024877Y041360D01*X024904Y041964D02*X024904Y041328D01*X024773Y041964D02*
X025036Y041964D01*X025118Y041943D01*X025173Y041880D01*X025200Y041816D01*
X025228Y041731D01*X025228Y041572D01*X025200Y041477D01*X025173Y041423D01*
X025118Y041360D01*X025036Y041328D01*X024773Y041328D01*X025146Y041880D02*
X025173Y041816D01*X025200Y041731D01*X025200Y041572D01*X025173Y041477D01*
X025146Y041423D01*X025036Y041964D02*X025091Y041943D01*X025146Y041848D01*
X025173Y041731D01*X025173Y041572D01*X025146Y041455D01*X025091Y041360D01*
X025036Y041328D01*X024795Y041964D02*X024850Y041943D01*X024823Y041964D02*
X024850Y041911D01*X024932Y041964D02*X024904Y041911D01*X024959Y041964D02*
X024904Y041943D01*X024850Y041360D02*X024795Y041328D01*X024850Y041392D02*
X024823Y041328D01*X024904Y041392D02*X024932Y041328D01*X024904Y041360D02*
X024959Y041328D01*X025554Y041964D02*X025554Y041328D01*X025582Y041943D02*
X025582Y041360D01*X025614Y041964D02*X025614Y041328D01*X025473Y041964D02*
X025928Y041964D01*X025928Y041784D01*X025614Y041667D02*X025782Y041667D01*
X025782Y041784D02*X025782Y041540D01*X025473Y041328D02*X025928Y041328D01*
X025928Y041508D01*X025500Y041964D02*X025554Y041943D01*X025527Y041964D02*
X025554Y041911D01*X025641Y041964D02*X025614Y041911D01*X025668Y041964D02*
X025614Y041943D01*X025782Y041964D02*X025928Y041943D01*X025841Y041964D02*
X025928Y041911D01*X025868Y041964D02*X025928Y041880D01*X025896Y041964D02*
X025928Y041784D01*X025782Y041784D02*X025755Y041667D01*X025782Y041540D01*
X025782Y041731D02*X025727Y041667D01*X025782Y041604D01*X025782Y041699D02*
X025668Y041667D01*X025782Y041636D01*X025554Y041360D02*X025500Y041328D01*
X025554Y041392D02*X025527Y041328D01*X025614Y041392D02*X025641Y041328D01*
X025614Y041360D02*X025668Y041328D01*X025782Y041328D02*X025928Y041360D01*
X025841Y041328D02*X025928Y041392D01*X025868Y041328D02*X025928Y041423D01*
X025896Y041328D02*X025928Y041508D01*X026264Y041964D02*X026264Y041328D01*
X026291Y041943D02*X026291Y041360D01*X026323Y041964D02*X026323Y041328D01*
X026173Y041964D02*X026414Y041964D01*X026173Y041328D02*X026628Y041328D01*
X026628Y041508D01*X026200Y041964D02*X026264Y041943D01*X026232Y041964D02*
X026264Y041911D01*X026355Y041964D02*X026323Y041911D01*X026382Y041964D02*
X026323Y041943D01*X026264Y041360D02*X026200Y041328D01*X026264Y041392D02*
X026232Y041328D01*X026323Y041392D02*X026355Y041328D01*X026323Y041360D02*
X026382Y041328D01*X026473Y041328D02*X026628Y041360D01*X026532Y041328D02*
X026628Y041392D01*X026564Y041328D02*X026628Y041423D01*X026596Y041328D02*
X026628Y041508D01*X027636Y041964D02*X027636Y041360D01*X027636Y041964D02*
X027955Y041328D01*X027663Y041964D02*X027932Y041423D01*X027682Y041964D02*
X027955Y041423D01*X027955Y041943D02*X027955Y041328D01*X027572Y041964D02*
X027682Y041964D01*X027891Y041964D02*X028027Y041964D01*X027572Y041328D02*
X027704Y041328D01*X027591Y041964D02*X027636Y041943D01*X027914Y041964D02*
X027955Y041943D01*X028005Y041964D02*X027955Y041943D01*X027636Y041360D02*
X027591Y041328D01*X027636Y041360D02*X027682Y041328D01*X028500Y041964D02*
X028323Y041360D01*X028473Y041880D02*X028623Y041328D01*X028500Y041880D02*
X028650Y041328D01*X028500Y041964D02*X028673Y041328D01*X028373Y041508D02*
X028600Y041508D01*X028272Y041328D02*X028423Y041328D01*X028550Y041328D02*
X028727Y041328D01*X028323Y041360D02*X028295Y041328D01*X028323Y041360D02*
X028373Y041328D01*X028623Y041360D02*X028573Y041328D01*X028623Y041392D02*
X028600Y041328D01*X028650Y041392D02*X028700Y041328D01*X029032Y041964D02*
X029032Y041360D01*X029032Y041964D02*X029177Y041328D01*X029054Y041964D02*
X029177Y041423D01*X029073Y041964D02*X029195Y041423D01*X029323Y041964D02*
X029177Y041328D01*X029323Y041964D02*X029323Y041328D01*X029341Y041943D02*
X029341Y041360D01*X029364Y041964D02*X029364Y041328D01*X028972Y041964D02*
X029073Y041964D01*X029323Y041964D02*X029427Y041964D01*X028972Y041328D02*
X029095Y041328D01*X029259Y041328D02*X029427Y041328D01*X028991Y041964D02*
X029032Y041943D01*X029382Y041964D02*X029364Y041911D01*X029405Y041964D02*
X029364Y041943D01*X029032Y041360D02*X028991Y041328D01*X029032Y041360D02*
X029073Y041328D01*X029323Y041360D02*X029282Y041328D01*X029323Y041392D02*
X029300Y041328D01*X029364Y041392D02*X029382Y041328D01*X029364Y041360D02*
X029405Y041328D01*X029754Y041964D02*X029754Y041328D01*X029782Y041943D02*
X029782Y041360D01*X029814Y041964D02*X029814Y041328D01*X029672Y041964D02*
X030127Y041964D01*X030127Y041784D01*X029814Y041667D02*X029982Y041667D01*
X029982Y041784D02*X029982Y041540D01*X029672Y041328D02*X030127Y041328D01*
X030127Y041508D01*X029700Y041964D02*X029754Y041943D01*X029727Y041964D02*
X029754Y041911D01*X029841Y041964D02*X029814Y041911D01*X029868Y041964D02*
X029814Y041943D01*X029982Y041964D02*X030127Y041943D01*X030041Y041964D02*
X030127Y041911D01*X030068Y041964D02*X030127Y041880D01*X030096Y041964D02*
X030127Y041784D01*X029982Y041784D02*X029955Y041667D01*X029982Y041540D01*
X029982Y041731D02*X029927Y041667D01*X029982Y041604D01*X029982Y041699D02*
X029868Y041667D01*X029982Y041636D01*X029754Y041360D02*X029700Y041328D01*
X029754Y041392D02*X029727Y041328D01*X029814Y041392D02*X029841Y041328D01*
X029814Y041360D02*X029868Y041328D01*X029982Y041328D02*X030127Y041360D01*
X030041Y041328D02*X030127Y041392D01*X030068Y041328D02*X030127Y041423D01*
X030096Y041328D02*X030127Y041508D01*X026232Y040214D02*X026314Y039578D01*
X026254Y040214D02*X026314Y039727D01*X026314Y039578D01*X026273Y040214D02*
X026336Y039727D01*X026400Y040214D02*X026336Y039727D01*X026314Y039578D01*
X026400Y040214D02*X026482Y039578D01*X026418Y040214D02*X026482Y039727D01*
X026482Y039578D01*X026441Y040214D02*X026500Y039727D01*X026564Y040193D02*
X026500Y039727D01*X026482Y039578D01*X026173Y040214D02*X026336Y040214D01*
X026400Y040214D02*X026441Y040214D01*X026500Y040214D02*X026628Y040214D01*
X026191Y040214D02*X026254Y040193D01*X026213Y040214D02*X026254Y040161D01*
X026295Y040214D02*X026273Y040161D01*X026314Y040214D02*X026273Y040193D01*
X026523Y040214D02*X026564Y040193D01*X026605Y040214D02*X026564Y040193D01*
X026950Y040214D02*X026950Y039578D01*X026977Y040193D02*X026977Y039610D01*
X027004Y040214D02*X027004Y039578D01*X026873Y040214D02*X027191Y040214D01*
X027273Y040193D01*X027296Y040161D01*X027327Y040098D01*X027327Y040034D01*
X027296Y039981D01*X027273Y039949D01*X027191Y039917D01*X027273Y040161D02*
X027296Y040098D01*X027296Y040034D01*X027273Y039981D01*X027191Y040214D02*
X027246Y040193D01*X027273Y040130D01*X027273Y040002D01*X027246Y039949D01*
X027191Y039917D01*X027004Y039917D02*X027191Y039917D01*X027273Y039886D01*
X027296Y039854D01*X027327Y039790D01*X027327Y039705D01*X027296Y039642D01*
X027273Y039610D01*X027191Y039578D01*X026873Y039578D01*X027273Y039854D02*
X027296Y039790D01*X027296Y039705D01*X027273Y039642D01*X027191Y039917D02*
X027246Y039886D01*X027273Y039822D01*X027273Y039673D01*X027246Y039610D01*
X027191Y039578D01*X026895Y040214D02*X026950Y040193D01*X026923Y040214D02*
X026950Y040161D01*X027032Y040214D02*X027004Y040161D01*X027059Y040214D02*
X027004Y040193D01*X026950Y039610D02*X026895Y039578D01*X026950Y039642D02*
X026923Y039578D01*X027004Y039642D02*X027032Y039578D01*X027004Y039610D02*
X027059Y039578D01*X037432Y040214D02*X037432Y039610D01*X037432Y040214D02*
X037577Y039578D01*X037454Y040214D02*X037577Y039673D01*X037473Y040214D02*
X037595Y039673D01*X037723Y040214D02*X037577Y039578D01*X037723Y040214D02*
X037723Y039578D01*X037741Y040193D02*X037741Y039610D01*X037764Y040214D02*
X037764Y039578D01*X037373Y040214D02*X037473Y040214D01*X037723Y040214D02*
X037828Y040214D01*X037373Y039578D02*X037495Y039578D01*X037659Y039578D02*
X037828Y039578D01*X037391Y040214D02*X037432Y040193D01*X037782Y040214D02*
X037764Y040161D01*X037805Y040214D02*X037764Y040193D01*X037432Y039610D02*
X037391Y039578D01*X037432Y039610D02*X037473Y039578D01*X037723Y039610D02*
X037682Y039578D01*X037723Y039642D02*X037700Y039578D01*X037764Y039642D02*
X037782Y039578D01*X037764Y039610D02*X037805Y039578D01*X038300Y040214D02*
X038123Y039610D01*X038273Y040130D02*X038423Y039578D01*X038300Y040130D02*
X038450Y039578D01*X038300Y040214D02*X038473Y039578D01*X038173Y039758D02*
X038400Y039758D01*X038073Y039578D02*X038223Y039578D01*X038350Y039578D02*
X038528Y039578D01*X038123Y039610D02*X038095Y039578D01*X038123Y039610D02*
X038173Y039578D01*X038423Y039610D02*X038373Y039578D01*X038423Y039642D02*
X038400Y039578D01*X038450Y039642D02*X038500Y039578D01*X039191Y040130D02*
X039228Y040214D01*X039228Y040034D01*X039191Y040130D01*X039127Y040193D01*
X039027Y040214D01*X038932Y040214D01*X038836Y040193D01*X038773Y040130D01*
X038773Y040034D01*X038804Y039981D01*X038900Y039917D01*X039096Y039854D01*
X039159Y039822D01*X039191Y039758D01*X039191Y039673D01*X039159Y039610D01*
X038804Y040034D02*X038836Y039981D01*X038900Y039949D01*X039096Y039886D01*
X039159Y039854D01*X039191Y039790D01*X038836Y040193D02*X038804Y040130D01*
X038804Y040066D01*X038836Y040002D01*X038900Y039981D01*X039096Y039917D01*
X039191Y039854D01*X039228Y039790D01*X039228Y039705D01*X039191Y039642D01*
X039159Y039610D01*X039064Y039578D01*X038964Y039578D01*X038868Y039610D01*
X038804Y039673D01*X038773Y039758D01*X038773Y039578D01*X038804Y039673D01*
X039541Y040214D02*X039541Y039578D01*X039568Y040193D02*X039568Y039610D01*
X039591Y040214D02*X039591Y039578D01*X039855Y040193D02*X039591Y039854D01*
X039664Y039917D02*X039827Y039578D01*X039686Y039917D02*X039855Y039578D01*
X039686Y039981D02*X039877Y039578D01*X039473Y040214D02*X039664Y040214D01*
X039782Y040214D02*X039927Y040214D01*X039473Y039578D02*X039664Y039578D01*
X039759Y039578D02*X039927Y039578D01*X039495Y040214D02*X039541Y040193D01*
X039518Y040214D02*X039541Y040161D01*X039614Y040214D02*X039591Y040161D01*
X039636Y040214D02*X039591Y040193D01*X039827Y040214D02*X039855Y040193D01*
X039900Y040214D02*X039855Y040193D01*X039541Y039610D02*X039495Y039578D01*
X039541Y039642D02*X039518Y039578D01*X039591Y039642D02*X039614Y039578D01*
X039591Y039610D02*X039636Y039578D01*X039827Y039642D02*X039782Y039578D01*
X039827Y039642D02*X039900Y039578D01*X040204Y040098D02*X040204Y040066D01*
X040236Y040066D01*X040236Y040098D01*X040204Y040098D01*X040204Y040130D02*
X040236Y040130D01*X040268Y040098D01*X040268Y040066D01*X040236Y040034D01*
X040204Y040034D01*X040172Y040066D01*X040172Y040098D01*X040204Y040161D01*
X040236Y040193D01*X040332Y040214D01*X040464Y040214D01*X040559Y040193D01*
X040591Y040161D01*X040627Y040098D01*X040627Y040034D01*X040591Y039981D01*
X040496Y039917D01*X040332Y039854D01*X040268Y039822D01*X040204Y039758D01*
X040172Y039673D01*X040172Y039578D01*X040559Y040161D02*X040591Y040098D01*
X040591Y040034D01*X040559Y039981D01*X040464Y040214D02*X040527Y040193D01*
X040559Y040098D01*X040559Y040034D01*X040527Y039981D01*X040464Y039917D01*
X040332Y039854D01*X040172Y039642D02*X040204Y039673D01*X040268Y039673D01*
X040427Y039642D01*X040559Y039642D01*X040627Y039673D01*X040268Y039673D02*
X040427Y039610D01*X040559Y039610D01*X040591Y039642D01*X040268Y039673D02*
X040427Y039578D01*X040559Y039578D01*X040591Y039610D01*X040627Y039673D01*
X040627Y039727D01*D02*G54D16*X041000Y004250D03*X041000Y005750D03*
X044000Y004250D03*X044000Y005750D03*X032000Y011250D03*X032000Y012750D03*
X030250Y022000D03*X031750Y022000D03*X030250Y023500D03*X031750Y023500D03*
X037250Y024750D03*X037250Y026250D03*X038750Y024750D03*X038750Y026250D03*
X041000Y024750D03*X041000Y026250D03*D02*G54D17*X007000Y003000D03*
X009000Y003000D03*D02*G54D70*X016750Y016000D03*X015250Y016000D03*
X030250Y016000D03*X031750Y016000D03*X034250Y016000D03*X035750Y016000D03*
X037250Y017500D03*X037250Y016000D03*X038750Y017500D03*X038750Y016000D03*
X016750Y018000D03*X015250Y018000D03*X030250Y019000D03*X031750Y019000D03*
X037250Y020500D03*X037250Y019000D03*X038750Y020500D03*X038750Y019000D03*
X037250Y022000D03*X038750Y022000D03*X037250Y023500D03*X038750Y023500D03*
X046000Y024750D03*X046000Y026250D03*X047500Y024750D03*X047500Y026250D03*D02*
G54D71*X011000Y003000D03*D02*G54D20*X015460Y003000D03*X018000Y003000D03*
X026000Y016000D03*X026000Y018000D03*X026000Y020000D03*X026000Y022000D03*D02*
G54D21*X020540Y003000D03*D02*G54D22*X025730Y003000D03*X024460Y003000D03*
X029540Y003000D03*X028270Y003000D03*X027000Y003000D03*X023190Y028500D03*
X024460Y028500D03*X025730Y028500D03*X027000Y028500D03*X028270Y028500D03*
X029540Y028500D03*X030810Y028500D03*D02*G54D25*X032000Y003000D03*
X032000Y005000D03*X038380Y010800D03*X040920Y010800D03*X046000Y010800D03*
X043460Y010800D03*X038380Y013340D03*X035840Y013340D03*X040920Y013340D03*
X046000Y013340D03*X043460Y013340D03*X054000Y016000D03*X038380Y028580D03*
X040920Y028580D03*X046000Y028580D03*X043460Y028580D03*X038380Y031120D03*
X035840Y031120D03*X040920Y031120D03*X046000Y031120D03*X043460Y031120D03*D02*
G54D73*X035840Y010800D03*X035840Y028580D03*D02*G54D131*X049460Y026460D03*
X054540Y026460D03*X052000Y029000D03*X049460Y031540D03*X054540Y031540D03*D02*
G54D132*X003000Y003000D03*X003000Y032000D03*X051500Y016500D03*X003000Y003000D03*
X003000Y032000D03*X051500Y016500D03*X000000Y000000D02*
G36*X017465Y040976D02*X017465Y040998D01*X017854Y040998D01*X017854Y040976D01*
X017875Y040976D01*X017875Y040955D01*X017918Y040955D01*X017918Y040933D01*
X017940Y040933D01*X017940Y040911D01*X017962Y040911D01*X017962Y040890D01*
X017983Y040890D01*X017983Y040868D01*X018005Y040868D01*X018005Y040847D01*
X018027Y040847D01*X018027Y040825D01*X018048Y040825D01*X018048Y040803D01*
X018070Y040803D01*X018070Y040782D01*X018091Y040782D01*X018091Y040760D01*
X018135Y040760D01*X018135Y040739D01*X018156Y040739D01*X018156Y040717D01*
X018178Y040717D01*X018178Y040695D01*X018199Y040695D01*X018199Y040674D01*
X018221Y040674D01*X018221Y040652D01*X018264Y040652D01*X018264Y040674D01*
X018307Y040674D01*X018307Y040695D01*X018351Y040695D01*X018351Y040717D01*
X018372Y040717D01*X018372Y040739D01*X018415Y040739D01*X018415Y040760D01*
X018437Y040760D01*X018437Y040782D01*X018480Y040782D01*X018480Y040803D01*
X018523Y040803D01*X018523Y040825D01*X018545Y040825D01*X018545Y040847D01*
X018588Y040847D01*X018588Y040868D01*X018610Y040868D01*X018610Y040890D01*
X018653Y040890D01*X018653Y040911D01*X018675Y040911D01*X018675Y040933D01*
X018718Y040933D01*X018718Y040955D01*X018739Y040955D01*X018739Y040976D01*
X018783Y040976D01*X018783Y040998D01*X019236Y040998D01*X019236Y040976D01*
X019193Y040976D01*X019193Y040955D01*X019171Y040955D01*X019171Y040933D01*
X019128Y040933D01*X019128Y040911D01*X019107Y040911D01*X019107Y040890D01*
X019063Y040890D01*X019063Y040868D01*X019042Y040868D01*X019042Y040847D01*
X018999Y040847D01*X018999Y040825D01*X018977Y040825D01*X018977Y040803D01*
X018934Y040803D01*X018934Y040782D01*X018912Y040782D01*X018912Y040760D01*
X018869Y040760D01*X018869Y040739D01*X018847Y040739D01*X018847Y040717D01*
X018804Y040717D01*X018804Y040695D01*X018783Y040695D01*X018783Y040674D01*
X018739Y040674D01*X018739Y040652D01*X018718Y040652D01*X018718Y040631D01*
X018675Y040631D01*X018675Y040609D01*X018653Y040609D01*X018653Y040587D01*
X018610Y040587D01*X018610Y040566D01*X018588Y040566D01*X018588Y040544D01*
X018545Y040544D01*X018545Y040523D01*X018523Y040523D01*X018523Y040501D01*
X018480Y040501D01*X018480Y040458D01*X018005Y040458D01*X018005Y040523D01*
X017983Y040523D01*X017983Y040544D01*X017940Y040544D01*X017940Y040566D01*
X017918Y040566D01*X017918Y040587D01*X017897Y040587D01*X017897Y040609D01*
X017875Y040609D01*X017875Y040631D01*X017854Y040631D01*X017854Y040652D01*
X017832Y040652D01*X017832Y040674D01*X017810Y040674D01*X017810Y040695D01*
X017789Y040695D01*X017789Y040717D01*X017746Y040717D01*X017746Y040739D01*
X017724Y040739D01*X017724Y040760D01*X017702Y040760D01*X017702Y040782D01*
X017681Y040782D01*X017681Y040803D01*X017659Y040803D01*X017659Y040825D01*
X017638Y040825D01*X017638Y040847D01*X017616Y040847D01*X017616Y040868D01*
X017573Y040868D01*X017573Y040890D01*X017551Y040890D01*X017551Y040911D01*
X017530Y040911D01*X017530Y040933D01*X017508Y040933D01*X017508Y040955D01*
X017486Y040955D01*X017486Y040976D01*X017465Y040976D01*G37*G36*X017530Y040155D02*
X017530Y040177D01*X017573Y040177D01*X017573Y040199D01*X017594Y040199D01*
X017594Y040220D01*X017638Y040220D01*X017638Y040242D01*X017681Y040242D01*
X017681Y040263D01*X017702Y040263D01*X017702Y040285D01*X017746Y040285D01*
X017746Y040307D01*X017767Y040307D01*X017767Y040328D01*X017789Y040328D01*
X017789Y040350D01*X017832Y040350D01*X017832Y040371D01*X017875Y040371D01*
X017875Y040393D01*X017897Y040393D01*X017897Y040415D01*X017940Y040415D01*
X017940Y040436D01*X017962Y040436D01*X017962Y040458D01*X018502Y040458D01*
X018502Y040436D01*X018523Y040436D01*X018523Y040415D01*X018567Y040415D01*
X018567Y040393D01*X018588Y040393D01*X018588Y040371D01*X018610Y040371D01*
X018610Y040350D01*X018631Y040350D01*X018631Y040328D01*X018675Y040328D01*
X018675Y040307D01*X018696Y040307D01*X018696Y040285D01*X018718Y040285D01*
X018718Y040263D01*X018739Y040263D01*X018739Y040242D01*X018783Y040242D01*
X018783Y040220D01*X018804Y040220D01*X018804Y040199D01*X018826Y040199D01*
X018826Y040177D01*X018847Y040177D01*X018847Y040155D01*X018891Y040155D01*
X018891Y040134D01*X018912Y040134D01*X018912Y040112D01*X018934Y040112D01*
X018934Y040091D01*X018955Y040091D01*X018955Y040069D01*X018977Y040069D01*
X018977Y040047D01*X019020Y040047D01*X019020Y040026D01*X019042Y040026D01*
X019042Y040004D01*X019063Y040004D01*X019063Y039983D01*X019085Y039983D01*
X019085Y039961D01*X018631Y039961D01*X018631Y039983D01*X018588Y039983D01*
X018588Y040004D01*X018567Y040004D01*X018567Y040026D01*X018545Y040026D01*
X018545Y040047D01*X018523Y040047D01*X018523Y040069D01*X018502Y040069D01*
X018502Y040091D01*X018480Y040091D01*X018480Y040112D01*X018437Y040112D01*
X018437Y040134D01*X018415Y040134D01*X018415Y040155D01*X018394Y040155D01*
X018394Y040177D01*X018372Y040177D01*X018372Y040199D01*X018351Y040199D01*
X018351Y040220D01*X018329Y040220D01*X018329Y040242D01*X018286Y040242D01*
X018286Y040263D01*X018264Y040263D01*X018264Y040285D01*X018243Y040285D01*
X018243Y040307D01*X018199Y040307D01*X018199Y040285D01*X018156Y040285D01*
X018156Y040263D01*X018135Y040263D01*X018135Y040242D01*X018091Y040242D01*
X018091Y040220D01*X018048Y040220D01*X018048Y040199D01*X018027Y040199D01*
X018027Y040177D01*X017983Y040177D01*X017983Y040155D01*X017530Y040155D01*G37*G36*
X015758Y041451D02*X015780Y041451D01*X015780Y041430D01*X015823Y041430D01*
X015823Y041408D01*X015866Y041408D01*X015866Y041430D01*X015909Y041430D01*
X015909Y041451D01*X015953Y041451D01*X015953Y041473D01*X015996Y041473D01*
X015996Y041495D01*X016017Y041495D01*X016017Y041516D01*X016039Y041516D01*
X016039Y041538D01*X016061Y041538D01*X016061Y041560D01*X016082Y041560D01*
X016082Y041581D01*X016104Y041581D01*X016104Y041624D01*X016125Y041624D01*
X016125Y041646D01*X016147Y041646D01*X016147Y041689D01*X016169Y041689D01*
X016169Y041776D01*X016190Y041776D01*X016190Y041948D01*X016169Y041948D01*
X016169Y042013D01*X016017Y042013D01*X016017Y041970D01*X016039Y041970D01*
X016039Y041754D01*X016017Y041754D01*X016017Y041711D01*X015996Y041711D01*
X015996Y041668D01*X015974Y041668D01*X015974Y041646D01*X015953Y041646D01*
X015953Y041624D01*X015931Y041624D01*X015931Y041603D01*X015888Y041603D01*
X015888Y041581D01*X015845Y041581D01*X015845Y041560D01*X015801Y041560D01*
X015801Y041538D01*X015780Y041538D01*X015780Y041516D01*X015758Y041516D01*
X015758Y041451D01*G37*G36*X015305Y042035D02*X015477Y042035D01*X015477Y042056D01*
X015499Y042056D01*X015499Y042100D01*X015521Y042100D01*X015521Y042121D01*
X015564Y042121D01*X015564Y042143D01*X015607Y042143D01*X015607Y042164D01*
X015693Y042164D01*X015693Y042186D01*X015780Y042186D01*X015780Y042164D01*
X015866Y042164D01*X015866Y042143D01*X015888Y042143D01*X015888Y042121D01*
X015931Y042121D01*X015931Y042100D01*X015953Y042100D01*X015953Y042078D01*
X015974Y042078D01*X015974Y042056D01*X015996Y042056D01*X015996Y042013D01*
X016169Y042013D01*X016169Y042035D01*X016147Y042035D01*X016147Y042078D01*
X016125Y042078D01*X016125Y042121D01*X016104Y042121D01*X016104Y042143D01*
X016082Y042143D01*X016082Y042164D01*X016061Y042164D01*X016061Y042186D01*
X016039Y042186D01*X016039Y042208D01*X016017Y042208D01*X016017Y042229D01*
X015996Y042229D01*X015996Y042251D01*X015953Y042251D01*X015953Y042272D01*
X015909Y042272D01*X015909Y042294D01*X015845Y042294D01*X015845Y042316D01*
X015607Y042316D01*X015607Y042294D01*X015542Y042294D01*X015542Y042272D01*
X015499Y042272D01*X015499Y042251D01*X015477Y042251D01*X015477Y042229D01*
X015434Y042229D01*X015434Y042208D01*X015413Y042208D01*X015413Y042186D01*
X015391Y042186D01*X015391Y042164D01*X015369Y042164D01*X015369Y042121D01*
X015348Y042121D01*X015348Y042100D01*X015326Y042100D01*X015326Y042056D01*
X015305Y042056D01*X015305Y042035D01*G37*G36*X015261Y041819D02*X015283Y041819D01*
X015283Y041732D01*X015305Y041732D01*X015305Y041668D01*X015326Y041668D01*
X015326Y041624D01*X015348Y041624D01*X015348Y041603D01*X015369Y041603D01*
X015369Y041560D01*X015391Y041560D01*X015391Y041538D01*X015434Y041538D01*
X015434Y041516D01*X015521Y041516D01*X015521Y041538D01*X015542Y041538D01*
X015542Y041624D01*X015521Y041624D01*X015521Y041646D01*X015499Y041646D01*
X015499Y041668D01*X015477Y041668D01*X015477Y041689D01*X015456Y041689D01*
X015456Y041732D01*X015434Y041732D01*X015434Y041797D01*X015413Y041797D01*
X015413Y041927D01*X015434Y041927D01*X015434Y041992D01*X015456Y041992D01*
X015456Y042035D01*X015305Y042035D01*X015305Y042013D01*X015283Y042013D01*
X015283Y041905D01*X015261Y041905D01*X015261Y041819D01*G37*G36*X014462Y040782D02*
X014484Y040782D01*X014484Y040739D01*X014505Y040739D01*X014505Y040717D01*
X014527Y040717D01*X014527Y040674D01*X014548Y040674D01*X014548Y040631D01*
X014570Y040631D01*X014570Y040587D01*X014592Y040587D01*X014592Y040544D01*
X014613Y040544D01*X014613Y040501D01*X014635Y040501D01*X014635Y040479D01*
X014656Y040479D01*X014656Y040436D01*X014678Y040436D01*X014678Y040393D01*
X014700Y040393D01*X014700Y040350D01*X014721Y040350D01*X014721Y040307D01*
X014743Y040307D01*X014743Y040263D01*X014765Y040263D01*X014765Y040242D01*
X014786Y040242D01*X014786Y040199D01*X014808Y040199D01*X014808Y040155D01*
X014829Y040155D01*X014829Y040112D01*X014851Y040112D01*X014851Y040069D01*
X014873Y040069D01*X014873Y040047D01*X014894Y040047D01*X014894Y040004D01*
X014916Y040004D01*X014916Y039961D01*X015413Y039961D01*X015413Y040026D01*
X015434Y040026D01*X015434Y040155D01*X015456Y040155D01*X015456Y040263D01*
X015477Y040263D01*X015477Y040393D01*X015499Y040393D01*X015499Y040523D01*
X015521Y040523D01*X015521Y040631D01*X015542Y040631D01*X015542Y040760D01*
X015564Y040760D01*X015564Y040868D01*X015585Y040868D01*X015585Y040998D01*
X015607Y040998D01*X015607Y041127D01*X015629Y041127D01*X015629Y041257D01*
X015650Y041257D01*X015650Y041365D01*X015672Y041365D01*X015672Y041495D01*
X015693Y041495D01*X015693Y041624D01*X015715Y041624D01*X015715Y041732D01*
X015737Y041732D01*X015737Y041819D01*X015715Y041819D01*X015715Y041776D01*
X015693Y041776D01*X015693Y041711D01*X015672Y041711D01*X015672Y041668D01*
X015650Y041668D01*X015650Y041624D01*X015629Y041624D01*X015629Y041581D01*
X015607Y041581D01*X015607Y041538D01*X015585Y041538D01*X015585Y041495D01*
X015564Y041495D01*X015564Y041451D01*X015542Y041451D01*X015542Y041408D01*
X015521Y041408D01*X015521Y041365D01*X015499Y041365D01*X015499Y041322D01*
X015477Y041322D01*X015477Y041279D01*X015456Y041279D01*X015456Y041214D01*
X015434Y041214D01*X015434Y041171D01*X015413Y041171D01*X015413Y041127D01*
X015391Y041127D01*X015391Y041084D01*X015369Y041084D01*X015369Y041041D01*
X015348Y041041D01*X015348Y040998D01*X015326Y040998D01*X015326Y040955D01*
X015305Y040955D01*X015305Y040911D01*X015283Y040911D01*X015283Y040868D01*
X015261Y040868D01*X015261Y040825D01*X015240Y040825D01*X015240Y040782D01*
X015218Y040782D01*X015218Y040717D01*X015197Y040717D01*X015197Y040674D01*
X015175Y040674D01*X015175Y040631D01*X015153Y040631D01*X015153Y040587D01*
X015132Y040587D01*X015132Y040544D01*X015110Y040544D01*X015110Y040501D01*
X015089Y040501D01*X015089Y040458D01*X015067Y040458D01*X015067Y040415D01*
X015024Y040415D01*X015024Y040436D01*X015002Y040436D01*X015002Y040479D01*
X014981Y040479D01*X014981Y040523D01*X014959Y040523D01*X014959Y040566D01*
X014937Y040566D01*X014937Y040609D01*X014916Y040609D01*X014916Y040631D01*
X014894Y040631D01*X014894Y040674D01*X014873Y040674D01*X014873Y040717D01*
X014851Y040717D01*X014851Y040760D01*X014829Y040760D01*X014829Y040803D01*
X014462Y040803D01*X014462Y040782D01*G37*G36*X013857Y040998D02*X013857Y041019D01*
X013879Y041019D01*X013879Y041149D01*X013900Y041149D01*X013900Y041279D01*
X013922Y041279D01*X013922Y041408D01*X013944Y041408D01*X013944Y041495D01*
X014440Y041495D01*X014440Y041473D01*X014462Y041473D01*X014462Y041430D01*
X014484Y041430D01*X014484Y041387D01*X014505Y041387D01*X014505Y041343D01*
X014527Y041343D01*X014527Y041322D01*X014548Y041322D01*X014548Y041279D01*
X014570Y041279D01*X014570Y041235D01*X014592Y041235D01*X014592Y041192D01*
X014613Y041192D01*X014613Y041149D01*X014635Y041149D01*X014635Y041106D01*
X014656Y041106D01*X014656Y041084D01*X014678Y041084D01*X014678Y041041D01*
X014700Y041041D01*X014700Y040998D01*X014721Y040998D01*X014721Y040955D01*
X014743Y040955D01*X014743Y040911D01*X014765Y040911D01*X014765Y040868D01*
X014786Y040868D01*X014786Y040847D01*X014808Y040847D01*X014808Y040803D01*
X014462Y040803D01*X014462Y040825D01*X014440Y040825D01*X014440Y040868D01*
X014419Y040868D01*X014419Y040911D01*X014397Y040911D01*X014397Y040955D01*
X014376Y040955D01*X014376Y040976D01*X014354Y040976D01*X014354Y041019D01*
X014332Y041019D01*X014332Y041063D01*X014311Y041063D01*X014311Y041041D01*
X014289Y041041D01*X014289Y040998D01*X013857Y040998D01*G37*G36*X013598Y039542D02*
X013598Y039564D01*X013620Y039564D01*X013620Y039542D01*X013598Y039542D01*G37*G36*
X012453Y040155D02*X012453Y040199D01*X012475Y040199D01*X012475Y040307D01*
X012496Y040307D01*X012496Y040415D01*X012518Y040415D01*X012518Y040523D01*
X012539Y040523D01*X012539Y040631D01*X012561Y040631D01*X012561Y040739D01*
X012583Y040739D01*X012583Y040847D01*X012604Y040847D01*X012604Y040890D01*
X012626Y040890D01*X012626Y040911D01*X012647Y040911D01*X012647Y040933D01*
X012669Y040933D01*X012669Y040955D01*X012712Y040955D01*X012712Y040976D01*
X012799Y040976D01*X012799Y040998D01*X014268Y040998D01*X014268Y040955D01*
X014246Y040955D01*X014246Y040890D01*X014224Y040890D01*X014224Y040847D01*
X014203Y040847D01*X014203Y040803D01*X014181Y040803D01*X014181Y040760D01*
X014160Y040760D01*X014160Y040695D01*X014138Y040695D01*X014138Y040652D01*
X014116Y040652D01*X014116Y040609D01*X014095Y040609D01*X014095Y040566D01*
X014073Y040566D01*X014073Y040501D01*X014052Y040501D01*X014052Y040458D01*
X014030Y040458D01*X014030Y040415D01*X014008Y040415D01*X014008Y040371D01*
X013987Y040371D01*X013987Y040328D01*X013965Y040328D01*X013965Y040263D01*
X013944Y040263D01*X013944Y040220D01*X013922Y040220D01*X013922Y040177D01*
X013900Y040177D01*X013900Y040134D01*X013879Y040134D01*X013879Y040069D01*
X013857Y040069D01*X013857Y040026D01*X013836Y040026D01*X013836Y039983D01*
X013814Y039983D01*X013814Y039939D01*X013792Y039939D01*X013792Y039874D01*
X013771Y039874D01*X013771Y039831D01*X013749Y039831D01*X013749Y039788D01*
X013728Y039788D01*X013728Y039745D01*X013706Y039745D01*X013706Y039680D01*
X013684Y039680D01*X013684Y039637D01*X013663Y039637D01*X013663Y039594D01*
X013641Y039594D01*X013641Y039550D01*X013620Y039550D01*X013620Y039637D01*
X013641Y039637D01*X013641Y039766D01*X013663Y039766D01*X013663Y039896D01*
X013684Y039896D01*X013684Y040004D01*X013706Y040004D01*X013706Y040134D01*
X013728Y040134D01*X013728Y040263D01*X013749Y040263D01*X013749Y040393D01*
X013771Y040393D01*X013771Y040523D01*X013792Y040523D01*X013792Y040652D01*
X013814Y040652D01*X013814Y040760D01*X013836Y040760D01*X013836Y040803D01*
X013101Y040803D01*X013101Y040782D01*X013058Y040782D01*X013058Y040760D01*
X013036Y040760D01*X013036Y040739D01*X013015Y040739D01*X013015Y040652D01*
X012993Y040652D01*X012993Y040544D01*X012971Y040544D01*X012971Y040436D01*
X012950Y040436D01*X012950Y040328D01*X012928Y040328D01*X012928Y040220D01*
X012907Y040220D01*X012907Y040155D01*X012453Y040155D01*G37*G36*X010617Y040112D02*
X010617Y040242D01*X010638Y040242D01*X010638Y040371D01*X010660Y040371D01*
X010660Y040393D01*X011092Y040393D01*X011092Y040307D01*X011070Y040307D01*
X011070Y040199D01*X011114Y040199D01*X011114Y040177D01*X011178Y040177D01*
X011178Y040155D01*X012907Y040155D01*X012907Y040112D01*X012885Y040112D01*
X012885Y039983D01*X012863Y039983D01*X012863Y039961D01*X011006Y039961D01*
X011006Y039983D01*X010833Y039983D01*X010833Y040004D01*X010768Y040004D01*
X010768Y040026D01*X010703Y040026D01*X010703Y040047D01*X010682Y040047D01*
X010682Y040069D01*X010660Y040069D01*X010660Y040091D01*X010638Y040091D01*
X010638Y040112D01*X010617Y040112D01*
G37*G36*X010660Y040393D02*X010660Y040479D01*
X010682Y040479D01*X010682Y040587D01*X010703Y040587D01*X010703Y040717D01*
X010725Y040717D01*X010725Y040825D01*X010746Y040825D01*X010746Y040890D01*
X010768Y040890D01*X010768Y040911D01*X010790Y040911D01*X010790Y040933D01*
X010811Y040933D01*X010811Y040955D01*X010854Y040955D01*X010854Y040976D01*
X010941Y040976D01*X010941Y040998D01*X012345Y040998D01*X012345Y040976D01*
X012388Y040976D01*X012388Y040955D01*X012410Y040955D01*X012410Y040933D01*
X012431Y040933D01*X012431Y040695D01*X012410Y040695D01*X012410Y040587D01*
X011978Y040587D01*X011978Y040674D01*X011999Y040674D01*X011999Y040782D01*
X011978Y040782D01*X011978Y040803D01*X011243Y040803D01*X011243Y040782D01*
X011200Y040782D01*X011200Y040760D01*X011178Y040760D01*X011178Y040739D01*
X011157Y040739D01*X011157Y040674D01*X011135Y040674D01*X011135Y040609D01*
X011114Y040609D01*X011114Y040587D01*X012410Y040587D01*X012410Y040544D01*
X012388Y040544D01*X012388Y040479D01*X012367Y040479D01*X012367Y040436D01*
X012323Y040436D01*X012323Y040415D01*X012302Y040415D01*X012302Y040393D01*
X010660Y040393D01*G37*G36*X009472Y040155D02*X009472Y040285D01*X009493Y040285D01*
X009493Y040393D01*X009515Y040393D01*X009515Y040523D01*X009537Y040523D01*
X009537Y040631D01*X009558Y040631D01*X009558Y040739D01*X009580Y040739D01*
X009580Y040868D01*X009601Y040868D01*X009601Y040976D01*X009623Y040976D01*
X009623Y041084D01*X009645Y041084D01*X009645Y041214D01*X009666Y041214D01*
X009666Y041322D01*X009688Y041322D01*X009688Y041408D01*X010163Y041408D01*
X010163Y041387D01*X010142Y041387D01*X010142Y041279D01*X010120Y041279D01*
X010120Y041192D01*X010098Y041192D01*X010098Y041084D01*X010077Y041084D01*
X010077Y040998D01*X010638Y040998D01*X010638Y040955D01*X010617Y040955D01*
X010617Y040825D01*X010595Y040825D01*X010595Y040803D01*X010034Y040803D01*
X010034Y040739D01*X010012Y040739D01*X010012Y040652D01*X009990Y040652D01*
X009990Y040544D01*X009969Y040544D01*X009969Y040436D01*X009947Y040436D01*
X009947Y040350D01*X009925Y040350D01*X009925Y040199D01*X009947Y040199D01*
X009947Y040177D01*X009990Y040177D01*X009990Y040155D01*X010530Y040155D01*
X010530Y040026D01*X010509Y040026D01*X010509Y039961D01*X009969Y039961D01*
X009969Y039983D01*X009731Y039983D01*X009731Y040004D01*X009666Y040004D01*
X009666Y040026D01*X009601Y040026D01*X009601Y040047D01*X009580Y040047D01*
X009580Y040069D01*X009537Y040069D01*X009537Y040091D01*X009515Y040091D01*
X009515Y040112D01*X009493Y040112D01*X009493Y040155D01*X009472Y040155D01*G37*G36*
X007592Y039983D02*X007592Y040047D01*X007614Y040047D01*X007614Y040155D01*
X007636Y040155D01*X007636Y040263D01*X007657Y040263D01*X007657Y040393D01*
X007679Y040393D01*X007679Y040479D01*X007700Y040479D01*X007700Y040609D01*
X007722Y040609D01*X007722Y040717D01*X007744Y040717D01*X007744Y040825D01*
X007765Y040825D01*X007765Y040911D01*X007787Y040911D01*X007787Y040998D01*
X009040Y040998D01*X009040Y040976D01*X009169Y040976D01*X009169Y040955D01*
X009234Y040955D01*X009234Y040933D01*X009299Y040933D01*X009299Y040911D01*
X009342Y040911D01*X009342Y040890D01*X009364Y040890D01*X009364Y040868D01*
X009407Y040868D01*X009407Y040825D01*X009429Y040825D01*X009429Y040674D01*
X009407Y040674D01*X009407Y040544D01*X009385Y040544D01*X009385Y040393D01*
X009364Y040393D01*X009364Y040263D01*X009342Y040263D01*X009342Y040134D01*
X009321Y040134D01*X009321Y039983D01*X008845Y039983D01*X008845Y040026D01*
X008867Y040026D01*X008867Y040134D01*X008889Y040134D01*X008889Y040285D01*
X008910Y040285D01*X008910Y040393D01*X008932Y040393D01*X008932Y040523D01*
X008953Y040523D01*X008953Y040631D01*X008975Y040631D01*X008975Y040760D01*
X008953Y040760D01*X008953Y040782D01*X008910Y040782D01*X008910Y040803D01*
X008197Y040803D01*X008197Y040782D01*X008176Y040782D01*X008176Y040652D01*
X008154Y040652D01*X008154Y040544D01*X008132Y040544D01*X008132Y040436D01*
X008111Y040436D01*X008111Y040307D01*X008089Y040307D01*X008089Y040220D01*
X008068Y040220D01*X008068Y040091D01*X008046Y040091D01*X008046Y039983D01*
X007592Y039983D01*G37*G36*X006923Y039961D02*X007420Y039961D01*X007420Y040004D01*
X007441Y040004D01*X007441Y040112D01*X007463Y040112D01*X007463Y040220D01*
X007484Y040220D01*X007484Y040328D01*X007506Y040328D01*X007506Y040436D01*
X007528Y040436D01*X007528Y040566D01*X007549Y040566D01*X007549Y040674D01*
X007571Y040674D01*X007571Y040782D01*X007592Y040782D01*X007592Y040890D01*
X007614Y040890D01*X007614Y040998D01*X007636Y040998D01*X007636Y041106D01*
X007657Y041106D01*X007657Y041235D01*X007679Y041235D01*X007679Y041343D01*
X007700Y041343D01*X007700Y041451D01*X007722Y041451D01*X007722Y041560D01*
X007744Y041560D01*X007744Y041603D01*X007225Y041603D01*X007225Y041603D01*
X007225Y041516D01*X007204Y041516D01*X007204Y041408D01*X007182Y041408D01*
X007182Y041300D01*X007160Y041300D01*X007160Y041171D01*X007139Y041171D01*
X007139Y041063D01*X007117Y041063D01*X007117Y040955D01*X007096Y040955D01*
X007096Y040847D01*X007074Y040847D01*X007074Y040739D01*X007052Y040739D01*
X007052Y040609D01*X007031Y040609D01*X007031Y040501D01*X007009Y040501D01*
X007009Y040393D01*X006988Y040393D01*X006988Y040285D01*X006966Y040285D01*
X006966Y040177D01*X006944Y040177D01*X006944Y040047D01*X006923Y040047D01*
X006923Y039961D01*G37*G36*X002775Y040514D02*X002797Y040514D01*X002797Y040450D01*
X002818Y040450D01*X002818Y040406D01*X002840Y040406D01*X002840Y040363D01*
X002861Y040363D01*X002861Y040320D01*X002883Y040320D01*X002883Y040298D01*
X002905Y040298D01*X002905Y040255D01*X002926Y040255D01*X002926Y040233D01*
X002948Y040233D01*X002948Y040212D01*X002969Y040212D01*X002969Y040190D01*
X002991Y040190D01*X002991Y040169D01*X003013Y040169D01*X003013Y040147D01*
X003034Y040147D01*X003034Y040126D01*X003077Y040126D01*X003077Y040104D01*
X003099Y040104D01*X003099Y040082D01*X003120Y040082D01*X003120Y040061D01*
X003164Y040061D01*X003164Y040039D01*X003186Y040039D01*X003186Y040017D01*
X003229Y040017D01*X003229Y039996D01*X003250Y039996D01*X003250Y039974D01*
X003293Y039974D01*X003293Y039953D01*X003315Y039953D01*X003315Y039931D01*
X003358Y039931D01*X003358Y039909D01*X003401Y039909D01*X003401Y039888D01*
X003445Y039888D01*X003445Y039866D01*X003488Y039866D01*X003488Y039845D01*
X003531Y039845D01*X003531Y039823D01*X003574Y039823D01*X003574Y039801D01*
X003617Y039801D01*X003617Y039780D01*X003661Y039780D01*X003661Y039758D01*
X003704Y039758D01*X003704Y039737D01*X003768Y039737D01*X003768Y039715D01*
X003790Y039715D01*X003790Y039693D01*X003855Y039693D01*X003855Y039672D01*
X003899Y039672D01*X003899Y039650D01*X003942Y039650D01*X003942Y039629D01*
X003985Y039629D01*X003985Y039607D01*X004028Y039607D01*X004028Y039650D01*
X004007Y039650D01*X004007Y039889D01*X004028Y039889D01*X004028Y039974D01*
X004049Y039974D01*X004049Y040040D01*X004071Y040040D01*X004071Y040104D01*
X004093Y040104D01*X004093Y040147D01*X004115Y040147D01*X004115Y040212D01*
X004137Y040212D01*X004137Y040255D01*X004158Y040255D01*X004158Y040276D01*
X004180Y040276D01*X004180Y040320D01*X004201Y040320D01*X004201Y040363D01*
X004223Y040363D01*X004223Y040406D01*X004244Y040406D01*X004244Y040450D01*
X004266Y040450D01*X004266Y040471D01*X004287Y040471D01*X004287Y040514D01*
X004308Y040514D01*X004308Y040536D01*X004331Y040536D01*X004331Y040579D01*
X004352Y040579D01*X004352Y040601D01*X004373Y040601D01*X004373Y040644D01*
X004396Y040644D01*X004396Y040666D01*X004417Y040666D01*X004417Y040709D01*
X004438Y040709D01*X004438Y040752D01*X004460Y040752D01*X004460Y040774D01*
X004482Y040774D01*X004482Y040817D01*X004503Y040817D01*X004503Y040838D01*
X004525Y040838D01*X004525Y040881D01*X004547Y040881D01*X004547Y040903D01*
X004568Y040903D01*X004568Y040946D01*X004589Y040946D01*X004589Y040990D01*
X004611Y040990D01*X004611Y041011D01*X004633Y041011D01*X004633Y041055D01*
X004654Y041055D01*X004654Y041098D01*X004677Y041098D01*X004677Y041141D01*
X004698Y041141D01*X004698Y041163D01*X004093Y041163D01*X004093Y041141D01*
X004071Y041141D01*X004071Y041162D01*X004050Y041162D01*X004050Y041141D01*
X003877Y041141D01*X003877Y041120D01*X003727Y041120D01*X003727Y041098D01*
X003640Y041098D01*X003640Y041077D01*X003552Y041077D01*X003552Y041055D01*
X003488Y041055D01*X003488Y041032D01*X003445Y041032D01*X003445Y041012D01*
X003379Y041012D01*X003379Y040989D01*X003337Y040989D01*X003337Y040968D01*
X003293Y040968D01*X003293Y040946D01*X003271Y040946D01*X003271Y040925D01*
X003229Y040925D01*X003229Y040903D01*X003206Y040903D01*X003206Y040882D01*
X003186Y040882D01*X003186Y040861D01*X003164Y040861D01*X003164Y040839D01*
X003143Y040839D01*X003143Y040817D01*X003121Y040817D01*X003121Y040860D01*
X003143Y040860D01*X003143Y040881D01*X003165Y040881D01*X003165Y040925D01*
X003185Y040925D01*X003185Y040946D01*X003207Y040946D01*X003207Y040968D01*
X003228Y040968D01*X003228Y040990D01*X003251Y040990D01*X003251Y041011D01*
X003272Y041011D01*X003272Y041033D01*X003294Y041033D01*X003294Y041054D01*
X003337Y041054D01*X003337Y041076D01*X003358Y041076D01*X003358Y041098D01*
X003379Y041098D01*X003379Y041119D01*X003423Y041119D01*X003423Y041140D01*
X003445Y041140D01*X003445Y041162D01*X003488Y041162D01*X003488Y041184D01*
X003531Y041184D01*X003531Y041206D01*X003574Y041206D01*X003574Y041227D01*
X003640Y041227D01*X003640Y041249D01*X003683Y041249D01*X003683Y041270D01*
X003747Y041270D01*X003747Y041293D01*X003813Y041293D01*X003813Y041314D01*
X003878Y041314D01*X003878Y041335D01*X003964Y041335D01*X003964Y041356D01*
X004050Y041356D01*X004050Y041378D01*X004157Y041378D01*X004157Y041400D01*
X004287Y041400D01*X004287Y041421D01*X004481Y041421D01*X004481Y041443D01*
X005044Y041443D01*X005044Y041465D01*X005216Y041465D01*X005216Y041486D01*
X005303Y041486D01*X005303Y041508D01*X005367Y041508D01*X005367Y041530D01*
X005433Y041530D01*X005433Y041551D01*X005562Y041551D01*X005562Y041529D01*
X005583Y041529D01*X005583Y041508D01*X005605Y041508D01*X005605Y041443D01*
X005583Y041443D01*X005583Y041378D01*X005562Y041378D01*X005562Y041335D01*
X005540Y041335D01*X005540Y041292D01*X005518Y041292D01*X005518Y041270D01*
X005497Y041270D01*X005497Y041227D01*X005475Y041227D01*X005475Y041206D01*
X005454Y041206D01*X005454Y041163D01*X005432Y041163D01*X005432Y041141D01*
X005410Y041141D01*X005410Y041098D01*X005389Y041098D01*X005389Y041076D01*
X005367Y041076D01*X005367Y041033D01*X005346Y041033D01*X005346Y041011D01*
X005324Y041011D01*X005324Y040990D01*X005303Y040990D01*X005303Y040968D01*
X005281Y040968D01*X005281Y040925D01*X005259Y040925D01*X005259Y040904D01*
X005238Y040904D01*X005238Y040882D01*X005216Y040882D01*X005216Y040839D01*
X005195Y040839D01*X005195Y040817D01*X005173Y040817D01*X005173Y040796D01*
X005151Y040796D01*X005151Y040752D01*X005130Y040752D01*X005130Y040730D01*
X005108Y040730D01*X005108Y040709D01*X005086Y040709D01*X005086Y040687D01*
X005065Y040687D01*X005065Y040644D01*X005043Y040644D01*X005043Y040622D01*
X005022Y040622D01*X005022Y040601D01*X005000Y040601D01*X005000Y040580D01*
X004979Y040580D01*X004979Y040536D01*X004957Y040536D01*X004957Y040514D01*
X004935Y040514D01*X004935Y040493D01*X004914Y040493D01*X004914Y040450D01*
X004892Y040450D01*X004892Y040428D01*X004870Y040428D01*X004870Y040407D01*
X004848Y040407D01*X004848Y040363D01*X004827Y040363D01*X004827Y040341D01*
X004806Y040341D01*X004806Y040320D01*X004784Y040320D01*X004784Y040277D01*
X004762Y040277D01*X004762Y040255D01*X004741Y040255D01*X004741Y040212D01*
X004719Y040212D01*X004719Y040190D01*X004698Y040190D01*X004698Y040147D01*
X004676Y040147D01*X004676Y040125D01*X004654Y040125D01*X004654Y040082D01*
X004633Y040082D01*X004633Y040039D01*X004611Y040039D01*X004611Y039996D01*
X004590Y039996D01*X004590Y039953D01*X004568Y039953D01*X004568Y039910D01*
X004547Y039910D01*X004547Y039867D01*X004525Y039867D01*X004525Y039802D01*
X004503Y039802D01*X004503Y039650D01*X004525Y039650D01*X004525Y039607D01*
X004547Y039607D01*X004547Y039585D01*X004741Y039585D01*X004741Y039608D01*
X004806Y039608D01*X004806Y039629D01*X004849Y039629D01*X004849Y039650D01*
X004870Y039650D01*X004870Y039673D01*X004892Y039673D01*X004892Y039694D01*
X004914Y039694D01*X004914Y039715D01*X004936Y039715D01*X004936Y039737D01*
X004957Y039737D01*X004957Y039758D01*X004979Y039758D01*X004979Y039801D01*
X005000Y039801D01*X005000Y039823D01*X005022Y039823D01*X005022Y039845D01*
X005064Y039845D01*X005064Y039866D01*X005108Y039866D01*X005108Y039888D01*
X005195Y039888D01*X005195Y039866D01*X005238Y039866D01*X005238Y039823D01*
X005259Y039823D01*X005259Y039651D01*X005238Y039651D01*X005238Y039607D01*
X005216Y039607D01*X005216Y039585D01*X005195Y039585D01*X005195Y039564D01*
X005173Y039564D01*X005173Y039543D01*X005151Y039543D01*X005151Y039520D01*
X005130Y039520D01*X005130Y039499D01*X005107Y039499D01*X005107Y039477D01*
X005065Y039477D01*X005065Y039455D01*X005043Y039455D01*X005043Y039434D01*
X005000Y039434D01*X005000Y039412D01*X004957Y039412D01*X004957Y039391D01*
X004892Y039391D01*X004892Y039369D01*X004828Y039369D01*X004828Y039348D01*
X004741Y039348D01*X004741Y039327D01*X004827Y039327D01*X004827Y039304D01*
X004978Y039304D01*X004978Y039283D01*X005173Y039283D01*X005173Y039304D01*
X005324Y039304D01*X005324Y039326D01*X005388Y039326D01*X005388Y039348D01*
X005454Y039348D01*X005454Y039370D01*X005497Y039370D01*X005497Y039391D01*
X005540Y039391D01*X005540Y039413D01*X005562Y039413D01*X005562Y039435D01*
X005605Y039435D01*X005605Y039455D01*X005626Y039455D01*X005626Y039478D01*
X005670Y039478D01*X005670Y039498D01*X005691Y039498D01*X005691Y039520D01*
X005713Y039520D01*X005713Y039542D01*X005735Y039542D01*X005735Y039564D01*
X005756Y039564D01*X005756Y039586D01*X005778Y039586D01*X005778Y039607D01*
X005800Y039607D01*X005800Y039628D01*X005821Y039628D01*X005821Y039672D01*
X005843Y039672D01*X005843Y039694D01*X005864Y039694D01*X005864Y039715D01*
X005886Y039715D01*X005886Y039758D01*X005908Y039758D01*X005908Y039801D01*
X005929Y039801D01*X005929Y039845D01*X005951Y039845D01*X005951Y039866D01*
X005972Y039866D01*X005972Y039931D01*X005994Y039931D01*X005994Y039974D01*
X006015Y039974D01*X006015Y040017D01*X006037Y040017D01*X006037Y040061D01*
X006058Y040061D01*X006058Y040126D01*X006080Y040126D01*X006080Y040169D01*
X006102Y040169D01*X006102Y040233D01*X006124Y040233D01*X006124Y040297D01*
X006146Y040297D01*X006146Y040341D01*X006167Y040341D01*X006167Y040407D01*
X006189Y040407D01*X006189Y040471D01*X006210Y040471D01*X006210Y040514D01*
X006231Y040514D01*X006231Y040579D01*X006253Y040579D01*X006253Y040644D01*
X006275Y040644D01*X006275Y040730D01*X006296Y040730D01*X006296Y040796D01*
X006317Y040796D01*X006317Y040882D01*X006340Y040882D01*X006340Y040989D01*
X006361Y040989D01*X006361Y041119D01*X006382Y041119D01*X006382Y041595D01*
X006360Y041595D01*X006360Y041681D01*X006339Y041681D01*X006339Y041767D01*
X006318Y041767D01*X006318Y041810D01*X006296Y041810D01*X006296Y041875D01*
X006275Y041875D01*X006275Y041897D01*X006253Y041897D01*X006253Y041940D01*
X006232Y041940D01*X006232Y041962D01*X006210Y041962D01*X006210Y041984D01*
X006189Y041984D01*X006189Y042027D01*X006167Y042027D01*X006167Y042049D01*
X006144Y042049D01*X006144Y042070D01*X006101Y042070D01*X006101Y042091D01*
X006079Y042091D01*X006079Y042113D01*X006059Y042113D01*X006059Y042134D01*
X006017Y042134D01*X006017Y042156D01*X005973Y042156D01*X005973Y042177D01*
X005908Y042177D01*X005908Y042200D01*X005864Y042200D01*X005864Y042092D01*
X005842Y042092D01*X005842Y042048D01*X005821Y042048D01*X005821Y042005D01*
X005799Y042005D01*X005799Y041961D01*X005778Y041961D01*X005778Y041941D01*
X005756Y041941D01*X005756Y041919D01*X005735Y041919D01*X005735Y041897D01*
X005713Y041897D01*X005713Y041875D01*X005692Y041875D01*X005692Y041854D01*
X005648Y041854D01*X005648Y041832D01*X005605Y041832D01*X005605Y041811D01*
X005519Y041811D01*X005519Y041788D01*X005367Y041788D01*X005367Y041811D01*
X005302Y041811D01*X005302Y041832D01*X005259Y041832D01*X005259Y041854D01*
X005238Y041854D01*X005238Y041876D01*X005216Y041876D01*X005216Y041897D01*
X005195Y041897D01*X005195Y041919D01*X005173Y041919D01*X005173Y041962D01*
X005152Y041962D01*X005152Y042135D01*X005173Y042135D01*X005173Y042178D01*
X005195Y042178D01*X005195Y042221D01*X005065Y042221D01*X005065Y042199D01*
X004957Y042199D01*X004957Y042178D01*X004870Y042178D01*X004870Y042156D01*
X004784Y042156D01*X004784Y042135D01*X004719Y042135D01*X004719Y042113D01*
X004633Y042113D01*X004633Y042091D01*X004568Y042091D01*X004568Y042070D01*
X004503Y042070D01*X004503Y042048D01*X004460Y042048D01*X004460Y042026D01*
X004395Y042026D01*X004395Y042005D01*X004352Y042005D01*X004352Y041983D01*
X004287Y041983D01*X004287Y041962D01*X004244Y041962D01*X004244Y041940D01*
X004201Y041940D01*X004201Y041919D01*X004158Y041919D01*X004158Y041897D01*
X004114Y041897D01*X004114Y041875D01*X004050Y041875D01*X004050Y041854D01*
X004006Y041854D01*X004006Y041832D01*X003963Y041832D01*X003963Y041811D01*
X003942Y041811D01*X003942Y041789D01*X003898Y041789D01*X003898Y041767D01*
X003855Y041767D01*X003855Y041746D01*X003812Y041746D01*X003812Y041724D01*
X003769Y041724D01*X003769Y041703D01*X003726Y041703D01*X003726Y041681D01*
X003704Y041681D01*X003704Y041659D01*X003661Y041659D01*X003661Y041638D01*
X003617Y041638D01*X003617Y041616D01*X003574Y041616D01*X003574Y041595D01*
X003553Y041595D01*X003553Y041573D01*X003509Y041573D01*X003509Y041552D01*
X003466Y041552D01*X003466Y041530D01*X003445Y041530D01*X003445Y041508D01*
X003402Y041508D01*X003402Y041486D01*X003380Y041486D01*X003380Y041465D01*
X003337Y041465D01*X003337Y041443D01*X003293Y041443D01*X003293Y041422D01*
X003272Y041422D01*X003272Y041400D01*X003229Y041400D01*X003229Y041379D01*
X003207Y041379D01*X003207Y041357D01*X003185Y041357D01*X003185Y041336D01*
X003142Y041336D01*X003142Y041314D01*X003120Y041314D01*X003120Y041292D01*
X003099Y041292D01*X003099Y041271D01*X003077Y041271D01*X003077Y041249D01*
X003056Y041249D01*X003056Y041227D01*X003034Y041227D01*X003034Y041206D01*
X003013Y041206D01*X003013Y041184D01*X002991Y041184D01*X002991Y041162D01*
X002969Y041162D01*X002969Y041141D01*X002948Y041141D01*X002948Y041098D01*
X002926Y041098D01*X002926Y041076D01*X002905Y041076D01*X002905Y041033D01*
X002883Y041033D01*X002883Y041011D01*X002861Y041011D01*X002861Y040968D01*
X002840Y040968D01*X002840Y040925D01*X002818Y040925D01*X002818Y040860D01*
X002797Y040860D01*X002797Y040774D01*X002775Y040774D01*X002775Y040514D01*G37*G36*
X015607Y040371D02*X015607Y040458D01*X015629Y040458D01*X015629Y040566D01*
X015650Y040566D01*X015650Y040674D01*X015672Y040674D01*X015672Y040782D01*
X015693Y040782D01*X015693Y040868D01*X015715Y040868D01*X015715Y040911D01*
X015737Y040911D01*X015737Y040933D01*X015758Y040933D01*X015758Y040955D01*
X015801Y040955D01*X015801Y040976D01*X015888Y040976D01*X015888Y040998D01*
X017292Y040998D01*X017292Y040976D01*X017335Y040976D01*X017335Y040955D01*
X017378Y040955D01*X017378Y040911D01*X017400Y040911D01*X017400Y040760D01*
X017378Y040760D01*X017378Y040609D01*X017357Y040609D01*X017357Y040587D01*
X016925Y040587D01*X016925Y040652D01*X016946Y040652D01*X016946Y040782D01*
X016925Y040782D01*X016925Y040803D01*X016212Y040803D01*X016212Y040782D01*
X016169Y040782D01*X016169Y040760D01*X016147Y040760D01*X016147Y040739D01*
X016125Y040739D01*X016125Y040717D01*X016104Y040717D01*X016104Y040652D01*
X016082Y040652D01*X016082Y040587D01*X017357Y040587D01*X017357Y040544D01*
X017357Y040501D01*X017335Y040501D01*X017335Y040458D01*X017314Y040458D01*
X017314Y040436D01*X017292Y040436D01*X017292Y040415D01*X017249Y040415D01*
X017249Y040393D01*X017162Y040393D01*X017162Y040371D01*X015607Y040371D01*G37*G36*
X015564Y040134D02*X015564Y040220D01*X015585Y040220D01*X015585Y040350D01*
X015607Y040350D01*X015607Y040371D01*X016039Y040371D01*X016039Y040307D01*
X016039Y040263D01*X016017Y040263D01*X016017Y040220D01*X016039Y040220D01*
X016039Y040199D01*X016082Y040199D01*X016082Y040177D01*X016147Y040177D01*
X016147Y040155D01*X017962Y040155D01*X017962Y040134D01*X017918Y040134D01*
X017918Y040112D01*X017897Y040112D01*X017897Y040091D01*X017854Y040091D01*
X017854Y040069D01*X017832Y040069D01*X017832Y040047D01*X017789Y040047D01*
X017789Y040026D01*X017767Y040026D01*X017767Y040004D01*X017724Y040004D01*
X017724Y039983D01*X017702Y039983D01*X017702Y039961D01*X015931Y039961D01*
X015931Y039983D01*X015780Y039983D01*X015780Y040004D01*X015715Y040004D01*
X015715Y040026D01*X015650Y040026D01*X015650Y040047D01*X015629Y040047D01*
X015629Y040069D01*X015607Y040069D01*X015607Y040091D01*X015585Y040091D01*
X015585Y040134D01*X015564Y040134D01*G37*X000000Y000000D02*M02*
